<svg id="Layer_1" data-name="Layer 1" xmlns="http://www.w3.org/2000/svg" viewBox="0 0 1200 1000"><defs><style>.cls-1{fill:#2296ba;}.cls-2,.cls-3{fill:#ace058;}.cls-2{stroke:#99d233;stroke-miterlimit:10;stroke-width:8px;}</style></defs><path class="cls-1" d="M1202.9,1000c6.9-25-10.4-48.2-20.5-67.9-3.1-6.1-5.6-12-3.2-17.2a140.49,140.49,0,0,0,12.6-47.6c.2-2.1,2.1-3,4.2-3.3a518.18,518.18,0,0,0-71.2-195.5c0,1.4-.6,3.1,0,4.3,10.2,20.1,5.8,37-9.3,53.9-8.6,9.5-3.3,29.2,5.4,39,11.6,13.1,25.1,24,30.9,42.4,4.9,15.5-.9,26.8-5.1,39.5-1.7,5.1-6.6,4.9-11,1.7-3.5-2.5-7.4-4.7-10.9-7.3-2.6-2-5.6-3-7.8-.7-1.3,1.3-1.2,4.4-1,6.6,1.8,22.6,9.5,42,31.4,53.8,6.9,3.7,9.4,11.2,9.9,16.7,2.4,24.4-8,61.2,5.5,81.7"/><path class="cls-1" d="M1162.7,1000c7.2-2.2-39.1-80.4-36.1-87,1.5-3.3-.3-8.6-5.8-11.7-10.3-5.8-11.2-17-13.1-26.8-5-26.5-17.5-50.5-25.7-76.2-1.9,1-3.1,1.2-3.5,1.9-3.1,5.1-.1,14.5-11,14-8.8-.4-11.2-7.6-13.6-13.4-10.9-26.8-34.3-38-62-29.1-2.5.8-5.1,1.7-4.9,4.4,1.7,23.7-15.4,40.2-27.1,57.4-16,23.4-24.1,46.9-20.2,74.3a33.57,33.57,0,0,1-.1,11.4c-1.8,9-5.5,18.9-13.8,22.4s-11.1-7.6-15.6-12.4c-19.5-20.6-37.8-42.2-56.8-63.3-6.4-7-10.7-14.3-9.9-24,.7-8.7-3.4-13.5-12.5-8.2-10.6,6.2-17.9,2.6-25.7-4.7-11.4-10.7-28.6-15.3-34.3-32.1-1.4-4.2-8-5.2-13.2-3.7-8.9,2.6-18.6,4.2-26.3,8.6-17.2,9.9-35.6,10.6-54.6,9.8-1.5-.1-3.5.6-4.4-.1-11.9-8.9-24.4-.5-34.9-1.8-12-1.5-31.2,1.7-39.2-15.2-2.1-4.5-7.3-7.6-10.7-11.7-4.8-5.7-11.6-7.6-17.1-3.6-6.9,4.9-6.1,13-1.5,19.3,9,12.4,18.5,24.4,30.1,34.5a16.82,16.82,0,0,0,1.8-1c3.7-5.2,5.4-15,13.2-12.6,5.7,1.8,3.3,11.1,2.1,16.8-1.9,8.6,2.1,8.4,8.7,7.1,7.6-1.5,14.3-4.2,18.1-11.1,3-5.4,7.5-9.4,12.6-4.4,9.4,9,21.6,12.9,32.5,19.2,4.3,2.5,7.5,5.3,4.8,10.2-12,21.9-20.3,46.5-44.6,60.1-2.1,1.2-5.3,2.7-5.7,4.4-4.5,23.6-28.6,23.1-44.1,32.9-6.4,4.1-13.9,6.2-18.4,13.2s-24.2,5.2-29.8-2.4a60.88,60.88,0,0,1-6.6-10.9c-4.7-10-8.8-20-20.4-26.2a39.47,39.47,0,0,1-18-20c-1.5-3.9-3.8-8.8-8.8-8.9-13.2-.3-15-9.5-20.1-18.5-13.4-23.5-33.1-43.2-47-66.5-1.6-2.6-4.5-2.1-6.2.1-5,6.5-9,2.5-14.9-3,7.7,30.3,14,58.1,42.1,75.4,7.6,4.7,5.9,14.5,8.9,21.8,2.7,6.8,5.5,11.1,14.2,11.6,9.5.5,16.6,3.1,12.9,16-4.3,15,3.3,22.8,24,29,8.4,2.5,17,4.9,25.1,8.2,8.2,3.5,18.7,4.1,16.8,18.5-.9,7.4,8.9,10,17,5.3q29.55-17.1,59.1-34c4.5-2.6,9.2-4.8,13.6-7.1,2.2,23.6,5.7,24.8-3.8,44.5m315.9-73.1c7-3.7,10.9,3,14.7,6.4,8,7.2,9.1,17.5,8.8,27.2-.2,8.7-9,13.1-15.8,14.8-7.6,1.9-7-7.5-9-11.8-3.1-6.7-3.6-14.4-5.2-21.7C947.3,936.4,948.5,930.6,954.2,927.6Z"/><path class="cls-1" d="M28.4,1000c-2.2-7.1-6.8-17.8-7.9-25-1.8-12,.9-25.3,1.3-38,1.1-34.5,15.3-63.8,38.2-89.7,5.9-6.6,11.9-13.2,18.4-19.3,7.8-7.2,12.6-14.7,12.4-26-.2-11,12.2-15,18.3-22.9,8.5-11.4,19.8-16.1,34.6-13,4.1.9,10.7,1.1,12.9-1.2,14.5-15.3,33.1-9.2,50.3-10.2,3.4-.2,7-.5,10.4-.5,5.1.1,11.2-6.5,14.7-.6,2.7,4.5-3.7,9.2-6.2,13.6-9.3,16.8-7,21.4,12.4,21.4,10.1,0,17.9.1,20.7,12.6,2,8.9,13,8.9,21.2,10,8.4,1.1,7.3-5.9,9-10.4,6.3-16.4,22.4-21,36.3-10.4,9.1,7,39.7,5.5,47.8-2.9,3.5-3.7,5.7-2.9,10-1.4,19.4,6.8,29.9,2.4,39-15.5,4.1-8.1,7.8-16.4,11.5-24.6,1.3-2.9,4.2-5.8.8-9.1s-7.1-2.5-10.8-.2c-4.7,2.9-9.5,10-15.2,4.7-9.7-9-26.7-8.2-31.7-23.5-3.4-10.3-4.4-21.2-10.6-30.8-5.1-7.8-18.7-11.8-24-4.3-7.1,10-18.4,18.6-17.5,32.9.2,3.1,1.5,7-2.5,8.9-4.2,2-6.2-2.5-8.6-4.1-4.2-2.8-9.9-7.2-10.1-11.1-.8-17.1-14.4-24.7-24.9-34.9-5.5-5.3-10.3-10.2-14.8.9-1.6,4-5.9,1.7-9,2.1,10.2,10.9,21.6,20.6,28.8,33.8,2.6,4.7,7.8,8.8.3,12.7-6.3,3.3-12.2,4.5-16.9-4.1-8-14.4-19-26.1-36.1-31.8-7.2-2.3-12.6-1.7-19.6,1-21.2,8.3-37,20.4-44.2,42.3-3.7,11.4-34.8,24.9-46.4,22.2-7.6-1.8-13.7-19.5-8.9-26.7,7.4-11.2,14.8-22.3,22.7-33.2,5-6.9,8.1-15.8,21.4-9.9,8.3,3.7,13.5-6.7,18.8-11.5,6.6-6,11.3-14.3,11.8-23.8.7-12.9,7.9-19.9,20.9-19.2,4.8.2,9,.5,12.4-2.9,1.6-1.6,1-3.4-.9-4.8-4-3-7.9-2.7-12.4-.6a23.58,23.58,0,0,1-18.6.7c-1-4.8,3.1-4.3,5.5-5.1,4.5-1.4,9-4.6,8.5-8.3-.8-6.6-7-2.8-10.9-2.9-4.5-.1-8.8-1-7.8-6,2-10.8,12.1-16.6,18.7-24.3,2.6-3,7.9,2.2,8.3,7,.5,5.5.1,11.1.1,17.2,9.1-1.9,12.9-6.9,11.8-14.5-1.2-8.5,1.4-15.6,6.1-22.7,2.1-3.1,2-7.9,7.6-6.3,5,1.4,4.9,6.2,4.2,9.6a83.12,83.12,0,0,0-.9,32.2c.4,2.2.7,4.5,1.2,7.8,18.9-9.7,36.5-19.6,51.7-33.8,4.1,18.5,3.7,17.3,22.3,11.8,18.8-5.5,32.9-19.7,52.2-23.7,2.5-.5,5.8-1.6,5.3-4.1-3.8-22.5,16.4-19.1,28.4-24.4,1.8-.8,3.7-1.2,7.9-2.5-8.5-4.6-15.7-2.8-22.5-3.2-2.9-.2-6.7.3-7.3-3.2-.3-1.7,2-4.2,3.6-5.7a61.74,61.74,0,0,1,10.3-8c3.1-1.8,9.1-1.2,7.1-6.8-1.8-5.2-7.8-5.2-11.4-3.4-9.5,4.7-19,9.8-27.2,16.2-7.3,5.7-20.3,10.1-10.8,23.7,1.2,1.8-32.4,31.3-35.1,31.8s-3.4-1.4-4.3-3c-1.8-3.2-.2-4.9,2.7-6.9,4.9-3.3,7.6-8.8,4.3-13.6-4.1-5.9-9.2-2.1-14,.8-2.8,1.7-7.1,2.6-9.4-.8-1.9-2.9-1.2-6.5,1.2-9.3,1.2-1.5,2.4-3.3,4.1-4.1,30.1-15.2,51.1-42.8,84.3-54.4,13.1-4.6,26.4-9.5,39.2-15.1,18-7.8,33.8-1.8,49.1,6.1,8.2,4.3,15.1,6.6,23,.2a9.71,9.71,0,0,1,7-1.5c31.1,5.3,56.8-13.8,85.8-17.6,1.3-.2,3.5-1.2,3.6-2,1.3-14.2,7.2-18.6,20.4-9.5,1.6,1.1,4.5-.3,4.5-2.3-.5-19.4,14.7-13.5,25.5-14.6,2.9-.2,5.9,0,9.6,0-.7-6.4-5.7-8.7-9.5-10.1-10.2-3.8-6.2-9.4-1-11.9,12.4-6,24-16.1,39.6-11.5,11.4,3.4,22,5.4,30.2-5.9a4.44,4.44,0,0,1,1.1-.8,2.86,2.86,0,0,1,3.9,1.6c-.2-3.3-3.1-3.5-5.4-3.8-23.2-2.9-46.2-7.1-69.5-8.3C491,364.4,355.1,402,236.4,490.8,86.4,603,6.8,751.5-4.3,932.3c-1.3,21.3-1.1,46.9-.2,67.7"/><path class="cls-2" d="M240.9,997.5c11-.6,379.6,1.4,390.6.8l4.5-.3a2.26,2.26,0,0,0,2-1.6,108.51,108.51,0,0,0,4.2-36.7,2.3,2.3,0,0,0-3.3-1.9c-3.5,1.8-7.1,3.5-10.6,5.5-19.7,11.3-39.4,22.7-59.1,34-8.1,4.7-17.9,2.1-17-5.3,1.8-14.4-8.6-15.1-16.8-18.5s-16.7-5.7-25.1-8.2c-20.7-6.3-28.3-14-24-29,3.7-12.9-3.4-15.5-12.9-16-8.7-.5-11.4-4.8-14.2-11.6-2.9-7.3-1.2-17.2-8.9-21.8C424.4,871,417,846.1,410,818.5a2.26,2.26,0,0,1,3.5-2.4c3.4,2.4,6.3,2.8,9.6-1.6,1.6-2.2,4.6-2.7,6.2-.1,13.9,23.4,33.6,43,47,66.5,5.1,9,6.9,18.2,20.1,18.5,5,.1,7.2,5,8.8,8.9a39.47,39.47,0,0,0,18,20c11.6,6.2,15.7,16.2,20.4,26.2a60.88,60.88,0,0,0,6.6,10.9c5.6,7.6,25.3,9.5,29.8,2.4s12-9.1,18.4-13.2c15.5-9.9,39.6-9.3,44.1-32.9.3-1.8,3.5-3.2,5.7-4.4,24.3-13.6,32.6-38.1,44.6-60.1,2.7-4.9-.5-7.7-4.8-10.2-10.8-6.3-23.1-10.2-32.5-19.2-5.2-4.9-9.6-1-12.6,4.4-3.8,6.9-10.4,9.6-18.1,11.1-6.6,1.3-10.6,1.5-8.7-7.1,1.2-5.7,3.6-15.1-2.1-16.8-7.8-2.4-9.5,7.4-13.2,12.6l-.3.3a2.12,2.12,0,0,1-2.6-.3c-11.1-9.9-20.2-21.6-28.9-33.5-4.6-6.3-5.4-14.4,1.5-19.3,5.5-3.9,12.3-2.1,17.1,3.6,3.4,4.1,8.6,7.2,10.7,11.7,7.9,16.9,27.2,13.7,39.2,15.2,10.4,1.3,23.1-7.1,34.9,1.8.9.7,2.9.1,4.4.1,19,.7,37.4.1,54.6-9.8,7.8-4.5,17.5-6,26.3-8.6,5.2-1.6,11.8-.6,13.2,3.7,5.7,16.8,22.9,21.4,34.3,32.1,7.8,7.3,15.2,10.8,25.7,4.7,9.1-5.3,13.3-.4,12.5,8.2-.8,9.8,3.4,17.1,9.8,24.2,19,21.1,37.3,42.7,56.9,63.2,4.5,4.8,7.5,15.8,15.6,12.4,8.3-3.4,12.1-13.4,13.8-22.4a33.57,33.57,0,0,0,.1-11.4c-3.9-27.5,4.2-50.9,20.2-74.3,11.7-17.2,28.8-33.7,27.1-57.4-.2-2.7,2.4-3.6,4.9-4.4,27.7-8.9,51,2.3,62,29.1,2.4,5.8,4.8,13,13.6,13.4,10.9.6,7.9-8.9,11-14a2.64,2.64,0,0,1,1.3-.8,2.22,2.22,0,0,1,3,1.4c8.2,24.8,20.1,48.1,24.9,73.8,1.8,9.8,2.8,21,13.1,26.8,5.5,3.1,7.3,8.4,5.8,11.7-2.5,5.5-6.3.5-11.7-.1a2.3,2.3,0,0,0-2.4,3.1c13.7,35.9,23.9,43,46.1,77.9a2.65,2.65,0,0,0,1.9,1.1l24.9.3a2.24,2.24,0,0,0,1.9-3.5c-13-20.5-28-50.4-30.2-73.5-.5-5.4-3-13-9.9-16.7-21.9-11.8-29.7-31.2-31.4-53.8-.1-2.2-.3-5.3,1-6.6,2.2-2.3,5.2-1.3,7.8.7,3.5,2.6,7.3,4.8,10.9,7.3,4.5,3.2,9.3,3.4,11-1.7,4.2-12.7,10-24,5.1-39.5-5.8-18.4-19.2-29.3-30.9-42.4-8.7-9.8-14-29.4-5.4-39,15.1-16.9,19.6-33.8,9.3-53.9-.5-.9-.2-2.2-.1-3.4a2.23,2.23,0,0,0-.3-1.4c-10.8-17.5-20.5-35.9-32.6-52.3-36.6-49.4-92.1-102.5-143.2-138.5l3.3,2.8c-28.6-22.5-82.4-49.5-110.4-61-39.9-16.4-81.6-29.3-125.2-34.6a2.37,2.37,0,0,1-1.5-.9l-.3-.3a2.91,2.91,0,0,0-4.2.3c-8.2,11.3-18.8,9.3-30.2,5.9-15.6-4.7-27.3,5.5-39.6,11.5-5.2,2.5-9.2,8.2,1,11.9,3.1,1.2,7,2.9,8.7,6.9a2.23,2.23,0,0,1-2.1,3.1,48.4,48.4,0,0,0-6.6,0c-10.8,1.1-25.9-4.8-25.4,14.6.1,2-2.8,3.4-4.5,2.3-13.2-9.1-19.1-4.7-20.4,9.5-.1.8-2.3,1.8-3.6,2-29,3.8-54.6,22.9-85.7,17.6a10.23,10.23,0,0,0-7,1.5c-7.9,6.4-14.8,4-23-.2-15.3-7.9-31.1-13.9-49.1-6.1-12.8,5.5-26.2,10.5-39.2,15.1-33.2,11.7-54.2,39.2-84.3,54.4-1.7.8-2.8,2.7-4.1,4.1-2.5,2.9-3.1,6.5-1.2,9.3,2.3,3.4,6.6,2.5,9.4.8,4.8-2.9,10-6.7,14-.8,3.3,4.8.6,10.3-4.3,13.6-2.9,2-4.4,3.7-2.7,6.9.9,1.6,1.5,3.5,4.3,3s36.4-30,35.1-31.8c-9.4-13.6,3.6-18,10.9-23.7,8.2-6.4,17.7-11.5,27.2-16.2,3.6-1.8,9.6-1.8,11.4,3.4,2,5.7-4,5-7.1,6.8a66.12,66.12,0,0,0-10.3,8c-1.6,1.5-3.9,4-3.6,5.7.5,3.5,4.4,3,7.3,3.2,5,.3,10.3-.6,16.1.7a2.23,2.23,0,0,1,.2,4.3c-.6.2-1.2.4-1.7.6-12.1,5.3-32.2,1.9-28.4,24.4.4,2.5-2.8,3.6-5.3,4.1-19.3,3.9-33.4,18.1-52.2,23.7-17.2,5.1-18.2,6.5-21.5-8a2.27,2.27,0,0,0-3.7-1.2c-13.8,12.2-29.4,21.1-46.1,29.7a2.33,2.33,0,0,1-3.3-1.7c-.2-1.7-.5-3.2-.7-4.6a79.37,79.37,0,0,1,.9-32.2c.8-3.4.8-8.2-4.2-9.6-5.6-1.6-5.5,3.2-7.6,6.3-4.7,7.1-7.3,14.2-6.1,22.7,1,6.7-1.9,11.4-8.8,13.7a2.17,2.17,0,0,1-2.9-2.2,133.72,133.72,0,0,0-.1-14.2c-.4-4.8-5.7-10.1-8.3-7-6.6,7.8-16.7,13.6-18.7,24.3-1,5,3.4,5.9,7.8,6,3.9.1,10.2-3.7,10.9,2.9.5,3.6-4.1,6.9-8.5,8.3-2.1.7-5.3.4-5.7,3.2a2.3,2.3,0,0,0,1.6,2.4,23.07,23.07,0,0,0,17.1-1.2c4.5-2.1,8.4-2.4,12.4.6,1.9,1.4,2.5,3.2.9,4.8-3.4,3.4-7.6,3.2-12.4,2.9-13-.7-20.2,6.4-20.9,19.2-.5,9.5-5.2,17.8-11.8,23.8-5.3,4.8-10.5,15.2-18.8,11.5-13.3-5.9-16.5,3.1-21.5,9.9-7.9,10.9-15.3,22-22.7,33.2-4.8,7.2,1.3,24.9,8.9,26.7,11.6,2.7,42.7-10.8,46.4-22.2,7.2-21.9,23-34,44.2-42.3,7-2.8,12.4-3.4,19.6-1,17.1,5.7,28.1,17.4,36.1,31.8,4.8,8.6,10.6,7.4,16.9,4.1,7.5-3.9,2.3-8-.3-12.7-6.3-11.6-15.8-20.4-24.9-29.7a2.24,2.24,0,0,1,1.6-3.8,3.45,3.45,0,0,0,3.5-2.4c4.5-11.1,9.3-6.2,14.8-.9,10.5,10.1,24.2,17.8,24.9,34.9.2,3.9,5.9,8.3,10.1,11.1,2.4,1.6,4.4,6.1,8.7,4.1,4-1.9,2.7-5.9,2.5-8.9-.9-14.3,10.3-22.9,17.5-32.9,5.3-7.4,18.9-3.5,24,4.3,6.2,9.6,7.2,20.5,10.6,30.8,5,15.3,22.1,14.5,31.7,23.5,5.7,5.3,10.5-1.8,15.2-4.7,3.7-2.3,7.4-3,10.8.2s.6,6.2-.8,9.1c-3.8,8.2-7.4,16.5-11.5,24.6-9,17.9-19.6,22.3-39,15.5-4.3-1.5-6.4-2.4-10,1.4-8,8.4-38.6,9.9-47.8,2.9-13.9-10.6-30-6-36.3,10.4-1.8,4.6-.6,11.5-9,10.4-8.2-1.1-19.2-1.1-21.2-10-2.8-12.5-10.6-12.6-20.7-12.6-19.4.1-21.7-4.5-12.4-21.4,2.4-4.4,8.8-9.1,6.2-13.6-3.5-5.9-9.6.7-14.7.6-3.4-.1-7,.3-10.4.5-17.2,1-35.9-5.1-50.3,10.2-2.2,2.3-8.8,2.1-12.9,1.2-14.8-3.1-26.1,1.7-34.6,13-5.9,7.9-18.4,11.9-18.1,22.9.3,11.2-4.6,18.8-12.4,26-6.5,6.1-12.5,12.6-18.4,19.3-22.9,25.9-37.1,55.2-38.2,89.6-.4,12.7-3.2,26-1.3,38A123.85,123.85,0,0,0,25,995a2.35,2.35,0,0,0,2.1,1.6l213.8.9m229.3-312c-10.2,1.8-17.9-5.1-28.4-4.7-16.7.6-32.8-1-48.4,7.6-5.4,3-13.8-1.2-17.5-6.5-2.9-4.1-2.7-10.3,3.8-13.3,5.3-2.4,3.7-7.1,4-11.2.3-4.5-1.3-10.8,5.8-11,6-.1,14.2-4.2,17.3,5.4,2.8,8.8,10.7,6.3,16,4.6,4.5-1.5,7.6-4.2,5.1-12.5-2.3-7.8,8.4-11.4,17.6-16.8a2.27,2.27,0,0,1,3.4,1.9c.1,4.2.3,6.8-.1,9.3-1.7,9.4.9,14.4,12.1,13.2,12.5-1.3,18.3,8.3,23.9,16.2C489.9,674.9,481.4,683.5,470.2,685.5Zm116.5,23.7c-4.8,0-9.7,1.8-16.4,3.2h0c-7.9-.2-13.6-8-20.6-12.4-3.3-2.1,1.6-9.2,4.5-13.7,4.8-7.4,4.7-12.4-4.1-18.7-10.5-7.5-21.5-20.1-15.2-32.2,5.1-9.8,13-22.3,28.6-24,8.8-.9,12.9,3.6,15.6,9.8,3.4,7.7-4.4,5.8-8.1,8-5.1,3.1-9.2,10.2-6.6,14.3,3.3,5.2,4,14.9,14.4,13.9,5.9-.5,11.8-1.4,15.6,4.9,1.2,2,4.5,4.2,1.9,5.6-16,8.1-4.3,19.1-1,26C600.9,705.4,600.3,709.2,586.7,709.2Zm47.6-80.4c-11.4-.5-11-7.5-10.9-14.2.1-8.7,5.4-13.6,14.8-14.2,11.2-.6,7,7.6,8.2,11v-.1C645.9,620.7,648.1,629.3,634.3,628.8Z"/><path class="cls-3" d="M1203.2,994.6c3.9-24.2-10.6-42.9-20.7-62.6-3.1-6.1-5.6-12-3.2-17.2a140.49,140.49,0,0,0,12.6-47.6c.2-2.1,2.1-3,4.2-3.3,8.7,20.2,7,42,9,63"/><path class="cls-3" d="M947.6,942.5c-.3-6.2.9-11.9,6.6-14.9,7-3.7,10.9,3,14.7,6.4,8,7.2,9.1,17.5,8.8,27.2-.2,8.7-9,13.1-15.8,14.8-7.6,1.9-7-7.5-9-11.8C949.7,957.6,949.2,949.8,947.6,942.5Z"/><path class="cls-1" d="M448.8,625c0,6.7.5,10.1-.1,13.3-1.7,9.4.9,14.4,12.1,13.2,12.5-1.3,18.3,8.3,23.9,16.2,5.1,7.2-3.4,15.8-14.6,17.8-10.2,1.8-17.9-5.1-28.4-4.7-16.7.6-32.8-1-48.4,7.6-5.4,3-13.8-1.2-17.5-6.5-2.9-4.1-2.7-10.2,3.8-13.3,5.3-2.5,3.7-7.2,4-11.2.3-4.5-1.3-10.8,5.8-11,6-.1,14.2-4.2,17.3,5.4,2.8,8.8,10.8,6.3,16,4.6,4.5-1.4,7.6-4.2,5.1-12.5C425.3,635.1,439.2,631.6,448.8,625Z"/><path class="cls-1" d="M570.4,712.4c-7.9-.2-13.6-8-20.6-12.4-3.3-2.1,1.6-9.2,4.5-13.7,4.8-7.3,4.7-12.4-4.1-18.7-10.4-7.5-21.5-20.1-15.2-32.2,5.1-9.8,13-22.3,28.6-24,8.8-.9,12.9,3.6,15.6,9.8,3.4,7.8-4.5,5.8-8.1,8-5.1,3.2-9.2,10.2-6.6,14.3,3.3,5.2,4,14.9,14.4,13.9,5.9-.5,11.8-1.3,15.6,4.9,1.2,2,4.5,4.2,1.9,5.6-16,8.1-4.2,19.1-1,26,5.4,11.5,4.8,15.3-8.7,15.3C581.9,709.2,577.1,711,570.4,712.4Z"/><path class="cls-1" d="M646.4,611.3c-.5,9.4,1.8,18-12.1,17.4-11.4-.5-11-7.5-10.9-14.2.1-8.7,5.4-13.6,14.8-14.2C649.4,599.7,645.2,607.9,646.4,611.3Z"/></svg>
