<?xml version="1.0" encoding="utf-8"?>
<!-- Generator: Adobe Illustrator 24.2.0, SVG Export Plug-In . SVG Version: 6.00 Build 0)  -->
<svg version="1.1" id="Layer_1" xmlns="http://www.w3.org/2000/svg" xmlns:xlink="http://www.w3.org/1999/xlink" x="0px" y="0px"
	 viewBox="0 0 1104.1 767.6" style="enable-background:new 0 0 1104.1 767.6;" xml:space="preserve">
<style type="text/css">
	.st0{fill:#58B73A;}
	.st1{fill:#458237;}
	.st2{fill:#89AB33;}
	.st3{fill:#E1E576;}
	.st4{fill:#AED01A;}
	.st5{fill:#88AB33;}
	.st6{fill:#C5D937;}
	.st7{fill:#458337;}
	.st8{fill:#E1E577;}
	.st9{fill:#7A9433;}
	.st10{fill:#468338;}
	.st11{fill:#B1BF1F;}
	.st12{fill:#59B83A;}
	.st13{fill:#478439;}
	.st14{fill:#5AB83D;}
	.st15{fill:#59B83B;}
	.st16{fill:#E2E578;}
	.st17{fill:#4A863D;}
	.st18{fill:#49853B;}
	.st19{fill:#E1E579;}
	.st20{fill:#5AB83B;}
	.st21{fill:#DEE376;}
	.st22{fill:#5FBA43;}
	.st23{fill:#DEE478;}
	.st24{fill:#E1E57B;}
	.st25{fill:#E2E67B;}
	.st26{fill:#E2E579;}
	.st27{fill:#DFE479;}
	.st28{fill:#E0E57A;}
	.st29{fill:#E1E57C;}
	.st30{fill:#DEE477;}
	.st31{fill:#4B863E;}
	.st32{fill:#5CB93F;}
	.st33{fill:#E0E47A;}
	.st34{fill:#4E8841;}
	.st35{fill:#E2E682;}
	.st36{fill:#D7E275;}
	.st37{fill:#E1E67D;}
	.st38{fill:#DAE482;}
	.st39{fill:#69BD42;}
	.st40{fill:#D2E17E;}
	.st41{fill:#D5E275;}
	.st42{fill:#D7E276;}
	.st43{fill:#DBEACC;}
	.st44{fill:#C2DC70;}
	.st45{fill:#59B83C;}
	.st46{fill:#E0E578;}
	.st47{fill:#DFE478;}
	.st48{fill:#E1E578;}
	.st49{fill:#E0E577;}
	.st50{fill:#DFE47C;}
	.st51{fill:#DBE176;}
	.st52{fill:#DEE385;}
	.st53{fill:#B8C828;}
	.st54{fill:#D6E275;}
	.st55{fill:#DFE686;}
	.st56{fill:#DCE47D;}
	.st57{fill:#DBE17A;}
	.st58{fill:none;stroke:#8C6239;stroke-width:8;stroke-linecap:round;stroke-linejoin:round;}
</style>
<path class="st0" d="M107.6,563.9c15.2-9.9,30.9-19,48.1-25.1c2-0.7,4-1.3,6.1-1.7c-17.4,14.5-36.1,27.4-55.9,38.5
	c18.6-6.8,37.2-13.3,57-16.3c-5.6,3-11.1,6-16.8,8.8c-5.8,2.9-11.7,5.6-17.7,8.2c-5.9,2.6-12,4.9-17.9,7.5c15-3,30-6.2,45.2-8
	c-18.9,6.8-38.3,11.9-57.9,16.5c-7.4,2.3-15,3.5-22.6,4.7c-2.7,0.4-5.4,0.4-7.6,2.3c10-2.6,20.1-4.8,30.2-6.4
	c11.7-2.1,23.3-4.3,35-6.4c3.8-0.7,7.7-1.2,11.6-1.4c-1.1,0.5-2.2,1-3.3,1.3c-19.1,6.7-38.5,12.6-58.7,15.1c-3.8,0.5-7.9,1-11.6,0.4
	c-6.2-1-8.9,2.1-11,7.3c27.4-4.1,54.1-11,81-17c-8.7,4.2-17.9,7-27.1,9.8c-3.3,2-7.3,1.9-11,3.7c-0.1,0,0.7,0.2,0.4-0.2
	c-0.1-0.1,0-0.2,0.2-0.3c3.9-0.8,7.7-2.4,11.8-2.6c9.3-1.8,18.5-3.8,28-4.4c-4.1,2.7-8.6,4.3-13.1,6c-24.7,9.2-50.1,16.2-75.6,23.1
	c-8,2.2-8.1,2.1-11.6,10.7c26.2-12.3,53.5-18.3,82-19.7c-1.9,0.8-3.9,1.7-5.8,2.4c-24.1,9.4-49.1,15.3-74.5,19.4
	c-3.6,0.6-3.6,0.6-6.2,7.3c24-10.4,49.9-15.8,76.1-15.6c-7.9,3.9-16.3,6.2-24.7,8.5c-1.8,1.5-4.3,1-6.3,2.1c2.5-1.2,5.2-1.1,7.8-1.4
	l19.9-2.2c-1.9,1.9-3.9,2.2-5.8,2.9c-18.8,6.7-38.3,10.2-58,13.4c-2.1,0.5-4.2,0.8-6.3,0.9c-5.6-0.1-8.7,2.6-9.6,8
	c-0.3,1.2-0.7,2.3-1.1,3.5c24.8-11.4,50.7-15.4,76.9-18.1c-4.4,3.1-9.4,5.1-14.3,7c-19.4,7.3-39.6,11.3-60.2,13
	c-1.3,0.1-2.7-0.2-3.5,1.4c-1.4,2.9-1,3.7,2.2,3.7c19,0.1,37.2-4.2,55.2-9.3c4.6-1.3,9-2.7,13.8-4.2c-0.5,1.5-1.8,1.8-2.7,2.3
	c-21.1,12.8-43.8,19.3-68.5,18.2c-1.9-0.1-3.5,0-3.8,2.3c-0.1,0.6-0.4,1.3-1.1,1.2c-3.6-0.3-7.2,0.7-10.8-1.7
	c-7.9-5.2-12.6-11.5-10.8-21.6c0.8-4.6,0.1-9.5,0.1-15.3c6.8,9.8,12.8,20.1,17.9,30.9c0.3-0.3,0.5-0.5,0.7-0.8
	c2.8-5.6,1.5-10-3.5-13.7c-2.2-1.7-3.9-4.3-5.6-6.5c-10-12.8-10.2-13.4-9.4-30.8l8.3,13.6l0.5-0.2c-1.5-3.2-3-6.4-4.4-9.7
	c-1.4-3.5-2.8-7-4-10.5s-0.4-7.3,0.1-11.2l6.2,10c4,5,6.1,11,8.9,16.7c0.9,1.8,1.8,3.5,2.5,5.3c2.6,5.4,5.1,10.8,5.9,16.7
	c0.8-1.8,0.6-4-0.5-5.6c-2-3.7-3.8-7.6-5.5-11.5c-0.8-1.8-1.7-3.5-2.6-5.2c-2-4.7-4.2-9.2-6.7-13.7c-0.6-1.1-1-2.2-1.2-3.5
	c-2.1-4.8-4-9.7-6.2-14.5c-1.6-3.4-1.5-6.9-1.3-11.6c12,18.9,21.9,37.6,27,58.6c3.6-4.5,3.8-6.1,1.4-11c-11.4-23.3-19-48-25.9-72.9
	c18.3,20.8,25.5,46.2,29.8,73c2.2-1.9,2.3-3.8,1.5-6.4c-5-17-8-34.6-8.9-52.3c-0.1-2.4,0-4.8,0.3-7.2c4.2,9,6.2,18.6,7.9,28.2
	c1.7,9.9,2.7,19.9,3,29.9c3.5-3.1,3.9-4.5,2.9-8.7c-4.6-19.4-5.1-39.1-4.3-58.9c0.1-0.8,0.2-1.6,0.4-2.4c1.6,1.8,2.8,3.9,3.7,6.2
	c1,2.3,1.8,4.7,2.5,7.1c0.7,2.2,1.2,4.5,2,6.7c0.2-12.6-0.1-25.2,1.7-37.8c6,9.5,7.7,20.1,8.4,31.1c0.8,1.3,0.2,2.7,0.2,4
	c0-1.6,0.4-3.3,1.1-4.7c1.4-7.6,3.3-15,6.9-22c2.8,16.9,1.5,34.3-3.9,50.6c2.5-1.9,3.8-3.6,4.1-6.4c2.2-20,8.3-38.5,22-53.9
	c1.1-1.4,2.4-2.6,3.8-3.7c-1.1,7-3.8,13.4-5.4,20.2c7.4-8.7,15.6-16.3,25.8-21.8l-38.2,52.8c2.6-0.9,4.1-2.8,5.6-4.7
	c13.4-17.7,28.9-33.1,48.3-44.4c2.1-1.4,4.5-2.3,7-2.8c-4.3,4.4-8.5,8.8-12.9,13.1s-8.8,8.5-13.3,12.7c-0.3,0.5-0.8,0.9-1.1,1.4
	C106.3,564,107.1,564.2,107.6,563.9z"/>
<path class="st1" d="M966.4,61c-4,0.5-7.7,2.2-11.5,3.6c-1.2,1.6-3.1,2.4-5,2.2c-3.9,1.2-7.7,3.1-12,2.8c-1.5,0.7-2.4,0-3.1-1.2
	c-3.8-5.2-3.5-10.9-2.1-16.7c0.8-3.3,1.9-6.6,2.9-9.9c0.8-3.4,2.1-6.7,3.9-9.6c0.7-1.2,1.5-2.3,2.2-3.4c0.9-1.3,2.2-2.4,3.8-2.9
	c0.6-0.1,1.2-0.1,1.8,0c3,0.9,5.8,2.4,8.1,4.5c-1.3-1.8-2.8-3.4-4.4-4.9c-2.2-2.3-2.5-4.6-0.1-6.9c2.7-2.6,5.1-5.5,8.3-7.7
	c0.9-0.7,1.8-1.4,2.7-2c2.6-1.7,4.8-4.2,8.1-4.9c5.2-4.4,11.4-2.5,17.3-2.5c2.4,0,3,3.4,5,4.8c1.1-1.7-0.2-3.1,0-4.8h112.3
	c-4,8-9.9,14.9-17.3,19.9c-8.6,5.9-18.4,9.7-28.8,11.1c-2.6,0.4-4.4,0.2-5.7-2.5c-0.8-1.8-2.6-3.2-4-4.8c-0.6,1,0,1.6,0.3,2.2
	c3.1,7.7,3.2,8-3.7,12.4c-13.9,8.9-29.4,12.6-45.7,13.8c-2.1,0.1-3.2-0.5-4-2.6c-1.3-2.6-2.7-5.2-4.4-7.6c-0.5-0.7-1.1-1.4-1.7-2.1
	c0.4,3.6,0.6,6.8,1.1,10c0.4,2.4-0.3,3.5-2.8,4c-6,1.3-11.9,3-17.9,4.5C969.1,60.8,967.8,61.3,966.4,61z"/>
<path class="st2" d="M306.6,666.8c12.4-1.3,24.8-2.4,37.3-1.8c-14.3,4.8-29.1,5.8-44,7.2c4.7,1,9.4,2.3,14,3.8
	c4.9,1.6,9.7,3.7,14.1,6.5c-13.2,0.6-24.9-2.5-36.6-5.8c3.6,2.9,7.5,5.4,10.9,9.7c-4.2-0.7-7.9,1.2-11.4-1.4c-0.4-0.3-1.4,1.6-3,1.3
	c-2.2-0.3-4.5-0.3-6.7,0c-1.8,0.1-2.7-0.4-2.4-3.2c-1.3,2.3-2,4.2-4.3,2.7c0.9-3,2.9-5.7,3.5-9.2c-6.1,3.9-9.9,12-19.1,9.2
	c1-1.4,2.7-1.8,4-2.7c0.7-1,1.7-1.7,2.8-2c-1.3,0.2-2.2,1.3-3.6,1.2c-6.6,3.3-13.4,5-21.2,3.5c7.9-3.9,16-6.5,23.9-9.8
	c-13.6,1.4-27.2,2.7-40.9,1.3c-0.5,0.4-1.1,0.6-1.7,0.6c-1.4-0.1-3.2-0.2-3.4-1.6c-0.2-1.6,1.7-1.8,2.9-2.2c1.2-0.3,2.4-0.6,3.6-0.8
	c10.7-2,21.4-3.9,32.3-4c2.9,0.1,5.7,0.4,8.5,0.8c-12.7-1.5-24.7-5.7-36.5-10.5c-3.3-0.5-6-2.3-8.8-4c-0.8-0.5-1.9-1.1-1.4-2.3
	c0.4-0.9,1.5-0.8,2.3-0.8c2.6,0.2,5.2,0.5,7.8,0.9c11,1.8,22.1,3.7,31.1,7.4c-8.1-4.3-16.1-11-24.3-17.6c-3.5-3.2-6.8-6.6-10.1-10
	c-0.7-0.7-1.6-1.6-0.8-2.6s1.9-0.3,2.7,0.3c3.3,2.1,7.5,2.8,9.9,6.4c11.5,7,22.7,14.6,32.9,23.6c-11.3-14.9-22-30.1-27.2-48.4
	c5.8,6.9,11.2,14.1,16.3,21.6c5.1,7.4,9.9,15,14.5,22.8c-6.4-19.1-12-38.4-11.6-58.9c8.6,18.8,13.4,38.8,16.8,59.3
	c0.4-6.2,0.2-12.4,0.9-18.6c0.6-6.3,1.6-12.6,2.9-18.9c1.3-6.2,3.3-12.2,5.9-18c-1.1,21.3-4.3,42.3-7.2,63.3
	c8-26,14.5-52.6,32.5-74.2c-6.1,17.7-13.6,34.9-20.8,52.2c0.1,1.4-1,2.3-1.2,3.6c0.3-1.1,1-2.2,2-2.9c9.7-15.8,20.7-30.8,33-44.7
	c-6.5,14.2-15.2,27-23.6,40c12.7-13.7,25.5-27.4,39.4-39.9c-13.6,18.4-28.7,35.6-44.1,52.6c18.6-16.6,38.6-31.7,59.6-45.2
	c-4.5,5.4-9.9,9.9-15.1,14.4s-10.9,9.1-16.5,13.6s-11.1,8.9-16.4,13.7c17.5-10.2,35.1-20.2,53.2-29.3l0.5,0.8
	c-5.7,3.8-11.3,7.6-17,11.4s-11.6,7.4-17.4,11s-12,7.2-18,10.9c-1.1,1.4-2.8,2-4.1,2.8c1.5-0.7,2.9-1.9,4.8-2.2
	c17.6-8.4,35.5-16.4,54.1-22.3c-17.7,10.2-36.2,18.6-54.9,26.8c-1,0.8-2.1,1.4-3.2,1.8c-1.3,0.6-2.7,1.1-4.1,1.4
	c2.6-0.1,5.1-2.5,8.2-2.3c14.2-4.3,28.4-8.6,42.8-11.8c-16.6,8.2-34.1,13.8-51.9,18.5c-1.9,1.2-4,1.4-6.3,1.8
	c1.8,0.1,3.3-0.8,4.9-0.9C304.2,666.7,305.4,667.5,306.6,666.8z"/>
<path class="st0" d="M946.2,576.3c2.4-0.4,3.9,0.7,5.4,1.4c9.4,4,17.8,10,24.6,17.5c3.8,4.4,8.5,5.8,14.7,6.9
	c-12.4-10.1-23.6-21.6-33.2-34.3c0.9-0.8,1.5,0,2,0.3c15,8.4,27.8,19.2,36.5,34.3c1.9,3.3,5.3,3.2,8.3,4.3
	c-11.8-13.3-20.6-28.3-28.5-44.1c14.6,11,26.2,24.5,32.7,41.7c1.5,4,3.4,6.8,7.4,8.2c1.7,0.7,3.3,1.6,4.9,2.5
	c-10.8-16.4-18.8-33.3-25.5-50.8c13,13.5,24,28.4,29.4,46.4c2,6.7,5.2,11.2,11.9,13.8c-8.6-17.7-13.1-36.4-15.8-55.8
	c1.4,1.4,2.8,2.8,4,4.3c11.9,14.6,16.7,31.7,16.5,50.1c-0.1,5.4,2.2,8.1,6.9,10.8c-5.7-19-4.7-37.4,1.4-56.5
	c2.9,6.9,4.7,14.1,5.5,21.5c1.5,11.8,1,23.8-1.7,35.5c-1.3,5.7,2.4,7.8,5.6,11.9c-1.8-20.6,2-39.5,7.2-59.5c2,5.4,3.2,11,3.5,16.7
	c1.1,15.3-0.9,30.6-6,45.1c-0.6,1.9-1.4,3.6,1.1,5c6.4-19.7,14.7-38.8,24.9-56.9c0.8,5.4,0.5,10.9-0.9,16.2
	c-3.5,14.8-10.8,27.7-19.7,39.6c-2.6,3.5-2.9,6,0.7,8.9c6.2-19.8,18.1-36,31.3-52.3c0.5,4.1,0.3,7.2-1,10.5
	c-6.1,15.2-15.3,28.5-25.3,41.4c-3.5,4.5-3.5,4.5-0.2,10.2c6.6-15.5,14.3-29.8,26.5-42.1c0.3,4.4,0.4,8.1-1.3,11.8
	c-5.1,11.1-11.7,21.1-20.8,29.2c-3.4,3-3.9,5.3-0.8,8.7c6.3-10.3,13.1-20.3,22.7-28.4c0.8,3.7,0.2,6.5-2.1,9.2
	c-6,7.2-11.1,15-15.2,23.4c-1.7,3.4-3.6,4.5-7.4,4.5c-3.9,0-5.9-0.8-7.3-4.8c-12.1-34.6-37.3-56.4-70-70.8c-20.6-9-42-14-64.6-13.1
	c-12.9,0.5-25.6-0.5-38.8-4.6c5.1-2.2,10.6-3.4,16.2-3.5c9.7-0.5,19.1,1.3,28.3,4.3c7.3,2.4,7.2,2.4,16.7,1.7
	c-11.3-4.5-21.6-8.9-32.1-15.4c14.3,0.9,28.1,5.7,39.8,14c3.7,2.5,7.5,3.2,11.9,3.3C966.3,591.6,956,584.8,946.2,576.3z"/>
<path class="st2" d="M1037.3,400c-3.3,2.5-6.8,4.6-10.6,6.3l-1.1-1.2c2.4-2,4.7-4,7.1-5.9c2.1-1.6,2-2.9-0.3-4.1
	c-1.7-0.9-3.3-1.9-5.3-3c2.2-0.1,4.3,0.4,6.1,1.6c2.4,1.6,3.8,1.1,5.8-0.9c11.6-11.9,23.8-23.3,36.2-34.4c1-0.8,1.9-1.9,2.6-3
	c-20.6,13.6-42,25.7-65.4,34c7.9-5.1,15.8-10.2,23.8-15.2s16.3-10,24.5-15.1c0.7-0.9,1.7-1.6,2.8-2.1c0.5-0.2-0.4-0.6,0-0.2
	c-1,0.8-2.2,1.3-3.4,1.6c-15.3,7.1-30.8,13.7-47.6,16.8c18.6-10.4,37.9-19.3,57.4-27.9c-22.4,5.5-44.8,11.2-67.7,14.8
	c29.4-14.9,61.5-18.9,93.3-24.9c-13.4,0.9-26.9,1.7-40.3,2.6c-13.5,0.9-27,1.5-40.6,1.2c5.3-1.9,10.8-3.2,16.3-3.9
	c5.9-0.8,11.8-1.7,17.7-2.2s11.6-0.6,17.4-0.7s11.6,0,16.3,0c-24.6-3.7-50.1-8.5-74.8-16.6c25.3-0.6,49.6,4.9,73.9,11.4
	c-19.4-8.9-38.6-18.2-57.1-28.9c22.2,3.8,41.8,14,61.3,24.7c-15.7-12.9-30.1-27.4-42.7-43.4c16.4,9.7,30.1,22.6,43.7,35.9
	c-8.7-14.3-15.6-29.5-20.4-45.5c11.9,14,20.9,29.8,29.4,46c-1.7-8.5-3.6-16.8-4.5-25.4s-1.7-17-1.2-25.7c4.2,8.1,6.5,16.8,8.4,25.6
	c3.1,13.7,4.5,27.8,4.2,41.8c-0.3,11.1-0.2,22.2,0,33.3c0.2,13.8-1.9,27.2-5,40.5c-0.5,2.1-1,4.2-1.5,6.3c-0.7,1.2-0.4,2.6-0.9,3.8
	c-0.4,1.1-0.5,2.7-2,2.7s-1.6-1.5-1.9-2.6c1.9-20.2,2.1-40.7,6.6-60.6c-4.9,22.7-13.4,44.5-25.3,64.5c-1.3,1.3-2,4.5-4.1,3.4
	c-1.9-1-0.2-3.6,0.3-5.5c0.8-3,0.8-6.5,3.6-8.7c4.9-16.9,11.3-33.3,18-49.5c0.4-1,0.1-2.3,0.5-2.7c-0.2,0.2-0.3,1.4-1.3,1.9
	c-9.6,16.9-20.5,33-33.5,47.6c-2.6,2.9-3.9,7-5.8,10.5c-1.3-0.9-0.1-2.3-1-3.2c-1.8,0-1.4,2.1-2.6,2.7c-1.8-1-1.8-1-0.2-4.2
	c1.8-2.5,2.6-5.6,4.2-8.2c3.4-2.8,4.9-7,7.3-10.5c2.3-3.3,4.2-6.9,6.4-10.2c6.6-9.8,12.9-19.8,16.9-24.6c-12.4,14-26,26.8-40.7,38.3
	C1039.5,399.6,1038.6,400.5,1037.3,400z"/>
<path class="st1" d="M968.7,614.7c4.7,4.4,9.8,4.8,15.2,4.5c4.6-0.3,9.2-0.6,13.7,0.7s6,3.2,6,7.8c0,4.2-1.2,8.3-1.5,12.4
	c-0.2,2.2-1.7,5.6,1.3,6.3s3.4-2.9,4.1-5c1-2.8,1.6-5.7,2.5-8.5c2-6,3.8-6.7,9.1-3.6c4.7,2.7,9,6.1,12.6,10.1c2.8,3,3.3,5.9,0.5,9.3
	c-3.3,3.9-6.4,8-9.6,12c-1.4,1.8-2.9,3.5-3.6,6c2.8,0.7,4.3-1.2,5.8-2.6c4.1-3.9,7.9-8.1,12.1-12c3.4-3.3,4.6-3.1,7,1.2
	c2.9,5.2,4.9,10.9,5.7,16.8c0.2,1.3,0.1,2.7-0.2,4c-1.3,4.7-12.8,13.2-17.7,13.2c-15,0-30.1,1-45-0.3c-10.6-0.9-21.1-0.9-31.6-1.4
	c-2.7-0.1-4.5-1.3-5.3-4.1c-1.9-7-1.6-13.9-0.2-20.9c0.5-2.7,2.4-3.6,4.8-2.9c3,0.8,5.8,2,8.8,3.1c2,0.7,4,1.5,6.1,2.1
	c1.2,0.5,2.6,0,3.2-1.1c0.7-1.4-0.3-2.4-1.4-3c-2.8-1.8-5.7-3.5-8.7-5.2c-10.3-5.9-11.1-9.5-3.9-19c1.5-1.9,3-3.8,4.6-5.6
	C967.6,623.7,968.2,622.3,968.7,614.7z"/>
<path class="st3" d="M153.2,1.9h2.4c7-0.6,14.1-0.1,21.1-0.4c1.9-0.2,3.9,0,5.7,0.6c5.1,2.6,8,7.5,11.6,11.6
	c12,13.9,23.6,28.3,34.3,43.3c2.2,3,3.9,6.4,7.1,8.6c0.1,0.4,0,1-0.3,1c-2.2,0.6-0.3,1,0,1.5c2.8,4.9,5.7,9.7,8.5,14.6
	c3.5,5.8,6.1,12,7.9,18.5c-18.6-22.4-35.6-46.1-52.3-69.9c11.7,24.3,22.9,48.9,32.3,74.2c-13.6-17-23.2-36.3-32.4-55.9
	c6.8,23,14,45.8,20.1,68.9c-4.1-6.8-7.8-14-10.8-21.3c-3.1-7.5-6.3-15-9.1-22.6s-5.4-15.3-7.7-23.1s-4.3-15.5-6.6-23.3
	c3.8,31.1,7.1,62.3,8.4,94.5c-2.8-3.1-3.4-6.4-4.3-9.4c-4.5-16.4-6.4-33.2-7.7-50.1c-1.2-14.9-1.7-29.8-2.1-44.8
	c-1.5,14.2-2.8,28.4-4.6,42.6c-2,15.8-4.3,31.6-7,47.3c-0.3,1.7-2.8,5.1,1.9,5.4c-1.2,2.5-3.2,1.8-5.2,1.2c-2.6-1.7-0.5-5.2-2.6-7.1
	c-0.4-0.5-0.6-1.1-0.5-1.8c0.7-1.2,1.1-2.5,1.1-3.9c-0.9-22.8,1.6-45.4,6.4-67.7c0.8-3.7,2-7.4,2.9-10.9c-1.3,4.4-2.3,9.1-3.7,13.6
	c-5.3,16.9-11.6,33.3-18.5,49.6c-1.7,4-2.9,8.3-5.8,11.8c-1.2,1.1-2.8,1.8-4.5,1.9c-18.1,3.3-34.2,11.3-48.9,22.1
	c-2.2,1.6-4.4,2.9-7.2,2.7c-1.3-0.1-3.2,0.2-3.6-1.3c-0.5-1.7,1.3-2.2,2.5-2.8c5.8-2.9,11.4-6.2,16.7-9.9c1.9-1.3,3.5-3.2,5.8-3.9
	c3-0.7,5.6-2.3,8.3-3.7c7.4-3.7,15-7,22.8-9.8c2.2-0.6,3.8-2.4,4.2-4.6c4.6-20.1,11.9-39.3,20.1-58.2c1.4-3.2,3.2-6.1,4.8-9.1
	c-12.7,21-27.3,40.7-42.1,60.2c-0.8,1.1-1.8,2.7-3.3,2c-1.7-0.9-0.9-2.7-0.3-4.1c3.6-9.2,8-18.2,13.2-26.7
	c7.1-12.2,15.6-23.4,24.4-34.4c0.6-0.8,1.3-1.6,2.1-2.2c-5.4,5.8-12.1,10.9-18.8,16c-1.1,0.8-1.9,2-3.5,2.1c-2.8-0.4-5.3-1.9-7-4.1
	c-0.8-0.7-1-1.7-0.6-2.6c0.5-0.9,1.6-1.3,2.5-0.9c4.1,1.3,7.7,0.8,11-2.3c5.1-4.9,9-10.4,9.5-17.7C152.1,5.8,151.5,3.6,153.2,1.9z"
	/>
<path class="st4" d="M225.1,674.2c-1.7,1.2-4.1,0.3-5.9,2l4.7,1c-3.4,9-3.4,9-13,9c-10.5,0-21-0.1-31.5,0.1c-2.8,0-3.8-1.1-4.1-3.5
	c-0.5-3-0.2-6,0.9-8.9c3.2-8.2,5.5-16.6,8.3-24.9c0.3-0.8,0.6-1.7,0.9-2.4c0.8-1.5,1-3.7,3.1-3.8s3.2,1.7,4.3,3.2
	c0.7,1.2,1.5,2.3,2.3,3.4c0.1-3.4-0.9-6.7-2.9-9.3c-1.1-1.2-1.4-2.9-0.8-4.4c1.3-4.7,2.9-9.3,4.9-13.7c3.4-6.8,6.3-7.2,11.2-1.6
	c-0.3-3.2-0.9-5-3.1-6.9c-1.1-0.8-1.5-2.3-0.9-3.5c2.8-8.5,6.7-15.8,15.8-19.2c4.4-1.4,7.6-5.1,8.6-9.6c2,4.3,4.9,7,8,9.6
	c6.2,5.4,8.6,14,6.1,21.8c-1.3,3.9-3.4,5-9.3,4.9c2.8,2.1,4.5,2.4,10.1,1.5c-1.5,6.3-3,12.5-4.4,18.6l-12-6.5l-0.4,0.4l10.9,11.3
	c0.9,4.7-2.2,10.3-6.6,12c-1.7-0.2-3.4-0.5-5.1-0.7c-1.7-0.2-3.3-0.3-5-0.3c3.3,1.7,6,4.7,10,4.9
	C229.5,664.1,228.6,669.6,225.1,674.2z"/>
<path class="st5" d="M18.1,0.4h45.4c0,0.2,0.1,0.5,0,0.6c-1.7,1-4.5,1.3-3.7,4.1s3.3,3.1,5.7,2.8c4.1-0.5,8.1-1.2,12.2-1.9
	c5.6-1.5,9.9,0.8,12.2,6.6c1.9,4.8,2.3,9.9,2.4,14.9c0.2,1.4-0.1,2.8,0,4.2c-0.2,6.8,2,13,5.1,18.9c2.8,5.3,2.2,6.2-4,6.4
	c-2,0.1-4.1-0.3-6.1,0.3c-7.4,1.3-13.3,5.7-19.7,9.2c-3.8,2.1-7.7,3.7-12.1,3.6c-4.8,0-8.6-1.7-10.8-6.1c-1.2-2.6-1.9-5.5-3.1-8.1
	c-0.4-1-0.8-2.1-1.4-3c-1-1.4-2.1-3.5-4.1-2.7c-1.8,0.8-1.1,3-0.6,4.5c1.2,4.1,3,8,5.3,11.6c0.7,1.2,1.3,2.4,1.9,3.6
	c2.1,4.2,1.4,5.7-3.2,7c-5,1.5-10.3,1.6-15.3,0.3c-1.7-0.5-3.4-1.1-5-1.9c-4.7-2.4-5.9-6.7-6.4-11.5c-0.2-2.6,0.3-5.2-0.4-7.7
	c-0.6-2.2-0.2-4.4-0.7-6.6c-0.3-1.5-0.6-3.4-2.3-3.5c-2-0.2-2.1,1.8-2.6,3.2c-0.2,0.5-0.2,1.1-0.4,1.6c-1,5.7-1.5,11.5-2.2,17.2
	c-0.2,1.5,0.4,4-2.7,3.4V3.6c5.5,0.7,9.1,4.6,13.1,7.8c0.8,0.6,0.6,1.8,0.6,2.8c-0.5,4.8-0.4,9.7,0.1,14.4c0.7,4,1.8,8,3.1,11.8
	c-1.6-4.5-1.4-11-2.3-17.2c-0.1-0.7-0.1-1.4,0-2.1c0.4-8.6,2.7-10.1,10.5-6.9c5.5,2.2,10.5,5.5,15.6,8.4c2.5,1.4,3.3,3.4,3.4,6.1
	c0.2,4.8-0.9,9.6,0,14.4c-0.8-4.1-0.1-8.2,0.3-12.2c0.4-3.7,2-4.7,5.3-3.2c5.1,2.2,9.9,4.8,14.4,8c2.7,1.9,2.9,2.7,2.2,6.3
	c2.9-3.8,4.1-3.7,12.4,1.5c-3.7-2.5-7.9-4.3-11.5-7c-3.3-2.5-3.2-3.9,0.5-6c1.8-1,3.6-1.9,5.3-3c-6.4,3.9-12.7,4.6-19.7,1.4
	c-6-2.8-11.8-5.9-17.6-9.1c-1.1-0.6-2.3-1.4-2.1-2.8s1.5-1.9,2.6-2.4c2.8-0.9,5.5-2.3,7.8-4.2c-10.5,7-21.8,6-31-2.4
	c-1.6-1.4-1.6-2.7-0.4-4.3C15.5,2.4,16.7,1.3,18.1,0.4z"/>
<path class="st1" d="M813,29.7c-4.8,0-9.6-1.5-14.5-0.4c4.7,2,9.9,0.9,14.4,3.2c0.4,0.4,0.3,1.1-0.1,1.5l-21-1.6
	c-1.8,0-1.5,1-1.1,2.2c0.5,1.5,1.4,3,0.3,4.6c-2.8,1.6-5.8,0.4-8.5,0c-3.9-0.5-7.9-0.8-10.6-1.7c6.5,1.8,14.7,1.6,21.9,5.6
	c1.1,1.1,1.4,2.8,0.8,4.2c-0.9,1-2.2,1.6-3.6,1.6c-4.3,0.2-8.6,0.2-12.8,0c-1.7,0.1-3.3-0.8-4.2-2.2c-0.8-1.1-1.5-3.3-2.9-0.4
	c-0.3,0.9-1,1.7-1.8,2.1c-6.9,0.6-13.8,1.2-18.8,1.2c5,1.1,12.1,1.2,18.7,3.6c1.2,4.4,0,6.9-4.2,8.9c-3.6,0.5-7.3,0.2-10.8-0.8
	c-4.6-2.5-9.7-2.1-14.6-2.5c-1.6-4.6-1.3-9.8-4.1-14.1c-1.1-4-4-7.8-1.9-12.3c1.1-2,2.9-3.4,5-4.1c3.6-1.2,7.5-1.4,11-3
	c0.7-0.7,0.5-1.2-0.3-1.5c-1.2-0.2-2.5-0.1-3.7,0.4c-1.6,0.4-3.3,0.5-5,0.5c-6,0-7.3-1.2-7.2-7.3c0.2-1.6,0.7-3.1,1-4.6
	c0.9-2.8,1.4-5.9,4.2-7.7c1.5-2.9,4-3.2,6.8-2.3c3.9,1.1,7.8,2.3,11.7,3.4c1.6,0.5,3.1,1.1,5,0.3c-1-2.7-4-2.7-6.2-4.9h36.1h21.8
	c5.8,0,9.2,3.2,9.3,9.1c0.1,4-1.3,7.7-3,11.2c-2.4,1.3-5,0.6-7.4,0.6c-3.6-1.4-4.9-5.5-8.2-7.6c0.8,2.8,4,3.9,3.4,7
	c-0.7,0.8-1.8,0.6-2.9,1c2.1,1.3,4.5,1.3,6,3C812.9,26.2,813.6,27.6,813,29.7z"/>
<path class="st6" d="M28.3,109c0.7-2.3,1.3-4.6,2.1-7.3c-3.1,1.7-3.9,5-6.5,6.5c-1,0.6-1.9,1.3-1.7,2.7c-2.9,4.8-5.8,9.6-8.8,14.4
	c-1.3,0.9-2.5,1.9-4.2,1.3c-1.7-1.3-0.9-3-0.6-4.5c0.9-3.8,1.5-7.7,1.7-11.7c-2,3.3-3.7,6.8-5.2,10.5c-0.6,1.3-0.5,3.1-2.5,3.4
	c-1.2-0.8-1.2-2-1.2-3.3c0.1-10.1,0.1-20.3,0.1-30.4c3.8-3.6,8.4-6.1,12.9-8.8c1.4-0.9,3.3-0.8,4.6,0.3c5,3.5,10.5,6.2,16.3,8.3
	c-4.1-1.8-9.4-3.5-13.2-7.8c-2.8-3.2-2.5-4.3,1.6-6.1c5.2,0.4,10.3,1,15.4-0.5c3.2-1,5.1-1.9,2.4-5.4c-0.8-1.3-1.5-2.6-2-4
	c1.3-2.2,2.9-3.7,5.7-3.3c3.1,5.3,7.8,7.1,14.1,5.4c4.8-1.2,8.8-3.9,12.9-6.3c4.5-2.7,9-5.3,14.4-5.8l0.5,0.3c0.9,2.4,1.5,5,3.7,6.8
	c1.6,1.3,1.2,2.7-0.2,3.8c-10.7,7.8-21.3,15.7-33.6,20.8c-3.3,1.4-6.5,0.9-10-0.6c2.3,6.8-2.8,10.3-5.8,14.6c-0.7,0.7-1.4,1.3-2,2
	c-0.9,0.6-1.6,1.8-2.9,1.1c-0.3-2.9-1.2-5.8-2.7-8.3c0.6,3.8-0.5,7.4-0.9,11C31.4,109.1,30.1,110.4,28.3,109z"/>
<path class="st6" d="M88.4,56.5c2.7-1.4,5.6-0.6,8.4-0.7c2.6-0.1,3.5-0.2,1.8-3.1c-3.7-6.4-6.6-13.2-6-21c2.3-3.6,6.1-5.4,9.7-7.5
	c1.8-1.1,3.4-0.1,4.9,1c3.8,2.6,7.9,4.8,12.2,6.6c-3.9-1.5-7.5-3.8-10.5-6.7c-2.6-2.5-2.6-3.9,0.2-6c3.6-2.8,7.3-5.4,11-8
	c1.5-1.4,3.8-1.2,5.2,0.3c0,0,0,0,0,0c3.2,2.8,7,5,11,6.5c-4.2-1.9-7.9-4.4-10.2-8.4c-0.6-1.1-1-1.4-2.2-0.8c-1.8,1-3.9,2.6-5.6,0.5
	c-1.9-2.4-3.7-5.3-1.9-8.6l35.4-0.1c1.2,0,2.6-0.2,2.7,1.6c0.9,9.4-2.2,17.1-9,23.6c-3.8,3.6-7.6,5.9-12.8,3.2
	c-0.7-0.4-1.5-0.2-2,0.4c1.2,3.4,4.7,4.1,7.3,5.9c0.4,1.5-0.8,2.2-1.7,3c-9.4,7.9-18.9,15.6-29.4,22c-5.1,3.1-10.2,4-15.5,0.2
	c-1.4-1-2.2-2.4-3.2-3.7L88.4,56.5z"/>
<path class="st7" d="M1090.3,538.8c0.1-0.9-0.8-2,0.2-2.7c1-0.5,1.4-1.8,0.9-2.8c-0.1-0.2-0.3-0.5-0.5-0.6c-1.2-1.3-1.6,1.4-3.2,0.8
	c1-2.7,2.8-5.5,0.6-8.2c-1-1.3-1.5,1-2.8,0.8c0.7-2.3,2.9-4.8,0.8-7.3c-0.8-0.9-1.3,1-2.5,0.7c1.4-2.7,2.7-5.5,0.9-8.3
	c-0.8-1.3-1.3,1.3-2.6,0.8c0.7-1.8,2.4-3.9,1.9-5.1c-2.2-5.4,0-10.9-1.1-16.2c0-0.1-0.2-0.3-0.2-0.3c-0.2,0.1-0.4,0.2-0.6,0.3
	c-1.7,0.3-1.7-1.1-1.7-2c-0.1-3.2-1.8-5.5-3.8-7.8c-6.5-7.6-11.6-16.2-15-25.6c-0.6-1.6-1.1-3.2-1.2-4.9c0-1.5,0.4-1.7,2.1-0.8
	c0.6,1,1.5,1.9,2.5,2.4c1.8,0.1,2.3,1.8,3.4,2.8c6.7,7.2,10.5,16,13.7,25.2c0.7-0.9,0.4-2,0.5-3c0-0.6,0-1.2,0-1.7
	c-0.1-1.4,0.3-2.8,1.2-3.9c0.3-0.3,0.6-0.5,0.9-0.7c3.1-2.1,4.6-5.6,6.7-7.4c-0.2,0.7-0.8,1.1-1.5,1.1c-0.8-0.2-1.3-0.9-1.3-1.7
	c1.2-4.7,4.8-8,7-12.1c0.2-0.3,0.4-0.6,0.6-0.9c1.8-1.3,2-4.6,5.2-4.3c0,3.1-0.1,6.2,0,9.2c0.1,1.6-0.4,3.2-1.5,4.5
	c-3.8,5.1-8,9.8-12.6,14.2c-1.5,1.4-2.4,2.8-1.2,5.4l14.9-19.1c0.8,2.4,0.3,5-1.4,6.9c-3.9,5.2-7.7,10.4-11.5,15.7
	c-2.6,3.5-2.8,4.5-1.1,9.7c4.4-8.2,8.6-16,14.1-23.2c0.1,3.7,1.2,7.5-1.3,10.8c-2.9,6.2-7.7,11.2-10.4,16.4
	c3.4-4.6,6.4-10.8,11.2-15.6c1.5,2.9,1.3,7.5-0.6,10.1c-3.3,4.4-6.7,8.8-10.1,13.2c-1.1,1.4-1.9,2.6-0.7,5.2
	c3.7-6.1,7.7-11.9,12-17.5c0.5,4.2,0.9,7.7-1.4,11c-2.6,3.9-6,7.3-8,10.6c2.2-3.1,5.2-6.8,8.1-10.5c0.6-0.1,1.5-1,1.6,0.6
	c0.1,2.7,0.1,5.3-2,7.5c-2.4,2.4-4.3,5.2-6.5,7.8c-1.2,1.4-1.7,2.7-0.2,4.6c2.7-4,5.3-7.8,8-11.9c2.4,6.3-0.5,10.7-4.6,14.6
	c-1.9,1.8-2.7,3.6-0.1,6.8l4.2-6.3l1,0.9c0,2.9,1,6-2.2,8.3c-1.2,0.8-2.8,2.1-1,3.5s1.3-2,3.2-1.4c0.2,1.9,0,3.8-0.6,5.6
	c-0.9,2.4,1.4,5,0.8,7.7c-0.3,1.3,0.5,3.5-1.8,3.2c-1.9-0.2-2.5-1.6-1.9-3.8c0.7-2.8-0.5-4.2-3.8-3c1.1-3,3.1-6.4-2.6-6.5
	c-0.4,0-0.9-0.9-1.3-1.4L1090.3,538.8z"/>
<path class="st8" d="M26.4,144.3l9.1-3.7c0.3,3.9-1.9,7.2-3,10.8c-1.2,3.9-3.1,7.6-5,12c4.2-5.8,4.8-12.3,7.2-18
	c0.7-1.8,1.1-3.7,2.5-5.1c2.3-1.4,4.8-2.2,7.4-2.6c-1.5,6-4.6,11.2-7.3,16.6c2.8-5.4,5.9-10.6,7.3-16.6c4.8-1.9,9.7-3.4,14.7-4.3
	c1.1,1.4-0.1,2.4-0.9,3.1c-3.2,3-5.9,6.5-8.1,10.3c-4.1,0.2-5.1,4.1-7.8,6.2c23.2-5.7,46.4-11.1,70.1-14.2
	c-13.5,5.2-27.5,9.1-41.3,13.4l39.4-9.5c-10.2,4.3-20.6,7.9-31.3,10.8c-16,4.7-32.1,8.8-48.3,12.5c-4.7,1.1-6.7,5.2-10,9
	c3.9-0.3,6.2-2.7,9.1-3.3c-0.7,1.7-1.5,3.4-2.2,5.1c-0.5,0.4-0.9,1.1-1.5,1.3c-5,1.4-9.7,3.4-14.1,6.1l-2.9-9.8
	c-0.5,1-0.8,1.6-1.1,2.2c0.1-1.3,0.4-2.6,0.9-3.8c2.2-7.2,3.7-14.7,4.3-22.3c0-0.1-0.2-0.2-0.2-0.3C17.5,147.9,21.9,146,26.4,144.3
	c-1.4,10.8-5.6,20.6-9.5,29.6c3.7-3.4,5-8.7,6-14.2C23.6,154.6,26,149.7,26.4,144.3z"/>
<path class="st3" d="M903.6,55c9.7-13.7,17.6-28.3,21.3-44.9c0.5-2.6,0.7-5.2,0.6-7.9l4.3,0.1c0.6,0.8,0.7,1.9,0.2,2.8
	c-4.6,11.4-7.6,23.4-11.5,35.1c2.1-5.4,6-9.9,8.5-15.1c3.1-6.5,5.9-13,6.5-20.2c0-1,0.4-1.9,1.2-2.6l3.5,0.1c1.2,1.7,0.4,3.5,0,5.2
	c-1.5,5.5-2.7,11-3.6,16.6c-2.5,15-5,30-9.2,44.6c-1.7,6.5-4,12.8-6.8,18.9c-0.4,1.4-1.4,2.5-2.7,3.2c3.2-20,8-39.3,12.5-58.6
	C921,49,913.6,65.8,904.7,81.9c-0.1-4.6,1.6-8.7,2.8-13c1.3-4.4,2.9-8.8,4.5-13.1s3.5-8.5,4.5-13.1l-24.1,38.8
	C895,72.1,899,63.5,903.6,55z"/>
<path class="st9" d="M18.1,0.4c-0.1,0.5-0.3,1.1-0.5,1.5c-3.5,4.7-3.4,4.4,1.7,7.7c9.5,6.1,18.6,5.8,27.6-0.9c0.6-0.4,1.3-0.7,2-1
	c-2.2,4.2-4,5.6-10.3,8c-0.9,0.3-2.2,0.2-2.4,1.3c-0.2,1.5,1.3,1.5,2.2,2c5.7,3.2,11.5,6,17.3,8.9c6.5,3.2,12.2,2.2,18.1-0.8
	c1.3-0.6,2.7-1.2,4.9-2.3c-2.8,3.9-6,5.3-9,7c-0.8,0.4-2.1,0.5-2.3,1.5c-0.3,1.4,1.2,1.7,2.1,2.2c4.8,3.2,9.6,6.3,15.3,10
	c-3.7,0.2-5.3-1.9-7.4-2.8c-6.9-3.3-6.9-3.3-9.7,3.6c-0.9-1.1-1.1-2.6-0.6-3.9c1.6-3.5-0.5-5.1-3.1-6.5c-4.4-2.4-8.8-4.7-13.1-7.1
	c-2.5-1.4-3.8-0.9-3.9,2.2c-0.2,4.7-1.2,9.3-1,14c-2.4-5-1.3-10.4-1.4-15.6c0-2.8-0.7-4.7-3.2-6c-5.9-3.2-11.7-6.8-18.1-9.1
	c-2.9-1.1-4.7-1.1-5.5,2.9c-1.5,7.4,0.7,14.4,1.2,21.6c0.2,2.2,0.7,4.3,0.9,6.5c-3-3.8-3.9-8.5-5.1-13c-1.6-5.9-1.2-12-0.6-18.1
	c0.3-1.3-0.3-2.7-1.5-3.3C9,8.5,5.3,6,1.7,3.6C1.2,1.3,1.6,0.1,4.5,0.2C9,0.5,13.5,0.4,18.1,0.4z"/>
<path class="st7" d="M1048.1,454.9l0.9,0.3c2.8-0.3,4.7,1,6.3,3.2l2.5,2c1.8-0.1,2.7,1.4,3.9,2.4c7.7,7.1,13,15.9,17.9,25.1
	c0.8,1.4,2.1,3.2,0.1,4.9l-8.5-7.2c3.2,5.6,6.8,9.7,9.1,15.2c-2.4-0.9-4.5-2.2-6.5-3.8c-8.2-6.1-15-13.6-21.3-21.5
	c-0.9-1.2-1.9-2.2-2.9-3.3c-1.6-0.4-2.6-1.9-2.5-3.5c0-1.2,1.1-1.2,2.1-1.2c0.8,0.2,1.5,0.4,2.2,0.8c1.2,0.5,2.4,1,3.6,1.7
	c1.4,0.8,2.7,1.8,3.8,2.9c-1.7-1.6-3.3-3.3-4.7-5.1c-1.3-1.9-2.7-3.8-4.2-5.6c-0.7-0.9-1.3-1.8-1.9-2.7c-0.7-1.1-1.7-2.1-1.9-3.5
	C1045.9,454,1046.6,453.5,1048.1,454.9z"/>
<path class="st6" d="M91.1,27.6c0-4.2-0.6-8.4-1.7-12.5C87.5,8.4,84.6,6.2,77.7,6c4.7-3.5,9.4-6.3,15.7-5.8c5,0.4,5.6,0.6,5.9,5.6
	c0,0.7,0,1.3,0,2.1c1-0.3,1.7-1.2,1.6-2.2c0.3-5.1,3.2-6.1,7.6-5.4c1.6,0.2,3.3,0.2,4.9,0.2c1.3,2.9,1.6,6.1,2.3,9.1
	c0.4,1.7-0.4,3.4-1.9,4.3c-6.8,4.4-13.5,9.1-20.4,13.4C92.7,27.8,91.8,27.9,91.1,27.6z"/>
<path class="st7" d="M1091.2,418.4l1.2,2l2.8-6c-0.1,6.3-2,12.4-2.2,18.7c2.7-6.8,4.9-13.8,8.4-20.3c0,5.6,0.7,11.2-0.2,16.8
	c-0.5,3.1,0.3,6.3,0.5,9.5c0.2,1.6,0,3.3-0.8,4.7c-0.9,2.4-2.7,4.3-4.1,6.5l0.1-0.1c-2.6,3.5-5.1,7.2-7.8,10.7
	c-0.9,1.1-1.7,2.3-3.3,1.7c-1.3-0.5-1.3-1.9-1.4-3.1c-0.1-2.1,0-4.3-0.1-6.4c0.3-10.1,1.7-20.1,4.2-29.9
	C1088.9,421.3,1089.3,419.4,1091.2,418.4z"/>
<path class="st3" d="M108.4,130.5c4.1,0,8.2,0.5,12.2,1.4c-9.4,0.9-18.2,4.4-27.3,6.5c-13.1,3-26.2,6.3-39.6,7.9
	c-0.9,0.3-2.1,0.8-2.4-0.4s0.9-1.7,1.7-2c4.6-1.9,9.6-2.4,14.3-3.8c1.1-0.3,2.3-0.4,3.1-0.7c-2.9,0.6-6.1,1.2-9.2,2.1
	c-1.3,0.4-2.6,0.6-4,0.7c-1,0.1-1.9-0.2-2.6-1c-0.7-1.1,0.4-1.8,1.1-2.4c2.1-2,3.7-4.4,6.3-5.9c14.4-3.5,29-4.1,43.8-2.8
	c-6,1.8-12.2,2.6-18.5,4.9C94.5,132.8,101.3,130.9,108.4,130.5z"/>
<path class="st8" d="M959.9,11.2c-2.7,2.6-5.4,5.1-8.1,7.7c-2.1,2-2.4,3.6,0,5.8c2.9,2.4,5.2,5.4,6.7,8.9c-4.1-2.9-7.3-5.6-11.2-6.9
	c-0.2-1-1.1-1.8-1.2-2.9c0-0.5-0.7,0.2-0.2,0c0.1,0,0.2,0.5,0.2,0.7c0.1,0.7-0.1,1.3-0.5,1.9l-3.4,2.7c-2.2-0.1-1.6-1.8-1.7-3.1
	c-0.2-1.7-0.5-3.4-0.7-5c-0.4-0.5-0.6,0.4-0.2,0.1c1,3.4,1.2,6.9,0.7,10.4c0,0.3,0,0.5,0,0.8l-4.8,9.4c-0.6-5.4,0.7-10.7,0.7-16.1
	c0-1.5,0.5-3.1-0.6-4.4c-0.5-1.7,0.6-3,1.3-4.2c2.9-5,4.2-10.7,7-15.6l2.6,0.1c1.2,1.3,0.7,2.8,0.5,4.3c0.5-1.7,1.5-3.2,2.9-4.3
	l20,2.5l-7.6,5.5c-1.7,0.2-3.5,0.3-5.1-1.1C958.2,9.5,960,9.4,959.9,11.2z"/>
<path class="st7" d="M1090.3,538.7c-6.3,2.3-12.7,1.1-19,0c-9-1.5-17.2-4.9-25.8-10.5l11.6,1.5c-5.6-2.8-11.1-5.8-16.4-9
	c-0.9-0.5-2.8-0.5-2.2-2.1c0.4-1.4,2-1,3.1-0.8c1.2,0.1,2.3,0.7,3.1,1.5l15.6,3.9c5.3,0.1,10.4,1.8,14.7,4.8
	c3.7,1.6,7.6,2.8,11.8,5.7h-9.1l-0.1,0.5L1090.3,538.7L1090.3,538.7z"/>
<path class="st8" d="M52.7,169.2l0.1-2.1c-2,1.2-2.5,3.3-3.9,4.6c-4.1,1.4-8.3,2.4-12.4,3.8c-1.7,0.6-3.3,1.3-5.1,0.4
	c-0.1-1.7,0.2-3.5,0.8-5.1c24.6-10.7,50.5-16.9,77-20.9C90.9,157.6,71.9,164.1,52.7,169.2z"/>
<path class="st6" d="M1.7,71.5C4,71,3,69.2,3.2,67.9c0.7-5.9,0.7-11.9,2.5-17.7c3-0.9,3.9,1.5,5.4,3.2c0.7,0.8,0.3,2.8,2.2,2.4
	c1.4,2.6,0.5,5.3,0.7,8c0.4,4.5,1.7,8.5,5.8,11c-0.2,1.6-1.5,2.2-2.6,3c-3.9,2.8-8,5.2-12.1,7.8c-1,0.7-2.1,1.4-3.4,0.8L1.7,71.5z"
	/>
<path class="st10" d="M1031.8,489.4c-0.4-0.3-0.9-0.7-0.1-1.2c1.9-1.5,3.3-0.2,4.9,0.7c17.9,3.5,32.2,13.2,45.8,26.2
	c-7.9-2-14.2-5.4-20.7-8.3c-4.3-0.9-8-3.2-11.8-5.4c-4.3-2.3-8.4-5-12.7-7.5C1035.3,492.6,1033.1,491.6,1031.8,489.4z"/>
<path class="st3" d="M1061,463.1l-3.1-2.7c-0.3-6.7-2-13.3-1.6-20.1c0.4-10.4,2-20.7,4.6-30.7c2.4,13.2,2.1,26.6,1.8,39.9
	c-0.7-0.2-1.7-0.8-1.3,0.7s0.9,3.2,1.4,4.8C1062.3,457.8,1063.8,460.9,1061,463.1z"/>
<path class="st11" d="M92.7,27.6c7.3-4.7,14.5-9.4,21.8-14.2c1.7-1.1,2.5-2.3,1.7-4.5c-1-2.7-1.4-5.6-1.1-8.5h1.6
	c0.8,8.8,1.9,9.4,9.8,5.9c1.4,7.1,8,8.8,12.7,12.6c-5.1-0.4-9.9-2.6-13.5-6.1c-2.2-2.2-3.7-2-5.8-0.3c-3.3,2.6-6.7,5.2-10.2,7.6
	c-2.2,1.5-2,2.5-0.2,4c4.1,3.6,8.8,6.6,13.8,8.8c-5,0-9.1-2.5-13.3-4.6c-2.2-1.1-3.8-4.1-6.1-3.5c-2.7,0.7-4.9,2.9-7.3,4.4
	c-1.3,0.8-2.5,1.7-3.8,2.5C92.7,30.4,92.7,29,92.7,27.6z"/>
<path class="st12" d="M934.7,2.2c0.2,11.1-4.9,20.5-10.2,29.7c-1.8,3.1-4,6.1-6.3,8.9c2.7-13.2,7.1-25.9,11.7-38.5L934.7,2.2z"/>
<path class="st13" d="M1059.2,508.4c8.7,3.3,17.1,7.2,24.1,13.7c-16.2-5-32.1-10.7-46.9-19.3c0.3-1.4,1.5-1.5,2.5-1.3
	c6.6,1.1,13.1,3,19.2,5.7C1058.7,507.4,1058.9,508,1059.2,508.4z"/>
<path class="st10" d="M1061,522.5c-6.2-2.6-11.9-6-17.1-10.2c8-0.9,32.1,8.9,40.5,16.5c-3.5,0.3-6.4-1.2-9.5-1.5
	C1070,526.4,1065.4,524.8,1061,522.5z"/>
<path class="st8" d="M1048.1,454.9c-0.5,0.2-1.9-0.7-1.2,0.9c0.6,1.2,1.3,2.3,2,3.4c0.9,3,2.1,5.9,0.5,9c-0.5,0.4-2.8-1-1.3,1.3
	c0.5,0.9,1.1,1.8,1.6,2.6c-0.3,2.5-0.7,4.9-1,7.3c-0.7,0.5-1.3,0.2-1.9-0.1c-0.1-1,0.3-1.8-0.4-2.9c-4.8-7.5-4.5-15.9-3.7-24.2
	c0.3-4.6,1.3-9,3.1-13.2C1046.9,444.9,1047.9,449.8,1048.1,454.9z"/>
<path class="st3" d="M1067.4,454.9l-2.4-2.9c-0.3-14.4-0.2-28.7,3.3-42.8c0.3-1.3,0.7-2.6,1-4.1c1.4,2,0.6,4.5,2.1,6.1l-4,13.7
	c1.9-0.5,2-2.5,3.3-3.2c2.1,3,1,6.4,1.3,9.6c-1.7,3.7-0.4,7.6-1.3,11.4C1069.4,446.7,1070.2,451.3,1067.4,454.9z"/>
<path class="st10" d="M1053.3,539c13.2,0.8,26.4,1.5,39.1,5.8C1078.5,548.9,1065.5,546.8,1053.3,539z"/>
<path class="st14" d="M39.2,685.5c15.5-3.3,31-3.9,47.6-4.4c-3,2.5-5.5,4.3-8.6,4.3C65.2,685.5,52.2,685.5,39.2,685.5z"/>
<path class="st8" d="M1055.3,458.4l-6.3-3.2c1.3-6,0.1-12.1,1.4-18.1c0.9-4.3,1.1-8.8,2.9-13.5
	C1055.5,435.6,1055.7,447,1055.3,458.4z"/>
<path class="st13" d="M1046.8,479.4l1.9,0.1c12.1,7.3,22.7,16.8,31.3,28C1067.4,499.9,1055.8,491.1,1046.8,479.4z"/>
<path class="st11" d="M1.7,86.5l18.1-11.6c1.5,0.3,3,0.6,4.2,1.7c-4,2.4-2.2,4.3,0.3,6.6c3.9,3.5,8.8,5,13,7.9
	c-6.2-1.2-12-3.2-17-7.2c-2.4-1.9-4.1-1.9-6.9-0.2C9.5,86,6.2,89.3,1.7,90.6C1.7,89.2,1.7,87.8,1.7,86.5z"/>
<path class="st3" d="M3.7,155.8l6.5-3c-0.3,12.1-2.9,23.8-6.5,35.5L3.7,155.8z"/>
<path class="st8" d="M49.5,178.5c0.5-2.6,1.3-5,2.4-7.4c7.9-1.3,15.9-2.4,23.8-3.8c2.3-0.4,4.7-0.5,7-0.1
	C71.9,171.6,61,175.9,49.5,178.5z"/>
<path class="st15" d="M1101.3,665.9c-0.2,5.2,1.8,10.5-0.7,15.3c-2.8,5.6-4.3,5.9-11.7,4.7C1092.3,678.8,1096.4,672.1,1101.3,665.9z
	"/>
<path class="st16" d="M1042.1,488.6c-7.2-9.6-6.8-20.3-4.1-31.2C1041.3,467.5,1043.2,477.9,1042.1,488.6z"/>
<path class="st17" d="M1062.5,549.2c11.4-0.8,22.7-0.6,33.8,2.2C1085.2,555,1073.1,554.2,1062.5,549.2z"/>
<path class="st8" d="M1022.9,486.3c5.8,6,8.6,12.2,8.1,19.6c-0.2,3.1-2.3,2.2-3.7,1.2c-3.1-2-4-5.4-4.3-8.8
	C1022.6,494.8,1022.9,491.1,1022.9,486.3z"/>
<path class="st18" d="M1076.4,566.2c8.2-2.9,15.5-4.3,23.1-4c0.8,0,2-0.3,2.1,1.2c0.1,1.3,0,2.4-1.5,2.9
	C1092.5,568.5,1085,568.3,1076.4,566.2z"/>
<path class="st19" d="M46.3,186.8c0.5-2.4,1.3-4.6,2.5-6.7l23.7-2.6C64.2,181.7,55.4,184.9,46.3,186.8z"/>
<path class="st8" d="M1044.5,519.4l-5.7-0.9c0.1,1.4,1.4,1.3,1.8,2.2c-7,0.3-10.9-4.7-8.9-11.4c0.7-2.3,2-0.8,2.7-0.4
	C1038.6,511.7,1042.3,514.8,1044.5,519.4z"/>
<path class="st20" d="M944,2.2c-1,7.4-4.8,13.6-8.3,19.9l-1.1,2c-1.5-1.4-0.8-3.1-0.4-4.7c1.3-5.7,2.7-11.4,4-17.1L944,2.2z"/>
<path class="st21" d="M1059.2,508.4c-6.5-2.4-13.1-4.3-19.8-5.8c-1-0.2-2.1-0.8-3,0.2c-1.4-0.5-1.1-1.4-0.6-2.3l0.4-0.5
	c3.2-2.1,6.6-1.3,10-0.5c1.4,0.4,2.7,1.1,4.2,1.2l11.2,6.1C1060.6,507.1,1059.5,507.1,1059.2,508.4z"/>
<path class="st17" d="M1072.5,556.2c9.7-0.7,19.4-1.1,28.7,2.2C1091.6,560.6,1081.6,559.9,1072.5,556.2z"/>
<path class="st14" d="M1036.5,400l2.6-1.7c5.6,4,7.3,9.7,7.3,16.2c0.6,1.5-2.7,2.4-0.6,4.1l-3.4,2.7
	C1041.6,413.5,1041.3,406,1036.5,400z"/>
<path class="st22" d="M148,134.5c-1.4-0.4-2.8-0.6-3.9-1.6c9.8-0.6,19.5-1.9,29.3-0.9c3.3,0.3,6.5,0.7,9.6,2.1
	c-10.3,0.6-20.7,0.6-31.1,0C150.6,134.1,149.2,133.4,148,134.5z"/>
<path class="st23" d="M880.3,65.1l11.8-20c1.2-0.8,1.4-3.1,3.5-2.6c-1.6,4.4-3.2,8.9-4.8,13.4C886.7,58.1,884.4,62.7,880.3,65.1z"/>
<path class="st24" d="M947.9,67.6l5-2.2c1.2,6.9,1.7,13.9,1.4,20.9C951.1,79.8,950.5,73.3,947.9,67.6z"/>
<path class="st25" d="M1035,528.5c-1.7,1.5-3.9,2.5-6.2,2.7c-2.6,0.3-4.1-1-4.3-3.6c-0.3-3.9,1.4-7.2,2.9-10.8
	C1027.3,522.3,1027.6,527.5,1035,528.5z"/>
<path class="st26" d="M1027.9,511.9c-2.2,2.3-4.8,4.2-7.8,5.4c-4.2,1.9-6.8,0.3-7-4.3c-0.1-1.2,0-2.4,0-3.8
	C1016.9,514.1,1017.9,514.3,1027.9,511.9z"/>
<path class="st27" d="M10.8,192.5l0.2,3.3c-1.1,0.1-2.2,0.1-3.3,0.3c-1.4,0.1-3.2,1.6-3.9-0.4c-0.8-1.8-0.5-3.9,0.8-5.4
	c1.9-2,3.8-4,5.7-6c0.2,1.7,0.3,3.3,0.5,5c-0.1,0.6-0.3,1.1-0.6,1.5C8.2,192.3,10.3,192,10.8,192.5z"/>
<path class="st28" d="M1036.5,488.9l-4.9-0.7c-0.3-5.3-0.1-10.6,0.8-15.8C1035.4,478.3,1035.2,483.8,1036.5,488.9z"/>
<path class="st29" d="M43.2,194.2l2.1-5c5.2,0.4,10.2-1.7,15.4-1.5l-2.3,2.3c-3.5,2.1-7.3,3.6-11.3,4.5
	C45.7,194.7,44.4,195.3,43.2,194.2z"/>
<path class="st30" d="M3.8,143.6c2.5-3.6,3.4-7.8,5.4-11.6c1.6,1.2,1.6,2.8,1,4.5c-0.9,3.1-1.8,6.1-2.8,9.2c-0.4,1.3-1.6,2.2-3,2.2
	C4.1,146.5,3.9,145,3.8,143.6z"/>
<path class="st31" d="M1043.2,685.6c1.8-1.2,3.6-2.3,5.3-3.5c1.2-0.8,2.4-1.2,3.5,0.2c0.8,1.1,1.8,2.3,1.2,3.6
	c-0.4,1-1.9,0.4-2.9,0.4c-2.3,0.1-4.7,0-7.1,0C1043.2,686.2,1043.2,685.9,1043.2,685.6z"/>
<path class="st32" d="M4.6,678l6.2,6.8C4.3,686.5,4.1,686.3,4.6,678z"/>
<path class="st33" d="M1031.8,489.4l5.6,3.5c-0.2,2.6,0.1,5.3-1.6,7.6l0,0C1032.5,497.5,1032.6,493.3,1031.8,489.4z"/>
<path class="st27" d="M5.7,204.2l-2-2.6c1.3-1.2,3.1-1.5,4.7-2c2.1-0.6,2.9-1.8,2.6-3.8c1.2,2.1,0.6,4.4,0.7,6.6
	C10.2,204.5,8,204.5,5.7,204.2z"/>
<path class="st34" d="M1101.4,571.7c0.2,5.4-2.4,6.6-10.7,5.3C1094.9,575.6,1098.3,574.7,1101.4,571.7z"/>
<path class="st35" d="M964.4,61.8c0.9-1,2.3-1,3.5-1.4c0.8,3.6,1.5,7.2,2.5,11.7C967.7,68.4,965.6,65.3,964.4,61.8z"/>
<path class="st36" d="M868.9,27.5l7.5-0.6c-3.7,2.9-7.1,5.1-11.5,3.2L868.9,27.5z"/>
<path class="st37" d="M932.8,69.1l3.1,1.2l-2.6,9.9l-0.5-0.1V69.1z"/>
<path class="st38" d="M916.3,3.1c-3.2,3.6-6.7,2.6-10.3,0.8C909.3,3,912.8,2.8,916.3,3.1z"/>
<path class="st39" d="M949.9,2.2c-0.4,2.8-2.1,4.9-4.4,7.9c0.4-3.3,0.7-5.5,1-7.8L949.9,2.2z"/>
<path class="st40" d="M904,40.7c0.6-2.3,1.8-4.4,3.6-6l-2.4,6.9L904,40.7z"/>
<path class="st40" d="M923.6,3.6c-4.2,7.9-7.9,15.6-11.4,23.4c0.5-4.5,2.8-8.7,3.1-13.2C915.7,8.7,918.2,5.5,923.6,3.6z"/>
<path class="st41" d="M907.8,19.9l-5.7,12.4c-0.6-0.1-1.3,0.7-1.9-0.1c1.4-3.6,2.9-7.3,4.4-10.9C905.7,21,906,19,907.8,19.9z"/>
<path class="st42" d="M905.9,17.9c0.2-3.6,2.3-5.4,5.8-6.6c-0.2,2.7-1.7,4.6-2.9,6.7C907.9,18,906.9,19,905.9,17.9z"/>
<path class="st43" d="M894.3,23c-2.1,3.3-4.1,6.5-6.2,9.8"/>
<path class="st44" d="M894.9,27.3l0.9,0.6c-0.7,3.3-3,5.9-4.6,8.8C891.8,33.3,893.6,30.4,894.9,27.3z"/>
<path class="st45" d="M1050.3,406.3c2.1-11.6,7.8-21.3,16.1-30.3c0.1,4-2.2,6.8-2.1,10.1c-3.9,6.3-7.8,12.6-11.8,18.9
	C1052,405.6,1052,407.2,1050.3,406.3z"/>
<path class="st46" d="M48,172.8c-3.1,5.5-6.2,11-9.3,16.5c-2.8,1.8-5.6,3.4-9,1.7c0.2-4.5,0.7-8.9,1.7-13.3
	C36.4,174.6,42.1,172.9,48,172.8z"/>
<path class="st47" d="M17.1,209.8c-0.7-4.4-1.4-8.7-2.1-13.1c2.4-1.9,4.9-3.4,8.1-1.8l-2.3,14.9C19.5,208.9,18.3,209.6,17.1,209.8z"
	/>
<path class="st46" d="M27.3,205.7c0.7-4.7,1.4-9.3,2.1-14c2.7,0.8,5.3-2.1,7.9,0L32,204.2C30.6,205.2,29.3,206.7,27.3,205.7z"/>
<path class="st48" d="M27.2,179.3c-0.2,2-0.8,4-1.8,5.9c-3.7,2.6-7.7,3.8-12.2,2.5l-0.7-2.6c3.6-3.5,8.4-4.6,12.9-6.2
	C26,178.6,26.7,178.8,27.2,179.3z"/>
<path class="st49" d="M14.7,194.2c-0.4-1.6-0.9-3.2-1.3-4.8c3.9-1.6,7.9-2.8,12-3.5l-1.7,6.6C20.9,194.2,18.1,195.9,14.7,194.2z"/>
<path class="st50" d="M50.5,198.1c-3.8-0.6-6.5,2.5-10,2.7l2.3-5.7c2.6,0.1,4.9-1.3,7.4-1.4c1.3-0.1,2.6-0.7,3.7,0.7L50.5,198.1z"/>
<path class="st51" d="M9.9,203.3c1,2.1,0.7,4.4,0.9,6.6c-0.8,1.6-1.9,1.8-3.4,0.9l-3.3-5.7C5.8,203.6,8,203.8,9.9,203.3z"/>
<path class="st52" d="M40.6,209.8c-1.8-0.9-2.9,1.3-4.6,0.9c0.3-0.9,0.3-1.9,1.2-2.5l5.8-1.6L40.6,209.8z"/>
<path class="st53" d="M45.4,63.3l-5.7,3.3c-2.8-3.6-4.1-7.8-5.5-12c-0.7-2-1.5-4.8,1-5.9c2.8-1.3,4.5,1.2,5.5,3.1
	C42.7,55.5,43.9,59.5,45.4,63.3z"/>
<path class="st30" d="M40.3,102.2c0.4,2.6,0.3,5.3,1.7,7.7c-4.4,7-7.9,14.4-9.3,22.6c-0.3,1.7-0.4,3.7-3,3.7c-1.8-2.8,1.5-4.9,1-7.5
	c2.9-5.7,4.3-11.9,5.6-18.2c0.8-2.2,0.6-4.8,2.5-6.6L40.3,102.2z"/>
<path class="st54" d="M67,112.8c0.2,2.2-2.8,3.5-1.9,6c-3.3,3.5-6,7.6-10.9,9.4L67,112.8z"/>
<path class="st55" d="M16.6,141.4c-0.2-3.5,3-6.5,1.6-10.3l3-5c0,3,0,6.1,0.1,9.2C19.8,137.4,19.4,140.3,16.6,141.4z"/>
<path class="st56" d="M23,132c1.2-4.2,2.5-8.3,3.5-12.6c0.7-2.9,2-0.8,3-0.5C27.6,123.4,25.9,128,23,132z"/>
<path class="st13" d="M1071.4,431.3l7,21c-1.2-11.4,0.3-22.9,4.3-33.7l1.1,0.1v29.8c0.4,6.1,1.5,12.2,0.3,18.3c-1.2,0-1.2,0-2.2-1
	c2.2,2.9,0.1,6.6,1.8,9.6c0,0.6,0,1.1-0.1,1.7c-1.7,0.8-2.6-0.2-3.2-1.5c-3-6.4-6.9-12.5-9.3-19.2c-1.6-4.3-2.1-8.9-1.4-13.5
	C1070.7,439.1,1068.5,434.9,1071.4,431.3z"/>
<path class="st57" d="M1054.5,470.5l-3.1-1.4c-0.6-2.5-2.7-4.8-0.8-7.6c1.7,1.7,3,3.6,4.1,5.7
	C1055.1,468.3,1055.6,469.5,1054.5,470.5z"/>
<path class="st3" d="M407.3-67"/>
<path class="st3" d="M267.7,48.1c-6.6-4.8-13.2-9.5-20-14s-13.7-8.7-20.7-12.7s-14.2-7.6-21.2-11.7c29.5,10.7,59.1,20.9,90.2,29.4
	c-2.4-3.5-5.4-4.8-8.2-6.3c-15-8.1-30.9-13.7-47.1-18.8c-14.2-4.5-28.7-8.4-43.2-12.1c14.2,1.7,28.3,3.7,42.5,5.1
	c15.9,1.6,31.8,2.9,47.7,3.8c1.7,0.1,5.6-1.6,4.8,3.1c2.7-0.6,2.5-2.8,2.4-4.8c-1.1-2.9-4.9-1.7-6.3-4.1c-0.4-0.5-1-0.8-1.6-0.8
	c-1.3,0.4-2.7,0.5-4.1,0.3c-5.8-1.6-11.6-2.9-17.5-4h-84.8c0,0.3,0,0.6,0.1,0.9c1.3,5.6,5.5,9.5,8.7,13.9
	c10.9,14.9,22.3,29.3,34.5,43.2c2.4,2.8,5.3,5.3,6.8,8.8c0.4,0.2,0.9,0.3,1.1,0c1-2.1,1.1,0,1.5,0.3c4.1,3.9,8.2,7.7,12.3,11.6
	c4.9,4.6,10.3,8.6,16.3,11.8c-17.7-23.2-36.9-45-56.4-66.7c21.1,16.9,42.5,33.3,65.1,48.2c-13.5-17.1-30.1-30.8-47.1-44.1
	c20.9,11.8,41.4,23.9,62.6,35.1C280.4,57.9,274.2,52.7,267.7,48.1z"/>
<path class="st58" d="M0,172c0,0,257.8,155.9,464.2-168c0,0,324.5,134.6,636.9,63.8"/>
<path class="st12" d="M2.7,124.3c2.2-5.7,4.4-11.5,8.4-17.2c1.2,7-1.1,12.9-2,18.9c0.9,2.2-0.5,4-0.9,6c-1,2.7-2,5.4-3.2,8
	c-0.7,1.4-1,3.2-3.1,3.5C1.6,137.1,0.6,130.6,2.7,124.3z"/>
<path class="st0" d="M161.7,107l0.6,0.6c-0.4,1.6-1.8,2-3.1,2.4c-13.3,5-26.7,9.7-40.3,13.9c-1.9,0.6-3.8,1.4-5.4,1
	c3.6,0.3,7.3-0.3,10.5-1.9c11.5-5,23.6-7.5,36-9.2c1.3-0.3,2.7-0.1,3.9,0.7c1.9-0.2,3.8,0.5,5.6-0.5h6.8
	c-12.5,4.3-25.2,7.9-38.1,10.7c-4,3.2-8.8,2.2-12.7,2.6c4.5,0.8,9.4-1,14.4-1c13.5-2.8,27.4-3.5,41.1-1.9
	c-14.2,3.6-28.8,5.2-44.4,6.1l5.7,2.5c1.2,0.7,3,0,3.9,1.6c5.6,3.5,12,2.5,18,3.2c7,0.7,13.8,2.5,20.3,5.2c1.3,0.6,2.9,0.9,3.9,2.7
	c-9.5-0.7-18.9-2.1-28.1-4.4c2.8,3.4,4.6,4.5,8.5,5.6c8.4,2.2,16.3,5.2,22.6,11.4c2,1.8,3.6,4.1,4.6,6.6c-2.8,0-5.1-1.3-7.4-2.3
	c-6-2.4-11.6-5.8-16.6-9.9c-15-12.3-32.6-18-51.4-21c-4.1-0.5-8.2,0.3-12.2-0.3c-1,0-1.9-0.2-2.8-0.4c-12.6-1-25.3-0.4-37.7,1.8
	c-1.6,0.3-3.2,0.7-4.8,0.9c-1.1,0.1-2.2,0.2-3.3,0.5c-4.8,0.9-9.4,2.5-14.1,3.8c-0.4,0.2-0.7,0.3-1.1,0.4c-2.4,0.6-4.7,1.4-7,2.3
	c-0.5,0.2-1.1,0.4-1.6,0.5c-2.9,1.1-5.8,2.3-8.8,3.5c-0.3,0.2-0.7,0.3-1,0.5c-4.3,1.3-8,4.5-12.7,4.6l-5.2,2.7
	c-1.9,1.6-3.7,3.4-6.4,3c0-2.7-0.9-5.4,0.6-8c2.9-3.4,3.3-7.9,5.1-11.7c1.6-3.7,3.1-7.3,4.9-10.8c2.7-5.2,5.7-10.3,9.1-15.1
	c0.8-0.9,1.5-1.9,2.1-2.9c1.1-1.4,2.2-2.7,3.4-4.1c0.9-1,1.9-2.5,3.3-1.8c1.6,0.7,0.6,2.4,0.3,3.6c-0.4,1.4-0.9,2.8-1.4,4.3
	c-2,5.7-4.3,11.4-7,16.9c-1.3,1.7-2.3,3.6-3.2,5.6c-1.9,3.6-4.4,6.9-6.6,10.4c1.5,0,2.5-1.1,3.7-1.6c2.4-1.2,2.9-3.8,4.4-5.7
	c0.7-1.1,1.3-2.3,2-3.5c2.5-4.3,4.5-8.7,6.1-13.3c1.4-3.5,2.4-7.1,3.1-10.8c0.3-2.9,1-5.7,0.8-8.6c-0.1-0.8-0.1-1.8,0.8-2.1
	c1.2-0.3,1.8,0.6,2.2,1.4c1.3,2.3,2,4.9,2,7.5c0,1.6,0,3.2-0.1,4.8c-0.8,6.4-2.7,12.6-5.5,18.4c-1,1.9-1.8,3.9-2.5,6
	c0,0.1,0.2,0.2,0.3,0.2c0.1,0,0.3,0,0.4,0c2.6-3.1,2.2-7.2,3.6-10.7c2-5.2,4.5-10.2,7.4-15c2.6-3.9,5.5-7.6,8.6-11.1
	c0.8-0.9,1.7-2.2,3.1-1.4s1.1,2.2,0.8,3.4c-0.8,4.1-2.6,7.8-4.4,11.6c-3.2,6.9-6.7,13.6-10.7,20.1c1.6-0.7,2.1-2.4,2.8-3.8
	c5.1-10.2,9.3-20.9,15.9-30.3c2.3-3.6,5.1-6.9,8.3-9.8c0.8-0.7,1.8-1.8,2.9-1.2c1.4,0.7,0.7,2.2,0.4,3.4c-2.2,7.8-5.8,14.9-9.8,21.8
	c-3.2,5.5-6.1,11.1-9.6,16.4c3.6-5.5,6.7-11.2,9.9-17c4.9-8.8,11.6-16.5,19.6-22.6c0.6-0.5,1.3-1,2-1.4c1.1-0.6,2.3-1.6,3.3-0.4
	c0.8,0.9,0,2.1-0.6,3c-5,8.1-10.2,16.1-15.8,23.7c-3.9,4.1-6.7,9.1-10.2,12.4c1.8-2.2,4.8-4.7,7-7.8c10.3-11.4,22.8-20.5,36.7-27
	c1.2-0.6,2.8-1.6,3.7-0.2s-0.7,2.5-1.6,3.4c-10.8,11.4-22.7,21.7-35.4,30.9c4.9-1.5,7.6-4.9,10.7-7.6c10.7-9.3,22.6-17.3,35.2-23.8
	c1.7-0.9,3.5-1.6,5.4-1.9c0.8-0.1,1.8-0.3,2.3,0.4c0.8,1.2-0.2,2.2-0.9,2.9c-5,4.9-9.3,10.6-15.9,13.7c-7.8,5.7-15.8,11-24.8,15
	c3.9,1.1,5.8,1.1,8.1-0.6c16.6-12.4,34.8-20.9,55.3-24.4c0.6-0.6,1.6-0.6,2.2,0c0,0,0,0,0,0c0.6,0.6,0,1.3-0.4,1.8
	c-1.2,1.3-2.7,2.4-4.4,3.1c-13.2,5.9-25.7,13.3-39.4,18.3c-1.1,0.6-2.3,0.9-3.6,1c-0.5,0,0,0.8-0.1,0.3c0-0.1,0.1-0.2,0.3-0.1
	c2.6,0.2,5.2-0.4,7.5-1.7c16.5-7.8,33.9-12.3,51.9-15.1C158.9,106.2,160.4,105.9,161.7,107z"/>
<path class="st0" d="M882.3,65.1l-2.4,3.2c-2.7-0.7-1.5-2.4-0.9-3.8c1.2-2.8,2.3-5.6,3.4-8c0.3-0.9-0.7-0.8-0.2-0.6
	c0.1,0,0.1,0.1,0.1,0.2c-2.2,4.8-3.2,10.2-7.1,14.2L868,84c0.7-7.8,3.9-14.9,5.6-22.4l-18.9,35.7c-0.6-5.2,0.8-9.8,2.2-14.5
	c3.1-10.6,8.3-20.4,13.3-30.2c-0.2-2.8,1.4-4.8,2.8-6.8c4-5.9,7.9-11.9,11.9-17.6c-3.6,1.2-5.9,4-7.9,7.3
	c-3.1,5.3-6.3,10.6-9.5,15.8c-0.9,1.4-2,2.7-3.4,3.7c-7.5,10.6-14.5,21.6-23.5,31.3l4-8.9l-0.5-0.3L830,95.1
	c0.1-4.1,1.4-6.9,2.6-9.7s2.6-5.6,4.1-8.3c1.6-2.7,3.1-5.5,4.5-8.4c-9.5,12.2-18.7,24.7-28.9,36.4c2.4-12.9,9.5-23.5,17-33.7
	s16.2-19.5,25.9-29.1c-5,1.6-8.2,3.5-10.9,7.2c-11.4,16.1-24.8,30.8-39.7,43.7c-1.2,1-2.4,1.9-3.8,2.7c4.4-9.2,10.9-17,17.1-24.9
	c0.3-1,0.9-1.9,1.7-2.5c-0.7,0.7-1.6,1.3-2.5,1.6c-11.1,9.7-22.8,18.6-36.3,24.8c-1.5,0.7-3.1,1.3-4.6,1.9c-0.2,0.1-0.5-0.1-1-0.2
	c8-7.7,16.3-14.7,24.6-22c-14.3,8-29.2,14.4-45.8,16.6l63-33c1-1.5,2.2-2.5,4.2-1.9c0.8-0.4-0.2,1.9,1.1,0.7
	c1.7-1.4,3.5-2.6,5.5-3.8c0.6-0.7-0.1-1.8,0.6-2.5c0.6-0.6,1.3-1.2,2.1-1.7c-18.6-2.2-36.5-6.1-54.4-9.6c-5.9-2.1-12.2-2.6-17.9-5.1
	c-0.5-0.6-1-1.1-0.1-1.8c5.2-1.8,10.4,0.5,15.6,0.4c1.7,0.1,3.3,0.4,4.9,0.8c12.6,1.3,25.1,3.3,37.5,6c7.9,0.6,14.9,4.9,22.8,5.6
	c-7-2-14-3.6-21-5.3c-11.6-2.5-23.3-4.1-35-5.9c-1.4-0.2-2.8,0-4.2-0.2c-4.9-1.6-10.6-0.2-15.9-3.7c5.7-3.2,10.8-1.1,15.9-0.8
	c8.4-0.2,16.7,1.4,25,2.4c15.5,2,31,3.6,46.4,6.3c2,0.2,3.9-0.2,5.6-1.2c1.8-1,3.6-1.7,5.6-2.2c-1.7,0.5-3.5,0.7-5.3,0.6
	c-26,0.6-51.9-2.2-77.2-8.2c-0.4-0.1-0.8-0.1-1.2-0.1c-1.5-0.2-2.9-0.7-4.3-1.4c-1.1-0.5-2.8-0.8-2.8-2.1c0.1-1.6,1.9-1.6,3.2-1.9
	c1.8-0.1,3.5,0.4,5.2,0.2c2.4,0.2,4.8-0.5,7.1,0.5c1.8,1.6,4,1,6,1.1c24.5,1.3,48.9,4.1,73.4,6.5c3,0,5.7-1,8.5-1.9
	c-1.6,0.2-3.2,0.5-4.5-0.7c-21.4,0.1-42.7-3-63.1-9.4c-1.5-0.5-2.9-1-4.3-1.6c-0.2-0.1-0.3-0.4-0.8-0.9c14.2-0.2,28.1,1.2,42.1,2.6
	c6.8,0.1,13.3,2,20.1,2.4c6.3,0.7,12.6,2.3,19,1.5c-5.8-0.3-11.6-0.2-17.3-1.3c-6.8-1-13.7-1.3-20.2-3.5c-9.5-1.8-18.8-4.7-27.6-8.9
	c14.7-0.4,29,2,43.5,3.8c8.5,0.5,16.8,2.2,25.1,4c3.1,0.9,6.5,0.4,9.3-1.3c-9.4,0.8-18.2-0.8-27.1-1.9c-1.4-0.2-2.7-0.7-3.8-1.6
	c-9.2-2.3-18.5-3.9-27.6-6.8c-1.9-0.6-4-0.8-6.1-2.4c8.8-0.2,17,0.9,25.3,1.7c5.6-0.1,11,1.7,16.5,2.2c6.1,1.3,12.3,2.3,18.5,2.9
	c1.7,0.2,3.3,0.5,4.9,0.9c2.8,0.4,5.8,2.5,8.3-0.6c-6.3,0.6-12.5-0.2-18.6-1.1c-4.3-0.6-8.5-1.2-12.7-1.8c-5-1.6-10.5-1-15.3-3.4
	c-0.3,0-0.6,0-0.8-0.1s-0.8-0.5-0.3-0.6c1.1-0.2,2.2-0.2,3.3-0.1c11.6,0,23.2,0.1,34.9-0.1c4,0,7.6,1.7,11.6,1.8
	c3.4,0.8,7.1,0.5,10.3-0.8c2.9-1.6,6.1-0.8,9.2-0.9c1.6,2.1,1.2,4.6,0.8,6.8c-3.1,16.2-10.9,30.4-19.8,44c-0.6,1-1.3,2.2-2.9,2
	c0.5-4.7,2.5-8.9,3.6-13.4c-0.5-2.3,1-4.1,1.6-5.9c-1,1.5-1.1,3.7-2.8,5.1c-5,9.1-10,18.2-16.8,26.4l3.6-11.4
	c-0.4-5,2.8-8.9,3.9-13.5c1.5-3.3,3.1-6.6,4.4-10c1.8-4.2,3.7-8.4,5.8-12.4c0.3-0.7,0.7-1.4,1.1-2.1c0.7-1.2,1.3-2.5,1.8-3.9
	c-2.1,0.9-2.4,2.7-3,4.3c-0.5,1.3-0.9,2.6-1.4,3.9c-1.2,3.6-3,7-4.3,10.5c-1.8,4.3-4,8.4-6,12.6C891.3,52.1,887.9,59.3,882.3,65.1z"
	/>
<path class="st0" d="M737.8,45.8c0.9,0.7,0.6,2.5,2,2.4c6-0.3,12.2,1.1,18.1-0.7c1.1-0.7,2.4-0.2,3.9-0.2c-1.5-1.6-3.5-1.7-4.8-3.1
	l-24.5-5.9l0.2-0.9c6.3,0.7,12.7,1.4,19.1,2.2c1,0.1,1.9,0.6,2.7-0.3c1.5-0.9,3.2-0.5,4.8-0.5c4.3,1.5,8.9,1.6,13.3,2.5
	c15.1,1.9,30.1,4.9,44.9,8.8c1.6,0.4,3.2,0.9,4.3,2.4c0.2,0.9-0.4,1.3-1.1,1.7c-5.3,1.6-10.3-0.8-15.4-1.2
	c-4.2-0.9-8.4-1.5-12.6-1.8c-4.1-1.1-8.4-1.4-12.6-2c-3-0.2-5.9-1.2-8.7-1.1c1.9,0.4,4.1,0,6.2,0.9c4.8,0.1,9.5,1.5,14.3,1.6
	c3.9,1.2,8,1.2,12,2c3.4,1,7.3,0.3,10.3,2.9c0.4,0.6,0.4,1.3-0.1,1.9C801.6,63,789.3,69,776.3,73.3c-13.7,4.5-27.6,8-42.2,8.5
	c12.7-5.6,25.9-9.9,39-14.8c-20.9,3.7-42.1,5-63.3,4c-1.2-0.4-2.6,0-3.5-1.2l3.5-1.1c3.3-2.9,7.8-2.5,11.6-3.7
	c1.6-0.3,3.2-0.6,4.8-1c14.9-2.7,29.8-6,44.1-6c-5.4,0.7-12-0.3-18.5,0.2c-4.3-1.4-8.7-1.3-13.1-1.1c-2-0.7-4.5-0.5-5.8-2.7
	c-8.1-0.7-16-2.3-23.8-4.7c8.2-0.3,16.2-1.9,24.3-1.4C734.8,47.3,736.3,46.5,737.8,45.8z"/>
<path class="st7" d="M30.2,171.8c0.4-0.7,0.2-2,1.5-1.9c0.2,0,0.3,0.6,0.5,1c1.2,1.7,0.1,3.4,0.3,5.1c0,0.7,0,1.3-0.1,2
	c-0.7,4.2-1.1,8.4-1.6,12.6c0,0.4-0.1,0.9-0.2,1.3c-0.9,4.6-1.2,9.2-2.2,13.8c-0.4,1.9-0.8,3.8-1,5.7c-0.8,4.2-2.1,8.2-2.9,12.4
	c0.1,0.6,0.7-0.1,0.2,0c-0.2,0.1-0.3-0.1-0.2-0.4c1.1-4.4,2-8.9,4-13c0.8-2.3,1.9-4.5,2.7-6.8c1.6-4.1,3.6-7.9,5.2-12
	c0.5-1,1.1-2.1,1.6-3.1c3-5.4,5.8-11,9.3-16.1c0.3-0.5,0.7-1,1-1.5c0.8-1.3,1.7-2.5,2.7-3.6c0.6-0.5,1.4-1.1,2.1-0.2
	c0.5,0.5,0.5,1.3,0,1.8c-0.1,0.1-0.3,0.2-0.4,0.3l-0.7,1.9c0.3,2.7-0.6,5.4-2.4,7.4l-0.7,1.6c0.5,2.7-0.8,4.8-2.5,6.7l-1.1,2.5
	c0.2,1.8-0.3,3.7-1.2,5.2c-0.1,0.4-0.3,0.7-0.4,1c-0.8,1.9-1.6,3.7-2.2,5.7c-1,2.4-2.3,4.7-3.4,7.2c-0.4,0.9-0.7,1.8-1,2.6
	c-1.9,4.1-4.1,8-5.6,10.6c1.7-3.6,5.1-7.8,8.3-12c0.9-1.2,1.8-2.4,2.8-3.5c2.3-2.9,4.7-5.7,7.4-8.2c1.3-1.3,2.1-2.9,3.4-4.2
	s2.8-2.8,4.2-4.2c0.9-0.9,2-1.5,3.3-1.8l5.2-4c-12.6,18.6-26.9,35.8-41,53.2c19.6-18.5,38-38.5,62.6-50.8
	c-13.8,13.9-28.7,26.6-43.7,39.3c15.6-8.9,31.2-17.7,47.9-24.8c-3.4,2.7-6.8,5.6-10.3,8.2s-7.2,5.1-10.9,7.4s-7.8,4.6-11.8,6.9
	c-1.4,1.8-3.7,2-5.4,3.3c2-1,3.9-2.2,6.2-2.4l42.1-16.8c-17.3,12.1-36.2,20.9-56,27.7c-1.3,1.3-3.2,1.3-4.3,1.8
	c-1,0.4-0.2,1.1-0.5,0.6c-0.1-0.1,0-0.2,0.1-0.3c1.9-1.1,4.1-0.9,6.2-1.4c19.6-3.9,39.2-7.7,59.1-9.7C85,236,61.8,238,39,241.2
	c22.3,0.6,44.6,1.6,66.8,4c-10.8,2.9-21.9,3.5-33,3.5c-11-0.1-22-0.8-33-2c20.2,5,40.3,10.3,59.6,18.3c-21.9-0.8-42.6-7.2-63.2-14.3
	c16.5,9,32.7,18.5,48.2,29c-18.8-4.5-34.9-14.5-51-24.8c12.1,12.1,23.3,24.8,32.6,39.1c-6.4-4.2-12.3-9.2-17.6-14.8
	c-5.4-5.6-10.6-11.3-16.1-16.8C38,275.1,43.2,288,46,301.6c-9.2-12.4-15.6-26.3-22.1-40.3c0.9,7.1,1.7,14.2,2.1,21.3
	c0.6,7.3,0.4,14.6-0.6,21.8c-5.1-12.6-6.2-25.9-7.7-39.1c-1.8,10.4-4,20.7-8,30.6c-2.1-9.2-0.8-18.3,0.3-27.5
	c-2.1,4.8-4.3,9.5-6.4,14.3c-2.9-11.8,1-21.9,7.6-32.3c-3.8,1.8-6.3,3.8-9.4,4.7c-1.1-3-0.3-4.5,2.8-5.5s5.9-2.6,9.8-4.5
	c-3.8-0.4-6.4-0.9-8.9-0.8c-4,0.1-4.6-2-4-5.2c2.1-0.7,3.7,0.6,5.1,1.1c-1.2-1.4-4.1-0.6-5.1-3v-4.7c1.1-0.6,1.7,0.4,2.6,0.9
	c-1.1-0.9-2.2-1.6-2.5-2.9c0-2.9,0-5.8,0-8.6c3-0.3,3.1,2.7,4.6,3.8c-1.3-2.7-3.5-5.4-3.7-9c-1.9-4.9-0.8-9.9-0.8-14.9
	c1.7-0.2,2.1,1.2,2.8,2.2c0.2,0.3,0.4,0.7,0.5,1c0.9,2,2,3.8,3.2,5.6c0.9,1.7,1.8,3.4,2.5,5.2c0.8,2.8,1.6,5.5,2.2,6.9
	c-1.1-3-1.9-6.2-2.3-9.4c-0.3-1.2-0.5-2.4-0.9-3.6c-0.5-2-0.1-4.2-0.8-6.2c-0.1-0.4-0.2-0.8-0.2-1.3c-0.4-2.1,1.4-4.2,0.3-6.4v-0.1
	c-0.8-0.8-1.2-2-1.2-3.1c-0.1-1.1,0-2.2-0.1-3.3c-0.1-1.7-0.8-3.5,0.5-5.1c0.1-2.6,0.1-5.1,0.2-7.7c0.4-0.7-0.1-1.9,0.8-2.2
	c1.2-0.3,1.6,0.8,1.9,1.7c0.8,2.4,1.5,4.9,2,7.4c0.1,0.4,0.2,0.8,0.3,1.2c0.1,1,0.4,1.9,0.6,2.9c0.1,0.6,0.3,1.1,0.3,1.7
	c0.3,1.8,0.8,3.4,1.3,5.2c0.2,0.8,0.4,1.6,0.4,2.5c1.2,4.2,1.3,8.6,2.1,12.9c0.2,1,0.3,2.1,0.4,3.1c0.4,2.2,0.6,4.4,0.5,6.7
	c-0.1-2.2,0.1-4.4,0.5-6.6c0-1.1,0.1-2.1,0.3-3.1c0.8-4.8,1.1-9.6,2.2-14.4c0.2-1.1,0.6-2,0.8-3.1c0.5-2.1,1.1-4.3,1.6-6.4
	c0.1-0.4,0.1-0.8,0.2-1.1c0.6-1.8,1.2-3.6,1.8-5.5c0.3-0.9,0.6-1.8,0.9-2.7C27.8,174.8,28.8,173.1,30.2,171.8z"/>
</svg>
