<svg id="Layer_1" data-name="Layer 1" xmlns="http://www.w3.org/2000/svg" viewBox="0 0 35.82 29.33"><defs><style>.cls-1{fill:#ff8a1f;}.cls-2{fill:#e95c00;}.cls-3{fill:#ff780a;}.cls-4{fill:#fefefe;}.cls-5{fill:#597768;}.cls-6{fill:#005aaa;}.cls-7{fill:#009fc2;}.cls-8{fill:#00c1d9;}</style></defs><g id="_2vnAOq" data-name="2vnAOq"><path class="cls-1" d="M24.46,7.37c.62.18,1.27.21,1.87.44a.23.23,0,0,1,0,.21.33.33,0,0,0,.24.4l.21.09a2.33,2.33,0,0,1,1.47,2.27,6.4,6.4,0,0,0,1.19,3.5,6.68,6.68,0,0,0,1.13,1.3.56.56,0,0,1,.18.49,7.09,7.09,0,0,1-.1,1.59c-.13.18-.35.24-.51.39-.35-.12-.55-.43-.82-.65s-.7-.61-1.07-.92c-.12.74,0,1.49-.17,2.22-.1.2-.31.17-.48.25A4.83,4.83,0,0,1,26.8,18a8.06,8.06,0,0,1-.62-.74c-.09.55-.11,1-.15,1.54,0,.12,0,.26-.1.36a1.22,1.22,0,0,0-.38.07c-.2-.08-.25-.29-.36-.44s-.38-.58-.59-.88a7.1,7.1,0,0,1-.44,1.25,2.36,2.36,0,0,1-.46,0c-.22-.16-.27-.42-.39-.64s-.14-.29-.22-.4c-.19.32-.19.71-.48,1a.7.7,0,0,1-.32-.06c-.16-.14-.16-.34-.21-.53s-.11-.21-.24,0-.28.41-.55.45a8.36,8.36,0,0,1-2.37-.61,1.83,1.83,0,0,1-.28-.14s0-.05,0,0,0,0,0,0a.78.78,0,0,0,.2.11,7.56,7.56,0,0,0,1.65.78c.21.06.43.11.65.15a8.62,8.62,0,0,0,2.36.43,2.58,2.58,0,0,1,.48,0,5.46,5.46,0,0,0,1.34,0,3.82,3.82,0,0,0,.83-.06,13.44,13.44,0,0,0,1.9-.31,9.21,9.21,0,0,0,2-.66,3.36,3.36,0,0,0,.67-.37,7,7,0,0,1,2.08-.9,4.56,4.56,0,0,1,1.09-.26,2,2,0,0,1,1.41.28,1.76,1.76,0,0,1-.12,2.94,16.73,16.73,0,0,0-7.26,3.72,8.2,8.2,0,0,1-4.72,2.11,7.45,7.45,0,0,1-2.4-.06c-.35-.08-.41-.2-.29-.56l.21-.64a1.38,1.38,0,0,0,.08-.27.49.49,0,0,0-.52-.64,1.84,1.84,0,0,0-.47.07,5.65,5.65,0,0,1-3.08,0,2.35,2.35,0,0,0-.53-.09.86.86,0,0,1-.74-.37,9.11,9.11,0,0,1-2-3.75,3.45,3.45,0,0,0-.18-.51,6.93,6.93,0,0,1-.15-1.93,11.57,11.57,0,0,1,.52-3,1.43,1.43,0,0,1,.09-.27c.05-.11.12-.2.16-.31s.14-.17.17-.28a11.53,11.53,0,0,1,1.84-2.79,3.7,3.7,0,0,0,.69-.79,10.06,10.06,0,0,1,3.9-2.22,9.59,9.59,0,0,1,3.95-.38A.15.15,0,0,0,24.46,7.37Z" transform="translate(-0.18 -3.02)"/><path class="cls-2" d="M13.74,14.12c-.12.44-.24.88-.35,1.32a11.2,11.2,0,0,0-.24,1.82,7.18,7.18,0,0,0,.14,2.12c.1.42.19.85.33,1.27,0,.11.14.27-.08.33a5.73,5.73,0,0,0-.8-.91,2,2,0,0,0-3.48,1,9.24,9.24,0,0,1-1.18,2.55,6.3,6.3,0,0,1-.78.93,2.12,2.12,0,0,1-3,.08,2.08,2.08,0,0,1-.11-3,5.33,5.33,0,0,0,1.51-3,4.93,4.93,0,0,0-3.54-5.38,2.5,2.5,0,0,1-2-2.59A2.56,2.56,0,0,1,1.6,8.48a3.43,3.43,0,0,1,5.06,2A9.42,9.42,0,0,0,8.91,14.4a2.93,2.93,0,0,0,4.17.07c.22-.21.69-.7.91-.9C13.92,13.87,13.74,14,13.74,14.12Z" transform="translate(-0.18 -3.02)"/><path class="cls-2" d="M16.12,23.88a10,10,0,0,1,1.43.27,6,6,0,0,0,2-.11c.19,0,.37-.09.56-.12a.61.61,0,0,1,.7.87l-.09.17a8.49,8.49,0,0,0-1.31,2.13c0,.08-.11.13-.17.19a7.51,7.51,0,0,1-1.72,3.14,6.82,6.82,0,0,1-3,1.87,1,1,0,0,1-1.25-.46,1,1,0,0,1,.2-1.31,4.52,4.52,0,0,0,1.41-3.37,5.16,5.16,0,0,0-.19-1.23,1.52,1.52,0,0,1,.59-1.72c.08-.23.28-.26.47-.29S16,23.94,16.12,23.88Z" transform="translate(-0.18 -3.02)"/><path class="cls-3" d="M19.26,27.28a7.12,7.12,0,0,1,1.22-2.08,3,3,0,0,1,.26-.24,4.43,4.43,0,0,1-.23.73c-.05.17,0,.28.17.32a3.88,3.88,0,0,0,.76.12A12.73,12.73,0,0,0,23.83,26a9.94,9.94,0,0,0,2.22-.78,27,27,0,0,0,3.35-2.46,18.51,18.51,0,0,1,2.25-1.27,21.52,21.52,0,0,1,2.87-1.06c.2-.07.4-.21.62-.08a25.65,25.65,0,0,0-3.32,3.59,10.49,10.49,0,0,1-3,2.7c-.08.05-.17.09-.2.19a9.12,9.12,0,0,1-2.81,1.11,6.17,6.17,0,0,0-.74.19c-.14-.2-.33-.07-.49-.06a10.53,10.53,0,0,1-4.72-.58A2,2,0,0,0,19.26,27.28Z" transform="translate(-0.18 -3.02)"/><path class="cls-1" d="M30.71,16a.56.56,0,0,0-.24-.48,7,7,0,0,1-1.71-2.42,7.48,7.48,0,0,1-.57-2.63,2.14,2.14,0,0,0-1.48-2c-.49-.19-.51-.24-.38-.73a9.09,9.09,0,0,1,2.24.91L29,9c.28,0,.45.24.65.38A9.94,9.94,0,0,1,32.5,12.5a.66.66,0,0,0,.14.38,9.28,9.28,0,0,1,.69,1.62c0,.3,0,.61,0,.91a1.2,1.2,0,0,1-1.3,1.18c-.28-.14-.41-.43-.6-.65s-.42-.56-.64-.8C30.81,15.44,31,15.76,30.71,16Z" transform="translate(-0.18 -3.02)"/><path class="cls-2" d="M24.46,7.37a4.86,4.86,0,0,1-1.32,0A10,10,0,0,0,18,9a7.82,7.82,0,0,0-1.23.91.27.27,0,0,1-.23.09,9.74,9.74,0,0,1,1.89-2.73,1.46,1.46,0,0,0,.05-2.19,1.2,1.2,0,0,1,.73-2A2.39,2.39,0,0,1,22,4.79,3.69,3.69,0,0,0,24.46,7.37Z" transform="translate(-0.18 -3.02)"/><path class="cls-2" d="M25.1,28.13c0-.18.19-.16.3-.18a9.25,9.25,0,0,0,3.1-1.13.16.16,0,0,1,.15,0,6.73,6.73,0,0,1-1.95,4.58,1,1,0,0,1-1.75-1A5,5,0,0,0,25.1,28.13Z" transform="translate(-0.18 -3.02)"/><path class="cls-2" d="M32.5,12.5a.88.88,0,0,1-.15-.12A10.85,10.85,0,0,0,29,9a2.45,2.45,0,0,1,3.44,1.63A3.13,3.13,0,0,1,32.5,12.5Z" transform="translate(-0.18 -3.02)"/><path class="cls-3" d="M16.12,23.88c-.28.11-.61.08-.84.32,0-.12-.06-.18-.12-.25a11.06,11.06,0,0,1-1.34-2.43,5.52,5.52,0,0,0-.28-.54c.13-.09,0-.19,0-.28a6,6,0,0,1-.25-1.32c.26.65.41,1.35.73,2a11.39,11.39,0,0,0,1.61,2.35A.56.56,0,0,0,16.12,23.88Z" transform="translate(-0.18 -3.02)"/><path class="cls-4" d="M33.85,17.13a4.56,4.56,0,0,1-1.09.32.25.25,0,0,1,0-.09,4.42,4.42,0,0,1,.24-.6,6.59,6.59,0,0,0,.64-1.37,8.62,8.62,0,0,1,.27-1.19s.14,1,.14,1,0,.41,0,.43C34,15.78,33.91,16.39,33.85,17.13Z" transform="translate(-0.18 -3.02)"/><path class="cls-3" d="M33.6,15.39A10.31,10.31,0,0,1,33,16.81c-.22,0-.43.15-.66.16a.46.46,0,0,1-.31-.42A1.42,1.42,0,0,0,33.12,16a1.2,1.2,0,0,0,.16-.64,2.16,2.16,0,0,1,0-.84Z" transform="translate(-0.18 -3.02)"/><path class="cls-5" d="M14,13.57" transform="translate(-0.18 -3.02)"/><path class="cls-5" d="M13.79,13.78" transform="translate(-0.18 -3.02)"/><path class="cls-2" d="M24,14.43a2.86,2.86,0,1,1,2.87-3A2.82,2.82,0,0,1,24,14.43Z" transform="translate(-0.18 -3.02)"/><path class="cls-4" d="M28.06,18.74l.14-2.46,2,1.75c.22,0,.29.14.36.31l0,.05c-.29-.09-.3.25-.47.33a6.66,6.66,0,0,1-2,.66.36.36,0,0,1-.07-.1A.73.73,0,0,1,28.06,18.74Z" transform="translate(-0.18 -3.02)"/><path class="cls-4" d="M30.8,15a17.88,17.88,0,0,1,1.25,1.53l.32.39a2.62,2.62,0,0,1,.39.45v.06a12.8,12.8,0,0,0-2.7,1.27c0-.18.29-.31.09-.51.19-.09.17.26.36.13a.25.25,0,0,0,0-.07,2,2,0,0,0,0-.34.32.32,0,0,1,.07-.22" transform="translate(-0.18 -3.02)"/><path class="cls-4" d="M26.08,17.36c0-.06,0-.12,0-.26l1.57,1.84.39.36v.08a6.6,6.6,0,0,1-1.92.32l-.35,0" transform="translate(-0.18 -3.02)"/><path class="cls-4" d="M21.33,18.94l.56-.61c.11-.13.18-.13.22.05s.12.45.18.68c.08.06.08.17.14.23s.09-.14.18-.17L23.09,18l.62,1.21.3.43c0,.06.1.16-.06.15a10.77,10.77,0,0,1-2.65-.35,3.17,3.17,0,0,1-.34-.13Z" transform="translate(-0.18 -3.02)"/><path class="cls-4" d="M24.57,17.75l1,1.5c.19.09.23.27.31.44h.28a8.12,8.12,0,0,1-2.2.07.12.12,0,0,0,.06-.15" transform="translate(-0.18 -3.02)"/><path class="cls-2" d="M21.33,18.94l-.26.31a.38.38,0,0,1-.33,0,6.93,6.93,0,0,1-2-.92c0-.12.06-.09.13-.06a13,13,0,0,0,2.38.6S21.31,18.92,21.33,18.94Z" transform="translate(-0.18 -3.02)"/><path class="cls-2" d="M30.57,18.34h-.06L30.19,18c0-.24.26-.26.44-.32V18C30.56,18.08,30.66,18.22,30.57,18.34Z" transform="translate(-0.18 -3.02)"/><path class="cls-2" d="M28.06,19.3c-.23,0-.25-.25-.39-.36.06-.19.27-.1.39-.2Z" transform="translate(-0.18 -3.02)"/><path class="cls-2" d="M24.14,19.19c0,.16,0,.34-.18.46a1.48,1.48,0,0,1-.25-.46A.38.38,0,0,1,24.14,19.19Z" transform="translate(-0.18 -3.02)"/><path class="cls-2" d="M25.87,19.69l-.31-.44c.08-.22.21-.15.34-.06Z" transform="translate(-0.18 -3.02)"/><path class="cls-2" d="M22.61,19.12l-.17.41a.89.89,0,0,1-.15-.47C22.4,19.07,22.52,19,22.61,19.12Z" transform="translate(-0.18 -3.02)"/><path class="cls-2" d="M18.88,18.28c-.05,0-.1,0-.13.06l-.19-.12c0-.06,0-.09.06-.07Z" transform="translate(-0.18 -3.02)"/><path class="cls-2" d="M32.76,17.39a1.13,1.13,0,0,1-.39-.45c.21-.06.4-.24.65-.13Z" transform="translate(-0.18 -3.02)"/><path class="cls-4" d="M24.57,13.15a1.81,1.81,0,1,1,1.8-1.78A1.81,1.81,0,0,1,24.57,13.15Z" transform="translate(-0.18 -3.02)"/><path class="cls-2" d="M30.57,18.34c0-.13,0-.26.06-.38C30.63,18.09,30.7,18.23,30.57,18.34Z" transform="translate(-0.18 -3.02)"/><path class="cls-6" d="M25.64,10.76a.83.83,0,0,1-.22,1.05.86.86,0,0,1-1.37-.92.87.87,0,0,1,1-.61c-.11.24-.27.49,0,.68S25.49,11,25.64,10.76Z" transform="translate(-0.18 -3.02)"/></g><ellipse class="cls-7" cx="7.07" cy="26.98" rx="1.55" ry="1.87"/><g id="_5K2mBC" data-name="5K2mBC"><path class="cls-8" d="M7.24,26.3c-.09.23-.17.45-.26.66A13.13,13.13,0,0,1,6,28.7a3.35,3.35,0,0,0-.55,1.4A1.84,1.84,0,1,0,9,29.76a4.57,4.57,0,0,0-.68-1.36,7.19,7.19,0,0,1-1.06-2.06S7.27,26.33,7.24,26.3Zm.61,2a4.3,4.3,0,0,1,.78,1.79,1.46,1.46,0,0,1-.1.85.32.32,0,0,1-.37.16C8,31,8,30.91,8,30.78a2,2,0,0,1,.09-.53,2.05,2.05,0,0,0,.07-.74A4.78,4.78,0,0,0,7.85,28.27Z" transform="translate(-0.18 -3.02)"/></g><ellipse class="cls-7" cx="34.33" cy="21.11" rx="0.93" ry="1.13"/><g id="_5K2mBC-2" data-name="5K2mBC"><path class="cls-8" d="M34.5,21.89c0,.15-.1.28-.15.4a9,9,0,0,1-.61,1.05,2.24,2.24,0,0,0-.34.85,1.12,1.12,0,1,0,2.19-.2,3,3,0,0,0-.41-.82,4.51,4.51,0,0,1-.65-1.25Zm.37,1.19a2.74,2.74,0,0,1,.47,1.08.84.84,0,0,1-.06.52.19.19,0,0,1-.22.1c-.1,0-.1-.1-.1-.18a1.19,1.19,0,0,1,0-.32,1.33,1.33,0,0,0,.05-.45A3.3,3.3,0,0,0,34.87,23.08Z" transform="translate(-0.18 -3.02)"/></g><ellipse class="cls-7" cx="32.7" cy="24.84" rx="0.93" ry="1.13"/><g id="_5K2mBC-3" data-name="5K2mBC"><path class="cls-8" d="M32.87,25.62l-.15.4a7.83,7.83,0,0,1-.62,1.05,2.22,2.22,0,0,0-.33.85,1.12,1.12,0,1,0,2.19-.2,3,3,0,0,0-.41-.82,4.51,4.51,0,0,1-.65-1.25Zm.37,1.19a2.68,2.68,0,0,1,.47,1.08.84.84,0,0,1-.06.52.19.19,0,0,1-.22.1c-.1,0-.1-.1-.1-.18a1.19,1.19,0,0,1,.05-.32,1.13,1.13,0,0,0,0-.45A2.83,2.83,0,0,0,33.24,26.81Z" transform="translate(-0.18 -3.02)"/></g></svg>