<svg id="Layer_1" data-name="Layer 1" xmlns="http://www.w3.org/2000/svg" viewBox="0 0 358 110.69"><defs><style>.cls-1{fill:none;}.cls-2{fill:#c5e0a3;}.cls-3{fill:#578a25;}.cls-4{fill:#8dc240;}.cls-5{fill:#fefefe;}</style></defs><ellipse class="cls-1" cx="179" cy="63.19" rx="179" ry="47.5"/><path class="cls-2" d="M284.9,189.52l-4.76.48c0-2.21-1-4.21-1.23-6.37a37.67,37.67,0,0,0,.2-7.2c0-8.1.32-16.19.84-24.27a315.4,315.4,0,0,1,3.81-32.86c1.69-9.89,3.47-19.78,7.2-29.17.43-1.07.8-3,1.72-2.81,1.15.19.72,2,.82,3.13.5,5.86-.07,11.7-.47,17.53-.89,12.74-2.21,25.44-2.92,38.19-.35,6.17-.77,12.34-1.13,18.52a15.41,15.41,0,0,0,.19,2.35v0c-.38.2-.26.56-.28.87-.25,5.4-.61,10.8-.44,16.22A45.22,45.22,0,0,0,284.9,189.52Z" transform="translate(-0.14 -87.31)"/><path class="cls-3" d="M288.4,184.12c-.17-5.42.19-10.82.44-16.22a.73.73,0,0,0,.3-.9v.05a31.11,31.11,0,0,0,2.53-4.9c7.27-14.4,16.87-26.85,30.34-36,8.79-6,18.31-10.22,29-11.6,1.17-.15,2.36-.19,3.55-.23a11.11,11.11,0,0,1,1.63.16,6.16,6.16,0,0,1-2.74,2.2c-5,2.84-10.19,5.35-15.15,8.28-17.19,10.13-29.56,24.59-38.28,42.36-.63,1.28-1.67,2.42-1.62,4-.43.59-.84,1.19-1.31,1.74C294,176.62,291.23,180.4,288.4,184.12Z" transform="translate(-0.14 -87.31)"/><path class="cls-4" d="M278.86,183.67c.23,2.16,1.25,4.16,1.23,6.37l-8.08.77c-.27-1.27-1.54-1.9-2-3.05-.45-2-.88-4-1.36-6.06a209,209,0,0,1-4.14-21.78,17,17,0,0,0-.55-3.82,138.38,138.38,0,0,1-.44-31.38A57.28,57.28,0,0,1,266,113a11.24,11.24,0,0,1,2-4,6.42,6.42,0,0,1,1.12,3.52c.77,5.93.92,11.92,1.37,17.88a351.21,351.21,0,0,0,8.15,52.09C278.72,182.89,278.78,183.29,278.86,183.67Z" transform="translate(-0.14 -87.31)"/><path class="cls-4" d="M288.4,184.12c2.83-3.72,5.6-7.5,8.63-11.06.47-.55.88-1.15,1.31-1.74,1.5-.85,2.44-2.3,3.63-3.49,8-8,16.85-14.49,27.88-17.55,6.85-1.91,13.76-2.49,20.66-.2a7.79,7.79,0,0,1,3.7,2.14,9.12,9.12,0,0,1-4.1,1A66.26,66.26,0,0,0,330,158.74c-8.81,4.2-16,10.42-22.62,17.49-3.3,3.56-6.39,7.3-9.4,11.1a3,3,0,0,1-2.26,1.22c-3.6.28-7.19.64-10.79,1A43.66,43.66,0,0,1,288.4,184.12Z" transform="translate(-0.14 -87.31)"/><path class="cls-2" d="M264,156.1a17,17,0,0,1,.55,3.82,209,209,0,0,0,4.14,21.78c.48,2,.91,4,1.36,6.06l-5.72-6.35c.59-.58,0-1.06-.19-1.52a339.39,339.39,0,0,0-18.53-36.79c-5-8.59-10.18-17-14.81-25.8a20.91,20.91,0,0,1-2.3-5.42c-.06-.32-.12-.79,0-1,.35-.36.72,0,1,.24a36.69,36.69,0,0,1,7.69,6.81c10.32,11.38,18.73,24.08,26.09,37.51C263.47,155.74,263.47,156.17,264,156.1Z" transform="translate(-0.14 -87.31)"/><path class="cls-3" d="M264.29,181.41q2.86,3.17,5.72,6.35c.46,1.15,1.73,1.78,2,3.05-3.37.35-6.74.69-10.11,1.06a1.61,1.61,0,0,1-1.48-.54c-10.51-11-22.51-20.38-34.33-29.92a62.29,62.29,0,0,1-5.62-4.89c-.69-.7-.52-1,.35-1.2a9.65,9.65,0,0,1,4.53.17c6,1.44,11.21,4.4,16.34,7.63A125.8,125.8,0,0,1,264.29,181.41Z" transform="translate(-0.14 -87.31)"/><path class="cls-5" d="M289.14,167a.73.73,0,0,1-.28.87C288.86,167.59,288.74,167.23,289.14,167Z" transform="translate(-0.14 -87.31)"/></svg>