<svg id="Layer_1" data-name="Layer 1" xmlns="http://www.w3.org/2000/svg" viewBox="0 0 358.14 197.96"><defs><style>.cls-1{fill:#c5e0a3;}.cls-2{fill:#8dc240;}.cls-3{fill:#578a25;}.cls-4{fill:#00c1d9;}.cls-5{fill:#009fc2;}.cls-6{fill:#fefefe;}</style></defs><path class="cls-1" d="M54.66,100.34l1,1.08a285.12,285.12,0,0,1,2.4-51C60.2,33.66,62,16.83,66.06,0a4.69,4.69,0,0,1,1.65,3c1.43,6,1.43,12.2,1.43,18.39,0,13.8-1.35,27.53-2.32,41.28-.6,8.35-1.09,16.71-1.36,25.08,0,.47-.14,1,.44,1.24a96,96,0,0,0-6.52,14.26,2.15,2.15,0,0,0,.37,2.41,42.8,42.8,0,0,1,6.3,9.93c0,.84-.09,1.68-.14,2.51l-9,1a24,24,0,0,0-4.62-6.45c-2.91-3.72-6.45-6.54-11.14-7.68-.61-.15-1.29-.47-1.71.35-1.32-1.53-3.16-.84-4.71-.87a135.78,135.78,0,0,0-22.25,1.36c-1.64.24-3.27.62-4.9.9-.4.07-.9.3-1.19-.06s.16-.88.37-1.26a14.52,14.52,0,0,1,6.16-5.53,38.37,38.37,0,0,1,10.76-3.67c3-.63,6.11-1,9.19-1.33.55-.06,1.11-.09,1.08-.87.45.4.69,1,1.56.89a30,30,0,0,1,10.87,1C49.4,96.94,51.92,98.84,54.66,100.34Z" transform="translate(0 -0.04)"/><path class="cls-2" d="M66.14,115.63a42.8,42.8,0,0,0-6.3-9.93,2.15,2.15,0,0,1-.37-2.41A96.1,96.1,0,0,1,65.94,89c1-2,2.46-3.73,3.21-5.86,2-1.88,3.11-4.46,4.67-6.68A87,87,0,0,1,83.59,64a5.28,5.28,0,0,0,1.73-2.81c.71,1.15.94-.12,1.17-.33a82,82,0,0,1,26.65-16.66c5.2-2,10.52-3.51,16.17-3.47a3.17,3.17,0,0,1,2,.37,16,16,0,0,1-4.5,3.15A197.53,197.53,0,0,0,105.27,57.3a89.61,89.61,0,0,0-24.43,27c-.79,1.33-1.62,2.64-2.44,4C72.85,96.74,68.22,105.63,66.14,115.63Z" transform="translate(0 -0.04)"/><path class="cls-3" d="M66.14,115.63c2.13-10,6.76-18.89,12.31-27.36A188.71,188.71,0,0,0,76,109.2a27.55,27.55,0,0,0,0,3.4c1.58-2.76,4.1-4.79,5.53-7.63.7,0,1-.57,1.4-1a81,81,0,0,1,27.19-19.4,67,67,0,0,1,9-3.21,11.79,11.79,0,0,1,6.86.07,51.61,51.61,0,0,1,12.86,6.16c.62.42,1.67.89,1.5,1.57-.21.85-1.39.72-2.18.81a23.29,23.29,0,0,1-8.36-.49c-4.91-1.26-9.13,0-13.46,2.31a107,107,0,0,0-26.42,19.36,6.91,6.91,0,0,0-2,2.72c-.45,1.5-1.37,2-3,2.2-6.36.59-12.69,1.37-19,2.07C66,117.31,66,116.47,66.14,115.63Z" transform="translate(0 -0.04)"/><path class="cls-1" d="M110.06,84.57A80.77,80.77,0,0,0,82.87,104c-.4.43-.7,1-1.4,1A63.4,63.4,0,0,1,89,92.89,165.72,165.72,0,0,1,121.26,61,50.54,50.54,0,0,1,142,51.3a20.13,20.13,0,0,1,6.75,0c.45.06,1.1.13,1.21.63.16.66-.57.82-1,1.08-3,1.77-6.14,3.13-9.11,4.9a90.44,90.44,0,0,0-13.93,10.55c-5.28,4.73-10.18,9.84-15.12,14.92A2,2,0,0,0,110.06,84.57Z" transform="translate(0 -0.04)"/><path class="cls-3" d="M85.32,61.21A5.29,5.29,0,0,1,83.59,64c-3.78,3.75-6.72,8.14-9.77,12.47-1.56,2.22-2.63,4.8-4.67,6.68a155.85,155.85,0,0,1,9.73-32.31c4.88-11.78,10.67-23.07,18.63-33.13a21.54,21.54,0,0,1,5.17-5,10.31,10.31,0,0,1-.77,4.88c-2.72,8.28-6.43,16.18-9.49,24.33C90,48.33,87.68,54.78,85.32,61.21Z" transform="translate(0 -0.04)"/><path class="cls-3" d="M54.66,100.34c-2.74-1.5-5.26-3.4-8.23-4.47-.1-.27-.2-.55-.32-.82A103.33,103.33,0,0,0,34.19,76.34c-.49-3.49-1.73-6.8-2.44-10.23-1.81-8.85-3.21-17.72-1.8-26.78a8.35,8.35,0,0,1,1.31-3.81c1.76,2.48,2.43,5.28,3.16,8a317.59,317.59,0,0,0,13.14,40C49.88,89.18,52.29,94.75,54.66,100.34Z" transform="translate(0 -0.04)"/><path class="cls-2" d="M34.19,76.34a103.48,103.48,0,0,1,12,18.71c.12.27.22.55.32.82a30,30,0,0,0-10.87-1c-.87.12-1.11-.49-1.56-.89-1.73-3.06-3.76-5.93-5.63-8.9-3.58-5.69-9-9.28-14.31-13a144.13,144.13,0,0,1-12.17-8.8c-.78-.67-2.26-1.45-1.85-2.34s2.07-.55,3.15-.44a31.47,31.47,0,0,1,7.1,1.73,74.34,74.34,0,0,1,19.06,9.65C31.14,73.18,32.52,74.92,34.19,76.34Z" transform="translate(0 -0.04)"/><path class="cls-2" d="M39.49,105.34c.42-.82,1.1-.5,1.71-.35,4.69,1.14,8.23,4,11.14,7.68l1.14,6.84c-2.66.32-5.32.63-8,1-.78.11-1.17-.07-1.37-.91A106.34,106.34,0,0,0,39.49,105.34Z" transform="translate(0 -0.04)"/><ellipse class="cls-4" cx="179.14" cy="150.46" rx="179" ry="47.5"/><path class="cls-5" d="M270.43,109.64c35.13,8,57.37,19.69,57.37,32.77,0,24-74.71,43.46-166.86,43.46-75.8,0-139.8-13.18-160.11-31.22C8.76,178.94,85.56,198,179.14,198c98.86,0,179-21.27,179-47.5C358.14,133.12,322.94,117.91,270.43,109.64Z" transform="translate(0 -0.04)"/><path class="cls-6" d="M289.14,167a.73.73,0,0,1-.28.87C288.86,167.59,288.74,167.23,289.14,167Z" transform="translate(0 -0.04)"/></svg>