<svg id="Layer_1" data-name="Layer 1" xmlns="http://www.w3.org/2000/svg" viewBox="0 0 480 480"><defs><style>.cls-1{fill:#fbfafa;}.cls-2{fill:#010101;}.cls-3{fill:#070707;}.cls-4{fill:#090909;}.cls-5{fill:#1d1c1c;}.cls-6{fill:#1a1a1a;}</style></defs><path d="M479.91,240q0,117.92.09,235.83c0,3.27-.46,4.17-4,4.16q-235.85-.17-471.71,0C.51,480,0,479,0,475.59Q.15,240,0,4.43C0,1,.47,0,4.26,0Q240.12.2,476,0c3.54,0,4,.86,4,4.16Q479.84,122.09,479.91,240Z"/><path class="cls-1" d="M224.75,332.75a75.68,75.68,0,0,1-15.16,2.35c-3.24.16-5,1.11-3.57,5.17,2.7,7.5,5,15.14,8.16,22.49,3.28,7.63,5.8,15.55,6.21,23.94.35,7.28,3.37,13.3,7.66,19.07s4,8.73.6,12.53c-1.06,1.17-2.25,2.23-3.86,1.84-3.91-.94-6.28,1.55-8.71,3.76-4.09,3.71-8.27,7.24-13.52,9.24a20.09,20.09,0,0,1-4.23,1.43c-3.21.42-6.57.35-8.62-2.58s-.71-5.78.9-8.4a37.24,37.24,0,0,1,8.8-9.47c8-6.37,10.43-13.37,6.3-23.7a22.68,22.68,0,0,1-1.09-2.79c-1.47-5.83-5.09-8.26-11.16-9.19-15.23-2.33-15.36-2.65-17.08-17.9-1.28-11.39-2.93-22.76-2.3-34.34a15.1,15.1,0,0,1,5-10.9,86.13,86.13,0,0,1,23.75-15.41c6.82-3.09,13.65-6.15,20.53-9.09,2.26-1,3.37-2.31,3.42-4.83a46.61,46.61,0,0,1,5-20.2c.95-1.9,1.35-3.37-1.13-4.84-3.92-2.33-4.63-6-2.36-9.93a21.35,21.35,0,0,0,2-18.2,15.81,15.81,0,0,1,1.9-13c4.08-6.75,1.38-13.08-1.15-19.11-2.63-6.27-6-12.24-7.46-19-1.55-7.06-.28-10,5.85-13.68a25.24,25.24,0,0,0,4.6-3c9.05-8.67,21.28-11.72,31.68-18,3.79-2.29,7.6-1.77,10.69,2,3.79,4.62,3.31,7.16-2.92,10,8.19,4.48,10.06,12.64,13.12,20.09a13.42,13.42,0,0,1,1.38,5.78,69.89,69.89,0,0,0,2.63,21.44c1.57,5.88-3.29,9.44-4.74,14.74,7.84,1.22,11,6.67,12.12,14.13.4,2.7,2.09,5.21,3.17,7.81.88,2.12,1.13,4.24-.56,6.08s-3.66,1.2-5.61.71c-.8-.19-1.55-.6-2.33-.87-5.84-2-6.41-1.7-8.05,4.3a18.32,18.32,0,0,1-.59,1.91c-2.39,6.31-4.24,13.21-13.92,11.28a53.74,53.74,0,0,1,5.52,30c-.81,8-5.36,13.88-11.74,18.32a9.83,9.83,0,0,0-4.32,6.82c-1.56,8-3.42,15.94-5.18,23.9-.79,3.6-.35,6.38,2.9,9.11,7.28,6.11,13.33,13.48,19,21.12a62.39,62.39,0,0,0,8.92,10.08c1.76,1.54,3.4,2.91,6.19,1.85a4.24,4.24,0,0,1,5.45,2.44c3.06,7.72,8.87,14.1,10.68,22.43,1,4.56-.11,7-4.56,8.23-3.28.89-7,1.32-9.83-.12-3.48-1.78-6.31-.93-9.44,0a37.18,37.18,0,0,1-15.29,1.54c-4.29-.52-7.88-2.17-8.71-6.83s2.95-6.26,6.31-7.74c2.73-1.2,5.7-1.88,8.4-3.13,2.06-.94,5.4-1.3,4.34-4.88s-5.49-6.22-8.53-5.06c-5,1.91-9.78,4.19-14.72,6.18-6,2.41-8.16,2-11.11-3.57q-9.16-17.42-17.46-35.28c-3.78-8.15-2.92-16.93-2.15-25.59C224.83,335.26,224.75,334.27,224.75,332.75Z"/><path d="M229.48,288a48.69,48.69,0,0,1,4.83-21.52c.77-1.64,1.09-2.75,3.46-1.66,8.45,3.89,17.39,4.39,26.4,2.62,2.54-.5,3.5.19,4.5,2.35a49.67,49.67,0,0,1,4.13,26.8,20.09,20.09,0,0,1-6.54,12.59A45.15,45.15,0,0,1,253.57,318c-14.12,6.19-27.91,13.5-43.8,14.38a23.32,23.32,0,0,0-2.94.54c-3.73.68-5.62,1.68-4,6.47,3.34,9.77,6.45,19.59,10.83,29,2.05,4.37.72,6.9-3.68,8.27-2.08.65-4.14,1.52-6.33,1.15-6.07-1-12.11-2.22-18.16-3.36a6.09,6.09,0,0,1-5.33-5.77c-1.46-13.4-3.86-26.7-3.37-40.27a17,17,0,0,1,6.92-13.63c8.48-6.61,17.87-11.49,27.72-15.66,6.58-2.79,13-5.88,19.5-8.93a25.28,25.28,0,0,0,4.62-2.91c.83-.64,2.11-1.57.79-2.82-1-1-1.75.23-2.52.74C232.62,285.93,231.39,286.74,229.48,288Z"/><path d="M257,319.34c-1.13,9.31-3.49,17.62-5.39,26-1,4.63-.14,7.93,3.77,11.2,8.85,7.39,15.67,16.71,22.64,25.83,2,2.57,1.64,4.76-1.29,6.05-8,3.57-16.16,7-24.27,10.4-2.21.93-3.9.09-5-1.93-1.5-2.77-3.09-5.5-4.37-8.37-3-6.69-5.88-13.42-9.88-19.55-7.24-11.11-6.82-23.3-5.58-35.7.26-2.55,2.29-2.64,3.84-3.24C239.86,326.85,248.37,324,257,319.34Z"/><path d="M251.09,196.08c1.85,12.52,10.38,19.91,15.7,29.14.4.69,1.07,1.73,1.66,1.75,6.34.29,6.05,5,6.57,9.37.53,4.51,1.24,9,6.3,11a2.51,2.51,0,0,1,1.39,1.24c1.62,4.71-5.71,14.92-10.76,15.3-3.81.3-7.59.91-11.37,1.42a41.51,41.51,0,0,1-26.85-5.45c-3.64-2.08-4.95-4.6-2.63-8.55a21,21,0,0,0,2.08-17.74,16.22,16.22,0,0,1,1.61-13c.42-.75,1-2.46,1.88-1.31,2.94,4,4.74.34,7.32-.38,4-1.12,3.6-3.9,4.51-6.71C250.05,207.31,247.9,202.09,251.09,196.08Z"/><path d="M284,216.83c-6.8-3.77-12.3-2.68-17,3.8-3.89-6.63-9.5-12-12-19.38-1.47-4.38-1.25-8.2,2.7-11.11,3.74-2.76,7.4-4.44,12.27-1.6,5,3,11.09,4,14.36,9.91C287.89,204.83,290.15,210.8,284,216.83Z"/><path class="cls-2" d="M279.37,395.28c3.91-1.61,7.47-3,10.93-4.55,2.05-.93,3.84-.74,4.55,1.33,2.39,6.95,7.8,12.37,9.57,19.65,1.18,4.86.49,6.32-4.53,6.79-1.79.17-4.13.52-5.37-.38-4.25-3.07-8.22-1.06-12.25,0-4.87,1.3-9.74,2.15-14.76,1.12-2.61-.54-4.94-1.75-5.23-4.6-.27-2.68,2.23-3.5,4.17-4.32,3.05-1.29,6.26-2.23,9.33-3.49C282.27,404.18,283.15,401.38,279.37,395.28Z"/><path class="cls-2" d="M196.8,432c-5,0-6.42-2.13-4.22-6.25,2-3.72,5.07-6.5,8.23-9.22,4.41-3.79,8.42-7.67,9.35-14.07.53-3.62,5-2.27,7.47-3.54,1.78-.9,2.56.05,3.45,1.49,2,3.24,4.45,6.21,6.24,9.55,2.3,4.3.38,7.25-4.53,7.28-3.52,0-5.81,2.26-8.13,4.32-4,3.54-7.95,7-12.95,9.08C200,431.27,198.38,432.16,196.8,432Z"/><path class="cls-2" d="M239.67,218c-5.72-8.94-3.18-19.56-5.55-29.31-.52-2.12.13-4.33.9-6.36a56,56,0,0,0,3.25-13c.65-5.35,3.55-9,9-9.95,4.75-.85,8.1-5.41,13.7-4.93-1.34,2.84-3.81,3.74-6.11,4.85-10.44,5-14,13.37-10.22,24.14,1.26,3.57,1,7.64,3.59,10.78a1.46,1.46,0,0,1,.15,1.35c-2.49,3.59-1.56,7.63-1.76,11.57C246.35,212.08,245.45,216.94,239.67,218Z"/><path class="cls-2" d="M251.53,193.28c-8.87-10.22-7.51-25,2.51-30.61,2.59-1.45,4.54-1.34,6.58.79,3.43,3.59,5.9,7.7,6.32,12.69.36,4.26,0,8-5.72,9C256.82,186,253.9,189.51,251.53,193.28Z"/><path class="cls-2" d="M276.76,217.36c.86,0,1.8,0,2.18.84,1.9,4.39,6.08,5.31,10,6.76a7.81,7.81,0,0,1,5.24,6.16,40.3,40.3,0,0,0,4.16,12.21c.64,1.16,1.34,2.51.21,3.66s-2.57.24-3.72-.22a22.25,22.25,0,0,0-8.26-1.61c-6,0-8-1.67-8.6-7.86-.51-5.69-1.45-10.89-7-14-1.77-1-.75-2.28,0-3.33C272.44,218.06,274.63,217.76,276.76,217.36Z"/><path class="cls-2" d="M284.93,193.85c-3.36-3.65-7.62-5.29-12-6.75-3.23-1.09-4.63-2.67-3.64-6.61,1.76-7-1.2-13.21-8.74-21,4.06-4.29,5.12-4.13,9.77-.6,7.93,6,11.5,14.63,14.55,23.54C286.13,186.05,284.17,189.87,284.93,193.85Z"/><path class="cls-3" d="M231.9,194.82a39.59,39.59,0,0,1-5.65-13.31c-1.59-7.11-.79-8.26,9.2-13.68C235.73,177.15,228.47,185.32,231.9,194.82Z"/><path class="cls-4" d="M217.57,383.93c.24,2.74.32,4.91.62,7.05.62,4.29-1.89,6.87-6.37,6.61a1.6,1.6,0,0,1-1.65-1.41c-.83-2.7-2.53-5.51-2.24-8.09.37-3.41,4.58-1.31,6.62-2.92A13.25,13.25,0,0,1,217.57,383.93Z"/><path class="cls-4" d="M262.94,151.56c7-4.15,9.55-4,12.3.47,1.46,2.38.86,3.27-1.85,3.17A17,17,0,0,1,262.94,151.56Z"/><path class="cls-5" d="M209.4,383.76c-2.37.13-4-.18-4.34-1.86-.52-2.61,2-1.4,3-1.94a52.5,52.5,0,0,1,5.46-2.16c.88-.32,1.89-1.91,2.66.13.5,1.36,1.32,2.72-.6,3.78A16.32,16.32,0,0,1,209.4,383.76Z"/><path class="cls-6" d="M285.08,389.85c-2.79,1.31-5.39,2.91-8.81,3.17C281.65,386.59,282,386.44,285.08,389.85Z"/></svg>