<svg id="Layer_1" data-name="Layer 1" xmlns="http://www.w3.org/2000/svg" viewBox="0 0 480 480"><defs><style>.cls-1{fill:#fcfbfb;}.cls-2{fill:#414040;}.cls-3{fill:#010101;}.cls-4{fill:#080808;}.cls-5{fill:#131212;}.cls-6{fill:#2a2a2a;}.cls-7{fill:#868484;}.cls-8{fill:#fff;}</style></defs><path d="M479.91,240q0,117.92.09,235.83c0,3.28-.46,4.17-4,4.16q-235.86-.18-471.71,0C.51,480,0,479,0,475.58Q.15,240,0,4.42C0,1,.48,0,4.27,0Q240.11.2,476,0c3.55,0,4,.86,4,4.16Q479.84,122.09,479.91,240Z"/><path class="cls-1" d="M275.06,183.87c3.58.69,7.36.89,10.22,3.53,1.67,1.54,2.86,3.55,1.7,5.79s-3.15,1.8-5.24,1.17c-6.08-1.82-11.74.32-18.51,2.15C272.8,204,273,215.23,277,224.75a14.57,14.57,0,0,1,1,8.84c-2.5,10.51-4.47,21.72-12,29.67-7.09,7.49-6.2,14.67-2.89,22.56s7,16,8,24.59c1.2,10,5.59,17.89,11.19,26.06,9.92,14.48,15.75,31.16,20.61,47.93,1.91,6.6,5.39,11.92,8.24,17.8,4.15,8.59,11.25,15.25,14.34,24.35,1.43,4.22.24,6.65-3.55,8.42a16,16,0,0,1-20.22-6,4.7,4.7,0,0,1-.51-4.76,7.64,7.64,0,0,0-.34-8.09c-3.69-5.83-2.58-13.24-6.76-18.92-1.55-2.11-2.73-2.79-5.18-2.11-4.64,1.28-9.27,2.75-14.17,2.78-6.2,0-8.66-1.84-10.54-7.74-4.19-13.12-5.8-27.06-12.18-39.5-6-11.68-11.09-23.84-17.94-35.07-8.38-13.72-11.08-13.62-19.07.21q-3.5,6-6.7,12.25a27.15,27.15,0,0,0-2.78,18.39A20.08,20.08,0,0,1,204.12,360a60.7,60.7,0,0,0-6.84,27.33,46.68,46.68,0,0,1-3.53,17.52,26.86,26.86,0,0,0-1.34,15.17c.55,3.25.28,6.64.5,10,.3,4.47-1.14,7.44-6.06,8-7.23.77-11.39-1.39-12.88-6.35a47.18,47.18,0,0,1-1.29-20.25c.5-3.75,1.37-7.28,5-9.23,1.1-.59,1.21-1.24,1.12-2.38-2.34-29.59.11-58.86,6.24-87.85,2.59-12.22,4.55-24.54,6.06-36.94a38.8,38.8,0,0,1,2-8.75c1.67-4.55,2.49-8.77-.47-13.24-1.61-2.44-1.22-5.44.54-8.83a55.77,55.77,0,0,1-15,8c-7.15,2.31-13.33,2.34-18.73-4.53-2.6-3.32-6.14-6.6-11.1-7.6-4.37-.88-6.55-4.44-6.65-8.87-.08-3.35,1.71-5.67,5-6.67a5.71,5.71,0,0,1,7.24,2.83c1.91,3.44,3.61,6.47,8.52,5.86A14.21,14.21,0,0,0,173.16,226c3.56-5.72,5-12.3,7-18.63,2.13-6.71,4.67-13.16,9.74-18.32A27.68,27.68,0,0,1,204.55,181c.93-.19,2.36-.15,2.34-1.34a2.9,2.9,0,0,0-1.75-2.16c-5.45-1.18-8.26-4.55-9-9.95-.9-6.75.42-12.92,4.67-18.33a21.18,21.18,0,0,1,7.15-6.14c12.54-6.23,25.5-9.59,39.52-5.59a68.54,68.54,0,0,0,6.86,1.29c6.58,1.16,8,2.54,8.71,9.23.24,2.25,1.56,3.6,3.05,4.93s2.56,2.71,2.12,4.74c-.52,2.39-2.81,1.43-4.66,2.23,6,2.92,9.64,7.57,12.28,13.32,1.19,2.6,4.33,2.8,6.92,3.44,2.33.57,6,.42,5.84,3.4-.19,3.51-3.85,2.75-6.43,2.81-3.28-1.09-6.69.37-9.77-.42C273.09,182.94,274.29,183,275.06,183.87Z"/><path class="cls-2" d="M275.06,183.87c-2.29-.19-4.4-.76-5.84-3,4.19,1.7,8.76.52,13,2C279.88,183.75,277.25,182.23,275.06,183.87Z"/><path d="M227,302.72c1.1-2.1,5.49-2.16,4.09-4.31-1.51-2.3-4,.86-5.93,1.76a19.62,19.62,0,0,0-7.39,6.57A110.78,110.78,0,0,0,203.82,332a23.59,23.59,0,0,0-1.08,13.25,24.16,24.16,0,0,1-2.51,16.89c-5,9-5.22,19.11-6,29.05a50.38,50.38,0,0,1-1.09,6.89c-.68,3.12-1.29,6.61-5.75,6-4-.58-6.19-3.16-6.32-7.16-.22-6.65-.24-13.3-.32-20-.33-28.32,5.16-55.9,10.57-83.51,1.53-7.82,2.35-15.78,3.61-23.66.23-1.39,0-3.58,2.87-2.64,11.57,3.77,23.58,3.73,35.56,3.91,6.82.1,13.64.52,20.46.57,2.88,0,4.26.91,4.21,4-.09,4.94,1.61,9.44,3.61,13.88A101.07,101.07,0,0,1,270,319.07a24.32,24.32,0,0,0,5.56,12.57c12.61,15.61,18.13,34.58,24.91,52.95,1,2.75.09,4.63-2.66,5.37-7.22,2-14.37,4.22-21.84,5.09-5.06.58-7.89-1.3-9.38-6.53-4.22-14.83-6.74-30.2-14.3-44-4.95-9-9.32-18.37-14.06-27.51A48.71,48.71,0,0,0,227,302.72Z"/><path d="M235.69,268.86c-11.32-.65-22.63-.74-33.77-3.25-3.53-.8-4-2.53-4.88-6.23-1.64-7.06-2.45-13.53.15-20.38.37-1-.56-2.52-1.08-3.72-.43-1-.72-2.53-2.24-2.2s-1,1.89-1,2.93c.1,3.75-1.76,6.29-4.73,8.24A46.77,46.77,0,0,1,176,250c-5.71,1.75-10.82,1.52-14.42-4.28-.82-1.31-2.49-2.14-3.88-3-1.6-1-2.33-2.32-1.72-4.19.56-1.72,1.55-3,3.57-2.81,10.42.94,15.43-5.44,18.65-14,2.76-7.3,4.81-14.88,7.86-22.05,3.48-8.2,9.56-13.9,18.61-15.82.93-.2,2-1.05,2.83-.27,6.88,6.31,16.83,6.43,24,13,6.6,6,16.11,4.4,24.42,2,3.91-1.14,6.42-.42,8.25,2.87,7.64,13.73,15.05,27.32,7.67,43.93-3.24,7.29-5.44,14.93-11.34,20.78a8.37,8.37,0,0,1-6.93,2.88C247.67,268.67,241.68,268.86,235.69,268.86Z"/><path d="M273.87,179.22c-.64-.15-1.3-.26-1.94-.46-2.16-.66-5-2.32-6.17.46-1.33,3.11,1.78,4.53,4.08,5.76,2.53,1.35,5.36,1.68,8.15,2.19s5.64,1.05,6.75,5c-9.08-2.93-17.15.33-25.35,2.75a53.09,53.09,0,0,1-14.2,2.52c-6.26.11-11.86-1.55-16.46-5.91a21.81,21.81,0,0,0-13.24-6.31c-3.21-.31-5.27-1.53-5.55-5.12-.25-3.2-2.4-5.16-5.39-5.79-3.8-.8-5.06-3.43-5.57-6.74-1.41-9.13,1.43-16.84,9.43-21.4,12-6.83,24.88-10.14,38.74-5.82a28.26,28.26,0,0,0,5.36.86c4.7.52,8.47,1.71,8,7.77-.23,3,2.43,4.85,5,7.17-2.35.33-4.86-.77-5.39,1.86-.46,2.28,1.05,4,2.78,4.89a22.12,22.12,0,0,1,10.38,11.63,6.86,6.86,0,0,0,4.6,3.57C277.22,180.74,275.34,179.23,273.87,179.22Z"/><path class="cls-3" d="M190.27,406.94c-2.89,7.17.65,14-.15,20.88-.32,2.74,1.67,6.69-3.45,7.38-6.33.85-8.83-.64-10.45-6-1.88-6.21-1.52-12.45-.66-18.71.35-2.5,1.08-4.9,3.81-6.06.9.63.29,1.31.08,2-.37,1.22-1.48,2.87,0,3.56,1.68.79,2-1.19,2.43-2.34.52-1.46,1.1-2.44,2.82-1.46S188.22,406.71,190.27,406.94Z"/><path class="cls-3" d="M315.2,434.12c-4.42.52-5.08-3.65-8-4.5-3.64-1.06-3.71-3.42-2.54-7,1.34-4.09-1.08-8.1-2.95-11.74-1.37-2.65-1.85-4.28,1.71-5.08a14.23,14.23,0,0,0,3.57-1.7c1.62-.88,2.88-.79,3.37,1.22,1.46,6,5.39,10.53,9.17,15.15a14.83,14.83,0,0,1,1.71,3C324.79,430.86,322.83,433.92,315.2,434.12Z"/><path class="cls-4" d="M154.78,234.54c-.92,1.18-.58,3.5-3.07,3.68-3.33.23-7.4-3.31-7.42-6.67,0-2.69,1.34-4.39,4.09-4.63C150.16,226.76,154.65,232.1,154.78,234.54Z"/><path class="cls-5" d="M303.67,396.14c.05,2.24,5,3.85.6,6.37-2,1.13-3.57,1.95-5-1.07C296.71,396,303.12,398.75,303.67,396.14Z"/><path class="cls-6" d="M302.09,393.1c-.71,1.81-2.27,2.54-4.13,2.82-1.33.21-2.74-.55-2.4-1.64.68-2.15,3.33-1.5,4.94-2.5C301.33,391.27,302,392,302.09,393.1Z"/><path class="cls-7" d="M273.87,179.22c1.23-.84,3.17.88,4.06-1.14l6.59,1.23-.17,1.64C280.92,179.26,277.3,181.07,273.87,179.22Z"/><path class="cls-8" d="M168.73,202.06a129.5,129.5,0,0,0-19.78-6c-1.88-.41-2.68,2.48-.79,2.89a131.33,131.33,0,0,1,19.78,6,1.5,1.5,0,0,0,1.84-1,1.54,1.54,0,0,0-1.05-1.85Z"/><path class="cls-8" d="M126.61,195a1.5,1.5,0,0,0,0-3,1.5,1.5,0,0,0,0,3Z"/><path class="cls-8" d="M179.55,187.12a1.5,1.5,0,0,0,0-3,1.5,1.5,0,0,0,0,3Z"/></svg>