<svg id="Layer_1" data-name="Layer 1" xmlns="http://www.w3.org/2000/svg" viewBox="0 0 480 480"><defs><style>.cls-1{fill:#fbfafa;}.cls-2{fill:#010101;}.cls-3{fill:#020202;}.cls-4{fill:#040404;}.cls-5{fill:#0b0b0b;}.cls-6{fill:#060606;}.cls-7{fill:#111;}.cls-8{fill:#1c1c1c;}.cls-9{fill:#4e4d4d;}.cls-10{fill:#fff;}</style></defs><path d="M479.91,240.54q0,117.66.09,235.33c0,3.38-.62,4.11-4.07,4.11q-235.86-.17-471.7,0C.33,480,0,478.83,0,475.53Q.14,240,0,4.37C0,.82.67,0,4.32,0q235.61.18,471.2,0c4,0,4.47,1.17,4.47,4.71Q479.83,122.62,479.91,240.54Z"/><path class="cls-1" d="M252,389.19c.27,6.63,4.89,9.23,8.32,12.64,5.73,5.68,5.78,9.7-.11,14.89-3.52,3.09-4.63,7.15-5.19,11.54-.65,5.14-2.43,9.68-7.08,12.6-3,1.9-6.23,2.55-9.42.62-3.34-2-3.71-5.3-3.16-8.79a35.18,35.18,0,0,1,5-13c3.35-5.45,3.67-10.61.06-16.23-2-3.17-3.08-7-4.38-10.58s-3.36-5.35-7.44-3.61a73.28,73.28,0,0,1-9.94,3.3c-6.6,1.75-10.83-.33-13.82-6.55a30.22,30.22,0,0,1-2.59-8.57c-1.54-9.91-4.62-19.39-8.06-28.77a19.7,19.7,0,0,1,1-16.34c7.3-15,20.84-23.53,33.73-32.55,4.34-3,6.28-6,6.24-11.13a59.74,59.74,0,0,1,3.36-19.61c.86-2.53.93-4.37-2.3-5.31-3.05-.88-4.21-3.47-4.46-6.56a21.84,21.84,0,0,1,1.09-9.36c3.32-9.1,4.52-18.67,6.7-28,.43-1.86,1.4-3.62-1.78-3.68a1.81,1.81,0,0,1-1.78-2c.81-4.45-2.42-7-4.57-10-5.65-7.87-7.12-17.1-8.8-26.26-.58-3.18,1-5.74,3.22-8,3.89-4.07,8.39-7.63,10.9-12.91a3.49,3.49,0,0,1,2.2-1.86c9.78-.92,13.24-9.07,18-15.65,3.15-4.35,6.63-5.6,11.13-3.55,3.63,1.66,5,4.26,3.21,8.08a15.79,15.79,0,0,1-8.88,8.31,19.06,19.06,0,0,0-6.11,3.36c1.57.92,2.88.28,4.24,0a19.15,19.15,0,0,1,21.65,10.31c1.59,3.33,4.77,6.16,5.58,9.27,2.5,9.58,9.23,18.07,7.54,28.82-.45,2.84.68,5.89.68,8.84,0,6.87-2,13.49-2.87,20.25-1,8.25-1.48,16.57-2.17,24.86-.71,8.63-2.36,10.36-11,11.2,1.84,4.08,4,8,5.37,12.12,4.58,14.28.87,27.14-9.57,37.06-6.48,6.16-8.65,13.39-10.37,21.22-1.29,5.83-1.69,11.87-4.17,17.42-1,2.33.07,3.88,1.83,5.09,8.39,5.78,15.58,13,23.34,19.54,1.77,1.49,3.63,2.69,4,5.42.39,3.11,2.13,3.59,4.25,1.14,2.89-3.36,4.55-2.34,6.64,1.11,3.87,6.41,8.3,12.46,9.95,20,2.1,9.59-2.94,14.48-12.23,11.23a15.6,15.6,0,0,0-9.05-.51,18.13,18.13,0,0,1-13-2c-2.29-1.29-4.06-3.05-3.66-6s2.16-4.4,4.88-5c3.12-.66,7.52-1.44,7.39-4.59-.12-2.77-4.64-3.71-7.7-4.52-1.4-.37-2.81-1.3-4.33-.42-7.19,4.12-12.31.2-17.26-4.41Z"/><path d="M237.42,294.15a90.32,90.32,0,0,1,4.16-26.54c.32-1-.1-2.51,1.76-2.36,9.72.78,19.62-1.92,29.23,1.6a7.76,7.76,0,0,1,4.4,3.51c12.64,20.77,8.73,39.35-11.57,53-9.51,6.39-19.31,12.36-28.95,18.57-3.81,2.46-8,3.09-12.4,2.93-1.23-.05-2.91-.63-3.49,1-.51,1.47.74,2.44,1.67,3.36,8.13,8,14.4,17.41,20.39,27,3.1,5,2.72,6-2.93,7.51-7.06,1.88-14.15,3.61-21.11,5.92-6.1,2-9.2.23-11.79-5.79-1.73-4-2-8.38-3-12.59A194.08,194.08,0,0,0,196.5,347a14.92,14.92,0,0,1,.8-12.94,65.56,65.56,0,0,1,17.15-20.47c10.79-8.7,22.66-15.69,34.3-23.07,1.18-.75,3.52-1.62,2.59-3.07-1.27-2-2.91.12-4.2.92C244.07,290.27,241.31,292.68,237.42,294.15Z"/><path d="M289.09,240.29c.67,6.85-.76,13.57-1.29,20.34-.3,3.77-2.51,5.64-6.37,5.38a8,8,0,0,1-2.47-.23c-10.84-4.39-22.17-3.19-33.45-3.21-10.92,0-13.28-2.59-10.28-12.92s4.78-21.17,7.5-31.89c1.72,1.05,1.68,2.33,2.13,3.35,1.47,3.29,3.77,3.67,6.27,1.39a23.73,23.73,0,0,0,4.72-5.76c2.26-4,3.7-2.52,6,.1,3.57,4.18,4.17,9.34,4.85,14.25.72,5.19.18,10.66,6.5,12.61s10.65-2.11,15-5.66C290.05,238.17,289.34,239.32,289.09,240.29Z"/><path d="M266.3,326.38c-4.6,10.46-3.88,21-8,30.37-1.41,3.18.4,5.55,2.84,7.25,8.48,5.93,15.76,13.27,23.7,19.84,3.64,3,3.56,4.26-.78,6.19-4.71,2.09-9.56,3.85-14.27,5.92-3.56,1.57-6.23-.31-8.63-2.26-4.39-3.55-8.58-7.37-12.69-11.24-2.09-2-1.67-5.22-3.38-7.57-4.59-6.32-8.9-12.84-13.35-19.25-1.63-2.34-.85-7.65,1.47-9.07C243.78,340.08,254.41,333.62,266.3,326.38Z"/><path class="cls-2" d="M266.43,157.79c-2.32,3.54-5.43,5.22-8,7.46-5.68,4.95-9.39,10.86-8.78,18.67.51,6.5,4.92,11.41,8.63,16,3.38,4.18,1.64,8.16-.13,9.9-3,2.95-4.85,6.59-7.65,9.55-1.57,1.65-2.79,2.58-3.55-.6-.54-2.27-2.11-4.29-4.24-4.47-3.95-.34-4.33-2.28-4-5.57a32.31,32.31,0,0,0-.42-8c-1-6.95.35-13.21,4.72-18.79,2.08-2.67,3-5.84,3.94-9.08C249.56,163.58,256.58,158,266.43,157.79Z"/><path class="cls-2" d="M264,164.18c2.87-1.63,3.59-5.58,6.18-5.22a11.87,11.87,0,0,1,8.77,6.81c2.06,4.19,4.16,8.29,7.38,11.76a5.23,5.23,0,0,1,1.36,3.13c.14,5.64,1.42,10.81,5,15.37,1,1.23,1.25,3.07.13,5.26-3.36-5.69-8.15-6.73-13.88-4.62-5.18,1.91-10.2,4.1-13.95,8.38a25.52,25.52,0,0,1-3,3.37c2.15-5.43,3.23-11.34,7.92-15.56,8.07-7.24,6.77-21-2.49-27C266.6,165.36,265.67,165,264,164.18Z"/><path class="cls-2" d="M285.71,397.94c5.41-1.6,8.63-5.17,11.73-9,4.35,6.55,9.11,12.59,10.78,20.28.6,2.72,2,5.83-.61,7.93a7.86,7.86,0,0,1-8.55.48c-3.15-1.71-5.9-1.46-9-.51-4.2,1.28-8.23.38-12-1.61-1.18-.62-2.33-1.55-2.22-3.06.13-1.72,1.36-2.5,3-2.85a17.12,17.12,0,0,0,6-2.21C289.18,404.4,289.47,402.3,285.71,397.94Z"/><path class="cls-2" d="M244.65,406.12c4.79.23,7.66-2.25,9.65-6.22,1.89,1.81,3.62,3.35,5.23,5,3.27,3.36,3.2,6.16-.46,9.12-4.31,3.48-6.06,8.12-6.73,13.38-.51,4-1.48,7.86-5,10.46-2.21,1.65-4.59,2.88-7.33,1.31s-2.3-4.16-1.92-6.64c.71-4.5,2.84-8.44,5-12.39C245.41,415.84,247.19,411.42,244.65,406.12Z"/><path class="cls-2" d="M261.14,200.76c-2.64-7.91-10.81-12.46-8.48-21.66a20.53,20.53,0,0,1,3.86-8c4.24-5.31,8.17-5.37,12.53-.2,5.13,6.07,4.74,14.88-1.09,20C265.15,193.38,263.73,196.75,261.14,200.76Z"/><path class="cls-2" d="M236.35,205.68c-8-9-9.33-18.75-11.18-28.31a5.61,5.61,0,0,1,1.88-5c.81-.84,1.64-1.65,2.43-2.51,2.58-2.81,4.66-6.72,7.86-8.14,2.91-1.3,6.42,2.51,10.79,1.85-4.13,7-5.15,14.62-9.78,20.89C234.05,190.35,235,197.48,236.35,205.68Z"/><path class="cls-2" d="M280.69,219.76c-2.4,4.12,1.28,6.7,3,10,1.24,2.37,3.94,5.3,1.23,7.59-2.87,2.42-6.23,5.22-10.74,3.84-3.69-1.13-4.57-3.89-4.54-7.36a13.41,13.41,0,0,0-.66-5.39c-2.48-5.56-.78-9.59,4.1-12.6,1.32-.81,1.6-3.75,4.22-2.1A7.29,7.29,0,0,1,280.69,219.76Z"/><path class="cls-3" d="M284,220.22c-.74-3-1.51-5.67-3.69-7.68-4-3.69-9.34-2.75-12.72,2.22-.61.9-.79,2.72-2.2,2.25s-1.93-2.26-1.57-3.8a12.71,12.71,0,0,1,1.61-4.14c4.41-6.5,11-9.42,18.45-10.63,3.3-.54,8.1,3.77,7,6.74C289.09,210.27,288.29,216,284,220.22Z"/><path class="cls-4" d="M241.06,159.5c8.55-4.92,13.88-12,18.78-19.54,2-3.14,5.19-3,7.86-1.08,3.34,2.38.59,4.68-.82,6.71a7.93,7.93,0,0,1-3.33,2.93,28.13,28.13,0,0,0-14.05,11.26C247.71,162.44,244.49,160.85,241.06,159.5Z"/><path class="cls-5" d="M289.09,240.29l-.9-2.25c1-4.26-.76-7.78-3.1-11.1-1.22-1.74-2.29-3.12.64-4.44,2.76-1.25,3.9-3.88,4.42-6.8a9.19,9.19,0,0,1,2.9-5.95C293.49,220.63,290.32,230.35,289.09,240.29Z"/><path class="cls-6" d="M248.77,390.66c.77,1.83,1.58,3.62,2.29,5.44,1.27,3.27-.26,5.58-3.08,6.73s-5.26.56-6.5-3c-1.08-3.12-2.79-5.69,2.5-6.24C245.58,393.39,247,391.76,248.77,390.66Z"/><path class="cls-7" d="M248,386.11a9.3,9.3,0,0,1-4.65,4.87c-1.68.78-3.46,1.41-5-.35s-2.65-3.25.93-3.93a24.76,24.76,0,0,0,5.59-2C246.55,383.91,247.25,384.8,248,386.11Z"/><path class="cls-8" d="M278.94,395.35c3.51-1.69,6.25-3,9-4.34a1.77,1.77,0,0,1,2.19.61c.57.68.13,1.16-.51,1.5C286.59,394.79,283.66,397,278.94,395.35Z"/><path class="cls-9" d="M223.58,348.16c2.89-1,4.36-1.56,5.26,0,.44.78.16,2.27-.77,2.51C226.25,351.18,226.19,348.89,223.58,348.16Z"/><path class="cls-10" d="M289,140a41.81,41.81,0,0,1,19.54,18.89c.88,1.72,3.47.21,2.59-1.51a44.44,44.44,0,0,0-20.62-20c-1.73-.81-3.26,1.77-1.51,2.59Z"/><path class="cls-10" d="M320.75,202a1.5,1.5,0,0,0,0-3,1.5,1.5,0,0,0,0,3Z"/></svg>