<svg id="Layer_1" data-name="Layer 1" xmlns="http://www.w3.org/2000/svg" viewBox="0 0 480 480"><defs><style>.cls-1{fill:#fbfafa;}.cls-2{fill:#010101;}.cls-3{fill:#040404;}.cls-4{fill:#070606;}.cls-5{fill:#060606;}.cls-6{fill:#191818;}.cls-7{fill:#0d0d0d;}.cls-8{fill:#181717;}.cls-9{fill:#3b3a3a;}.cls-10{fill:#fff;}</style></defs><path d="M479.91,240q0,117.92.09,235.83c0,3.27-.45,4.18-4,4.17q-235.85-.17-471.7,0C.52,480,0,479,0,475.59Q.15,240,0,4.43C0,1,.47,0,4.26,0Q240.12.2,476,0c3.53,0,4,.85,4,4.15Q479.84,122.07,479.91,240Z"/><path class="cls-1" d="M217.86,185.68c-5.14,1.1-10.28-.3-15.15,2-2.13,1-4,0-3.33-3.47a17.26,17.26,0,0,1,5.37-9.59c3.82-3.69,4-9.35,5.17-14.28,2.84-12.25,16.12-26,32.69-20.36,11.62,3.95,17.88,10.4,21.58,21a64.63,64.63,0,0,0,7,13.78c3.22,5,3.95,10.5,3.84,16.25,0,1.18-.13,3.08-1.27,2.87-6.41-1.19-2.33,3.36-2.48,4.91-.29,2.87.23,5.13-4,3.4-3.52-1.44-4.12,2.1-3.9,3.95.74,6.33-2,10.93-6.21,15a9.5,9.5,0,0,0-2.18,4.38c-2.59,8.6-5.22,17.19-7.95,25.74-.71,2.2-1.33,4.82-2.89,6.28-5.34,5-3.59,10-1.63,15.84,3.05,9,4.71,18.62,3.73,28.07-1.66,16,4.78,28.31,14.76,39.83,7,8,13.3,16.63,19.68,25.16,3.05,4.07,6.33,8.2,3.43,14.07-1.13,2.28,4.1,8.68,6.84,8.82,3.25.16,4.83,1.84,5.27,4.87a18.43,18.43,0,0,0,5.69,10.84c3,2.86,4.27,6.69,5.73,10.41.91,2.32,0,4.17-1.61,5.85-4.15,4.26-9.14,4.66-14.24,1.15-2.37-1.64-4.85-.48-7.2.07-4.87,1.14-9.25.7-12.92-3-3.25-3.31-5.22-7.19-3.54-11.72s5.89-3.27,9.91-2.7a22.79,22.79,0,0,0-6.27-15.23c-1.28-1.37-2.4-1.21-4-.78-7.1,1.9-8.13,1.32-10.76-5.53a51.9,51.9,0,0,0-9.29-15.87,134.27,134.27,0,0,1-18.21-27.35,72.13,72.13,0,0,0-12.15-17c-2.19-2.28-4.41-4.75-5.32-7.78-1.59-5.3-4-3.69-6.83-1.26-8.13,7.11-12.22,16.88-17.12,26.12-6.8,12.8-13,25.82-16.57,40-1.7,6.81-6.22,12.51-8.19,19.15-3,10.14-1,20.57-.31,30.86.31,4.78.15,8.69-5.37,10.14-6.26,1.65-10.6-.81-13.71-5.64-4.41-6.84-6.72-13.82-4.27-21.67,1.3-4.13.94-10.37,8.53-9.18,1.56.25,2.5-8.14.77-9.63-3.05-2.65-3.48-5.95-3-9.54,1.81-13.37,3.62-26.73,5.55-40.07.87-6,3.38-11.42,5.62-17,7.34-18.31,16.94-35.81,20.46-55.53,1-5.73,4.34-10.41,7.1-15.31,1.18-2.08,1.67-3.52-.2-5.6-3.38-3.76-2.83-8.19-.33-12.06,4.61-7.12,7.05-15,9-23.1a25.06,25.06,0,0,1,11.34-15.8A38.23,38.23,0,0,0,217.86,185.68Z"/><path d="M243.76,305.12c-3.16,14.56,5.8,26.54,15.49,38.38q10.44,12.74,20.18,26c5,6.82,4,9.81-3.49,13.54a4.69,4.69,0,0,1-.45.21c-3.87,1.5-7.69,4.14-11.75,3.85-5.32-.37-4.12-6.42-6.38-9.63-11.59-16.41-22.84-33-33.16-50.31-2.78-4.65-7.41-8.05-10-13-1.64-3.14-1.78-5,2-6.75,6.49-3.07,12.52-7,16.66-13.15.59-.89,2-1.85.76-3s-2.14.26-2.74,1.14c-4.31,6.29-10.58,10.13-17.21,13.28-10.94,5.21-18,13.89-23.35,24.39-8.32,16.46-17.41,32.57-21.87,50.71a49.5,49.5,0,0,1-3.29,8.34c-2.7,6-4.32,6.77-9.94,5.17s-7.18-3.8-6.38-9.91c1.69-12.88,3.4-25.75,5.32-38.6a36,36,0,0,1,2.9-10.54c5.2-10.45,8.57-21.63,13.35-32.22,4.32-9.61,8.11-19.31,9.76-29.77.94-5.9,4.63-10.62,7.31-15.76,1-1.86,1.84-1,3.08-.3A72.77,72.77,0,0,0,234.29,266c3-.33,3.32,1.28,4,3.11C242.36,280.06,243.62,291.43,243.76,305.12Z"/><path d="M246.32,218.36c6.85,3.63,6.93,3.65,4.69,11-2.37,7.8-4.6,15.65-7.45,23.27-3.5,9.39-7.05,11.68-17,11.33A86.59,86.59,0,0,1,197,257.69a25.62,25.62,0,0,1-6-3.54c-7-5.42-7.65-8.46-3-16.07A57.06,57.06,0,0,0,195,220c1.64-7.63,5.15-13.86,12.11-18.07,5.5-3.33,9.37-8.42,12.7-13.88,1.17-1.9,1.86-4.28,5.15-3.39,1.6.44,2.24.82,2.15,2.49-.14,2.88,1,6.21-2.68,7.76a24.94,24.94,0,0,0-8.29,5.43c-4.29,4.38-6.13,9.32-4.14,15.45,1.12,3.44,1.41,6.61-.57,10.36-3,5.66,2.54,22.27,7.76,26.11,4.67,3.42,8.11,3.44,12.68-.13a28.67,28.67,0,0,0,11.32-19.28C243.83,228,243.78,222.88,246.32,218.36Z"/><path d="M241.78,209.72c3.44-4.32,8.54-8,5.26-13.75-4.08-7.08-11-4.14-17-3.15-1.25-6.31.95-10.83,5.95-14.65,4.47-3.41,4.32-5.74.55-9.82-.79-.87-2.06-1.82-1.66-2.9,1.82-4.92-.42-9.88.28-14.71,1-6.56,10.56-8.9,16.77-4.22a23,23,0,0,1,7.4,9.87,183.83,183.83,0,0,0,10.55,22c2.2,3.86,3.4,7.52-.39,12.41-2.58,3.35-2.52,8.65-7.5,11.12-1.86.91-1.74,4.16-1.42,6.52.55,4.14-1.48,7.24-4.46,9.45s-5.6,0-7.52-2.1A32.91,32.91,0,0,0,241.78,209.72Z"/><path class="cls-2" d="M281.09,405.49c-3.62-5.62,1.05-7.7,5.62-9.89a6.85,6.85,0,0,0,2-1.53c2.82-3,4.53-2.27,5.09,1.59a19.07,19.07,0,0,0,5.7,10.82,19.5,19.5,0,0,1,3.86,5.75c2.78,6.06,1.12,9.22-5.46,10.35-1,.18-2.11.5-2.75-.47-3.19-4.85-7.59-2.81-11.73-2.1-5.83,1-10.27-1-12.27-5.86-.82-2-1.8-4.18.06-6.07,2.06-2.1,4.54-.75,6.51.06C281.3,409.62,281.2,409.87,281.09,405.49Z"/><path class="cls-2" d="M237.25,194.18c3.59-.11,6,.6,7.42,2.95s0,4.44-1.29,6.43c-2.83,4.26-7,6.63-11.73,8-4.08,1.15-5.9,3.21-3.68,7.2,1.36,2.43,0,3.74-1.48,5-2.54,2.26-5.29,4.24-9,3-2.67-.87-1.56-3.32-1.86-5.15s-.35-4-.84-5.89c-1.74-6.7-.4-11.06,5.21-15.24C225.38,196.51,231.74,195.16,237.25,194.18Z"/><path class="cls-2" d="M213.86,228.33c7.89,3,10.92,1.76,18.56-7.41,4.46,3.5,4.21,9.52,7.31,13.82.39.53-.22,1.87-.5,2.79a23.82,23.82,0,0,1-6.29,10c-6.67,6.69-13.83,5-16.9-4.07C214.43,238.72,214.21,233.73,213.86,228.33Z"/><path class="cls-2" d="M160.16,411.56c-2.2,7.25.2,13.58.18,20,0,2.61.51,5.27-2.68,6.08-3.4.87-7.62,1.73-9.81-1.4-5.33-7.64-8.93-16-4.73-25.55a26.41,26.41,0,0,1,1.58-3.09,1.5,1.5,0,0,1,2.48-.46c1,.8,1,1.58,0,2.43-2.43,2.22-1.34,5.31-1.93,8-.22,1,0,2.22,1.26,2.21s1.39-1.22,1.48-2.22a29.7,29.7,0,0,0,.13-3c0-2.32.86-3.56,3.35-2.55S156.7,412.7,160.16,411.56Z"/><path class="cls-2" d="M234.71,144.92a14.42,14.42,0,0,0-1.77,12.66A4,4,0,0,1,233,160c-2,4.7-1,8.68,3.66,12.36-5.44,1.15-9.75,3.31-14.56,3.42-5.36.12-6.49-1.83-5.1-6.81.81-2.9,3.76-5.92.63-9.22a1.38,1.38,0,0,1,.22-1.3C224,155.07,225.91,146.78,234.71,144.92Z"/><path class="cls-3" d="M214.86,161c2.79,2.79.15,5.3-.66,7.68-1.71,5-1.27,6.84,3.38,9.1,1,.47,2.45.24,2.6,1.83.19,1.92-1.57,1.83-2.62,2.45-2,1.19-4,2.26-6.5,1.06-1.38-.65-2.93,0-4.35.51-1.23.43-2.47.82-3.76,1.25a6.89,6.89,0,0,1,3.12-7.62c4.65-3.34,4-9.23,6-13.87a29,29,0,0,0,1.2-5.32C215.46,158.13,213.89,160.29,214.86,161Z"/><path class="cls-4" d="M240.44,229.55a39.12,39.12,0,0,0-4.72-9.2c-.7-.92-1.61-1.68-2.25-2.63-.88-1.32-3.59.73-3.44-1.63s2.78-2,4.33-2.5c1.88-.63,3.44-3,5.81-1.57,2.74,1.6,5.36,2.91,2.93,7.15C241.52,221.92,241.41,225.51,240.44,229.55Z"/><path class="cls-5" d="M160.7,398c-.64,3-1.4,5.7-1.75,8.46-.44,3.49-2.62,3.75-5.36,3.38-3.37-.46-2.59-2.68-2.06-4.81.08-.32.17-.64.23-1C153.08,397,153.08,397,160.7,398Z"/><path class="cls-6" d="M214.86,161c-.55-1-1.09-1.95-1.63-2.93,6.06-11.67,15.22-21,25-15.35-8.09-1.67-12.62,3-16.76,8.69a23.73,23.73,0,0,1-4.75,4.34A4.9,4.9,0,0,0,214.86,161Z"/><path class="cls-7" d="M287.19,391.25a9.78,9.78,0,0,1-6.42,4.36c-2.58.43-4.29-3.07-4.06-4.07.61-2.66,3.93-3.14,6.2-3.93S285.36,390.09,287.19,391.25Z"/><path class="cls-8" d="M233.45,176.06c-2.53,2.35-3.6,6.57-8.08,6.06-1.16-.13-2.36-.1-2.44-1.75-.08-1.46.69-1.94,2-2.22C227.8,177.55,230.62,176.77,233.45,176.06Z"/><path class="cls-9" d="M272.52,387.78l7.83-4.27c.63-.35,1.27-.47,1.56.31.12.33-.06,1.09-.32,1.21C279,386.29,276.82,388.73,272.52,387.78Z"/><path class="cls-10" d="M107.08,286.2a4.5,4.5,0,1,0-4.5-4.5,4.55,4.55,0,0,0,4.5,4.5Z"/></svg>