<svg id="Layer_1" data-name="Layer 1" xmlns="http://www.w3.org/2000/svg" viewBox="0 0 480 480"><defs><style>.cls-1{fill:#fbfafa;}.cls-2{fill:#010101;}.cls-3{fill:#050505;}.cls-4{fill:#020202;}.cls-5{fill:#0c0c0c;}.cls-6{fill:#0a0a0a;}.cls-7{fill:#181818;}.cls-8{fill:#161616;}.cls-9{fill:#757474;}.cls-10{fill:#fff;}</style></defs><path d="M479.91,240q0,117.92.09,235.83c0,3.26-.44,4.18-4,4.18q-235.86-.18-471.71,0C.54,480,0,479.06,0,475.6Q.15,240,0,4.43C0,1,.45,0,4.26,0Q240.11.2,476,0c3.53,0,4,.84,4,4.15Q479.84,122.07,479.91,240Z"/><path class="cls-1" d="M276.11,411.15c-7.27,2.92-7.26,2.92-12.39-3.47-.87-1.09-2.17-.51-3.27-.62-4.33-.4-7.61-2.72-8.18-6.84-1.17-8.58-5.77-15.5-9.73-22.77-6.81-12.5-10.69-25.7-10.52-40.08.06-5.29-.91-10.6-1.43-15.9A46,46,0,0,1,230,316c.51-17,3.22-33.71,5-50.54.54-5,4.68-8.68,5.61-13.74.62-3.36-.07-5.62-3-6.91-11.67-5.08-12.1-14.64-10.24-25.18a6.53,6.53,0,0,1,.35-1.45c5.66-13.58,3.11-26.44-2.65-39.41-6-13.49-6.39-27.39-.52-41.24a23.18,23.18,0,0,0,1.5-6.77c.2-2.14.76-4.18,2.5-5.2,5.09-3,4.95-7.74,3.72-12.17-2.34-8.4,1.09-14.15,7.26-19.08,3.7-3,6.74-2,7.44,2.74a29.74,29.74,0,0,1-1.9,15.64c-5.47,13.92-4.31,28.5-4,43.17,6.67-12.33,17.53-15.28,30.09-14.86a15.37,15.37,0,0,1,10,4c2.12,1.86,4.27,3.7,6.5,5.42,3.16,2.44,4.77,5.4,4,9.52-.93,5.12,3,9.84,1.32,15.15-.34,1.08,1.55,1.49,2.45,2.16,10,7.58,12,18.86,13.14,30.13.59,5.73-4.71,8-9.37,8.54-5.6.67-7.32,4-8.59,8.59a24.1,24.1,0,0,0-.57,9.88c1.25,9.64,1.26,9.64-8.14,14.5,2.09,1.66,4.1,2.83,5.58,4.48,12.05,13.38,17.1,28.16,9.74,45.83-4.73,11.36-8.77,22.94-8.71,35.61,0,6.48-2.05,12.8-3.88,19a22,22,0,0,0,.62,14.67c.9,2.32,1.22,4.64,5.11,4.65s13.07,14.15,12.61,18.12c-.39,3.44-2.79,5.16-5.95,5.73-3.39.6-4.3,2.09-3.06,5.43a91.55,91.55,0,0,0,7.3,14.71c2.8,4.73,1.93,9.37-2.81,11.39s-7.15,5.73-9.74,9.55c-3.79,5.56-8.54,9.77-15.36,11.06-4.17.78-8.59,1.37-11.44-2.63-3.08-4.32-1.25-8.64,1.3-12.54,2.81-4.31,6-8.4,8.81-12.7A23.78,23.78,0,0,0,276.11,411.15Z"/><path d="M244,374.21c-5.36-10.39-8.89-20.63-9-31.78a161,161,0,0,0-1.73-21.38,59.41,59.41,0,0,1,.57-21.35,115.56,115.56,0,0,0,2.27-22.81,35.52,35.52,0,0,1,5-18.57c.87-1.41,1.42-2.59,3.76-2.12,11.46,2.29,22.53.32,33.15-4.14,2.42-1,3.74-.78,5.52,1,13,13.24,18.7,28,10.79,46.17-5,11.49-8.5,23.39-8.57,36.16,0,5.63-1.71,11.17-3.47,16.56-2.66,8.17-1.11,15.75,3,23,2.77,4.92,6.52,9.26,8.71,14.52,1.74,4.19.67,6.85-3.67,7.18-8.64.66-16.4,4-24.4,6.77-6.95,2.36-10.48.34-11.8-6.86a44.88,44.88,0,0,0-4.87-13,22.44,22.44,0,0,1-1.76-15c4.19-20.42,3.78-41.41,7.94-61.81.21-1,.49-2.2-.67-2.52-1.63-.45-1.71,1.13-2,2.16a53.64,53.64,0,0,0-2.5,14.73C249.79,338.83,246.14,356.07,244,374.21Z"/><path d="M238.46,131.88c-.26,5-.43,9.41-.74,13.85a41.19,41.19,0,0,0,2.11,15.71c1.58,4.93,2.13,10.06.11,15.12a17.62,17.62,0,0,0,.54,15,31,31,0,0,1,2.14,7.64c.59,2.8,2.18,4.09,5,3,2.46-1,5.11-1.72,7.22-3.22,8.43-6,22.16-1.75,26.49,6,2.17,3.9,4.59,7.79,8.7,10.09,1.49.83,1,1.71.37,2.85a26.2,26.2,0,0,0-2.31,20.76c.86,3.07-.23,4.19-2.9,5.62-11,5.89-22.41,6.59-34.4,4-7.17-1.55-12.51-6.09-18.08-10.15-3.63-2.65-3.62-7.23-3.44-11.49.3-6.89,2.41-13.42,4-20a25,25,0,0,0-.87-15.13c-3.28-9-7-17.93-8.81-27.5-2-10.43,1.69-19.7,4.57-29.21a1.81,1.81,0,0,1,2.19-1.47A16.9,16.9,0,0,0,238.46,131.88Z"/><path d="M271.18,446.83c-7.32.09-9.69-3.22-7.06-8.66a55.28,55.28,0,0,1,6.32-9.53,46.78,46.78,0,0,0,9.19-19.18c.42-2,.69-3.32,3.31-2.78a5.79,5.79,0,0,0,4.31-.81c4.27-3.43,5-.32,6.41,2.85a92.38,92.38,0,0,0,5.48,10c2,3.37.87,6.36-2.17,7.48-5,1.85-7.5,5.87-10.15,9.84C282.72,442.21,277.53,446.46,271.18,446.83Z"/><path d="M306.05,205.82c-.13,6.26-8.6,10.12-14.31,7s-7.45-9.64-11.77-14c-.76-.76.35-1.42.68-2.12,2.67-5.74,1.79-10.75-3-15.25-1.32-1.22-1.74-1.94-1-3.68s1.61-2.07,3.37-2c12.18.29,19.47,5.78,22.93,17.61C304.2,197.63,305.77,201.86,306.05,205.82Z"/><path class="cls-2" d="M265.39,144.26c-.6,2.81-2.9,4.38-4.59,6.34-7.25,8.42-8.17,16.57-3.11,26.46,2.09,4.08,2,7.74,0,12.5a15.66,15.66,0,0,1-9.47,9.32c-2.43,1-2.86.52-3-1.65-.22-2.71-1.42-5.11-2.52-7.52a13.86,13.86,0,0,1-.38-11.59,22.1,22.1,0,0,0,1.3-11.69C242,153.81,252.14,143.5,265.39,144.26Z"/><path class="cls-2" d="M262.41,182.89c-.53-2.91-.94-5.62-2.64-7.65-5.69-6.78-2.36-18.08,5.42-25.45,1.6-1.52,2.65-.56,3.88.26,7.26,4.84,9.92,21.21,4.58,27.92a2.4,2.4,0,0,1-2.07,1.1C268.06,178.94,265.22,180.6,262.41,182.89Z"/><path class="cls-2" d="M279.69,172.79c.21-10-1.63-18.88-9.7-25.42-.87-.7-2.29-1-1.69-2.55s1.93-1,3-1a11.88,11.88,0,0,1,8.09,3.31,66.27,66.27,0,0,0,5.69,4.8c3,2.1,4.66,4.57,3.77,8.4-.63,2.7.5,5.17,1.33,7.71,1.63,5,.08,6.73-4.78,5.84Z"/><path class="cls-3" d="M231,130.52c5-7.42,4.85-14.84,3.29-22.53-.7-3.42,4.89-11.41,8-12.26,2.25-.61,2,1.34,2.12,2.39a23.38,23.38,0,0,1-1.71,13.13,34.74,34.74,0,0,0-3.52,12.88C239,128.93,236.59,130.41,231,130.52Z"/><path class="cls-4" d="M279.33,190.34c-.08,5.46-1.51,6.46-5.95,4.84-3.76-1.37-7.45-2.76-11.55-1.39-.91.31-2,.44-2.65-.61s.06-1.93.68-2.69c1.57-1.92,3.14-3.84,4.85-5.64,2.6-2.74,5.7-3.92,9.4-2.34A8.25,8.25,0,0,1,279.33,190.34Z"/><path class="cls-5" d="M277.11,404c.56,3.4-1.39,4-3,4.87-2.06,1.12-4.21,2.15-6.59,1a2,2,0,0,1-1-1.56,4,4,0,0,1,3.31-3.31c2.33-.54,4.25-2.71,6.89-1.86C277.15,403.28,277.21,404.33,277.11,404Z"/><path class="cls-6" d="M262.85,253.82a76.16,76.16,0,0,1-14.4.32,12.42,12.42,0,0,1-3.83-.87,2.25,2.25,0,0,1-1.1-3c.56-1.91,1.69-.87,2.72-.57a55.75,55.75,0,0,0,12.67,2.42C260,253.28,262.38,251.27,262.85,253.82Z"/><path class="cls-7" d="M290.63,378.54c7.52,3.45,11.2,11.66,7.17,15.25C297.09,388.14,294.05,383.71,290.63,378.54Z"/><path class="cls-8" d="M290.6,400.08c-2.75,3.09-5.41,4.58-9,3.72a2.77,2.77,0,0,1-1.79-1.48c-.28-.95.69-1.28,1.53-1.45C284.18,400.29,287,399.54,290.6,400.08Z"/><path class="cls-9" d="M262.85,253.82l-3.94-1.66h8.3A3.83,3.83,0,0,1,262.85,253.82Z"/><path class="cls-10" d="M240.71,57.1a18.52,18.52,0,0,1,.21-17.43c.94-1.69-1.65-3.21-2.59-1.52a21.63,21.63,0,0,0-.21,20.46c.9,1.71,3.49.2,2.59-1.51Z"/><path class="cls-10" d="M280.53,90.77l18.93-11.62c1.65-1,.14-3.6-1.51-2.59L279,88.18c-1.64,1-.14,3.6,1.51,2.59Z"/><path class="cls-10" d="M204,90.54a103.49,103.49,0,0,1-17.86-10.42,1.5,1.5,0,0,0-1.51,2.59,104.48,104.48,0,0,0,17.85,10.43,1.55,1.55,0,0,0,2.05-.54,1.52,1.52,0,0,0-.53-2.06Z"/><path class="cls-10" d="M240.47,75.16a1.5,1.5,0,0,0,0-3,1.5,1.5,0,0,0,0,3Z"/><path class="cls-10" d="M219.07,96.56a1.5,1.5,0,0,0,0-3,1.5,1.5,0,0,0,0,3Z"/><path class="cls-10" d="M262.24,96.31a1.5,1.5,0,0,0,0-3,1.5,1.5,0,0,0,0,3Z"/></svg>