<svg id="Layer_1" data-name="Layer 1" xmlns="http://www.w3.org/2000/svg" viewBox="0 0 480 480"><defs><style>.cls-1{fill:#fbf9f9;}.cls-2{fill:#010101;}.cls-3{fill:#070707;}.cls-4{fill:#171717;}.cls-5{fill:#0c0c0c;}.cls-6{fill:#121111;}.cls-7{fill:#121212;}.cls-8{fill:#2c2b2b;}.cls-9{fill:#616060;}</style></defs><path d="M479.91,240q0,117.92.09,235.83c0,3.26-.43,4.18-4,4.18q-235.85-.18-471.7,0C.55,480,0,479.07,0,475.6Q.15,240,0,4.44C0,1,.44,0,4.26,0Q240.11.2,476,0c3.52,0,4,.83,4,4.15Q479.84,122.07,479.91,240Z"/><path class="cls-1" d="M237.66,332.26c.74,12.41-4.09,21.72-10.86,30.56-5.28,6.9-7.9,15.34-11.19,23.33a48.54,48.54,0,0,1-2.55,5.41c-1.9,3.34-4.33,3.69-7.35,1.24-3.48-2.83-6.87-5.86-11.51-6.73-2.25-.42-5-1.16-5.49,2.06-.46,2.86,1.31,4.6,4.34,4.92,4.13.42,8.33.69,12,2.93,5.16,3.12,5.13,7.25-.12,10.27-4.67,2.69-9.85,2.68-15,2.79s-10.16-1.1-15.45,2.63c-6.09,4.3-12.79-.92-12.23-8.44.41-5.53,1.19-10.91,4.7-15.53a7.77,7.77,0,0,0,1.72-5.11c0-1.15.35-3,1.74-2.12,4.74,3,6.43-1.51,8.18-3.61,10.51-12.66,20.56-25.7,30.94-38.46a11,11,0,0,0,2.78-8.63c-.74-7.29,0-14.65-1.09-21.94a10.85,10.85,0,0,0-2.38-5.83c-9.4-11.11-13.2-23-5-36.54.33-.55.81-1.09.27-1.75-4.31-5.28-.86-10,1-14.87a29.74,29.74,0,0,0,1.16-2.75c1.15-4.18-.06-5.83-4.37-5.75a48.62,48.62,0,0,1-22.77-4.66c-6.49-3.2-10.86-8.27-12.42-15.37a31.84,31.84,0,0,0-5.9-12.49c-3.27-4.36-5.32-9.3-4.77-14.86.19-1.83-.75-2.73-1.59-3.92A25.44,25.44,0,0,1,150,175.49a6.92,6.92,0,0,1,3-6.49c4.81-3.3,9.7-1.27,14.35.3,3.84,1.3,5.37,4.71,5.68,8.65.58,7.68,1.87,11.46,5.9,17.8,2.94,4.63,5.44,9.52,9.37,13.5,2.07,2.09,3,2.24,4.51-.59,5.55-10.38,13.38-19,22-27.15-3.64-4-8.1-4.51-13.26-3-4.11,1.21-8.26,2.75-12.71,1.75-2-.45-4.08-1.19-4.18-3.6-.09-2.16,1.75-3,3.53-3.68.77-.29,1.56-.56,2.36-.79,2-.58,5-.58,5.24-3,.31-2.83-2.81-2-4.5-2.69-.8-.32-1.62-.63-1.78-1.55-.21-1.15.69-1.76,1.51-2.31,1.78-1.19,4.2-1.09,6-3-1.42-1.83-3.64-2-5.52-2.7-1.57-.62-3.37-1.27-3.29-3.26.08-2.16,1.94-3,3.76-3.42a31.33,31.33,0,0,1,6.93-.83,31.84,31.84,0,0,0,21.27-7.25c.52-.42,1.12-.73,1.65-1.13,15.12-11.54,27.83-.11,30.86,12.12,1.23,5,2.06,10.09.56,15.31a10.42,10.42,0,0,0,.52,7.82,15.41,15.41,0,0,1,1.28,10.17c-.18,1.1-1.32,2.84.56,3.4,1.59.47,2.94-.75,3.59-2.13,2.55-5.42,5-10.91,4.62-17.12-.25-3.87-.14-7.86-4.36-10.14-1.08-.59-1.8-2-2.51-3.07-2.43-3.79-1.78-8.42,1.34-10.14,3.63-2,9.76-.7,11.53,2.77,1.1,2.19,1.45,4.74,2.27,7.09,1,2.85.71,6,3.83,8.25,2.14,1.52,1.1,4.69.66,7.09a82.74,82.74,0,0,0-1.72,18.36c.49,10.95-3.52,19.76-13.11,25.12-6.49,3.62-8.19,8.6-7.86,15.51a66.19,66.19,0,0,0,3.39,19.07c1.43,4.09,1,7.17-3.16,9.75a8,8,0,0,0-4.06,8.32,52.51,52.51,0,0,1-.59,17.9,8.51,8.51,0,0,0,2.65,8.45c11.23,10.79,20.31,23.3,28.91,36.21,6.9,10.36,10.26,21.87,12,34,.82,5.91-.66,10.8-6.56,13.71-3.56,1.76-6.78,4.2-10.31,6-4.34,2.27-5.49,5.74-2.9,10.14a9.25,9.25,0,0,1,1.21,5.77c-.5,4.65,1.82,7.55,5.56,9.72,4.46,2.59,9.28,4.53,13.37,7.75,2.59,2.05,4.86,4.45,3.53,8-1.23,3.35-4.21,4.51-7.58,4.68-9.63.49-18.05-2.38-25-9.14-1.94-1.88-3.7-3.41-7-2.28-2.75.94-10.52-3.87-11.66-6.61-1.69-4,.41-7.05,3.05-9.79,5.64-5.84,8.38-12.49,6.55-20.76a19.07,19.07,0,0,1,0-8c1.67-7.48-1.17-14.49-1.8-21.72a13.08,13.08,0,0,0-3.95-7.88C245.84,341,242.21,337.1,237.66,332.26Z"/><path d="M208.83,240.52l3.13,1.14c.87.32,1.68.24,2-.72s-.49-1.47-1.19-1.86c-2.58-1.44-5.41-1.51-8.26-1.41-7.73.27-15.27-.57-22.47-3.64s-11.59-8.18-13.09-15.8a23.63,23.63,0,0,0-4.45-9.91,36.26,36.26,0,0,1-3.52-5.43c-3.29-6.39-2.84-6.8,3.78-8.49,8.43-2.16,8.61-3.67,13.82,6.37,5.83,11.21,15.76,16.65,26.54,21.35.81.35,1.66.7,2.24-.11.85-1.2-.26-1.76-1-2.29A45.28,45.28,0,0,0,196,214.8c-2.21-.8-2.6-1.79-1.4-4,4.95-9.2,11.9-16.8,18.89-24.38,1.3-1.41,2.67-1.5,4.49-1a46.17,46.17,0,0,0,19.29,1c2.29-.35,3.76-.53,4,2.47a8.53,8.53,0,0,0,2.73,5.23c7.33,7,8.48,16,7.84,25.29-.76,11-1.18,21.92,3,32.47,1,2.66-.73,4-2.25,6.21-5.27,7.52-12.36,5.29-19.18,4.75-8.29-.67-16.56-1.94-24.89-1.22-3.6.31-4-1.53-3.51-4.17a22.23,22.23,0,0,1,2-6.12A14.54,14.54,0,0,0,208.83,240.52Z"/><path d="M246.63,288.28c-3.09-3.29-5.52-5.93-8-8.5-1.74-1.78-3.55-3.5-5.39-5.19-.76-.7-1.8-1.24-2.65-.34-1,1.08.14,1.71.83,2.33,10.41,9.41,19.26,20.31,28.45,30.81,12.14,13.87,23.65,28.44,28.27,47,4.93,19.77,3,19.35-14.66,28.69a7.37,7.37,0,0,1-1.41.5c-12.3,3.62-14.7,1.22-14.13-11.44s-1-24.16-11-34.24c-10.74-10.87-21.29-22-31.95-33-6.06-6.24-11.68-12.84-12.58-22.13a25.34,25.34,0,0,1,.58-9.39c2-7.3,4.71-9.38,12.28-9.29,9.83.12,19.53,2.34,29.38,2,2.52-.1,2.5,1.4,2.77,3.08C248.39,275.26,247.34,281.25,246.63,288.28Z"/><path d="M215.09,308.31c6,6.23,12,12.29,17.83,18.38,1,1.05,2.09,2,2.15,3.75.32,8.66-.47,17.23-5.94,24.22-7.51,9.6-12,20.6-16.58,31.68-2.58,6.28-2.77,6.37-8,2.08A24.76,24.76,0,0,0,192.5,383a24.82,24.82,0,0,1-4.34-1.08c-6.24-2.24-6.83-4.86-2.46-9.82,9.69-11,18.61-22.59,27.63-34.12a9.57,9.57,0,0,0,1.8-6.53C215,323.94,215.09,316.48,215.09,308.31Z"/><path class="cls-2" d="M187.61,176.66c13-6.84,13.48-7.58,8-12.17,6.56-5.26,6.25-6.15-4.16-10.9a14.82,14.82,0,0,1,7.6-1.45,34.66,34.66,0,0,0,22.25-7.36c3-2.31,6.17-4.48,10-5.5,3.07-.83,5.46.24,6.64,2.91s-1.74,3.22-3.26,4c-10.3,5.37-14.22,13.89-12.87,25.17a19.84,19.84,0,0,1,.15,3c-.15,4.56-2.33,6.44-5.83,3.89-6.71-4.88-13.14-3-19.92-1.14C193.5,177.83,190.7,178.69,187.61,176.66Z"/><path class="cls-2" d="M272.15,398.39c-2,8.87,3,12.9,9.34,16.1,3.55,1.79,7.17,3.49,10.26,6.05,1.51,1.25,3.43,2.48,2.51,4.87-.82,2.12-2.81,2.72-4.88,2.82-8.09.37-15.45-1.47-21.66-7-3.14-2.82-5.86-5.86-11.27-4.55-2.7.65-6.52-2-8.19-4.86s1.29-5,2.83-7.33c3.41-5.15,7-9,13.9-5.46C266.85,400,269.21,399,272.15,398.39Z"/><path class="cls-2" d="M247.7,165.76a19.36,19.36,0,0,1-1.9,7.58c-1.76,3.51-3.32,7.75-8.12,7.66-5-.08-8.81-2.74-11.13-7.19a17.32,17.32,0,0,1,5-22.23,59.41,59.41,0,0,1,5-3.23c4.42-2.66,7.54-1.72,8.76,3.16C246.47,156.14,246.93,160.94,247.7,165.76Z"/><path class="cls-2" d="M171.84,384.73c3.43,3.24,7.38,5.13,12.14,4.94,1,0,1.9.06,2.28,1.35,1.23,4.18,4.81,4.62,8.35,4.94a22.48,22.48,0,0,1,8.65,2.13c1.32.7,2.86,1.51,2.74,3.23-.09,1.4-1.5,2.08-2.67,2.73-3.63,2-7.64,2.17-11.63,2.18-3.83,0-7.65-.14-11.47-.23-1.87,0-3.84,0-5,1.65-2.42,3.52-5.62,2.19-8.55,1.38-3.45-.95-1.52-3.86-1.63-5.92C164.72,396.28,168,390.66,171.84,384.73Z"/><path class="cls-2" d="M265.94,166.13c8.45,1.79,8.38,1.78,7.29,9.78-.56,4.1-1.42,8.31-1.05,12.38,1.2,13.52-4.86,22.56-17,28.63.08-4.6-.39-9.08-.54-13.58-.22-6.68,1.93-9.61,6.32-14.2C266.26,183.61,267.81,175,265.94,166.13Z"/><path class="cls-2" d="M170.21,182.83c-.12,4,.75,8.48-5.47,9a6.84,6.84,0,0,1-5.43-1.69c-4.74-4.07-6.41-9.49-6.5-15.53,0-2.11,1.26-3.38,3-4.15,6.46-2.8,14.43,2.35,14.5,9.34C170.35,180.84,170.26,181.83,170.21,182.83Z"/><path class="cls-3" d="M249.63,172.66c5.77,7.83.69,17.31,2.09,25.72C241.49,190.71,240.81,181.63,249.63,172.66Z"/><path class="cls-3" d="M263,149.16a4.47,4.47,0,0,1,5.11,3.5c.89,3,1.58,6.1,2.35,9.15.19.75.81,1.74-.19,2.14a3.08,3.08,0,0,1-2.36-.36c-3.46-2-6.68-4.4-8.79-7.89C256.81,151.92,258.45,149.13,263,149.16Z"/><path class="cls-4" d="M234,183.64a39.92,39.92,0,0,1-13.07-.23l3.69-6.53C227.45,179.43,230.31,182.05,234,183.64Z"/><path class="cls-5" d="M186.72,384.59c-2,2.9-4.64,2.74-7.49,1.68-1.35-.5-3.5-.9-3.23-2.41.24-1.34,2-2.49,3.19-3.56,1.67-1.46,2.18.6,3.12,1.22C183.81,382.5,185.25,383.56,186.72,384.59Z"/><path class="cls-6" d="M268.59,392.13c-.7,1.78,0,4.53-2.87,4.34s-6.06-.6-7.94-3.17c-.65-.89-.14-3,1.84-2.17C262.48,392.32,265.41,391.92,268.59,392.13Z"/><path class="cls-7" d="M259.26,387.24h10.25C267.21,390.32,263.76,390.4,259.26,387.24Z"/><path class="cls-8" d="M249.76,152.16c1,4.44,2.25,8.87.62,13.52l-1.59-9.37C248.82,154.86,247.41,153.07,249.76,152.16Z"/><path class="cls-9" d="M249.76,152.16c-1.23,1.17-.37,2.83-1,4.15-.71-4.06-1.26-8.17-4.3-11.45C247.71,146.34,248.86,149.16,249.76,152.16Z"/></svg>