<svg id="Layer_1" data-name="Layer 1" xmlns="http://www.w3.org/2000/svg" viewBox="0 0 480 480"><defs><style>.cls-1{fill:#fbfafa;}.cls-2{fill:#010101;}.cls-3{fill:#030303;}.cls-4{fill:#040404;}.cls-5{fill:#323131;}.cls-6{fill:#7a7979;}.cls-7{fill:#fff;}</style></defs><path d="M479.91,240q0,117.92.09,235.83c0,3.26-.43,4.18-4,4.18q-235.86-.18-471.71,0C.55,480,0,479.07,0,475.6Q.15,240,0,4.44C0,1,.44,0,4.26,0Q240.11.2,476,0c3.52,0,4,.83,4,4.15Q479.84,122.07,479.91,240Z"/><path class="cls-1" d="M242.43,165.66c-.16-12.6,6.06-20.42,16.76-25,5.47-2.35,11.17-2.61,16.24.77,8.23,5.48,14.95,12.13,15,23.08,0,4.28,2.88,8.18,1.68,12.72-.42,1.58,1.42,1.46,2.41,1.88,8.79,3.77,14.84,10.7,15.61,19.75s-3.3,17.23-11.81,22.17c-4.12,2.39-5.13,6.29-5.2,10.59a32.45,32.45,0,0,0,.72,4.92c1,7.16,0,8.74-7.38,10.61,7.3,6.78,12.69,14.58,15.23,24.12,2.4,9.06,1.25,17.76-2.38,26.32C295,307.85,290,318.25,290,329.47c0,12.7.21,25.26-2,37.87-1.06,6.21,2.79,12.72-.35,19.14-.59,1.2,1.14,2.27,2,3.26,4.52,5.46,5.78,11.53,3.36,18.21a51.48,51.48,0,0,0-2.95,15.1c-.44,8.13-5.35,14.06-12.76,16-5.22,1.37-8.79-.58-10.4-5.72-1.51-4.82-.82-9.6.63-14.25.78-2.51.5-3.93-2-5-4.27-1.88-6.15-5.42-6-10,.14-5.15-.37-9.87-5.84-12.52a5,5,0,0,1-2.24-3.7c-.17-5.86-3.74-9.34-7.45-13.36-7.12-7.69-8.74-17.83-7.34-27.64a123.21,123.21,0,0,0-1.09-43.07,78.58,78.58,0,0,1,2.65-41.91,62.68,62.68,0,0,0,1.83-6.74c1-4.57,1.22-8.31-4-11.37-8.24-4.81-9.77-13.35-9.58-22.22A28.34,28.34,0,0,1,227,215c3-11.74-.3-22.18-5.77-32.51-7.49-14.13-9.89-28.85-3.33-44.18a24.63,24.63,0,0,0,1.33-5.82c.63-4,1.71-7,5.84-9.46,6.12-3.66,5.86-10.36,4.09-16.61-1.53-5.44-.84-10.21,3.21-14.28,1.88-1.9,3.91-4.05,6.89-3s3.48,4,3.41,6.67a91,91,0,0,1-4.79,28.34A70.68,70.68,0,0,0,233.51,151C233.8,157.57,237.37,161.58,242.43,165.66Z"/><path d="M263.9,290.87c-1.32-.08-1.36-1.35-2.09-1.91s-1.58-1.4-2.52-.34c-.73.82-.09,1.5.44,2.15,2.13,2.58,2.19,5.55,2.49,8.8,1.48,16.05-2.39,31.39-5.33,46.9-2.23,11.8,1.66,22.69,5.73,33.49.46,1.24,1.71,2.65,1.41,3.63-.65,2.13,5,4.51-.19,6.17-6.38,2-9.18.76-10.18-4.5-.87-4.62-2.37-8.33-6.57-11.57-6.48-5-7.32-13.09-8-20.81-.63-7.22,1.07-14.26,2-21.34,1.39-10.56-2.05-20.46-3.46-30.63-2.13-15.39.14-30.16,4.8-44.76.57-1.78,1.12-2.32,3.08-1.9,12.17,2.65,23.83.56,35-4.39,2.44-1.08,3.88-.66,5.7.95a39.55,39.55,0,0,1,10.64,45.46c-3.44,8.31-6.71,16.67-8.69,25.47-1.74,7.72-2.18,15.48-.16,23.24a12.62,12.62,0,0,1-.52,8.31c-2.65,6.33-2.94,12.89-1.87,19.6a48.25,48.25,0,0,1,.72,6.44c.16,5.89-3.07,9.06-9.72,10.66-5.68,1.36-7.58-1.94-9.54-6.21-7.78-16.91-10.63-34.06-4.5-52.25,2.62-7.76,2.88-16,2.26-24.23-.45-5.87-.06-11.63,2.37-17.13.56-1.26,2.16-3.15.54-3.95-2.26-1.11-2.17,1.71-3,2.92A15.91,15.91,0,0,0,263.9,290.87Z"/><path d="M222.5,131.67c3.28,1.71,6.6.66,10.33.47-1.11,5.69-2.17,11.15-2.14,16.79,0,6.57,1.73,12.35,7.1,16.25s5.82,8.67,3.9,14.42c-2,6.05-1.11,11.41,4.09,15.74,2.49,2.07,4.9,2.84,7.59.72,3-2.38,7.88-2.2,9.19-7.91,1.67,4.51,4.39,5.49,7.89,5.41,5.89-.13,10.56,4.37,10.05,10.28-.48,5.65,1.85,10.39,3.62,15.36a4.89,4.89,0,0,0,1.69,2.41c1.88,1.19,3.94,2.11,5.94,3.14-3.06,5.47.16,11.14-.54,16.68-.28,2.18-2.13,2.44-3.8,2.42-3.79,0-7.06,1.45-10.48,2.81-15.11,6-29.05,3.75-41.55-6.65-3.75-3.13-5.38-7.51-6-12.27a33,33,0,0,1,.28-11.94c2.79-11.81.69-22.66-5.33-33.05A53.24,53.24,0,0,1,218.15,167c-1.84-8.81-2-17.47,1.67-26C221.05,138.17,221.57,135,222.5,131.67Z"/><path class="cls-2" d="M279.5,194.26c7.2-1.89,10.93-5.85,9.48-13.19,8,.56,16.48,8.08,18.54,16.12,1.48,5.8-3.59,17.09-9.33,20.79-7.84,5-10.16,4.22-13.31-4.47-1.14-3.15-2.1-6.26-1.65-9.68S281.93,197.44,279.5,194.26Z"/><path class="cls-2" d="M268.84,427.08c.35-5.34,2.16-10.35,3.63-15.45,1.63-5.69,4.6-11.11,3.93-17.31a1.55,1.55,0,0,1,1.67-1.91c3,0,5.54-4.06,8-2.27,3.8,2.79,6.45,7.42,5.27,12.22-2,8.22-3.61,16.47-4.86,24.83a9.74,9.74,0,0,1-4.41,6.42c-2.86,2-6,4.35-9.59,2.67S269,430.6,268.84,427.08Z"/><path class="cls-2" d="M243.59,183.55c2.67-6.61,1.22-15,1.94-23.24.74-8.42,9.43-16.77,17.72-18.17,1.12-.19,2.53-.66,3.22.46.8,1.28-.57,2.06-1.34,2.86a35.6,35.6,0,0,1-2.89,2.74c-7.29,6-8.87,13.71-6.57,22.46,1,3.83,2.67,7.49,3.64,11.34,1.68,6.66,1.32,7.28-5,10.14-1.9.85-3.35,3.89-6,1.67S243.23,188.92,243.59,183.55Z"/><path class="cls-2" d="M257.41,162.53c-.49-6.53,5-10.85,10-15.48,1.25-1.15,2.07-.37,2.91.4,3,2.71,5.37,5.51,5.67,10s3.42,9,1.12,14c-1.22,2.61-1.93,5.34-5.85,3.68-1.19-.5-2.58.23-3.73,1-3.56,2.3-6.67,1.19-8.4-3A31.87,31.87,0,0,1,257.41,162.53Z"/><path class="cls-3" d="M240,99.38c-1.17,8.69-1.52,18.24-6.12,26.87-.78,1.47-1.29,3.06-3.31,3.3-1.78.21-4,1.26-5.11-.32s.83-3,2-4.11c6-5.62,6.58-12.41,4.35-19.73-1.35-4.44-.61-8.2,2.69-11.43,1.05-1,2.12-2.53,3.74-2,1.93.62,1.63,2.65,1.78,4.25C240.05,97,240,97.85,240,99.38Z"/><path class="cls-4" d="M278.65,174.31c3.76-5.69.91-11.32.2-17.17-.8-6.65-5.17-10.32-10.2-14.77,9.87,1.83,19.14,12.46,19.05,21.06,0,3.25,1.1,6.18,1.86,9.22.41,1.66.55,3.54-.8,4.67-1.15,1-2.36-.52-3.55-.88C283.17,175.81,281.15,175.12,278.65,174.31Z"/><path class="cls-3" d="M286.54,183.06a8.59,8.59,0,0,1-10.55,8.4,18.07,18.07,0,0,0-2.84-.69c-7.69-.64-9.17-3.45-5.49-10.5.94-1.8,2.31-3,4.38-2.21,3.62,1.37,7.47,1.48,11.2,1.87C285.93,180.21,286.66,181.18,286.54,183.06Z"/><path class="cls-4" d="M259.88,393.24c4,.26,7-2.88,11.15-.65,2.79,1.48,3.23,3,2.64,5.37-1.09,4.32-2.49,8.56-3.7,12.85-.48,1.71-1.24,2-2.84,1.17-3.22-1.68-5.2-4.08-5-7.84A18.49,18.49,0,0,0,259.88,393.24Z"/><path class="cls-5" d="M248.78,252.24c-2.22-.22-4.48-.38-6.26-3,3.44-.3,5.75,1.6,8.4,1.88C251,253,249.75,252.34,248.78,252.24Z"/><path class="cls-6" d="M248.78,252.24c.73-.35,1.75-.14,2.14-1.13,1.87-.22,3.48.58,6.25,1.64C253.59,253.19,251.17,253.5,248.78,252.24Z"/><path class="cls-7" d="M238,26.1A28,28,0,0,1,236.47,18a15,15,0,0,1,2.22-7c.94-1.69-1.65-3.2-2.59-1.52a18.4,18.4,0,0,0-2.62,8.35,30.11,30.11,0,0,0,1.57,9.15,1.51,1.51,0,0,0,2.9-.8Z"/><path class="cls-7" d="M293.26,58.8c4.63-2.85,9.34-5.55,14-8.39,1.64-1,.14-3.61-1.51-2.59-4.64,2.84-9.35,5.54-14,8.38-1.64,1-.13,3.61,1.52,2.6Z"/><path class="cls-7" d="M187.26,59.2a74.93,74.93,0,0,1-6.95-3.46c-2.23-1.31-4.32-2.84-6.41-4.36a1.5,1.5,0,0,0-2.05.53,1.54,1.54,0,0,0,.53,2.06c2.09,1.52,4.19,3.05,6.42,4.36a77.42,77.42,0,0,0,6.94,3.47,1.56,1.56,0,0,0,2.06-.54,1.53,1.53,0,0,0-.54-2.06Z"/><path class="cls-7" d="M238.23,46.41a1.5,1.5,0,0,0,0-3,1.5,1.5,0,0,0,0,3Z"/><path class="cls-7" d="M206.84,67.81a1.5,1.5,0,0,0,0-3,1.5,1.5,0,0,0,0,3Z"/><path class="cls-7" d="M270,67.56a1.5,1.5,0,0,0,0-3,1.5,1.5,0,0,0,0,3Z"/></svg>