<svg id="Layer_1" data-name="Layer 1" xmlns="http://www.w3.org/2000/svg" viewBox="0 0 480 480"><defs><style>.cls-1{fill:#faf9f9;}.cls-2{fill:#010101;}.cls-3{fill:#020202;}.cls-4{fill:#0a0a0a;}.cls-5{fill:#090909;}.cls-6{fill:#212121;}.cls-7{fill:#292828;}.cls-8{fill:#fff;}</style></defs><path d="M479.91,240q0,117.92.09,235.84c0,3.27-.45,4.17-4,4.16q-235.85-.17-471.7,0C.52,480,0,479,0,475.59Q.15,240,0,4.43C0,1,.47,0,4.26,0Q240.12.2,476,0c3.54,0,4,.85,4,4.15Q479.84,122.07,479.91,240Z"/><path class="cls-1" d="M234.29,326.47a7.85,7.85,0,0,1,0,1.65c-1.89,18.24-9.5,34.52-17.42,50.67a31.18,31.18,0,0,1-3.45,5.48c-2.7,3.45-6.06,4.53-10.08,2.16-1.86-1.09-3.72-2.19-5.52-3.38-5.5-3.61-10.49-2.39-14,3.31-1.17,1.87-.23,2.71,1.17,3.56,3.12,1.9,6.55,2.27,10.1,2.07,2.77-.16,5.31.34,7.24,2.58,3.14,3.64,2.65,7.95-1.32,10.73a19,19,0,0,1-15.17,3.39,36.26,36.26,0,0,0-13.65-.5,30.34,30.34,0,0,1-8-.25c-3.7-.41-5.38-2.37-5.34-6.37.05-5.46,1-10.55,3.7-15.31,1.16-2,2.43-4,2.47-6.45,0-1.69,1.23-3,2.36-1.62,2.51,3.15,3.37.57,4.72-.84a32.17,32.17,0,0,0,6-9,70.75,70.75,0,0,1,11.21-17.63c6.22-7,10.66-15.32,15.43-23.21,4-6.65,2.46-15.22,1.94-23-.5-7.37-2.68-14.39-4.85-21.37-3-9.75-1.88-19.08,2.37-28.14,1-2,1.4-3.7.39-6-1.68-3.83-1-7.89.52-11.68,2.17-5.38,1.79-10.33-.24-15.89-4.51-12.39-2.4-24.9,1.35-37.15,1-3.4,4.31-5.21,6.52-7-9.6-3.68-19.66-3.12-29.66-3.46a12.78,12.78,0,0,1-7.8-3c-1.13-1-2.41-2.07-1.79-3.78s2.05-2,3.69-1.85,3.18.63,4.72-.23c-1.6-4.21-13.06-.15-7.78-9.69-.18-.26-.31-.66-.55-.74-1.88-.67-4.81.42-5.31-2.57-.42-2.48,1.81-3.69,3.42-5.11,1.18-1,3.35-1.56,2.87-3.61s-2.59-2.74-4.51-3.49c-2.28-.89-6.35-.33-6.14-3.67.19-3,3.91-3.69,6.61-4.41,1.89-.51,3.53-.42,2.52-3.43-.52-1.53,1.71-1.89,3.33-1.89a68.61,68.61,0,0,1,25.34,4.27c6,2.31,12.15,1.2,18.26.16,2.78-.48,5.6-1.26,8.38-1.16,12.59.46,16.62,5.93,17.93,17.39.79,6.94,1.86,14,.6,21.08-.49,2.79-.83,5.76-3.55,6.59-3.3,1-3.25,3.05-3.34,5.61a27.32,27.32,0,0,0,6.43,19c5.13,6.14,7.47,12.85,7.75,21a76.3,76.3,0,0,0,5.27,26.28c1.67,4.08,2.05,8.69-1.18,11.77-4.78,4.56-1.21,7.45,1.37,10.3s6,5.26,9.06,7.83c2.29,1.94,5.22,3.82,3.95,7.32s-4.43,4.8-7.91,5.22a44.51,44.51,0,0,1-4.8,0c1.31,3.36,3.79,5.77,5.76,8.49,1.76,2.42,3.66,4.75,5.57,7.06,9.6,11.6,14.07,24.56,11.64,39.8-1.26,7.91-.22,16,.65,23.91s-.46,10.55-8.26,12.71c-3.3.92-5.34,2.08-4.79,5.83.39,2.65-2.3,5.74,1.23,8,2.14,1.37.85,3.27.46,5-.87,3.78-.24,6.36,3.76,8.47,5.55,2.93,10.86,6.5,14.36,12.09,3.87,6.2,2,10.55-5.21,11.75-7.93,1.32-14.72-1.43-21-6-2.39-1.75-4.43-3-8.09-3.13-4.89-.17-10.64-2.95-13.4-7.58-2.65-4.47-.78-10,2.54-13.42s2.94-9.32,8.17-11.72c2.08-1,.21-7.89-2.33-9.81-.92-.68-1-1.19-.73-2.39,1.2-6.17,2.34-12.37,3-18.61,1-9.47,0-18.26-8.91-24.28C240.79,332.63,237.77,329.47,234.29,326.47Z"/><path d="M279.87,346.34A138.92,138.92,0,0,0,281,370.72c.45,3.42-.9,5.36-3.85,6.61-6.84,2.88-13.84,3.07-21,1.62-2.33-.46-2.5-1.77-2.26-3.57.51-3.79.93-7.59,1.59-11.35a49,49,0,0,0,.19-16.38c-.86-5.29-3-9.67-7.54-13A53.91,53.91,0,0,1,237.65,324c-8.16-10.51-16.56-20.79-25.63-30.56-9.76-10.51-11.82-22.68-6-36,1.13-2.58,1.86-4.52,5-1.68a15.18,15.18,0,0,0,6.88,3.88c9.41,1.75,16.82,6.43,23.72,13,4.49,4.25,8.28,9,12.19,13.64,7.3,8.58,13.53,18.07,20.18,27.2,5.42,7.44,7.89,15.62,6.36,24.89A66,66,0,0,0,279.87,346.34Z"/><path d="M251.66,261.84c-5.89.81-6.52,1.41-9.15,8.5-12.74-10.72-20.27-24.14-22.55-40.46-1.15-8.23-2-16.5-3-24.75-.17-1.4.1-3.67-1.79-3.49-2.13.2-1.08,2.43-.93,3.73,1,8.76,1.82,17.55,3.27,26.23,1.65,9.9,4.67,19.4,11.11,27.61-6.79,0-16.26-4.33-20.23-9-2.87-3.39-2.5-7.32-1.06-10.86,2.82-6.92,2-13.18-.34-20.22-3.71-11-1.71-22.33,1.5-33.29,1.11-3.75,4.81-5.35,7.63-7.63,1-.79,1.69-.22,2.64.2,6.75,3,10.22,3,18.55.52-1,10.88,4.34,19.12,10.55,27.06a16.67,16.67,0,0,1,3.23,9.79c.52,11,1.95,21.8,5.94,32.18,1.74,4.52.71,7.35-3,10.68-9.87-8.51-9.67-20.45-10.71-31.95-.5-5.48-1-10.94-3.31-16-.54-1.2-.92-3.45-2.88-2.54s-.12,2.31.33,3.35c3.55,8.15,3.26,16.95,4.08,25.5.72,7.53,2.39,14.36,7.53,20.12C250.1,258.28,250.64,260,251.66,261.84Z"/><path d="M207.94,293.48a240.1,240.1,0,0,1,23.31,26.84,5.22,5.22,0,0,1,.9,4.11c-2.05,20.1-9.89,38.2-19.24,55.75-2.94,5.53-5.12,5.84-10.43,2.67-6.28-3.75-12.43-7.73-18.85-11.22-3-1.66-2.93-3.09-1.36-5.68a103.09,103.09,0,0,1,9.86-14.38c6-6.95,10.31-15.12,15.12-22.82,3.85-6.16,2.71-14.21,2.3-21.52C209.31,302.93,208.56,298.65,207.94,293.48Z"/><path d="M176.83,168.39c3.3-.69,7.72.87,8.26-3.21s-3.85-4.21-6.68-5.21c-1.81-.64-3.1-.64-1.75-3.49,2.08-4.38-2.08-4.55-5.38-5.28,1.89-3.28,7.42-4,5.84-9-1.37-4.31-5.55-4.73-9.66-6.26a11.2,11.2,0,0,1,6.24-2.12c2.3-.21,5.75,1.37,5.48-3.37-.06-1.24,1.58-.82,2.46-1,5-1,9.63.46,14.13,2.18a42.73,42.73,0,0,0,25.52,1.49c4.25-1,8.5-1.45,12.82-.1,2.77.87,3.25,2.26,1.18,4.14-5.72,5.19-11.18,10.5-13.21,18.34-.27,1-1.41,1.17-2.39,1.49-4.37,1.44-5,3.35-2.56,7.33,2.85,4.66,1.54,7.76-3.7,9-2,.46-4.08,1-5.89,0-5.65-2.93-11.61-2.16-17.59-2C185.56,171.5,181,171.66,176.83,168.39Z"/><path d="M269.59,397.89c-1.32,8.26-1,8.76,5.6,12.9,4.76,3,9.65,5.94,12.76,10.93,2.81,4.51,2,6.52-3.29,7.56-7.05,1.39-13-1.34-18.62-5.27-3.09-2.16-5.51-4.2-10.37-4-10.25.37-14.12-9-8-17.36a35.64,35.64,0,0,0,4.62-7.61c2.51,1.07,5,2.23,7.54,3.2C262.92,399.39,266,398.51,269.59,397.89Z"/><path class="cls-2" d="M236.76,175.59c-4.72,2.9-9.4,2.79-14.24,1.6-2.49-.61-3.17-1.88-2.35-4.34,1.15-3.5,2.12-7-.94-10.28-1.54-1.64-.57-2.59,1.43-2.87,2.68-.38,3.93-2.25,4.58-4.67,1.87-7,7.25-11.34,12.18-16.05,1.27-1.22,2-.81,2.76.21,1,1.32,2.58,2.71,2.64,4.12.25,6.35,2.75,12.54,1.43,19a23.68,23.68,0,0,0-.34,4.46c-.07,5.69-1.86,7.08-7.44,5.46a55.11,55.11,0,0,1-6.5-2.5c-1-.44-2-.86-2.53.33s.64,1.74,1.47,2.13C231.32,173.31,233.77,174.31,236.76,175.59Z"/><path class="cls-2" d="M187.41,406.17c-5.69-2.55-12.78-.69-19.84-.49-4.52.13-6.44-1.68-6.07-6.58.42-5.55,2.77-10.18,5.15-14.94.74-1.47,1.25-1.67,2.46-.64a18.2,18.2,0,0,0,9.4,4.28c.6.09,1.44.31,1.69.74,3.46,6.08,9.32,6.26,15.22,6.2,3.05,0,5.2,1,6,4.08s-1.63,4-3.61,5.19C195,405.67,191.94,406.34,187.41,406.17Z"/><path class="cls-3" d="M263.21,286.17c-5.73-.07-16.41-9.19-17.29-14.86a5.88,5.88,0,0,1,2.15-5.81c1.84-1.39,3.68,0,5,1.07,5.27,4.31,10.37,8.83,15.49,13.32,1,.85,2.25,2,1.23,3.37A7.19,7.19,0,0,1,263.21,286.17Z"/><path class="cls-4" d="M256.54,387.5c2.76,1,5,2.2,7.5,2,1.87-.13,3.56-.61,3.26,2.44-.23,2.35-.24,4.06-3.39,4.11C257.92,396.17,255.73,394,256.54,387.5Z"/><path class="cls-5" d="M185.19,381.08c-2.11,2-3.42,4.44-6.61,4-2.34-.36-5.54-.92-6.06-2.66-.67-2.31,2.59-3.79,3.95-5.78.61-.89,1.34-.54,2,.13A24.61,24.61,0,0,0,185.19,381.08Z"/><path class="cls-6" d="M256.29,382.42c3.61,0,6.54,0,9.47,0,1.31,0,2.28.09,2.23,1.78,0,1.32-.4,2.29-1.82,2.53C262.27,387.37,259,386.39,256.29,382.42Z"/><path class="cls-7" d="M179.55,373.06a19.88,19.88,0,0,1,9.08,5.36C184.7,378.23,181.51,376.65,179.55,373.06Z"/><path class="cls-8" d="M276.14,269.07a32.64,32.64,0,0,0,6.05-5.75,1.61,1.61,0,0,0,.44-1.06,1.54,1.54,0,0,0-.44-1.06,1.52,1.52,0,0,0-2.12,0,31.86,31.86,0,0,1-2.66,2.91c-.47.45-1,.88-1.44,1.3-.25.21-.5.42-.76.62l-.2.16c-.16.12.3-.22,0,0-.13.11-.27.21-.41.31a1.64,1.64,0,0,0-.69.9,1.54,1.54,0,0,0,.15,1.15,1.52,1.52,0,0,0,2.06.54Z"/></svg>