<svg id="Layer_1" data-name="Layer 1" xmlns="http://www.w3.org/2000/svg" viewBox="0 0 480 480"><defs><style>.cls-1{fill:#fbfafa;}.cls-2{fill:#010101;}.cls-3{fill:#020202;}.cls-4{fill:#030303;}.cls-5{fill:#090808;}.cls-6{fill:#080808;}.cls-7{fill:#292929;}.cls-8{fill:#858484;}.cls-9{fill:#333232;}</style></defs><path d="M.1,240Q.1,122,0,4.09C0,.67.67,0,4.09,0Q240,.17,475.91,0c3.42,0,4.09.67,4.09,4.09q-.17,235.91,0,471.82c0,3.42-.67,4.09-4.09,4.09Q240,479.84,4.09,480C.67,480,0,479.33,0,475.91Q.18,357.95.1,240Z"/><path class="cls-1" d="M273.81,391.26c3.29,2,4.26,4.44,3.64,7.85-.88,4.76.83,8.73,4.46,12.05,3.18,2.91,6.53,5.74,8.64,9.62s2.65,8-.38,11.68-7,3.29-11,1.77c-7.83-3-14-7.6-16.26-16.21-.51-1.95-1.37-4-3.22-4.89-6.29-3.2-5.83-8.62-4.92-14.21a30,30,0,0,1,1.32-4.8c1.32-4,3.36-7.73-1.09-11.48-2-1.7-1-5.08-1-7.71,0-12.79-5.16-23.65-12.39-34.1-1.87,14.45-10.25,25.51-17.77,37-2.66,4.06-4.15,8.69-6,13.16-2.43,6-4.74,6.7-10.12,2.86-3.24-2.31-6-5.27-9.8-6.81-1.51-.61-2.77-1.55-4.44.08-1.41,1.37-1.43,2.39-1,4.24.49,2.22,1.4,3.08,3.52,3.32a64.82,64.82,0,0,1,9.34,1.45c3.84,1,7.38,2.94,7.42,7.6s-3.86,5.8-7.34,7a17.19,17.19,0,0,1-5.87,1c-9.05-.32-18-1.34-27.17-1.12-8.22.2-9.82-3.5-7.48-11.53,1.63-5.62,3.63-11.05,7.16-15.8,1-1.37,2.12-3.33,3.83-2.53,4,1.88,5.45-1,6.8-3.37,8.66-15.44,21-27.8,33.22-40.31,3-3.09,4.53-6.48,3.16-10.8a4.58,4.58,0,0,1-.16-1.48c.13-9.3-2.42-17.55-7.13-25.81a44.78,44.78,0,0,1-5-32.83c.35-1.5.28-2.35-1.21-3.22-3.14-1.82-3.28-4.46-2.05-7.74,3.65-9.78,1.41-14.42-8.31-18.12-8.67-3.3-17.87-5.33-25.54-11-19.55-14.53-25.32-31.73-18.07-55.26,1.81-5.88,5.82-10.78,9.25-15.78,3.27-4.75,12.29-4,15.79.67,2.06,2.74,1.29,5.67-1.16,6.94-9.64,5-5.61,13.06-4.56,20.12,1,6.58,5.81,11.47,9.46,16.81a2.55,2.55,0,0,0,3.34,1.16c10.41-3.31,18.76-10,27-16.7,2.42-2,2.64-6,1.76-9.39a13.28,13.28,0,0,1,1.87-11,16.74,16.74,0,0,0,2.51-7c1.14-8.09,6-13.66,12.57-17.71,12.05-7.41,25.24-2.39,29.26,11.15.94,3.18,1.57,4.1,5.16,3.16,6.95-1.81,13.09.77,18.38,5.37,2.44,2.12,3.09,6.08,7.5,6.29,1.73.08,1.54,2.84,1.15,4.37-1.56,6-.64,11.84.41,17.79,2.86,16.17-.83,24.45-15.63,31.72-8.2,4-12.58,8.75-10.26,18.29.84,3.48.63,7.31.38,11-.4,5.85-2,11.29-8.19,13.71-2.19.87-2.43,2.28-2.42,4.27,0,10.77,2.3,21.59-.79,32.29-.48,1.67.92,2.78,1.83,3.92a145.51,145.51,0,0,1,27.05,54c1.58,5.92,4,11.61,6.17,17.39a30.44,30.44,0,0,1,2,9.73c.27,8.78-3.25,11.42-11.73,9C278,391.83,276.45,390.51,273.81,391.26Z"/><path d="M184.17,203.28a68.69,68.69,0,0,0,23.59-13.61c7.23-6.24,16-5.8,24.67-5.47,1.16.05,2.31.35,3.47.42,3.49.2,7.79-.86,10.25.81,2.92,2-.07,6.47.56,9.87a9.58,9.58,0,0,0,4.45,6.88c2.94,1.79,5.39,3.85,6,7.49.18,1,.79,2,2,1.87a2.06,2.06,0,0,0,1.72-2.13c.22-6.06,4.6-11.1,3.86-17.23,1.6-.47,2.53.46,3.46.95,4.2,2.22,6.54.31,8.27-3.4,3.42-7.32,3.32-14.77.55-22.59,3.82-.46,7.23,1.36,11.89-.52-3.9,9.77-.1,18.45.26,27.33.41,10-3.71,16.87-12.5,21.38-4.14,2.12-7.87,5-12.07,7-2.45,1.12-2.59,2.55-2.46,4.63.34,5.65.74,11.3.92,16.95.38,11.53-5.88,18.87-17.43,20.26a35.65,35.65,0,0,1-9.95-.07,169,169,0,0,0-24.3-2.46c-5.78-.11-6.46-1.61-4.63-7.16,3.08-9.32,0-16-9.23-19.42-4.51-1.7-9.09-3.22-13.65-4.79a52.15,52.15,0,0,1-24.69-17.95c-10-13.05-9.34-27.51-4.55-42.29.4-1.26.94-1.62,2.49-1.52,9.18.61,9,.55,10,9.74,1.34,11.94,8.57,20.66,16.65,28.76.92.92,2.48,2.83,3.69,1.4,1.75-2.07-1.27-2.38-2.1-3.54C185.13,204.45,184.8,204.08,184.17,203.28Z"/><path d="M252.44,264.72c-.11,10.77,2.09,20.53-.4,30.86-4.92-4.68-9.5-9.08-14.15-13.42-.88-.82-2-2.49-3.27-1.09s.59,2.32,1.43,3c12.13,10.22,20.71,23.23,29.34,36.31,6.73,10.2,10.22,21.58,14.1,32.88,2.59,7.55,5.27,15.07,7.78,22.64,1.48,4.46,3.37,9.93,0,13.34s-8.06-.32-12.11-1.45c-4.32-1.2-8.61-2.59-13-3.46-3.71-.74-5.54-2.43-5.42-6.36.54-18.37-7.28-33.46-18.72-47.08a275.72,275.72,0,0,1-21.28-28.31,50.68,50.68,0,0,1-8-32.83c.36-3.87,1.58-5.48,6.13-5.44,8.57.08,16.77,2.76,25.28,2.78C244.14,267.14,248.13,267.29,252.44,264.72Z"/><path d="M221.34,313.69a231.05,231.05,0,0,0,17.35,22.1c.91,1,.68,2.09.39,3.26-2.36,9.53-4.7,19-10.83,27.09a80,80,0,0,0-12.75,23.58c-1.18,3.64-3.07,4.7-6,1.95-5.09-4.76-11.25-7.53-17.52-10.27-5.21-2.28-5.38-3.89-2.81-8.66,5.56-10.26,13.89-18.19,21.77-26.51,2.29-2.41,4.57-4.84,6.91-7.2,3.64-3.67,5.35-7.79,4.06-13.09A36.84,36.84,0,0,1,221.34,313.69Z"/><path class="cls-2" d="M259.47,393.74c4.09,2.1,8.17,3.46,12.75,1.1,2.2-1.14,3,.81,2.64,2.49-1.75,8.36,2.54,13.91,8.33,18.94,2.62,2.28,5.1,4.79,6,8.37,1.34,5.35-2.23,9.08-7.47,7.48-7.62-2.33-13.87-6.34-16.12-14.7a12.26,12.26,0,0,0-3.12-5.59C256,405.38,255.55,402.39,259.47,393.74Z"/><path class="cls-2" d="M195.25,409.14a45.1,45.1,0,0,1-5.09-.83c-3.79-.94-6.95-3.39-11.45-.11-2.54,1.84-7.42.19-10.9-1.7-1.4-.76-1.68-1.84-1.17-3.35.85-2.51,1.6-5.06,2.31-7.62.82-2.9,1.52-6.29,3.89-7.89,2.66-1.81,4.52,2.21,7.2,2.62,2.11.32,4.13,1.26,6.24,1.53s3.74,0,4.3,2.84c.46,2.26,2.91,2.38,4.91,2.64,3.94.51,8,.47,11.61,2.47,1.68.93,3.1,2.1,3,4.22s-1.8,2.64-3.3,3.33C203.53,408.8,200.06,409.09,195.25,409.14Z"/><path d="M252.28,161.32a69.53,69.53,0,0,1-.58,8c-1,5.44-4.93,9.69-8.62,9.73-4.6.05-11.42-5.49-12.19-10.23-1.08-6.59-.24-12.62,5.94-16.7,1.66-1.1,3.27-2.26,4.92-3.36,5.79-3.89,8.49-2.86,10.06,4.21C252.41,155.66,252.15,158.56,252.28,161.32Z"/><path class="cls-2" d="M214.71,182.46a20.17,20.17,0,0,0,.21-9.77,3.24,3.24,0,0,1-.09-2c4.28-8.93,4-19.93,12.45-27a24.13,24.13,0,0,1,11.54-5.43c2.64-.46,4.49.68,5.56,3.12,1.18,2.67-1.56,2.76-2.64,3.91a9.56,9.56,0,0,1-2.42,1.72c-9.91,5.44-13.5,13.42-10.61,24.56,1.54,5.92-1.31,9.26-7.46,10C219.29,181.85,217.35,182.12,214.71,182.46Z"/><path class="cls-3" d="M258.69,204.58a30.08,30.08,0,0,0-4.18-3.35c-4.37-2.43-5.32-5.84-5-10.79.36-6.7,2.1-12.68,4-19.07,3.23-10.62,3.94-22.25-6.64-30.9a10.6,10.6,0,0,1,7.37,5.82,31,31,0,0,1,3.46,14.4,127.75,127.75,0,0,0,3.85,29.08C262.85,195.2,261,199.9,258.69,204.58Z"/><path class="cls-2" d="M260.86,164.1c1.63.35,2.9.64,4.19.89,3.07.61,8.34-1.19,8.9.62,1.51,4.89,3.44,10.09,2.27,15.51a19.78,19.78,0,0,1-1,3.84c-1,2.37-.65,6.67-4.45,5.95-3.51-.65-7.32-2.23-7.84-7.11C262.21,177.4,260.29,171.13,260.86,164.1Z"/><path class="cls-4" d="M162.91,166.47c-4.43.47-4.29-1.7-3.16-4.76,2.59-7,8.25-9.41,13.41-5.5,1.14.87,2.8,2,1.21,3.58C171.09,163,167.72,166.12,162.91,166.47Z"/><path class="cls-5" d="M282.48,164.78c-5.6-3-11.56-2.32-17.42-2.61-2.07-.1-4.72-.6-4.71-3.38,0-2.57,2.61-2.65,4.46-3.11C271.34,154.08,279,157.8,282.48,164.78Z"/><path class="cls-6" d="M179.24,386.54c1.84-2.3,3.39-6,5.6-6.42,1.89-.39,4.54,2.92,6.85,4.6C186.92,390.17,185.93,390.32,179.24,386.54Z"/><path class="cls-7" d="M238.86,182.22l-9.25-.89c1.35-4.46,3.6-4.56,6.78-2.11,1.25,1,2.93,1.37,4.42,2C240.88,183,239.78,182.44,238.86,182.22Z"/><path class="cls-8" d="M238.86,182.22l1.95-1h6.43C244.28,183.92,241.58,183.14,238.86,182.22Z"/><path class="cls-9" d="M267.42,388.49c-2.22.81-4.45,1.12-6.52-1C263.44,386.37,265.32,388,267.42,388.49Z"/></svg>