<svg id="Layer_1" data-name="Layer 1" xmlns="http://www.w3.org/2000/svg" viewBox="0 0 480 480"><defs><style>.cls-1{fill:#fcfafa;}.cls-2{fill:#010101;}.cls-3{fill:#080808;}.cls-4{fill:#090909;}.cls-5{fill:#0f0f0f;}.cls-6{fill:#2b2a2a;}.cls-7{fill:#fff;}</style></defs><path d="M479.91,240q0,117.92.09,235.83c0,3.27-.45,4.18-4,4.18q-235.86-.18-471.71,0C.53,480,0,479.05,0,475.59Q.15,240,0,4.43C0,1,.46,0,4.26,0Q240.12.2,476,0c3.53,0,4,.85,4,4.15Q479.84,122.07,479.91,240Z"/><path class="cls-1" d="M131.9,418.14a29.57,29.57,0,0,1,1.55-11.09c.87-2.72,2.47-5,5.89-3.48,1.91.86,2.3-.06,2.64-1.57.94-4.22,1.86-8.45,2.93-12.64.41-1.59-.51-2.41-1.25-3.52a67.81,67.81,0,0,1-5.18-8.49,10,10,0,0,1,1.6-11.65A45,45,0,0,0,150.34,346a15.57,15.57,0,0,1,1.81-4.64c12.14-18.61,17.23-40.72,29.53-59.25,2.64-4,3.6-8.51,4.27-13.18a33.06,33.06,0,0,1,2.1-8.69c2.06-4.63,3.54-8.62.2-13.64-2.26-3.4-.76-7.87,1.44-11.38a66.58,66.58,0,0,0,8.76-23.72c.8-4.4,1.9-8.84,5.56-12a2.19,2.19,0,0,0,.92-2.6c-2-4.7-.86-9,1.08-13.46.6-1.38,0-3.26,0-4.92s-.64-3.65.06-4.9c3.67-6.62,4.09-14.64,7.66-20.85,4.74-8.27,12.28-15.17,22.06-17.46,7.93-1.86,23.94,5.41,29,17.47,3,7.06,2.93,14.94,6,22,1.09,2.5-.55,5.15-1.89,7.51-.76,1.34-1.28,2.92-.18,4.22s2.46.11,3.67-.17c4.7-1.08,9.33-2.56,14.21-2.55S293.58,186,293,191c-.81,7.3-6.21,13.11-14.15,14.89A60.34,60.34,0,0,1,270,207c-5.34.38-7.64,2.78-8.24,8.21a23.89,23.89,0,0,1-2,6.11c-2.32,5.75-3.28,11.84-4.62,17.84-1.73,7.73-5.28,14.4-12.07,18.83-1.82,1.19-1.75,2.11-1.14,4,4.58,13.92,8.88,27.91,6.5,42.89,0,.17,0,.34,0,.5-3.83,17,4.9,29.41,15.41,40.94,5.77,6.33,11.81,12.66,14.28,20.81,1.89,6.23,3.64,12.22,7.67,17.38.59.76,1.25,2.25,1.76,2.2,6.15-.6,6.58,4.61,8.39,8.22,2.75,5.49,5.94,10.8,7.41,16.86,1.29,5.28.27,7.1-5.09,7.82-3.59.47-7.45,1.15-10.16-2.32-1.56-2-3.08-.51-4.44,0a31.47,31.47,0,0,1-18.2.79,13.59,13.59,0,0,1-6.53-3.48c-4.33-4.27-3.07-9.75,2.73-11.65a22.18,22.18,0,0,1,4.89-.78c7.26-.6,9.39-4,6.38-10.65-.75-1.64-2.05-3-3-4.59-1.86-3.22-3.8-3.94-7.44-1.89-6.87,3.88-11.35,2.45-15.29-4.55-7.26-12.9-14.2-26-19.39-39.89-3.21-8.6-7.36-16.7-13.4-23.78-2.06-2.41-3.37-2.52-5.34-.11-5.91,7.24-10.76,15.2-16,22.89q-14.19,20.83-26.31,43a50.29,50.29,0,0,1-6.64,9.31,16.89,16.89,0,0,0-3.83,12.93,52.37,52.37,0,0,1-.09,11.81c-.68,5.62-1.3,11.24-2,16.85-.4,3.25-1.12,6.36-4.92,7.28-4.23,1-8.31.4-10.75-3.32C134.74,431.47,131.29,425.31,131.9,418.14Z"/><path d="M242.67,276c-.26,9.32-3.63,17.1-11.26,22.83A132,132,0,0,1,214.84,309a31.7,31.7,0,0,0-11.39,10.25c-13.42,19.84-26.93,39.6-38.37,60.69-1,1.75-2,3.47-3.07,5.14-4,6.12-7,6.56-13,2.13-3.45-2.57-5.61-6.1-7.58-9.77s-1.83-7.42,1.17-10.6c5.06-5.35,8-11.76,9.95-18.75a18.5,18.5,0,0,1,1.86-5.15c12.2-18.76,17.47-41,29.7-59.7a24.74,24.74,0,0,0,4.14-12.15c.09-1.49.54-2.95.77-4.43.67-4.15,1.5-9,4.32-11.48,3.5-3.14,7.31,1.48,10.94,2.64,10.15,3.27,20.39,4.86,31,3.25,2.37-.36,3.67,0,4.52,2.35C241.26,267.5,242.65,271.57,242.67,276Z"/><path d="M253.4,233.06a35,35,0,0,1-3.57,13.11c-4.12,8-10.46,12.52-19.8,12.85-12,.42-23.09-2.6-33.77-7.56-6.18-2.87-8.07-8-4.53-14a82.75,82.75,0,0,0,9.89-27.53c1.13-6.41,5.33-10,10.66-12.94,2.64-1.44,3.56-1,3.42,2-.36,7.89.17,8.28,7.84,5.73,3.34-1.12,5.47-1.32,5.45,3.48,0,8.24,2.16,15.8,8.83,21.42C242.25,233.34,247,235.52,253.4,233.06Z"/><path d="M214.46,312.68c25.11-16.91,25.11-16.91,30.78-29.83a47.44,47.44,0,0,1,1,12.9c-.28,7.82-.65,15.63-.9,23.44-.15,4.64,1.75,8.43,4.14,12.46,6.48,11,16.35,19.27,23,30s6.4,11.39-4.56,17.31c-14.36,7.76-14.5,7.63-22-6.61A317.53,317.53,0,0,1,229,336.27,69.94,69.94,0,0,0,214.46,312.68Z"/><path d="M218.4,198.26c-2.1-7.36,4.33-10.44,7.34-15,1.73-2.6,4.88-4.29,8.69-5.11,13.15-2.81,18.17-15.29,12.08-28.09-.72-1.51-3.94-3.48-1.12-5.08s6-3.86,9.55-.65c5.64,5.15,9.21,11.29,9.87,19,.2,2.34.32,4.72,1.51,6.76,2.2,3.77,2.67,7.42.09,11.23a6.18,6.18,0,0,0-.83,2.83c-.53,5.89-3.55,8.38-9.76,8.34a12.44,12.44,0,0,0-5.28,1.25c-3.21,1.54-6.25,2.81-9.95,1.47-1.77-.65-3.52.57-5.08,1.56a59,59,0,0,1-12.17,5.34C218.29,203.9,217,203.09,218.4,198.26Z"/><path class="cls-2" d="M294.11,417.07c-.3-.05-2,.18-2.49-.47-3.46-5-7.42-2.19-11.49-1.24-5.56,1.31-11.23,1.45-16.6-1-2.49-1.14-4.94-2.88-4.29-6,.61-2.85,3.44-3.42,6-3.5a15.68,15.68,0,0,0,8.1-2c2.61-1.61,4.38-3.75,3.69-7-.49-2.25-.4-3.4,2.39-3.08a10.51,10.51,0,0,0,8.37-2.44c1.62-1.39,2.68-.85,3.46.81,3,6.31,6.16,12.52,8.74,19C302.29,416,301.21,417.13,294.11,417.07Z"/><path class="cls-2" d="M226.3,179.33c-4.79,2.53-6.16,7.4-9.42,10.7-1.52,1.55-2.77,3.29-4.87,4-1.51.53-3,2.73-4.32,1.58a5.37,5.37,0,0,1-1-5.63c2-4.71.91-10.07,2.19-14.34,2.37-7.95,4-16.6,8.41-23.6,3.48-5.56,9.45-9.75,15.45-13,5.06-2.78,10-.8,15,1.46a11.58,11.58,0,0,1-8,2.35c-5.38-.27-9.3,2.31-11.85,6.84-3,5.35-8.12,10-6.08,17.19.16.55-.29,1.27-.48,1.9C219,176.13,219.07,176.34,226.3,179.33Z"/><path class="cls-2" d="M290.35,190.31c-.57,3.65-1.81,7.34-5.37,9.84-3.21,2.25-6.84,4.07-10.65,3.66-11-1.18-15.21,5.59-17.72,14.36-.78,2.7-2.09,4.21-4.67,4.19-2.83,0-3.71-2.41-4.46-4.67a3.58,3.58,0,0,1,.65-3.65c4.24-5.52,8.52-11,12.35-16.83a17.08,17.08,0,0,1,10.58-7.64c4.84-1.19,9.63-2.63,14.61-3.08C289.3,186.17,290.3,187,290.35,190.31Z"/><path class="cls-2" d="M228.49,176.2a29.32,29.32,0,0,1-3.61-.51c-1.92-.44-2.9-1.59-1.9-3.63a16,16,0,0,0,1.34-9.17c-.44-3.91,7.53-15.43,11.24-16.74,2.82-1,5.1-1.11,6.92,2.32,3.5,6.63,5.85,13.15,1.56,20.19C240.84,173.91,235.94,176.32,228.49,176.2Z"/><path class="cls-2" d="M258.38,195.6c-3.69,5.13-6.61,10.25-10.57,14.36-3.33,3.47-4,6.62-2.11,10.67s5.09,5.49,9.49,4c-.83,6-5.13,8.48-10.58,6.09A19.54,19.54,0,0,1,233,217.17a78.1,78.1,0,0,1-1.54-12.34c-.19-2.25,5.76-7.6,8.42-6.77,5.12,1.61,9-.77,13.3-2.41A8.22,8.22,0,0,1,258.38,195.6Z"/><path class="cls-2" d="M154.22,411.39c-1.05,7-2.32,14.21-2.66,21.54-.1,2-.31,4.49-3.12,5.09-3,.64-5.81.3-7.66-2.3-5.8-8.17-7.88-17.12-5-26.93.39-1.32.48-3.31,2.68-2.59,2,.65,1.39,2.13.9,3.68-.41,1.28-1.63,3.32.17,3.95,2.14.74,1.68-1.84,2.35-3a2.43,2.43,0,0,0,.14-.48c2.29-6.35,4.92-7.33,10.77-4.13C155.07,407.47,153.65,409.51,154.22,411.39Z"/><path class="cls-3" d="M279.84,390.16c-2.66-.05-6.17,0-5.52-2.75.46-2,4-4.18,6.43-4.49,2.08-.26,3.7,3.34,3.75,5.18C284.58,391.22,281.25,389.52,279.84,390.16Z"/><path class="cls-4" d="M146.71,393.55c1.35,4.37,9,.18,7.16,7.4-.87,3.42-2.94,2.06-4.93,1.63C143.34,401.4,145.7,397.87,146.71,393.55Z"/><path class="cls-5" d="M272.85,384.3c-1.89.08-3.33-1.45-3.05-2.18,1.17-3,4.64-3.11,7.07-4.56,1.4-.85,2.31,1.17,2.1,1.81C278,382.34,274.83,382.78,272.85,384.3Z"/><path class="cls-6" d="M155.7,393.4c-3.68,1.4-6.4.12-9-3.31C150.45,390.28,152.62,393.18,155.7,393.4Z"/><path class="cls-7" d="M99.09,247.84a20.3,20.3,0,0,0-17.49,9.43,27.27,27.27,0,0,0-3.3,8.63c-.2.94,1.24,1.34,1.45.4,1-4.62,2.92-9.09,6.48-12.3A18.42,18.42,0,0,1,95,249.74a21.36,21.36,0,0,1,4.14-.4.75.75,0,0,0,0-1.5Z"/><path class="cls-7" d="M48.39,188.33a.75.75,0,0,0,0-1.5.75.75,0,0,0,0,1.5Z"/><path class="cls-7" d="M151.32,140.82a1.13,1.13,0,0,0,0-2.25,1.13,1.13,0,0,0,0,2.25Z"/><path class="cls-7" d="M159.7,276.31a.75.75,0,0,0,0-1.5.75.75,0,0,0,0,1.5Z"/></svg>