<svg id="Layer_1" data-name="Layer 1" xmlns="http://www.w3.org/2000/svg" viewBox="0 0 480 480"><defs><style>.cls-1{fill:#fcfbfa;}.cls-2{fill:#010101;}.cls-3{fill:#030303;}.cls-4{fill:#080808;}.cls-5{fill:#121212;}.cls-6{fill:#212121;}.cls-7{fill:#fff;}</style></defs><path d="M479.91,240q0,117.92.09,235.83c0,3.27-.46,4.17-4,4.16q-235.85-.17-471.71,0C.51,480,0,479,0,475.59Q.15,240,0,4.43C0,1,.47,0,4.26,0Q240.12.2,476,0c3.54,0,4,.86,4,4.16Q479.84,122.09,479.91,240Z"/><path class="cls-1" d="M280.4,229.06c-3,7.3-4.67,14.61-6.39,21.88-1.5,6.37-4.2,11.25-11.73,11.91,10.14,16.56,6.1,31.24-5.06,45a5.79,5.79,0,0,0-1.29,4.1c.18,7.71-1.21,15.24-2.47,22.8-1.15,6.86.4,12.17,6.43,17,9.11,7.26,16,16.71,21.16,27.3,1.87,3.85,7.15,7.32,11.5,7.08a4.17,4.17,0,0,1,4.46,2.53c3.22,7.64,6.89,15.09,9.37,23,1.33,4.27-.66,6.27-4.45,7.27s-7.73,1.54-11.24-.28c-2.82-1.46-4.87-1.27-7.72,0-5.68,2.54-11.78,3.63-18,2.17-3.05-.71-5.72-2.12-6.34-5.56-.58-3.15,1.15-5.42,3.43-7.28,3.31-2.71,7.51-3.48,11.31-5.12,2.36-1,4.89-2.11,5-5,.09-2.66-2.91-2.74-4.53-4-4.1-3.13-8.28-4.28-12.74-.45-1.09.93-2.7,1.27-4.1,1.79-7.23,2.65-8.1,2.3-11.73-4.42-3.4-6.29-6.49-12.78-10.31-18.8a75.53,75.53,0,0,1-11.73-42.68c.07-4.1-1-5.16-5-3.65-5.8,2.18-12,2.58-18.15,3.11-3.8.32-5.88,2.07-7,5.83-3.41,11.49-5.18,22.81-1.72,34.81a39.24,39.24,0,0,1-1.18,26.79c-2.4,5.81-.94,13.26-1,20,0,3,.75,6.26-2.82,7.74-3.86,1.58-8.1,3.28-11.79.16-2-1.65-3.52-1.2-5.44-.85-5.07.91-10.12,2.21-15.32.9-2.88-.73-5.55-1.89-5.93-5.22-.35-3.12,2-4.71,4.32-6.14,4-2.49,8.78-3.1,13.18-4.49,7-2.21,10.23-10.67,9.79-16.57-.27-3.65-.94-7.28-1-10.93a4.77,4.77,0,0,0-2.55-4.32,80.39,80.39,0,0,0-13.62-7.24c-5.69-2.38-6.77-4.61-5-10.58,3.68-12.78,7.72-25.46,11.4-38.24,2.35-8.14,7.45-14,14.44-18.39C190,295,201.43,288.23,213.29,282.2a5.6,5.6,0,0,0,3.51-4.75c.64-4.26,1.8-8.45,2.57-12.7.73-4.05,3.08-8.07-.22-12.24-1.08-1.37-.08-3.55.63-5.27a23,23,0,0,0,.7-15.16c-1-3.74-1.89-7.83.11-11.25,6.76-11.59,5.25-24.05,4.81-36.54-.42-11.61,1.83-22.55,10.38-31.29,7.78-7.94,17.44-10.28,27.5-6.74,9.72,3.41,13.48,12.15,13.29,22-.16,8.44,4,15.67,5.25,23.68,1,6.16,3.34,12.13.58,18.43-1.25,2.84.75,4,3.11,4.3,2,.28,4,.09,6,.28,11.16,1,14.09,7.1,15.19,16.51.67,5.68-6.79,9.95-13.72,8.23a14.07,14.07,0,0,1-8-5.57C283.67,232.41,282.87,230.29,280.4,229.06Z"/><path d="M219.11,278.72c1.42-6.53,2.85-13.15,4.31-19.76.27-1.23.72-1.92,2.38-1.67,8,1.23,16.18,2,24.2,3.43,9.47,1.67,14.06,7,15.15,16.69,1.61,14.39-6.85,30.37-20.48,36.46-13.38,6-27.35,10.47-42.07,11.95-9.33.94-10.15,1.52-12.79,10.36-3.28,11-4.7,22-1.16,33.37,2.19,7,.82,8.3-6.62,7.91a13.29,13.29,0,0,1-6.22-1.64c-5.86-3.47-11.55-7.22-18-9.6-2.83-1-3.47-3.36-2.61-6.15,4.41-14.29,8.74-28.62,13.28-42.87,1.76-5.52,6-9.21,10.73-12.12,14-8.67,27.78-17.71,43.2-23.78a5.66,5.66,0,0,0,1.39-.54c1.36-1,4.4-1.53,3.48-3.41-1.23-2.53-2.89.56-4.44.84C221.76,278.39,220.85,279.42,219.11,278.72Z"/><path d="M252.79,312c.85,6.72-.55,12.53-1.36,18.37-.51,3.61-1.33,7.18-1,10.89a14.53,14.53,0,0,0,6.36,11.3c8.93,6.27,14,15.87,20.54,24.2,1.64,2.11,1.26,4.06-1.15,5.37-7.29,3.94-14.26,8.54-22.19,11.26-2.28.79-3.94.85-5.31-1.76-5.33-10.15-10.86-20.2-16.33-30.27-6.12-11.26-6.09-23.65-6.71-35.94-.12-2.22,1.33-2.25,2.76-2.72C236.72,320,245.34,318,252.79,312Z"/><path d="M227.17,215c3,.88,2.83,6.27,6.56,5.07,3.11-1,1.69-5.07,3.11-7.44.85-1.42,1.72-2.82,2.92-4.76,5.09,8.77,15,9.91,22.2,15.3,3.56,2.67,8.29,2.09,12.56,2.55,3,.32,3.83,1.07,2.68,4.38-2.44,7.05-4.24,14.32-6.21,21.52-1.86,6.83-5.77,10.06-12.35,8.26-9.87-2.71-20-2.95-30-4.69-7.34-1.29-7.92-2.2-5.6-9.06a22.89,22.89,0,0,0,.11-14.22C221.2,225.38,222.68,219.82,227.17,215Z"/><path d="M266.2,222.15c-6.78-3.63-13.16-6.77-19.23-10.43-4.25-2.55-5.64-6.82-4.38-11.61,1.13-4.29,5.76-7.39,10.81-7a58.44,58.44,0,0,0,14.35-.31c5.87-1,15.95,7.57,12.91,14.61-.79,1.81-1.34,2.81-3.84,2.69C268.48,209.65,265.22,213.32,266.2,222.15Z"/><path class="cls-2" d="M244.58,191.9c2.88-5,5-8.79,8.91-11.41,9.89-6.68,11.15-14.67,4.29-24.46-1-1.46-4.49-2.6-2.24-5.06s5.49-3.75,8.88-1.42a21,21,0,0,1,8.86,12.82c1.28,5.38-.29,11.16,1.87,16.3,2.08,5,3.1,10.05,4,16.1-5.45-4.89-11.13-5-17.53-4C256.39,191.59,250.83,189.37,244.58,191.9Z"/><path class="cls-2" d="M295.7,417c-.37,0-1.82.24-2.62-.36-4.79-3.59-9.11-1.43-13.75.45a22,22,0,0,1-13.21,1.25c-2.18-.49-4.45-1.13-4.85-3.61s1.38-4.12,3.31-5.11c3.1-1.57,6.35-2.83,9.59-4.11s6.28-3.12,6.92-7.09a3.12,3.12,0,0,1,2.44-2.75,11.1,11.1,0,0,0,6.17-4.69c1.94-2.93,4.08-3.21,5.67.61,2.29,5.52,4.76,10.95,7.1,16.44C305.38,414.79,304,416.89,295.7,417Z"/><path class="cls-2" d="M233.1,216.48c-5.58-4.27-6.34-9.34-4.83-15.15,1.11-4.26.45-8.58.1-12.9-1-12.84.41-25,10.38-34.54a21.23,21.23,0,0,1,15.18-6c-.85,2.13-2.43,2.72-4.13,3.28-12,4-17.4,16.92-13.65,27.22,1.67,4.6,3,9.34,4.68,13.91,1.42,4-.59,10.05-3.57,14.45C235.29,209.62,233.39,212.51,233.1,216.48Z"/><path class="cls-2" d="M243,189.55c-6.82-13.56-8.18-28.1,5.16-34.72,2.44-1.21,4-1.44,5.87.94,2.92,3.77,5.25,7.64,5.23,12.61,0,3-1,5.77-3.52,7.31C250.23,179,245.74,183.22,243,189.55Z"/><path class="cls-2" d="M186.29,411.81c0,1.33,0,2.66,0,4,0,2.19,1.41,4.92-1.75,6s-6.43,2.71-9.14-.65c-1.68-2.08-3.53-1.23-5.43-.82-4.88,1.05-9.75,2.16-14.79,1.41-2-.3-4.36-.87-4.57-3.12-.18-1.91,1.89-3,3.55-3.75,4.65-2.21,9.94-2.6,14.49-5.16,3.24-1.81,6.47-3.59,7.35-7.58.64-2.87,2.69-2.29,4.22-1.49,2,1,6-1.48,6,3.24,0,2.65,0,5.3,0,7.95Z"/><path class="cls-2" d="M295.78,237.19c-4.06,0-6.89-2.11-9-5.32-3.37-5-7.25-9-13.95-9.13a4.37,4.37,0,0,1-4.21-4.25,4.58,4.58,0,0,1,2.8-4.85c2.7-1.33,6-2,7.87.4,2.46,3.27,5.46,3.17,8.78,3.31,9.89.42,13.09,2.67,15.22,10.5C305,234.17,302.55,237.19,295.78,237.19Z"/><path class="cls-3" d="M190.23,385.77c-.2,4.29-2.29,7.54-3.88,10.93-1.35,2.88-3.78.55-5.7.76s-2.37-.93-2.6-2.74c-1-7.63-1.06-7.63,6.72-8.45C186.53,386.09,188.3,386,190.23,385.77Z"/><path class="cls-4" d="M274.7,391.2c2.69-1.61,5-2.66,6.23-5,.72-1.36,1.65-1.69,2.6-.34,1.09,1.55,4.78,2.13,2.85,4.78a7.14,7.14,0,0,1-7.88,2.79C277.28,393.08,276.24,392.13,274.7,391.2Z"/><path class="cls-5" d="M182.37,380.18c1.53-.13,3.69-.22,5.82-.54,1.43-.22,2.26.11,2.4,1.62.13,1.34-.82,1.68-1.86,1.79-3.13.32-6.26.58-9.39.91-2,.22-2.55-.76-2.58-2.59,0-2.88,1.78-1.48,3-1.45C180.43,379.94,181.08,380.05,182.37,380.18Z"/><path class="cls-6" d="M277.93,385c-1.12,2.34-2.94,3.42-6.06,3.35C273.75,386.18,275.88,385.63,277.93,385Z"/><path class="cls-7" d="M71.6,286A10.1,10.1,0,0,0,63,290.65a13.52,13.52,0,0,0-1.62,4.2c-.11.48.62.68.72.2a11.11,11.11,0,0,1,3.21-6,9.09,9.09,0,0,1,4.28-2.11,10,10,0,0,1,2-.21.38.38,0,0,0,0-.75Z"/><path class="cls-7" d="M154,139.3a.75.75,0,0,0,0-1.5.75.75,0,0,0,0,1.5Z"/></svg>