<svg id="Layer_1" data-name="Layer 1" xmlns="http://www.w3.org/2000/svg" viewBox="0 0 480 480"><defs><style>.cls-1{fill:#fbf9f9;}.cls-2{fill:#010101;}.cls-3{fill:#020202;}.cls-4{fill:#101010;}.cls-5{fill:#191818;}.cls-6{fill:#181717;}.cls-7{fill:#414040;}.cls-8{fill:#fff;}</style></defs><path d="M479.91,240q0,117.92.09,235.83c0,3.27-.45,4.18-4,4.17q-235.85-.17-471.7,0C.52,480,0,479.05,0,475.59Q.15,240,0,4.43C0,1,.46,0,4.26,0Q240.12.2,476,0c3.53,0,4,.85,4,4.15Q479.84,122.07,479.91,240Z"/><path class="cls-1" d="M273,198.65c8.85-3.79,16.78-5.74,25.08-1.85,3.5,1.64,6.17,4,7.36,7.67,1.09,3.37,2.14,7-1.19,9.67a9.58,9.58,0,0,1-11.64.8c-2.26-1.36-4.06-3.45-6.25-4.93-5.5-3.71-7.85-2.38-9.58,3.85a25.21,25.21,0,0,1-7.7,12.06,7.47,7.47,0,0,0-2.73,3.93C264.22,238.46,261.12,247,256,254c-3.73,5.19-2.88,8.34-.49,13.35,3.34,7,2.77,14.7,0,21.92a31.88,31.88,0,0,0-2,11.65c0,8.47.15,16.94-.51,25.41-.44,5.56,1.33,10.67,5.88,14.21,10.61,8.23,16.12,20.17,23,31.1a5,5,0,0,1,.82,3.76,7.48,7.48,0,0,0,7.15,8.45c2,0,3.52.4,4.46,2.41,2.61,5.57,5.36,11.07,8,16.63,1.76,3.72,3.23,7.69,0,11.19-3.43,3.66-8.29,4-12.55,2.52a12.84,12.84,0,0,0-9.09.26c-5.9,2.08-11.92,3.21-18.13,1.57-3.29-.87-6.7-2.1-7.27-5.95s2.52-6,5.55-7.44c3.59-1.72,7.4-3,11.08-4.5,4.11-1.73,4.58-3.53,2-7.27a17.9,17.9,0,0,1-1.2-1.59c-2.46-4.5-5.52-5.75-9.61-1.89a1.55,1.55,0,0,1-.45.21c-11.22,5.91-13.17,5.2-18.19-6.35-1.79-4.11-3.61-8.23-5.76-12.17a185.11,185.11,0,0,1-18.84-49.77c-.6-2.81-1.29-4-4.44-2.43-17.49,8.46-31.22,19.94-35.83,40.12-2.22,9.7-7.09,18.3-12.44,26.92s-11.12,18.33-9.8,29.79c.38,3.29.31,6.89-3.29,8.75s-7.07.57-10.3-1.54c-2.37-1.54-4.91-2.81-7.26-4.38-4.11-2.74-6.2-8-4.9-12.13,1.71-5.33,5.87-5.84,10.47-5.13,3.85.6,6-1.18,7.22-4.55,1.53-4.1,1.79-8.44,2.64-12.67.51-2.51-1.22-3.1-2.75-4.06-5.12-3.22-9.74-6.93-12.64-12.45-2-3.86-2-7.13,1.47-10.3,12.43-11.52,20.58-26,28-41s17.28-28.42,32.33-37.05c.94-.53,2.13-.79,2.21-2.36.41-7.89,3.5-15.17,5.38-22.73.51-2,.63-3.6-1.33-5.17-4.09-3.27-4-7.54-1.49-11.62,4.3-6.89,6.49-13.9,4.73-22.24-1.12-5.32,2.95-9.31,6.2-13.09,1.31-1.53,1-2.42.68-4.35-1-6.6-2.53-13.68.6-20a42.23,42.23,0,0,0,4.15-14.69c1.82-16.88,16.52-28.08,33-25.48a22.61,22.61,0,0,1,19.36,22.57c.05,10.41,1.45,20.71,2.69,31C274.85,193.76,274.13,195.67,273,198.65Z"/><path d="M203.53,276.1c.84-8,4-15.35,5.79-23.49a75.5,75.5,0,0,0,36.74,6.8c1.75-.11,2.63.76,3.52,2.16A32.11,32.11,0,0,1,241.05,305a59.87,59.87,0,0,1-16.53,8,92.87,92.87,0,0,0-30.45,16.58c-8.51,6.77-13,15.8-16,25.83-2.5,8.29-5.11,16.49-9.44,24.08-2.19,3.85-4.55,5-8.84,3-7.51-3.4-14.68-7.08-19.59-14-2.53-3.57-2.89-6.52.85-9.93,11.88-10.83,19.76-24.54,26.63-38.84,8.75-18.22,20.78-33.2,39.73-41.65a20.12,20.12,0,0,0,2.21-1.15c.87-.54,1.76-1.22,1-2.36-.52-.77-1.38-.65-2.24-.31C206.83,274.84,205.62,276.19,203.53,276.1Z"/><path d="M236.28,189c1.52,8.56,2.49,9.16,9.55,5.92a38.11,38.11,0,0,0,3.48,18.72c2.65,5.88,5.86,11.27,12.43,13.48,2.28.77,2.09,2.25,1.49,3.94a159.12,159.12,0,0,1-9.71,22.34c-1.06,2-2.75,2.63-4.89,2.85a72.92,72.92,0,0,1-38.78-6.69c-6.08-2.84-7-6.2-3.39-12,4.07-6.61,6.14-13.51,4.3-21.32-.8-3.36.91-6.09,2.8-8.71C219.45,199.39,228.21,194.92,236.28,189Z"/><path d="M250.31,300.28c0,8.29.39,15.41-.1,22.48-.61,9,1.73,16.27,9,22,9.44,7.4,13.84,18.53,20.25,28.17.89,1.32.32,2.09-.77,2.85-7.49,5.19-14.42,11.27-23.22,14.37-2.53.88-4.65,1-5.81-1.79-8.2-19.75-20.2-37.88-25-59.08-.84-3.73-3.17-7.75-2.37-11,.92-3.74,6.34-3.06,9.62-4.72C238.48,310.17,245,306.87,250.31,300.28Z"/><path class="cls-2" d="M271.41,195.15c-4.29-2.72-7.34-6.35-12.17-7.3A16.92,16.92,0,0,0,244,192c-2.43,2.13-3.78,2.69-4.36-1.73-.67-5.16.75-8.67,4.93-11.48a31.56,31.56,0,0,0,11.21-13.12c2.57-5.55,1.68-11-.62-16.42-.54-1.28-3.55-2.85-.77-4.28,2.07-1.07,4.47-2.67,7.2-.23,5.07,4.52,7.76,10,7.39,16.72-.27,4.88.68,9.49,1.36,14.25C271.23,182,270.42,188.6,271.41,195.15Z"/><path class="cls-2" d="M292.44,414.34c-6.71-4.86-13.78,1.41-21.33,1.9a24.5,24.5,0,0,1-8.34-.69c-1.89-.53-4.17-1.1-4.54-3.37s1.8-3.32,3.48-4.35c3.13-1.91,6.63-3,10.07-4.2,6.33-2.25,7.24-3.75,5.56-10.22-.45-1.76.2-1.94,1.37-2.36,3.89-1.41,8-4.39,11.58-3.9,3.83.52,3.57,6.43,5.85,9.6a37.76,37.76,0,0,1,3.77,7.55C302.8,411.17,301.08,413.89,292.44,414.34Z"/><path class="cls-2" d="M253.61,141.3a8.75,8.75,0,0,1-5.23,2.49c-11,1.66-18.49,10.07-18.7,20.94-.06,3.31,0,6.63,0,9.94s1.2,5.39,4.47,6.28,3.9,3.18,1.36,5.07c-5.33,4-10.91,7.58-16.33,11.41-2.08,1.47-2.49-.12-2.32-1.41.9-6.9-1.95-14.27,3-20.73,2.37-3.11,2.15-7.24,2.36-11.06C223,149.74,238.73,136.19,253.61,141.3Z"/><path d="M232.8,167.47c-1.25-5.15,1.58-10.09,4.66-14.89a13.35,13.35,0,0,1,3.47-3.52c6.07-4.33,9.94-3.05,12.36,3.92,2.57,7.4-.13,14.9-8,21.39-2.19,1.81-4.08,4.08-7.68,3.91-3.93-.19-5.54-1.4-4.86-5.38A37.54,37.54,0,0,0,232.8,167.47Z"/><path class="cls-3" d="M303.57,209.35c.07,2.77-3.12,4.91-7.09,4.13-2.79-.54-4.47-2.71-6.56-4.32-7-5.44-13.34-6.29-17.3,3.32-1.05,2.56-3.37,3.54-5.58,4.62a2.7,2.7,0,0,1-3.82-1.28,6.61,6.61,0,0,1,.26-7.12c5.49-8.07,24.08-13.26,33.11-9.48C300.87,201,303.11,204.17,303.57,209.35Z"/><path class="cls-2" d="M270.37,219.75c-4.23,5.92-5.86,6.28-10.69,3.12-6.61-4.31-12.63-20-10.63-27.69,1.14-4.34,4.79-5.79,10.53-4.16,4.21,1.2,6.71,4.76,9.91,7.34,1.27,1,.29,2-.8,2.73-1.26.81-2.45,1.72-3.7,2.53-4.72,3.06-6.58,7.53-5.06,12.17C261.57,220.75,265.4,220.87,270.37,219.75Z"/><path class="cls-3" d="M148.94,422.63c-4.13-2.27-9.9-4.12-13.54-9.11a6.11,6.11,0,0,1-.49-7c1.55-2.5,4-2.61,6.59-2a7.9,7.9,0,0,0,7.44-1.58c2.07-1.82,4.26-.3,6.08.18,2,.54,0,2.44,0,3.75.06,3.8-.07,7.6-.32,11.39C154.52,420.92,153.56,423.13,148.94,422.63Z"/><path class="cls-4" d="M160.38,393.69c-2.14,2.5-1.41,7.12-6.52,6.12-1.72-.34-1.83-1.05-1.65-2.73C152.77,391.78,156.13,392.62,160.38,393.69Z"/><path class="cls-5" d="M157.82,389.86c-.5-.26-3.91,1.25-3.39-2.71.15-1.07-.18-3.46,1.43-2.91,2.46.84,6.11.55,7,3.53C163.41,389.6,161.35,390.83,157.82,389.86Z"/><path class="cls-6" d="M272.51,388.29c3.4-2.23,6.36-3.2,8.61-5.26,1-.93,1.68.35,2.27,1.08s1.28,1.5.17,2C280.42,387.41,277.36,389.36,272.51,388.29Z"/><path class="cls-7" d="M279,378.9c-.57,3.4-2.93,4.39-5.93,4.59Z"/><path class="cls-8" d="M89.23,263.42C83,263,77.05,265.74,74,271.35a23.78,23.78,0,0,0-2.48,8c-.07.47.66.68.72.2.62-4.24,2.06-8.54,5.26-11.55a14.54,14.54,0,0,1,7.9-3.67,18.74,18.74,0,0,1,3.82-.14c.48,0,.48-.72,0-.75Z"/><path class="cls-8" d="M41.26,181.66a.75.75,0,0,0,0-1.5.75.75,0,0,0,0,1.5Z"/><path class="cls-8" d="M154.19,143.78a.75.75,0,0,0,0-1.5.75.75,0,0,0,0,1.5Z"/></svg>