<svg id="Layer_1" data-name="Layer 1" xmlns="http://www.w3.org/2000/svg" viewBox="0 0 480 480"><defs><style>.cls-1{fill:#fbf9f9;}.cls-2{fill:#010101;}.cls-3{fill:#020202;}.cls-4{fill:#060606;}.cls-5{fill:#0b0a0a;}.cls-6{fill:#0e0e0e;}.cls-7{fill:#121212;}.cls-8{fill:#2b2a2a;}.cls-9{stroke:#fff;stroke-linecap:round;stroke-miterlimit:10;stroke-width:3px;}.cls-10{fill:#fff;}</style></defs><path d="M479.91,240q0,117.92.09,235.83c0,3.27-.44,4.18-4,4.18q-235.86-.18-471.71,0C.53,480,0,479.05,0,475.59Q.15,240,0,4.43C0,1,.46,0,4.26,0Q240.12.2,476,0c3.53,0,4,.84,4,4.15Q479.84,122.07,479.91,240Z"/><path class="cls-1" d="M299.9,419.19c1.87,6-1.27,9.9-4.88,13.34a26.19,26.19,0,0,0-5.28,6.48c-3.83,7-10.13,10.47-17.9,10.95-8.66.55-12.72-5.81-8.57-13.39,2.71-4.95,6-9.57,9.1-14.31,1-1.53,2.24-2.94,2.5-4.82.47-3.53-1.64-5.14-5-4-7.28,2.45-14.09,2.11-19.9-3.64-1.45-1.44-2.73-3.07-2.81-5.14-.33-8.24-4.39-14.94-8.94-21.32a55.21,55.21,0,0,1-10.46-27.66c-.76-8.61-1.63-17.22-2-25.85s.71-17.26,4.39-25.35A35.33,35.33,0,0,0,233,287.4a54.46,54.46,0,0,1,3.15-22.07c2.77-7.67,1.21-10.91-6.11-14.25-6.72-3.07-7.75-4.63-6.84-11.9,1.05-8.32,3.24-16.36,7.85-23.47,2.28-3.52,2.3-6.46.89-10.52-4.3-12.42-6-25.52-8.79-38.34-.86-3.95,1.35-7.79,2.31-11.65,1.09-4.44,3.81-8.51,2.9-13.43-.32-1.71,1.46-2.73,2.58-3.36,3.83-2.17,4.7-5.77,5.29-9.58a76.81,76.81,0,0,0,1.08-8.91c.24-7.52,5.93-10.34,11.37-13.17,2.82-1.46,5,.76,4,4.45A115.44,115.44,0,0,1,246.18,130c-4.69,10-5.07,20.85-5.12,31.67a4,4,0,0,0,2.25,3.45,37.48,37.48,0,0,1,9.08-9.63c8.7-6.41,18.22-6.09,26.47.88a14.37,14.37,0,0,0,2.68,2.23c9.24,4.44,9.58,13.23,10.3,21.6.36,4.21,0,7.8,4.72,10.4,4.14,2.27,5.88,7.1,6.36,11.94a39.64,39.64,0,0,1-2.11,16.23c-.81,2.45-2.1,4.61-5.13,4.68-.88,0-1.67.07-2.16.87-4.19,6.91-9.84,13.3-8.5,22.28.58,3.87.41,7.29-3.41,9.57-2.45,1.47-.48,2.82.38,4,3.85,5.24,7.67,10.49,9.62,16.81a34,34,0,0,1-1.38,24.87c-7.64,16.64-11.61,34.26-14.51,52.19-.66,4.08-1,8.22-1.62,12.3-.35,2.16.81,3.47,2.08,4.78,4.05,4.16,8.11,8.29,11.9,12.72,1.86,2.18,3.85,5,7.9,3.47,1.79-.67,3.44,1.16,4,3,1.47,4.89,4.55,8.81,7.27,13C313.05,412.14,310.61,417.42,299.9,419.19Z"/><path d="M239.83,290.47c-2.14.16-2.17,2.18-3.79,3.12-.61-10-1-19.64,3.42-28.58,12.48,4.52,24,.88,35.14-4.19,2.58-1.18,3.51-1.2,5.4,1.09,10.88,13.2,13.93,27.46,6.15,43.14-6.76,13.63-9.23,28.37-12.18,43.05-1.31,6.54-1.84,13.14-2.75,19.71a33.94,33.94,0,0,0,5,23.37c4.88,7.87,3.69,12.54-3.59,17.66-6.91,4.85-16,4.28-21-1.29a6.48,6.48,0,0,1-1.87-4c-.46-8.17-4.39-15-9-21.34a53.61,53.61,0,0,1-10.34-26.65c-.87-8.95-1.76-17.91-2.08-26.88A56.15,56.15,0,0,1,237.49,296C238.49,294.45,240.25,293.09,239.83,290.47Z"/><path d="M236.57,212a10.79,10.79,0,0,0,6.12,8.72c3.17,1.57,6.94,1.41,10.18,4.31,1.62,1.44,3.66-3,5.12-5.07,1-1.46,1.28-2.8,3.95-2.28,9.41,1.86,11.92-.41,11.92-9.77a5.62,5.62,0,0,1,.37-1.42c5.82.24,10.28,2.29,11.86,8.43a4.12,4.12,0,0,0,1.18,2.17c5.32,3.95,3.16,7.67.15,11.88-4.17,5.84-6.39,12.35-4.91,19.73.78,3.88-2.09,5.35-4.9,6.47-13.91,5.58-27.32,3.6-40.35-2.95-1.92-1-3.57-2.72-5.56-3.24-5.75-1.49-6.47-5.36-5.7-10.31A60.86,60.86,0,0,1,236.57,212Z"/><path class="cls-2" d="M263.72,154.84c-3.62,3.33-7.2,6.09-10.1,9.42-5.89,6.75-5.82,10.71-1.23,18.37,2.2,3.67,3.68,7.76,5.5,11.65.71,1.5,0,2.44-1.07,3.44a41.13,41.13,0,0,0-4.43,4.72c-2.75,3.63-2.42,7.79.87,10.3,4.61,3.52,2.77,6.07-.23,9.38-1.55-3.46-3.32-5.4-7.78-3.66-1.89.75-3.89-3.2-5.58-5.27-.29-.36-.19-1-.44-1.42-5.5-9.28-6.45-18.12,1.11-27.13,2.57-3.06,2.4-7.85,3.31-11.9,2-9.05,7.93-14.69,16.26-18.11a7.9,7.9,0,0,1,1.94-.42C262.12,154.18,262.42,154.39,263.72,154.84Z"/><path d="M285.13,401.23c4.59,4.94,5.43,10.66,8.57,15.16,5.35,7.66,5,9.27-2,15.31a20.74,20.74,0,0,0-4.38,6c-3.55,6.38-9.24,9.39-16.36,9.54-5.83.11-8.29-3.78-5.48-8.89s6.27-10.15,9.61-15.09c2.06-3.06,3.57-6.16,1.8-9.73-1-2.05.23-2.53,1.49-3.37C281.44,408.08,284.4,405.91,285.13,401.23Z"/><path class="cls-2" d="M274,177c-.62,5.59-2.14,9.5-5.63,12.5-4,3.46-9.1,2.16-11-2.78a34,34,0,0,0-2.75-5.82c-3.83-6.14-3.87-8.73.6-14.31,1.85-2.31,4.27-4.18,6.2-6.44,2.61-3,4.88-2.6,6.33.74C270.17,166.5,272.19,172.27,274,177Z"/><path class="cls-2" d="M272.18,192.28A30.65,30.65,0,0,1,290,190.37c4.92.81,7.85,4.23,9.29,8.75,2.12,6.62.78,13.13-1.42,19.48-.78,2.23-2.34,2.52-4.29,1.2a15.25,15.25,0,0,1-5.28-6.46c-.77-1.65-1.57-3.28-2.31-4.94-1.74-3.9-8.39-2-8.73-6.3A12.49,12.49,0,0,0,272.18,192.28Z"/><path class="cls-2" d="M231.43,192.55c-1.16-5.35-1.62-11-3.64-16-4.37-10.78.38-20.25,3.34-30,1.14-3.76,4.21,0,6.41-.75s1.53,1.47,1.45,2.58c-.22,3.15-.68,6.29-.85,9.44-.09,1.64-.29,3.56.42,4.91C244.88,174.67,237.87,183.53,231.43,192.55Z"/><path class="cls-2" d="M273.59,188.57c6-12.64.22-22.35-5.86-32-.48-.75-2-1-1.31-2.28.59-1.05,1.74-.62,2.7-.4,3.88.89,6.41,4,9.67,5.83,10.68,5.91,10,16,10.53,25.88.11,2.15-1.19,1.6-2.19,1.54A50.57,50.57,0,0,0,273.59,188.57Z"/><path class="cls-2" d="M265.75,215.57a17.51,17.51,0,0,1-7.55-2.12c-5.46-3-6.09-7.09-1.79-11.56a37,37,0,0,1,9.14-6.76c3.18-1.73,5.38-.75,7.35,1.53s2.46,4.51-.16,6.93a6,6,0,0,0-1.59,6C272.54,214.56,269.45,215.25,265.75,215.57Z"/><path class="cls-3" d="M285.05,398.1c4.83-1,8.31-2.49,9.58-7.08.51-1.81,2.32-1.35,2.78.31,1.74,6.27,6.27,10.89,9.36,16.36,1.91,3.38.86,5.93-2.28,7.37-2.94,1.36-6.37,2.57-8.83-1a30.65,30.65,0,0,1-3.45-6.59C290.81,403.89,289,400.61,285.05,398.1Z"/><path class="cls-4" d="M250.32,108.66A62.89,62.89,0,0,1,245.44,125c-2.05,4.88-4.74,9.43-5.18,14.88A3.09,3.09,0,0,1,237,143c-1.92,0-3.6-.14-2.1-2.64,3.91-6.49,4.51-13.81,5.22-21C240.74,113.33,245.72,112,250.32,108.66Z"/><path class="cls-5" d="M264.89,261.31A40.32,40.32,0,0,1,247,264.23c-4.74-.31-5.82-1.48-6.82-7.16C248.34,259.5,256.41,261.62,264.89,261.31Z"/><path class="cls-6" d="M273.74,373c8.75,7.78,8.75,7.78,3.69,14.15C274.48,383.05,273.34,378.57,273.74,373Z"/><path class="cls-7" d="M287.34,386.35c1.44,2.69,5.33,2.7,3.79,5.56-2.21,4.12-6.18,3.18-11,2.5C283.39,392,286.22,390.5,287.34,386.35Z"/><path class="cls-8" d="M278.82,390.94c1.41-2.56,2.48-4.54,3.62-6.48.32-.55.41-1.82,1.6-.94a1.83,1.83,0,0,1,.89,2.11C284,388.14,282.71,390.37,278.82,390.94Z"/><path class="cls-9" d="M272.5,119.5s25-4,42,12"/><path class="cls-10" d="M324.48,145.13a1.5,1.5,0,0,0,0-3,1.5,1.5,0,0,0,0,3Z"/><path class="cls-10" d="M331.24,166.53a1.5,1.5,0,0,0,0-3,1.5,1.5,0,0,0,0,3Z"/></svg>