<?xml version="1.0" encoding="utf-8"?>
<!-- Generator: Adobe Illustrator 24.2.0, SVG Export Plug-In . SVG Version: 6.00 Build 0)  -->
<svg version="1.1" id="Layer_1" xmlns="http://www.w3.org/2000/svg" xmlns:xlink="http://www.w3.org/1999/xlink" x="0px" y="0px"
	 viewBox="0 0 480 480" style="enable-background:new 0 0 480 480;" xml:space="preserve">
<style type="text/css">
	.st0{fill:#FBF9F9;}
	.st1{fill:#010101;}
	.st2{fill:#020202;}
	.st3{fill:#0A0A0A;}
	.st4{fill:#090909;}
	.st5{fill:#212121;}
	.st6{fill:#292828;}
	.st7{fill:#FFFFFF;}
</style>
<path d="M479.9,240c0,78.6,0,157.2,0.1,235.8c0,3.3-0.5,4.2-4,4.2c-157.2-0.1-314.5-0.1-471.7,0c-3.8,0-4.3-1-4.3-4.4
	C0.1,318.5,0.1,161.5,0,4.4C0,1,0.5,0,4.3,0C161.5,0.1,318.7,0.1,476,0c3.5,0,4,0.9,4,4.2C479.9,82.8,479.9,161.4,479.9,240z"/>
<path class="st0" d="M234.4,326.5c-1.5,18.5-9.3,35.4-17.5,52.2c-0.7,1.5-1.6,2.9-2.5,4.3c-3.7,5.2-6.7,5.9-12.3,2.8
	c-1.3-0.7-2.5-1.6-3.8-2.4c-6.6-4.4-9.1-3.9-14.1,2.5c-1.4,1.8-1.2,2.9,0.6,4c3.1,1.7,6.6,2.5,10.1,2.1c4.5-0.3,7.9,1.4,9.1,6
	c1.3,4.8-2,6.9-5.5,8.8c-3.2,1.6-6.7,2.9-10.1,2.1c-6.9-1.5-13.7-0.6-20.6-0.6c-7.6,0.1-8.9-1.6-8.9-9.1c0.1-3.8,1-7.6,2.6-11.1
	c1.3-2.8,3.4-5.3,3.5-8.7c0-1.9,1.7-2.4,2.7-1c2,2.8,2.8,0.7,4-0.6c2.6-2.7,4.7-5.9,6.3-9.3c2.6-6.1,6.2-11.8,10.6-16.9
	c6.5-7.2,11.1-15.9,16.1-24c4.1-6.8,2.5-15.5,2-23.5c-0.5-7.5-2.9-14.7-5-21.8c-2.7-9.1-1.6-17.8,2.2-26.3c1.2-2.6,1.9-4.8,0.6-7.9
	c-1.6-3.8-0.5-7.9,1-11.7c2-4.9,1.6-9.4-0.3-14.5c-4.7-12.6-2.6-25.2,1.1-37.6c1-3.4,4.1-5.4,6.8-7.2c-9.6-3.2-19.4-3.4-29.3-3.4
	c-3,0-6-1.1-8.3-3c-1.2-0.9-2.4-2.1-1.9-3.7c0.6-1.9,2.3-2.1,4.1-1.9c1.4,0.2,2.9,0.5,4.4-0.3c-0.8-2-2.7-1.8-4.1-2.3
	c-6.1-2-6.1-2-3.8-7.8c-1.7-1.3-5.2,0.4-5.7-2.7c-0.5-3,2.2-4.2,4.1-5.7c3-2.5,2.8-4.4-0.8-6.1c-1.1-0.4-2.2-0.8-3.3-1.1
	c-1.8-0.6-4.5-0.5-4.5-3.1c0-2.3,2.5-2.9,4.2-3.8c2.2-1.1,6.2-0.3,5.2-5c-0.1-0.8,1.4-1.3,2.5-1.2c7.4,0.8,15-0.2,22.1,3
	c7.5,3.4,15.2,3,23,1.2c6.7-1.5,13.1-1.6,19.2,2.4c3.4,2.2,4.6,5.8,5.2,9.1c1.2,6.7,3,13.5,1.8,20.5c-0.3,2-0.4,4-0.3,6
	c0.2,2.7-0.8,5.5-3.3,6.2c-3.6,1-3.4,3.4-3.4,6.1c-0.3,6.9,2.1,13.7,6.6,18.9c5,6,7.2,12.6,7.5,20.6c0.2,9,1.9,17.9,5.2,26.3
	c1.8,3.9,1.4,8.4-0.9,11.9c-1,1.5-3.9,2.8-3,4.1c1.5,2.1,2,4.9,4.3,6.6c3.2,2.4,6.1,5.1,9.2,7.7c2.2,1.8,4.8,3.7,3.7,7
	c-1,3.1-3.9,4.5-6.9,5.2c-1.8,0.4-3.8,0.1-6.7,0.1c3.6,4.7,6.7,8.8,9.9,12.8c3.9,5,7.4,10.3,10.5,15.8c2.7,4.4,4,9.6,3.8,14.8
	c-0.8,13.1-1.2,26.3,0.5,39.4c0.6,5-1.9,7.8-8.9,9.4c-3.9,0.9-4.7,2.9-4.4,6.1c0.2,2.5-2.2,5.5,1.1,7.5c1.9,1.2,1.2,2.8,0.7,4.5
	c-1.2,4.1-0.6,7,3.9,9.3c5.6,2.9,10.8,6.5,14.2,12.2c3.5,5.8,1.8,10-4.8,11.4c-8.3,1.6-15.4-1.2-21.9-6.1c-2.2-1.8-4.9-2.8-7.7-2.9
	c-5-0.3-10.6-3-13.5-7.5c-2.7-4.2-1-9.7,2.1-13c3.4-3.7,3.1-9.6,8.5-12.1c2.1-1,0.3-8.1-2.2-9.9c-0.9-0.4-1.3-1.4-0.9-2.4
	c1.2-6,2.3-12,3-18.1c1.2-9.8,0.1-18.9-9.1-25.2C240.7,332.5,237.8,329.4,234.4,326.5z"/>
<path d="M279.8,346.6c-0.3,7.8,0.1,15.7,1.2,23.4c0.7,4.4-1.3,6.6-5,7.9c-6.3,2.2-13.1,2.6-19.6,1.1c-2.1-0.5-2.8-1.4-2.5-3.4
	c0.6-4,1-7.9,1.7-11.9c0.9-4.9,1-9.9,0.3-14.9c-0.8-5.8-2.9-10.7-7.9-14.4c-4.1-3.2-7.7-6.9-10.8-11.1c-7.9-10.3-16.1-20.3-25-29.8
	c-9.9-10.6-12-23-6.1-36.5c1.1-2.4,1.7-4,4.7-1.6c5,4,11,6.1,17.4,6.9c2.3,0.3,4.4,1.5,5.8,3.3c5.4,6,12.1,10.6,17.1,17.2
	c9.1,11.9,18.8,23.2,26.3,36.2c2.7,4.7,3.8,10,3.2,15.4C280.2,338.6,280,342.6,279.8,346.6z"/>
<path d="M237.2,179c-0.6,9.8,3.1,17.6,8.9,24.6c3.4,4.1,4.8,8.8,5,14.3c0.5,10,1.8,19.8,5.6,29.2c1.9,4.7,1.2,8.7-2.6,11.7
	c-10.2-8.8-9.8-21-10.9-32.7c-0.5-5.5-1.2-10.9-3.5-16c-0.5-1.1-1-3-2.8-2c-1.5,0.8-0.2,2.1,0.2,3c3.9,8.4,3.4,17.6,4.3,26.5
	c0.8,7.2,2.4,13.7,7.3,19.2c1.3,1.4,1.9,3.4,3.1,5.6c-6.4-1-7.9,3.3-9.3,8.1c-12.9-10.9-20.4-24.3-22.7-40.6c-1.1-8.2-2-16.5-3-24.8
	c-0.2-1.4,0.1-3.7-1.8-3.4s-1,2.5-0.9,3.8c1,8.8,1.9,17.5,3.3,26.2c1.6,9.9,4.8,19.4,11.4,28c-7.6-0.6-14.7-3.9-20.2-9.2
	c-3.4-3.2-2.9-7.5-1.4-11.2c2.8-6.9,2-13.2-0.4-20.2c-3.7-11-1.7-22.3,1.6-33.3c1.1-3.8,4.8-5.3,7.6-7.6c0.7-0.6,1.4-0.4,2.2,0
	C227.1,181.4,228.9,181.4,237.2,179z"/>
<path d="M208,293.5c8.3,8.3,16,17.1,23,26.5c1,1.3,1.4,2.9,1.2,4.5c-2.1,19.9-9.8,37.9-19,55.3c-3.2,6-5.3,6.3-11.1,2.8
	c-6.2-3.8-12.4-7.7-18.8-11.3c-2.2-1.3-2.7-2.2-1.3-4.5c3-5,5.8-10.1,9.7-14.5c6.3-7.2,10.7-15.7,15.7-23.6c3.8-6,2.7-13.9,2.3-21
	C209.4,303.2,208.6,298.7,208,293.5z"/>
<path d="M177.1,168.3c3-0.6,7.4,0.9,8-3.1s-3.8-4.2-6.7-5.2c-1.7-0.6-3.2-0.5-1.8-3.5c2.3-4.8-2.9-4.2-5.3-5.6
	c8.6-8.2,8.1-10.5-3.6-15c1.5-1.2,3.4-1.9,5.3-2c2.6-0.3,6.5,1.4,6.3-3.8c0-0.2,1.7-0.6,2.6-0.7c5-0.8,9.6,0.6,14.1,2.3
	c8,3,16.7,3.5,25,1.4c4.2-1,8.5-1.5,12.8-0.2c3,0.9,3.6,2.3,1.3,4.4c-5.6,5.1-11,10.2-12.9,17.9c-0.4,1.6-1.9,1.5-3.2,1.9
	c-3.6,1-4.1,3.6-2.4,6.6c3.5,6.4,1.6,11.2-5.1,9.7c-10.3-2.3-20.8-1-30.9-3C179.1,170.2,177.9,169.5,177.1,168.3z"/>
<path class="st1" d="M252.3,394.7c5.4,3.4,10.8,5.4,17.5,2.8c-2.3,7.1,0.1,11,6.2,13.9c4.7,2.2,8.8,5.6,11.7,9.9
	c3.1,4.9,2.2,7.1-3.5,8.1c-6.9,1.1-12.7-1.5-18.1-5.4c-3.1-2.2-5.5-4.2-10.4-4c-10.3,0.3-14.1-9-8-17.4
	C249.4,400.2,251.3,397.9,252.3,394.7z"/>
<path class="st1" d="M236.8,175.6c-4.7,2.9-9.4,2.8-14.2,1.6c-2.5-0.6-3.2-1.9-2.4-4.4c1.1-3.5,2.1-7-0.9-10.3
	c-1.5-1.6-0.6-2.6,1.4-2.9c2.7-0.4,3.9-2.2,4.6-4.7c1.9-7,7.2-11.3,12.2-16.1c1.3-1.2,2-0.8,2.8,0.2c1,1.3,2.6,2.7,2.6,4.1
	c0.3,6.4,2.8,12.5,1.4,19c-0.3,1.5-0.4,3-0.4,4.5c-0.1,5.7-1.9,7.1-7.4,5.5c-2.2-0.7-4.4-1.5-6.5-2.5c-1-0.4-2-0.9-2.5,0.3
	s0.6,1.7,1.5,2.1C231.3,173.3,233.8,174.3,236.8,175.6z"/>
<path class="st1" d="M167.6,382.5c3.4,2.6,6.7,4.8,10.9,5.3c0.6,0.1,1.5,0.3,1.7,0.7c3.4,6.1,9.3,6.3,15.2,6.2c3,0,5.2,1,6,4
	s-1.6,4-3.5,5.2c-2.6,1.6-5.6,2.7-8.6,2.2c-7.2-1.4-14.4-1.1-21.6-0.5c-4.4,0.4-6.5-1.5-6.1-6.5
	C161.9,393.1,164.6,388.1,167.6,382.5z"/>
<path class="st2" d="M263.4,286.2c-6.1-0.2-16.4-9.1-17.4-14.7c-0.5-2.2,0.3-4.5,2-5.9c2-1.6,3.9,0,5.4,1.1
	c5.2,4.2,10.1,8.6,15.1,13c1,0.9,2.4,1.9,1.4,3.3C268.5,285.3,266,286.5,263.4,286.2z"/>
<path class="st3" d="M256.7,387.7c3,0.8,5.8,2.4,9,1.8c2-0.4,1.6,1.2,1.5,2.2c-0.2,1.6,0.8,3.7-2,4.3
	C259.5,397.4,255.6,393.8,256.7,387.7z"/>
<path class="st4" d="M185,381.3c-2.1,2-3.8,4.5-7.2,3.6c-2.1-0.5-5.1-1-5.4-2.7c-0.3-2.3,2.6-3.8,4.1-5.8c0.8-1,1.4,0,2,0.4
	C180.6,378.3,182.6,379.7,185,381.3z"/>
<path class="st5" d="M256.4,382.4c3.5,0,6.4,0,9.3,0c1.2,0,2.3-0.1,2.4,1.7c0,1.6-0.6,2.5-2.2,2.7
	C261.9,387.3,258.8,386.2,256.4,382.4z"/>
<path class="st6" d="M188.6,378.3c-3.8,0.1-7.4-1.9-9.2-5.3C183,373.8,185.9,375.9,188.6,378.3z"/>
<path class="st7" d="M181.9,187.3c0.8,0,1.5-0.7,1.5-1.5s-0.7-1.5-1.5-1.5s-1.5,0.7-1.5,1.5S181.1,187.3,181.9,187.3z"/>
<path class="st7" d="M163.4,183.5l-8.4-1.1c-0.8,0-1.5,0.7-1.5,1.5c0,0.8,0.7,1.5,1.5,1.5l8.4,1.1c0.8,0,1.5-0.7,1.5-1.5
	C164.8,184.2,164.2,183.6,163.4,183.5z"/>
<path class="st7" d="M147.3,165.3c0.8,0,1.5-0.7,1.5-1.5s-0.7-1.5-1.5-1.5s-1.5,0.7-1.5,1.5S146.5,165.3,147.3,165.3z"/>
</svg>
