<svg id="Layer_1" data-name="Layer 1" xmlns="http://www.w3.org/2000/svg" viewBox="0 0 480 480"><defs><style>.cls-1{fill:#fcfafa;}.cls-2{fill:#010101;}.cls-3{fill:#020202;}.cls-4{fill:#080808;}.cls-5{fill:#0f0f0f;}.cls-6{fill:#0d0d0d;}.cls-7{fill:#fff;}</style></defs><path d="M479.91,240q0,117.92.09,235.83c0,3.29-.47,4.17-4,4.16q-235.86-.18-471.71,0C.49,480,0,479,0,475.58Q.15,240,0,4.42C0,1,.49,0,4.27,0Q239.88.2,475.48,0C479.37,0,480,1,480,4.67Q479.82,122.33,479.91,240Z"/><path class="cls-1" d="M186.16,265.84c-11.32,2.1-22.63,1.17-33.88,1.68a31.2,31.2,0,0,0-8.76,1.89c-5.34,1.86-7.28,1.07-9.08-4.24-.86-2.53-1.54-3.31-4.42-2.46-4.58,1.35-9.3.39-13.74-1.15s-6.17-7.1-4.28-12.77c1.7-5.11,4.86-6.8,10-5.36a13.73,13.73,0,0,1,2.37.79c3.41,1.7,7.26,5.48,10.13,4.84,12.89-2.88,26.63-1.26,38.91-7.27a17.17,17.17,0,0,0,9.6-11.43,168.94,168.94,0,0,1,8-22.57c1.73-4,3.57-7.9,6.52-11.14,1.07-1.17,2.24-2.14,0-3.37a1.62,1.62,0,0,1-.42-2.26c3.74-5.35,3.28-12.59,8.11-17.5,3.19-3.24,4.66-7.63,6.78-11.58,5.05-9.4,12.57-15.75,22.9-18.75,8.17-2.37,15.31.88,22.52,3.85a1.62,1.62,0,0,1,.8.58c4.57,9.1,13.19,16.38,12.81,27.7-.1,3,.33,5.48,2.68,7.6,2.62,2.37,2.49,5.67,2.3,8.86,0,.63-.34,1.77-.57,1.79-6.33.33-3,4.94-3.55,7.82-.15.79-.35,1.93-.91,2.24-4.35,2.43-2.56,5.63-1.3,8.83,6,15.31,3.54,29-7.78,41a10.17,10.17,0,0,0-2.88,8.2,12.35,12.35,0,0,1-3.4,10,9.51,9.51,0,0,0-2.24,9.68c3.95,14.61,7.58,29.31,11.69,43.87,2.23,7.9,5.77,15.15,12.81,20.19,3.14,2.25,5.24,5.58,7,9a161.29,161.29,0,0,0,13.31,21.66c3.41,4.69,3.28,10.73,6.23,15.63,2.6,4.32,3.94,9.63,10,10.75a2,2,0,0,1,1.19.87c4.43,7.85,11.5,13.77,15.78,21.72,1.37,2.56.67,4.82-1.05,6.92a12.12,12.12,0,0,1-15.05,3.13c-1.82-1-3.2-.15-4.76.14-5.83,1.06-11.81-2-14-7.14-1.94-4.58-1.16-7.82,3.21-10,2.21-1.11,1.85-2.07,1.36-3.79-1.81-6.32-5.34-11.71-8.71-17.22-1.27-2.08-2.25-2.13-4.3-1.15-5.08,2.45-9.95,5.34-15.34,7.2-4.22,1.45-6.54.11-8.15-3.88-6.1-15.15-14-29.39-21.84-43.7-3.57-6.56-6.57-13.43-9.88-20.14A115.93,115.93,0,0,0,223,318.72c-2.09-2.9-3.62-3.4-6.71-1.46-11.93,7.47-18.45,18-18.46,32.16,0,6.6-.63,13-3.19,19.05a36.13,36.13,0,0,0-2.3,20c.79,5.36.24,10.28-5.91,12.79-3,1.21-2.26,5.13-1.52,6.6,3,5.95,1.23,12.15,1.95,18.17.36,3,.76,5.95.85,8.94.14,4.19-2.67,7.15-6.93,7.68-4.62.56-10.66-2-10.66-5.38,0-7.22-3.19-14-2.43-21.24.34-3.22.92-5.86,3.8-8.19,2.57-2.08,3-5.74.89-8.75-1.41-2-2.46-4.05-2.09-6.45,1.77-11.24-.44-22.25-1.77-33.3-.74-6.06-.56-12,1.81-17.69A76.66,76.66,0,0,0,176.09,315a93.67,93.67,0,0,1,4.35-24C183,282.87,184.31,274.55,186.16,265.84Z"/><path d="M250,279.31c3.3,12.51,6.72,24.81,9.74,37.21a129.11,129.11,0,0,0,7.48,21.62,16,16,0,0,0,5.16,6,41.59,41.59,0,0,1,12,15.09c3.25,6.77,7.75,12.79,11.85,19,3.37,5.14,3,7.22-2,10.82-6.66,4.79-14.18,8-21.64,11.23-2.91,1.27-4.46.58-5.7-2.46-6.22-15.27-14.17-29.68-22.08-44.11-3.67-6.7-6.64-13.77-10.12-20.58a121.8,121.8,0,0,0-7.44-12.94c-2.5-3.68-6.35-6.94.82-9.64a1.53,1.53,0,0,0,.89-2.39c-.47-.68-1.28-.45-1.82-.14-11.09,6.55-23.36,11.62-28.62,25-2.16,5.51-4,10.91-3.56,16.88a37.14,37.14,0,0,1-2.91,17.57,37.26,37.26,0,0,0-2.4,21c1.26,7.76-1.84,11-9,10.66-6.11-.33-8.14-2.33-7.42-8.45,1.16-9.91-.48-19.59-1.76-29.31-1-7.23-.8-14.23,2.21-21,3.54-8,4.64-16.61,5.15-25.29.67-11.39,3.73-22.27,7-33.12.53-1.77.67-2.45,2.86-1.42,13,6.12,26.61,7,40.47,3.87C236.06,282.87,243.34,282.86,250,279.31Z"/><path d="M265.21,207.23c1,3.12,1.87,6.26,2.93,9.35,4.48,12.94,1.49,24.31-7.51,34.18a16.29,16.29,0,0,0-4.42,11.76c0,5.38-6,14.74-11.07,15.85-14.26,3.12-28.54,7.21-43.37,3.71a85,85,0,0,1-10.46-3.27c-2.35-.89-5-2.32-4-5.41,1-3.42.37-8,5-9.51a28.39,28.39,0,0,1,8.87-1.23c5,0,7.74-2.58,8.42-7.41,1.3-9.3-.75-18.22-3.16-27.08-.22-.78-.59-1.82-1.57-1.6-1.66.38-1.12,1.79-.88,2.83,1.62,6.8,3.42,13.53,3.2,20.65-.27,8.72-.66,9.19-9.1,10.07a61.51,61.51,0,0,0-10.21,2.25c-9.28,2.59-18.79,2.34-28.27,2.33-6,0-12,.09-17.69,2.4-.74.3-1.9.83-2.32.52-4-2.93-3.85-7.42-4-11.67-.11-3.45,1.38-5.74,5.3-5.72A107.12,107.12,0,0,0,166.61,247c10.41-2.49,17.48-7.87,20-19a101.57,101.57,0,0,1,9.24-24.18c1.89-3.61,4.29-6.75,7.9-8.77.75-.41,1.63-1.65,2.54-.49.4.51.18,1.54.19,2.34,0,2.74-4.42,5.2-1.74,7.51,2.06,1.76,4.36-2.11,6.94-2.68,4-.9,5.58.29,4.46,4.2-1.64,5.74-1.59,11.92-4.53,17.32-.64,1.19-1.1,2.56.21,3.63,1.53,1.25,2.86.24,4-.71,2.54-2.14,5-4.44,7.5-6.58,1.6-1.35,3.26-2.38,5.13-.17,3.19,3.76,6.73,2.51,9.61-.13,4.6-4.21,8.71-5.25,14.64-1.8,6.48,3.77,11.7-.16,11.76-7.81v-2.4Z"/><path d="M214.67,223.52c2.3-5.45,2.46-10.47,3.75-15.26,2.22-8.23-.45-10.78-9.2-8.57-.52-2.51,1-5.28-.91-7.59s-4.23-2.42-7.22-2.07c3.37-12.95,11.24-23.08,18.14-33.59,4.11-6.27,11-9.48,18.39-11.09,9.58-2.08,19.27,4,23.69,12.53,3.73,7.22,8.44,13.67,7.4,22.41-.24,2,2.44,3.13,3.19,4.86.89,2,4.36,4.91-1.39,6.19-2.88.64-2.1,4-1.71,6.52.26,1.64,2,4.63-2.5,3.2-2.25-.71-3.47,1.7-4,3.66a29.84,29.84,0,0,0-.42,5.45c-.28,5.17-3.65,7.69-8,4.93-6.74-4.29-12.09-3-17.44,2-2.18,2.07-4.45,2.63-6.78-.21-2.17-2.66-4.85-1.76-7.13-.09C220.08,218.69,217.8,220.86,214.67,223.52Z"/><path class="cls-2" d="M319.27,434.42c-3.39-4.57-8.39-1.08-12.89-1.75a9.24,9.24,0,0,1-8.05-7.81c-.39-1.9.48-3.14,2.07-4.12s2.36-.5,3,1.1c.2.53.85,1.24,1.55.65a2.41,2.41,0,0,0,.76-1.65,11,11,0,0,0-.62-2.4c-2.17-8.28-2.15-8.31,3.95-13.37,2.37-2,4.44-.62,5.45,1.22,3.34,6,8.23,10.85,12.26,16.33,1.47,2,3.85,4.27,1.85,7.14S323.39,433.82,319.27,434.42Z"/><path class="cls-3" d="M171.42,411.39c2.91,2.78,6,.4,8.92.33,2.62-.07,3.72.2,3.65,2.82a129,129,0,0,0,1,20.32c.39,3-1.55,4.72-4.36,5-3.22.31-7.69-.13-7.82-3.49-.3-7.75-4-15.18-2-23.07C170.93,412.67,171.19,412.06,171.42,411.39Z"/><path class="cls-3" d="M126.21,260.67c-2.07-.28-4.07-.44-6-.83-6-1.2-8.28-7.66-4.43-12.53a3.5,3.5,0,0,1,3.38-1.68,29.51,29.51,0,0,1,13.05,5.93c2.15,1.61,1,4.62.42,6.5C131.74,260.79,128.47,260.09,126.21,260.67Z"/><path class="cls-4" d="M307.73,401.93c-1.73,2.05-2.2,5.34-4.67,5-3.44-.41-4.74-4.26-5.4-6.93-.47-1.88,3.4-3.24,5.18-3.24C305.45,396.79,305.38,400.5,307.73,401.93Z"/><path class="cls-5" d="M182,405.42c.45,2.91-.93,4.1-3.6,4-2.18-.07-3.73-1-2.78-3.36.66-1.65-1.28-5.19,3.23-4.46C181.5,402.05,183,402.59,182,405.42Z"/><path class="cls-6" d="M299.4,388.1c.57,2.39,4.85,4.28.9,6.58-1.62.95-4,4-5.78.74C291.76,390.3,299.1,391.63,299.4,388.1Z"/><path class="cls-7" d="M146.9,215.05a49.79,49.79,0,0,0-36.16,2.15c-1.75.81-.23,3.4,1.52,2.6A46.57,46.57,0,0,1,146.1,218c1.84.6,2.63-2.29.8-2.9Z"/><path class="cls-7" d="M97.32,212.74a1.5,1.5,0,0,0,0-3,1.5,1.5,0,0,0,0,3Z"/><path class="cls-7" d="M160.25,194.86a1.5,1.5,0,0,0,0-3,1.5,1.5,0,0,0,0,3Z"/><path class="cls-7" d="M161.63,232.73a1.5,1.5,0,0,0,0-3,1.5,1.5,0,0,0,0,3Z"/></svg>