<svg id="Layer_1" data-name="Layer 1" xmlns="http://www.w3.org/2000/svg" viewBox="0 0 480 480"><defs><style>.cls-1{fill:#fbf9f9;}.cls-2{fill:#010101;}.cls-3{fill:#010000;}.cls-4{fill:#020202;}.cls-5{fill:#101010;}.cls-6{fill:#181818;}.cls-7{fill:#171717;}.cls-8{fill:#414040;}.cls-9{fill:#fff;}</style></defs><path d="M479.91,240q0,117.92.09,235.83c0,3.27-.45,4.18-4,4.17q-235.85-.17-471.7,0C.52,480,0,479.05,0,475.59Q.15,240,0,4.43C0,1,.46,0,4.26,0Q240.12.2,476,0c3.53,0,4,.85,4,4.15Q479.84,122.07,479.91,240Z"/><path class="cls-1" d="M273.68,198.37c8.19-3.51,16.12-5.46,24.41-1.57,3.51,1.64,6.17,3.95,7.37,7.66,1.09,3.37,2.14,7-1.19,9.68a9.58,9.58,0,0,1-11.64.8c-2.25-1.35-4.05-3.44-6.24-4.92-5.5-3.72-7.86-2.38-9.59,3.83a25.1,25.1,0,0,1-7.69,12.07,7.39,7.39,0,0,0-2.74,3.92c-2.14,8.61-5.25,17.11-10.32,24.17-3.72,5.18-2.91,8.35-.5,13.36,3.34,7,2.79,14.69,0,21.91a31.5,31.5,0,0,0-2,11.66c0,8.47.15,16.94-.52,25.41-.43,5.57,1.34,10.67,5.89,14.21,10.6,8.23,16.1,20.17,23,31.1a5,5,0,0,1,.82,3.76,7.48,7.48,0,0,0,7.15,8.45c2,0,3.53.42,4.46,2.41,2.61,5.57,5.36,11.07,8,16.63,1.75,3.72,3.22,7.69-.06,11.19-3.43,3.66-8.29,4-12.55,2.52a12.86,12.86,0,0,0-9.08.27c-6.07,2.1-12.23,3.27-18.61,1.42-3.16-.91-6.25-2.22-6.8-5.81s2.23-5.78,5.13-7.19c3.58-1.73,7.35-3.07,11.05-4.57,4.65-1.88,5.18-3.74,2.19-7.86a12.53,12.53,0,0,1-.92-1.18c-2.46-4.5-5.53-5.73-9.61-1.88a1.75,1.75,0,0,1-.46.21c-11.22,5.9-13.15,5.2-18.18-6.37-1.79-4.12-3.61-8.24-5.76-12.18a184.75,184.75,0,0,1-18.83-49.77c-.61-2.86-1.34-3.9-4.46-2.39-17.5,8.45-31.21,19.95-35.82,40.12-2.22,9.7-7.09,18.3-12.44,26.92s-11.11,18.33-9.79,29.79c.38,3.29.31,6.89-3.31,8.74s-7.07.55-10.3-1.56c-2.22-1.45-4.6-2.67-6.84-4.11-4.42-2.83-6.66-8.14-5.29-12.41,1.71-5.34,5.89-5.8,10.48-5.11,3.55.54,5.74-.91,7-4.11,1.75-4.38,2.07-9,2.87-13.63.4-2.32-1.51-2.69-2.83-3.53-5.09-3.27-9.73-7-12.63-12.48-2-3.86-1.91-7.13,1.5-10.3,12.43-11.52,20.58-26,28-41,7.47-15.16,17.29-28.42,32.34-37,.94-.53,2.11-.79,2.19-2.37.4-7.89,3.5-15.17,5.38-22.72.52-2.07.61-3.59-1.35-5.16-4.08-3.27-4-7.56-1.47-11.63,4.32-6.89,6.47-13.9,4.73-22.24-1.1-5.31,2.93-9.31,6.2-13.09,1.33-1.53.91-2.45.67-4.34-.83-6.77-2.65-13.92.8-20.45a33.62,33.62,0,0,0,3.85-13.23c1.51-17.53,16.22-29.14,33.16-26.47a22.45,22.45,0,0,1,19.31,22.58c-.05,5.18,1.16,10.28,1.26,15.26C273.26,183.05,275.38,190.37,273.68,198.37Z"/><path d="M203.51,276.1c.93-8,3.93-15.37,5.85-23.46a75.58,75.58,0,0,0,36.7,6.77c1.75-.11,2.62.76,3.52,2.16a32.14,32.14,0,0,1-8.13,43.11A58.65,58.65,0,0,1,224.52,313a93.26,93.26,0,0,0-30.08,16.25c-8.68,6.82-13.35,15.94-16.41,26.16-2.48,8.29-5.11,16.48-9.42,24.08-2.19,3.85-4.56,5-8.85,3-7.51-3.4-14.68-7.08-19.59-14-2.52-3.57-2.89-6.52.85-9.93,12-10.95,19.88-24.85,26.86-39.28,8.63-17.87,20.47-32.62,39.05-41a25.51,25.51,0,0,0,2.65-1.37c.89-.53,1.77-1.22,1-2.35-.52-.78-1.39-.66-2.25-.33C206.84,274.84,205.62,276.19,203.51,276.1Z"/><path d="M236.28,189c1.5,8.55,2.49,9.16,9.63,5.88-.77,7.46,1.14,14.17,4.23,20.57,2.43,5.05,5.56,9.55,11.14,11.49,2.32.8,2.72,2,2,4.13a170.6,170.6,0,0,1-9.72,22.32c-1.06,2-2.74,2.64-4.88,2.86a73,73,0,0,1-38.79-6.69c-6.07-2.83-7-6.21-3.39-12,4.07-6.61,6.14-13.51,4.3-21.32-.8-3.36.91-6.08,2.8-8.71C219.45,199.39,228.21,194.92,236.28,189Z"/><path d="M250.11,301.22c0,7.52,1,14.77.17,22-.95,8.52,1.59,15.69,8.57,21.13,9.47,7.38,14,18.43,20.35,28.08.89,1.34.95,2.32-.5,3.31-7.54,5.12-14.44,11.23-23.24,14.35-2.87,1-4.9.66-6.07-2.24-7.64-18.9-19.23-36.12-24-56.23-1.09-4.52-3.91-9.45-2.9-13.42s7.49-3.52,11.32-5.59C239.61,309.48,245.44,306.37,250.11,301.22Z"/><path class="cls-2" d="M271.41,195.15c-4.42-2.81-7.58-6.52-12.66-7.39A17,17,0,0,0,244,192c-2.46,2.14-3.78,2.68-4.36-1.73-.67-5.16.76-8.67,4.93-11.48a31.56,31.56,0,0,0,11.21-13.12c2.57-5.55,1.68-11-.62-16.42-.54-1.28-3.55-2.85-.77-4.28,2.07-1.07,4.47-2.67,7.2-.23,5.07,4.52,7.76,10,7.39,16.72-.27,4.88.68,9.49,1.36,14.25C271.23,182,270.42,188.61,271.41,195.15Z"/><path class="cls-2" d="M292.05,414.35c-5.95-4.49-12.29.63-19,1.64a22.49,22.49,0,0,1-10.32-.42c-1.87-.6-4.17-1.11-4.53-3.39s1.79-3.32,3.47-4.35c3.14-1.91,6.63-3,10.07-4.2,6.26-2.22,7.23-3.82,5.56-10.22-.45-1.76.2-1.94,1.37-2.37,3.89-1.41,8-4.38,11.58-3.89,3.82.53,3.57,6.43,5.85,9.6a37.73,37.73,0,0,1,3.76,7.55C302.85,411.29,300.87,414.21,292.05,414.35Z"/><path class="cls-2" d="M253.6,141.3a8.69,8.69,0,0,1-5.22,2.49c-11.3,1.71-18.95,10.73-18.72,21.93.06,2.82.07,5.64,0,8.45-.08,3.59,1.06,6.18,5,6.84.89.15,2.32-.25,2.43,1.06a4.18,4.18,0,0,1-1.53,4c-5.45,3.8-10.95,7.53-16.37,11.36-2.08,1.47-2.47-.09-2.31-1.39.88-6.91-2-14.27,3-20.74,2.37-3.11,2.14-7.24,2.36-11.06C223,149.72,238.74,136.19,253.6,141.3Z"/><path class="cls-3" d="M232.8,167.47c-1.25-5.15,1.58-10.09,4.66-14.89a13.35,13.35,0,0,1,3.47-3.52c6.07-4.32,9.94-3.05,12.36,3.92,2.61,7.51-.25,15.17-8.36,21.72-2.09,1.69-3.91,3.74-7.31,3.58-3.93-.19-5.54-1.4-4.86-5.38A37.57,37.57,0,0,0,232.8,167.47Z"/><path class="cls-4" d="M303.57,209.36c.07,2.76-3.12,4.9-7.09,4.12-2.79-.54-4.47-2.71-6.56-4.32-7.05-5.44-13.34-6.28-17.3,3.32-1.05,2.56-3.37,3.54-5.58,4.62a2.72,2.72,0,0,1-3.82-1.28,6.57,6.57,0,0,1,.26-7.11c5.5-8.09,24.08-13.27,33.11-9.49C300.87,201,303.11,204.17,303.57,209.36Z"/><path class="cls-2" d="M270.37,219.76c-4.25,5.93-5.84,6.28-10.69,3.11-6.6-4.31-12.64-20.06-10.63-27.69,1.15-4.33,4.81-5.79,10.54-4.15,4.2,1.2,6.67,4.8,9.92,7.32,1,.76.56,1.79-.41,2.47-1.36,1-2.73,1.9-4.12,2.81-4.73,3.07-6.58,7.5-5.05,12.16C261.57,220.76,265.4,220.87,270.37,219.76Z"/><path class="cls-4" d="M148.92,422.62c-4.12-2.77-10.86-3.87-13.9-10-2.59-5.2.29-9,6-8.2,2.9.4,5.6.54,7.93-1.53,2.06-1.84,4.26-.31,6.07.17,2.07.54,0,2.43,0,3.75.06,3.79-.07,7.6-.31,11.39C154.52,420.92,153.57,423.13,148.92,422.62Z"/><path class="cls-5" d="M160.53,393.51c-2.3,2.68-1.56,7.31-6.67,6.3-1.72-.34-1.82-1-1.65-2.73C152.75,391.73,156.22,392.79,160.53,393.51Z"/><path class="cls-6" d="M158.5,390.22c-1.18-.62-4.59.89-4.06-3.07.14-1.07-.19-3.46,1.43-2.91,2.45.84,6.11.55,7,3.52C163.44,389.72,161.22,390.64,158.5,390.22Z"/><path class="cls-7" d="M272.52,388.29c3.39-2.24,6.37-3.17,8.6-5.26,1-.93,1.68.35,2.26,1.08s1.29,1.5.18,2C280.42,387.41,277.37,389.35,272.52,388.29Z"/><path class="cls-8" d="M279.81,380c-1.4,2.31-3.78,3.27-6.73,3.54L279,378.9Z"/><path class="cls-9" d="M281.21,135.23a15.12,15.12,0,0,1,1.07,1.19s.2.26.05.07,0,0,0,0l.22.3c.17.23.32.47.47.71a14.37,14.37,0,0,1,.76,1.39c.06.11.11.23.16.34a1.33,1.33,0,0,0,.09.21c0-.05-.12-.28,0-.1s.2.53.29.79a1.5,1.5,0,1,0,2.89-.79,16.31,16.31,0,0,0-3.85-6.26,1.5,1.5,0,0,0-2.13,2.12Z"/></svg>