<svg id="Layer_1" data-name="Layer 1" xmlns="http://www.w3.org/2000/svg" viewBox="0 0 480 480"><defs><style>.cls-1{fill:#fcfafa;}.cls-2{fill:#010101;}.cls-3{fill:#050505;}.cls-4{fill:#0b0a0a;}.cls-5{fill:#0a0a0a;}.cls-6{fill:#272626;}.cls-7{fill:#fff;}</style></defs><path d="M479.91,240q0,117.92.09,235.83c0,3.28-.47,4.17-4,4.16q-235.86-.18-471.71,0C.5,480,0,479,0,475.58Q.15,240,0,4.42C0,1,.49,0,4.27,0Q239.88.2,475.48,0C479.36,0,480,1,480,4.67Q479.82,122.33,479.91,240Z"/><path class="cls-1" d="M180.32,259.12c-5.11-1-9.63-2.75-11.79-8-.59-1.42-2.05-.72-3.13-.79-10.69-.7-19.4-11.48-17.89-22.18.7-4.92,4.37-7.54,9.28-6.64a14,14,0,0,1,7.64,4.44c1,1.08,1.94,2.28,2.88,3.44,6.88,8.45,9.79,9.71,20.24,9.23,1.85-.08,2.16-.89,2.32-2.41,1.31-12.91,5.68-24.56,15-35-4.65,1.2-5.56-.2-4-3.81a15.78,15.78,0,0,1,5.79-6.66c3.55-2.45,7.47-4.46,10.33-7.8,1.3-1.52,3.27-3.24-.39-4.7-2.61-1-2.1-3.56-1.57-5.66a29.19,29.19,0,0,0,.94-7.39c0-10.65,4.74-18.94,13.87-22.07,9.3-3.19,18.91-.74,24.94,6,6.69,7.45,11.57,16.95,15.5,26.29,2.31,5.48-.33,12.45,1.16,18.69.22.91-.66,3-1.24,3-5.32.75-3.7,4.9-4.27,8a7.65,7.65,0,0,1-1.53,3.61c-4.7,5.22-6.51,11.75-8.57,18.19a24.82,24.82,0,0,1-1.75,4.66c-5.11,9.15-8.86,18.62-7.9,29.41a7.64,7.64,0,0,1-1.72,5.65c-3.71,4.13-2.91,8.73-2.19,13.56,2.18,14.65,4.27,29.3,8.3,43.6a36.33,36.33,0,0,0,9.09,15.3c12.86,13.44,21.19,29.66,29.15,46.14,2.07,4.29,3,9.45,9.43,9.8,1.92.1,3.16,2.35,3.82,4.3,1.72,5.15,4.73,9.5,8,13.71a11.29,11.29,0,0,1,2.19,3.88c.86,3.24,4.24,6.65-.2,9.8-5.18,3.68-10.57,3.82-14.5,0-1.35-1.32-2.21-1.26-3.8-.72-8.38,2.82-16.35-2.75-16.86-11.63-.26-4.39,1.66-6.13,7.41-6.63a33.9,33.9,0,0,0-6-13c-1.6-2-2.54-2.6-5.07-1.21-9,4.92-14.58,3.26-19.19-5.72-13.25-25.79-29.17-49.92-45.54-74.58-6.13,8.82-14.53,15-20.6,23.24a16.37,16.37,0,0,0-3.56,11.65,28.78,28.78,0,0,1-2.6,14.61c-2.5,5.59-3.61,12-6.15,17.05-4.08,8.15-4.32,16.76-6.85,25-1.71,5.56-1.53,11.12-.48,16.74a35.91,35.91,0,0,1,.82,5.91c.25,10.5-6.78,14.87-16.41,10.32a6.24,6.24,0,0,1-3.7-6c0-4.54-1.13-8.88-1.72-13.31-.95-7.23.23-14,7.57-17.91.27-.14.7-.4.69-.58-.27-6.05,1.47-12.3-.92-18.06a20.53,20.53,0,0,1-2-6,115.9,115.9,0,0,1,.44-26.91,34.79,34.79,0,0,1,3.38-10.9c3.71-7.45,6.85-15,6.65-23.72-.16-7.4,3.3-14.18,6.38-20.84a75.3,75.3,0,0,1,5.11-9.7c2.11-3.23,3.16-6.12,1.08-9.88-1.45-2.63-.49-5.5,1-8.08C178,263.74,179.71,261.88,180.32,259.12Z"/><path d="M239.28,277.73c1,6.85,2,12.55,2.63,18.29,1.08,10.15,3.92,19.91,6.47,29.71,1.76,6.74,6.07,12.24,11,17,10.55,10.34,15.9,24.06,23.87,36.06,1.85,2.8.95,5-1.79,6.68-3.56,2.14-7,4.43-10.69,6.4-5.79,3.12-10.64,2.17-13.29-3.83-7.09-16.1-18.1-29.83-26.35-45.19-5.06-9.42-11.46-17.92-17.53-26.65-4-5.81-4-5.8,2.05-8.93.59-.3,1.24-.5,1.81-.83.72-.41,1.58-1,1.17-1.9s-1.36-.85-2.16-.54c-3.63,1.37-7.17,3.08-9.34,6.37-4.64,7-10.77,12.66-16.53,18.65s-9.79,12.41-8.87,21.29c.49,4.84-1.26,9.55-3.54,13.87s-4.75,8.78-4.41,14.05a3.47,3.47,0,0,1-1.35,3.11c-3.9,2.68-8,1.42-12,.28-3.12-.89-5-2.65-5.16-6.35-.37-9.16-2.64-19.27,1.2-27.2,9.69-20,7.58-43.61,20.18-62.56,2.18-3.27,3.08-4.86,7.69-3a74.12,74.12,0,0,0,33.78,5.07C225.94,287,233.11,284.74,239.28,277.73Z"/><path d="M212.79,285a81.14,81.14,0,0,1-27.38-4.83c-7.58-2.79-9.31-7.94-5.15-14.81s4.16-6.88,11.09-2.84c5.37,3.13,10.78,5.92,17.26,5.64,4.76-.2,8.63-2.12,10.25-6.62,4.39-12.18,9.19-24.28,10.94-37.24.19-1.36,1.66-3.76-.88-4.06-1.72-.2-1.58,2.2-1.76,3.59-1.63,12.49-6.49,24-10.42,35.85-1.47,4.43-5.06,5.92-9.45,5.8a23.81,23.81,0,0,1-12.18-4A32.91,32.91,0,0,0,179.28,256a9.36,9.36,0,0,1-4.64-1.65c-2.77-1.83-2.92-3.35-1.35-6.79,4.26-9.39,11.69-6.44,18.64-6,1.24.07,2.88,1.15,3.48-.6.51-1.51-1.23-1.55-2.18-2-1.47-.77-.67-2.06-.55-3.12,1.26-11.12,4.71-21.37,12-30.08a18.29,18.29,0,0,0,2.05-2.82c1.44-2.49,2.21-5.92,5.18-6.7a26.32,26.32,0,0,1,15.27.29c2.33.79,3.27,2.54,3,5.07-.35,3.88-.84,7.8,4.81,8.57,1.94.27.65,2.21.59,3.36-.07,1.39-.25,2.77,1.28,3.4,1.33.55,2.18-.49,2.94-1.35,1.71-2,3.08-5.28,6.08-4.17s3,5,4.57,7.26c5.08,7.25.59,12.76-2.36,18.77-3.2,6.49-5.09,13.35-4.53,20.7.24,3.28-.35,6.48-2.5,8.92-2.72,3.1-2.24,7.55-5.31,10.55-5.8,5.67-12.9,7.22-20.55,7.52C214.45,285.07,213.62,285,212.79,285Z"/><path d="M253.82,221.24c-2.87-13-7-15.66-14.61-9.79-.86-2.07-.56-5.09-4.39-4.52-2.57.38-1.92-2.14-1.93-3.64,0-7.48-2-9.74-9.43-10.41a68.51,68.51,0,0,0-16.06.74c1.47-1,2.91-2.11,4.41-3.08,10-6.44,14.15-15.54,13.13-27.42-.54-6.39,2.47-11.92,6.34-16.9a4.33,4.33,0,0,1,3-1.53c8.73-1.43,19.67,4.71,22.94,13.05a33.16,33.16,0,0,0,6.9,11.44A13.32,13.32,0,0,1,268,181a32.46,32.46,0,0,0-.11,7c.25,3.29,3.13,7.35-3,8.44-.55.1-1.23,1.73-1.16,2.59.66,8.15-6.72,13-8.25,20.23C255.4,219.81,254.7,220.24,253.82,221.24Z"/><path class="cls-2" d="M303.87,426.83c-1.59.13-3.17-.2-4-1.59-2-3.51-4.45-2.75-7.6-1.55-6.08,2.31-13.29-3.76-12.61-10.22.3-2.9,2.25-2.68,4.34-2.79,1.34-.07,2.66,2.42,3.84.21a4.31,4.31,0,0,0-.71-4.7c-2.18-2.82-1.15-4,2-4.57,2.12-.39,4.31-.93,5.53-3,1.63-2.76,3.47-1.28,4.07.31,2.59,7,7.49,12.53,11,18.89C312.82,423.36,310.41,426.7,303.87,426.83Z"/><path class="cls-2" d="M164.81,413c-.42,6.08,2.05,11.29,1.59,16.83-.48,5.83-1.16,6.5-7.45,6.36-5.91-.13-7.21-1.27-7.28-6.82a37.44,37.44,0,0,0-1.35-9.29,17.63,17.63,0,0,1,.1-9.82c1.62-5.29,2.55-5.64,7.21-3.09a5.15,5.15,0,0,0,2.79.88C165,407.47,165.83,409.71,164.81,413Z"/><path class="cls-2" d="M166.32,247.73c-9.52-.1-18.26-11.22-16-19.85,1-3.71,3.69-4.45,7-3.44,3,.9,5,3.09,6.95,5.43s4.32,4.61,6.25,7.08c1.37,1.76,4.78,2.76,3.07,5.93C172,245.85,170,248.64,166.32,247.73Z"/><path class="cls-3" d="M163.66,405.67c-3.54-.3-6-.05-5.23-4.73s0-9.57-.14-14.38c0-1.85.21-2.45,2.49-2,8.7,1.63,8.74,1.49,7.27,10.26-.44,2.61-1.07,5.19-1.49,7.81C166.21,404.72,165.36,406,163.66,405.67Z"/><path class="cls-4" d="M224.89,150.24c-2,5.79-3.72,11.39-2.11,17.55.63,2.44-.74,4.87-1.93,7.09a1.89,1.89,0,0,1-2.46,1.09,1.43,1.43,0,0,1-.91-2c1.81-4.82.84-9.91,1.54-14.82A12.61,12.61,0,0,1,224.89,150.24Z"/><path class="cls-5" d="M292.5,397a7.94,7.94,0,0,1-6.95,2.55c-2.19-.41-4.34-3.64-3.91-5.51.33-1.44,4.37-3.38,6-2.83C289.64,391.87,290.87,394.87,292.5,397Z"/><path class="cls-6" d="M278.77,390.67c2.15-1.58,4-2.86,5.75-4.24.74-.58,1.3-.86,2,.05a1.29,1.29,0,0,1-.48,2C283.92,389.69,281.87,391.1,278.77,390.67Z"/><path class="cls-7" d="M128,202.08a43.62,43.62,0,0,0-28.12,12A47.58,47.58,0,0,0,92,224.22a1.5,1.5,0,0,0,2.59,1.51,41.16,41.16,0,0,1,27.58-19.94,39.34,39.34,0,0,1,5.83-.71c1.93-.09,1.94-3.09,0-3Z"/><path class="cls-7" d="M74.24,189.77a1.5,1.5,0,0,0,0-3,1.5,1.5,0,0,0,0,3Z"/><path class="cls-7" d="M147.18,171.88a1.5,1.5,0,0,0,0-3,1.5,1.5,0,0,0,0,3Z"/><path class="cls-7" d="M145.56,217.75a1.5,1.5,0,0,0,0-3,1.5,1.5,0,0,0,0,3Z"/></svg>