<svg id="Layer_1" data-name="Layer 1" xmlns="http://www.w3.org/2000/svg" viewBox="0 0 480 480"><defs><style>.cls-1{fill:#fbfafa;}.cls-2{fill:#010101;}.cls-3{fill:#040404;}.cls-4{fill:#060606;}.cls-5{fill:#121212;}.cls-6{fill:#0d0d0d;}.cls-7{fill:#181717;}.cls-8{fill:#3b3a3a;}.cls-9{fill:#1f1e1e;}.cls-10{fill:#fff;}</style></defs><path d="M.1,239.5Q.1,121.8,0,4.09C0,.67.67,0,4.09,0Q240,.17,475.91,0c3.42,0,4.09.67,4.09,4.09q-.17,235.91,0,471.82c0,3.42-.67,4.09-4.09,4.09Q240,479.84,4.09,480C.67,480,0,479.33,0,475.91Q.18,357.7.1,239.5Z"/><path class="cls-1" d="M218.06,185.52c-5.46,1.32-10.69,0-15.59,2.21-2,.91-3.85-.26-3.14-3.28.87-3.75,2.12-6.87,5.24-9.67,4.12-3.68,4.37-9.58,5.35-14.68,3.09-15.88,16.85-23.63,32.25-20.06,12.55,2.91,18.53,10.55,22.27,21.54a65.46,65.46,0,0,0,7,13.74c3.1,4.9,3.56,10.28,3.56,15.82,0,1.21-.28,3.06-1.37,2.82-5.9-1.33-2.39,2.93-2.5,4.43-.2,2.77.86,5.83-4,3.77-3.33-1.42-4,2-3.8,3.58.8,6.9-3.13,11.3-6.75,16.41-2.65,3.73-3.1,9-4.63,13.56-3.21,9.54-4.58,19.89-12,27.56-1,1-.4,1.74,0,2.67,5.45,13.19,7,27.05,6.35,41.12-.45,10.4,2.76,19.14,9.26,27.15,8.59,10.58,16.88,21.42,25.1,32.31,3.06,4.06,6.33,8.19,3.42,14.07-1.13,2.28,4.1,8.68,6.84,8.82,3.24.16,4.82,1.83,5.27,4.86a18.38,18.38,0,0,0,5.68,10.84c3,2.86,4.28,6.69,5.74,10.41.91,2.32.05,4.16-1.59,5.85-4.15,4.26-9.18,4.65-14.25,1.19-2.7-1.85-5.47-.24-8.17.23-7.3,1.27-13.74-2.43-15.59-9.07-1.76-6.34,1-9.58,7.58-9,.79.08,1.59,0,2.72,0-1.31-3.59-.93-7.32-3.19-10.47-2.59-3.61-4.7-7-10.23-4.48-3.17,1.47-5.8-.55-7-3.85-3.32-9.44-9.05-17.31-15.55-24.77-4.62-5.29-7.89-11.53-11.16-17.7C227.31,336.11,223,329,217.09,323a20.42,20.42,0,0,1-5.23-7.84c-1.43-4.48-3.54-3.53-6.22-1.26-5.56,4.74-9.43,10.74-12.7,17.13-8.32,16.27-17.4,32.21-21.73,50.2-1.56,6.53-6.08,11.84-7.88,18.2-2.93,10.35-.78,20.9-.32,31.36.27,6.41-.89,8.7-5.73,9.82-6.24,1.45-10.32-1-13.3-5.59-4.75-7.32-6.81-14.78-4-23.11,1.29-3.79,1.48-9.07,8.08-7.89,1.62.29,2.78-8,1-9.5-3.42-2.92-3.54-6.58-3-10.49,1.72-12.7,3.38-25.41,5.23-38.09.92-6.29,3.39-12.08,5.77-18,7.44-18.44,17.07-36.11,20.62-56,1.05-5.9,4.63-10.64,7.41-15.72.92-1.68,1.24-2.76-.2-4.31-3.75-4.06-3.33-8.7-.61-12.89,4.44-6.84,6.87-14.35,8.72-22.16a25.74,25.74,0,0,1,11.75-16.66C210.37,196.76,214.46,191.76,218.06,185.52Z"/><path d="M243.77,305c-3.18,14.58,5.7,26.6,15.42,38.44q10.46,12.72,20.18,26c5.12,7,4.09,10-3.79,13.78a3.68,3.68,0,0,1-.44.23c-3.92,1.34-7.73,4.25-11.78,3.66-4.72-.69-3.57-6.52-6-9.52-.82-1-1.19-2.42-2-3.41-14.34-16.72-22.63-37.59-37.21-54.13-.33-.38-.63-.78-.93-1.18-5.93-8-5.87-8.5,2.44-13.26,5.27-3,10-6.61,13.46-11.67.55-.8,1.53-1.7.59-2.59-1.28-1.21-2.17.12-2.76,1-4.19,6.16-10.24,10-16.73,13.09-11.29,5.31-18.62,14.18-24.07,25-8.21,16.33-17.22,32.29-21.64,50.26a49.5,49.5,0,0,1-3.29,8.34c-2.73,6.06-4.3,6.85-9.89,5.3s-7.31-3.85-6.49-9.84q2.87-21,6.05-42a25,25,0,0,1,2.44-8.09c6.07-11.16,9.18-23.54,14.65-34.94a89.13,89.13,0,0,0,8-25.12c1-6.3,4.63-11.33,7.49-16.76,1.43-2.73,2.61-.45,3.84.17,13.37,6.77,27.5,9.89,42.45,8.34,2.91-.3,3.77.64,4.59,2.91C242.29,280,243.61,291.33,243.77,305Z"/><path d="M246.35,218.23c6.76,3.91,6.75,3.9,4.73,11-2.28,8-4.41,16-7.58,23.76-3.77,9.19-7.14,11.44-17.19,11a85.91,85.91,0,0,1-29.15-6.22,27.27,27.27,0,0,1-6.79-4.12c-6.28-5.1-6.92-8.13-2.72-14.95a59.81,59.81,0,0,0,7.38-19c1.61-7.44,5.1-13.54,11.88-17.66,5.5-3.34,9.43-8.36,12.73-13.84,1.26-2.09,2.13-4.42,5.58-3.53,1.92.5,1.88,1.47,1.83,2.79-.11,2.85.89,6-2.94,7.62a24.86,24.86,0,0,0-6,3.48c-5.81,4.68-8.6,10.4-5.95,18a10.79,10.79,0,0,1-.69,9.41c-3.08,5.67,2.49,22.68,7.91,26.47,4.15,2.9,8.16,3.21,12.33-.16,6.21-5,10.25-11.21,11.41-19.24C243.81,228.17,243.82,223.08,246.35,218.23Z"/><path d="M241.82,209.67c3.38-4.21,8.49-7.94,5.25-13.64-4-7.1-10.92-4.32-17-3.15-1.47-6.6,1.14-11.09,6.23-15,4.11-3.13,3.87-5.63.28-9.5-.79-.86-2.1-1.79-1.71-2.87,1.83-4.93-.39-9.88.26-14.72.9-6.57,10.47-9,16.73-4.33a23.15,23.15,0,0,1,7.64,10.29,172.11,172.11,0,0,0,10.33,21.52c2.2,3.87,3.44,7.54-.35,12.4-2.61,3.33-2.36,8.71-7.47,11.15-2,1-1.66,4.48-1.5,7a8.82,8.82,0,0,1-2.27,6.87c-3.24,3.6-6.22,3.75-9.67.16-1-1.08-1.9-2.33-3-3.34A46.16,46.16,0,0,0,241.82,209.67Z"/><path class="cls-2" d="M281.08,405.48c-3.6-5.59,1.05-7.69,5.62-9.87a6.89,6.89,0,0,0,2-1.53c2.81-3,4.52-2.28,5.09,1.58a19.06,19.06,0,0,0,5.69,10.82,19.56,19.56,0,0,1,3.86,5.75c2.78,6.07,1.13,9.23-5.45,10.36-1,.18-2.11.5-2.75-.47-3.19-4.85-7.59-2.81-11.73-2.1-5.83,1-10.27-1-12.27-5.86-.82-2-1.8-4.18.06-6.07,2.06-2.1,5.1-1.1,6.42.1C281.34,411.65,281.24,409.42,281.08,405.48Z"/><path class="cls-2" d="M237.54,194.17c3.3-.1,5.73.6,7.13,3s0,4.45-1.29,6.44c-2.83,4.26-7,6.62-11.73,8-4.07,1.16-5.91,3.2-3.68,7.2,1.36,2.43,0,3.74-1.48,5.05-2.53,2.26-5.3,4.23-9,3-2.66-.86-1.57-3.32-1.87-5.15s-.27-3.66-.71-5.41c-1.95-7.71-.33-12.28,6.31-16.58C226.38,196.35,232.21,195,237.54,194.17Z"/><path class="cls-2" d="M213.9,228.37c7.92,3,11.27,1.58,18.5-7.49,4.51,3.66,4.35,9.77,7.41,14.23.36.53-.37,1.86-.68,2.79a24.84,24.84,0,0,1-6.46,9.92c-6.36,6.21-13.32,4.69-16.44-3.76C214.43,239.18,214.23,234,213.9,228.37Z"/><path class="cls-2" d="M160.18,411.57c-2.27,7.18.21,13.49.15,19.92,0,2.57.62,5.26-2.59,6.13-3.39.92-7.64,1.77-9.82-1.31-5.49-7.78-9-16.29-4.65-26a22.79,22.79,0,0,1,1.38-2.64,1.53,1.53,0,0,1,2.48-.57c1,.72,1.13,1.52.15,2.41-2.56,2.36-1.4,5.64-2,8.47a1.37,1.37,0,0,0,1.21,1.81c1,.06,1.34-.83,1.46-1.65a16.6,16.6,0,0,0,.21-3c-.09-2.72.71-4.29,3.76-3C154.38,413.15,156.79,412.62,160.18,411.57Z"/><path class="cls-2" d="M233.12,145.28c.14,9.32-3.56,18.44,2.73,27.29-4.65,1-9,3.15-13.8,3.23-5.35.09-6.4-1.8-5-6.89.81-2.9,3.78-5.94.54-9.21a1.45,1.45,0,0,1,.32-1.31C224,155.07,225.89,146.66,233.12,145.28Z"/><path class="cls-3" d="M214.85,161c2.8,2.78.18,5.3-.64,7.67-1.73,5.06-1.28,6.85,3.37,9.11,1,.47,2.45.24,2.6,1.83.19,1.93-1.57,1.84-2.62,2.46-2,1.18-4,2.25-6.5,1-1.38-.65-2.93,0-4.36.52-1.22.43-2.46.82-3.75,1.24a6.84,6.84,0,0,1,3.14-7.62c4.56-3.2,3.85-8.94,5.85-13.4a26.19,26.19,0,0,0,1.16-4.83C215,158.55,214.17,160.45,214.85,161Z"/><path class="cls-4" d="M240.62,229.82c-1.61-3.77-2.92-7-5.06-9.7a16.62,16.62,0,0,0-2.78-2.78c-.84-.67-3.12.86-2.79-1.53.21-1.52,2-1.46,3.22-1.87,3.2-1.1,6.32-4.09,9.73-.16.94,1.09,1.84,1.77.95,3.3C241.74,220.76,241.59,225,240.62,229.82Z"/><path class="cls-4" d="M155.15,410c-2.91-.12-4.86-.81-3.83-4.17a31.32,31.32,0,0,0,.77-3.88c.89-5.19,2.52-6.14,7.38-4.24.3.12.87.28.86.35-.55,3.35-1,6.72-1.79,10C158.13,409.81,156.44,410,155.15,410Z"/><path class="cls-5" d="M214.85,161l-1.75-2c2.34-7.91,8-13,14.71-17.09,1.23-.22,2.72-1.36,3.17,1-6.91,2.88-9.64,10.35-15.58,14.33C214.31,158,214.63,159.69,214.85,161Z"/><path class="cls-6" d="M280.41,396c-2-1.21-4.23-3.54-3.72-4.79.95-2.36,4.2-3.21,6.58-3.73,1.68-.36,3.73,2.76,3.38,4C285.93,394.2,282.75,394.69,280.41,396Z"/><path class="cls-7" d="M233.43,176.06c-2.7,2.34-3.68,6.67-8,6.06-1.15-.16-2.37-.08-2.47-1.72-.09-1.45.64-2,2-2.25C227.77,177.55,230.6,176.77,233.43,176.06Z"/><path class="cls-8" d="M282.15,384.29c-2.42,2.13-5,3.93-8.86,3.07l8.2-4.29Z"/><path class="cls-9" d="M231,142.92c-.81-1.11-2.08-.74-3.17-1,3.46-1.55,6.86-1.23,11.63.59Z"/><path class="cls-10" d="M112.53,219.1a31.31,31.31,0,0,0-22.3,12.62,36.59,36.59,0,0,0-5,10.05c-.46,1.38,1.71,2,2.17.6a31.67,31.67,0,0,1,9.13-14.25,28.62,28.62,0,0,1,11-5.81,29.08,29.08,0,0,1,5-1c1.42-.14,1.44-2.39,0-2.25Z"/><path class="cls-10" d="M55.57,184.49a1.13,1.13,0,0,0,0-2.25,1.13,1.13,0,0,0,0,2.25Z"/><path class="cls-10" d="M148.5,157a1.5,1.5,0,0,0,0-3,1.5,1.5,0,0,0,0,3Z"/><path class="cls-10" d="M146.88,242.48a1.13,1.13,0,0,0,0-2.25,1.13,1.13,0,0,0,0,2.25Z"/></svg>