<svg id="Layer_1" data-name="Layer 1" xmlns="http://www.w3.org/2000/svg" viewBox="0 0 480 480"><defs><style>.cls-1{fill:#fbfafa;}.cls-2{fill:#010101;}.cls-3{fill:#020202;}.cls-4{fill:#030303;}.cls-5{fill:#060606;}.cls-6{fill:#0e0e0e;}.cls-7{fill:#1d1d1d;}.cls-8{fill:#151515;}.cls-9{fill:#656464;}.cls-10{fill:#fff;}</style></defs><path d="M479.91,240.54q0,117.66.09,235.33c0,3.39-.62,4.11-4.08,4.11q-235.85-.17-471.69,0C.32,480,0,478.83,0,475.52Q.14,239.95,0,4.37C0,.81.68,0,4.33,0Q239.92.19,475.52,0c4,0,4.47,1.17,4.47,4.72Q479.83,122.62,479.91,240.54Z"/><path class="cls-1" d="M243,172.36c1.23-2.58,2.22-5.17,3.62-7.52,8.44-14.18,25.61-15.37,35.6-2.3A135.08,135.08,0,0,1,293.45,179c3.08,5.58,5,12.18,4.12,19a5.62,5.62,0,0,0,0,2.88c3.09,8.67,1.72,16.82-2.35,24.95-2.29,4.61-2.57,9.94-3.38,15-1.35,8.54-2.76,17.14-8.65,24-1.28,1.49-.24,2.08.36,2.88,9.08,12.12,7.84,25.61,3.85,38.7a88.23,88.23,0,0,1-22.94,38.06,11.58,11.58,0,0,0-.77,15.69,63.8,63.8,0,0,0,8,7.54c7,5.6,12.95,12.25,19,18.8,1.25,1.35,2.58,2.61,5.05,1s5.2.14,6.18,2.48c3,7.12,8.47,13.26,8.55,21.57,0,2.75,1.5,5.79-1.77,7.6-3.79,2.11-7.95,3.3-11.8.67-2.94-2-3.25-1.91-6.21,1.1-5.69,5.78-6.8,13-9.93,19.6-3,6.22-8,9.64-14.65,10.78-5.78,1-9.37-2.07-9.44-7.89,0-4.09,1.42-7.82,2.78-11.58,5.1-14.09,3.29-20.91-7.79-31.08-1.91-1.76-3.56-2.18-5.74-1.32-3.24,1.27-6.44,2.66-9.68,3.95-5,2-8.91,1.13-10.66-3.92-4.49-13-10.73-25.5-12.52-39.35-1.31-10.19,0-20.28,7.93-27.22,7.26-6.37,8.73-14.28,9.82-22.74,1.54-12.06,3.65-24,6.1-35.91,1.53-7.46.19-10.82-6-15-5.68-3.84-6.53-5.78-4.72-12.49a170.47,170.47,0,0,1,9.47-25.18c1.1-2.44,1.68-4.72-.71-6.68-3.34-2.73-2-6.95-3.3-10.35-3-7.58-5.57-15.3-8.16-23a19.07,19.07,0,0,1,1.93-16.78,45,45,0,0,0,4-9.64c.9-2.75,2.21-5.25,4.94-6.62,6.67-3.35,9.7-9.22,11.17-16.12,1-4.67,2.41-9.08,6.86-11.65,2.48-1.44,5.21-2.84,7.79-.35s3.56,5.56,2.05,9.09a22.27,22.27,0,0,1-5.72,7.48,22.79,22.79,0,0,0-6.66,10.9c-2.09,7.3-7.27,13.57-7.3,21.58C242.55,170.29,242.06,171.28,243,172.36Z"/><path d="M231.51,321.75c2.1-12.93,4-24.69,6-36.43.9-5.24,2.23-10.41,3.15-15.65.39-2.2,1.11-2.47,3.28-2.05,9.62,1.88,19.18,1.74,28.54-1.61,3.76-1.35,6.32-.34,8.86,3.11,8.22,11.16,7.18,23.42,3.8,35.38a83.6,83.6,0,0,1-22.39,37.76,94.72,94.72,0,0,0-12.32,15c-2.59,3.8-2.71,7.33-.11,11,4,5.71,8,11.47,12.12,17.08,2,2.75,1.58,4.58-1.11,6.49-2.91,2.08-6,3.69-9.55,3.93a39.22,39.22,0,0,0-15.23,4.38c-5,2.52-7.79,1.77-9.26-3.35-3.17-11-8.44-21.33-10.79-32.65-2.67-12.88-.51-24.34,9.72-33.16,11.35-9.79,18.73-22.67,27.46-34.57C244.22,302.45,240.3,313.49,231.51,321.75Z"/><path d="M274.44,217.67c5-1.52,8.76-.3,11.1,4.59.42.88,1,2.09,1.77,2.34,5.54,1.77,3.5,5.55,2.9,9.29-1.31,8.21-2.41,16.44-5.69,24.2-1.44,3.39-3.13,5.68-7.38,4.76-2.27-.49-4.57.27-6.83,1-8.93,2.87-18,2.77-27.1.9-6.51-1.33-9.48-7.33-14.37-10.79-1.77-1.24-.67-4-.11-6.15,2.39-9,6-17.54,9.87-26.29,2.67,1.87,3.73,6.22,7.76,5.32,3.35-.74,4.17-5.15,8.44-6.1.19,5.41,2.37,9.64,7.79,11.67,2.77,1,5.43,1.5,8.25.59C275.86,231.37,276.4,229,274.44,217.67Z"/><path class="cls-2" d="M236,204.67c-.16-1.74-.2-3.75-.54-5.7a14,14,0,0,1,2.68-11.33A55.19,55.19,0,0,0,247,170.46a21.45,21.45,0,0,1,9.84-12.16c1.07-.64,2.76-2.18,3.88-.22.92,1.58,2.21,3.42,0,5.3a31.89,31.89,0,0,0-5.19,5.39c-4.92,6.65-6.41,13.74-2.33,21.46,1.55,2.93,2.76,6,4.22,9,2.32,4.75,3.13,8.69-1.77,13-3.07,2.73-4.51,7.36-8,10.29-1.5,1.27-2.92,2.43-3.92.33C240.88,217,233.8,212.93,236,204.67Z"/><path class="cls-2" d="M290.19,412.75c-.53,3.71-1,7-4.61,9.79s-4.14,8.14-5.59,12.52c-2,6.15-5.31,11-11.9,13s-9.81-.55-8.45-7.31a86,86,0,0,1,2.75-9c1.79-5.56,3.47-11.18,1.87-17.05-.63-2.31.41-2.84,2.14-3.46,3-1.09,6-2.63,6.84-6,.9-3.52,2.7-3.63,5.39-2.25,2.95,1.51,5.86,3.1,8.86,4.51C289.83,408.57,290.51,410.36,290.19,412.75Z"/><path class="cls-2" d="M258.17,351.7c-.49,6.85,3.53,10.9,7.92,14.78,5.21,4.62,10.34,9.33,15.56,13.94,2.93,2.58,3.06,5.28.63,8.22-.74.9-1.41,1.86-2.19,2.71-1.93,2.11-3.42,6.19-6.66,4.73-2.9-1.31-6.15-3.49-6.72-7.73-.4-3-2.47-5.39-4.2-7.81-1.92-2.7-4.09-5.22-6-7.91C249.33,362.75,249.44,361.39,258.17,351.7Z"/><path class="cls-2" d="M272.21,196.85c-.4-1.7.64-2.5,1.2-3.47,6.6-11.51,4.24-22.62-6.74-30.43-2.39-1.69-2.38-4.17-3.53-6.79,8.15-.25,13.93,3.33,18.11,9.59,3,4.56,5.91,9.2,9.35,13.5s2.45,10.51,4.68,15.51c.4.89-.25,1.74-1.74,1.29C286.45,193.89,279.47,196.15,272.21,196.85Z"/><path class="cls-2" d="M274.77,182a22.19,22.19,0,0,1-6.34,13.23c-1.8,1.82-4.17,1.92-6.42.53-10.77-6.67-10.42-24.51.55-30.5,2-1.07,3.29.08,4.43,1.09C271.69,170.46,273.85,175.93,274.77,182Z"/><path class="cls-2" d="M244.43,154.48c-4.51,7.32-5.24,14.65-4.24,22.19.35,2.63-.75,4.44-2.14,6.32-3,4.1-6,8.24-5.69,13.86-3.13-6.69-6.08-13.28-7.22-20.49a11.68,11.68,0,0,1,1.13-7.28,108.58,108.58,0,0,0,6.35-14.55c.72-2,1.62-4.6,4.35-1.11C238.45,155.31,241.19,154.76,244.43,154.48Z"/><path class="cls-2" d="M301.87,418.38c-4,.1-8.61-3.69-8.88-7.45-.18-2.59-1.5-4.18-3.58-5.6-1.57-1.06-5.08-.84-4.21-3.72.95-3.18,1.41-7,5.11-8.72,8.06-3.67,7.92-3.57,12.23,4.55,2.42,4.58,4.88,9,5.26,14.36C308.16,416.78,307,418.25,301.87,418.38Z"/><path class="cls-3" d="M271.84,200.51c6.53-2.6,12.54-2.54,18.49-2.51,3.48,0,4.61,3.06,5.47,5.68,2,6.14.47,12.22-1.45,18-1.14,3.45-4,2.74-5.68.25-2.35-3.52-4.44-7-9.16-7.63-1.62-.2-.88-1.34-.75-2.26C279.48,206.84,277.49,203,271.84,200.51Z"/><path class="cls-2" d="M276.16,210.06c-.17,1.14.22,2.7-1.33,3.36-4.28,1.82-3.38,5.06-2.4,8.36,1.63,5.51.82,7.81-3.07,8.84-4.18,1.1-10.86-2.6-11.42-6.56a14.06,14.06,0,0,0-1.53-5.68c-1.23-2,.12-3.45,1.38-4.81,3.65-3.93,8.95-5.58,12.82-9.35C272.49,202.39,276.11,206.12,276.16,210.06Z"/><path class="cls-4" d="M238.76,151.7c.65-2.61,2.12-4.19,3.35-5.88,3.07-4.2,5.68-8.53,6.29-13.9a11.72,11.72,0,0,1,3.6-7.52c1.77-1.58,3.92-3.86,6.48-1.77,2.4,2,2.2,4.73.45,7.19a28.27,28.27,0,0,1-4.17,4.94,22.43,22.43,0,0,0-7.42,12.12C246.29,151.68,243.3,152.36,238.76,151.7Z"/><path class="cls-5" d="M258.32,404c4.72-.66,8.42-1.5,11.14-4.48.73-.8,1.54-1.32,2.59-.7,1.5.87,0,1.58-.22,2.34a18.46,18.46,0,0,1-.92,2.81,8,8,0,0,1-6.88,5C260.83,409.34,261,405.68,258.32,404Z"/><path class="cls-6" d="M253.74,398.56c3.48-1.33,6.51-2.06,8.6-4.22,2.57-2.65,4.33-.79,5.57,1,1.58,2.24-1.07,3-2.31,3.79C261.9,401.41,258.05,402.16,253.74,398.56Z"/><path class="cls-7" d="M269.57,198.37c-3.42,1.94-2.47,7.41-7.32,8.13a24.73,24.73,0,0,0-2.51-8.39C263.22,199.28,266.34,199.79,269.57,198.37Z"/><path class="cls-8" d="M282.58,398a20.9,20.9,0,0,1-2-1.26c-1-.81-.1-1.47.33-2.06,1.47-2,3.17-3.89,4.46-6,.9-1.47,1.43-1.77,2.93-.68,1.76,1.28.75,1.71-.21,2.72-1.69,1.79-3.67,3.47-4.13,6.12A1.19,1.19,0,0,1,282.58,398Z"/><path class="cls-9" d="M274.78,399.09c4-1.67,5.17.49,6.58,2.12Z"/><path class="cls-10" d="M256,94.68a.75.75,0,0,0,0-1.5.75.75,0,0,0,0,1.5Z"/><path class="cls-10" d="M287.56,115a.75.75,0,0,0,0-1.5.75.75,0,0,0,0,1.5Z"/><path class="cls-10" d="M215.48,118.33a.75.75,0,0,0,0-1.5.75.75,0,0,0,0,1.5Z"/></svg>