<svg id="Layer_1" data-name="Layer 1" xmlns="http://www.w3.org/2000/svg" viewBox="0 0 480 480"><defs><style>.cls-1{fill:#fcfbfb;}.cls-2{fill:#5b5a5a;}.cls-3{fill:#010101;}.cls-4{fill:#020202;}.cls-5{fill:#020101;}.cls-6{fill:#040404;}.cls-7{fill:#070707;}.cls-8{fill:#080808;}.cls-9{fill:#141414;}</style></defs><path d="M479.91,240q0,117.92.09,235.83c0,3.26-.44,4.18-4,4.18q-235.86-.18-471.71,0C.54,480,0,479.06,0,475.6Q.15,240,0,4.43C0,1,.45,0,4.26,0Q240.11.2,476,0c3.53,0,4,.84,4,4.15Q479.84,122.07,479.91,240Z"/><path class="cls-1" d="M276,412.93c-1.63,4.6-5.27,5.17-9.34,4.41-4.33-.82-7.26-3.23-7.67-7.93a48.79,48.79,0,0,1,1.19-13.88c1-5.25.36-9-4.62-13.19-8-6.67-13.56-15.82-12.84-27,1.5-23.27-2.22-46.18-4.31-69.2-.8-8.79,1.35-16.83,4.6-24.75,1.3-3.16,1.27-4.85-2.85-5.8-7.88-1.81-11.61-7.73-13.14-15.32-1.56-7.76-.84-15.6-.77-23.41a28.31,28.31,0,0,0-3.56-13.79c-4.93-9.41-10.64-18.42-13.92-28.67-2.85-8.91-1.85-17.13,3.25-24.78,3.37-5.05,6.36-10.31,11.35-14.34,3.57-2.89,5-7.8,4.27-12.76-.65-4.32-1.18-8.28,4.47-10,1.95-.58,1.92-3.34,2.7-5.14,1-2.26,2.31-4.35,5.06-3.94s3.57,2.83,3.9,5.21c.75,5.33-.76,10.33-3.12,14.93C236,132.78,234,143,228.37,151.9c-3.72,5.87-1.25,13.37,4.57,18.32,2.38,2,5,3.72,8.21,6-1.13-10.54,5.09-17.66,9.74-25.27,3.38-5.52,8.34-7.75,15.36-6.21,12.87,2.81,18.51,8,20.56,20.62a10.35,10.35,0,0,0,1.33,4.24,17.17,17.17,0,0,1,3,14.63c-.62,2.61.35,4,3.2,5.06,12,4.28,16.71,13.61,13.7,26.13a35.82,35.82,0,0,1-4.75,11.46c-1,1.54-2,3.4-3.92,3.64-6.33.82-6,5-5.06,9.51.78,3.88,3.32,8.66.46,11.51-4.27,4.25-1.05,6.63.72,9.57C306.34,279,307,298,301.36,317.47c-2.55,8.82-4.85,17.65-5.43,26.84-.15,2.32-.51,4.75,0,7a38.07,38.07,0,0,1-3.38,26.59c-1.79,3.52.26,7.8,1.26,11.64,1.34,5.14,3.7,10,4.56,15.28,1.3,8.06-1.75,14.82-6.49,20.81-3.76,4.75-11.91,2.69-13.6-3.28-.85-3-.9-6.24-1.31-9.37-1.45-6.19.55-12.19,1-18.26,0-4.32.28-8.68-1.73-13.85.71,3.77,2,6.35,1.73,9.22C278,397.75,276.36,405.28,276,412.93Z"/><path class="cls-2" d="M278.84,393.85c-.57,6.37-2,12.65-1.89,19.09l-.47-.08-.48.07c-1-8.07,1.63-16,1.08-24C280,389.72,277.53,392.46,278.84,393.85Z"/><path d="M268.75,291.28c-2.67-1.56-2.6-7.18-5.77-5.53-2.08,1.08,1.63,4.7,3,6.84,4.2,6.57,2.81,14,3.76,21,1.5,11-.72,21.92-2.05,32.81a50.32,50.32,0,0,0,3.7,25.38c.48,1.19,1.57,2.25,1,3.7-.83,2.09,1.36,5.57-2.37,6.25-4.74.87-10,2-13.71-2.05-6.6-7.26-11.84-15.47-11-25.9,1.77-21.26-1.53-42.22-3.87-63.19-1.24-11.08,1.16-21.09,4.88-31.16.69-1.87,1.68-1.91,3.37-1.78,12.33.89,24.66,1.07,36.75-2,2.73-.68,3.08,1.19,4.05,2.56,12.86,18.31,14.3,38.23,8.1,59.1a133.27,133.27,0,0,0-5.29,25.36c-.36,3.83-.64,7.64.19,11.43a29.8,29.8,0,0,1-1.66,18.54c-1.74,4.14-4.63,5.88-8.62,6.51s-5.84-2.3-7.36-4.94a41.37,41.37,0,0,1-5.65-25.39c.64-6.29,1.31-12.58,2.05-18.86a91.13,91.13,0,0,0-.67-25.39,32.66,32.66,0,0,1,2.39-19.5c.52-1.11,2-2.67.4-3.48-1.95-1-2.31,1.32-2.86,2.51C270.47,286.44,269.69,288.81,268.75,291.28Z"/><path d="M227.81,146.44c-6.33,12.68-4.33,20.52,7,28.66a20.43,20.43,0,0,0,3.26,2.29c5.15,2.28,5.95,6.55,4.57,11.15-2,6.69,2.39,11,5.16,16a3.12,3.12,0,0,0,4.81,1C257,201.65,263,199,263.17,191.83c1.84.69,3.52,1.94,5.1,1.81,9.82-.82,12.42,6.54,14.22,13.41,2,7.76,4.45,14.95,10.47,20.51.59.55,1.55,1.26.75,2-4.35,3.95-2.37,8.63-1.52,13.08,1.6,8.35,1.76,8.63-6.49,10.43-14.62,3.2-29.34,3.65-44,.19-6.81-1.6-10.34-6.2-11.79-12.74-1.61-7.25-1-14.59-.85-21.9A33.83,33.83,0,0,0,224.7,201c-4.76-8.74-9.87-17.31-13.18-26.82-3.72-10.69-.42-19.54,5.92-27.92.59-.78,1.05-1.84,2.24-.72C222,147.68,224.64,146.8,227.81,146.44Z"/><path d="M261.87,146.88a6,6,0,0,1,5.8,3.23c1.18,2.14-1.27,2.74-2.24,3.82-5.79,6.45-9,13.6-6.26,22.36,1.62,5.23,1.15,10.52,1,15.84-.15,5.88-5.54,7.4-8.72,10.76a1.05,1.05,0,0,1-1.7-.32c-1.59-3.87-5.74-6.78-4.6-11.68a26.67,26.67,0,0,0-.64-13.79A15.1,15.1,0,0,1,246,164.62c2.55-4.27,4.87-8.7,7.63-12.83C255.52,149,258.14,146.85,261.87,146.88Z"/><path class="cls-3" d="M279.72,410.22c-.45-5.05.89-9.9,1.55-14.83.39-2.95.49-5.94.82-8.91.16-1.43-1.39-3.31.09-4.15a16.9,16.9,0,0,1,6.19-1.65c1.25-.15,1.25,1.31,1.32,2.24.45,6.06,2.83,11.59,4.8,17.21,2.91,8.29,1,15.62-3.75,22.61a5.43,5.43,0,0,1-5.57,2.38c-2.5-.24-3.82-1.72-4.46-4C279.71,417.53,279.93,413.85,279.72,410.22Z"/><path class="cls-4" d="M262.63,385.3c1.72-.12,3.18-.21,4.63-.33,5.84-.44,7,.26,7.42,6.1.5,7-1.76,13.81-1.52,20.85.1,2.78-2.6,3.12-4.88,2.91-3.2-.29-5.91-1.45-6.45-5.07a27.45,27.45,0,0,1,.33-9.94C263.17,395.07,264,390.35,262.63,385.3Z"/><path class="cls-3" d="M290.24,195.05c8,7,10.57,16.14,11.95,25.76a6.53,6.53,0,0,1-1.13,4.69c-1.58,2.37-2.92,3.13-5.43.9-6.3-5.58-9.23-12.74-10.55-20.79-.14-.88-.25-1.76.64-2.14C289.27,201.94,289.77,198.69,290.24,195.05Z"/><path class="cls-5" d="M262.55,177.89c-3.55-9.1-.68-16.29,5.53-22.81,2.09-2.18,3.34-1.82,5,.2,4.37,5.19,4.83,11.66,5.82,17.89.33,2.16-.58,3.51-3.59,2.44C270.86,174,266.24,174.12,262.55,177.89Z"/><path class="cls-4" d="M265,185.27c.48-3.48-1-6.8,3.33-7.61s10.07,1.07,11.56,4.91a24.16,24.16,0,0,0,5.72,8.59c1.9,1.88,1.56,4.25,1.45,6.55a3.41,3.41,0,0,1-2.22,3.08c-2,.75-1.94-1.32-2.57-2.26-3-4.5-6.34-7.88-12.45-7.48C265.28,191.34,264.21,188.33,265,185.27Z"/><path class="cls-6" d="M241.18,111.42a26.76,26.76,0,0,1-3.08,11.27A95.47,95.47,0,0,0,232,138.44c-1.09,3.86-3.77,5.22-7.3,5.64-1.09.13-2.43.43-3.1-.89s.35-2.2.94-3.15c1.15-1.84,3.44-2.53,4.47-4.58,2.24-4.49,4.44-8.89,3.22-14.2-.61-2.65-.71-5.24,3-6.13,2.09-.5,2.59-2.85,3.39-4.67.69-1.58.76-4.45,2.9-4S241,109.82,241.18,111.42Z"/><path class="cls-7" d="M271.28,150.3a12.93,12.93,0,0,1,12.32,11.31c.51,4.74,1.56,9.1,4.25,13.08,1.72,2.54,1.23,5.44.77,8.23a15.94,15.94,0,0,0,.28,6.6c-5.84-3.65-7.34-9.26-7.47-15.52C281.24,165.07,280.05,155.87,271.28,150.3Z"/><path class="cls-8" d="M291.06,191.52c11.85,1.28,18.48,14.8,13.53,24.59-1.59-4.49-3-8.84-4.67-13.06S294.55,195.7,291.06,191.52Z"/><path class="cls-9" d="M278.84,393.85c-1.45-1.34-.21-3.64-1.76-4.94-.55-3.32-3.28-6.23-1.68-10.45C280.45,383,279.51,388.44,278.84,393.85Z"/></svg>