<svg id="Layer_1" data-name="Layer 1" xmlns="http://www.w3.org/2000/svg" viewBox="0 0 480 480"><defs><style>.cls-1{fill:#fbf9f9;}.cls-2{fill:#010101;}.cls-3{fill:#020101;}.cls-4{fill:#040404;}.cls-5{fill:#929090;}.cls-6{fill:#262525;}</style></defs><path d="M479.91,240q0,117.92.09,235.83c0,3.27-.44,4.18-4,4.18q-235.86-.18-471.71,0C.53,480,0,479.05,0,475.59Q.15,240,0,4.43C0,1,.46,0,4.26,0Q240.12.2,476,0c3.53,0,4,.84,4,4.15Q479.84,122.07,479.91,240Z"/><path class="cls-1" d="M289.72,255.35c0,.16,0,.41,0,.48,17.3,14.09,16.68,33.37,14.77,52.7-1.52,15.31-3.1,30.43,2.3,45.4,2,5.45-1.88,12.66-9,16.07-4.8,2.3-4,5-2.16,8.06,5.68,9.76,4.19,19.5.38,29.3-1.29,3.31-2.75,6.82-7,6.82s-6.09-3.51-7.52-7c-1.24-3-1.29-6.14-1.27-9.33.05-9.6,0-19.21,0-29.71-8.57,11-8.94,7.5-5.5,19.3,2.61,8.93-.55,16.85-5,24.06-3.32,5.32-11.82,3.11-14.15-3.6-2-5.91-2.38-12.07.59-18a18.85,18.85,0,0,0,1.95-4c1-4.32,1.49-8.44-2.88-11.72-6.67-5-10.05-11.14-8.67-20.22a81.56,81.56,0,0,0-2.91-36c-5.14-17.09-7.57-34.53-2.67-52.16,1.22-4.4-.6-6.69-4.27-6.85-12.91-.58-15.4-9.48-16.85-19.73a45.1,45.1,0,0,1,0-12.92c.77-5.26-.55-9.61-3.7-14a168.69,168.69,0,0,1-14.52-23.25c-5.53-11-4.65-15.35,4.27-23.69,5.22-4.89,10.39-9.82,15.63-14.69,2.69-2.52,3.09-5.68,3-9.13-.09-5.49,2.55-8.63,7.91-9.74,5.06-1,8.29,2,8.07,7.24-.33,7.39-4.79,12.55-9,17.89-2.89,3.65-6.1,7.08-8.66,10.94-3.17,4.77-2.6,6.67,2,10,.68.49,1.39.92,2.1,1.35,7.43,4.53,7.45,4.54,9.9-3.34,2.94-9.44,9.36-16.18,16.61-22.56,9-7.88,26-1.36,29.36,7.44a48.92,48.92,0,0,1,1.95,5.12c.76,3.06,2,5,5.42,6.21,6.66,2.38,7.41,7.4,2.78,14-3.24,4.65-2.8,7.46,2.27,10.21,10.76,5.83,12.65,16.3,13.28,26.73.46,7.64-5.76,12.4-11.38,16.66-2,1.54-2.54,2.46-1.53,5C298.66,252.31,297.6,253.9,289.72,255.35Z"/><path d="M272.74,294.85c-2.05-1.67-2.61-6.47-5.1-5.07-2.32,1.3,1.58,3.91,2.26,6.16,1.08,3.62,2.48,7,2.11,11-1.17,12.74,2,25.15,3.37,37.7.69,6.45,1.46,12.92,1.65,19.39.14,5.05-3.21,8.76-7,11.41-3.36,2.36-7.19.79-10.29-1.33-7.22-4.92-12.09-10.63-10.38-20.69a75.62,75.62,0,0,0-2.59-34.56c-5.3-17.59-7.89-35.41-3-53.62.48-1.79.07-3.3,3.13-2.65a43.84,43.84,0,0,0,30.47-4.44c.87-.47,1.8-.86,2.7-1.29,3.31-1.58,5.23-1.54,8.77,1.55,13.55,11.83,14.31,27.1,13.57,43-.41,8.8-1.56,17.56-2.28,26.35a57.21,57.21,0,0,0,3.8,25c2.17,5.75-1.12,9-4.44,12.63a10.87,10.87,0,0,1-11.79,3.29c-4.85-1.39-8.51-3.51-8.5-9.73,0-12-2.55-23.79-4-35.68a102.34,102.34,0,0,1,.86-29.85c.23-1.31,1.84-3.34-.2-3.88-2.24-.6-1.79,2.13-2.47,3.42A14.66,14.66,0,0,0,272.74,294.85Z"/><path d="M217.9,155.39c1.38,3.55,1.6,5.44,2.65,6.5,1.53,1.52,1.28,2.43.34,4.11-4.28,7.6-3.5,10.32,4,15.08a18,18,0,0,0,3.91,2.19c7.72,2.52,9.78,8.43,9.67,15.72,0,2,.16,4.21,1.72,5.57a29.5,29.5,0,0,1,7.67,9.54c1.44,3,4.32,2.29,6-.24a22.57,22.57,0,0,1,7.14-6.79,6.68,6.68,0,0,0,3.39-6.28c-.22-4,1.46-5,5.15-3.89,1.22.38,2.66,0,4,.17,2,.29,4.19-2.48,5.48-.57,2,2.94,4.25,6.22,3.77,10-1.47,11.6.58,21.93,8.33,31.28,2.42,2.93,2.46,8,3.16,12.13.34,2-1.78,2.24-3.22,2.15-6.44-.4-11.9,2.38-17.56,4.88-11,4.84-22.12,5.85-33.24.27-3.17-1.59-6.64-2.17-10-2.94s-4.59-2.52-5.45-6A71.85,71.85,0,0,1,223,220.65c.47-3.31-1.92-5.89-3.69-8.49-5.23-7.71-10.5-15.41-14.86-23.65-5.39-10.19-4.59-13.33,3.57-21.35C211.46,163.79,214.26,159.78,217.9,155.39Z"/><path d="M241.45,196.87c-.27-1.37-.17-3.4-1-4.88-3.78-6.55-2.17-12.9.55-19.09a42.52,42.52,0,0,1,17-19c2-1.22,4-2.17,6.57-1.39,4.83,1.47,5.42,3.17,1.89,6.6-5.89,5.73-7,12.81-5.05,20.24,1.89,7.2,2.55,14.2.54,21.43-.53,1.89-1.25,3.47-2.93,4.37-3.33,1.79-5.13,6.35-7.89,7.08-3,.8-2.69-5.47-6-7.08C242,203.6,240.36,201,241.45,196.87Z"/><path class="cls-2" d="M285.26,210.65c9.34,3.46,12.82.55,11.44-9.52a2.7,2.7,0,0,1,.94.22c10.95,7.84,10.47,28-.68,35.24-2.26,1.46-2.9-.06-3.94-1.19C286.54,228.38,284.19,220.06,285.26,210.65Z"/><path class="cls-2" d="M283.1,370c2.81,1,7.21,1.29,7.67,2.82,1.73,5.69,5.63,10.62,6,16.75.36,6.61-1.32,12.8-4,18.77-.69,1.54-1.72,3.09-3.51,3.2-2,.11-3.17-1.55-4.11-3.15a13.3,13.3,0,0,1-2-6.59C283.06,391.35,283.1,380.93,283.1,370Z"/><path class="cls-2" d="M263.21,173.52c0-6.35,2.88-10.74,7.24-14.49,1.66-1.42,2.7-.86,3.68.44,3.87,5.14,8.11,10.15,4.7,17.36-1.38,2.92-.61,6.23-.92,9.36-.54,5.4-2.87,6.37-7.52,3.46C264.11,185.72,264.08,179.28,263.21,173.52Z"/><path class="cls-2" d="M261.09,378.77c.45-.31.66-.52.71-.49,2.55,1.7,7.36-.77,8,1.74,1.38,5.48,4.81,10.82,2.85,16.91-1.11,3.47-2,7-3.34,10.41-.84,2.12-2.06,4.46-4.9,4.28a6.6,6.6,0,0,1-6.33-4.84c-1.45-5.19-2.16-10.51.63-15.5C261,387.27,262.44,383.21,261.09,378.77Z"/><path class="cls-3" d="M280.33,190.64c.28-4.92.33-8.25.71-11.55.27-2.34,1.07-4.73,3.74-5.34,3-.68,5.58.68,7.52,2.89a4.11,4.11,0,0,1-.4,5.91c-7.28,5.86-3,11.3.17,16.89,1,1.72,2.14,3.39,2.32,5.46.15,1.75-.08,3.42-1.94,4.16s-4.09.64-4.92-1.14C284.68,201.81,281.14,195.93,280.33,190.64Z"/><path class="cls-4" d="M237.86,138.53a19.89,19.89,0,0,1-5.55,13c-2.13,2.31-3.91,5-5.9,7.41-.78,1-1.38,2.58-3.08,1.75-1.4-.68-1.43-2.12-1.41-3.49a5.19,5.19,0,0,1,1.19-3.72c3.62-3.59,4.37-8,4.18-12.83-.13-3.41,4.15-6.89,7.43-6.38C237.07,134.65,238.09,136.19,237.86,138.53Z"/><path class="cls-5" d="M280.56,161.75c1.82,2.54,2.35,5.6,2.29,9-1.16-2.82-2.33-5.65-3.5-8.47Z"/><path class="cls-6" d="M266.2,190l6.41,4.15C266.87,194.18,266.87,194.18,266.2,190Z"/></svg>