<svg id="Layer_1" data-name="Layer 1" xmlns="http://www.w3.org/2000/svg" viewBox="0 0 480 480"><defs><style>.cls-1{fill:#fbf9f9;}.cls-2{fill:#010101;}.cls-3{fill:#020202;}.cls-4{fill:#030303;}.cls-5{fill:#060606;}.cls-6{fill:#0e0e0e;}.cls-7{fill:#1d1d1d;}.cls-8{fill:#151515;}.cls-9{fill:#656464;}.cls-10{fill:none;stroke:#fff;stroke-linecap:round;stroke-miterlimit:10;stroke-width:3px;}.cls-11{fill:#fff;}</style></defs><path d="M479.91,240q0,117.92.09,235.83c0,3.27-.44,4.18-4,4.18q-235.86-.18-471.71,0C.53,480,0,479.05,0,475.59Q.15,240,0,4.43C0,1,.46,0,4.26,0Q240.12.2,476,0c3.53,0,4,.84,4,4.15Q479.84,122.07,479.91,240Z"/><path class="cls-1" d="M242.82,171.72c2.63-6,5.88-11.27,11.27-14.94,8.84-6,20.71-3.83,27.92,5.42a141.87,141.87,0,0,1,11.48,16.85,30.74,30.74,0,0,1,4.05,19,5.75,5.75,0,0,0,.07,2.88c3,8.67,1.67,16.82-2.4,25-2.3,4.59-2.55,9.94-3.37,15-1.37,8.53-2.74,17.14-8.69,24-1.28,1.49-.13,2.09.46,2.89,9.07,12.33,7.78,25.92,3.62,39.17a88.41,88.41,0,0,1-22.81,37.58,11.53,11.53,0,0,0-.67,15.69,63.29,63.29,0,0,0,8.34,7.86c7,5.43,12.54,12.2,18.62,18.49,1.32,1.36,2.63,2.48,5.07.91s5.19.19,6.16,2.55c2.9,7,8.3,13,8.43,21.09.05,2.89,1.79,6.11-1.74,8.06-3.79,2.1-8,3.3-11.79.61-3.07-2.17-3.33-1.54-6.17,1.2-5.89,5.67-6.78,13-10,19.59-3,6.2-8,9.62-14.68,10.74-5.79,1-9.34-2.12-9.38-8,0-3.91,1.31-7.52,2.61-11.11,5.3-14.56,3.59-21.25-7.68-31.52a5,5,0,0,0-5.27-1.46c-3.42.89-6.5,2.53-9.69,3.92-5.34,2.32-9.28,1.47-11.08-3.77-4.49-13-10.74-25.5-12.51-39.36-1.3-10.2.06-20.28,8-27.2,7.29-6.38,8.69-14.31,9.79-22.76,1.56-12.05,3.66-24,6.1-35.91,1.59-7.72.41-10.61-6-15-5.65-3.82-6.52-5.8-4.71-12.5a169,169,0,0,1,9.48-25.18c1.11-2.45,1.64-4.72-.73-6.68-3.33-2.74-2-7-3.31-10.36-3-7.58-5.56-15.3-8.15-23a19.07,19.07,0,0,1,2-16.78,44.25,44.25,0,0,0,4-9.64c.91-2.75,2.23-5.25,5-6.61,6.68-3.34,9.68-9.22,11.16-16.13,1-4.67,2.42-9.07,6.86-11.63,2.49-1.44,5.22-2.83,7.79-.34s3.57,5.59,2,9.1-4.92,5.87-7,9C248.51,148.53,243.85,159.5,242.82,171.72Z"/><path d="M252.88,295.68c-8.41,6.95-12.69,17.47-21.21,26.11,1.22-8.12,2.12-15.05,3.31-21.93,1.68-9.67,3.66-19.29,5.3-29,.53-3.18,1.61-3.73,4.84-3.1a50.08,50.08,0,0,0,27.06-1.71c4-1.44,6.64-.42,9.26,3.22,8.08,11.22,7,23.46,3.6,35.41a83.7,83.7,0,0,1-22.49,37.71,97.36,97.36,0,0,0-12.3,15c-2.68,3.87-2.35,7.41.17,11,3.9,5.58,7.75,11.21,11.85,16.65,2.23,2.95,1.87,5-1.2,6.82-1.71,1-3.34,2.53-5.19,2.86-7.7,1.37-15.28,2.93-22.37,6.53-2.88,1.46-5-.95-5.7-3.37-4-13-10.55-25.19-12.14-39-1.2-10.44,1.34-19.77,9.3-26.7,11.44-10,19.2-22.91,28.76-34.39.25-.3.21-.86.3-1.3Z"/><path d="M238.72,221.21c1.34,1.65,2.16,2.87,3.19,3.89,2.41,2.38,4.83,2.74,7.2-.16,1.45-1.76,2.82-3.69,5.87-4.14-.23,7.28,3.93,11,10.42,12.45,7.37,1.65,12-3.4,10.23-10.7-.41-1.64-2.86-3.93-.29-5.05a6.75,6.75,0,0,1,7.87,1.5c2.49,2.75,3.63,6.84,7.93,7.82.82.19.42,1,.26,1.68-2.43,9.65-2.63,19.79-6.65,29.11-1.6,3.72-3.37,6.33-8.06,5.24-2.11-.49-4.24.32-6.33,1-8.94,2.86-18,2.76-27.11.92-6.52-1.31-9.46-7.35-14.39-10.76-1.78-1.23-.7-4.05-.14-6.15C231.1,238.83,234.75,230.3,238.72,221.21Z"/><path d="M236,204.69c-.16-1.8-.19-3.81-.53-5.76A13.52,13.52,0,0,1,237.91,188,60.66,60.66,0,0,0,247.19,170a20.83,20.83,0,0,1,9.67-11.68c1.07-.62,2.75-2.16,3.87-.17.91,1.61,2.16,3.44-.1,5.31a30,30,0,0,0-5.18,5.38c-4.9,6.66-6.39,13.75-2.31,21.47,1.71,3.22,3.17,6.59,4.66,9.92,1.93,4.3,2.55,7.88-1.89,11.76-3.26,2.85-4.6,7.72-8.31,10.68-1.56,1.24-2.95,2.32-3.93.26C240.88,217,233.76,212.91,236,204.69Z"/><path d="M290.28,412.1c-.59,4.5-1.17,7.77-4.76,10.53s-4.12,8.16-5.56,12.54c-2.1,6.36-5.6,11.21-12.45,13-6.12,1.64-9.08-.84-8-7.09a47.75,47.75,0,0,1,2.23-7.62c1.3-3.6,2.89-7.29,2.77-11.05-.22-6.23-.69-12.13,7-14.39a2.27,2.27,0,0,0,1.15-1.56c1.16-6.31,4.79-4.22,8.28-2.47,2.08,1,4.07,2.26,6.17,3.24C289.58,408.41,290.65,410.18,290.28,412.1Z"/><path class="cls-2" d="M258.23,351.74c-.65,6.5,3.09,10.48,7.23,14.21,5.31,4.79,10.64,9.58,16,14.3,3.14,2.74,3.26,5.55.61,8.64-.76.89-1.41,1.86-2.19,2.73-1.81,2-3.41,5.87-6.33,4.53s-6.32-3.37-6.84-7.7c-.35-3-2.47-5.42-4.18-7.85-2-2.86-4.32-5.5-6.36-8.34C249.35,362.72,249.53,361,258.23,351.74Z"/><path class="cls-2" d="M272.2,196.81c-.45-1.7.77-2.6,1.39-3.7,6.34-11.24,3.81-22.62-6.73-30.14-1.9-1.35-1.9-1.35-3.42-6.26,6.44-1.09,13.07,2,17.44,8.49,3.24,4.83,6.29,9.74,9.89,14.34,3.37,4.3,2.24,10.24,4.54,15.05.26.53.06,2-1.11,1.6C286.78,193.73,279.5,196.3,272.2,196.81Z"/><path class="cls-2" d="M274.67,182.72a21.68,21.68,0,0,1-5.91,12.18c-2.05,2.19-4.64,2.36-7.18.5-9.47-7-10.62-17.64-2.84-26.31,5-5.62,7.32-5.43,11.58.95C272.72,173.63,274.66,179,274.67,182.72Z"/><path class="cls-2" d="M231.49,196.06c-2.17-6.19-4.65-11.45-5.89-17.16-.65-3-.92-6,.33-8.81,2.36-5.3,5-10.44,6.88-16,.78-2.36,1.89-3.65,4.16-.7,1.46,1.91,4.22,1.36,7.41,1.08-4.71,7.65-5.13,15.6-4.11,23.74.23,1.89-1,3.1-2,4.39A40.58,40.58,0,0,0,231.49,196.06Z"/><path class="cls-2" d="M307.91,414c.09,3.51-5.94,5.95-9.57,3.52-2.71-1.8-6.72-2.85-5.63-7.86.43-1.95-1.77-3.31-3.5-4.46-1.5-1-4.79-1.08-4.09-3.35,1-3.31,1.41-7.38,5.39-9.06.15-.07.34,0,.49-.06,7.72-2.78,7.5-2.66,11.67,4.86C305.55,402.81,308,408,307.91,414Z"/><path class="cls-3" d="M272.45,200.3c5.94-2.43,12.08-2.35,18.16-2.26,3.19.05,4.25,3,5.11,5.45,2.16,6.13.45,12.18-1.26,18-.93,3.2-4,3.32-6,.21-2.21-3.45-4.29-6.75-8.77-7.35-1.4-.19-1.09-1-1.06-2.11C278.8,205.42,278.39,204.75,272.45,200.3Z"/><path class="cls-2" d="M276.14,210c-.12,1.28.17,2.78-1.4,3.43-4,1.67-3.34,4.8-2.45,7.94,1.71,6.05,1,8.24-3,9.24-4.48,1.12-10.76-2.83-11.4-7.17-1.46-9.8-1.46-9.8,7.72-15.39a26,26,0,0,0,2.87-2c1.33-1.1,2.18-3.11,4.53-1.92A6.63,6.63,0,0,1,276.14,210Z"/><path class="cls-4" d="M238.23,151.52c2.19-3.2,3.91-5.79,5.7-8.33a24.11,24.11,0,0,0,4.31-10.49c.55-3.65,1.75-7.19,5-9.37,1.58-1,3.46-2.56,5.38-.61a4.69,4.69,0,0,1,.87,6,25.91,25.91,0,0,1-4.59,5.85,23.89,23.89,0,0,0-7.69,12.54C246.17,151.93,243.11,152.41,238.23,151.52Z"/><path class="cls-5" d="M258.8,404.07c4.25-.75,8.14-1.54,10.9-4.73a1.78,1.78,0,0,1,2.63-.3c1,.79-.25,1.34-.42,2a26.47,26.47,0,0,1-.94,2.81,8,8,0,0,1-6.78,5.11C261,409.45,260.87,405.88,258.8,404.07Z"/><path class="cls-6" d="M254.22,398.46c3.22-1.35,6.5-2.44,9.11-4.81,2.18-2,3.22.51,4.42,1.48,2.07,1.68-.22,2.51-1.09,3.28C262.81,401.78,257.92,401.79,254.22,398.46Z"/><path class="cls-7" d="M262.15,206.53a21.73,21.73,0,0,0-2.26-8.2,29.89,29.89,0,0,0,4.74.8,49.63,49.63,0,0,0,6.05-.85C266.19,200.29,267.12,205.71,262.15,206.53Z"/><path class="cls-8" d="M289.51,389.36c-2.32,2.38-4.61,4.16-5.38,7-.5,1.87-1.08,2-2.71,1-1.91-1.08-1.12-1.95-.23-3,1.25-1.55,2.79-3,3.64-4.73C286.52,386.14,288,387.37,289.51,389.36Z"/><path class="cls-9" d="M281.22,401.32l-5.53-2C278.57,398.38,278.57,398.38,281.22,401.32Z"/><path class="cls-10" d="M283.5,125.5s26,7,36,33"/><path class="cls-11" d="M326.83,181.73a1.5,1.5,0,0,0,0-3,1.5,1.5,0,0,0,0,3Z"/><path class="cls-11" d="M331.34,207.64a1.5,1.5,0,0,0,0-3,1.5,1.5,0,0,0,0,3Z"/></svg>