<svg id="Layer_1" data-name="Layer 1" xmlns="http://www.w3.org/2000/svg" viewBox="0 0 480 480"><defs><style>.cls-1{fill:#fbfafa;}.cls-2{fill:#010101;}.cls-3{fill:#020202;}.cls-4{fill:#030303;}.cls-5{fill:#0a0a0a;}.cls-6{fill:#3b3a3a;}.cls-7{fill:#fff;}</style></defs><path d="M.1,239.5Q.1,121.8,0,4.09C0,.67.67,0,4.09,0Q240,.17,475.91,0c3.42,0,4.09.67,4.09,4.09q-.17,235.91,0,471.82c0,3.42-.67,4.09-4.09,4.09Q240,479.84,4.09,480C.67,480,0,479.33,0,475.91Q.18,357.7.1,239.5Z"/><path class="cls-1" d="M194.73,176.76c-5.67-1.72-6.84-4.63-4-9.88,1.13-2.11,3-3.51,4.67-5.14,1-1,2.88-1.73,2.12-3.5-.63-1.45-2.4-1.82-3.87-1.91-3.15-.19-6.32-.07-9.48-.21-2.16-.09-4.8-.21-5-3-.14-2.45,2.22-3,4.24-3.36l4.22-.85c-1.72-2.51-4.39-2.69-6.44-3.84-1.69-.95-4.12-1.17-4.3-3.64-.16-2.32,2.23-2.6,3.64-3.77-.56-1.93-4.66-1.61-3.34-4.45,1.12-2.39,3.75-1.6,5.86-1.42a22.49,22.49,0,0,0,8.91-.54c14.59-4.74,30-4.86,44.9-5.44,8.77-.34,19.7,1.72,24.71,12.24a9.13,9.13,0,0,0,.53.84c1,1.59,4,2.21,3.07,4.61s-3.47,2.12-5.66,2.09c-3.34,0-2.28,2.21-1,3,9.16,6,12.23,18.07,22.67,22.78.86.39,2,1,1.57,2.18-.38,1-1.55,1.11-2.6,1.09-5.26-.13-10.26-1-14.36-4.71-.8-.72-1.6-2.18-2.84-1.5-1.4.78-.75,2.4-.57,3.65.68,4.85,3.43,8.15,7.83,10.2,1.15.53,3,.75,2.87,2.37-.12,1.85-2.07,1.94-3.43,2.33-2.35.66-4.75,1.11-7.58,1.75,3.8,5,7.74,9.62,10.11,15.37,3.72,9,4.23,18.45,4.66,27.91.57,12.59,5.08,24.4,6.9,36.73.16,1.12,1.49,2.11,2.39,3.06,2.38,2.54,5.11,4.79,6.91,7.84,1.15,1.95,1.73,4.07.43,6.13-1.2,1.9-3.14,2.32-5.28,2a10.41,10.41,0,0,0-2.47-.25c-8.31.74-8.6.57-11.42-6.88s-10-12.11-12.29-20l-1.69.83c3.07,8.42,5.77,17,9.33,25.21,3.39,7.79,6.86,15.5,9,23.76a35.18,35.18,0,0,0,5,10.81,50.41,50.41,0,0,1,6.82,14.91c3.5,12.84,8.78,25.13,11.67,38.16A12.76,12.76,0,0,1,301,384c-1.91,3.72-.33,9.21,1.51,13.68.05.14.3.22.34.35,2.4,9.05,8.94,14.69,16.2,19.78a8.86,8.86,0,0,1,2.24,2.65c1.13,1.85,2.44,3.89,1.47,6.06-1.06,2.38-3.6,2.35-5.69,2-7.33-1.17-13.84,3.24-21.1,2.77-7-.46-8.78-1.89-9.05-9-.3-8-.09-15.92.21-23.89.12-3-1.43-6.09-2.08-9.17-.31-1.44-1.31-1.23-2.25-1.29-2-.12-4-.18-6-.31-5.85-.38-9.65-3.14-10.8-9.13-1.25-6.54-3.09-13-3.82-19.58-1.26-11.36-5.81-20.94-13.24-29.53-6.93-8-13.88-16.08-20.13-25.8C222.37,318,215.64,331.52,215.13,347c-.2,6.12-1.13,11.88-3.83,17.37a90.84,90.84,0,0,0-6.06,16.88c-1,3.55-2,7-5.59,9.06-2.27,1.31-1.74,3.88-1.8,5.9-.29,9.1-.26,18.21-.48,27.32-.14,6-2.69,8.2-8.33,7.64-7.06-.7-10.18-3.74-9.31-9.43a16.29,16.29,0,0,0-.72-6.86c-1.56-5.83.22-11.19,2.37-16.48.3-.73.88-1.71,1.52-1.89,6.42-1.79,3.84-6.91,3.47-10.6a41.65,41.65,0,0,1-.42-8.35c.37-3.64,1.05-7.33.79-10.94-1.33-18.35,1.89-36.16,5.93-53.9a58.16,58.16,0,0,0,1.44-18.33A96.06,96.06,0,0,1,199,254.5c.82-2.42.93-4-1.62-5.75-4.12-2.86-6.17-7.51-7.07-12.27-.61-3.23-2-4.08-4.9-4a22.48,22.48,0,0,1-4.46-.55c-9-1.69-12.55-7.17-11-16.18,2.51-14.86,10.14-26.53,21.61-36C192.66,178.85,194.22,178.35,194.73,176.76Z"/><path d="M282.24,385.37c-11.51-.54-12.39-1.19-14.75-12.05-1.28-5.85-2.52-11.74-3.21-17.68-1.15-10-5.41-18.37-11.73-26-5.74-6.91-11.34-13.94-17-20.95a38,38,0,0,1-5.9-10.36c-.33-.87-.84-2-2.14-1.44-.95.41-.78,1.38-.49,2.15.72,1.86-.51,3.17-1.19,4.64-7.19,15.43-14.08,30.93-13.74,48.5a17,17,0,0,1-1.74,7.24,135.19,135.19,0,0,0-8.32,22.94c-1.09,4.43-3.8,6.42-8.44,5.38-4.12-.92-5.75-3.71-5.13-8.75.34-2.81,1-5.66.78-8.44-1.31-20.85,2.19-41.14,6.82-61.31a52.45,52.45,0,0,0,.67-16.39c-1.13-13,1-25.52,4.84-37.87.85-2.71,1.65-3.26,4.42-2.31,11.31,3.9,22.5,8.22,34.31,10.52,5.23,1,10.51,2.13,15.7-.07,2-.85,2.35.53,2.68,1.77,4.34,16.28,13.37,30.81,17.53,47.16a33.64,33.64,0,0,0,4.85,10.35,52.16,52.16,0,0,1,7,15.37c3.48,12.66,8.49,24.85,11.62,37.64,1,4.09,0,6-3.89,7.44A40.14,40.14,0,0,1,282.24,385.37Z"/><path d="M251.75,226a108.45,108.45,0,0,0,6.66,28.49c1,2.65.57,3.73-1.54,5.09a13.61,13.61,0,0,1-9.54,2c-16-2.18-30.92-7.91-45.81-13.62-6.64-2.55-8.06-9.26-9.32-15.56-.29-1.47-.24-3-.63-4.44-.26-1-1.32-1.91-2.15-.67-4,6-8.39,1.37-12.26.25s-5.63-4.72-4.91-8.82c1.19-6.71,2.58-13.44,6-19.45,4.8-8.37,11.56-15,19.26-20.67,1.88-1.39,3.28-1.56,5.28-.27,9.35,6.07,19.57,8,30.57,6.13,8.38-1.38,16.48,1.28,23.79,4.28,5.58,2.3,9,8.67,11.62,14.54a47.54,47.54,0,0,1,4.51,17.79,175.56,175.56,0,0,0,7,43.26c1.29,4.53-1,6.69-4.19,8.37-3.74,2-4.86-1.64-6.36-3.77-10.22-14.43-15.39-30.43-14.84-48.18a4.32,4.32,0,0,0,.07-1c-.56-2.36,2.92-6.12-.54-6.75-2.13-.39-1.51,4.45-2.18,6.91C251.81,221.7,251.94,223.6,251.75,226Z"/><path d="M272.86,170.63c-2.78-.35-4.29-2.16-6.14-3.49-1.56-1.13-3.09-2.86-5.31-1.36-1.93,1.29-1.93,3.3-1.86,5.35.2,5.83,3.35,9.89,8.27,13.34-6,2.3-11.45,1.32-16.76-.39a49.17,49.17,0,0,0-22.17-1.89c-8.26,1.13-15.86-1-22.94-5.11-3.22-1.86-6.4-3.44-10.26-3.37-4.18.07-4.19-2.26-2.71-5.24,1.14-2.32,3.29-3.7,5.06-5.44,4-3.94,3.08-7.4-2.34-9.05-3.9-1.18-7.94-.17-11.93-.75.11-.39.13-.85.26-.88,2.48-.55,6.09.09,6.42-3.37s-3.2-4.18-5.73-5.35c-1.35-.63-2.72-1.23-4.47-2,2.74-1.74,4.83-3.7,2.14-7.18,2.86,0,5.39.62,7.45-.1,13.43-4.69,27.73-3,41.38-6,8.74-1.92,16.06,3,23.8,5.5,3.62,1.18,3.53,6.13,6.75,8.6-2.76.9-5.95-.67-6.84,2.72-.84,3.24,1,5.55,3.39,7.22C265,157.11,268.28,164.34,272.86,170.63Z"/><path class="cls-2" d="M312.55,425.88a23.65,23.65,0,0,0-9.23,1.89c-3.2,1.46-6.54.92-9.83.78-2.1-.09-3.29-1.37-3.63-3.46-1.31-7.95-.06-15.93-.15-23.89,0-2.4,2.38-2.72,4.06-2.88,3-.29,6,.43,7.91,3.06a8,8,0,0,1,1.31,3.21c.93,5,4,8.17,8.35,10.52a24.69,24.69,0,0,1,6.81,5.8c1,1.14,2.22,2.45,1.77,3.94-.58,2-2.54.78-3.88,1A28.27,28.27,0,0,1,312.55,425.88Z"/><path class="cls-3" d="M194.76,412.63c0,3.66-.1,7.32,0,11,.11,3-1,5.09-4.13,4.89s-8.39-.48-8.13-3.95c.43-5.63-2.14-10.8-1.18-16.22.2-1.13-1.25-4.47,2.85-3.07,1.53.52,1.56-2.5,1.63-4,.11-2.55,1-2.5,3.36-2.3,4.56.4,6.79,1.67,5.71,6.74-.47,2.19.19,4.62.34,6.94Z"/><path class="cls-4" d="M286.85,284.79c-.66,0-1.32,0-2,.1-1.83.16-3.71,2.2-5.48,0a13.92,13.92,0,0,1-3.19-7.69c-.14-2.68,3.42-3.05,5.07-4.79,1.18-1.26,2,.51,2.71,1.21,1.91,1.83,3.78,3.74,5.51,5.74,1.18,1.37,2.54,3,1.47,4.9C290,285.89,288.26,284.83,286.85,284.79Z"/><path class="cls-5" d="M298.5,395.53a49.36,49.36,0,0,0-6.8.53c-2.06.45-2.16-.81-2.58-2.06-.48-1.46-.49-2.63,1.45-2.85a16,16,0,0,0,1.95-.38C298.45,389.31,298.45,389.31,298.5,395.53Z"/><path class="cls-3" d="M189.33,392.62c.49-.88-1-3.59,1.77-2.6,1.5.53,4.87-.93,4.33,2.9-.3,2.13-.2,4.27-3.52,4S189.29,394.69,189.33,392.62Z"/><path class="cls-6" d="M288.21,387.78l9.25-2.62C294.74,388,293.1,388.55,288.21,387.78Z"/><path class="cls-7" d="M93.41,293.69a4.5,4.5,0,1,0-4.5-4.5,4.55,4.55,0,0,0,4.5,4.5Z"/><path class="cls-7" d="M145.66,293.45a1.5,1.5,0,0,0,0-3,1.5,1.5,0,0,0,0,3Z"/><path class="cls-7" d="M98.35,347.51a1.5,1.5,0,0,0,0-3,1.5,1.5,0,0,0,0,3Z"/><path class="cls-7" d="M35,293.45a1.5,1.5,0,0,0,0-3,1.5,1.5,0,0,0,0,3Z"/><path class="cls-7" d="M68.79,271.49a1.5,1.5,0,0,0,0-3,1.5,1.5,0,0,0,0,3Z"/><path class="cls-7" d="M116.09,272.33a1.5,1.5,0,0,0,0-3,1.5,1.5,0,0,0,0,3Z"/><path class="cls-7" d="M122.85,317.1a1.5,1.5,0,0,0,0-3,1.5,1.5,0,0,0,0,3Z"/><path class="cls-7" d="M70.48,321.32a1.5,1.5,0,0,0,0-3,1.5,1.5,0,0,0,0,3Z"/><path class="cls-7" d="M88.35,235.05a1.5,1.5,0,0,0,0-3,1.5,1.5,0,0,0,0,3Z"/><path class="cls-7" d="M85,195.35a1.5,1.5,0,0,0,0-3,1.5,1.5,0,0,0,0,3Z"/><path class="cls-7" d="M6.42,295a1.5,1.5,0,0,0,0-3,1.5,1.5,0,0,0,0,3Z"/><path class="cls-7" d="M174.51,292.49a1.5,1.5,0,0,0,0-3,1.5,1.5,0,0,0,0,3Z"/><path class="cls-7" d="M101,391.32a1.5,1.5,0,0,0,0-3,1.5,1.5,0,0,0,0,3Z"/><path class="cls-7" d="M39.36,351.62a1.5,1.5,0,0,0,0-3,1.5,1.5,0,0,0,0,3Z"/><path class="cls-7" d="M153.39,339a1.5,1.5,0,0,0,0-3,1.5,1.5,0,0,0,0,3Z"/><path class="cls-7" d="M139,243.5a1.5,1.5,0,0,0,0-3,1.5,1.5,0,0,0,0,3Z"/><path class="cls-7" d="M33.45,246a1.5,1.5,0,0,0,0-3,1.5,1.5,0,0,0,0,3Z"/></svg>