<svg id="Layer_1" data-name="Layer 1" xmlns="http://www.w3.org/2000/svg" viewBox="0 0 480 480"><defs><style>.cls-1{fill:#fbfafa;}.cls-2{fill:#010101;}.cls-3{fill:#040404;}.cls-4{fill:#050505;}.cls-5{fill:#070707;}.cls-6{fill:#0e0e0e;}.cls-7{fill:#0c0c0c;}.cls-8{fill:#828080;}.cls-9{fill:#fff;}</style></defs><path d="M.09,480Q.09,241.59,0,3.23C0,.26.84,0,3.42,0Q240,.12,476.6,0c2.7,0,3.36.44,3.36,3.28q-.13,236.64,0,473.26c0,3.91-1.69,3.44-4.21,3.44Q238,479.93.09,480Z"/><path class="cls-1" d="M247.32,349.34c-5.66,13.36-16.81,22.84-22.49,35.88-3.5,8-6.23,8.2-12.4,2.11a41,41,0,0,0-4.45-4c-3.31-2.44-7-2-9.24,1.43-1.62,2.49.25,4,2.46,4.58a31.67,31.67,0,0,0,6,.58,15.33,15.33,0,0,1,8.34,3,6.4,6.4,0,0,1,2.91,6.45c-.4,2.57-2,4-4.43,4.86a32.14,32.14,0,0,1-19.16.77c-2.37-.62-4.26-.84-6.75,1-6.22,4.64-14.51.23-15.4-7.42a18.54,18.54,0,0,1,3.79-14c1-1.31,2.15-2.77,2.42-4.29.54-3.17.69-6,5-3.11,1.23.81,1.95-.93,2.65-1.71,3-3.32,5.91-6.67,7.9-10.82,4.15-8.64,10.26-15.9,17-22.69,3.28-3.32,6.65-6.57,9.62-10.15,5.58-6.75,6-14.84,2.36-22-7.67-15.19-9.83-30.92-7.47-47.51.46-3.27.76-6-3.51-7.32-3.1-1-4.9-3.88-5.71-7.13-.57-2.26-1.16-4.51-1.61-6.8-1.31-6.69-4.76-10.48-11.61-13.23-17.16-6.87-30.15-18.27-32.75-38.06-1.77-13.51,4.51-24.41,12.43-34.21,5.34-6.61,18.65-7.77,25.4-3.59,3.25,2,5.08,4.74,4.42,8.72-.61,3.65-3.14,5.21-6.45,6.06-3.05.79-4.55-1.32-6.34-3-3.81-3.62-3.9-3.09-7.13,1.1-7.19,9.3-1.8,17.44,1.47,25.91.71,1.85,1.7,1.52,3,.69a7.45,7.45,0,0,1,3.21-1.31c13.14-.8,24.2-7.74,36.12-12.12,1.85-.68,2.72-1.19,2.16-3.44-1.08-4.33-1.42-8.76-2.93-13.07-2.91-8.3,1.37-19.18,9.43-25.63,7.85-6.27,17.42-7.22,25.62-2.47,4.74,2.75,7.48,7,8.82,12.2,1.07,4.19,2.13,8.37,4.34,12.17,1.21,2.07,2.17,2.79,4.51,1,4.75-3.56,9.88-5.44,15.7-1.9,1.13.68,2.93.28,4.42.32,2.32.06,3.92,1.25,4.27,3.45,1.12,7.05,5,13,7.54,19.48,4.25,11,1.53,19.58-8.58,25.6-6.3,3.75-12.61,7.42-17.92,12.59a10,10,0,0,0-3.13,6c-1,6.92-2.19,13.8-3.29,20.7-.84,5.22-2.57,9.78-8.58,10.82-2.43.42-2,2-2.09,3.67-.54,15.62-.33,31.33-4.26,46.64-.44,1.7.28,2.84.94,4.17a332.35,332.35,0,0,1,17.05,40.91c1.45,4.26.7,8.6-.25,12.82-1,4.57-2,9.1-1.8,13.82a6.35,6.35,0,0,1-2,5.33c-2.49,2.34-2.28,7.83.15,10.3,1.34,1.37,1.3,3,1.41,4.62a26.36,26.36,0,0,0,5.35,14.78c3.83,5,4,10.87,3.33,16.71-.51,4.56-8.11,7.42-12.62,4.63-6-3.68-10.29-8.76-9.19-16.36a36.88,36.88,0,0,0-2-17.65,14.67,14.67,0,0,1-.19-9.37c1.67-5.78-2.94-10.24-5.53-14.82C252.76,367.64,246.59,360,247.32,349.34Z"/><path d="M257.55,181.1c-3.65,8.05.32,15.21,1.69,22.59.61,3.32,2.83,5,6.22,2.92a4.44,4.44,0,0,1,3.73-.74c1,.27,2.47.15,2.69-.75,1.63-6.66,10.58-10.27,7.72-18.78-1.09-3.22.2-4.77,3.67-4.23,3,.45,6,.73,8.86,1.41,3.29.78,4-.32,3-3.3-1.24-3.95-2.12-8-3.61-11.88-1.12-2.89-.31-3.59,2.44-3.51a12.72,12.72,0,0,0,6.83-2.06c1.46,7,5.38,12.71,7.68,19.11,3.24,9.06,1,16-7.15,21-6.38,3.92-12.84,7.63-18.43,12.75a14,14,0,0,0-4.62,9c-1,6.92-2.29,13.79-3.35,20.69-.64,4.19-2.58,6.81-6.92,8.05-6.87,2-13.73,3.9-20.74,5.39-12.14,2.58-23.05-.59-33.62-6.08a9,9,0,0,1-4.62-6.22q-.71-2.91-1.28-5.85c-1.52-7.74-5.22-12.89-13.47-15.39-10.44-3.16-18.72-10.2-24.83-19.24-10.82-16-7.07-31.95,3.85-46.12,2.27-2.95,3.88,1.89,6.29,2,1.73.07,1.44,1.5.54,2.53-7.37,8.39-1.56,16.58.4,24.81.22.93,1.19,1.67,1.44,2.6,1.12,4.25,3.35,4.21,6.58,2.1a18,18,0,0,1,9-2.61c7.4-.36,13.86-3.29,20.15-6.79,8.62-4.8,17.6-6.87,27.34-4C249,181.68,253,181,257.55,181.1Z"/><path d="M260.75,304c-5.14-8.4-9.06-15.93-14.14-22.72-.8-1.08-1.68-3.3-3.3-2s.44,2.59,1.19,3.69a279.3,279.3,0,0,1,31.73,63.61,32.83,32.83,0,0,1,.83,20.88c-.5,1.75-.61,3.61-.94,5.41-.46,2.54,1.26,6.37-1.08,7.42-3,1.35-6.81.78-10.28,1-1.71.11-2.17-1.26-2.71-2.47a85.85,85.85,0,0,0-6.7-11.66c-2.73-4.24-4.6-8.73-4.69-14-.12-7.25-3.29-13-7.91-18.8-17.64-22.07-30.24-46-23.34-76.05,13.67,7,27.57,3.67,41.46.1,1.87-.48,3.7-1.26,3.57,1.92C263.89,274.54,263.81,288.82,260.75,304Z"/><path d="M228.27,318.84a104.48,104.48,0,0,0,15.41,20.85c2.2,2.25,2.48,4.68,1,7.64-2.67,5.36-5,10.92-8.85,15.55a112.27,112.27,0,0,0-13.77,21.87c-2.46,4.93-3.42,5.16-7,1.22-4-4.43-9.2-7-14.23-9.92-6.54-3.75-6.88-4.92-3.51-11.31A89.31,89.31,0,0,1,213,344.17c2.33-2.37,4.61-4.8,7-7.1C225.11,332.13,228.38,326.38,228.27,318.84Z"/><path class="cls-2" d="M257.62,135.16c5.36,1.79,8.34,5.58,9.53,10.71,1.72,7.41,4.56,14.17,9.85,19.81,3.23,3.45,3,7.57,1.38,11.67-1.46,3.64-2.26,7.32-1.18,11.18.72,2.58-.18,4.49-2.11,6.18-1,.85-2.48,1.92-2.52,2.95-.26,5.82-5.52,4.81-8.65,6.63-1.68,1-1.89-.62-2.14-1.67-1.73-7.53-3.46-14.67-1.49-22.89,2.29-9.53,5.08-19.19,4.13-29.51C263.84,144,260.62,139.87,257.62,135.16Z"/><path class="cls-2" d="M261.08,153c.12,1.28.22,3.11.48,4.9a17.13,17.13,0,0,1-.4,7.4c-1.56,5.32-5.23,9.17-8.7,9-4.58-.2-10.73-6.05-11.82-10.67-2.78-11.8,5.8-19.09,13.79-23.92,1.88-1.13,2.68,0,3.7,1.15C261.2,144.22,262,148.13,261.08,153Z"/><path class="cls-2" d="M182.14,379.69c3.68,4.07,8.67,5.71,12.26,8.55,5,4,10.19,3.63,15.4,4.89a11.12,11.12,0,0,1,4,2c3.13,2.4,2.69,5.36-1.08,6.67a30.22,30.22,0,0,1-17.17.62c-3.06-.72-5.76-1.71-9.06,1.27-4.17,3.78-10.61.07-11.18-5.57a14.93,14.93,0,0,1,2.93-11.24A24,24,0,0,0,182.14,379.69Z"/><path class="cls-2" d="M254.55,136.61a43.3,43.3,0,0,0-10.32,7.53c-7.28,6.59-7.85,14.53-5.4,23.22a12,12,0,0,1-.39,7.22c-.62,1.92-2.13,1.75-3.61,1.84-1.13.08-2.73.52-2.78-1.11-.27-8.34-5.84-15.88-3.26-24.72,2.32-8,7.45-13.14,14.72-16.44C247.44,132.37,249.91,133,254.55,136.61Z"/><path class="cls-2" d="M264.56,396.62c4.37,1.06,8.07-1.27,10.23-.11,2.43,1.31.77,5.78,1.92,8.74,1.08,2.8,2,5.65,3.93,8,3.12,3.85,4,8.29,4,13s-4.65,8-8.79,5.52c-4.46-2.69-8.45-6.29-7.92-12.25C268.58,412,268.4,404.63,264.56,396.62Z"/><path class="cls-3" d="M177.05,156.8c6.09-4.52,12.24-6.36,19.18-3,2.33,1.12,4.21,2.69,4,5.71a4.44,4.44,0,0,1-3,4.14,3.47,3.47,0,0,1-4.4-1.14c-2.65-3.05-5.46-5.2-10-3.21C180.76,160.2,178.88,158.56,177.05,156.8Z"/><path class="cls-4" d="M295.46,162.41c-5.95-1.88-6.9,2.17-8.59,5.25-.76,1.4-1,3.33-3.14,3.4-2.34.09-2-2.08-2.16-3.25-.43-2.48-5.91-4.55-.42-7.66C287.13,156.78,290.49,156.81,295.46,162.41Z"/><path class="cls-5" d="M265.85,388.38c.47-1.4-2.12-4.06,2-4.54,3.76-.44,5.8,0,4.72,4.4a18.13,18.13,0,0,0-.4,4c-.06,2.2-1.72,2.16-3.16,2.27-1.65.14-3-.24-3-2.36C266.08,391,265.94,389.8,265.85,388.38Z"/><path class="cls-6" d="M289.6,169.43a24.91,24.91,0,0,0,3,11,79.8,79.8,0,0,1-8.28-1c-1.1-.25-3.66,1.07-3.12-1.57.28-1.38-.3-4,2.55-4C286.2,173.83,287.5,172.12,289.6,169.43Z"/><path class="cls-7" d="M190.26,375a18.76,18.76,0,0,0,7.52,6.47c-3.88,3.89-6.23,4-9.82.27C184.13,377.74,189.91,377.69,190.26,375Z"/><path class="cls-6" d="M258.05,175.52c.36,2.55-.9,2.51-2,2.71-3.8.65-7.52.08-11.29-.42-4-.53-4.57-2.23-2.33-5.61C247.06,175.1,251.57,179.4,258.05,175.52Z"/><path class="cls-8" d="M192.65,372.85c2.33,2.57,5.59,4.09,7.91,6.66C196.73,378.66,193.88,376.69,192.65,372.85Z"/><path class="cls-9" d="M140.52,109.44a.75.75,0,0,0,0-1.5.75.75,0,0,0,0,1.5Z"/><path class="cls-9" d="M136.05,162.61c-4.46,2.73-9.34,5.71-14.75,5.67-5.06,0-9.61-3.23-14.75-2.55-1,.12-1,1.62,0,1.5,5.37-.71,10.22,2.8,15.6,2.53s10.18-3.12,14.65-5.85c.83-.51.07-1.8-.75-1.3Z"/><path class="cls-9" d="M112.36,216.82a.75.75,0,0,0,0-1.5.75.75,0,0,0,0,1.5Z"/><path class="cls-9" d="M64.47,130.24a.75.75,0,0,0,0-1.5.75.75,0,0,0,0,1.5Z"/><path class="cls-9" d="M276,91.39c3-2.66,1.77-8.35,1-11.67a38.46,38.46,0,0,0-6.37-14.07c-1.34-1.75-3-3.55-5.26-4.1-1.87-.46-2.67,2.44-.79,2.9A7.06,7.06,0,0,1,267.88,67a26.58,26.58,0,0,1,3.35,5.52,33.44,33.44,0,0,1,3.57,12.65,10,10,0,0,1-.15,2.6,2.39,2.39,0,0,1-.77,1.48c-1.45,1.28.68,3.4,2.12,2.12Z"/><path class="cls-9" d="M314.37,93.38a31.18,31.18,0,0,0,4.27-3.5c2.05-1.88,4-3.84,6-5.82q6.4-6.45,12.45-13.24c1.45-1.64,2.92-3.29,4.22-5.06,1.14-1.56-1.47-3.06-2.6-1.52a5.85,5.85,0,0,1-.4.54c-.27.33-.54.67-.82,1-.67.81-1.36,1.61-2.06,2.4-1.83,2.09-3.72,4.14-5.62,6.18-4,4.29-8.07,8.53-12.35,12.55a33.41,33.41,0,0,1-4.59,3.89c-1.63,1-.12,3.63,1.51,2.59Z"/><path class="cls-9" d="M335.3,118.86a27,27,0,0,1,4.53-4,72,72,0,0,1,7.94-5.11c5.82-3.25,12.45-6.19,19.23-6.24a1.5,1.5,0,0,0,0-3c-7.2,0-14.24,3-20.44,6.48a72.47,72.47,0,0,0-8.24,5.28,30.17,30.17,0,0,0-5.15,4.48c-1.23,1.47.88,3.6,2.13,2.12Z"/></svg>