<svg id="Layer_1" data-name="Layer 1" xmlns="http://www.w3.org/2000/svg" viewBox="0 0 480 480"><defs><style>.cls-1{fill:#fbfafa;}.cls-2{fill:#010101;}.cls-3{fill:#020202;}.cls-4{fill:#080808;}.cls-5{fill:#090909;}.cls-6{fill:#fff;}</style></defs><path d="M479.91,240q0,117.92.09,235.84c0,3.27-.45,4.17-4,4.16q-235.85-.17-471.7,0C.52,480,0,479,0,475.59Q.15,240,0,4.43C0,1,.47,0,4.26,0Q240.12.2,476,0c3.54,0,4,.85,4,4.15Q479.84,122.07,479.91,240Z"/><path class="cls-1" d="M230.36,312.65c-6,19.38-14.56,37.27-18.44,56.74-.2,1-.43,1.95-.65,2.93-2.86,12.27-5.76,14.22-18.25,10.92-3.85-1-5.39.39-7.11,3.15a3.74,3.74,0,0,0-.17,4.18c.82,1.44,2.25,1.29,3.56.95,4-1,6.62.64,7.73,4.33,1.27,4.18-.43,7.65-4,9.81-1.93,1.17-4.37,1.55-6.62,2.1-4.13,1-8.32,1.25-11.66,4.86-2.64,2.86-13.45.86-16.37-2.28-2.58-2.77-2.17-9,1.36-13.4,3.32-4.16,6.31-8.74,10-12.39,7-6.94,9.83-15.93,13.66-24.41,4.46-9.87,9.18-19.56,14.57-28.95,7-12.27,8.06-25,3.46-38.45a59.9,59.9,0,0,1,1.41-43.42c.62-1.51,1-2.56-.28-3.93-3.8-4.22-4.76-9.41-4.64-14.88.26-11.31,1.21-22.61.22-33.94-.52-6,2.12-11,6.16-15.29A41.61,41.61,0,0,0,211.87,171c-5.9,1.41-11.38,2.82-17.11,2.16-6.17-.72-7.8-2.18-9-8.4-.26-1.37-.56-2.75-2.12-3-5-.91-5.26-4.25-4.61-8.29.77-4.79-.56-5.95-5.39-4.88-.65.14-1.3.32-1.93.52-1.79.56-3.68,1.15-5.09-.55s-1.06-3.89.06-5.61c2.78-4.23.84-5.62-3.28-5.9a6.72,6.72,0,0,1-4.58-1.68c-2.25-2.32-2.13-4.47.91-5.94,1.48-.71,3.22-.86,4.71-1.55,2.68-1.26,3-2.93.4-4.7-1.1-.74-2.34-1.28-3.43-2a2.71,2.71,0,0,1-1.41-3c.38-1.43,1.66-1.31,2.83-1.44,12.09-1.28,23.8-.26,35.26,4.32,8,3.19,16.65,3,25.16,2.92a67.88,67.88,0,0,1,9.47.34,18.79,18.79,0,0,1,15.94,17.77,21,21,0,0,0,1.43,7.78c.55,1.24,1,2.57.33,3.85-1.76,3.26-1.71,6.67-1.16,10.2s-1.14,6.13-4.55,6.6c-5.84.8-5.59,4.85-5.08,8.84S242.5,186.84,245,190c10.06,12.66,13.94,27.4,14.95,43.17.42,6.48,1,13,1.44,19.42a17.75,17.75,0,0,0,5.27,11.56c3.64,3.66,7,7.89,11.23,10.61,9.07,5.8,13.76,15.16,20.25,23,4.89,6,4.31,12.7,1.19,19.27-1.71,3.6-4.63,3.57-7.42,1.27a32.11,32.11,0,0,1-9.24-12.82c-1.58-3.86-1.9-8-6.56-10.67-3.91-2.22-6.87-6.37-11.87-9.66a140.8,140.8,0,0,0,11.33,24.39c6.32,10.92,8.4,22.25,5.17,34.55-2.16,8.23-.94,16.55.12,24.79.84,6.52.72,6.82-5.86,8.29-1.69.38-4.14-.24-5,1.59-1.61,3.63-4.92,9.32-3.6,10.92,4,4.84,1.37,10.61,4,15.36s5.42,8.76,10.49,10.89a21.57,21.57,0,0,1,2.69,1.31c3.62,2.18,5.55,5.36,4.72,9.6s-4.44,5.6-8.2,6.06a20.41,20.41,0,0,1-16.56-5.45c-3.82-3.39-7-6.53-13.22-6.17-5.49.32-9.75-4.43-12.68-9.33-1-1.68-.63-3.45.06-5.28a36.22,36.22,0,0,1,8.06-12.5c3.72-3.84,6.09-8.27,6.28-13.72.08-2.28.75-4.55-1.88-6.17-1.6-1-.94-3-.8-4.64.55-6.8,1.09-13.6,1.5-20.41.72-11.93-3.16-21.89-12.71-29.44C235.63,317.75,233.32,315.36,230.36,312.65Z"/><path d="M268.7,375.18c-6,0-11.35.12-14.9-2.39-4.21-3-.61-8.44-.72-12.77-.15-5.95.81-11.91.33-17.93a30.94,30.94,0,0,0-10.75-21.79c-9.54-8.28-18.27-17.06-21.74-29.74-.3-1.08-.82-2.62-2.23-2.14s-.77,2-.35,3c2.31,5.69,4.15,11.65,8.12,16.48,1.59,1.94,1.63,3.5.83,5.84-7,20.44-15.69,40.34-19.58,61.75-.85,4.65-3.33,6.21-7.94,6a39.59,39.59,0,0,1-16.66-4.71c-2.55-1.33-3.35-2.74-1.82-5.88,7-14.35,13.75-28.78,21.25-42.89,5.75-10.83,6.12-22.73,2-34.44-4.64-13-4.6-26.05-.81-39.23,1-3.36,1.48-4.93,5.71-2.52a64.79,64.79,0,0,0,27.06,8c1.77.15,3.4.12,4.68,2.06,4.64,7,11,12.49,17,18.23a11.17,11.17,0,0,1,3.26,4.84c3,9.57,7.62,18.41,12.46,27.13,5.31,9.57,7.3,19.49,4.43,30.27-2.32,8.69-1.82,17.56-.12,26.24.83,4.26-.46,5.72-4.3,6C271.69,374.85,269.54,375.1,268.7,375.18Z"/><path d="M238.57,257.58c-12.57-2.35-24.63-3.24-33.3-13.12a17.14,17.14,0,0,1-4.52-11.83c.12-12.48.92-24.95.17-37.44a14.09,14.09,0,0,1,3.74-10.07c3.78-4.42,7.69-8.72,10.51-13.9,1.12-2.05,3-3,5.22-.74,4.41,4.49,9.93,5.79,16.27,4.87a18.93,18.93,0,0,0,4.59,13.94c12.64,15.24,15.9,33.31,16.54,52.27.1,3,.3,6,.47,9a25,25,0,0,0,6.93,16.13c6.15,6.63,13.23,12.17,20.08,18,3,2.52,3.12,3.55-.82,6-4.95,3-7.3,1.7-11.13-1.75-8.25-7.46-17.43-13.84-25-22.13-5.54-6.06-8.89-12.8-9.29-21-.39-7.82-.62-15.64-.95-23.46-.07-1.44.11-3.7-1.62-3.66-2.23.06-1.2,2.31-1.12,3.63C236.06,233.72,234.93,245.31,238.57,257.58Z"/><path d="M160.14,132.5c10.65-3.89,11.86-6.67,5.4-12.58a42.92,42.92,0,0,1,26,1.91c10.68,4.07,21.6,5.1,32.82,4.8,4.34-.11,8.68,0,12.77,1.64,2.51,1,4,2.43,1.15,4.92-2.49,2.2-4.76,4.64-7.18,6.93-1.58,1.49-3.35,2.95-3.91,5.08-1,3.94-2.21,7.31-6.71,8.88-2.3.8-2.72,3.28-1.37,5.92,2.53,4.95,2.1,5.75-3.16,7s-10.3,2.71-15.54,3.51c-7.61,1.15-10-.6-12.26-7.88a4.64,4.64,0,0,0-3.73-3.6c-3.08-.48-3-2.34-2.66-4.76,1.1-7.37-1.61-9.82-8.88-8.35-1.24.25-2.66,1.61-3.7.55-1.34-1.38.31-2.68.89-3.95,1.84-4.05.63-6.43-3.75-7.82C164.29,134.11,161.82,134.91,160.14,132.5Z"/><path d="M253.16,418.94c-5.83.3-9.33-3.52-12.66-7.46-1.19-1.41-.44-3.07.14-4.71,2.08-5.82,6.76-9.77,10.24-14.58,1.19-1.64,2.1-1,3.21-.08,2.16,1.74,4.81,2.88,7.4,2.29,3.83-.87,4.54.25,4.83,4,.73,9.23,5.17,16.3,13.89,20.25a18.33,18.33,0,0,1,2.64,1.37,6,6,0,0,1,2.95,5.91c-.34,2.79-2.64,3.69-5,4.11-6.81,1.19-12.24-1.49-17.08-6.08C260.82,421.16,258.27,417.3,253.16,418.94Z"/><path class="cls-2" d="M238.58,171c-5.77,3.3-10.12,1.64-14.42-.82a2.38,2.38,0,0,1-1.25-2.48,13.56,13.56,0,0,0,.1-3c-.65-4.62-3-9.81,4.19-11.6.34-.08.73-.78.76-1.22.61-8.16,7.85-11.5,12.23-16.91,1.55-1.92,2.7-1.41,3.79.38a11.42,11.42,0,0,1,2,6.57,17.31,17.31,0,0,0,1.41,8.27,4.44,4.44,0,0,1-.12,4.23,11.87,11.87,0,0,0-.8,8.28c1,4.2-1.08,5.36-4.73,5.5-4.13.16-7.25-2-10.39-4.22-1-.72-2.28-2.15-3.34-.56-.79,1.18.75,2,1.63,2.65A31.62,31.62,0,0,0,238.58,171Z"/><path class="cls-2" d="M169.29,411.07a5.37,5.37,0,0,1-1-.07c-3.13-.75-7.24-.12-8.55-3.9-1.22-3.53.66-6.79,2.95-9.57,1.26-1.54,2.74-2.91,4-4.45,5.67-6.89,5.64-6.88,14.11-4.15,1,.34,1.79.7,2.05,1.83.78,3.4,3.33,3.91,6.16,3.45,2.59-.42,4.83-.22,5.53,2.66s-.7,5.21-3.23,6.62a17.88,17.88,0,0,1-4.25,1.36c-4.9,1.26-10.36,1-14,5.61C172.25,411.58,170.59,411,169.29,411.07Z"/><path class="cls-3" d="M299,308.48c-.94,2.55-.34,7.16-3.5,8.17-2.74.88-4.6-3.14-6.46-5.4-3.26-4-4.82-8.68-5.85-13.6-.37-1.79-.86-3.6,1.54-4.57,2.19-.9,4-1.74,6.21.47C296,298.52,299.12,303.66,299,308.48Z"/><path class="cls-4" d="M264.67,385.2c-2.35,7.23-4.59,8.14-9.41,4.57-2.46-1.82-1.53-3.93-.9-5.77.81-2.39,2.48-.22,3.72-.08C260.2,384.16,262.29,384.72,264.67,385.2Z"/><path class="cls-5" d="M185.76,381.47c-3.43,5.92-5.49,6.32-11.66,2.26C179.19,377.5,179.19,377.5,185.76,381.47Z"/><path class="cls-5" d="M263.33,382.12a9.88,9.88,0,0,1-2.6-.36c-2.08-1.08-6.41-.19-5.51-4,.67-2.78,3.82-.25,5.84-.44a5.27,5.27,0,0,1,2.41.4c1.2.49,3.76-1,3.29,2.06C266.38,382.27,264.61,382.36,263.33,382.12Z"/><path class="cls-6" d="M99.79,297.23a.75.75,0,0,0,0-1.5.75.75,0,0,0,0,1.5Z"/><path class="cls-6" d="M45.74,358.16a.75.75,0,0,0,0-1.5.75.75,0,0,0,0,1.5Z"/><path class="cls-6" d="M159.77,345.12a.38.38,0,0,0,0-.75.38.38,0,0,0,0,.75Z"/><path class="cls-6" d="M145.41,250a.75.75,0,0,0,0-1.5.75.75,0,0,0,0,1.5Z"/><path class="cls-6" d="M39.83,252.2a.38.38,0,0,0,0-.75.38.38,0,0,0,0,.75Z"/></svg>