<svg id="Layer_1" data-name="Layer 1" xmlns="http://www.w3.org/2000/svg" viewBox="0 0 480 480"><defs><style>.cls-1{fill:#fcfafa;}.cls-2{fill:#010101;}.cls-3{fill:#080808;}.cls-4{fill:#0a0a0a;}.cls-5{fill:#0f0f0f;}.cls-6{fill:#2b2a2a;}.cls-7{fill:#fff;}</style></defs><path d="M479.91,240q0,117.92.09,235.83c0,3.27-.45,4.18-4,4.18q-235.86-.18-471.71,0C.53,480,0,479.05,0,475.59Q.15,240,0,4.43C0,1,.46,0,4.26,0Q240.12.2,476,0c3.53,0,4,.85,4,4.15Q479.84,122.07,479.91,240Z"/><path class="cls-1" d="M131.9,418.27A29.93,29.93,0,0,1,133.46,407c.87-2.7,2.46-5,5.88-3.47,1.92.87,2.31-.07,2.64-1.58.94-4.22,1.86-8.45,2.93-12.64.41-1.59-.49-2.42-1.26-3.51a71.1,71.1,0,0,1-4.57-7.12c-2.52-4.7-2.41-9.38,1.3-13.43A43,43,0,0,0,150.07,347a19.36,19.36,0,0,1,2.09-5.59c12.13-18.62,17.23-40.72,29.52-59.26a28,28,0,0,0,4-11.69,41.82,41.82,0,0,1,2.35-10.17c1.94-4.65,3.53-8.62.17-13.65-2.27-3.39-.76-7.85,1.44-11.38a66.65,66.65,0,0,0,8.76-23.71c.8-4.41,1.9-8.84,5.56-12a2.22,2.22,0,0,0,.92-2.61c-1.8-4.5-1.18-8.7,1-13,.67-1.33.18-3.26.18-4.91,0-1.82-.77-4,0-5.39,3.64-6.64,3.86-14.89,7.68-20.81,5.63-8.71,13.13-18,25-17.48,11.5.48,20.9,6.57,26,17.48,3.26,6.92,3,14.91,6.07,22,1.09,2.5-.55,5.16-1.89,7.52-.77,1.34-1.28,2.92-.18,4.21s2.46.11,3.67-.17c4.7-1.08,9.33-2.56,14.22-2.55S293.58,186,293,191c-.82,7.29-6.21,13.1-14.16,14.88A60.21,60.21,0,0,1,270,207c-5.34.38-7.77,2.77-8.19,8.22a6.56,6.56,0,0,1-.5,1.87c-2.93,7.29-4.61,14.9-6.25,22.56s-5.29,14-11.94,18.35c-1.83,1.18-1.75,2.11-1.13,4,4.58,13.91,9.26,28,6.38,42.87-3.38,17.42,5,30.05,15.83,41.83,6.14,6.67,12.65,13.45,14.54,22.31,1.28,6,4.13,10.61,7.09,15.49.5.83,1.24,2.26,1.75,2.21,6.15-.59,6.58,4.62,8.39,8.22,2.76,5.49,5.94,10.8,7.42,16.86,1.28,5.28.26,7.1-5.11,7.82-3.58.47-7.44,1.15-10.15-2.32-1.56-2-3.08-.51-4.45,0a31.44,31.44,0,0,1-18.19.79,13.51,13.51,0,0,1-6.53-3.48c-4.32-4.28-3.07-9.75,2.73-11.65a22.18,22.18,0,0,1,4.89-.78c7.26-.6,9.39-4,6.38-10.65-.75-1.64-2.05-3-3-4.59-1.86-3.22-3.79-3.94-7.44-1.89-6.87,3.88-11.36,2.44-15.29-4.55C240.05,367.64,233.16,354.74,228,341c-3.35-8.91-7.55-17.36-13.91-24.62-1.82-2.07-2.91-1.95-4.68-.12-3.51,3.63-5.87,8.06-8.71,12.15a582.32,582.32,0,0,0-32.2,51,70.28,70.28,0,0,1-8.69,12.71,16.37,16.37,0,0,0-3.52,12.57,46.19,46.19,0,0,1-.07,11.81c-.68,5.62-1.29,11.24-2,16.85-.4,3.25-1.12,6.36-4.93,7.28-4.22,1-8.31.4-10.74-3.33C134.74,431.47,131.28,425.31,131.9,418.27Z"/><path d="M242.64,278.1a26.94,26.94,0,0,1-11.23,20.73A133.13,133.13,0,0,1,214.84,309a31.79,31.79,0,0,0-11.39,10.25c-13.5,20-27.15,39.86-38.59,61.14C164,382,163,383.53,162,385.06c-4,6.11-7,6.56-13,2.13-3.45-2.57-5.61-6.1-7.58-9.77s-1.83-7.42,1.17-10.6c5-5.35,8-11.76,10-18.75a20.52,20.52,0,0,1,2.09-5.59c12.13-18.79,17.41-41,29.69-59.7a23.33,23.33,0,0,0,3.85-11.22c.12-1.65.56-3.27.83-4.91.67-4.16,1.5-9,4.31-11.49,3.5-3.14,7.32,1.48,11,2.64,10.15,3.27,20.39,4.86,31,3.25,2.37-.36,3.66,0,4.52,2.35A39.39,39.39,0,0,1,242.64,278.1Z"/><path d="M253.42,233a35.92,35.92,0,0,1-3.83,13.58c-4.16,7.82-10.45,12.08-19.56,12.41-12,.42-23.09-2.6-33.77-7.55-6-2.78-8.08-7.88-4.75-13.59a87.2,87.2,0,0,0,10.25-28.46c1.19-6.45,5.68-9.8,11-12.67,3-1.64,3,.2,2.94,2.22-.3,7.89.19,8.28,7.86,5.73,3.34-1.11,5.47-1.33,5.45,3.48,0,8.24,2.17,15.81,8.82,21.42C242.24,233.34,247,235.55,253.42,233Z"/><path d="M214.32,312.59c12.3-7.67,26.61-12.74,30.21-29.5,1.8,2.09,1.61,4.25,1.57,6.16-.16,9.48-.47,18.95-.81,28.43-.19,5.53,1.82,10,4.74,14.79,6.46,10.6,16,18.71,22.44,29.22,6.62,10.81,6.41,11.4-4.58,17.32-14.37,7.75-14.48,7.63-22-6.63A321.37,321.37,0,0,1,229,336.24,68.23,68.23,0,0,0,214.32,312.59Z"/><path d="M218.4,198.26c-2.1-7.36,4.33-10.44,7.34-15,1.73-2.6,4.88-4.29,8.69-5.11,13.15-2.81,18.17-15.29,12.08-28.09-.72-1.51-3.94-3.48-1.12-5.08s6-3.86,9.55-.65c5.64,5.15,9.2,11.29,9.87,19,.2,2.33.32,4.72,1.51,6.76,2.2,3.77,2.67,7.42.09,11.23a6.18,6.18,0,0,0-.83,2.83c-.53,5.89-3.55,8.38-9.76,8.34a12.44,12.44,0,0,0-5.28,1.25c-3.21,1.54-6.25,2.81-9.95,1.47-1.77-.65-3.52.57-5.08,1.56a59,59,0,0,1-12.17,5.34C218.29,203.9,217,203.09,218.4,198.26Z"/><path class="cls-2" d="M294.11,417.07c-.3-.05-2,.18-2.49-.47-3.46-5-7.42-2.19-11.49-1.24-5.56,1.31-11.23,1.45-16.6-1-2.5-1.14-4.94-2.88-4.29-6,.61-2.85,3.44-3.42,6-3.5a15.68,15.68,0,0,0,8.1-2c2.61-1.61,4.38-3.75,3.69-7-.49-2.25-.4-3.4,2.39-3.08a10.51,10.51,0,0,0,8.37-2.44c1.62-1.4,2.68-.84,3.46.81,3,6.31,6.16,12.52,8.74,19C302.3,416,301.21,417.13,294.11,417.07Z"/><path class="cls-2" d="M226.32,179.33c-4.82,2.52-6.17,7.4-9.43,10.69-1.52,1.55-2.77,3.29-4.88,4-1.5.53-3,2.72-4.32,1.59a5.39,5.39,0,0,1-1-5.63c2-4.72.92-10.07,2.19-14.34,2.36-8,4-16.6,8.41-23.61,3.48-5.56,9.46-9.73,15.44-13,5.08-2.81,10-.71,15,1.41a11.65,11.65,0,0,1-8,2.4c-5.38-.27-9.3,2.32-11.85,6.84-3,5.35-8.12,10-6.08,17.2.16.54-.29,1.26-.49,1.89C219,176.13,219.07,176.34,226.32,179.33Z"/><path class="cls-2" d="M290.35,190.31c-.57,3.65-1.81,7.34-5.37,9.84-3.21,2.25-6.84,4.07-10.65,3.66-11-1.18-15.21,5.59-17.72,14.36-.78,2.7-2.09,4.21-4.67,4.19-2.83,0-3.71-2.41-4.46-4.67a3.58,3.58,0,0,1,.65-3.65c4.24-5.52,8.52-11,12.35-16.83a17.08,17.08,0,0,1,10.58-7.64c4.84-1.19,9.63-2.63,14.61-3.08C289.3,186.17,290.29,187,290.35,190.31Z"/><path class="cls-2" d="M228.57,176.21a31,31,0,0,1-3.7-.52c-1.91-.44-2.89-1.59-1.89-3.63a16,16,0,0,0,1.34-9.17c-.44-3.91,7.53-15.43,11.24-16.74,2.82-1,5.11-1.11,6.92,2.32,3.5,6.63,5.85,13.15,1.56,20.19C240.84,173.91,235.94,176.31,228.57,176.21Z"/><path class="cls-2" d="M258.4,195.61c-3.7,5.13-6.62,10.24-10.59,14.35-3.33,3.46-4,6.62-2.11,10.67s5.09,5.49,9.49,4c-.83,6-5.13,8.48-10.58,6.09A19.54,19.54,0,0,1,233,217.17a78.1,78.1,0,0,1-1.54-12.34c-.19-2.25,5.76-7.6,8.42-6.77,5.12,1.61,9-.77,13.3-2.41A8.22,8.22,0,0,1,258.4,195.61Z"/><path class="cls-2" d="M154.15,411.15c-1,7.24-2.24,14.45-2.6,21.78-.1,2-.31,4.48-3.11,5.09-3,.64-5.79.31-7.65-2.3-6-8.33-7.93-17.45-4.86-27.41.37-1.19.58-2.89,2.55-2.13,1.55.59,1.76,1.73,1.05,3.22a8.24,8.24,0,0,0-.71,2.89,2,2,0,0,0,.7,1.61c.93.42,1.51-.23,1.78-1.14.19-.64.38-1.28.61-1.9,2.39-6.65,2.33-6.3,9-5.11C154.72,406.44,154.13,408.69,154.15,411.15Z"/><path class="cls-3" d="M280.07,390.16c-2.89-.05-6.4,0-5.75-2.75.46-2,4-4.18,6.43-4.49,2.08-.26,3.69,3.34,3.75,5.18C284.59,391.28,281.16,389.29,280.07,390.16Z"/><path class="cls-4" d="M146.69,393.65c1.4,4.24,9.06,0,7.19,7.3-.89,3.42-2.95,2.06-4.94,1.64C143.34,401.4,145.7,397.87,146.69,393.65Z"/><path class="cls-5" d="M272.65,384.31c-1.69.07-3.13-1.46-2.85-2.19,1.17-3,4.64-3.11,7.07-4.56,1.4-.84,2.32,1.19,2.1,1.81C277.93,382.26,274.92,382.91,272.65,384.31Z"/><path class="cls-6" d="M155.7,393.4c-3.68,1.4-6.4.12-9-3.31C150.45,390.28,152.62,393.18,155.7,393.4Z"/><path class="cls-7" d="M127.53,277a1.5,1.5,0,0,0,0-3,1.5,1.5,0,0,0,0,3Z"/></svg>