<svg id="Layer_1" data-name="Layer 1" xmlns="http://www.w3.org/2000/svg" viewBox="0 0 480 480"><defs><style>.cls-1{fill:#fcfafa;}.cls-2{fill:#414040;}.cls-3{fill:#010101;}.cls-4{fill:#080808;}.cls-5{fill:#131212;}.cls-6{fill:#2a2a2a;}.cls-7{fill:#868484;}.cls-8{fill:#fff;}</style></defs><path d="M479.91,240q0,117.92.09,235.83c0,3.28-.46,4.17-4,4.16q-235.86-.18-471.71,0C.51,480,0,479,0,475.58Q.15,240,0,4.42C0,1,.48,0,4.27,0Q240.11.2,476,0c3.55,0,4,.86,4,4.16Q479.84,122.09,479.91,240Z"/><path class="cls-1" d="M275.06,183.87c3.58.69,7.36.89,10.22,3.53,1.67,1.54,2.86,3.54,1.7,5.79s-3.15,1.8-5.24,1.17c-6.08-1.82-11.74.32-18.5,2.15C272.8,204,273,215.22,277,224.75a14.57,14.57,0,0,1,1,8.84c-2.49,10.51-4.47,21.72-12,29.67-7.09,7.49-6.19,14.67-2.89,22.56s7,16,8,24.59c1.19,10,5.6,17.89,11.2,26.06,9.91,14.49,15.75,31.16,20.6,47.93,1.91,6.59,5.39,11.92,8.24,17.8,4.15,8.59,11.25,15.25,14.34,24.35,1.43,4.22.24,6.65-3.55,8.42a16,16,0,0,1-20.22-6,4.7,4.7,0,0,1-.51-4.76,7.6,7.6,0,0,0-.34-8.09c-3.7-5.82-2.57-13.24-6.76-18.92-1.55-2.1-2.72-2.79-5.17-2.12-4.65,1.29-9.27,2.76-14.17,2.79-6.21,0-8.65-1.85-10.55-7.73-4-12.33-5.45-25.43-11.17-37.23-6.09-12.56-11.76-25.37-19-37.33-8.31-13.77-11.07-13.63-19,.19q-3.5,6-6.69,12.25a27.07,27.07,0,0,0-2.79,18.38A20.22,20.22,0,0,1,204.13,360a60.71,60.71,0,0,0-6.85,27.33,46.48,46.48,0,0,1-3.53,17.52,26.77,26.77,0,0,0-1.33,15.17c.54,3.25.27,6.64.5,10,.29,4.47-1.15,7.44-6.07,8-7.23.77-11.4-1.39-12.88-6.35a47.33,47.33,0,0,1-1.29-20.25c.5-3.75,1.38-7.27,5-9.23,1.09-.59,1.21-1.25,1.12-2.38-2.34-29.6.11-58.86,6.24-87.85,2.56-12.06,4.5-24.22,6-36.45a43.14,43.14,0,0,1,2-9.24c1.65-4.57,2.51-8.79-.48-13.24-1.67-2.48-1-5.45.2-8.56-6.08,4.15-12.07,7.57-19,8.83-5.51,1-9.85-.4-13.72-4.89-3.1-3.59-6.56-7.14-11.77-8.33-4.36-1-6.54-4.47-6.64-8.9-.08-3.35,1.71-5.67,5-6.67a5.72,5.72,0,0,1,7.24,2.85c1.9,3.43,3.6,6.47,8.52,5.85A14.21,14.21,0,0,0,173.16,226c3.56-5.72,5-12.3,7-18.63,2.32-7.38,5.24-14.37,11.18-19.71a27.63,27.63,0,0,1,13.2-6.67c.94-.19,2.36-.15,2.34-1.33a2.91,2.91,0,0,0-1.76-2.17c-5.71-1.21-8.41-4.87-9-10.44-.84-7.35.87-13.92,6.06-19.32,7.91-8.24,18.51-9.95,29.07-11.72,9.21-1.54,17.71,2.19,26.52,3.61,1.35.22,3.22,1.24,3.66,2.35,1.93,4.93,3.49,9.87,6.6,14.4,1.89,2.75-2,3-4.46,3.53,6,2.93,9.67,7.59,12.31,13.33,1.2,2.6,4.34,2.8,6.92,3.44,2.33.57,6,.42,5.84,3.4-.19,3.51-3.85,2.75-6.43,2.81-3.27-1.09-6.69.37-9.77-.42C273.09,182.94,274.29,183,275.06,183.87Z"/><path class="cls-2" d="M275.06,183.87c-2.29-.19-4.4-.76-5.84-3,4.19,1.7,8.76.52,13,2C279.88,183.75,277.25,182.23,275.06,183.87Z"/><path d="M227.11,302.49c1-1.87,5.38-1.93,4-4.08-1.52-2.3-4,.87-5.93,1.76a19.55,19.55,0,0,0-7.39,6.57A110.63,110.63,0,0,0,203.82,332a23.59,23.59,0,0,0-1.08,13.25,25.27,25.27,0,0,1-2.47,16.9,50.17,50.17,0,0,0-5.5,22.57A84.9,84.9,0,0,1,193.1,398c-.54,3.14-1.26,6.61-5.72,6-4-.58-6.2-3.15-6.33-7.15-.22-6.65-.24-13.31-.32-20-.34-28.32,5.16-55.9,10.57-83.51,1.53-7.82,2.35-15.78,3.61-23.66.23-1.38,0-3.58,2.88-2.65,11.73,3.83,23.91,3.72,36.06,3.92,6.82.11,13.64.53,20.45.61,2.54,0,3.66.88,3.63,3.44-.07,6,2.34,11.31,4.66,16.67a95.45,95.45,0,0,1,7.24,26.37,25.91,25.91,0,0,0,5.71,13.56c12.65,15.58,18.06,34.61,24.92,52.94.92,2.47.3,4.5-2.22,5.19-7.68,2.12-15.27,4.68-23.3,5.3-4.54.35-7.11-1.58-8.18-6.11-1.92-8.08-3.73-16.23-6.37-24.1-6.46-19.31-16.1-37.15-26.52-54.56C232.12,307.38,229.36,305.05,227.11,302.49Z"/><path d="M235.69,268.86c-11.32-.65-22.63-.74-33.77-3.26-3.53-.8-4-2.5-4.88-6.22-1.6-7.06-2.46-13.54.15-20.38.37-1-.56-2.53-1.08-3.73-.43-1-.72-2.52-2.24-2.19s-1,1.9-1,2.94c.1,3.74-1.77,6.28-4.73,8.23A46.92,46.92,0,0,1,176,250c-5.72,1.75-10.82,1.52-14.42-4.28-.82-1.31-2.49-2.15-3.87-3-1.61-1-2.33-2.32-1.73-4.19.56-1.72,1.55-3,3.57-2.81,10.42.94,15.43-5.44,18.65-14,2.76-7.3,4.81-14.88,7.86-22.05,3.48-8.19,9.56-13.9,18.61-15.82.93-.2,2-1.05,2.83-.27,6.88,6.31,16.83,6.42,24.05,13,6.59,6,16.1,4.4,24.41,2,3.91-1.14,6.41-.42,8.26,2.87,7.69,13.72,14.95,27.34,7.65,43.93-3.21,7.3-5.43,14.93-11.33,20.78a8.38,8.38,0,0,1-6.94,2.88C247.67,268.66,241.67,268.86,235.69,268.86Z"/><path d="M273.87,179.22c-.64-.15-1.3-.26-1.94-.46-2.16-.66-5-2.32-6.17.46-1.34,3.11,1.79,4.53,4.08,5.76,2.52,1.36,5.36,1.69,8.15,2.19s5.55,1.18,6.95,5c-9.28-3-17.35.27-25.55,2.69a53.09,53.09,0,0,1-14.2,2.52c-6.26.11-11.86-1.55-16.46-5.92a21.85,21.85,0,0,0-13.24-6.3c-3.21-.31-5.27-1.53-5.55-5.12-.25-3.2-2.4-5.16-5.39-5.79-3.8-.8-5.06-3.43-5.57-6.74-1.41-9.13,1.43-16.84,9.43-21.4,12-6.83,24.88-10.14,38.74-5.82a28.26,28.26,0,0,0,5.36.86c4.71.52,8.47,1.71,8,7.77-.22,3,2.4,4.87,5.09,7.17-2.42.33-4.93-.76-5.46,1.87-.46,2.27,1.05,4,2.79,4.88a22.15,22.15,0,0,1,10.37,11.63,6.83,6.83,0,0,0,4.6,3.57C277.22,180.74,275.34,179.23,273.87,179.22Z"/><path class="cls-3" d="M190.15,407.23c-2.78,6.88.77,13.72,0,20.59-.33,2.74,1.69,7-3.46,7.3-6.39.36-9.47-.15-10.58-5.87a56.57,56.57,0,0,1-.52-18.75c.34-2.49,1.08-4.89,3.81-6.05.9.63.29,1.32.08,2-.37,1.22-1.48,2.87,0,3.56,1.68.79,2-1.19,2.43-2.34.52-1.46,1-2.23,2.84-1.52A31.1,31.1,0,0,0,190.15,407.23Z"/><path class="cls-3" d="M315.23,434.12c-4.45.51-5.12-3.64-8.05-4.5-3.63-1.07-3.72-3.42-2.54-7,1.34-4.09-1.08-8.11-2.95-11.75-1.37-2.65-1.84-4.27,1.71-5.07a14.23,14.23,0,0,0,3.57-1.7c1.62-.88,2.88-.79,3.37,1.22,1.46,6,5.39,10.53,9.17,15.15a14.83,14.83,0,0,1,1.71,3C324.79,430.86,322.83,433.92,315.23,434.12Z"/><path class="cls-4" d="M154.78,234.54c-.92,1.18-.58,3.5-3.07,3.68-3.33.23-7.4-3.3-7.42-6.67,0-2.69,1.34-4.39,4.09-4.63C150.17,226.76,154.65,232.08,154.78,234.54Z"/><path class="cls-5" d="M303.67,396.14c.05,2.24,5,3.85.6,6.37-2,1.13-3.57,1.95-5-1.07C296.71,396,303.12,398.75,303.67,396.14Z"/><path class="cls-6" d="M302.09,393.09c-.71,1.81-2.26,2.55-4.12,2.83-1.33.21-2.74-.54-2.4-1.63.66-2.17,3.31-1.54,4.93-2.51C301.34,391.28,302,392,302.09,393.09Z"/><path class="cls-7" d="M273.87,179.22c1.23-.84,3.17.88,4.06-1.14l6.59,1.23-.17,1.63C280.92,179.26,277.3,181.07,273.87,179.22Z"/><path class="cls-8" d="M91.93,306.69c3.93,0,7.69-3.45,7.5-7.5a7.63,7.63,0,0,0-7.5-7.5c-3.92,0-7.68,3.45-7.5,7.5a7.64,7.64,0,0,0,7.5,7.5Z"/><path class="cls-8" d="M91.09,276.2a1.5,1.5,0,0,0,0-3,1.5,1.5,0,0,0,0,3Z"/><path class="cls-8" d="M120.65,303.22a1.5,1.5,0,0,0,0-3,1.5,1.5,0,0,0,0,3Z"/><path class="cls-8" d="M95.31,328.57a1.5,1.5,0,0,0,0-3,1.5,1.5,0,0,0,0,3Z"/><path class="cls-8" d="M64.9,303.22a1.5,1.5,0,0,0,0-3,1.5,1.5,0,0,0,0,3Z"/><path class="cls-8" d="M144.18,303.45a1.5,1.5,0,0,0,0-3,1.5,1.5,0,0,0,0,3Z"/><path class="cls-8" d="M96.88,357.51a1.5,1.5,0,0,0,0-3,1.5,1.5,0,0,0,0,3Z"/><path class="cls-8" d="M33.52,303.45a1.5,1.5,0,0,0,0-3,1.5,1.5,0,0,0,0,3Z"/><path class="cls-8" d="M67.31,281.49a1.5,1.5,0,0,0,0-3,1.5,1.5,0,0,0,0,3Z"/><path class="cls-8" d="M114.61,282.33a1.5,1.5,0,0,0,0-3,1.5,1.5,0,0,0,0,3Z"/><path class="cls-8" d="M121.37,327.1a1.5,1.5,0,0,0,0-3,1.5,1.5,0,0,0,0,3Z"/><path class="cls-8" d="M69,331.32a1.5,1.5,0,0,0,0-3,1.5,1.5,0,0,0,0,3Z"/><path class="cls-8" d="M89.66,251.1a1.5,1.5,0,0,0,0-3,1.5,1.5,0,0,0,0,3Z"/><path class="cls-8" d="M99.79,388.79a1.5,1.5,0,0,0,0-3,1.5,1.5,0,0,0,0,3Z"/><path class="cls-8" d="M85.43,213.94a1.5,1.5,0,0,0,0-3,1.5,1.5,0,0,0,0,3Z"/><path class="cls-8" d="M1.81,304.32a1.5,1.5,0,0,0,0-3,1.5,1.5,0,0,0,0,3Z"/><path class="cls-8" d="M168.21,300.94a1.5,1.5,0,0,0,0-3,1.5,1.5,0,0,0,0,3Z"/><path class="cls-8" d="M47.42,262.08a1.5,1.5,0,0,0,0-3,1.5,1.5,0,0,0,0,3Z"/><path class="cls-8" d="M133.58,258.7a1.5,1.5,0,0,0,0-3,1.5,1.5,0,0,0,0,3Z"/><path class="cls-8" d="M146.25,344.86a1.5,1.5,0,0,0,0-3,1.5,1.5,0,0,0,0,3Z"/><path class="cls-8" d="M47.42,358.38a1.5,1.5,0,0,0,0-3,1.5,1.5,0,0,0,0,3Z"/></svg>