<svg id="Layer_1" data-name="Layer 1" xmlns="http://www.w3.org/2000/svg" viewBox="0 0 480 480"><defs><style>.cls-1{fill:#fbf9f9;}.cls-2{fill:#010101;}.cls-3{fill:#070707;}.cls-4{fill:#181717;}.cls-5{fill:#0c0c0c;}.cls-6{fill:#121111;}.cls-7{fill:#121212;}.cls-8{fill:#2c2b2b;}.cls-9{fill:#616060;}.cls-10{fill:#fff;}</style></defs><path d="M479.91,240q0,117.92.09,235.83c0,3.26-.43,4.18-4,4.18q-235.85-.18-471.7,0C.55,480,0,479.07,0,475.6Q.15,240,0,4.44C0,1,.44,0,4.26,0Q240.11.2,476,0c3.52,0,4,.83,4,4.15Q479.84,122.07,479.91,240Z"/><path class="cls-1" d="M237.68,332.29c.71,12.37-4.07,21.71-10.88,30.53-5.1,6.62-7.61,14.73-10.83,22.39-.84,2-1.64,4-2.65,5.91-1.83,3.48-4.26,4.41-7.6,1.68s-6.88-5.86-11.51-6.73c-2.26-.42-5-1.16-5.5,2.05-.46,2.85,1.3,4.61,4.33,4.93,4.13.42,8.33.69,12,2.92,5.17,3.12,5.14,7.26-.1,10.28-4.67,2.69-9.85,2.68-15,2.79s-10.15-1.12-15.44,2.63c-6.08,4.31-12.82-.92-12.25-8.43.42-5.52,1.19-10.91,4.7-15.52a7.78,7.78,0,0,0,1.73-5.11c0-1.15.29-3,1.74-2.15,4.92,2.87,6.64-1.71,8.51-3.95,10.4-12.54,20.33-25.45,30.59-38.1a11,11,0,0,0,2.81-8.62c-.75-7.29,0-14.65-1.1-21.94a10.83,10.83,0,0,0-2.37-5.84c-9.41-11.1-13.18-23-5-36.54.33-.55.85-1.08.3-1.75-4.34-5.27-.84-10,1-14.86a29.56,29.56,0,0,0,1.16-2.74c1.15-4.19-.06-5.85-4.34-5.78-8.11.12-15.91-1.15-23.21-4.89-6.29-3.23-10.46-8.22-12-15.12a31.52,31.52,0,0,0-5.89-12.5c-3.3-4.35-5.31-9.29-4.78-14.85.18-1.82-.73-2.74-1.57-3.93A25.16,25.16,0,0,1,150,175.51a7,7,0,0,1,3-6.5c4.81-3.31,9.7-1.28,14.35.29,3.85,1.29,5.39,4.7,5.69,8.64.75,9.74.77,9.73,5.9,17.8,2.85,4.48,5.29,9.22,9,13.14,2.27,2.4,3.34,2.74,5.13-.64,5.42-10.25,13.37-18.54,21.6-26.84-3.32-3.8-7.63-4.42-12.62-3-4.3,1.19-8.58,2.88-13.2,1.89-2-.43-4.07-1.17-4.2-3.58-.11-2.17,1.75-3,3.5-3.71.77-.3,1.57-.54,2.37-.77,2-.58,5-.58,5.26-3,.34-2.85-2.79-2-4.47-2.71-.8-.31-1.63-.61-1.81-1.52-.23-1.18.65-1.87,1.51-2.29,1.91-.93,3.9-1.71,6.28-2.72-1.67-2.16-3.89-2.29-5.76-3-1.57-.62-3.37-1.25-3.31-3.24.07-2.16,1.92-3.07,3.75-3.43a37.27,37.27,0,0,1,7.42-.85,31.28,31.28,0,0,0,20.37-7c.65-.52,1.39-.91,2.05-1.41,15.13-11.55,27.84-.14,30.87,12.09,1.24,5,2.08,10.1.57,15.31a10.51,10.51,0,0,0,.51,7.82,15.43,15.43,0,0,1,1.29,10.17c-.19,1.11-1.29,2.85.55,3.41,1.59.49,3-.74,3.6-2.11,2.56-5.42,5-10.92,4.62-17.12-.24-3.87-.13-7.87-4.36-10.15-1.08-.58-1.79-2-2.51-3.06-2.42-3.79-1.78-8.42,1.34-10.15,3.62-2,9.76-.71,11.52,2.77,1.11,2.18,1.46,4.74,2.28,7.09,1,2.85.7,6,3.82,8.25,2.15,1.52,1.11,4.69.67,7.08a82.2,82.2,0,0,0-1.72,18.36c.49,11-3.52,19.76-13.11,25.13-6.47,3.62-8.2,8.58-7.86,15.5a66.53,66.53,0,0,0,3.38,19.08c1.43,4.07,1,7.17-3.15,9.75a8,8,0,0,0-4.06,8.32,52.5,52.5,0,0,1-.59,17.9,8.51,8.51,0,0,0,2.65,8.45c11.36,10.91,20.54,23.54,29.17,36.64,6.85,10.38,10.14,21.92,11.72,34.06.76,5.78-1,10.4-6.59,13.21-3.56,1.77-6.78,4.2-10.31,6-4.34,2.26-5.49,5.75-2.9,10.15a9.15,9.15,0,0,1,1.2,5.76c-.5,4.66,1.83,7.55,5.57,9.72,4.45,2.59,9.28,4.53,13.36,7.75,2.6,2.05,4.87,4.44,3.55,8-1.23,3.35-4.21,4.52-7.59,4.69-9.63.49-18-2.37-25-9.14-1.93-1.87-3.69-3.41-7-2.28-2.74.94-10.5-3.85-11.66-6.6-1.71-4,.4-7,3.05-9.79,5.63-5.84,8.37-12.48,6.55-20.76a19.07,19.07,0,0,1,0-8c1.68-7.48-1.16-14.49-1.8-21.72a13.1,13.1,0,0,0-3.94-7.89Z"/><path d="M208.94,241.34c2.14-.88,4.17,2.07,4.93-.48.6-2-2-2.43-3.43-2.64a59.2,59.2,0,0,0-8.94-.5c-7.59,0-14.9-1.3-21.71-4.8a19.17,19.17,0,0,1-10.46-13.28,30.78,30.78,0,0,0-6-13,21.91,21.91,0,0,1-2.36-3.8c-3.21-6.36-2.77-6.79,3.85-8.47,8.37-2.11,8.52-3.75,13.8,6.41,5.84,11.22,15.79,16.62,26.56,21.34.82.36,1.69.64,2.23-.16.79-1.19-.32-1.76-1.11-2.29a45,45,0,0,0-9.87-4.73c-2.14-.77-3.29-1.52-1.81-4.25,5-9.17,11.9-16.79,18.92-24.36a3.59,3.59,0,0,1,4-1.11,46.24,46.24,0,0,0,20.26,1c1.92-.3,3.1-.31,3.38,2.11a9.49,9.49,0,0,0,2.88,5.71c7.3,7,8.45,16,7.8,25.3-.78,11.06-1.13,21.92,3,32.48.92,2.37-.34,3.83-1.89,5.94-5.54,7.57-12.89,5.6-20.09,4.94-8.12-.75-16.23-1.88-24.4-1.19-3.12.26-4-1.11-3.5-3.72a25.21,25.21,0,0,1,2.09-6.61C208.71,248.05,209.92,244.88,208.94,241.34Z"/><path d="M246.63,288.28c-3.09-3.29-5.52-5.93-8-8.5-1.74-1.79-3.56-3.5-5.39-5.19-.76-.7-1.8-1.24-2.66-.35-1,1.08.14,1.71.83,2.33,10.52,9.53,19.52,20.53,28.78,31.18,12,13.77,23.4,28.23,28,46.61,4.91,19.8,3,19.35-14.66,28.7a7.62,7.62,0,0,1-1.41.5c-12.3,3.62-14.72,1.22-14.14-11.44s-1-24.17-11-34.24c-10.64-10.75-21.06-21.77-31.62-32.62-6.17-6.35-12-13-12.93-22.49a25.62,25.62,0,0,1,.59-9.4c2-7.39,4.6-9.37,12.28-9.28,9.83.11,19.53,2.34,29.38,2,2.52-.1,2.5,1.4,2.77,3.09C248.39,275.26,247.35,281.26,246.63,288.28Z"/><path d="M215.08,308.09c6.29,6.56,12.47,13,18.66,19.44a4.39,4.39,0,0,1,1.33,3.08c.34,8.49-.44,16.93-5.76,23.77-7.59,9.75-12.22,20.88-16.84,32.1-2.5,6.11-2.73,6.22-7.61,2.15a25.21,25.21,0,0,0-12.52-5.71,23.28,23.28,0,0,1-4.35-1.09c-6-2.23-6.64-4.87-2.51-9.53,9.7-11,18.61-22.59,27.66-34.1a10.23,10.23,0,0,0,2-7C215,323.82,215.08,316.41,215.08,308.09Z"/><path class="cls-2" d="M187.62,176.7c2.85-2.53,7-1.8,9.5-4.37,3.3-3.32,1.48-5.82-1.55-8,6.63-4.66,6.36-5.39-3.92-10.87,2.64-1.36,5.41-1.34,8.16-1.33a34,34,0,0,0,20.88-6.94c3.19-2.37,6.39-4.77,10.34-5.85a5.46,5.46,0,0,1,5.92,1.42c1.57,1.67,1.89,3.09-.36,4.38-.86.49-1.68,1.07-2.56,1.52-9.79,5.08-13.36,13.34-12.32,24,0,.49.08,1,.11,1.49.16,2.32.72,5.16-1.42,6.48s-4.88,0-6.83-1.52c-4.64-3.72-9.44-1.83-14.28-.79C195.52,177.11,191.76,179.11,187.62,176.7Z"/><path class="cls-2" d="M272.17,398.25c-2,9,2.95,13,9.31,16.24,3.56,1.79,7.17,3.5,10.27,6.05,1.51,1.25,3.42,2.48,2.51,4.87-.81,2.13-2.83,2.75-4.88,2.81-6.93.18-13.61-.66-19.26-5.23q-2.89-2.36-5.76-4.75a6.91,6.91,0,0,0-6.39-1.66c-4,.85-6.93-1.94-9.46-4.4-1.79-1.75-.47-4.07,1-5.8,2.24-2.66,4.85-5,6.42-8.21.9-1.81,2-1.09,3.25-.57A18.09,18.09,0,0,0,272.17,398.25Z"/><path class="cls-2" d="M247.74,164.57a20.77,20.77,0,0,1-2.08,9.08C244,177,242.39,181,237.83,181c-4.77,0-8.53-2.48-11-6.64A17.33,17.33,0,0,1,231.05,152a56.4,56.4,0,0,1,5.81-3.81c4.07-2.48,7.15-1.48,8.42,3.19S246.36,160.88,247.74,164.57Z"/><path class="cls-2" d="M171.73,384.65c3.55,3.27,7.34,5.11,11.92,5,.94,0,2.08-.28,2.47,1,1.47,5,5.68,4.81,9.64,5.39s9.83.71,9.8,4.89c0,4.62-6,4.7-10.05,5-4.3.33-8.64,0-13,0-3.13,0-6-.18-8.5,2.82-1.84,2.24-5,.93-7.53.19-2.89-.85-1.54-3.29-1.51-5.08.06-3.49.25-7,1.73-10.25C168.13,390.69,169.93,387.88,171.73,384.65Z"/><path class="cls-2" d="M255.5,216.73c-3.23-7,1-14.27-1.31-21.29-.57-1.75.36-2.54,2.3-2.8,3.53-.46,5.4-3.06,6.5-6.18,2.26-6.4,5-12.74,3-19.61.67-.31,1-.59,1.21-.54,7.29,1.61,7.19,1.6,6.11,9.1-.62,4.27-1.49,8.65-1.13,12.88C273.32,201.79,267.37,210.88,255.5,216.73Z"/><path class="cls-2" d="M170.34,182.75c-.25,4,.77,8.54-5.53,9.11a6.85,6.85,0,0,1-5.44-1.63c-4.78-4-6.43-9.48-6.57-15.51a4.35,4.35,0,0,1,3-4.19c6.37-2.86,14.43,2.28,14.56,9.24C170.36,180.76,170.34,181.76,170.34,182.75Z"/><path class="cls-3" d="M249.62,172.57c5.68,8,.78,17.46,2,25.71C241.22,190.73,241.12,181.55,249.62,172.57Z"/><path class="cls-3" d="M271.28,164.87c-6.25-2.47-10.48-5.55-12.88-10.68-.92-2-.27-4.23,2.1-4.79,2.77-.66,6-.88,7.24,2.51C269.13,155.73,269.92,159.77,271.28,164.87Z"/><path class="cls-4" d="M234.15,183.61a41.82,41.82,0,0,1-13.2-.12l3.82-6.77A26,26,0,0,0,234.15,183.61Z"/><path class="cls-5" d="M186.72,384.6c-1.87,2.69-4.36,2.75-7.09,1.82-1.39-.48-3.41-.79-3.64-2.19-.32-2,2-2.79,3.29-4,1.62-1.48,2.13.69,3.09,1.3C183.86,382.54,185.28,383.59,186.72,384.6Z"/><path class="cls-6" d="M268.47,392.15c-.33,1.8-.11,4.27-2.34,4.32a11.93,11.93,0,0,1-8.19-2.77c-.32-.29-.23-1.21-.11-1.8.21-1.07,1.08-1.21,1.87-.8C262.47,392.51,265.47,391.87,268.47,392.15Z"/><path class="cls-7" d="M259.34,387.19h10.29C267,390.34,263.5,390.37,259.34,387.19Z"/><path class="cls-8" d="M249.76,152.16c1,4.45,2.25,8.87.62,13.53l-1.59-9.38C248.82,154.86,247.41,153.07,249.76,152.16Z"/><path class="cls-9" d="M249.76,152.16c-1.23,1.17-.37,2.83-1,4.15-.43-2.07-.78-4.16-1.29-6.21s-2.22-3.31-3-5.16C247.71,146.34,248.86,149.16,249.76,152.16Z"/><path class="cls-10" d="M292.28,152.92a1.5,1.5,0,0,0,0-3,1.5,1.5,0,0,0,0,3Z"/><path class="cls-10" d="M139,143.69a1.5,1.5,0,0,0,0-3,1.5,1.5,0,0,0,0,3Z"/><path class="cls-10" d="M134.11,175.46c-4.34,2.65-9.1,5.61-14.36,5.57-5.07,0-9.6-3.23-14.76-2.55a1.54,1.54,0,0,0-1.5,1.5,1.51,1.51,0,0,0,1.5,1.5c5.36-.71,10.22,2.8,15.61,2.53s10.43-3.15,15-6c1.65-1,.14-3.6-1.51-2.59Z"/><path class="cls-10" d="M110.81,221.07a1.5,1.5,0,0,0,0-3,1.5,1.5,0,0,0,0,3Z"/><path class="cls-10" d="M72.91,164.49a1.5,1.5,0,0,0,0-3,1.5,1.5,0,0,0,0,3Z"/><path class="cls-10" d="M255.23,124.89a6.34,6.34,0,0,0-2.81-10,1.51,1.51,0,0,0-1.84,1,1.52,1.52,0,0,0,1,1.84,1,1,0,0,0,.24.09l-.11,0,.07,0a2.51,2.51,0,0,1,.45.26c.21.14.07.09,0,0a1.63,1.63,0,0,0,.2.17,4.08,4.08,0,0,1,.36.36,1.77,1.77,0,0,0,.17.2c-.26-.24-.11-.14,0,0a4,4,0,0,1,.27.44l.12.24c.08.18,0,.23,0,0a4.91,4.91,0,0,0,.17.5,4.21,4.21,0,0,1,.12.51c0,.14,0,.35,0-.06a2.06,2.06,0,0,0,0,.26,4.69,4.69,0,0,1,0,.53c0,.08,0,.17,0,.25,0,.29.07-.35,0,0s-.07.33-.11.5-.05.14-.07.21-.13.34,0,.1,0,0-.05.09a1.59,1.59,0,0,1-.13.22,1.64,1.64,0,0,1-.14.22c-.19.31.18-.21,0,0a1.5,1.5,0,0,0,2.13,2.12Z"/><path class="cls-10" d="M282.31,126.3a32.31,32.31,0,0,0,9.51-7.09,1.5,1.5,0,0,0-2.12-2.12c-.65.7-1.32,1.37-2,2s-1.43,1.23-2,1.67a32.12,32.12,0,0,1-4.86,2.95,1.5,1.5,0,0,0-.54,2.05,1.54,1.54,0,0,0,2.05.54Z"/><path class="cls-10" d="M293.74,152.36a9.69,9.69,0,0,1,.73-.7l.18-.15s.23-.18.08-.07l.08-.06.2-.14a9.45,9.45,0,0,1,.86-.53l.42-.22.22-.1s.34-.15.14-.07.07,0,.1,0l.23-.09.45-.15c.32-.09.65-.18,1-.24a1.55,1.55,0,0,1,.47-.08c-.09,0-.25,0-.05,0l.24,0a9.55,9.55,0,0,1,1.07,0,1.5,1.5,0,0,0,0-3,11.46,11.46,0,0,0-8.52,3.55,1.5,1.5,0,0,0,2.12,2.12Z"/></svg>