<svg id="Layer_1" data-name="Layer 1" xmlns="http://www.w3.org/2000/svg" viewBox="0 0 480 480"><defs><style>.cls-1{fill:#fbf9f9;}.cls-2{fill:#010101;}.cls-3{fill:#020202;}.cls-4{fill:#040404;}.cls-5{fill:#0b0b0b;}.cls-6{fill:#060606;}.cls-7{fill:#111;}.cls-8{fill:#1c1c1c;}.cls-9{fill:#4e4d4d;}</style></defs><path d="M479.91,240.54q0,117.66.09,235.33c0,3.38-.62,4.11-4.07,4.11q-235.86-.17-471.7,0C.33,480,0,478.83,0,475.53Q.14,240,0,4.37C0,.82.67,0,4.32,0q235.61.18,471.2,0c4,0,4.47,1.17,4.47,4.71Q479.83,122.62,479.91,240.54Z"/><path class="cls-1" d="M252,389.08c.27,6.76,4.91,9.34,8.34,12.75,5.71,5.68,5.75,9.69-.14,14.9-3.52,3.1-4.61,7.17-5.18,11.55-.66,5.13-2.44,9.68-7.09,12.59-3,1.89-6.24,2.54-9.42.61-3.34-2-3.7-5.31-3.15-8.81a38.73,38.73,0,0,1,5.45-13.84c3-5,2.91-9.79-.22-14.92-2.13-3.51-3.37-7.59-4.82-11.48-1.25-3.34-3.09-4.76-6.74-3.28a92.7,92.7,0,0,1-10,3.29c-7,2-11.57-.12-14.47-6.88a35.77,35.77,0,0,1-2.37-8.11,161.9,161.9,0,0,0-8.1-28.76,18.69,18.69,0,0,1,.79-15.89,62.82,62.82,0,0,1,19.8-22.74c5.84-4.13,11.49-8.54,17.41-12.54a5.41,5.41,0,0,0,2.61-4.87c.35-8.17,1.13-16.28,3.84-24.08.72-2.08.81-3.82-2-4.61-3.81-1.09-5-4.2-4.95-7.77a27.38,27.38,0,0,1,1.15-8.36c3.29-9.11,4.48-18.68,6.68-28,.44-1.86,1.39-3.61-1.79-3.67a1.83,1.83,0,0,1-1.78-2c.79-4.44-2.41-7-4.56-10-5.67-7.86-7.12-17.1-8.8-26.26-.58-3.18,1-5.73,3.22-8,3.88-4.08,8.4-7.62,10.9-12.9a3.5,3.5,0,0,1,2.21-1.86c9.78-.93,13.23-9.07,18-15.66,3.16-4.35,6.63-5.6,11.14-3.54,3.62,1.66,5,4.26,3.2,8.08a15.87,15.87,0,0,1-8.87,8.31c-2.13.86-4.31,1.59-6.07,3.39,1.52.89,2.84.24,4.2-.08a19.15,19.15,0,0,1,21.64,10.31c1.59,3.34,4.78,6.16,5.58,9.27,2.5,9.59,9.43,18.1,7.41,28.8-.31,1.59.46,2.92.65,4.38a37.8,37.8,0,0,1-.83,13.91c-2.88,11.9-2.75,24.12-4.06,36.18-.89,8.14-2.47,9.87-11.07,10.71,1.93,4.95,5.07,9.28,6.22,14.48,3.36,15.25-2,27.49-13.11,37.59a17.21,17.21,0,0,0-4.71,7.21c-3.49,9.42-3.26,19.73-7.21,29-.92,2.17.45,3.52,2,4.6,8.06,5.66,15.15,12.47,22.55,18.92,2.09,1.83,4.43,3.16,4.86,6.54.29,2.29,2.21,3.08,4.15.66,2.78-3.46,4.51-2.36,6.61,1.1,3.87,6.4,8.17,12.48,10,20,2.86,11.8-4.92,13.21-12.26,11.18a17.77,17.77,0,0,0-9.05-.46,18.13,18.13,0,0,1-13-2c-2.3-1.28-4.05-3.06-3.66-6a5.62,5.62,0,0,1,4.87-5c3.12-.67,7.53-1.44,7.4-4.58-.12-2.78-4.64-3.7-7.7-4.53-1.55-.43-3.08-1.23-4.8-.24-6.29,3.6-11.12.48-15.68-3.57C255.56,392.6,254.05,391.07,252,389.08Z"/><path d="M237.45,294.14a93.35,93.35,0,0,1,4.2-27c.29-.95.22-2,1.68-1.87,9.72.79,19.62-1.92,29.23,1.6a7.73,7.73,0,0,1,4.4,3.51c12.59,20.53,8.78,39.25-11.15,52.69-9.64,6.5-19.59,12.54-29.36,18.86-3.82,2.47-8,3.09-12.4,2.94-1.22-.05-2.9-.63-3.49,1-.51,1.47.74,2.44,1.67,3.36,8.13,8,14.4,17.41,20.38,27,3.1,5,2.73,6-2.92,7.51-7.06,1.88-14.15,3.61-21.11,5.91-6.1,2-9.19.23-11.79-5.78-1.73-4-2-8.39-3-12.59A192.43,192.43,0,0,0,196.5,347a14.92,14.92,0,0,1,.8-12.94,65.56,65.56,0,0,1,17.15-20.47c10.79-8.7,22.66-15.68,34.3-23.07,1.18-.75,3.51-1.62,2.59-3.07-1.27-2-2.91.12-4.19.91C244.08,290.25,241.32,292.68,237.45,294.14Z"/><path d="M289.09,240.29c.64,6.85-.75,13.57-1.29,20.35-.31,3.77-2.52,5.63-6.37,5.37a8,8,0,0,1-2.47-.23c-10.84-4.4-22.18-3.18-33.45-3.21-10.91,0-13.27-2.58-10.27-12.93s4.76-21.17,7.5-31.89c1.7,1.07,1.68,2.34,2.13,3.36,1.46,3.32,3.77,3.66,6.27,1.38a24.11,24.11,0,0,0,4.72-5.75c2.26-4,3.69-2.5,5.94.11,3.59,4.17,4.14,9.34,4.87,14.24s0,10.31,6,12.44c6.53,2.31,11-1.84,15.5-5.49C290.05,238.17,289.34,239.32,289.09,240.29Z"/><path d="M266.29,326.39c-4.59,10.45-3.87,21-8,30.36-1.4,3.18.41,5.55,2.85,7.25,8.48,5.93,15.76,13.27,23.69,19.84,3.63,3,3.55,4.26-.78,6.19-4.7,2.09-9.55,3.86-14.26,5.93-3.56,1.56-6.23-.32-8.64-2.27-4.38-3.55-8.57-7.37-12.68-11.24-2.09-2-1.67-5.22-3.38-7.57-4.59-6.32-8.9-12.83-13.35-19.25-1.62-2.33-.85-7.64,1.47-9.06C243.78,340.08,254.4,333.63,266.29,326.39Z"/><path class="cls-2" d="M266,158.22c-1.75,3-4.76,4.6-7.22,6.7-4.56,3.9-8,8.43-9,14.52-.72,4.32-.16,8.39,2.68,11.77s4.28,7.77,7.47,11.13c1.77,1.87-.27,6.29-1.74,7.49-3.33,2.73-4.94,6.55-7.73,9.51C249,221,247.72,222,247,218.76c-.54-2.27-2.1-4.29-4.24-4.47-3.94-.34-4.33-2.28-4-5.57a32.2,32.2,0,0,0-.42-7.95A23.53,23.53,0,0,1,243,182c2.2-2.81,3.1-6.18,4.08-9.56C249.81,163.1,258,157,266,158.22Z"/><path class="cls-2" d="M264.05,164.19c2.86-1.64,3.56-5.55,6.18-5.24a11.49,11.49,0,0,1,8.5,6.39c2.28,4.45,4.5,8.86,7.95,12.58a6.14,6.14,0,0,1,1.23,4.23,20.45,20.45,0,0,0,4.3,13c1.3,1.64,1.55,3.59.87,6.54-3.6-6.08-8.38-7.13-14.11-5-5.19,1.91-10.21,4.09-14,8.37a26.33,26.33,0,0,1-3,3.38c2.16-5.43,3.23-11.34,7.93-15.56,8.06-7.23,6.76-21-2.49-27C266.61,165.36,265.67,165,264.05,164.19Z"/><path class="cls-2" d="M285.86,398.13c2.66-1.38,5.07-2.19,6.85-4,1.61-1.65,3.16-3.36,4.8-5.1,4.27,6.44,9,12.48,10.71,20.16.6,2.72,2,5.84-.61,7.93a7.86,7.86,0,0,1-8.55.49c-3.15-1.72-5.9-1.46-9-.51-4.2,1.27-8.23.38-12-1.61-1.18-.62-2.35-1.53-2.23-3.05.13-1.72,1.36-2.51,3-2.86a16.86,16.86,0,0,0,6-2.21C289.16,404.42,289.46,402.29,285.86,398.13Z"/><path class="cls-2" d="M244.53,406.11c4.91.23,7.79-2.22,9.77-6.2,1.89,1.8,3.62,3.34,5.23,5,3.28,3.37,3.2,6.17-.46,9.12-4.31,3.47-6,8.12-6.73,13.38-.52,4-1.47,7.85-5,10.46-2.22,1.65-4.58,2.87-7.32,1.31s-2.31-4.16-1.92-6.64c.71-4.5,2.86-8.43,5-12.39C245.35,415.84,247.31,411.44,244.53,406.11Z"/><path class="cls-2" d="M261.15,200.75c-2.62-7.77-10.51-12.23-8.59-21.16a20,20,0,0,1,4-8.49c4.24-5.31,8.16-5.37,12.53-.2a14.27,14.27,0,0,1-1.09,20C265.15,193.38,263.73,196.75,261.15,200.75Z"/><path class="cls-2" d="M236.15,205.47c-7.81-8.76-9.13-18.54-11-28.1a5.63,5.63,0,0,1,1.88-5c.81-.84,1.69-1.62,2.42-2.51,4.76-5.78,9.44-11.71,18-5.18-3.43,5.91-4.47,13.52-9.12,19.78C234,190.36,235.12,197.5,236.15,205.47Z"/><path class="cls-2" d="M280.68,219.71c-2.35,4.12,1.24,6.73,3,10,1.26,2.36,4,5.27,1.26,7.58-2.85,2.45-6.22,5.22-10.73,3.87-3.69-1.1-4.59-3.86-4.55-7.33a13.57,13.57,0,0,0-.67-5.39c-2.43-5.54-.84-9.6,4.08-12.6,1.32-.81,1.59-3.76,4.21-2.14A7.22,7.22,0,0,1,280.68,219.71Z"/><path class="cls-3" d="M284,221.09a51.88,51.88,0,0,0-1.66-5.72,7.85,7.85,0,0,0-6.92-5,8,8,0,0,0-7.82,4.39c-.54.94-.78,2.72-2.19,2.26s-1.93-2.26-1.57-3.8a12.57,12.57,0,0,1,1.61-4.13c4.41-6.5,11-9.42,18.44-10.64,3.31-.54,8.1,3.77,7,6.74C289.09,210.27,288.28,216,284,221.09Z"/><path class="cls-4" d="M241.06,159.51c8.55-4.93,13.88-12,18.78-19.55,2-3.13,5.19-3,7.86-1.08,3.34,2.38.59,4.68-.83,6.71a7.91,7.91,0,0,1-3.32,2.93,28.13,28.13,0,0,0-14.05,11.26C247.71,162.44,244.49,160.85,241.06,159.51Z"/><path class="cls-5" d="M289.09,240.29l-.9-2.25c1-4.06-.56-7.52-2.82-10.67-1.53-2.13-2.48-3.65.76-5.15,2.58-1.2,3.5-3.8,4-6.52a9.19,9.19,0,0,1,2.91-5.94C293.5,220.63,290.27,230.35,289.09,240.29Z"/><path class="cls-6" d="M248.77,390.64a59.55,59.55,0,0,1,2.42,5.93,4.81,4.81,0,0,1-3.2,6.27c-2.58.94-5,.92-6.31-2.59s-3.14-6.36,2.75-6.9C245.86,393.22,247.16,391.69,248.77,390.64Z"/><path class="cls-7" d="M248,386.1a9.21,9.21,0,0,1-4.65,4.88c-1.67.78-3.47,1.42-5-.35s-2.67-3.25.93-3.93a24.28,24.28,0,0,0,5.59-2C246.55,383.91,247.25,384.8,248,386.1Z"/><path class="cls-8" d="M279,395.35c3.5-1.69,6.23-3,9-4.33a1.78,1.78,0,0,1,2.2.6c.57.68.13,1.16-.51,1.5C286.59,394.77,283.67,397,279,395.35Z"/><path class="cls-9" d="M224.5,347.86c2-.67,3.44-1.26,4.34.34.44.79.14,2.31-.77,2.5C226.38,351,226,349.19,224.5,347.86Z"/></svg>