<svg id="Layer_1" data-name="Layer 1" xmlns="http://www.w3.org/2000/svg" viewBox="0 0 480 480"><defs><style>.cls-1{fill:#fcfafa;}.cls-2{fill:#010101;}.cls-3{fill:#020202;}.cls-4{fill:#080808;}.cls-5{fill:#0f0f0f;}.cls-6{fill:#0d0d0d;}.cls-7{fill:#fff;}</style></defs><path d="M479.91,239q0,117.92.09,235.83c0,3.29-.47,4.17-4,4.16q-235.86-.18-471.71,0C.49,479,0,478,0,474.58Q.15,239,0,3.42C0,0,.49-1,4.27-1q235.61.2,471.21,0C479.37-1,480,0,480,3.67Q479.82,121.33,479.91,239Z"/><path class="cls-1" d="M186.15,265.84c-11.3,2.09-22.61,1.17-33.86,1.68a30.59,30.59,0,0,0-8.76,1.89c-5.35,1.86-7.28,1.07-9.09-4.23-.85-2.52-1.52-3.33-4.41-2.47-4.58,1.35-9.3.39-13.74-1.15s-6.18-7.09-4.29-12.76c1.69-5.11,4.86-6.81,10-5.37a14.61,14.61,0,0,1,2.37.78c3.42,1.7,7.26,5.49,10.13,4.85,12.9-2.87,26.63-1.26,38.92-7.27a17.2,17.2,0,0,0,9.6-11.43,170.23,170.23,0,0,1,8-22.56,43.33,43.33,0,0,1,5.86-10.4c1.16-1.44,3.37-2.67.4-4.52-.32-.19-.4-1.43-.11-1.84,3.73-5.36,3.27-12.6,8.1-17.51,3.18-3.25,4.66-7.64,6.78-11.59,5.05-9.39,12.57-15.75,22.9-18.75,8.17-2.37,15.3.89,22.52,3.85a1.51,1.51,0,0,1,.8.58c4.57,9.1,13.19,16.37,12.81,27.69-.1,3,.32,5.48,2.68,7.61,2.62,2.36,2.49,5.66,2.3,8.86,0,.63-.34,1.77-.57,1.78-6.32.34-3,4.94-3.55,7.82-.15.8-.35,1.93-.91,2.24-4.34,2.43-2.56,5.64-1.31,8.84,6,15.31,3.55,29-7.77,41A10.19,10.19,0,0,0,259,261.7a12.36,12.36,0,0,1-3.39,10.05,9.54,9.54,0,0,0-2.24,9.68c4,14.77,7.65,29.63,11.84,44.35,2.14,7.55,5.53,14.55,12.3,19.37a22,22,0,0,1,6.36,7.62A278,278,0,0,0,298.67,377c3.43,5.08,3.58,11.69,6.87,17,2.16,3.48,3.47,7.61,8.43,8.28a3.77,3.77,0,0,1,2.29,1.82c3.63,6.83,9.39,12.06,13.67,18.38,2.22,3.27,3.28,6.53.06,9.92-3.52,3.72-10.13,5.86-13.49,3.62-2.11-1.41-3.81-1.26-6-.79a12.51,12.51,0,0,1-14-7.06c-1.93-4.53-1.13-7.86,3.2-10,2.2-1.1,1.86-2,1.36-3.78-1.8-6.31-5.32-11.71-8.7-17.22-1.27-2.06-2.23-2.16-4.3-1.16-5.08,2.45-9.95,5.34-15.34,7.19-4.21,1.46-6.55.14-8.15-3.86-6.09-15.15-14-29.38-21.84-43.7-3.8-7-7.07-14.3-10.58-21.47A111.55,111.55,0,0,0,223,318.73c-2.06-2.9-3.61-3.42-6.71-1.48-11.95,7.47-18.46,18.05-18.47,32.16,0,6.6-.63,13-3.19,19a36.22,36.22,0,0,0-2.3,20c.78,5.35.25,10.28-5.9,12.79-3,1.21-2.27,5.12-1.53,6.6,3,5.95,1.25,12.15,1.95,18.17.35,3,.76,5.95.86,8.94.14,4.18-2.67,7.16-6.93,7.69-4.61.57-10.67-2-10.67-5.37,0-7.22-3.17-14-2.43-21.24.33-3.22.91-5.87,3.79-8.19,2.58-2.09,3-5.74.9-8.75-1.39-2-2.47-4.05-2.09-6.45,1.76-11.07-.35-21.92-1.71-32.8-.84-6.77-.38-13.26,2.28-19.59A68,68,0,0,0,176,316.5,99.81,99.81,0,0,1,180.44,291C183,282.87,184.34,274.56,186.15,265.84Z"/><path d="M250,279.43c3.27,12.41,6.7,24.72,9.72,37.12a127.84,127.84,0,0,0,7.49,21.61,16.07,16.07,0,0,0,5.16,6,41.53,41.53,0,0,1,12,15.08c3.18,6.63,7.54,12.53,11.6,18.62,3.71,5.57,3.36,7.67-2.19,11.54-6.71,4.67-14.19,7.94-21.7,11.1-2.49,1.05-4,.35-5-2.21-9.62-24-23.93-45.61-34.43-69.15a43.76,43.76,0,0,0-7.15-11.37c-2.31-2.6-3.09-4.48.94-6.12,1.21-.5,3.85-1.38,2.39-3.4-1.11-1.54-2.59.53-3.81,1.16-2.65,1.38-5.19,3-7.83,4.36-14.93,7.93-22.4,20.36-22.14,37.22a41,41,0,0,1-3,16.57,38,38,0,0,0-2.41,21c1.31,8.46-2.72,11.93-11,10.4-4.11-.76-6.21-2.91-5.56-7.27,1.52-10.2-.26-20.25-1.62-30.3-1-7.22-.77-14.22,2.25-21,3.56-8,4.62-16.62,5.13-25.3.67-11.39,3.75-22.27,7-33.13.56-1.85.77-2.34,2.88-1.36a59,59,0,0,0,37,4.44C233.82,283.43,242.17,282.94,250,279.43Z"/><path d="M265.21,207.22c1,3.28,2,6.58,3.07,9.83,4.32,12.6,1.28,23.69-7.31,33.32A17.35,17.35,0,0,0,256.21,263c.1,5-6.15,14.32-11,15.38-14.27,3.08-28.54,7.19-43.37,3.7a83.65,83.65,0,0,1-10-3.08c-2.51-.93-5.46-2.23-4.49-5.57,1.06-3.69.35-8.81,6-9.76a57.21,57.21,0,0,1,7.9-1c5-.13,7.76-2.59,8.44-7.42,1.3-9.3-.74-18.22-3.17-27.08-.21-.78-.56-1.84-1.55-1.62-1.65.37-1.14,1.79-.89,2.83,1.69,6.95,3.4,13.86,3.21,21.15-.2,8.35-2.13,9.8-9.12,9.64-3.38-.07-6.84,1.24-10.2,2.18-9.28,2.59-18.79,2.34-28.27,2.33-6,0-12,.08-17.69,2.4-.74.3-1.9.83-2.32.52-4-2.93-3.85-7.42-4-11.67-.12-3.45,1.38-5.74,5.3-5.72A107.62,107.62,0,0,0,166.61,247c10.41-2.49,17.48-7.87,20-19a101.5,101.5,0,0,1,9.24-24.17c1.89-3.61,4.29-6.75,7.91-8.77.74-.41,1.62-1.65,2.53-.49.4.51.18,1.54.19,2.34.05,2.74-4.42,5.2-1.74,7.51,2.06,1.76,4.36-2.11,6.94-2.68,4-.9,5.58.29,4.46,4.2-1.65,5.74-1.58,11.92-4.53,17.32-.65,1.19-1.1,2.56.21,3.63,1.53,1.25,2.86.24,4-.71,2.54-2.14,5-4.44,7.5-6.58,1.6-1.35,3.26-2.38,5.13-.18,3.19,3.77,6.73,2.52,9.61-.12,4.6-4.22,8.71-5.24,14.64-1.8,6.49,3.77,11.75-.18,11.77-7.81v-2.4Z"/><path d="M214.67,223.53c2.29-5.46,2.46-10.48,3.75-15.27,2.22-8.23-.45-10.78-9.2-8.57-.53-2.51,1-5.26-.9-7.6s-4.31-2.2-7.18-2.26c3.32-12.75,11.19-22.88,18.09-33.4,4.11-6.26,11-9.47,18.39-11.08,9.58-2.08,19.27,4,23.69,12.53,3.73,7.22,8.44,13.67,7.4,22.41-.23,2,2.44,3.13,3.19,4.86.89,2,4.37,4.91-1.39,6.19-2.88.63-2.09,4-1.71,6.52.24,1.62,2.06,4.65-2.49,3.21-2.26-.72-3.48,1.69-4,3.65a29.84,29.84,0,0,0-.41,5.45c-.29,5.17-3.66,7.69-8,4.93-6.74-4.29-12.09-3-17.44,2-2.18,2.08-4.46,2.63-6.78-.21-2.17-2.66-4.85-1.76-7.13-.08C220.08,218.69,217.8,220.86,214.67,223.53Z"/><path class="cls-2" d="M319.25,434.39c-3.37-4.54-8.37-1.06-12.87-1.72a9.24,9.24,0,0,1-8.05-7.81c-.38-1.89.48-3.14,2.06-4.12s2.37-.5,3,1.09c.2.52.84,1.25,1.54.65a2.37,2.37,0,0,0,.76-1.65,11.17,11.17,0,0,0-.62-2.4c-2.18-8.29-2.16-8.3,3.95-13.36,2.38-2,4.44-.62,5.45,1.22,3.33,6.06,8.24,10.85,12.26,16.33,1.46,2,3.86,4.28,1.84,7.14S323.42,433.87,319.25,434.39Z"/><path class="cls-3" d="M171.41,411.39c2.92,2.77,6.13.62,8.9.3,3.38-.39,3.77.93,3.7,3.34a110.59,110.59,0,0,0,1,19.33c.47,3.17-1.25,5.18-4.35,5.49s-7.7-.13-7.82-3.49c-.28-7.75-4.07-15.18-2-23.07C170.93,412.66,171.19,412.06,171.41,411.39Z"/><path class="cls-3" d="M126.21,260.67c-2.07-.28-4.07-.44-6-.83-6-1.2-8.28-7.66-4.43-12.53a3.49,3.49,0,0,1,3.38-1.68,29.51,29.51,0,0,1,13.05,5.93c2.16,1.61,1,4.62.42,6.5C131.75,260.79,128.47,260.09,126.21,260.67Z"/><path class="cls-4" d="M307.51,402.19c-1.51,1.79-2,5.08-4.45,4.78-3.44-.41-4.74-4.26-5.4-6.93-.47-1.88,3.4-3.25,5.17-3.24C305.42,396.81,305.62,400.32,307.51,402.19Z"/><path class="cls-5" d="M182,405.42c.44,2.9-.94,4.1-3.61,4-2.18-.07-3.72-1-2.77-3.37.66-1.65-1.28-5.18,3.23-4.45C181.49,402.05,183,402.59,182,405.42Z"/><path class="cls-6" d="M299.57,388.22c.39,2.27,4.68,4.16.73,6.46-1.62.95-4,4-5.78.74C291.85,390.39,298.75,391.38,299.57,388.22Z"/><path class="cls-7" d="M86,315.16c3.92,0,7.68-3.45,7.5-7.5a7.63,7.63,0,0,0-7.5-7.5c-3.92,0-7.68,3.45-7.5,7.5a7.62,7.62,0,0,0,7.5,7.5Z"/><path class="cls-7" d="M85.17,284.67a1.5,1.5,0,0,0,0-3,1.5,1.5,0,0,0,0,3Z"/><path class="cls-7" d="M114.74,311.7a1.5,1.5,0,0,0,0-3,1.5,1.5,0,0,0,0,3Z"/><path class="cls-7" d="M89.4,337a1.5,1.5,0,0,0,0-3,1.5,1.5,0,0,0,0,3Z"/><path class="cls-7" d="M59,311.7a1.5,1.5,0,0,0,0-3,1.5,1.5,0,0,0,0,3Z"/><path class="cls-7" d="M85.05,263.77a1.5,1.5,0,0,0,0-3,1.5,1.5,0,0,0,0,3Z"/><path class="cls-7" d="M138.26,311.92a1.5,1.5,0,0,0,0-3,1.5,1.5,0,0,0,0,3Z"/><path class="cls-7" d="M91,366a1.5,1.5,0,0,0,0-3,1.5,1.5,0,0,0,0,3Z"/><path class="cls-7" d="M27.61,311.92a1.5,1.5,0,0,0,0-3,1.5,1.5,0,0,0,0,3Z"/><path class="cls-7" d="M61.4,290a1.5,1.5,0,0,0,0-3,1.5,1.5,0,0,0,0,3Z"/><path class="cls-7" d="M108.7,290.8a1.5,1.5,0,0,0,0-3,1.5,1.5,0,0,0,0,3Z"/><path class="cls-7" d="M115.46,335.57a1.5,1.5,0,0,0,0-3,1.5,1.5,0,0,0,0,3Z"/><path class="cls-7" d="M63.09,339.79a1.5,1.5,0,0,0,0-3,1.5,1.5,0,0,0,0,3Z"/></svg>