<svg id="Layer_1" data-name="Layer 1" xmlns="http://www.w3.org/2000/svg" viewBox="0 0 480 480"><defs><style>.cls-1{fill:#fbfafa;}.cls-2{fill:#010101;}.cls-3{fill:#020202;}.cls-4{fill:#040404;}.cls-5{fill:#0a0a0a;}.cls-6{fill:#b8b6b6;}</style></defs><path d="M479.91,240q0,117.92.09,235.83c0,3.27-.44,4.18-4,4.18q-235.86-.18-471.71,0C.53,480,0,479.05,0,475.59Q.15,240,0,4.43C0,1,.46,0,4.26,0Q240.12.2,476,0c3.53,0,4,.84,4,4.15Q479.84,122.07,479.91,240Z"/><path class="cls-1" d="M277.26,378.45c-8.37,5.6-8.83,13.88-8.28,22.54a16.88,16.88,0,0,1-1,7.87c-1.42,3.27-3.08,6.7-7.17,6.77-4.41.07-7.46-2.54-9.17-6.55a20.66,20.66,0,0,1-1.21-11.76,54.52,54.52,0,0,1,1.44-6.83c1.59-5.22,4-10-.51-15.49-2.49-3-1.48-8-.79-12.18a59.21,59.21,0,0,0-5.24-35.88c-8.48-18.05-10.92-36.92-4.67-56.31,1-3-.32-3.33-2.74-3.46a37.41,37.41,0,0,1-13.55-3.11c-3.25-1.46-5.27-3.6-5.82-7.4-1.31-9-5.42-17.56-3.86-27a3.89,3.89,0,0,0-1.1-3.22c-6-6.57-8.55-14.94-12.24-22.74-1.92-4.05-4.07-8-6.24-11.91-3.8-6.84-3.14-10.73,3.24-15.43s13.81-8,21.31-10.75c5-1.8,8-4.74,9.74-9.71,1.53-4.49,4.82-5.59,9.68-4,4.47,1.43,5.44,4.39,4.14,8.58-1.22,4-2.77,7.37-7.54,8.25-4.19.78-5,5.51-8.08,7.79-3.7,2.71-7,6-10.63,9.3,4.81,3.39,9.88,3.55,15.06,3.28,1.56-.08,2.26-1,2.9-2.27,3-6.28,6.7-12.21,9-18.86,5-14.28,22.13-16.9,30.88-11.63,1.54.93,3.41,2.05,4.07,3.54,3.16,7.23,7.45,14,8,22.29.49,6.86,3.62,13.38,3.67,20.42,0,1.44,1.11,2.32,3.14,2.53.72-3.75.17-7.43-.18-11.13-.61-6.45-1.41-12.92,1.87-19.05,1.83-3.43,4.3-5.53,8.3-5.12s7.37,2.24,9.27,5.91c1.43,2.78.18,5.45-1.87,7.22-6.63,5.75-6.92,12.63-5.75,20.82a231.19,231.19,0,0,0,4.42,23.94c2.91,11.55-.17,17.1-11.28,21.25-2.22.83-3.55,1.4-3.17,4.37.44,3.33-2.57,4.69-5.43,6,2.22,2.76,4.51,5.32,6.49,8.1a39.91,39.91,0,0,1,6.78,16.44c2.83,16.1,5.06,32.2,3.88,48.64a73.52,73.52,0,0,0,2.42,22.76c1.62,6.6.35,12.5-4.6,16.92-4.18,3.73-6.18,9-10.31,12.69-1.83,1.62.1,3.13.69,4.41,1.85,4,3.49,7.91,1.81,12.44-1.47,4-4.19,6.47-8.42,6.72-3.9.22-5.25-3-6.56-5.88-3.12-7-6.94-13.82-4-21.91a2.53,2.53,0,0,0-.21-1.45C277.82,379,277.52,378.75,277.26,378.45Z"/><path d="M304.53,325.74A97.77,97.77,0,0,0,306.88,356c1.2,5.05.44,9.58-3.12,13.5-3.23,3.56-6.87,6.78-8.91,11.3a2.56,2.56,0,0,1-3.26,1.63c-3.29-1.16-6.62-2.25-9.83-3.6-2.51-1.05-2.41-3.36-2-5.57,1.25-6.69,2.86-13.29,2.86-20.18,0-6.72-.29-13.32-2.7-19.67a64.4,64.4,0,0,1-4.08-24.47c0-2,.94-5.59-1.3-5.7-2.43-.11-2.18,3.61-2.2,5.63-.09,12,.26,24,4.73,35.41,4.16,10.64,2.39,21-2.18,31-2.76,6-6.05,8.33-10.37,7.6-6.1-1-11.14-6.17-11.45-12.13a48.77,48.77,0,0,1,.44-10,54.64,54.64,0,0,0-4.93-33c-7.19-14.73-10.05-30.24-7.78-46.57.06-.5.12-1,.2-1.49,2-11.58,2-11.39,13.71-11.66,10.49-.24,21.06-.62,30.34-6.55,1.89-1.21,2.72,0,3.73,1,5.71,6,10.32,12.67,11.54,21.11C302.33,297.59,306,311.41,304.53,325.74Z"/><path d="M220.59,168.12c.29,2.63-.41,5.27,1.88,7.08.94.74.38,1.38-.28,2q-1.65,1.52-3.21,3.11c-1.82,1.84-5.15,3.12-4.6,6,.64,3.39,4.43,3.56,7.15,4.61,1.07.41,2.4.29,3.37.85,2.85,1.65,8-3.32,9.23,3.75.64,3.77,3.57,7.12,1.8,11.37a5,5,0,0,0-.1,2.93c.7,3,11.39,9.79,14.34,9.24,8-1.49,12.91-6.92,13.79-15.13.82-7.64,4.9-9.67,12.38-5.76,4.54,2.38,8.69,5.49,13.16,8,2.62,1.48,1.87,2.38.34,4.31-8.69,11-8.19,25.46-3.43,36.87a5.49,5.49,0,0,0,4,3.51c1.2.24,2.36.29,2.41,1.89a3.26,3.26,0,0,1-2.12,3.09c-9.34,4.82-18.81,9-29.65,9.21-10.49.17-20.95.28-31.27-2-5.14-1.15-8.13-3.57-9.09-9.49-1.35-8.32-4.34-16.37-3.45-25a4.66,4.66,0,0,0-1-3.23c-6.59-7.19-9.21-16.45-13.32-25-1.73-3.58-3.8-7-5.7-10.5-2.7-5-2.26-7.54,2.48-11.07C206,174.14,213.19,171.19,220.59,168.12Z"/><path d="M238.31,206.61c1.53-3.83.45-7.67-1.1-11.69-1.31-3.41-.12-7,1.72-10,3.17-5.29,5.47-11,7.87-16.61,3.16-7.43,9.27-11.53,16-11.31a9.81,9.81,0,0,1,5.17,1.54c1.63,1,2.35,2.06.59,3.8-5,4.88-5.71,10.94-4.78,17.52.56,3.94.69,7.94,1,11.91a7.09,7.09,0,0,1-1.38,5.16,10.64,10.64,0,0,0-2.23,7.92c.64,6.51-4.72,7.92-8.92,10.49-3.6,2.2-5.87.61-8.14-1.95C242.25,211.21,237.7,211.46,238.31,206.61Z"/><path class="cls-2" d="M291.7,212.19c2.51,7.91,4.42,9,10.89,6.28,1.78-.75,1.91-.16,2.25,1.13.83,3.2,1.77,6.38,2.54,9.6,2.09,8.69-.44,13.57-8.67,16.82-1.69.67-3.46,1.14-5.16,1.81-2.57,1-4.27,0-5.09-2.37C284.54,234.12,284.42,223.11,291.7,212.19Z"/><path class="cls-3" d="M272.89,158.53a9.62,9.62,0,0,1,5.52,5.91c2.41,6.85,4.5,13.73,1.82,21.05a11.41,11.41,0,0,0-.34,2.95c-.25,2.77,1.07,6.46-3.78,6.52s-8.28-2.5-8.77-6.65c-.44-3.79-.76-7.6-1.12-11.4a15.14,15.14,0,0,1,3.69-12C271.43,163.18,273.16,161.53,272.89,158.53Z"/><path class="cls-3" d="M295.1,212.16c3.58-8.84.52-18.47.66-28a17.19,17.19,0,0,1,1.79-7.18c2.6-5.54,8.53-6.06,12.33-1.18,1.65,2.12.83,4-.7,5.26-7.54,6.44-8.41,14.45-6.32,23.52a16.12,16.12,0,0,1-.42,9.82c-.85,2-2.45,3.28-4.72,2.71C295.63,216.56,295.08,214.78,295.1,212.16Z"/><path class="cls-2" d="M252.94,401.16c-.21-3.38.73-6.61,1.48-9.83,2-8.52,4-9.35,11.73-5.56,1.69.83,1,1.94.78,2.89-1,4.6-.81,9.24-.75,13.89.06,5.82-2.52,10.32-5.72,10.41-3.83.12-7.18-4.47-7.51-10.3C252.93,402.16,253,401.66,252.94,401.16Z"/><path class="cls-3" d="M295.07,397.57a8.77,8.77,0,0,1-2.4,6.34c-2.89,2.89-6,2.59-7.43-1.2-2.06-5.33-5.86-10.11-5.38-16.33.26-3.35.84-5.14,4.93-3.45C290.09,385.12,295.08,391.69,295.07,397.57Z"/><path class="cls-4" d="M235.87,153.92c2.2.48,4.72.52,5,2.88.39,3-.44,6.49-3.27,7.81-4,1.86-7.44,4.06-10.06,7.6a2.35,2.35,0,0,1-3.09.85,2.1,2.1,0,0,1-.46-2.73c2.8-5.39,6.88-10,9.4-15.6C233.67,154.15,235.17,154.13,235.87,153.92Z"/><path class="cls-5" d="M283.62,184.3c2.37,5.51,4.61,10.56,3.34,16.39-1.29.25-2-.82-3-1.32-2.21-1.12-4.43-2-2-5.27C283.79,191.48,281.8,187.72,283.62,184.3Z"/><path class="cls-6" d="M276.53,332.84c2.39,2.32,2.46,5.43,2.94,8.42C277.07,339,276.93,335.87,276.53,332.84Z"/></svg>