<svg id="Layer_1" data-name="Layer 1" xmlns="http://www.w3.org/2000/svg" viewBox="0 0 480 480"><defs><style>.cls-1{fill:#fcfafa;}.cls-2{fill:#010101;}.cls-3{fill:#020101;}.cls-4{fill:#050505;}.cls-5{fill:#020202;}.cls-6{fill:#0b0b0b;}.cls-7{fill:#0a0a0a;}.cls-8{fill:#181818;}.cls-9{fill:#161616;}.cls-10{fill:#757474;}.cls-11{stroke:#fff;stroke-linecap:round;stroke-miterlimit:10;stroke-width:3px;}.cls-12{fill:#fff;}</style></defs><path d="M479.91,240q0,117.92.09,235.83c0,3.26-.44,4.18-4,4.18q-235.86-.18-471.71,0C.54,480,0,479.06,0,475.6Q.15,240,0,4.43C0,1,.45,0,4.26,0Q240.11.2,476,0c3.53,0,4,.84,4,4.15Q479.84,122.07,479.91,240Z"/><path class="cls-1" d="M241.08,155.75c7.14-12.71,18.46-15.82,31.32-14.51,8.5.87,14.71,7,18.49,13.75,2.64,4.71,1.82,11.46,2.08,17.32.09,2.16.23,3.49,2.19,4.88,10.31,7.27,12.1,18.67,13.51,29.92.59,4.76-3.14,8-10.14,9-4.49.62-6.18,3.1-7.4,6.69A24.54,24.54,0,0,0,290,234.12c1.25,9.77,1.21,9.78-7.19,14.38,5.91,5.94,11.54,11.95,14.68,19.93,3.91,9.92,4.34,19.59.23,29.59-4.88,11.85-9.25,23.83-9.21,37,0,6.48-2.11,12.78-3.91,19a21.41,21.41,0,0,0,.42,13.72c1,2.63,1.26,5.34,5.56,5.43,3.66.08,12.62,13.94,12.43,17.8-.18,3.59-2.68,5.51-5.71,6-4.45.67-4.35,2.84-3.08,6.15a83.63,83.63,0,0,0,6.66,13.36c3.53,5.83,2.26,10.36-3.93,12.88-4,1.62-5.65,5-7.76,8.1-3.81,5.52-8.3,10-15.07,11.52-4.45,1-9.24,1.82-12.31-2.65s-1-8.66,1.52-12.54c2.92-4.45,6.14-8.7,9.07-13.13a21.89,21.89,0,0,0,3.69-9.41c-1.9.64-3.36,1.28-4.9,1.63s-4.15.73-4.72-.53c-2.26-5-7.46-5-11.23-7.4-2.89-1.83-3.47-5.23-3.94-8.34a32.27,32.27,0,0,0-4.74-12c-8.94-14.75-15-30.33-14.58-48,.13-5.12-.92-10.26-1.43-15.39-.22-2.15-.83-4.34-.63-6.45,1.55-16.2,3.22-32.39,4.92-48.57.55-5.25,4.64-9.09,5.72-14.23.74-3.5,0-5.93-3.12-7.31-11.14-4.89-11.94-14-10.21-24.28A15,15,0,0,1,228,217c5.31-12.58,3.05-24.49-2.32-36.54-6.36-14.26-7.29-28.9-.86-43.59a20.84,20.84,0,0,0,1.28-6.32c.18-1.95.72-3.85,2.28-4.79,5.16-3.09,5.2-7.89,3.89-12.58-2.35-8.43,1.27-14.13,7.47-19,3.49-2.74,6.49-1.78,7.21,2.59a28.49,28.49,0,0,1-1.76,15.66C239.49,126.43,241,141.14,241.08,155.75Z"/><path d="M243.84,374c-5.8-11.27-9.19-22.57-9-34.83a48.73,48.73,0,0,0-.47-8.46c-2-12.6-2.24-25.06.41-37.69,1.52-7.26,1.26-14.89,1.95-22.34a28.15,28.15,0,0,1,1.44-6.31c2.46-7.24,3.49-7.9,10.85-7.37a60.4,60.4,0,0,0,28.76-4.84c2.6-1.13,4-.81,5.93,1.16,12.78,13.16,18.38,27.78,10.64,45.78-4.94,11.5-8.57,23.37-8.62,36.15,0,5.81-1.78,11.49-3.56,17-2.57,8-1.06,15.46,3,22.54,2.8,4.9,6.07,9.55,8.66,14.55,2.17,4.18.76,7.06-3.84,7.4-8.48.62-16.08,4-23.93,6.62-7.28,2.43-10.65.51-12-7.06a37.81,37.81,0,0,0-4.74-12.5c-2.43-4.13-2.66-9.05-1.95-13.5,3-19.08,4.82-38.27,6.67-57.47a43.72,43.72,0,0,1,1.48-6.31c.28-1.1.18-2.14-1-2.36-.92-.17-1.38.78-1.56,1.61-.73,3.24-1.82,6.47-2,9.75C249.6,335,247.05,354.2,243.84,374Z"/><path d="M238.47,132c-.27,5-.2,9.49-.82,13.89-1,7.39,2.49,14,3.25,21a20.71,20.71,0,0,1-1.14,10.28,16.46,16.46,0,0,0,.39,13.58,36.85,36.85,0,0,1,2.51,8.56c.58,2.87,2.35,3.93,5.14,2.78a65.84,65.84,0,0,0,7.23-3.2c9.55-5.32,19.77-3.12,26.07,5.78,2.68,3.78,4.81,8,9.09,10.42,1.55.86.76,1.83.17,2.89-3.69,6.6-4.14,13.59-2.25,20.79.61,2.31.49,3.78-2.08,5.15-11.46,6.1-23.33,7.15-35.83,4.19C243.29,246.46,238,242,232.65,238c-3.59-2.69-3.53-7.28-3.33-11.54.31-6.71,2.3-13.1,4-19.52a25.89,25.89,0,0,0-1-16.1c-3.39-9.17-7.14-18.23-8.77-28-1.67-10.07,2.09-19,4.79-28.21.46-1.56,1.6-1.36,2.79-1.28C233.42,133.48,235.66,132.86,238.47,132Z"/><path d="M271.55,446.82c-7.64.1-10.06-3.29-7.43-8.65a58.61,58.61,0,0,1,6.33-9.53,46.86,46.86,0,0,0,9.18-19.19c.42-2.06.71-3.31,3.32-2.77a5.75,5.75,0,0,0,4.3-.81c4.29-3.45,5-.28,6.41,2.85a100.87,100.87,0,0,0,5.48,10c2,3.35.9,6.38-2.17,7.48-5.27,1.88-7.7,6.17-10.45,10.24C282.46,442.49,277.25,446.38,271.55,446.82Z"/><path class="cls-2" d="M280.36,175.82c12.84.79,19.14,5.81,22.71,18,.84,2.87,1.73,5.73,2.41,8.63.72,3.09,1.66,6.55-1.62,8.64-3.66,2.34-7.7,4.2-12.15,1.68-5.63-3.2-7.39-9.71-11.8-14-.62-.6.18-1.17.42-1.75,2.87-6.86,2.27-11-2.71-15.62-1.31-1.23-1.67-1.93-1-3.69C277.47,175.66,278.71,175.44,280.36,175.82Z"/><path class="cls-2" d="M245.75,200.07a45.91,45.91,0,0,0-3.66-11.78,13.43,13.43,0,0,1,.34-10.67,18.75,18.75,0,0,0,1.38-9.24c-1.42-14.69,6.13-23.38,21.55-24.44-.17,2.62-2.17,4-3.57,5.57-8.48,9.6-9.4,16.72-3.89,28,1.82,3.73,2.79,7.43-.27,11.54C253.66,194.4,252.08,196.49,245.75,200.07Z"/><path class="cls-2" d="M262.3,183c-.3-3.17-.92-5.85-2.61-7.93-5.67-7-2.12-18.22,5.63-25.41,2.1-2,3.4.07,4.64,1.08,6.56,5.34,8.56,19.91,3.86,26.89a2.56,2.56,0,0,1-2.39,1.41C268.08,179,265.36,180.5,262.3,183Z"/><path class="cls-3" d="M279.8,172.84c0-10-1.71-18.69-9.49-25.25-.92-.78-2.82-1.05-1.95-2.86.73-1.52,2.32-.93,3.57-.89a11.81,11.81,0,0,1,7.58,3.33c2,1.74,4.07,3.39,6.08,5.11.88.75,2.28,1.53,2.39,2.43.74,6.08,2.32,12.07,2.2,18.25,0,1.73-1.11,1.59-2.41,1.31C285,173.69,282.24,173.27,279.8,172.84Z"/><path class="cls-4" d="M230.84,130.77c5.36-7.72,5-15.29,3.47-23.09-.62-3.28,4.73-10.72,7.82-11.89,2.3-.86,2.1,1.09,2.26,2.16a23.14,23.14,0,0,1-1.61,13.14c-1.92,4.28-3.51,8.73-3.62,13.35C239,129.56,236,130.16,230.84,130.77Z"/><path class="cls-5" d="M279.33,190.37c0,5.34-1.48,6.42-5.82,4.87-3.76-1.35-7.44-2.86-11.54-1.47-.93.32-2.08.48-2.72-.47-.81-1.21.11-2.24.81-3.11q2.18-2.7,4.54-5.24c2.59-2.76,5.68-4,9.38-2.5A8.29,8.29,0,0,1,279.33,190.37Z"/><path class="cls-6" d="M277.26,404.47c.27,3.69-2.53,4-4.44,5-1.76.95-3.77,1.46-5.65.14a1.61,1.61,0,0,1-.59-1.3,4,4,0,0,1,3.31-3.32c2.33-.55,4.25-2.69,6.89-1.89C277.14,403.25,277.2,404.3,277.26,404.47Z"/><path class="cls-7" d="M262.85,253.82a75.34,75.34,0,0,1-14.4.32,12.42,12.42,0,0,1-3.83-.87,2.23,2.23,0,0,1-1.1-3c.56-1.91,1.69-.88,2.72-.57a55.75,55.75,0,0,0,12.67,2.42C260,253.28,262.38,251.27,262.85,253.82Z"/><path class="cls-8" d="M291.28,379c7.15,3.68,10.37,10.9,6.6,15.07C297.05,388.26,294.17,383.66,291.28,379Z"/><path class="cls-9" d="M290.61,400.08c-2.76,3.09-5.42,4.58-9,3.72a2.79,2.79,0,0,1-1.79-1.47c-.27-.95.69-1.29,1.54-1.46C284.18,400.29,287,399.54,290.61,400.08Z"/><path class="cls-10" d="M262.85,253.82l-3.94-1.66h8.3A3.83,3.83,0,0,1,262.85,253.82Z"/><path class="cls-11" d="M276.5,119.5s15,1,21,11"/><path class="cls-12" d="M306.92,146.26a1.5,1.5,0,0,0,0-3,1.5,1.5,0,0,0,0,3Z"/></svg>