<svg id="Layer_1" data-name="Layer 1" xmlns="http://www.w3.org/2000/svg" viewBox="0 0 480 480"><defs><style>.cls-1{fill:#fcfafa;}.cls-2{fill:#555353;}.cls-3{fill:#010101;}.cls-4{fill:#020202;}.cls-5{fill:#020101;}.cls-6{fill:#040404;}.cls-7{fill:#070707;}.cls-8{fill:#080808;}.cls-9{fill:#141414;}</style></defs><path d="M479.91,240q0,117.92.09,235.83c0,3.26-.44,4.18-4,4.18q-235.86-.18-471.71,0C.54,480,0,479.06,0,475.6Q.15,240,0,4.43C0,1,.45,0,4.26,0Q240.11.2,476,0c3.53,0,4,.84,4,4.15Q479.84,122.07,479.91,240Z"/><path class="cls-1" d="M276,412.94c-1.64,4.58-5.27,5.17-9.35,4.4-4.33-.82-7.26-3.22-7.67-7.93a48.4,48.4,0,0,1,1.19-13.88c1.06-5.27.36-9-4.62-13.19-8-6.66-13.55-15.83-12.84-27,1.47-23.27-2.2-46.18-4.32-69.2-.81-8.77,1.34-16.83,4.61-24.74,1.29-3.13,1.36-4.86-2.82-5.8-7.88-1.79-11.63-7.71-13.16-15.3-1.57-7.76-.85-15.6-.78-23.41a28.39,28.39,0,0,0-3.55-13.8c-5-9.54-10.84-18.69-14.07-29.15-2.64-8.54-1.72-16.5,3.12-23.86,3.43-5.22,6.48-10.64,11.6-14.78,3.58-2.89,5-7.8,4.29-12.75-.64-4.31-1.21-8.29,4.45-10,2-.58,1.93-3.33,2.71-5.13,1-2.27,2.3-4.37,5-4s3.58,2.8,3.93,5.19a21.48,21.48,0,0,1-2.37,13.08c-4.93,9.6-6.92,20.4-12.83,29.67-3.89,6.11-1.63,13.69,4.36,18.8,2.38,2,5,3.72,8.21,6-1.21-10.38,5-17.34,9.45-24.87,3.38-5.71,8.39-8.44,15.65-6.63a37.21,37.21,0,0,1,14.34,6.54c.92.72,2.13,1.44,2.48,2.42,3.38,9.33,8,18.4,8.16,28.54,0,3.92.09,6.22,4.52,7.65,8.59,2.77,13.63,10.68,13.22,19.61a34.74,34.74,0,0,1-5.9,17.79c-1.12,1.69-2.38,3.21-4.59,3.52-4,.55-5.09,3.16-4.5,6.75.47,2.79,1.19,5.54,1.64,8.33s.64,6-1.74,7.37c-3,1.72-1.49,3-.46,4.47,12.7,18.76,14.09,39,7.82,60.19-4,13.67-7.11,27.37-4.28,41.76a18.19,18.19,0,0,1-2.26,12.58c-3.55,6.22-2.59,12.39-.53,18.67,1.5,4.57,3.37,9,4.17,13.83,1.36,8.06-1.74,14.81-6.47,20.8-3.75,4.76-11.91,2.71-13.6-3.26-.85-3-.9-6.24-1.32-9.37-1.45-6.2.44-12.2,1-18.26,0-4.32.35-8.69-1.66-13.46.65,3.37,1.9,6,1.66,8.83C278,397.75,276.23,405.28,276,412.94Z"/><path class="cls-2" d="M278.82,393.85c-.59,6.37-2,12.65-1.88,19.1l-.46-.06-.47.05c-1.06-8.08,1.71-16,1.08-24C280,389.73,277.55,392.45,278.82,393.85Z"/><path d="M268.58,291.53c-1.3-2-2.47-3.77-3.67-5.55-.49-.72-1.16-1.32-2-.72s-.69,1.38-.18,2.17c10.32,15.82,7.66,33.29,5.86,50.43-1.27,12.09-2,23.75,3.32,35.22,2.73,5.94.29,8.95-6.22,9.28-5,.26-8.54-1.44-11.91-5.56-6.66-8.15-9.17-17.15-8.34-27.38,1.58-19.58-1.8-38.87-3.91-58.19-1.23-11.22.93-21.44,4.79-31.66.66-1.77,1.5-2.05,3.3-1.92,12.32.93,24.65,1.11,36.75-1.9,2.66-.66,3.1,1,4.1,2.44,12.13,17.27,14.3,36.16,9,56.19-2.4,9-5.2,17.88-6,27.25-.38,4.68-.74,9.28.32,13.91,1.48,6.44.25,12.53-2.5,18.43s-10.28,7-14.13,2c-4.81-6.27-6.7-13.7-7-21.47-.35-8.19,1.42-16.23,2.21-24.34a96,96,0,0,0-.62-24.89c-1.17-7.11-.66-13.92,2.46-20.46.53-1.1,1.89-2.53-.06-3.3-1.35-.53-1.85,1.06-2.29,2.09C270.69,286.16,269.69,288.75,268.58,291.53Z"/><path d="M263.2,191.76c1.87.72,3.58,2,5.18,1.89,9.55-.79,12.2,6.33,14,13,2.12,7.88,4.45,15.31,10.66,21,.61.55,1.46,1.19.61,2-4.55,4.35-2.1,9.34-1.22,14.08,1.26,6.77,1.17,7.48-5.36,9.05a103.34,103.34,0,0,1-43.59,1c-8.22-1.54-12.62-6.68-13.92-14.85-1.11-7-.67-14-.53-20.93a32.7,32.7,0,0,0-4.14-16.67c-4.87-9-10.27-17.86-13.55-27.74-3.5-10.53,0-19.22,6.16-27.44.66-.87,1.15-1.62,2.27-.57,2.27,2.14,5,1.12,8.07.89-2.37,4.45-4.39,8.79-3.56,13.7a19.54,19.54,0,0,0,7.08,12.26c2.06,1.68,4.09,3.56,6.46,4.66,5.32,2.45,6.28,6.72,4.86,11.54-2,6.71,2.48,11,5.25,15.93a3.12,3.12,0,0,0,4.83.84C257.16,201.6,263.05,198.84,263.2,191.76Z"/><path d="M244.81,192.46c2.09-6.11-.57-12.26-.64-18.44-.12-10.7,6.07-18.93,13.62-26,1.64-1.53,4.06-1.49,6.21-.87,4,1.15,4.55,3.55,1.7,6.56-6.26,6.6-9.29,14.11-6.38,23.22,1.66,5.22,1.1,10.55.79,15.85-.32,5.55-5.69,6.91-8.77,10.17-.48.5-1.39.14-1.67-.51C248.24,199.14,245.37,196.52,244.81,192.46Z"/><path class="cls-3" d="M295.89,407.54c.11,6.24-2.38,10.54-4.93,14.85-1.38,2.32-3.34,3-5.89,2.73-2.76-.32-4-2.1-4.47-4.6a58.71,58.71,0,0,1-.14-20.31c.91-5.22,2.05-10.41,1.41-15.8-.5-4.28,3.66-1.82,5.21-3.3.86-.81,2.35-.89,2.46.92.52,8.09,4.68,15.2,6.13,23A18.23,18.23,0,0,1,295.89,407.54Z"/><path class="cls-4" d="M261.63,406.79c-.13-7.67,3-13.73,1.26-20.15-.39-1.43.79-1.39,1.82-1.58,7.88-1.46,10.51.72,10.06,8.92-.31,5.62-1.8,11.14-1.39,16.85.18,2.52-1.32,4-4,4-3.39,0-6.36-.85-7.42-4.5A12.58,12.58,0,0,1,261.63,406.79Z"/><path class="cls-3" d="M289.92,194.81c8.3,7.16,10.71,16.18,12.27,25.56a6.87,6.87,0,0,1-.9,4.76c-1.76,3-3.31,3.46-6.08.9-6.06-5.58-8.8-12.63-10.15-20.48a1.93,1.93,0,0,1,1.15-2.37C289.21,201.58,290.05,198.82,289.92,194.81Z"/><path class="cls-5" d="M262.55,177.9c-3.54-9.11-.69-16.3,5.53-22.82,2.09-2.19,3.35-1.82,5.05.2,4.37,5.19,4.82,11.66,5.81,17.9.34,2.19-.59,3.49-3.59,2.43C270.86,174,266.25,174.11,262.55,177.9Z"/><path class="cls-5" d="M270.42,177.51c4.65.16,8.48,1.73,10.06,6.53a15.67,15.67,0,0,0,4.18,6.08,7.23,7.23,0,0,1,2.48,5.2c0,2.27,0,4.69-2.42,5.46s-2.19-2-3-3.2c-3-4.16-6.44-6.69-12-6.56-6.61.16-4.27-5.13-4.59-8.75C264.77,178.24,267.19,177.49,270.42,177.51Z"/><path class="cls-6" d="M241.16,111.87a25.83,25.83,0,0,1-2.91,10.47,118.29,118.29,0,0,0-6.35,16.2c-.56,1.81-1.25,3.51-3.08,4.3-2.26,1-5.24,2.66-6.88.53s1.27-3.79,2.8-5.44c4-4.28,6.27-9.26,5.58-15.3-.37-3.25-1.39-6.66,3.46-7.82,1.58-.37,2-2.49,2.71-4,.8-1.67.71-4.85,3.16-4.3C241.64,107,241.12,109.89,241.16,111.87Z"/><path class="cls-7" d="M270.77,150.25c6.58.22,12.2,5.14,12.84,11.47a27.68,27.68,0,0,0,4.29,13.06c1.71,2.55,1.13,5.45.69,8.24a30.24,30.24,0,0,0-.1,6.53c-4.45-4.29-8.6-8.44-6.89-15.67C283.28,166.8,277.55,154.46,270.77,150.25Z"/><path class="cls-8" d="M304.61,216.15c-1.73-4.85-3.13-9.25-4.88-13.5s-5.27-7-8.15-10.56C300.71,191.3,310.07,204.54,304.61,216.15Z"/><path class="cls-9" d="M278.82,393.85c-1.38-1.36-.17-3.64-1.73-4.94-.56-3.32-3.29-6.23-1.69-10.5C280.4,383,279.52,388.43,278.82,393.85Z"/></svg>