<svg id="Layer_1" data-name="Layer 1" xmlns="http://www.w3.org/2000/svg" viewBox="0 0 480 480"><defs><style>.cls-1{fill:#fbfafa;}.cls-2{fill:#010101;}.cls-3{fill:#030303;}.cls-4{fill:#040404;}.cls-5{fill:#323131;}.cls-6{fill:#848282;}.cls-7{stroke:#fff;stroke-linecap:round;stroke-miterlimit:10;stroke-width:3px;}</style></defs><path d="M479.91,240q0,117.92.09,235.83c0,3.26-.43,4.18-4,4.18q-235.86-.18-471.71,0C.55,480,0,479.07,0,475.6Q.15,240,0,4.44C0,1,.44,0,4.26,0Q240.11.2,476,0c3.52,0,4,.83,4,4.15Q479.84,122.07,479.91,240Z"/><path class="cls-1" d="M242.43,165.26c-.15-12.2,6.06-20,16.77-24.61,5.47-2.35,11.17-2.61,16.24.78,8.23,5.48,14.95,12.14,15,23.08,0,4.28,2.89,8.18,1.67,12.72-.42,1.57,1.43,1.45,2.42,1.87,8.78,3.78,14.84,10.71,15.61,19.76s-3.32,17.22-11.83,22.17c-4.11,2.39-5.13,6.29-5.2,10.58a33.72,33.72,0,0,0,.73,4.93c1,7.2,0,8.72-7.29,10.58,3,3.24,6.07,6.17,8.45,9.74,8.42,12.66,10.57,26,4.5,40.26a166.18,166.18,0,0,0-7.37,20.14c-2.55,9.07-3.82,18.22-1.36,27.58a14,14,0,0,1-.69,9.3c-2.64,6-2.68,12.31-1.75,18.64.63,4.3,1.59,8.59-.45,12.74-.93,1.89.51,2.82,1.42,3.85,5.1,5.85,6.12,12.38,3.39,19.55a43.46,43.46,0,0,0-2.6,13.65c-.41,8.44-5.27,14.51-12.83,16.48-5.21,1.36-8.81-.61-10.39-5.74s-.7-9.92.76-14.74c.64-2.11.4-3.33-1.78-4.29-4.87-2.14-6.69-6.12-6.46-11.3.21-4.65-.6-8.83-5.48-11.15a5.3,5.3,0,0,1-2.73-4.56c-.27-5.18-3-8.52-6.63-12.14-7.86-7.9-9.36-18.51-7.94-28.86a121.69,121.69,0,0,0-1.09-42.08A78.78,78.78,0,0,1,238,262.27a66.28,66.28,0,0,0,1.95-7.22c1-4.57,1.18-8.28-4-11.34-8.4-5-11-13.9-9.3-22.67,3.08-16-.51-29.89-7.8-44a42.9,42.9,0,0,1-1.63-36.81,38.92,38.92,0,0,0,2-7.7c.71-4,1.72-7,5.86-9.46,6.11-3.66,5.86-10.35,4.08-16.61-1.54-5.44-.84-10.21,3.21-14.28,1.89-1.9,3.92-4,6.9-3s3.47,4,3.4,6.67a91,91,0,0,1-4.8,28.34c-3,8.59-5.09,17.55-4.23,26.84C234.28,158.05,235.88,160.6,242.43,165.26Z"/><path d="M263.9,290.87c-1.32-.08-1.36-1.35-2.09-1.91s-1.58-1.4-2.52-.34c-.73.82-.13,1.53.45,2.15,2.8,3,2.11,6.64,2.38,10.3,1,13.81-1.12,27.14-4.52,40.47s0,26,5,38.42c.5,1.23,1.72,2.65,1.42,3.63-.65,2.14,5,4.51-.19,6.17-6.38,2-9.19.77-10.18-4.49-.87-4.64-2.06-8.63-6.63-11.54s-5.71-8.37-6.93-13.43c-1.83-7.63-1-15.23.23-22.82a66,66,0,0,0-.87-26.25,97.47,97.47,0,0,1,3-55.08c.61-1.76,1.13-2.32,3.08-1.9,12.17,2.66,23.84.54,35-4.39,2.44-1.07,3.88-.65,5.69.95a39.62,39.62,0,0,1,10.65,45.47c-3.79,9.23-7.46,18.5-9.23,28.4a47.07,47.07,0,0,0,.27,19.81,13.55,13.55,0,0,1-.41,8.8c-2.67,6.33-3,12.9-1.88,19.6a56.79,56.79,0,0,1,.71,5.95c.32,6.06-2.61,9.49-9.23,11-5.72,1.28-7.07.29-10-6.05-7.8-16.89-10.67-34-4.52-52.24,2.67-7.92,2.87-16.35,2.25-24.73a34.19,34.19,0,0,1,2.38-16.63c.56-1.26,2.16-3.15.54-3.95-2.24-1.1-2.18,1.69-3,2.92A16.71,16.71,0,0,0,263.9,290.87Z"/><path d="M222.3,131.61c3.38,1.83,6.85.64,10.59.57a72.93,72.93,0,0,0-2.18,17c0,6.38,1.7,12,6.87,15.85,5.39,4,6.12,8.83,4.06,14.81s-.89,11.42,4.3,15.67c2.53,2.08,4.93,2.56,7.63.47,2.93-2.26,7.52-2.3,9-7.36,1.78,3.9,4.46,5.14,8.17,5a9.51,9.51,0,0,1,9.82,10c-.22,4,.81,7.49,1.83,11.19,1.41,5.11,4.09,8.59,9.72,9.47-2.63,4.58-1.52,9-.84,13.44.61,4-.32,6.56-5.07,6.25-3.09-.2-5.8,1.22-8.57,2.38-15.22,6.35-29.26,4.25-42-6.15A17.38,17.38,0,0,1,229.77,230a30.19,30.19,0,0,1-.2-13.4c3-12.53.58-24-5.76-34.93a51.28,51.28,0,0,1-6.3-18.29c-1-6.87-1-13.59,1.58-20.15A56.82,56.82,0,0,0,222.3,131.61Z"/><path d="M279.57,194.33c6.07-1.79,10.3-4.82,9.6-11.63-.24-2.33,1.16-1.8,2.47-1.6,9.64,1.47,18.05,15.54,14.92,24.71-2.25,6.59-6,11.68-12.54,14.59-3.22,1.43-5.78.57-7.19-2.17-1.88-3.65-3.83-7.55-3.6-11.75C283.47,202,282.74,198,279.57,194.33Z"/><path class="cls-2" d="M268.84,427.08c.29-5.22,2.08-10.24,3.59-15.33,1.33-4.45,3.2-8.84,3.7-13.39.44-4,1.62-5.76,5.49-7.47,4.07-1.81,5.47-.32,7.28,2.44,2.54,3.85,3.46,8.07,1.92,12.36a65.11,65.11,0,0,0-3.59,18,12.6,12.6,0,0,1-5.5,10.16c-2.88,1.93-6,4.26-9.61,2.29C268.74,434.27,269,430.57,268.84,427.08Z"/><path class="cls-2" d="M243.41,184.17c2.85-7.17,1.33-15.75,2.18-24.11s9.81-16.87,17.92-18c1.08-.14,2.45-.68,3.06.73.48,1.12-.52,1.9-1.27,2.45-12.66,9.35-12.44,21-6.71,34.11,3.49,8,.45,13.12-7.86,15C247.84,195.1,243.51,189.64,243.41,184.17Z"/><path class="cls-2" d="M257.31,164.21c-.5-8.11,5.06-12.57,10.26-17.27,1.07-1,1.81-.34,2.52.31,2.82,2.58,5.82,5.09,5.74,9.41-.05,2.25.92,4.18,1.64,6.2,1.11,3.15.31,6.13-.54,9.22-1.11,4-3.85,3.48-6.81,3.08a4.13,4.13,0,0,0-2.3.8c-4.05,2.34-7,1.36-8.71-3a27.62,27.62,0,0,1-1.18-4.3C257.63,167.18,257.51,165.69,257.31,164.21Z"/><path class="cls-3" d="M240,99.37c-1.16,8.65-1.54,18.19-6.08,26.85-.88,1.68-1.63,3.24-3.79,3.45-1.62.15-3.73,1-4.67-.39-1.07-1.63.8-3.06,1.93-4.13,6-5.61,6.61-12.39,4.39-19.72-1.34-4.43-.64-8.19,2.65-11.44,1-1,2.11-2.53,3.73-2.06,2,.58,1.65,2.62,1.82,4.22C240.05,97,240,97.81,240,99.37Z"/><path class="cls-4" d="M279.46,174.61c2.29-12.77.26-23.59-10.45-32.12,9,1.46,18.87,12.38,18.71,20.39a31.59,31.59,0,0,0,1.69,9.25c.52,1.84.83,3.9-.63,5.14-1.19,1-2.64-.57-4-1C282.94,175.65,281,175.1,279.46,174.61Z"/><path class="cls-3" d="M286.53,183.9c-.11,4.84-5.6,8.84-10.47,7.63a27.31,27.31,0,0,0-3.31-.76c-2.33-.26-5.65,1.25-6.54-1.81-1-3.35.61-6.76,2.24-9.83a2.68,2.68,0,0,1,3.49-1.1c3.62,1.4,7.48,1.6,11.2,1.86C286.3,180.11,286.56,181.59,286.53,183.9Z"/><path class="cls-4" d="M259.3,392.84c4.73.78,7.59-2.51,11.61-.31,2.67,1.46,3.41,2.86,2.8,5.3-1,4-2.48,7.89-3.4,11.9-.73,3.19-2,3.14-4.36,1.58a7.9,7.9,0,0,1-3.81-7.54C262.34,400.26,262.17,396.83,259.3,392.84Z"/><path class="cls-5" d="M248.8,252.26c-2.22-.25-4.49-.39-6.26-3,3.42-.33,5.72,1.62,8.38,1.85C251.06,253,249.77,252.34,248.8,252.26Z"/><path class="cls-6" d="M248.8,252.26c.72-.36,1.79-.1,2.12-1.17L257,252.2C254.15,253.17,251.42,253.67,248.8,252.26Z"/><path class="cls-7" d="M280.5,119.5s7,2,9,5"/></svg>