<svg id="Layer_1" data-name="Layer 1" xmlns="http://www.w3.org/2000/svg" viewBox="0 0 480 480"><defs><style>.cls-1{fill:#fbfafa;}.cls-2{fill:#010101;}.cls-3{fill:#020202;}.cls-4{fill:#030303;}.cls-5{fill:#090909;}.cls-6{fill:#090808;}.cls-7{fill:#292929;}.cls-8{fill:#858484;}.cls-9{fill:#333232;}.cls-10{fill:#fff;}</style></defs><path d="M.1,240Q.1,122,0,4.09C0,.67.67,0,4.09,0Q240,.17,475.91,0c3.42,0,4.09.67,4.09,4.09q-.17,235.91,0,471.82c0,3.42-.67,4.09-4.09,4.09Q240,479.84,4.09,480C.67,480,0,479.33,0,475.91Q.18,357.95.1,240Z"/><path class="cls-1" d="M273.81,391.26c3.29,2.05,4.26,4.44,3.64,7.86-.87,4.75.83,8.73,4.47,12.05,3.06,2.79,6.26,5.53,8.39,9.18,2.35,4,3,8.29-.15,12.11s-7.32,3.22-11.45,1.59c-7.63-3-13.6-7.63-15.78-16-.51-1.95-1.38-3.95-3.23-4.89-6.29-3.19-5.82-8.62-4.91-14.21a30,30,0,0,1,1.32-4.8c1.36-4,3.33-7.72-1.09-11.47-2-1.71-1-5.09-1-7.72,0-12.79-5.16-23.65-12.41-34.1-1.86,14.45-10.23,25.51-17.75,37-2.66,4.06-4.15,8.69-6,13.16-2.44,6-4.75,6.7-10.12,2.88-3.24-2.31-6-5.29-9.8-6.8-1.51-.59-2.77-1.6-4.45.05-1.38,1.37-1.46,2.38-1,4.24.5,2.2,1.38,3.1,3.5,3.33a64.09,64.09,0,0,1,8.87,1.32c4,1,7.85,2.82,7.89,7.71s-4.15,5.94-7.78,7.11a16.45,16.45,0,0,1-5.4.9c-9-.32-18-1.36-27.16-1.13-8.23.21-9.84-3.5-7.51-11.51,1.63-5.62,3.64-11.05,7.16-15.82,1-1.36,2.11-3.33,3.83-2.53,4,1.84,5.44-.91,6.81-3.36,8.66-15.44,21-27.81,33.21-40.31,3-3.08,4.56-6.47,3.16-10.79a1.67,1.67,0,0,1,0-.5,53.11,53.11,0,0,0-7.43-27.26,43.58,43.58,0,0,1-4.84-32.36c.47-1.92-.22-2.58-1.63-3.5-2.62-1.7-3.07-4.21-1.8-7a16.27,16.27,0,0,0,1.6-8.71c-.45-4-2.13-7-6-8.39s-8.06-3.11-12.18-4.43a66.21,66.21,0,0,1-21.34-11.52C147,208,145,186.82,153.18,167.14a44,44,0,0,1,7.16-11.88c3.95-4.48,11.95-4.48,15.95,0,2.45,2.77,1.84,5.9-.82,7.3-9.63,5-5.61,13.07-4.56,20.13,1,6.58,5.81,11.47,9.46,16.8a2.55,2.55,0,0,0,3.34,1.17c10.44-3.26,18.74-10,27-16.7,2.42-2,2.64-6,1.76-9.39a13.28,13.28,0,0,1,1.87-11,17.69,17.69,0,0,0,2.52-7c1.55-9.42,7.34-15.61,15.66-19.28,11.51-5.07,22.53.35,26.16,12.73.93,3.19,1.58,4.09,5.16,3.15,6.95-1.81,13.1.77,18.39,5.37,2.43,2.12,3.08,6.08,7.5,6.29,1.72.08,1.54,2.85,1.13,4.38-1.57,6-.63,11.84.42,17.78,2.85,16.2-.83,24.45-15.64,31.73-8.2,4-12.52,8.74-10.27,18.29.9,3.8.68,8,.32,11.94-.5,5.49-2.34,10.53-8.11,12.72-2.21.84-2.44,2.27-2.43,4.26.06,10.77,2.29,21.59-.77,32.29-.48,1.67.91,2.78,1.81,3.92a145.31,145.31,0,0,1,27.06,54c1.53,5.77,3.92,11.31,6,16.92a32,32,0,0,1,2.18,10.2c.26,8.79-3.25,11.42-11.73,9C278,391.83,276.44,390.51,273.81,391.26Z"/><path d="M184.17,203.29A66.85,66.85,0,0,0,207.36,190c7.32-6.44,16.19-6.14,25.07-5.76,1.16.05,2.31.35,3.47.42,3.49.2,7.8-.86,10.25.81,2.9,2-.07,6.48.55,9.87a9.36,9.36,0,0,0,4.05,6.6c3,1.94,5.8,3.89,6.46,7.77.17,1,.79,2,2,1.87a2.07,2.07,0,0,0,1.72-2.13c.23-6.06,4.59-11.1,3.86-17.23,1.6-.47,2.52.46,3.46.95,4.2,2.22,6.54.31,8.27-3.4,3.41-7.32,3.32-14.77.55-22.63,3.82-.47,7.24,1.62,12.12-1-4.15,10.29-.32,19,0,27.85.4,10-3.71,16.87-12.51,21.38-4.14,2.11-7.86,5-12.07,7-2.45,1.12-2.59,2.55-2.46,4.63.34,5.65.75,11.29.93,16.95.37,11.54-5.89,18.87-17.44,20.26a35.65,35.65,0,0,1-9.95-.07,169,169,0,0,0-24.3-2.46c-5.78-.11-6.46-1.61-4.63-7.16,3.08-9.32,0-16-9.23-19.42-4.51-1.7-9.08-3.25-13.65-4.78-9.09-3-16.55-8.58-22.8-15.63-11.69-13.21-11.53-28.36-6.64-44.15.51-1.65,1.16-2.13,3.18-1.87,8.73,1.11,8.55,1,9.53,9.62,1.35,11.94,8.58,20.65,16.65,28.76.92.92,2.48,2.83,3.7,1.39,1.74-2.06-1.28-2.38-2.11-3.53C185.12,204.45,184.8,204.08,184.17,203.29Z"/><path d="M252.42,264.71c0,10.79,2.11,20.54-.38,30.87-4.92-4.68-9.5-9.08-14.15-13.41-.88-.83-2-2.5-3.27-1.1s.59,2.32,1.43,3c11.73,9.9,20.24,22.33,28.52,35.06a111.47,111.47,0,0,1,12.27,26.07c3.34,10.1,6.88,20.13,10.27,30.22,1.56,4.62,3.61,10.2.18,13.81-3.23,3.4-8.05-.32-12.1-1.44-4.32-1.2-8.61-2.58-13-3.46-3.71-.74-5.56-2.42-5.44-6.35.56-18.38-7.39-33.36-18.66-47.12-6.74-8.24-13.31-16.64-19.46-25.32a52.15,52.15,0,0,1-9.89-35.77c.35-3.84,1.52-5.51,6.11-5.46,8.74.08,17.09,2.85,25.78,2.8C244.46,267.11,248.28,267.21,252.42,264.71Z"/><path d="M221,314.81c6.11,7.1,11.67,14.25,17.72,21,.92,1,.67,2.09.38,3.26-2.36,9.52-4.69,19-10.82,27.08a79.74,79.74,0,0,0-12.75,23.58c-1.18,3.64-3.06,4.71-6,1.95-5.08-4.76-11.25-7.52-17.51-10.27-5.33-2.33-5.39-3.83-2.54-9.07,5.73-10.56,14.46-18.57,22.53-27.15,1.83-1.94,3.63-3.91,5.53-5.77,4-3.88,5.67-8.29,4.38-14C221.1,322,221.24,318.36,221,314.81Z"/><path class="cls-2" d="M259.38,393.7c4.18,2.14,8.25,3.5,12.84,1.13,2.21-1.13,3,.83,2.63,2.49-1.74,8.37,2.57,13.91,8.34,18.95,2.62,2.29,5.11,4.79,6,8.37,1.32,5.37-2.22,9.08-7.46,7.47-7.62-2.32-13.87-6.32-16.12-14.69a13.13,13.13,0,0,0-3.11-5.6c-1.82-2-5.14-2.46-5.38-6A22.92,22.92,0,0,1,259.38,393.7Z"/><path class="cls-2" d="M195.26,409.14a44.59,44.59,0,0,1-5.1-.82c-3.78-.95-6.95-3.39-11.45-.12-2.54,1.84-7.41.19-10.9-1.7-1.4-.76-1.69-1.84-1.18-3.35.85-2.51,1.6-5.06,2.32-7.62.83-2.89,1.52-6.29,3.89-7.89,2.67-1.81,4.52,2.21,7.2,2.62,2.11.31,4.13,1.25,6.24,1.53s3.74,0,4.3,2.84c.46,2.26,2.91,2.37,4.91,2.64,3.94.51,8,.46,11.61,2.47,1.68.93,3.1,2.1,3,4.22s-1.8,2.64-3.3,3.33C203.53,408.8,200.06,409.09,195.26,409.14Z"/><path class="cls-2" d="M252.28,161.36a71.84,71.84,0,0,1-.58,7.95c-1,5.45-4.91,9.69-8.62,9.73-4.6.06-11.42-5.49-12.19-10.23-1.07-6.59-.25-12.63,5.94-16.7,1.66-1.1,3.27-2.26,4.92-3.36,5.78-3.88,8.52-2.84,10.07,4.2C252.41,155.66,252.15,158.56,252.28,161.36Z"/><path class="cls-2" d="M214.71,182.46a20.29,20.29,0,0,0,.21-9.77,3.35,3.35,0,0,1-.09-2c4.28-8.92,4-19.92,12.45-27a24.13,24.13,0,0,1,11.54-5.43c2.64-.46,4.49.68,5.57,3.12,1.17,2.67-1.56,2.76-2.65,3.91a9.56,9.56,0,0,1-2.42,1.72c-9.91,5.44-13.51,13.42-10.61,24.56,1.54,5.92-1.31,9.26-7.47,10C219.29,181.85,217.35,182.12,214.71,182.46Z"/><path class="cls-3" d="M258.69,204.58a30.08,30.08,0,0,0-4.18-3.35c-4.37-2.43-5.33-5.84-5.06-10.8.36-6.69,1.34-12.71,4.2-19.06,4.16-9.19,1.08-19.37-7.19-31.71,4,1.63,6.21,3.68,7.77,6.63a30.11,30.11,0,0,1,3.43,13.9,131,131,0,0,0,3.88,29.58C262.86,195.19,261,199.9,258.69,204.58Z"/><path class="cls-2" d="M260.63,164.05c1.86.4,3.13.69,4.42.94,3.07.61,8.34-1.19,8.9.62,1.51,4.88,3.44,10.09,2.27,15.51a20.7,20.7,0,0,1-1.17,4.32c-1,2.19-.68,6.29-4.32,5.49-3.33-.72-7.15-2-7.74-6.64-.55-4.28-1.4-8.52-2-12.8C260.73,169.22,260.77,166.9,260.63,164.05Z"/><path class="cls-4" d="M162.28,166.4c-3.8.54-3.66-1.63-2.53-4.69,2.59-7,8.25-9.41,13.41-5.5,1.14.87,2.46,1.74,1.28,3.64C173.05,162.09,165.38,166.55,162.28,166.4Z"/><path class="cls-5" d="M282.48,164.78c-5.6-3-11.56-2.32-17.42-2.61-2.07-.1-4.72-.6-4.71-3.38,0-2.57,2.6-2.65,4.46-3.11C271.34,154.08,279,157.78,282.48,164.78Z"/><path class="cls-6" d="M179.24,386.54c1.84-2.3,3.36-6,5.6-6.47s4,3.69,7.25,4.19C186.92,390.17,185.93,390.32,179.24,386.54Z"/><path class="cls-7" d="M238.86,182.22l-9.26-.89c1.36-4.46,3.61-4.56,6.79-2.11,1.25,1,2.93,1.37,4.42,2C240.89,183,239.78,182.44,238.86,182.22Z"/><path class="cls-8" d="M238.86,182.22l1.95-1h6.43C244.28,183.92,241.58,183.14,238.86,182.22Z"/><path class="cls-9" d="M267.41,388.51a6.31,6.31,0,0,1-6.77-1C263.44,386.37,265.32,388,267.41,388.51Z"/><path class="cls-10" d="M135.63,130.7a1.5,1.5,0,0,0,0-3,1.5,1.5,0,0,0,0,3Z"/><path class="cls-10" d="M132.29,178.24c-4.59-2.81-9.51-5.68-15-6s-10.24,3.24-15.6,2.54c-.81-.11-1.49.76-1.5,1.5a1.54,1.54,0,0,0,1.5,1.5c5.15.68,9.69-2.52,14.75-2.55,5.27,0,10,2.91,14.37,5.56,1.65,1,3.16-1.58,1.51-2.59Z"/><path class="cls-10" d="M107.47,228.07a1.5,1.5,0,0,0,0-3,1.5,1.5,0,0,0,0,3Z"/><path class="cls-10" d="M69.58,151.49a1.5,1.5,0,0,0,0-3,1.5,1.5,0,0,0,0,3Z"/><path class="cls-10" d="M258.16,109.78c.4.49,0,0,0,0s-.05-.1.05.12a.64.64,0,0,1-.06-.18c0-.15-.16-.83-.12-.46a11.07,11.07,0,0,1,0-1.91,24,24,0,0,1,.84-4.78A25.16,25.16,0,0,1,260.45,98a11,11,0,0,1,1-1.69c-.21.28.24-.24.33-.34s-.28.09.06,0-.25.07,0,0c1.82-.62,1-3.52-.8-2.9-2.42.83-3.53,4-4.29,6.19a27.59,27.59,0,0,0-1.74,8.89,5.71,5.71,0,0,0,1,3.77,1.51,1.51,0,0,0,2.12,0,1.54,1.54,0,0,0,0-2.12Z"/><path class="cls-10" d="M289.49,113.89c2.75-1.58,5.16-4,7.5-6.11,3.07-2.77,6.09-5.62,9-8.55,1-1,2.11-2.1,3.06-3.25a1.55,1.55,0,0,0,0-2.12,1.5,1.5,0,0,0-2.12,0,78.94,78.94,0,0,1-6.54,6.65c-3,2.84-6,5.64-9.12,8.28A20.18,20.18,0,0,1,288,111.3a1.5,1.5,0,0,0,1.52,2.59Z"/><path class="cls-10" d="M309.59,140.34c3-.18,6.09-1.45,8.84-2.64,3.61-1.57,7.29-3.64,9.88-6.67,1.25-1.46-.86-3.59-2.12-2.12-2.39,2.8-5.74,4.65-9.07,6.11a38.51,38.51,0,0,1-4.54,1.66c-.62.18-1.25.35-1.88.48-.25.06-.51.1-.76.15s.07,0,0,0a3.16,3.16,0,0,1-.32,0c-1.92.12-1.93,3.12,0,3Z"/></svg>