<svg id="Layer_1" data-name="Layer 1" xmlns="http://www.w3.org/2000/svg" viewBox="0 0 480 480"><defs><style>.cls-1{fill:#fbf9f9;}.cls-2{fill:#010101;}.cls-3{fill:#020202;}.cls-4{fill:#060606;}.cls-5{fill:#0b0b0b;}.cls-6{fill:#0e0e0e;}.cls-7{fill:#121212;}.cls-8{fill:#2b2a2a;}.cls-9{fill:#fff;}</style></defs><path d="M479.91,240q0,117.92.09,235.83c0,3.27-.44,4.18-4,4.18q-235.86-.18-471.71,0C.53,480,0,479.05,0,475.59Q.15,240,0,4.43C0,1,.46,0,4.26,0Q240.12.2,476,0c3.53,0,4,.84,4,4.15Q479.84,122.07,479.91,240Z"/><path class="cls-1" d="M299.89,419.2c1.92,6-1.32,9.9-4.88,13.34a27.47,27.47,0,0,0-5.28,6.48c-3.84,7-10.14,10.47-17.91,11-8.65.53-12.72-5.84-8.53-13.42,2.8-5.08,6.21-9.83,9.38-14.7.91-1.4,2-2.71,2.2-4.43.44-3.53-1.64-5.11-5-4-7.28,2.44-14.1,2.1-19.9-3.66-1.45-1.45-2.71-3.08-2.8-5.15-.32-8.05-4.17-14.7-8.66-20.91a56.25,56.25,0,0,1-10.82-28.56c-.76-8.61-1.57-17.23-1.94-25.86a53.55,53.55,0,0,1,4.4-24.85A35.24,35.24,0,0,0,233,287.37a54.35,54.35,0,0,1,3.17-22.07c2.77-7.64,1.21-10.88-6.13-14.23-6.69-3-7.75-4.66-6.83-11.89,1.05-8.33,3.24-16.38,7.84-23.48,2.3-3.55,2.29-6.47.9-10.51-4.29-12.43-6-25.53-8.8-38.35-.85-3.94,1.36-7.78,2.32-11.65,1.09-4.44,3.81-8.5,2.9-13.43-.32-1.7,1.46-2.72,2.58-3.36,3.83-2.17,4.71-5.77,5.28-9.58a76.84,76.84,0,0,0,1.09-8.91c.25-7.52,5.93-10.33,11.38-13.16,2.82-1.46,5,.77,4,4.46A114.49,114.49,0,0,1,246.17,130c-4.68,10-5,20.85-5.13,31.67a4.23,4.23,0,0,0,.72,1.83,21.85,21.85,0,0,0,1.34,1.93,38,38,0,0,1,9.3-10c8.7-6.4,18.21-6.08,26.47.9a14.37,14.37,0,0,0,2.68,2.23c9.24,4.45,9.57,13.24,10.28,21.61.36,4.22,0,7.83,4.76,10.39,4,2.15,5.72,6.82,6.27,11.45a38.34,38.34,0,0,1-2.06,16.72c-.81,2.43-2.1,4.64-5.15,4.67a2.21,2.21,0,0,0-2.15.89c-4.19,6.91-9.83,13.3-8.47,22.28.58,3.88.37,7.29-3.44,9.57-2.48,1.48-.43,2.81.4,3.95,3.6,5,7.25,9.93,9.28,15.87,2.92,8.58,2.86,17.17-.87,25.34-7.66,16.82-11.77,34.56-14.68,52.67-.66,4.08-1,8.22-1.62,12.3-.35,2.16.83,3.47,2.09,4.77,4.05,4.16,8.1,8.31,11.89,12.72,1.87,2.18,3.86,5,7.9,3.47,1.8-.67,3.45,1.17,4,3,1.45,4.9,4.57,8.8,7.27,13C313,412.21,310.6,417.42,299.89,419.2Z"/><path d="M239.8,290.48c-2.1.12-2.12,2.16-3.76,3.09-.59-10-1-19.63,3.41-28.51,12.54,4.41,24,.86,35.19-4.28,2.66-1.23,3.55-1.06,5.39,1.17,10.87,13.21,13.91,27.47,6.11,43.13-6.79,13.63-9.21,28.38-12.17,43.05-1.31,6.54-1.85,13.14-2.76,19.71a33.9,33.9,0,0,0,5.05,23.35c4.87,7.83,3.65,12.55-3.63,17.66-6.91,4.84-16,4.26-21-1.32a5.77,5.77,0,0,1-1.79-3.47c-.46-8.53-4.48-15.66-9.34-22.24-7.23-9.79-10.28-20.83-10.62-32.69-.25-8.48-2-16.83-1.43-25.39a60.11,60.11,0,0,1,9.26-28.11C238.65,294.17,240.31,292.93,239.8,290.48Z"/><path d="M236.6,211.79c.2,4.79,3.61,7.56,6.08,8.9,3,1.66,7,1.16,10.15,4.35,1.37,1.4,3.72-2.58,4.83-4.66,1.24-2.32,2.26-3.16,5.21-2.54,8,1.65,11-1,10.95-8.92,0-2.09.28-2.84,2.8-2.27,4.15.95,7.6,2.26,8.84,6.85a6.65,6.65,0,0,0,1.8,3.5c5.26,4,3.25,7.66.19,11.91-4.19,5.82-6.42,12.35-4.94,19.72.78,3.88-2.05,5.37-4.86,6.5-13.91,5.59-27.32,3.62-40.36-2.92-1.92-1-3.56-2.72-5.56-3.24-5.71-1.5-6.51-5.31-5.74-10.3A62.8,62.8,0,0,1,236.6,211.79Z"/><path class="cls-2" d="M252.77,222.14c-1.2-3.79-3-5.21-7.29-3.7-2.42.85-3.84-3.24-5.73-5.07-.41-.4-.24-1.34-.58-1.88-6-9.35-5.82-18.14,1.29-27.11,2.6-3.27,2.34-8.22,3.36-12.41,2.23-9.11,10.27-16.58,19.09-17.64-2,3.53-5.45,5.41-8,8.18-7.11,7.89-7.56,11.66-2.07,20.73,2.08,3.42,2.58,7.53,4.89,10.88,1.28,1.84-.36,2.93-1.55,4.13-7.3,7.39-7.34,8.89-.65,16.83C257,216.78,256.75,217.47,252.77,222.14Z"/><path d="M285.26,401.82c2.27,1.52,3.16,3.66,4,5.83a47,47,0,0,0,5.7,10.46c3.46,4.74,3.18,8.29-1.44,12.11a27.93,27.93,0,0,0-6.51,8c-3.31,5.76-8.7,8.57-15.2,9-6.68.42-9.32-3.64-6.05-9.45,2.76-4.91,6-9.58,9.12-14.24,2.15-3.17,3.86-6.36,2-10.15-.88-1.76,0-2.31,1.22-3.05C281.4,408.32,284.17,405.8,285.26,401.82Z"/><path class="cls-2" d="M251.7,174c.87-5.74,4.95-9.46,9-13.14s5.44-3.71,7.78,1.39a92.51,92.51,0,0,1,5.08,14c1.35,5-2.59,12.57-7.18,14.82-3.24,1.59-6.91,0-7.9-2.12-1.93-4.23-4.29-8.19-6.33-12.34A9.93,9.93,0,0,1,251.7,174Z"/><path class="cls-2" d="M272.2,192.24a31.37,31.37,0,0,1,16.71-2.08c6,.74,10.26,5.3,11.14,11.67a36.28,36.28,0,0,1-1.71,15.7c-1.17,3.81-3.16,3.66-5.8,1.48a15.24,15.24,0,0,1-4.69-6.91c-1.35-3.92-3.78-6.59-8-7.34-2.34-.43-3.2-1.38-2.78-4C277.71,197.07,275.1,194.7,272.2,192.24Z"/><path class="cls-2" d="M231.66,193c-1.92-8.27-3.8-16.13-5.55-24a15.29,15.29,0,0,1,.48-7.9c1.24-4,3.06-7.87,3.53-11.92.7-6.08,4.84-3.67,7.59-3.35,3.25.38,1,3.21.95,4.76-.31,5.92-2.12,12,2.68,17.1a2.32,2.32,0,0,1,.28,1.81C239.77,177.76,238.73,186.34,231.66,193Z"/><path class="cls-2" d="M273.74,188.29c5.81-12.51.1-22.34-6.34-32-.42-.63-1.54-.95-1-1.94.45-.84,1.34-.73,2.19-.56a17.66,17.66,0,0,1,7.49,3.74c2.47,1.95,5,3.78,7.49,5.74,4.8,3.82,4.79,9.74,5.47,14.87,1.1,8.31.53,8.36-7.82,9.15C278.77,187.51,276.36,187.93,273.74,188.29Z"/><path class="cls-2" d="M264.51,215.54a37.15,37.15,0,0,1-5.71-1.8c-6-2.82-6.79-7.37-2.17-12.08a35.67,35.67,0,0,1,9.23-6.65c3.3-1.72,5.37-.37,7.24,1.91,1.75,2.12,2.17,4.3-.25,6.54-1.63,1.52-2,3.72-1.78,6C271.48,214.3,270.2,215.64,264.51,215.54Z"/><path class="cls-3" d="M285.57,397.86c4.38-.84,7.68-2.2,8.95-6.62.65-2.25,2.5-1.49,3,.32,1.63,5.76,5.55,10.16,8.62,15.05,2.28,3.64,2.12,6.52-1.86,8.66-3.74,2-7.41.91-9.63-2.61-2.39-3.79-3-8.5-6.23-11.84Z"/><path class="cls-4" d="M250.37,108.31A63.43,63.43,0,0,1,245.44,125c-2.05,4.88-4.74,9.43-5.18,14.88A3.09,3.09,0,0,1,237,143c-1.92,0-3.6-.14-2.1-2.64,3.91-6.49,4.55-13.81,5.21-21C240.7,113.26,245.86,112.15,250.37,108.31Z"/><path class="cls-5" d="M240.07,256.88a73.82,73.82,0,0,0,24.84,4.47c-6.59,2.48-13.35,3.72-20.36,2.49C241.2,263.26,240.33,260.59,240.07,256.88Z"/><path class="cls-6" d="M273.85,373.42c8.46,6.35,8.78,7.65,3.48,13.7C274.61,383,273.12,378.55,273.85,373.42Z"/><path class="cls-7" d="M281.1,394c2.58-1.8,4.88-3.61,6.13-7.07,1.46,1.89,5.21,2,3.93,4.81C289.2,396.11,285,395.05,281.1,394Z"/><path class="cls-8" d="M278.82,390.94c1.41-2.55,2.47-4.54,3.62-6.48.32-.55.4-1.82,1.6-.94a1.8,1.8,0,0,1,.89,2.1C284,388.11,282.73,390.39,278.82,390.94Z"/><path class="cls-9" d="M249.74,78.19l-1.13-9a1.17,1.17,0,0,0-1.13-1.12,1.12,1.12,0,0,0-1.12,1.12l1.13,9a1.17,1.17,0,0,0,1.13,1.12,1.12,1.12,0,0,0,1.12-1.12Z"/><path class="cls-9" d="M275.84,97.45a11.72,11.72,0,0,0,9.91-6.36,1.15,1.15,0,0,0-.4-1.54,1.13,1.13,0,0,0-1.54.4,9.49,9.49,0,0,1-8,5.25,1.13,1.13,0,0,0,0,2.25Z"/><path class="cls-9" d="M218.57,103.37l-11.12-3.8a1.13,1.13,0,0,0-.6,2.17l11.12,3.8a1.13,1.13,0,1,0,.6-2.17Z"/></svg>