<svg id="Layer_1" data-name="Layer 1" xmlns="http://www.w3.org/2000/svg" viewBox="0 0 480 480"><defs><style>.cls-1{fill:#fbfafa;}.cls-2{fill:#010101;}.cls-3{fill:#020202;}.cls-4{fill:#080808;}.cls-5{fill:#090909;}.cls-6{fill:#0a0a0a;}.cls-7{fill:#fff;}</style></defs><path d="M479.91,240q0,117.92.09,235.84c0,3.27-.45,4.17-4,4.16q-235.85-.17-471.7,0C.52,480,0,479,0,475.59Q.15,240,0,4.43C0,1,.47,0,4.26,0Q240.12.2,476,0c3.54,0,4,.85,4,4.15Q479.84,122.07,479.91,240Z"/><path class="cls-1" d="M230.38,312.65c-6.4,20.34-15.07,39.15-19.16,59.5-2.52,12.48-5.68,14.36-18.05,11.16-3.66-.95-5.47,0-7.18,2.94a4,4,0,0,0-.33,4.18c.77,1.49,2.15,1.46,3.48,1.12,4.2-1.07,7,.63,8,4.61,1.07,4.19-.66,7.65-4.4,9.64-2.15,1.14-4.73,1.5-7.14,2.11-3.81,1-7.65,1.22-10.69,4.62-2.56,2.86-13.35,1.05-16.41-2-2.66-2.69-2.35-8.88,1.12-13.39,3.14-4.08,6.17-8.4,9.71-12,7.73-7.85,10.92-18,15.2-27.5,4.16-9.28,8.84-18.24,13.81-27.09,6.64-11.85,7.71-24.19,3.32-37.06-5.1-14.93-4.79-29.75,1.31-44.34a3.16,3.16,0,0,0-.56-3.9c-3.57-4.14-4.6-9.14-4.47-14.44.29-11.47,1.08-22.93.21-34.43-.44-5.8,2.05-10.68,6-14.84A55.14,55.14,0,0,0,212,171.12c-5.76,1.1-11,2.66-16.46,2.16-6.69-.63-8.36-2-9.78-8.68-.3-1.39-.73-2.61-2.29-2.9-5.06-.95-5-4.47-4.39-8.41.71-4.44-.67-5.7-5.13-4.78a22.43,22.43,0,0,0-2.89.78c-1.7.61-3.34.65-4.54-.86a4,4,0,0,1-.15-4.73c3.52-5.35.66-6.47-4.12-6.82-2.48-.18-4.69-1.53-4.84-4.22s2.21-3.26,4.43-3.77c1.93-.45,4.35-1,4.7-3.15s-2.09-2.66-3.59-3.59-3.59-1.85-2.81-4.08c.71-2.07,2.83-1,4.37-1.22,12.4-2,24,.82,35.65,4.87,8.39,2.91,17.41,2.51,26.25,2.18,8-.3,14.83,1.72,19.17,9,.92,1.56,2.38,3.26,2.34,4.86-.16,6.64,4.53,12.92,1.23,19.84-.76,1.59-.11,3.94.14,5.91.47,3.76-1.07,6-4.65,7.12-4.68,1.41-6,3.78-5,8.81a25.23,25.23,0,0,0,5.43,10.57c9.93,12.51,13.83,27.07,14.86,42.66.44,6.64,1,13.28,1.48,19.92a17.66,17.66,0,0,0,5.32,11.52c3.65,3.65,7,7.9,11.22,10.61,9.1,5.77,13.7,15.21,20.22,23.05,4.78,5.74,4.21,12.32,1.4,18.82-1.55,3.57-4.46,4.27-7.68,1.63a31.06,31.06,0,0,1-9.21-12.83c-1.54-3.89-2-8-6.57-10.64-3.82-2.24-6.87-6.12-11-9.39-.3,3.26,1.14,5.47,2.21,7.66,3.2,6.57,6.58,13.05,9.92,19.56,4.73,9.2,6.56,18.83,4,29-2.37,9.25-1.78,18.53-.16,27.72.88,5-.65,7.15-5.49,7.76-1.87.24-4.55-.19-5.44,1.65-1.72,3.58-5,9.23-3.63,10.92,3.92,5,1.41,10.91,4.23,15.79,2.68,4.62,5.61,8.61,10.71,10.64a15.51,15.51,0,0,1,2.65,1.38c3.38,2.2,5.08,5.29,4.35,9.32s-4.11,5.49-7.68,6c-6.48,1-12.21-1.08-17.07-5.34-3.82-3.35-6.94-6.6-13.19-6.2-5.5.35-9.76-4.41-12.72-9.28-1-1.67-.68-3.45,0-5.28a36,36,0,0,1,8-12.5,20.73,20.73,0,0,0,6.37-14.2c.07-2.13.56-4.21-1.86-5.7-1.62-1-1-2.93-.88-4.61.57-7,1.12-13.93,1.52-20.9.67-11.76-3.27-21.52-12.64-29C235.7,317.81,233.39,315.42,230.38,312.65Z"/><path d="M268.73,375.18c-6.05,0-11.38.12-14.93-2.38-4.22-3-.62-8.45-.72-12.78-.14-6.11.81-12.23.27-18.43a31.73,31.73,0,0,0-10.3-21c-4.47-4.24-9-8.43-13.23-12.89-4.58-4.82-6.48-11.16-8.89-17.17-.42-1.05-.83-2.61-2.24-2.13s-.77,2-.35,3c2.3,5.7,4.16,11.65,8.12,16.49,1.59,1.94,1.63,3.49.83,5.83-7,20.44-15.71,40.33-19.58,61.75-.85,4.7-3.35,6.19-7.94,6a39.43,39.43,0,0,1-16.66-4.7c-2.57-1.34-3.35-2.76-1.82-5.89,6.94-14.18,13.51-28.52,21-42.44,5.93-11,6.38-23,2.17-34.88-4.62-13-4.59-26.06-.8-39.24,1-3.38,1.51-4.9,5.71-2.5a65.15,65.15,0,0,0,27.07,8c1.77.15,3.41.12,4.67,2.07,4.39,6.76,10.47,12.05,16.26,17.55a15.87,15.87,0,0,1,4.49,6.92c2.83,8.92,7.17,17.18,11.73,25.29,5.45,9.71,7.55,19.76,4.64,30.72-2.31,8.7-1.84,17.58-.1,26.24.88,4.38-.54,5.67-4.31,6C271.69,374.86,269.55,375.1,268.73,375.18Z"/><path d="M238.57,257.57c-12.59-2.3-24.62-3.28-33.3-13.11a17,17,0,0,1-4.52-11.83c.12-12.48.92-24.95.17-37.44a14.09,14.09,0,0,1,3.74-10.07c3.78-4.42,7.69-8.72,10.51-13.9,1.12-2.05,3-3,5.22-.74,4.42,4.5,9.93,5.79,16.27,4.87a19,19,0,0,0,4.59,14c12.64,15.23,15.91,33.29,16.54,52.26.1,3,.3,6,.47,9a25,25,0,0,0,6.94,16.13c6.14,6.62,13.22,12.17,20.07,18,3,2.52,3.12,3.55-.82,6-4.95,3-7.3,1.7-11.13-1.75-8.25-7.46-17.43-13.84-25-22.13-5.54-6.06-8.89-12.8-9.29-21-.39-7.82-.62-15.64-.95-23.46-.07-1.44.11-3.7-1.62-3.66-2.22.06-1.2,2.31-1.12,3.63C236.06,233.73,234.94,245.31,238.57,257.57Z"/><path d="M160.14,132.51c10.65-3.9,11.86-6.68,5.4-12.59a42.92,42.92,0,0,1,26,1.91c10.68,4.08,21.6,5.1,32.82,4.8,4.34-.11,8.68,0,12.77,1.65,2.51,1,4,2.43,1.15,4.92-2.49,2.2-4.77,4.64-7.18,6.92-1.58,1.5-3.36,3-3.91,5.08-1,3.94-2.23,7.3-6.71,8.88-2.3.81-2.72,3.29-1.37,5.92,2.53,4.95,2.09,5.75-3.16,7s-10.31,2.71-15.54,3.51c-7.61,1.15-10-.6-12.26-7.88a4.64,4.64,0,0,0-3.73-3.6c-3.09-.47-3-2.33-2.66-4.75,1.11-7.37-1.6-9.8-8.88-8.38-1.29.25-2.87,2-4,.22-.74-1.17.61-2.43,1.16-3.61,1.88-4,.66-6.42-3.73-7.81C164.29,134.11,161.82,134.91,160.14,132.51Z"/><path d="M253.17,418.94c-5.84.3-9.34-3.52-12.67-7.46-1.19-1.41-.45-3.07.14-4.7,2.09-5.82,6.76-9.78,10.24-14.59,1.19-1.64,2.1-1,3.2-.08,2.17,1.74,4.82,2.88,7.4,2.29,3.83-.87,4.55.24,4.84,4,.73,9.23,5.17,16.3,13.88,20.25a17.93,17.93,0,0,1,2.65,1.37,6,6,0,0,1,2.95,5.91c-.35,2.78-2.64,3.69-5,4.11-6.81,1.19-12.24-1.49-17.08-6.08C260.82,421.16,258.27,417.3,253.17,418.94Z"/><path class="cls-2" d="M238.58,171c-5.77,3.3-10.12,1.64-14.42-.82a2.38,2.38,0,0,1-1.25-2.48,14.2,14.2,0,0,0,.1-3c-.65-4.62-3.06-9.81,4.19-11.6.34-.08.73-.78.76-1.22.61-8.16,7.85-11.49,12.22-16.91,1.56-1.91,2.7-1.42,3.79.38a11.36,11.36,0,0,1,2,6.57,17.19,17.19,0,0,0,1.41,8.27,4.41,4.41,0,0,1-.13,4.23,11.92,11.92,0,0,0-.79,8.28c1,4.2-1.08,5.36-4.73,5.5-4.13.16-7.25-2-10.39-4.22-1-.72-2.28-2.15-3.34-.56-.79,1.18.75,2,1.63,2.65A31.62,31.62,0,0,0,238.58,171Z"/><path class="cls-2" d="M169.29,411.07a5.43,5.43,0,0,1-1-.07c-3.13-.75-7.24-.12-8.55-3.9-1.22-3.53.66-6.79,2.95-9.57,1.26-1.54,2.73-2.91,4-4.45,5.67-6.89,5.65-6.88,14.11-4.15,1,.34,1.79.7,2.05,1.83.77,3.4,3.33,3.91,6.16,3.45,2.59-.42,4.83-.22,5.53,2.66a5.49,5.49,0,0,1-3.24,6.58,35.19,35.19,0,0,1-7.17,2c-3.86.88-7.95,1.09-10.63,4.73C172.49,411.55,170.75,411,169.29,411.07Z"/><path class="cls-3" d="M299.09,308.27c-1,2.75-.42,7.37-3.58,8.38-2.75.88-4.61-3.14-6.47-5.4-3.23-4-4.82-8.67-5.84-13.6-.37-1.79-.86-3.6,1.54-4.57,2.19-.9,4-1.83,6.2.49C294.83,297.75,298.73,301.8,299.09,308.27Z"/><path class="cls-4" d="M264.67,385.2c-2.35,7.23-4.59,8.14-9.41,4.57-2.46-1.82-1.53-3.93-.9-5.77.81-2.39,2.48-.22,3.72-.08C260.2,384.16,262.29,384.72,264.67,385.2Z"/><path class="cls-5" d="M185.76,381.47c-3.41,5.92-5.49,6.32-11.66,2.26C179.19,377.5,179.19,377.5,185.76,381.47Z"/><path class="cls-6" d="M263.32,382.13a9.75,9.75,0,0,1-2.59-.37c-2.09-1.08-6.41-.19-5.51-4,.67-2.79,3.82-.25,5.84-.44a5.27,5.27,0,0,1,2.41.4c1.2.49,3.76-1,3.29,2.06C266.39,382.27,264.62,382.37,263.32,382.13Z"/><path class="cls-7" d="M302.65,271.84a24.64,24.64,0,0,0,5.76-13.6,1.5,1.5,0,0,0-3,0,21.22,21.22,0,0,1-4.88,11.48,1.53,1.53,0,0,0,0,2.12,1.51,1.51,0,0,0,2.12,0Z"/></svg>