<svg id="Layer_1" data-name="Layer 1" xmlns="http://www.w3.org/2000/svg" viewBox="0 0 480 480"><defs><style>.cls-1{fill:#fcfafa;}.cls-2{fill:#010101;}.cls-3{fill:#040404;}.cls-4{fill:#050505;}.cls-5{fill:#080808;}.cls-6{fill:#0e0e0e;}.cls-7{fill:#0c0c0c;}.cls-8{fill:#0d0c0c;}.cls-9{fill:#828080;}.cls-10{fill:#fff;}</style></defs><path d="M479.91,240q0,117.92.09,235.83c0,3.25-.43,4.18-4,4.18q-235.85-.18-471.7,0C.55,480,0,479.08,0,475.6Q.15,240,0,4.44C0,1.05.43,0,4.26,0Q240.11.2,476,0c3.52,0,4,.83,4,4.15Q479.84,122.07,479.91,240Z"/><path class="cls-1" d="M247.34,349.28c-5.67,13.35-16.79,22.85-22.48,35.87-3.51,8.05-6.24,8.24-12.4,2.16-1.42-1.4-3-2.65-4.41-4-3.75-3.67-6.87-1.15-9.22,1.49-1.94,2.19.16,3.94,2.35,4.54a31.59,31.59,0,0,0,5.95.58,15.6,15.6,0,0,1,7.94,2.67c2.4,1.62,3.79,3.74,3.34,6.72-.41,2.8-2.26,4.21-4.87,5.06a32.33,32.33,0,0,1-17.71.84c-2.8-.66-5.09-1.16-8.15,1-6.19,4.41-14.13-.19-15-7.64a18.49,18.49,0,0,1,3.76-14,11.29,11.29,0,0,0,2.43-4.29c.57-3.08.62-6,5-3.13,1.24.82,2-.91,2.66-1.68,3-3.32,5.91-6.68,7.9-10.82,4.15-8.64,10.25-15.91,17-22.69,3.16-3.2,6.42-6.33,9.32-9.75,5.94-7,6.3-15.27,2.47-22.9-7.45-14.87-9.6-30.3-7.32-46.54.51-3.64.92-6.67-3.88-8.07-2.87-.84-4.53-3.81-5.28-6.88-.6-2.42-1.24-4.84-1.73-7.28-1.27-6.33-4.53-10-11-12.56-17.38-6.9-30.55-18.25-33.22-38.24-1.81-13.51,4.48-24.41,12.41-34.2,5.46-6.75,19.19-7.82,25.83-3.37,3.23,2.16,4.77,5.08,3.92,9-.74,3.34-3.24,4.78-6.36,5.58s-4.55-1.32-6.34-3c-3.83-3.64-3.91-3.1-7.14,1.07-7.2,9.31-1.79,17.44,1.46,25.91.71,1.83,1.68,1.57,3,.72a7.4,7.4,0,0,1,3.2-1.33c13.14-.8,24.22-7.68,36.12-12.15,1.4-.52,3-.61,2.27-2.9-1.26-4.1-1.31-8.42-2.67-12.61-3.08-9.44.06-17.72,6.87-24.55s14.77-9.33,24.17-6.11c6.71,2.31,10.73,7,12.48,13.79,1.08,4.18,2.13,8.37,4.34,12.17,1.2,2.06,2.15,2.82,4.51,1.05,4.74-3.56,9.87-5.45,15.7-1.91,1.12.68,2.93.28,4.42.32,2.32.06,3.94,1.23,4.27,3.44,1,6.9,4.88,12.69,7.33,19,4.54,11.71,1.94,20-8.79,26.31-6.17,3.64-12.29,7.29-17.49,12.33a10,10,0,0,0-3.14,6c-1,6.91-2.18,13.8-3.28,20.7-.84,5.21-2.56,9.79-8.58,10.82-2.43.41-2,2-2.09,3.66-.55,15.63-.34,31.33-4.27,46.64-.43,1.7.29,2.84.95,4.17a330.67,330.67,0,0,1,17.05,40.9c1.38,4.07.76,8.27-.17,12.33-1.11,4.89-2.14,9.75-1.88,14.81a6,6,0,0,1-1.66,4.52c-2.87,3.16-2.78,7.41.11,11,1.05,1.29,1,2.78,1.06,4.25a26.45,26.45,0,0,0,5.36,14.78c3.81,5,4,10.87,3.33,16.72-.53,4.56-8.13,7.39-12.64,4.61-6-3.7-10.26-8.77-9.18-16.38a36.23,36.23,0,0,0-1.85-17.16,14.76,14.76,0,0,1-.31-9.37c1.68-5.86-2.83-10.58-5.55-15.3C252.72,367.61,246.61,360,247.34,349.28Z"/><path d="M174.49,158.45c.48.42.9,1,1.46,1.22,5.08,1.81,5.54,4.41,1.71,8.17a5.47,5.47,0,0,0-1.17,4.73c1.21,7.37,2.31,14.77,6.36,21.32,1.24,2,2.67,1.79,4.19.82,4.23-2.7,9-3.32,13.81-3.81,6.28-.65,11.72-3.59,17.12-6.55,8.5-4.63,17.33-6.69,26.89-3.89,3.89,1.14,7.91.68,12.65.48-3.33,7.88.11,14.86,1.56,22,.75,3.69,2.71,6.12,6.59,3.42,2.14-1.49,5.64,1,6.35-1.48,1.9-6.69,10.88-10.59,7.48-19.35-.9-2.31.25-3.89,3.06-3.47,3.28.49,6.59.87,9.84,1.51,2.95.58,3.72-.39,2.85-3.16-1.29-4.11-2.3-8.32-3.78-12.35-1-2.64.06-2.65,2.26-3.37,5.65-1.86,8.36-.4,9.72,5.54.94,4.13,3.59,7.84,5.12,11.87,3.3,8.66.9,15.77-7,20.61-6.81,4.17-13.76,8.08-19.53,13.77a10.8,10.8,0,0,0-3.41,6.39c-1.07,7.07-2.55,14.09-3.43,21.18-.65,5.3-3.11,8.26-8.33,9.71a225.61,225.61,0,0,1-23.3,5.43c-11.09,1.88-20.61-2.13-30.1-6.73a8.4,8.4,0,0,1-4.35-5.82q-.69-2.66-1.18-5.36c-1.47-8.11-5.44-13.11-13.83-16.29-15.39-5.85-27.18-16.2-30.44-33.5C161.57,180.42,165.22,169.9,174.49,158.45Z"/><path d="M219.28,258.07c13.46,7,26.67,4,39.85.8,5.48-1.32,5.56-1.48,5.31,4.08-.53,11.47-.72,23-2.44,34.35-.28,1.88-.77,3.72-1.32,6.33-4-6.58-7.64-12.5-11.29-18.38a51.57,51.57,0,0,0-3.14-4.49c-.75-1-1.53-2.71-3-1.49-1.21,1,.15,2,.78,2.94,14.94,21.45,25.78,44.91,34.13,69.59a17.59,17.59,0,0,1,.33,8.88c-1,5.71-2.83,11.32-2.4,17.24.16,2.16-.81,3.08-2.95,2.86a2.74,2.74,0,0,0-1,0c-6.23,1.69-9.42-.68-12.61-6.51-4.68-8.55-9.33-16.67-9.6-26.78-.13-5.17-3.87-8.88-7-12.9C222,307.29,213.77,288.39,219.28,258.07Z"/><path d="M228.23,318.77a109.24,109.24,0,0,0,15.49,21c2,2,2.67,4.27,1.15,7.17-2.38,4.56-4.13,9.47-7.32,13.56-6,7.76-11.62,15.78-15.67,24.79-1.63,3.62-3.78,4.38-6.54,1-4-4.89-9.65-7.49-15-10.55-5.84-3.35-6.23-4.87-3.21-10.65,4.11-7.9,9.68-14.68,15.88-21,2.22-2.25,4.39-4.54,6.66-6.74C224.91,332.29,228.56,326.55,228.23,318.77Z"/><path class="cls-2" d="M257.64,135.18a13.85,13.85,0,0,1,9.53,10.72c1.71,7.42,4.58,14.16,9.86,19.81,3.23,3.46,3,7.58,1.35,11.67-1.47,3.64-2.22,7.32-1.16,11.18.71,2.59-.2,4.49-2.13,6.17-1,.86-2.48,1.93-2.52,3-.21,5.88-5.57,4.75-8.66,6.61-1.63,1-1.87-.65-2.12-1.7-1.74-7.53-3.46-14.67-1.48-22.88,2.29-9.54,5.07-19.2,4.12-29.51C263.86,144,260.62,139.88,257.64,135.18Z"/><path class="cls-2" d="M261.11,152.83c.12,1.28.24,3.26.49,5.22a17.31,17.31,0,0,1-.33,6.91c-1.55,5.65-5.26,9.6-8.92,9.38-4.66-.29-10.88-6-11.67-10.79-1.61-9.64,4.77-20.45,13.86-23.89,1.69-.63,2.42,0,3.36,1C261,143.89,262.05,147.72,261.11,152.83Z"/><path class="cls-2" d="M182.14,379.51c3.79,4.41,8.76,5.85,12.18,8.65,4.94,4,10.18,3.62,15.39,4.92,2.72.68,5.83,1.77,6,5.13.17,3.62-3.34,3.56-5.75,4.31-2.88.9-5.9.76-8.89.7-5.43-.12-10.8-3.76-16.37.88-1.64,1.36-6.74,1.52-8.19-1.26a14.42,14.42,0,0,1-.11-12.95C178,386.47,180.92,383.79,182.14,379.51Z"/><path class="cls-2" d="M254.54,136.5a52.67,52.67,0,0,0-10,7.36c-7.4,6.65-8.24,14.69-5.65,23.6a11.59,11.59,0,0,1-.45,7.22c-.66,1.95-2.22,1.6-3.66,1.76-1.17.13-2.69.41-2.72-1.2-.17-8.36-5.88-15.88-3.23-24.73,2.39-8,7.52-13.12,14.8-16.38C247.42,132.42,251,133.19,254.54,136.5Z"/><path class="cls-2" d="M264.89,396.77c4,.77,7.63-1.39,9.85-.33,2.55,1.22.82,5.73,1.95,8.68s2.22,5.93,4.2,8.4c3,3.73,3.73,8.05,3.73,12.6,0,5.06-5,8.24-9.17,5.46-4.32-2.88-8.27-6.53-7.55-12.5A43.53,43.53,0,0,0,264.89,396.77Z"/><path class="cls-3" d="M177.11,156.92c7.42-5.37,14.51-6.25,20-2.7,3.36,2.17,4.3,6.11,1.81,8.29-1.84,1.62-4,2.48-6,.09-2.76-3.19-5.67-5.36-10.31-3.22C180.81,160.22,179,158.56,177.11,156.92Z"/><path class="cls-4" d="M278.41,162.61c7.17-6.24,11.62-6.55,16.56-.62-5.27-1.22-6.53,2.48-8.14,5.8-.69,1.44-1.09,3.33-3.22,3.29s-1.42-2.26-2.16-3.38C280.37,166.05,279.42,164.32,278.41,162.61Z"/><path class="cls-5" d="M265.85,387.41c-1.19-4.39,1.87-3.35,3.67-3.63,1.51-.23,4-.77,3.12,1.94-.94,3,2.17,8.27-3.51,8.59S267.44,389.13,265.85,387.41Z"/><path class="cls-6" d="M293,180.54c-3.62-.42-6.2-.59-8.73-1.06-1.09-.21-3.32.68-3.06-1.18.21-1.52-.45-4.38,2.64-4.47,2.39-.07,3.76-1.68,5.56-4.33C290.08,173.65,290.51,177,293,180.54Z"/><path class="cls-7" d="M190.53,375.3a18.73,18.73,0,0,0,7.26,6.09c-3.87,3.88-6.18,3.93-9.85.29C186,379.8,186,379.8,190.53,375.3Z"/><path class="cls-8" d="M242.56,172.12c4.74,3.55,9.32,7,15.35,3.63.6,1.75-.12,2.2-1.24,2.4a34.55,34.55,0,0,1-11.43-.25C241.64,177.32,239.51,176.24,242.56,172.12Z"/><path class="cls-9" d="M200.81,379.21c-4-.75-7.11-2.37-8.76-7.08Z"/><path class="cls-10" d="M114.39,155.91c-3,2.58-6.68,6-10.93,5.71-3.48-.27-6.38-3.2-10-2.53-.19,0-.11.32.08.29,4-.73,7.2,2.94,11.2,2.51s7.06-3.33,9.85-5.77c.15-.12-.06-.34-.21-.21Z"/><path class="cls-10" d="M290.35,65.32c2.16-1.63,1.29-5.33.68-7.5a25,25,0,0,0-5.14-9.8A7.67,7.67,0,0,0,282,45.39c-.47-.09-.68.63-.2.73,1.68.35,3,1.73,4,3a24.06,24.06,0,0,1,3.25,5.51,21.49,21.49,0,0,1,1.75,6c.15,1.26.28,3.2-.88,4.08-.38.28,0,.94.38.64Z"/><path class="cls-10" d="M354.38,45.8a29.66,29.66,0,0,1-2.69,4.79c-1.49,2.35-3,4.66-4.63,6.94a103.53,103.53,0,0,1-8.33,11.2c-.32.36.21.89.54.54a86.51,86.51,0,0,0,6.16-8.11c2.58-3.62,5.11-7.27,7.44-11A25.92,25.92,0,0,0,355.1,46c.17-.45-.55-.65-.72-.2Z"/><path class="cls-10" d="M382.31,81.61c-4.28.38-8.62,2.28-12.42,4.16-4.65,2.29-9.64,5.38-12.21,10-.24.42.41.8.64.38,2.52-4.55,7.41-7.54,11.95-9.78,3.66-1.8,7.91-3.68,12-4,.47,0,.48-.8,0-.75Z"/></svg>