<svg id="Layer_1" data-name="Layer 1" xmlns="http://www.w3.org/2000/svg" viewBox="0 0 480 480"><defs><style>.cls-1{fill:#fbfafa;}.cls-2{fill:#020202;}.cls-3{fill:#010101;}.cls-4{fill:#030303;}.cls-5{fill:#0b0b0b;}.cls-6{fill:#0f0e0e;}.cls-7{fill:#101010;}.cls-8{fill:#080808;}.cls-9{fill:#fff;}</style></defs><path d="M479.91,240q0,117.92.09,235.83c0,3.27-.45,4.18-4,4.17q-235.85-.17-471.7,0C.52,480,0,479,0,475.59Q.15,240,0,4.43C0,1,.47,0,4.26,0Q240.12.2,476,0c3.53,0,4,.85,4,4.15Q479.84,122.07,479.91,240Z"/><path class="cls-1" d="M211.19,167.4c-3.83-.42-6.31,1.08-8.93,1.94-4.27,1.42-8.2,1.23-11.45-2.32-3.09-3.38-6.41-6.28-11.35-6.52a2.83,2.83,0,0,1-2.84-2.38c-.43-2.35,2.15-2.55,3.09-4.05-1.92-2-4.57-2-6.88-2.71-2.58-.82-5.06-1.71-6.86-3.84s-3-4.44,1.07-5.4c3.31-.77,2.12-2.5.75-3.8-4.31-4.09-2.7-9.72-3.84-14.59-.62-2.65,2.06-3.39,4.07-2.21,6.71,4,13.48,2.12,20.38.88,14.45-2.58,29-4.18,43.7-2.52,13,1.46,20.91,9.62,21.92,22.54.17,2.17.94,4.22,1.17,6.25.76,6.88-2.41,13.1-4.35,19.48-.49,1.6-3,1.75-4.94,1.51-1.57-.2-3.71-2.26-4.56.61-.76,2.59-1.87,5.56,1.23,7.68l.41.27c15.12,10.1,21.07,25.21,22.93,42.41,2.17,20,10.28,37.31,22.66,52.9,7.64,9.62,12.83,20.57,16.84,32.11.75,2.16,1,4.4-.94,6s-4.24,1.1-6.12,0a19.91,19.91,0,0,0-7-2.39c-2.08-.33-4.07-1.38-4.8-3.24-2.83-7.16-7.27-13.41-10.84-20.14-1.87-3.5-3.71-6.81-8.36-9.6,3.83,9.38,6.34,18.12,10.75,25.76,9.66,16.74,10.87,34.65,9.57,53.17-.52,7.3-.9,14.63-1.79,21.89-.64,5.22-3.82,9.83-4.05,15.27-.09,2.11-.26,3.87,1.74,5.22a5.25,5.25,0,0,1,1.91,2.27c2.94,7.64,8.56,12.05,16,15.27,5.95,2.57,5.51,8.86-.32,11.88a18.34,18.34,0,0,1-15.47,1c-2.22-.84-4.28-1.51-6.68-.31-1.69.85-3.56.25-5.33-.41-4.06-1.5-8.17-2.84-12.22-4.36-5.33-2-7.35-6.13-4.57-11.06,3.3-5.83,5.16-12.25,8.19-18.13a16.43,16.43,0,0,0,1.61-11.08c-1.89-9.14-2.51-18.41-3.53-27.64a35.84,35.84,0,0,0-6.65-17.49c-4-5.52-7.9-11.14-11.32-17s-8.14-10-13-14.3c-2-1.79-2.93-1.17-3.93.95-3.16,6.71-4.7,13.89-5.86,21.1A121.93,121.93,0,0,1,217.19,349a172.6,172.6,0,0,0-7.93,31.4c-.45,3.07-1.32,6.36-5,6.5-6.74.25-7.24,5.21-7.78,9.85a145.34,145.34,0,0,0-1,26.3c.19,2.8-1.37,4.25-3.82,5.1-6,2.09-12.81-1.73-15.22-7.64a26.33,26.33,0,0,1-.49-18.93c1.05-3.21,2.44-5.87,5.73-7.71,4.55-2.54,5.19-5.83,3.09-10.87-1.54-3.71-.37-7.3.61-10.75,5.7-20,8.51-40.7,13.16-61a30.79,30.79,0,0,0,.06-14.87c-4.16-15.52-2.65-30.69,2.4-45.67.87-2.57,1.19-4.34-1.63-6.18-5.34-3.5-6.42-9.37-7.29-15.23-1.11-7.52-2.16-14.87-5.84-22-3.58-6.87-1.5-14.32,2.75-20.83a42.58,42.58,0,0,1,12.42-12.12C204.53,172.35,207.53,170,211.19,167.4Z"/><path d="M285.16,344.41c-.16,12.57-.85,22.52-1.89,32.46-.36,3.37-1.29,4.44-5,3.83-9.21-1.52-9.25-1.27-10.6-10.27a2.78,2.78,0,0,1-.08-.49c1.28-22-11.48-38.19-22.7-55-2.79-4.18-6.67-7.44-10.63-10.48a42,42,0,0,1-13-16.12c-.6-1.34-1-4.09-3-3-1.83,1,.18,2.93.77,4.34a34.25,34.25,0,0,0,7,10.84c1.39,1.4,1.54,2.52.52,4.3-3.7,6.46-5.23,13.68-6.38,20.89a156.64,156.64,0,0,1-7,27,136.69,136.69,0,0,0-6,24.67c-1,6.74-1.86,7.48-8.57,7.74a24.33,24.33,0,0,1-5-.31c-6.27-1.09-7.8-3-6.17-9.22,2.66-10.13,5.1-20.31,7.06-30.61,2.12-11.11,4.43-22.18,6.76-33.25a41.26,41.26,0,0,0-.5-18.79c-3.56-14.24-1.47-28.06,2.89-41.76.74-2.33,1.37-2.76,3.74-1.7,14.7,6.58,29.9,10.22,46.09,6.81,1.59-.33,2.56.11,3.16,1.55,2,4.9,5.24,9.18,6.76,14.39a186.76,186.76,0,0,0,12.93,32.38C283.15,318.13,286.6,331.94,285.16,344.41Z"/><path d="M254,253.49c-18.59,3.58-35.16-.41-50.74-9.41a15.05,15.05,0,0,1-8-12c-.5-4.8-1.5-9.53-2.16-14.31a17.5,17.5,0,0,0-2.55-7.48c-5.18-7.87-3.8-15.49,1-22.86a37.56,37.56,0,0,1,10.68-10.37c2.89-2,5.75-4,8.5-6.11,5.06-4,9.52-3.94,14.66.1a22.8,22.8,0,0,0,5.06,3.16c18.81,7.87,29.66,22.18,31.83,42.11,2.63,24.21,12.09,45,27.54,63.5,1.19,1.42,3.84,2.84,1.92,5.4-2.37,3.15-6,4.1-9.61,4.7-3,.51-3.09-2.5-3.82-4.34-.93-2.34-1.68-4.86-3.54-6.53-10.21-9.14-14.56-22.11-22-33-6.68-9.75-9.55-19.76-7.89-31.37.33-2.3.84-6.76-2-6.68-2.48.06-.39,4.14-.64,6.42-.33,3-.17,6-.38,9-.45,6.53.77,12.39,5,17.76C249.74,244.77,251.56,249.13,254,253.49Z"/><path d="M247.21,131.85c-4.26-2.84-3.53-2.57-5.27,2.27-2.94,8.16-4,16.8-7,24.89-2.61,7.15-6.35,9-13.54,7-6.79-2-13.31-2.29-19.92.71-3.5,1.59-6.8.86-9.44-2.2-3-3.47-6.54-6.15-11.43-6.54,3.13-4,2.63-5.9-1.92-7.74-3.63-1.47-8-1.29-10.8-4.65,5.18-3.76,5.58-4.57,1.71-9.22-3.09-3.71-1.53-7.93-3-12.64,7.34,4.48,14.3,2.91,21.34,1.59,15.08-2.82,30.27-4.41,45.61-2.41C239.45,123.63,244.5,126.14,247.21,131.85Z"/><path d="M291.5,426.65l-5.76-1.53c-1.27-.34-2.78-1.3-3.78-.93-7.36,2.78-13.06-2.27-19.46-3.87-4.33-1.09-5-4.35-3-7.75a77.1,77.1,0,0,0,6.84-15.44c.75-2.33,1.56-2.51,4.43-1.95,8.72,1.72,13.84,6.67,17.26,14.49,1.43,3.26,5.26,4.39,8.4,5.91,2.75,1.32,6.87,2.05,6.17,6-.62,3.48-4.47,4-7.6,4.6C294,426.36,293,426.44,291.5,426.65Z"/><path class="cls-2" d="M180.18,398.3c1.43,1.73-.77,4,1.27,4.36,2.4.39,2.16-2.28,2.28-3.63.66-7.16,5.45-2.26,8.06-2.55,3.57-.39,1.59,2.77,1.5,4.38-.42,7.1-1.06,14.2-.56,21.31.17,2.5-1,3.25-3,3.67-4.59,1-8.84-2.11-10.78-6.57C175.81,412.07,177,405.44,180.18,398.3Z"/><path class="cls-3" d="M253.94,151.77c-4.34,3.75-3.37,8.82-4.27,13.44-.37,1.89-2.41,2.2-4.13,1.5-2-.8-3.87-1.84-5.78-2.82-2.21-1.14-2.82-2.49-1.79-5.15,2.61-6.79,2.57-14.36,5.91-21,.53-1.06.22-3,2.14-2.77a4.6,4.6,0,0,1,3.45,2.39C252.33,141.77,250.32,147.34,253.94,151.77Z"/><path class="cls-4" d="M303,307c.15,1.9-.14,2.95-2.11,2.77-8.54-.81-13.51-5.29-16.18-14.28-.65-2.22-.6-3.48,1.92-3.85.31-.05.6-.34.92-.38,2.43-.29,4.28-3.76,6.46-2.47,2.64,1.56,4,4.77,5.12,7.79C300.48,300.15,301.83,303.73,303,307Z"/><path class="cls-5" d="M228.3,169.49c2.37-1,4.37-1.85,5.77-3.58.93-1.14,1.8-1.93,3.14-.57.93.95,2.45,1.17,1.9,3.4C237.69,174.48,235.4,174.77,228.3,169.49Z"/><path class="cls-6" d="M272.42,388c1.44,2.1,6.46-3.14,6.91,2.52.12,1.51.81,5.07-3.08,3.95-2.82-.81-6.58-.63-6.7-5.09C269.5,387.65,270,386.72,272.42,388Z"/><path class="cls-7" d="M192.63,393.93c-3.2-.44-5.48-.28-4.61-3.18.44-1.44-.56-4.38,2.42-3.72,1.71.38,4.91-.75,4.92,2.43C195.37,391.69,194.67,394.34,192.63,393.93Z"/><path class="cls-8" d="M270.08,383.2c3.26.1,6.71-.86,10.36,1C275.38,385.9,274.11,385.79,270.08,383.2Z"/><path class="cls-9" d="M305,272.94a32.43,32.43,0,0,0,9.74-26.49c-.2-1.9-3.2-1.92-3,0a29.59,29.59,0,0,1-8.87,24.37c-1.39,1.33.73,3.45,2.13,2.12Z"/></svg>