<svg id="Layer_1" data-name="Layer 1" xmlns="http://www.w3.org/2000/svg" viewBox="0 0 480 480"><defs><style>.cls-1{fill:#fcfafa;}.cls-2{fill:#454444;}.cls-3{fill:#010101;}.cls-4{fill:#020202;}.cls-5{fill:#040404;}.cls-6{fill:#070707;}.cls-7{fill:#080808;}.cls-8{fill:#252525;}.cls-9{fill:#fff;}</style></defs><path d="M.1,240Q.1,122,0,4.09C0,.67.67,0,4.09,0Q240,.17,475.91,0c3.42,0,4.09.67,4.09,4.09q-.17,235.91,0,471.82c0,3.42-.67,4.09-4.09,4.09Q240,479.84,4.09,480C.67,480,0,479.33,0,475.91Q.18,357.95.1,240Z"/><path class="cls-1" d="M276,413c-1.84,4.77-5.63,5.24-9.86,4.29s-7-3.63-7.24-8.31a52.39,52.39,0,0,1,1.24-13.39c1.05-5.27.37-9-4.62-13.19-7.84-6.53-13.46-15.53-12.82-26.51,1.24-21.25-1.39-42.24-3.78-63.23-1.23-10.84-.64-21.24,4-31.23,1.43-3.05,1.39-4.86-2.8-5.8-7.89-1.78-11.62-7.72-13.15-15.3-1.57-7.77-.84-15.61-.78-23.42a28.33,28.33,0,0,0-3.55-13.79c-5-9.55-10.84-18.7-14.07-29.15-2.64-8.56-1.7-16.51,3.13-23.87,3.43-5.22,6.48-10.63,11.61-14.78,3.57-2.88,5-7.8,4.28-12.76-.65-4.31-1.2-8.28,4.45-10,2-.58,1.92-3.34,2.71-5.13,1-2.27,2.3-4.37,5.05-4s3.57,2.81,3.91,5.2c.76,5.32-.75,10.33-3.11,14.93C236,132.76,234,143,228.37,151.88c-3.63,5.7-1.34,13.12,4.19,18,2.47,2.17,5.27,4,8.59,6.4-1.23-10.42,5-17.38,9.45-24.9,3.38-5.71,8.39-8.44,15.65-6.63a37.3,37.3,0,0,1,14.34,6.55c.92.71,2.13,1.44,2.48,2.41,3.3,9.36,8.08,18.39,8.15,28.55,0,3.94.12,6.22,4.53,7.65,8.58,2.77,13.62,10.68,13.21,19.62a34.69,34.69,0,0,1-5.91,17.79c-1.11,1.68-2.38,3.2-4.6,3.5-4,.55-5.07,3.19-4.48,6.77.47,2.79,1.19,5.53,1.64,8.32s.64,6-1.74,7.38c-3,1.72-1.48,3-.46,4.46,12.59,18.59,14.09,38.68,7.95,59.72-2.62,9-4.86,18-5.51,27.34a30.17,30.17,0,0,0,.32,9c1.65,7.09,1.31,14-2.22,20.37-2.8,5.07-1.64,9.94-.31,14.89.87,3.21,2,6.34,3.18,9.46,3.39,9.2,1.71,17.58-3.66,25.59-2.31,3.44-5.33,4.36-9,3.7-3.48-.63-5.52-3-6.12-6.41-.48-2.78-.73-5.61-1.09-8.41a30,30,0,0,1,.36-12.56c.9-6.07,1.36-12.13-.62-18.13,2,6,1.53,12,.58,18.05C275.72,404.43,277.16,408.81,276,413Z"/><path class="cls-2" d="M276,413c.26-4.34-1.07-8.8.92-13,.26-.47.55-.48.84,0q-.44,6.54-.89,13.06H276Z"/><path d="M268.61,291.55c-1.16-1.77-2.22-3.43-3.34-5.05-.54-.79-1.09-1.93-2.29-1.29s-.65,1.67-.1,2.54c10.26,15.88,7.41,33.35,5.62,50.48-1.25,11.93-1.86,23.44,3.34,34.74,2.72,5.92.36,9-6,9.39-5.2.31-8.84-1.48-12.29-5.83a36.15,36.15,0,0,1-8.14-26.45c1.62-20.59-2-40.86-4.12-61.19-1.08-10.59,1.78-20.05,5.15-29.65.58-1.64,1.49-1.71,3-1.59,12.49.92,25,1.09,37.24-2,2.48-.62,2.78,1.14,3.66,2.39,13,18.43,14.48,38.49,8.18,59.54a128.18,128.18,0,0,0-5.19,24.87c-.39,4.17-.64,8.3.31,12.42a28.53,28.53,0,0,1-2.35,18.95c-2.72,5.83-10.2,7.24-14.09,2.22-4.95-6.39-6.87-14-7.13-21.93s1.41-15.91,2.2-23.85a96.75,96.75,0,0,0-.66-25.39,33,33,0,0,1,2.47-20c.52-1.1,1.89-2.59.1-3.36-1.63-.7-2.08,1.25-2.57,2.37C270.54,286.37,269.65,288.87,268.61,291.55Z"/><path d="M263.19,191.77c1.86.71,3.57,2,5.15,1.87,9.56-.82,12.21,6.3,14,13,2.13,7.88,4.44,15.32,10.65,21,.6.55,1.5,1.2.65,2-4.58,4.35-2.12,9.33-1.25,14.07,1.28,6.89,1.23,7.5-5.31,9.08a103.34,103.34,0,0,1-43.59,1c-8.22-1.52-12.64-6.63-13.95-14.82-1.1-6.8-.72-13.62-.53-20.43a33.74,33.74,0,0,0-4.36-17.62c-4.84-8.88-10.09-17.57-13.33-27.3-3.51-10.52-.06-19.21,6.13-27.44.64-.84,1.13-1.7,2.27-.62,2.27,2.15,5,1.17,8.08.89-3.23,5.87-5,11.63-2.37,18,2.51,6.11,7.44,9.85,12.77,12.87,4.65,2.63,5.86,6.35,4.51,10.78-2.1,6.86,2.23,11.38,5.16,16.43a3.14,3.14,0,0,0,4.83.89C257.11,201.6,263.05,198.89,263.19,191.77Z"/><path d="M244.82,192.35c2-6,.54-12-.82-18a9.28,9.28,0,0,1,.26-5.41c3-6.85,6-13.73,11.31-19.2,3.36-3.48,7.83-3.79,10.74-1.22,1.49,1.31,2.43,2.45.36,4.37-7.62,7.08-10.36,15.52-7,25.75,1.54,4.65.68,9.58.37,14.38-.17,2.63-6.63,9.73-8.87,10.06-.43.06-1.17-.09-1.3-.37C248.26,199.28,245.33,196.51,244.82,192.35Z"/><path class="cls-3" d="M279.5,410.61c-.23-5.23,1.07-10.25,1.8-15.34.39-2.79.6-5.61.76-8.42.09-1.44-.67-3.82-.08-4.19,1.75-1.06,4-1.39,6-1.9,1.55-.39,1.54.92,1.61,1.81.5,6.39,3.07,12.2,5.07,18.17,2.65,7.93.69,15-3.74,21.71a5.61,5.61,0,0,1-5.92,2.67c-2.77-.34-4.08-2.14-4.45-4.63C280.11,417.21,279.85,413.9,279.5,410.61Z"/><path class="cls-4" d="M261.52,405.75c-.1-6.46,3.16-12.68,1.38-19.28-.39-1.45,1-1.24,2-1.39,7.94-1.31,10.44.82,9.9,9.07-.37,5.62-1.75,11.14-1.4,16.86.15,2.55-1.52,3.91-4.15,3.86-3.39-.06-6.32-.95-7.3-4.66A25.25,25.25,0,0,1,261.52,405.75Z"/><path class="cls-3" d="M290.13,195.05c7.95,6.59,10,15.33,12,24a10.3,10.3,0,0,1,0,4,6.08,6.08,0,0,1-3.33,4.68c-1.8.79-2.85-1.23-4-2.26-5.85-5.24-8.35-12.15-9.63-19.65-.18-1.07-.3-2,.84-2.51C289.31,201.73,289.89,198.67,290.13,195.05Z"/><path class="cls-3" d="M262.58,178c-3.61-9.21-.71-16.43,5.56-22.9,1.73-1.78,2.91-2.1,4.69-.1,4.66,5.24,5.12,11.87,6.1,18.27.35,2.29-.71,3.37-3.63,2.37C271,174.11,266.5,174,262.58,178Z"/><path class="cls-3" d="M265.07,185c.28-3.42-.93-6.65,3.41-7.34,4.61-.74,10,1.17,11.46,5.08a21.89,21.89,0,0,0,5.43,8.19c1.79,1.71,1.72,3.83,1.75,6a3.72,3.72,0,0,1-2.46,3.94c-1.89.61-1.84-1.5-2.5-2.46-2.92-4.26-6.09-7.69-12-7.31C265.48,191.36,264,188.54,265.07,185Z"/><path class="cls-5" d="M241.16,111.37a23.68,23.68,0,0,1-2.61,10.3,123.83,123.83,0,0,0-6.72,17.12c-.61,2-1.62,3.64-3.7,4.36s-4.92,2.26-6.35,0c-1.25-2,1.26-3.59,2.77-5.13,4.24-4.32,6.53-9.46,5.74-15.68-.4-3.12-1.2-6.26,3.29-7.43,1.82-.47,2.26-2.71,3-4.37s.73-4.45,2.85-4.06C241.73,106.92,241,109.72,241.16,111.37Z"/><path class="cls-6" d="M288.82,190.62c-5.16-5.53-7.7-10.19-7.46-17.61.28-8.35-1.44-17.51-10.17-22.7a13,13,0,0,1,12.41,11.27c.52,4.74,1.53,9.12,4.25,13.08,1.73,2.54,1.26,5.45.77,8.23C288.24,185.06,288.51,187.17,288.82,190.62Z"/><path class="cls-7" d="M291.73,192c12,2.56,17.34,12.72,12.72,24.6C302,207.06,299.05,198.42,291.73,192Z"/><path class="cls-8" d="M277.8,399.9l-.42,0-.42.05c1.6-7.19-1.23-14.05-1.79-21.1C281.91,385.2,278.82,392.67,277.8,399.9Z"/><path class="cls-9" d="M233.68,15.7a27.07,27.07,0,0,1-1.48-8.06A14.86,14.86,0,0,1,234.46.57a1.13,1.13,0,0,0-1.94-1.14,17.36,17.36,0,0,0-2.57,8,28.88,28.88,0,0,0,1.56,8.87,1.13,1.13,0,0,0,2.17-.6Z"/><path class="cls-9" d="M299.17,37.87c4.63-2.84,9.34-5.55,14-8.39,1.23-.75.1-2.7-1.14-1.94-4.63,2.84-9.34,5.55-14,8.39-1.23.75-.1,2.7,1.14,1.94Z"/><path class="cls-9" d="M173.17,38.93a73.7,73.7,0,0,1-6.95-3.46c-2.23-1.32-4.32-2.85-6.41-4.37a1.13,1.13,0,0,0-1.54.4,1.15,1.15,0,0,0,.4,1.54c2.09,1.52,4.19,3.06,6.42,4.37A74.75,74.75,0,0,0,172,40.87a1.16,1.16,0,0,0,1.54-.4,1.14,1.14,0,0,0-.4-1.54Z"/><path class="cls-9" d="M234.33,35.44a1.13,1.13,0,0,0,0-2.25,1.13,1.13,0,0,0,0,2.25Z"/><path class="cls-9" d="M202.93,56.46a.75.75,0,0,0,0-1.5.75.75,0,0,0,0,1.5Z"/><path class="cls-9" d="M266.1,56.21a.75.75,0,0,0,0-1.5.75.75,0,0,0,0,1.5Z"/></svg>