<svg id="Layer_1" data-name="Layer 1" xmlns="http://www.w3.org/2000/svg" viewBox="0 0 480 480"><defs><style>.cls-1{fill:#fbfafa;}.cls-2{fill:#010101;}.cls-3{fill:#060505;}.cls-4{fill:#0b0a0a;}.cls-5{fill:#090909;}.cls-6{fill:#272626;}.cls-7{fill:#fff;}</style></defs><path d="M479.91,240q0,117.92.09,235.83c0,3.28-.47,4.17-4,4.16q-235.86-.18-471.71,0C.5,480,0,479,0,475.58Q.15,240,0,4.42C0,1,.49,0,4.27,0Q239.88.2,475.48,0C479.36,0,480,1,480,4.67Q479.82,122.33,479.91,240Z"/><path class="cls-1" d="M180.72,259.19c-5.52-1-10-2.82-12.19-8.07-.59-1.42-2-.72-3.13-.79-10.67-.7-19.41-11.51-17.89-22.17.7-4.93,4.36-7.55,9.27-6.65a14,14,0,0,1,7.65,4.43c1,1.09,1.93,2.29,2.88,3.45,6.89,8.46,9.76,9.71,20.23,9.23,1.85-.08,2.17-.88,2.33-2.41,1.3-12.91,5.69-24.56,15-35-4.62,1.19-5.53-.21-3.92-3.82a15.78,15.78,0,0,1,5.79-6.66c3.55-2.46,7.47-4.46,10.32-7.8,1.31-1.52,3.28-3.24-.39-4.7-2.6-1-2.09-3.56-1.56-5.66a29.19,29.19,0,0,0,.94-7.39c-.06-10.64,4.73-18.93,13.87-22.07,9.3-3.19,18.91-.74,24.94,6,6.69,7.44,11.57,16.95,15.5,26.29,2.31,5.48-.33,12.44,1.16,18.69.22.9-.66,3-1.23,3-5.34.74-3.71,4.9-4.28,8a7.65,7.65,0,0,1-1.53,3.61c-4.71,5.22-6.51,11.75-8.57,18.19a25.08,25.08,0,0,1-1.75,4.66c-5.11,9.15-8.87,18.61-7.9,29.41a7.64,7.64,0,0,1-1.71,5.64c-3.72,4.14-2.92,8.73-2.2,13.57,2.19,14.64,4.26,29.3,8.31,43.6a36.57,36.57,0,0,0,9.08,15.31c12.84,13.44,21.23,29.62,29.15,46.13,2.07,4.3,3,9.45,9.43,9.8,1.92.1,3.16,2.35,3.82,4.31,1.72,5.14,4.72,9.49,8,13.7a11.42,11.42,0,0,1,2.18,3.88c.87,3.24,4.23,6.65-.2,9.8-5.16,3.67-10.56,3.82-14.49,0-1.36-1.32-2.22-1.26-3.81-.72-8.37,2.82-16.38-2.77-16.87-11.63-.24-4.41,1.65-6.13,7.41-6.63a33.92,33.92,0,0,0-6-13c-1.61-2-2.56-2.58-5.08-1.21-9,4.91-14.6,3.27-19.21-5.71-13.24-25.79-29.1-50-45.54-74.56-6.11,8.79-14.52,14.92-20.58,23.21-2.3,3.16-4,6.6-3.6,10.65.64,7.22-1.25,13.87-4.7,20.11-1.8,3.25-3.23,6.51-3.16,10.35,0,1.44-.2,3.36-1.11,4.25-5.76,5.61-3.67,13.43-5.89,20a35.8,35.8,0,0,0-.82,21.1,19.48,19.48,0,0,1,.47,4.95c0,9.59-3,12.19-12.57,10.83-5.6-.79-7.53-2.83-7.63-8.54a44.4,44.4,0,0,0-1-8.9c-1.84-8.29-1.4-15.89,6.95-20.82.27-.16.7-.41.69-.59-.47-6.15,1.66-12.52-1.19-18.43a13.63,13.63,0,0,1-1.59-4.59,127,127,0,0,1,.43-28.9c.82-6.66,4.87-12,7-18.06a41.5,41.5,0,0,0,2.85-14.56c-.07-7.83,3.29-14.87,6.46-21.84a69.54,69.54,0,0,1,5.12-9.7c2.14-3.24,3.12-6.14,1.08-9.89-1.45-2.65-.54-5.51,1-8.07C178,263.78,179.26,261.65,180.72,259.19Z"/><path d="M239.28,277.73c1,6.85,2,12.55,2.63,18.3,1.08,10.14,3.92,19.9,6.47,29.7,1.76,6.74,6.08,12.24,11,17,10.55,10.35,15.89,24.07,23.87,36.07,1.85,2.79.95,5-1.79,6.68-3.56,2.14-7,4.42-10.69,6.39-5.8,3.12-10.63,2.18-13.29-3.83-7.11-16.08-18.1-29.83-26.35-45.19-5.06-9.41-11.45-17.92-17.53-26.65-4-5.79-4-5.79,2-8.94,1.23-.64,3.63-.89,2.89-2.67s-2.59-.35-3.89.19c-3,1.24-5.75,2.88-7.52,5.58-4.6,7-10.74,12.67-16.51,18.65s-9.81,12.41-8.88,21.3c.5,4.84-1.27,9.54-3.54,13.86s-4.76,8.78-4.41,14.06a3.47,3.47,0,0,1-1.35,3.11c-3.89,2.68-8,1.42-12,.28-3.12-.89-5-2.65-5.16-6.35-.37-9.16-2.64-19.27,1.2-27.2,9.68-20,7.58-43.61,20.18-62.56,2.18-3.26,3.07-4.87,7.69-3a74.08,74.08,0,0,0,33.77,5.07C225.93,287,233.11,284.74,239.28,277.73Z"/><path d="M213.66,285.14a84.9,84.9,0,0,1-28.25-4.93c-7.58-2.79-9.31-7.93-5.15-14.81s4.15-6.89,11.09-2.84c5.37,3.13,10.78,5.93,17.26,5.64,4.76-.2,8.62-2.12,10.25-6.62,4.39-12.18,9.19-24.28,10.94-37.24.19-1.36,1.66-3.76-.88-4.06-1.72-.21-1.58,2.2-1.76,3.59-1.63,12.49-6.49,24-10.42,35.85-1.47,4.43-5.06,5.92-9.45,5.8a23.81,23.81,0,0,1-12.18-4A32.91,32.91,0,0,0,179.28,256a9.37,9.37,0,0,1-4.64-1.66c-2.77-1.82-2.91-3.34-1.35-6.79,4.26-9.38,11.7-6.43,18.65-6,1.24.08,2.88,1.15,3.47-.61.51-1.5-1.23-1.54-2.19-2-1.45-.77-.66-2.06-.54-3.12,1.26-11.12,4.71-21.38,12-30.08a19.31,19.31,0,0,0,2.05-2.82c1.44-2.49,2.22-5.92,5.19-6.7a26.29,26.29,0,0,1,15.26.29c2.34.79,3.27,2.55,3,5.07-.35,3.89-.83,7.81,4.82,8.58,1.9.26.65,2.22.57,3.37-.1,1.41-.21,2.76,1.3,3.39,1.33.56,2.17-.51,2.93-1.36,1.72-1.93,3.1-5.32,6.07-4.17s3,5.31,4.7,7.73c5,7.19.26,12.46-2.5,18.28-3.11,6.55-5.07,13.36-4.52,20.72a7.16,7.16,0,0,1,0,2.49,53.12,53.12,0,0,1-7.94,16.83c-3.52,4.78-9.17,6.4-14.9,7.21C218.12,284.94,215.45,285,213.66,285.14Z"/><path d="M253.82,221.24c-2.87-13-7-15.66-14.6-9.8-.87-2.07-.58-5.07-4.41-4.51-2.56.38-1.91-2.15-1.92-3.65,0-7.47-2-9.73-9.43-10.4a69,69,0,0,0-16.06.74c1.47-1,2.91-2.11,4.42-3.08C221.85,184.1,226,175,225,163.11c-.55-6.39,2.47-11.91,6.33-16.9a4.4,4.4,0,0,1,3-1.52c8.55-1.39,19.67,4.65,22.76,12.59a35.61,35.61,0,0,0,7.4,12.29,12.76,12.76,0,0,1,3.64,11,38.83,38.83,0,0,0-.15,7.47c.23,3.29,3.12,7.35-3,8.44-.54.1-1.22,1.73-1.15,2.59.66,8.15-6.72,13-8.25,20.23C255.4,219.81,254.7,220.24,253.82,221.24Z"/><path class="cls-2" d="M303.87,426.83c-1.6.13-3.17-.21-4-1.59-2-3.52-4.46-2.74-7.61-1.55-6.08,2.31-13.29-3.77-12.6-10.23.3-2.89,2.26-2.67,4.35-2.77,1.33-.07,2.65,2.42,3.83.2a4.3,4.3,0,0,0-.71-4.7c-2.2-2.83-1.13-4,2-4.57,2.13-.39,4.31-.94,5.53-3,1.63-2.75,3.47-1.26,4.07.33,2.59,7,7.49,12.51,11,18.88C312.81,423.36,310.39,426.7,303.87,426.83Z"/><path class="cls-2" d="M164.64,413.67c.59,5.07,1.55,10.17,1.68,15.3.17,6.51-.87,7.25-7.13,7.17s-7.44-1.19-7.52-7.15a32,32,0,0,0-1.18-8.37,18.18,18.18,0,0,1-.07-10.36c1.6-5.34,2.54-5.69,7.22-3.13a5.14,5.14,0,0,0,2.81.87C165.22,407.41,165.69,409.93,164.64,413.67Z"/><path class="cls-2" d="M166.32,247.72c-9.52-.09-18.26-11.22-16-19.84,1-3.71,3.69-4.45,7-3.45,3,.9,5,3.11,6.95,5.44s4.32,4.61,6.26,7.08c1.37,1.75,4.77,2.76,3.05,5.93C172,245.86,170,248.63,166.32,247.72Z"/><path class="cls-3" d="M163.68,405.67c-3.56-.31-6.08,0-5.26-4.73s0-9.58-.13-14.38c-.06-1.87.22-2.44,2.49-2,8.72,1.65,8.76,1.51,7.27,10.26-.44,2.61-1.07,5.19-1.49,7.81C166.21,404.72,165.36,406,163.68,405.67Z"/><path class="cls-4" d="M224.89,150.24c-2,5.79-3.72,11.39-2.11,17.56.63,2.43-.74,4.86-1.93,7.08a1.9,1.9,0,0,1-2.47,1.09,1.45,1.45,0,0,1-.9-2c1.82-4.81.84-9.9,1.54-14.81A12.64,12.64,0,0,1,224.89,150.24Z"/><path class="cls-5" d="M292.42,397.05a7.92,7.92,0,0,1-6.87,2.43c-2.2-.41-4.35-3.63-3.91-5.5.34-1.44,4.13-3.2,6-2.86C290.08,391.57,290.71,395,292.42,397.05Z"/><path class="cls-6" d="M278.43,390.91c2.49-1.82,4.32-3.1,6.09-4.48.74-.58,1.3-.86,2,.05a1.3,1.3,0,0,1-.48,2A13.61,13.61,0,0,1,278.43,390.91Z"/><path class="cls-7" d="M104.93,312.85c3.93,0,7.68-3.45,7.5-7.5a7.63,7.63,0,0,0-7.5-7.5c-3.92,0-7.68,3.45-7.5,7.5a7.63,7.63,0,0,0,7.5,7.5Z"/><path class="cls-7" d="M104.09,282.36a1.5,1.5,0,0,0,0-3,1.5,1.5,0,0,0,0,3Z"/><path class="cls-7" d="M133.65,309.39a1.5,1.5,0,0,0,0-3,1.5,1.5,0,0,0,0,3Z"/><path class="cls-7" d="M108.31,334.73a1.5,1.5,0,0,0,0-3,1.5,1.5,0,0,0,0,3Z"/><path class="cls-7" d="M77.9,309.39a1.5,1.5,0,0,0,0-3,1.5,1.5,0,0,0,0,3Z"/></svg>