<svg id="Layer_1" data-name="Layer 1" xmlns="http://www.w3.org/2000/svg" viewBox="0 0 480 480"><defs><style>.cls-1{fill:#fcfafa;}.cls-2{fill:#010101;}.cls-3{fill:#030303;}.cls-4{fill:#080808;}.cls-5{fill:#121212;}.cls-6{fill:#212020;}.cls-7{fill:#fff;}</style></defs><path d="M479.91,240q0,117.92.09,235.83c0,3.27-.46,4.17-4,4.16q-235.85-.17-471.71,0C.51,480,0,479,0,475.59Q.15,240,0,4.43C0,1,.47,0,4.26,0Q240.12.2,476,0c3.54,0,4,.86,4,4.16Q479.84,122.09,479.91,240Z"/><path class="cls-1" d="M280.45,229.05c-2.95,6.76-4.48,13.61-6.07,20.39s-3.79,13-12.45,13.44c10.63,14.27,5.87,32.15-3.39,43.45a10,10,0,0,0-2.69,7.11c.26,7.21-1.25,14.24-2.39,21.3-1.12,6.87.4,12.18,6.44,17,9.12,7.26,16,16.73,21.16,27.32,1.16,2.38,3.41,3.57,5,5.43,1.82,2.09,3.76,2.78,6.53,1.73a3.36,3.36,0,0,1,4.16,2c3.45,7.91,7.3,15.65,9.74,24,1,3.5-.57,5.5-3.67,6.47-3.87,1.22-8,1.92-11.74.13a9.14,9.14,0,0,0-8.66,0,26.89,26.89,0,0,1-17.57,2c-2.86-.67-5.4-2-6.19-5.13-.84-3.38,1-5.76,3.4-7.75,3.31-2.7,7.52-3.46,11.32-5.11,2.38-1,4.83-2.15,4.94-5,.09-2.44-2.69-2.56-4.19-3.7-4.42-3.36-8.91-4.42-13.65-.38a12.88,12.88,0,0,1-4.11,1.76c-6.66,2.34-7.65,1.92-11-4.29-3.54-6.59-6.8-13.37-10.78-19.69a74.63,74.63,0,0,1-11.42-41.77c.05-4-.58-5.8-5.17-4-5.77,2.27-12,2.54-18.15,3.11-3.55.34-5.67,1.88-6.75,5.47-3.5,11.65-5.35,23.13-1.79,35.31A38.92,38.92,0,0,1,190,396.42c-2.41,5.8-.9,13.28-.88,20,0,3.07.58,6.2-3,7.63-3.74,1.5-7.87,3.1-11.38.27-2.11-1.7-3.75-1.41-5.88-1-5.06.95-10.12,2.19-15.32.82-2.7-.71-5.17-1.86-5.7-4.88s1.78-4.8,4-6.3c3.27-2.17,7.15-2.7,10.81-3.69,9.27-2.49,13.19-9.72,12.27-19.22-.31-3.15-.84-6.29-.93-9.44a4.35,4.35,0,0,0-2.31-3.94,81.26,81.26,0,0,0-14.05-7.49c-5.46-2.32-6.54-4.55-4.9-10.23,3.68-12.79,7.7-25.48,11.38-38.27,2.4-8.31,7.58-14.28,14.75-18.76,11.14-7,22.47-13.65,34.18-19.63a6,6,0,0,0,3.74-5.13c.71-4.59,2-9.09,2.86-13.67.67-3.59,2.5-7.15-.51-10.82-1.23-1.5-.1-3.87.68-5.73a21,21,0,0,0,.74-14.2c-1.9-6.55-1.07-12.52,3.1-17.94,1.29-1.68,1.11-3.55,1.42-5.49,1.89-11.93-.86-23.94.9-35.81,2.18-14.76,10.8-25.12,22.89-27.89,14.6-3.35,26.08,4.07,27.23,19.06.79,10.27,4.33,19.68,6.26,29.54,1,5.09,2.79,10.37.19,15.58-1.53,3.06.15,4.36,2.82,4.85a45.78,45.78,0,0,0,5,.18c10.18.64,15.57,5.94,16.33,16,.47,6.23-6.9,10.77-14.21,8.69a14.13,14.13,0,0,1-7.58-5.4C283.7,232.46,282.88,230.35,280.45,229.05Z"/><path d="M219.08,278.77q2.17-9.88,4.35-19.81c.27-1.23.71-1.92,2.37-1.67,8,1.23,16.18,2,24.2,3.43,9.44,1.66,14.07,7,15.15,16.7,1.62,14.6-7,30.58-20.94,36.66-13.26,5.79-27.05,10.29-41.61,11.74-9.46.94-10.23,1.53-12.94,10.83-3.16,10.88-4.51,21.71-1,32.9,2.18,7,.77,8.3-6.63,7.91a13.29,13.29,0,0,1-6.22-1.64c-5.85-3.48-11.55-7.22-18-9.6-2.83-1.05-3.44-3.38-2.59-6.16,4.41-14.29,8.72-28.62,13.29-42.87,1.93-6,6.81-9.83,12-12.95,13.78-8.35,27.25-17.31,42.41-23.14A10.45,10.45,0,0,0,225.1,280c1-.7,3-1.25,2.27-2.71-1.13-2.25-2.41,0-3.63.42C222.37,278.18,221.23,279.44,219.08,278.77Z"/><path d="M252.83,312.18c.79,6.58-.58,12.38-1.4,18.22-.51,3.62-1.33,7.19-1,10.9a14.53,14.53,0,0,0,6.36,11.3c8.93,6.27,14,15.87,20.55,24.2,1.66,2.11,1.23,4.05-1.16,5.35-7.29,4-14.26,8.55-22.19,11.27-2.29.79-3.94.85-5.31-1.76-5.4-10.3-11-20.48-16.54-30.72-6-11.13-5.85-23.37-6.5-35.49-.12-2.22,1.33-2.26,2.76-2.72C236.74,320.07,245.28,317.87,252.83,312.18Z"/><path d="M227.32,215c2.86.86,2.68,6.23,6.41,5,3.11-1,1.69-5.06,3.11-7.44.84-1.41,1.72-2.81,2.92-4.77,5.08,8.78,15,9.92,22.2,15.31,3.55,2.66,8.29,2.09,12.56,2.55,3,.33,3.83,1.07,2.68,4.38-2.44,7.05-4.24,14.32-6.21,21.52-1.87,6.82-5.77,10.06-12.35,8.26-9.87-2.71-20-2.95-30-4.7-7.34-1.28-7.92-2.18-5.61-9,1.61-4.76,1.3-9.44.17-14.23C221.38,224.11,222.24,220.94,227.32,215Z"/><path d="M266.19,222.15c-6.77-3.63-13.15-6.78-19.22-10.43-4.25-2.55-5.63-6.82-4.38-11.61,1.13-4.29,5.76-7.39,10.81-7a58.44,58.44,0,0,0,14.35-.31c5.88-1,15.95,7.58,12.91,14.61-.78,1.81-1.34,2.81-3.83,2.69C268.47,209.65,265.23,213.31,266.19,222.15Z"/><path class="cls-2" d="M244.84,191.47c2.62-4.54,4.78-8.36,8.65-11,9.89-6.68,11.15-14.67,4.29-24.46-1-1.46-4.49-2.6-2.24-5.06s5.49-3.75,8.88-1.41a21,21,0,0,1,8.86,12.81c1.26,5.38-.27,11.16,1.86,16.3a66.73,66.73,0,0,1,4,16.09c-5.44-4.88-11.12-5-17.52-4C256.39,191.5,250.83,189.66,244.84,191.47Z"/><path class="cls-2" d="M295.7,417c-.37,0-1.82.24-2.62-.36-4.79-3.59-9.11-1.42-13.75.45a22.1,22.1,0,0,1-13.2,1.25c-2.19-.49-4.46-1.13-4.86-3.61s1.38-4.12,3.31-5.11c3.1-1.57,6.35-2.83,9.59-4.11s6.28-3.12,6.92-7.09a3.12,3.12,0,0,1,2.44-2.75,11.06,11.06,0,0,0,6.17-4.69c1.94-2.93,4.09-3.2,5.68.61,2.29,5.51,4.75,10.95,7.09,16.44C305.38,414.79,304,416.89,295.7,417Z"/><path class="cls-2" d="M233,216.42c-5.47-4.22-6.27-9.26-4.73-15.09,1.12-4.25.43-8.58.08-12.9-1-12.84.41-25,10.38-34.54a21.23,21.23,0,0,1,15.18-6c-.85,2.13-2.44,2.71-4.13,3.28-12,4-17.39,16.93-13.65,27.22,1.67,4.6,3,9.34,4.68,13.91,1.43,4-.56,10.07-3.58,14.44A22.1,22.1,0,0,0,233,216.42Z"/><path class="cls-2" d="M243,189.64c-6.86-13.65-8.21-28.19,5.12-34.81,2.44-1.21,4-1.44,5.87.94,2.92,3.77,5.25,7.64,5.23,12.6,0,3-1,5.77-3.52,7.33C250.26,179.05,245.66,183.15,243,189.64Z"/><path class="cls-2" d="M186.28,411.81c0,1.33,0,2.66,0,4,0,2.19,1.42,4.92-1.75,6s-6.43,2.72-9.14-.64c-1.68-2.09-3.53-1.22-5.43-.82-4.88,1.05-9.75,2.16-14.79,1.41-2-.3-4.36-.87-4.57-3.12-.18-1.91,1.89-3,3.55-3.75,4.65-2.21,9.94-2.6,14.49-5.16,3.24-1.81,6.47-3.59,7.35-7.58.64-2.87,2.69-2.29,4.22-1.49,2,1,6-1.48,6,3.24,0,2.65,0,5.3,0,7.95Z"/><path class="cls-2" d="M295.77,237.19c-4,0-6.89-2.11-9-5.32-3.36-5-7.26-9-13.95-9.13-2.32,0-3.94-1.8-4.21-4.25a4.6,4.6,0,0,1,2.8-4.85c2.7-1.32,6-2,7.87.4,2.46,3.27,5.46,3.17,8.78,3.31,9.88.42,13.13,2.7,15.23,10.5C305,234.17,302.54,237.19,295.77,237.19Z"/><path class="cls-3" d="M184.16,386.33c7.17-.74,7.25-.71,4.17,6-1.22,2.67-1.29,6.85-6.37,5.38-2.65-.77-6.23-8.5-4.22-10.39C179.5,385.68,182.23,387,184.16,386.33Z"/><path class="cls-4" d="M274.83,391.27a36.91,36.91,0,0,1,4.59-3.07c1.5-.7,1.46-5.26,4.48-2,1.15,1.25,4.45,2,2.5,4.45a7.3,7.3,0,0,1-7.92,2.76A18.92,18.92,0,0,1,274.83,391.27Z"/><path class="cls-5" d="M182.36,380.18c1.47-.13,3.46-.25,5.43-.47,1.18-.14,2.41-.49,2.75,1.15.43,2-1.07,2.13-2.4,2.27-2.8.31-5.6.53-8.4.83-2.05.22-3.06-.44-3-2.69.09-2.93,1.95-1.27,3.12-1.33A20.59,20.59,0,0,1,182.36,380.18Z"/><path class="cls-6" d="M278.87,384.54c-3.07,3.06-3.07,3.06-6.32,3.68C274.29,386.24,274.29,386.24,278.87,384.54Z"/><path class="cls-7" d="M276.89,129.88A31.83,31.83,0,0,1,289,140.41a1.5,1.5,0,0,0,2.59-1.51,34.84,34.84,0,0,0-13.17-11.61,1.54,1.54,0,0,0-2,.54,1.51,1.51,0,0,0,.54,2Z"/></svg>