<svg id="Layer_1" data-name="Layer 1" xmlns="http://www.w3.org/2000/svg" viewBox="0 0 480 480"><defs><style>.cls-1{fill:#fbfaf9;}.cls-2{fill:#010101;}.cls-3{fill:#020202;}.cls-4{fill:#040404;}.cls-5{fill:#232222;}.cls-6{fill:#151414;}.cls-7{fill:#343333;}.cls-8{fill:#171616;}.cls-9{fill:#fff;}</style></defs><path d="M479.91,240q0,117.92.09,235.83c0,3.25-.43,4.18-4,4.18q-235.85-.18-471.7,0C.56,480,0,479.08,0,475.6Q.15,240,0,4.44C0,1.05.43,0,4.26,0Q240.11.2,476,0c3.52,0,4,.83,4,4.15Q479.84,122.07,479.91,240Z"/><path class="cls-1" d="M290.88,167.13c3.05-5.41,6.33-8.47,11.17-9.61,5.45-1.29,10.47.26,13.42,5.1a61.25,61.25,0,0,0,14.11,16c5.13,4.13,5.71,10,1.07,15.43-7.3,8.47-15.58,16-25.53,21.31-3.33,1.77-5.66,3.78-6.6,7.49-2.11,8.27-6.25,15.6-10.08,23.19-3.2,6.34-9,12.51-6.69,21,.48,1.78-.12,4-.68,5.9-4.19,14-5.44,28.76-10.28,42.62a11,11,0,0,0-.38,5.79c1.5,8.78,4.56,17,8.12,25.1a34.39,34.39,0,0,1,1.94,22.37c-1.45,6.38-2.85,13.54-1.37,19.64,2.25,9.25.61,19.83,8,27.63a9.82,9.82,0,0,1,1.63,3.07c2.09,5.08.64,11-3.27,13.43-3.48,2.21-9,1.13-12.17-3.7-4.2-6.31-8.27-13-6.89-21.25a34.46,34.46,0,0,0-.47-12.4c-.19-1-.72-2-.5-2.88.34-1.4,3.05-2.38,1.26-4.07-1.32-1.25-3,.66-4.57.81-5,.45-7.12-1.55-7.2-7-.16-12-.61-13.33-7.29-21.86-4,4.31-6.61,9.38-9.41,14.34-2,3.62-4,7.32-7.42,9.91-3.65,2.79-6.67,2.47-9.45-1.18a53.75,53.75,0,0,0-6.24-6.38c-3.62-3.42-5.34-1-7.21,1.71-2.12,3.1-2.3,5.95,1.41,7.93a54.09,54.09,0,0,0,6,2.45,16.68,16.68,0,0,1,6.31,3.91c2.36,2.51,3.56,5.53,2,8.67s-4.73,4.46-8.44,3.95c-6.45-.89-12-3.84-17.23-7.48a9.84,9.84,0,0,0-6.86-2c-7.85.59-12.46-5.88-10.11-13.32,2-6.34,6.53-11.13,9.89-16.64a1.35,1.35,0,0,1,2.1-.49c5.61,3.79,8-2.1,8.57-4.53,1.45-6.6,6-10.64,10-15.16,4.16-4.74,9.08-8.8,13.57-13.26,1.89-1.87,3.58-3.95,5.3-6,4-4.68,5.75-9.35,3.11-15.81a96.67,96.67,0,0,1-6.7-33.63c-.12-3.82.4-7.65.35-11.47,0-4.31,4.42-8.76.93-12.62-3.1-3.43-5.68-7.42-9.39-10.26-2.74-2.11-4.49-4.86-3.86-8.15,1.41-7.42-3.13-10.85-8.69-13.23-6.56-2.82-11.93-7.12-17.26-11.68-5-4.24-6.79-9.17-5.45-15.52,1-4.56.61-9.26,1.33-13.89,1.46-9.54,8.13-16.27,12.55-24.14,2.91-5.16,16.94-3.53,22.53,1.77,1.2,1.14,2.23,2.47,3.33,3.72,2.13,2.42,4.27,4.81,2.11,8.37-2.05,3.36-5.12,4.64-8.86,4.49s-6.09-2.33-7-6c-.24-1-.45-1.93-.67-2.92-6.86,3.23-7.47,4.78-7.65,19.08A53,53,0,0,0,231,178.3c3.26-1.78,7.16-1.14,10.66-1.43-.53-4.4-1.26-8.59-4.68-11.75a5.18,5.18,0,0,1-1.12-2.72c-2.32-12.07,9.18-30.56,21.07-34,9.58-2.73,22.61,5.21,25.52,15.88,1.28,4.71,2.44,9.22,6.18,12.76C290.92,159.27,290.89,162.51,290.88,167.13Z"/><path d="M198.9,158.21a21.27,21.27,0,0,0,5.45,6.29c-7.84,5.7-4.48,14.53-6.31,21.94-.34,1.34.58,3.2,2.16,2.39,5.08-2.61,10.52-.86,15.7-1.8a12.07,12.07,0,0,0,4.29-1.26c9.53-6,20.58-5.83,31.12-7.36,4.94-.72,10.18,1.23,16.24-.44-3.87,8.74,4.1,13,6.52,19.3,1.25,3.29,6.71,2.66,9,6,.42.62,1.6-.67,2.16-1.52,2.25-3.4,4.22-6.82,2.57-11.15-.77-2,.09-3.91.91-5.74.64-1.42,1-2.49,3.15-1.22,3.4,2,6.88.85,9.58-1.78,2.92-2.83,5.65-4.8,9.55-1.57,1.11.93,1.81-.19,1.74-1.28a4.32,4.32,0,0,0-.95-2.26c-4-4.83-7-9.82-3.12-16.21,2.4.53,4.1,2.5,5.44,4.88a50.52,50.52,0,0,0,12.44,14.17c5.32,4.32,6.06,8.17,1.66,13.12-7.2,8.09-15.1,15.55-24.91,20.46a12.82,12.82,0,0,0-7.32,8.79c-2.07,8.12-5.05,15.83-10.18,22.59a10.44,10.44,0,0,0-1.56,3.63c-1.56,5.68-3,7.07-8.71,5.92-9.14-1.82-18.19-1.48-27.33-.45a46.74,46.74,0,0,1-12.92-.8,13.09,13.09,0,0,1-8.39-5c-2.26-2.87-4.43-5.8-7.42-8a6.23,6.23,0,0,1-2-6.38c1.27-6.2-1.89-9.91-6.74-12.56-6.85-3.75-13.71-7.29-19.56-12.73-4.22-3.93-5.83-7.95-5-13.64,1.07-7.71.86-15.58,4.62-22.81C193,167.29,197.11,164.1,198.9,158.21Z"/><path d="M268.59,313.54c-3.11-9.57-7.37-17.52-9.83-26.18-.39-1.35-.41-4.05-2.71-3.25-2.12.74-.35,2.74.13,3.82,9.14,20.37,12.34,42.72,21.16,63.19a21.53,21.53,0,0,1,1,14.19c-1,3.87-1.81,7.77-1.31,11.82.24,2-.23,4-2.31,4.45-4.1.95-7.72,3-11.63,4.37s-5.85-.19-5.37-4.33c.95-8.26-1.7-15.34-6.65-21.82a34.49,34.49,0,0,1-6.52-16c-2-13.22-6.18-25.84-10.07-38.55s-6.16-25.55-4.49-38.84c.43-3.45.48-7.51,2.37-10.05,2-2.7,5.91.1,9,.05a115.11,115.11,0,0,0,15.43-.83c6.92-1.07,13.55.89,20.32,1.51,1.93.18,1.89,1.54,2,2.85.21,4.33.41,8.71-.72,12.91-3.06,11.4-5.4,22.95-7.73,34.51A61.29,61.29,0,0,1,268.59,313.54Z"/><path d="M236.59,322.38A101.82,101.82,0,0,1,241,339.67c.61,3.27.6,6.92,2.13,9.7,3.44,6.23,1.41,10.82-2.49,15.86-3.34,4.3-5.5,9.5-8.63,14-3.86,5.51-6,5.43-10.06.37s-10.08-7.53-13.85-12.85c-4.2-5.92-4.46-6.79-.1-12.56A89.6,89.6,0,0,1,218.4,342.7C225,336.6,231.71,330.67,236.59,322.38Z"/><path class="cls-2" d="M272.51,136.06c4.07.08,5.18,3.5,6.2,6.17,2.34,6.15,5.3,12,7.92,17.92,2.85,6.42,6.68,14.82.26,22.44a9.41,9.41,0,0,0-1.6,9.47c1.08,2.95-.12,5.09-2.12,7.05-1.77-2.7-6.48-.81-7.42-4.58a9.08,9.08,0,0,0-4-6,4.15,4.15,0,0,1-2-3.86c.64-6.29-.16-12.65,3.21-18.71C278.42,156.21,276.85,146.21,272.51,136.06Z"/><path class="cls-2" d="M207,374.9c-5.45,8.34-4.2,12.27,4.75,15.7,2.64,1,5.39,1.76,7.49,3.81,1.62,1.59,2.89,3.46,1.91,5.75-1.08,2.49-3.36,3-5.88,2.63-6.29-.88-11.52-4.09-16.64-7.55a9.91,9.91,0,0,0-7.37-2c-5.8.76-9.56-4.25-7.66-9.6a29.7,29.7,0,0,1,2.69-5.87c1.76-2.8,3.3-6.27,5.91-7.87s5.27,2.18,8.2,2.86C202.49,373.25,204.5,374.08,207,374.9Z"/><path class="cls-2" d="M273,151.68a17.8,17.8,0,0,1-2.64,13.71c-1.94,3.09-3.71,7-8.11,6.14A13,13,0,0,1,252,163c-3.33-10.07,4.4-23.28,14.74-26.1,2.28-.63,3,1,3.9,2.21C273.49,142.84,273.13,147.24,273,151.68Z"/><path class="cls-3" d="M238.22,160.8c.62-12.08,5.27-21.81,15.91-28.13,2.93-1.74,6.09-3,9.41-1.09,1.79,1,3.6,2.23.22,3.95a41.46,41.46,0,0,0-6.5,4.58c-8.36,6.6-10.94,15.7-7.15,25.78,1.07,2.85.66,5.49.18,8.3-.34,2-1.81,2.12-3.2,2.54-1.89.57-2.57-1.08-2.73-2.15a22,22,0,0,0-5.4-11.44A6.64,6.64,0,0,1,238.22,160.8Z"/><path class="cls-3" d="M287.07,424.1c-.18,2.68-1.07,5.17-3.75,6.45-2.52,1.2-4.75-.22-6.28-1.86-5-5.34-8-11.65-8-19.11,0-3.15.48-6.31.25-9.43s-.61-4.87,3.87-5.63,5.26-.11,5.18,4.05a27,27,0,0,0,5.48,17.22C285.55,418.16,287.06,420.81,287.07,424.1Z"/><path class="cls-4" d="M206.47,156.14c7.81-.19,12.57,4,16.31,9.58,1.65,2.46-.2,4.19-2.13,5.21-2.8,1.48-6.27,2.16-7.76-1.33-1.68-3.94-2.22-8.17-7.9-8.37-1.34,0-3.21-2.17-2.78-3.67C202.8,155.48,205.31,156.45,206.47,156.14Z"/><path class="cls-4" d="M305.15,163.45c-.31.72-.51,2.59-1.4,3-4.79,2.28-4.13,6.1-3.54,10.17a4.79,4.79,0,0,1-5.58,5.19,3.07,3.07,0,0,1-2.6-2c-1.39-4.44,2.2-14.74,6.12-17.5a19,19,0,0,1,3.53-1.81C304,159.47,305.14,160.42,305.15,163.45Z"/><path class="cls-5" d="M253.4,169.75c4.74,3.84,9.14,5.58,15,3.38-2.94,2.92-12.94,4.19-14.79,2.38C252,173.88,253.67,172.26,253.4,169.75Z"/><path class="cls-6" d="M208.3,372a23.19,23.19,0,0,1-9-2.82C202.59,363.28,202.61,362.92,208.3,372Z"/><path class="cls-7" d="M307.27,175.21c-.3,1.46-1.73,1.52-2.65,1.52-2.73,0-2.05-2.42-2.37-4-.2-1,.34-2.15,1.67-1.65C305.71,171.8,306.61,173.4,307.27,175.21Z"/><path class="cls-8" d="M276,389.52c-.27,2.45-2.38,2.36-4,2.77s-2.08-.73-1.93-2c.32-2.65,2.83-1.48,4.25-2.23C275.47,387.42,276.11,388.2,276,389.52Z"/><path class="cls-9" d="M265,1.5a1.5,1.5,0,0,0,0-3,1.5,1.5,0,0,0,0,3Z"/><path class="cls-9" d="M130.27,165.18c-2.86-2.48-6.09-5.41-10-5.83s-7.22,3.24-11.14,2.52c-.47-.09-.67.63-.2.72,3.67.68,6.53-2.27,10-2.52,4.2-.3,7.85,3.09,10.77,5.64.37.32.9-.21.54-.53Z"/><path class="cls-9" d="M66.93,126.65a.75.75,0,0,0,0-1.5.75.75,0,0,0,0,1.5Z"/><path class="cls-9" d="M289.32,76.22c-1-.91-1.15-2.48-1.16-3.76a24.37,24.37,0,0,1,.9-6.24,36.92,36.92,0,0,1,5.67-12.55c1-1.44,2.44-3.09,4.25-3.53a.75.75,0,0,0-.39-1.45c-3.93,1-6.45,5.82-8,9.13-2.11,4.39-3.85,9.41-3.9,14.33,0,1.75.2,3.89,1.6,5.13.72.64,1.78-.42,1.06-1.06Z"/><path class="cls-9" d="M337.87,79.9a30.14,30.14,0,0,1,2.89-4.38c1.65-2.23,3.38-4.41,5.14-6.56,3.74-4.59,7.59-9.1,11.58-13.48,1.41-1.55,2.82-3.14,4.38-4.55.72-.65-.35-1.71-1.06-1.06a114.37,114.37,0,0,0-9.37,10.19c-3.91,4.52-7.75,9.11-11.35,13.87a35,35,0,0,0-3.51,5.21c-.42.87.87,1.63,1.3.76Z"/><path class="cls-9" d="M360.14,109.62a29,29,0,0,0,5.8-3.08,77.09,77.09,0,0,0,7.91-5.91c5.34-4.56,10.55-10,13.09-16.69.35-.9-1.1-1.29-1.44-.4-2.45,6.4-7.59,11.66-12.71,16a71.22,71.22,0,0,1-7.61,5.67,26.93,26.93,0,0,1-5.44,2.93c-.9.33-.51,1.78.4,1.45Z"/></svg>