<svg id="Layer_1" data-name="Layer 1" xmlns="http://www.w3.org/2000/svg" viewBox="0 0 480 480"><defs><style>.cls-1{fill:#fbfafa;}.cls-2{fill:#020202;}.cls-3{fill:#010101;}.cls-4{fill:#030303;}.cls-5{fill:#0b0b0b;}.cls-6{fill:#0f0e0e;}.cls-7{fill:#101010;}.cls-8{fill:#080808;}.cls-9{fill:#fff;}</style></defs><path d="M479.91,240q0,117.92.09,235.83c0,3.27-.45,4.18-4,4.17q-235.85-.17-471.7,0C.52,480,0,479,0,475.59Q.15,240,0,4.43C0,1,.47,0,4.26,0Q240.12.2,476,0c3.53,0,4,.85,4,4.15Q479.84,122.07,479.91,240Z"/><path class="cls-1" d="M211,167.39c-3.66-.41-6.13,1.09-8.75,2-4.28,1.42-8.2,1.23-11.45-2.32-3.09-3.38-6.41-6.28-11.35-6.51a2.78,2.78,0,0,1-2.83-2.38c-.34-2.25,1.83-2.77,3.27-3.83-2.12-2.25-4.77-2.21-7.07-2.94-2.58-.81-5.06-1.71-6.86-3.84s-3-4.43,1.06-5.39c3.3-.78,2.13-2.5.75-3.81-4.31-4.09-2.7-9.71-3.84-14.58-.63-2.66,2.06-3.4,4.07-2.22,6.7,4,13.47,2.12,20.37.88,14.46-2.58,29-4.18,43.7-2.52,13,1.46,20.92,9.61,21.93,22.53.17,2.17.93,4.22,1.16,6.26.79,6.87-2.42,13.09-4.34,19.47-.48,1.6-3,1.76-4.93,1.52-1.58-.19-3.71-2.26-4.57.6-.76,2.59-1.86,5.56,1.22,7.68l.42.28c15.12,10.09,21.07,25.2,22.93,42.4,2.16,20,10.31,37.29,22.65,52.92,7.6,9.62,12.88,20.54,16.84,32.11.74,2.17,1,4.39-.94,6s-4.24,1.09-6.12,0a19.86,19.86,0,0,0-7-2.39c-2.08-.33-4.07-1.38-4.8-3.24-2.83-7.16-7.29-13.4-10.85-20.14-1.85-3.51-3.7-6.81-8.34-9.6,3.83,9.38,6.31,18.13,10.74,25.76,9.88,17.06,10.85,35.33,9.52,54.17-.5,7-.86,14-1.74,20.89-.65,5.22-3.82,9.83-4.05,15.27-.09,2.11-.26,3.87,1.74,5.22a5.25,5.25,0,0,1,1.91,2.27c2.94,7.64,8.56,12.05,16,15.27,5.94,2.57,5.5,8.86-.33,11.88a18.34,18.34,0,0,1-15.47,1c-2.22-.84-4.28-1.51-6.68-.31-1.69.85-3.56.25-5.33-.41-4.06-1.5-8.17-2.84-12.22-4.36-5.33-2-7.34-6.1-4.56-11.05,3.27-5.85,5.17-12.25,8.19-18.14a16.48,16.48,0,0,0,1.6-11.08c-1.9-9.14-2.52-18.42-3.54-27.65a36.18,36.18,0,0,0-6.94-17.88,183.35,183.35,0,0,1-11-16.62c-3.34-5.79-8.14-10-13-14.31-2.06-1.8-2.93-1.14-3.93,1-3.18,6.7-4.68,13.88-5.86,21.09A122.9,122.9,0,0,1,217.18,349a176.25,176.25,0,0,0-8,31.89c-.44,2.95-1.5,5.91-4.93,6-6.75.21-7.24,5.2-7.78,9.84a145.34,145.34,0,0,0-1,26.3c.19,2.8-1.37,4.25-3.82,5.1-6,2.09-12.8-1.73-15.22-7.64a26.27,26.27,0,0,1-.49-18.93c1.05-3.21,2.44-5.87,5.73-7.71,4.55-2.54,5.19-5.84,3.09-10.87-1.55-3.71-.37-7.29.62-10.75,5.69-20,8.5-40.69,13.14-61a30.67,30.67,0,0,0,.07-14.87c-4.16-15.51-2.65-30.68,2.4-45.66.86-2.57,1.21-4.34-1.62-6.19-5.34-3.5-6.42-9.36-7.3-15.22-1.11-7.52-2.24-14.84-5.82-21.95-3.76-7.46-1.27-15.26,3.56-22.07,4-5.7,9.57-9.64,15.32-13.37C207,170.71,208.74,169.16,211,167.39Z"/><path d="M285.11,345.16c-.06,12.15-.85,21.93-1.83,31.7-.33,3.3-1.28,4.46-5,3.84-9.24-1.53-10.57-1.3-10.35-10.26.54-22.36-11.85-38.85-23.33-55.9-2.71-4-6.49-7.16-10.33-10.09a42,42,0,0,1-13-16.12c-.6-1.33-.94-4.09-3-3-1.85,1,.25,2.89.75,4.34a12.08,12.08,0,0,0,1.28,2.69c2.32,3.57,6.44,7,6.58,10.66s-3.68,7.7-4.29,12c-3.15,22-12.55,42.41-15.71,64.36-.5,3.54-2.29,5.37-5.82,5.53a42.58,42.58,0,0,1-6,.13c-7.74-.74-9.45-2.88-7.4-10.38,5.73-20.88,8.94-42.29,13.63-63.39a38,38,0,0,0-.46-17.81c-3.67-14.4-1.64-28.37,2.79-42.24.74-2.33,1.36-2.77,3.73-1.71,14.7,6.58,29.9,10.22,46.09,6.82,1.59-.34,2.57.09,3.17,1.53,2,4.9,5.23,9.19,6.76,14.4a186,186,0,0,0,12.93,32.38C283.26,318.29,286.61,332.28,285.11,345.16Z"/><path d="M254,253.49c-18.6,3.6-35.17-.42-50.75-9.41a15.07,15.07,0,0,1-8-12c-.5-4.8-1.5-9.53-2.16-14.31a17.5,17.5,0,0,0-2.55-7.48c-5.19-7.87-3.8-15.49,1-22.86a37.56,37.56,0,0,1,10.68-10.37c2.89-2,5.75-4,8.5-6.11,5.07-4,9.51-3.94,14.66.1a22.8,22.8,0,0,0,5.06,3.16c18.81,7.87,29.67,22.18,31.83,42.11,2.62,24.21,12.09,45,27.54,63.5,1.19,1.42,3.83,2.84,1.91,5.4-2.36,3.15-6,4.09-9.6,4.7-3,.51-3.09-2.5-3.82-4.35-.93-2.33-1.69-4.85-3.54-6.52-10.31-9.27-14.7-22.41-22.25-33.45-6.6-9.64-9.24-19.51-7.67-30.91.32-2.32.83-6.77-2-6.69-2.5.06-.4,4.14-.64,6.42-.32,3-.16,6-.38,9-.5,6.54.81,12.38,5,17.75C249.73,244.79,251.56,249.12,254,253.49Z"/><path d="M247.21,131.85c-4.26-2.84-3.53-2.57-5.27,2.27-2.95,8.17-4,16.8-7,24.89-2.61,7.14-6.36,9-13.54,7-6.79-2-13.32-2.29-19.93.71-3.49,1.6-6.79.86-9.43-2.2-3-3.48-6.54-6.15-11.44-6.54,3.14-4,2.64-5.9-1.92-7.74-3.62-1.47-8-1.29-10.79-4.65,5.18-3.75,5.59-4.56,1.71-9.22-3.1-3.71-1.53-7.94-3-12.65,7.34,4.5,14.3,2.92,21.34,1.6,15.08-2.82,30.27-4.41,45.6-2.41C239.45,123.63,244.5,126.14,247.21,131.85Z"/><path d="M291.49,426.64l-5.75-1.52c-1.27-.34-2.78-1.3-3.78-.93-7.36,2.78-13.06-2.27-19.46-3.87-4.33-1.09-5-4.35-3-7.75a77.26,77.26,0,0,0,6.84-15.43c.75-2.34,1.55-2.52,4.43-2,8.72,1.72,13.84,6.66,17.26,14.49,1.43,3.26,5.26,4.39,8.4,5.91,2.75,1.32,6.87,2.05,6.17,6-.62,3.48-4.47,4-7.6,4.6C294,426.36,293,426.44,291.49,426.64Z"/><path class="cls-2" d="M180.18,398.3c1.42,1.73-.78,4,1.27,4.36,2.4.38,2.16-2.28,2.28-3.63.66-7.16,5.45-2.26,8.06-2.55,3.57-.38,1.59,2.78,1.5,4.38-.42,7.1-1.06,14.2-.57,21.31.18,2.5-1,3.25-3,3.67-4.6,1-8.85-2.11-10.79-6.57C175.81,412.08,177,405.44,180.18,398.3Z"/><path class="cls-3" d="M253.85,151.84c-4.25,3.68-3.28,8.75-4.18,13.37-.37,1.89-2.41,2.2-4.13,1.5-2-.8-3.87-1.84-5.78-2.82-2.21-1.14-2.81-2.49-1.79-5.15,2.61-6.79,2.57-14.36,5.91-21,.54-1.06.22-3,2.14-2.77a4.58,4.58,0,0,1,3.45,2.39C252.28,141.78,250.44,147.31,253.85,151.84Z"/><path class="cls-4" d="M303.05,307c.13,1.85-.14,2.91-2.12,2.73-8.56-.81-13.49-5.26-16.17-14.28-.66-2.23-.6-3.47,1.91-3.85.31-.05.6-.34.92-.38,2.43-.29,4.28-3.76,6.46-2.47,2.65,1.56,4,4.78,5.12,7.79C300.49,300.15,301.83,303.73,303.05,307Z"/><path class="cls-5" d="M228.3,169.49c2.36-1,4.36-1.85,5.76-3.57.92-1.12,1.77-2,3.14-.6,1,1,2.41,1.24,1.89,3.43C237.75,174.46,235.37,174.75,228.3,169.49Z"/><path class="cls-6" d="M272.64,388.28c1.22,1.77,6.24-3.47,6.69,2.19.12,1.51.81,5.07-3.07,3.95-2.83-.81-6.62-.63-6.7-5.09C269.53,387.78,269.82,386.43,272.64,388.28Z"/><path class="cls-7" d="M192.64,393.93c-3.21-.44-5.49-.28-4.62-3.18.44-1.44-.56-4.38,2.42-3.72,1.71.38,4.91-.74,4.92,2.43C195.37,391.69,194.67,394.34,192.64,393.93Z"/><path class="cls-8" d="M270.09,383.2c3.26.1,6.71-.86,10.35,1C275.37,385.89,274.1,385.79,270.09,383.2Z"/><path class="cls-9" d="M105.28,292.21a1.5,1.5,0,0,0,0-3,1.5,1.5,0,0,0,0,3Z"/><path class="cls-9" d="M96.84,196.87a1.5,1.5,0,0,0,0-3,1.5,1.5,0,0,0,0,3Z"/><path class="cls-9" d="M18.28,296.54a1.5,1.5,0,0,0,0-3,1.5,1.5,0,0,0,0,3Z"/><path class="cls-9" d="M186.37,294a1.5,1.5,0,0,0,0-3,1.5,1.5,0,0,0,0,3Z"/><path class="cls-9" d="M112.89,392.83a1.5,1.5,0,0,0,0-3,1.5,1.5,0,0,0,0,3Z"/><path class="cls-9" d="M51.23,353.13a1.5,1.5,0,0,0,0-3,1.5,1.5,0,0,0,0,3Z"/><path class="cls-9" d="M165.26,340.46a1.5,1.5,0,0,0,0-3,1.5,1.5,0,0,0,0,3Z"/><path class="cls-9" d="M150.9,245a1.5,1.5,0,0,0,0-3,1.5,1.5,0,0,0,0,3Z"/><path class="cls-9" d="M45.31,247.55a1.5,1.5,0,0,0,0-3,1.5,1.5,0,0,0,0,3Z"/></svg>