<svg id="Layer_1" data-name="Layer 1" xmlns="http://www.w3.org/2000/svg" viewBox="0 0 480 480"><defs><style>.cls-1{fill:#fbfafa;}.cls-2{fill:#010101;}.cls-3{fill:#020202;}.cls-4{fill:#060606;}.cls-5{fill:#0b0a0a;}.cls-6{fill:#0e0d0d;}.cls-7{fill:#121212;}.cls-8{fill:#fff;}</style></defs><path d="M479.91,240q0,117.92.09,235.83c0,3.26-.44,4.18-4,4.18q-235.86-.18-471.71,0C.54,480,0,479.06,0,475.59Q.15,240,0,4.43C0,1,.45,0,4.26,0Q240.11.2,476,0c3.53,0,4,.84,4,4.15Q479.84,122.07,479.91,240Z"/><path class="cls-1" d="M235.57,328.83c-.81,8.61-4.59,15.46-7.8,22.44-4.94,10.73-10.32,21.25-15.57,31.83-3.65,7.34-5.25,7.61-10.92,2.07-5.17-5.05-7.65-5.06-12.55-1.28-2.37,1.83-1.73,3.71-1.44,5.71.38,2.65,2.63,1.45,4,1.46a37.81,37.81,0,0,1,9.89,1.16c2.84.8,5.49,2.08,5.8,5.41.3,3.15-1.56,5.47-4.18,6.85a40.08,40.08,0,0,1-18.28,4.35c-2.28.05-4.32-.75-6.45,1.84-2.29,2.78-14.3,1.63-17.18-.8-3.15-2.64-4.33-9.69-1.88-14.46s5.41-9.15,8.23-13.66a3.7,3.7,0,0,1,3.77-1.92,5.27,5.27,0,0,0,5.87-4.8c.45-3.69,2.57-6,4.55-8.63,6.78-9,14.87-17.14,18.14-28.4a4.8,4.8,0,0,1,1.58-2.5c9.38-6.66,7.76-16.54,7.28-25.83a50.71,50.71,0,0,0-6.26-21.84c-4.43-8.16-3.53-17.18-.55-25.75,1.86-5.37,1-9.66-1.17-15-2.67-6.48-6.29-12.16-9.8-18.05-2.25-3.78-4.46-7.88-1.5-12.09s7.68-4.71,12.85-3.49c-.24-12.35-.32-24.56,8.21-35.08-4.75-.75-9.07-1.16-11.37-5.71-.84-1.66-2.87-1.36-4.55-1.07-2.95.49-5.89,1.17-8.86,1.43-2.6.22-5.22-.79-4.15-3.88,1.12-3.27-.87-3.46-2.74-3.78-4.17-.71-7-2.2-5.87-7.21.42-1.84-1.22-2.49-2.46-3.32s-3.46-1.38-2.74-3.53c.57-1.69,2.48-1.37,3.93-1.54a23.86,23.86,0,0,1,2.48,0c-1.5-2.46-1.71-5.1-5-6.18-2.52-.83-1.1-2.46.5-3.53a22.1,22.1,0,0,1,17.16-3.59c12.15,2.53,23.8.72,35.43-2.82,14.1-4.29,24,3.91,24,18.71,0,6.45,1.35,12.8-2,18.8-.4.72-.42,1.78-1,2.26-4.48,3.83-3.74,7.81-.45,11.65,4.12-7.67,6.88-16.14,9.28-24.78.51-1.82-.54-2.45-1.18-3.41-2.53-3.82-1.93-7.47,1-10.48,3.14-3.21,7.35-3.87,11.56-2.52,2.39.77,2.89,3.19,2.47,5.43a20.51,20.51,0,0,1-1.87,4.59c-1.48,3.23-3.5,6.21-1.6,10.18.66,1.37-.09,3.62-.64,5.33A114.53,114.53,0,0,0,257,192.83a26.52,26.52,0,0,1-5.19,13.33c-.81,1.11-2.37,1.93-1.38,3.84,3.38,6.49,2.54,13.66,2.94,20.58.43,7.48.28,15,1.69,22.38.83,4.41-.47,8.39-4.25,11-2.55,1.77-2.29,4.23-3,6.74-3.85,13.06,6,19.85,12.43,28.1a42.31,42.31,0,0,0,9.25,9.07c11.47,7.76,16,18.94,17.48,32.1,1.19,10.42-.26,20.58-1.79,30.79-.63,4.19-3.72,5.8-7.13,6.78-3.17.91-4.6,2.64-4.82,5.89a54.72,54.72,0,0,1-1.31,7.37c-.4,1.92-1.12,3.6,1.31,5.06,1.75,1.05,1.52,3.43.5,5-1.7,2.6-.14,3.49,1.77,4.5a50.18,50.18,0,0,1,14.66,11.08c2.36,2.71,4.32,5.83,2.6,9.53s-5.42,4.12-9,3.95a39.56,39.56,0,0,1-21.39-7.42c-1.53-1.08-2.59-2-4.71-.61-2.7,1.73-5-.81-7.25-2-10.85-5.5-9-13.38-3.49-21.95a18.58,18.58,0,0,1,3.16-3.17c6.16-5.71,6.74-12.73,1.55-19.43-1.46-1.88-1.5-4-1.12-6.19,1.06-6.06,2.09-12.13,3.29-18.17.81-4.12-.19-7.17-4.27-8.93a20.85,20.85,0,0,1-7.57-5.61C239.9,334.15,238,331.72,235.57,328.83Z"/><path d="M285.13,348.71c-.8,7-1.53,13.59-2.32,20.19-.35,2.88-2,4.58-4.7,5.83a27.89,27.89,0,0,1-20.43,1.14c-3.53-1.07-5.29-3.06-4.51-7,1.2-6,2.18-12.12,3.33-18.16.92-4.87-.57-8.55-5.15-10.69a26.88,26.88,0,0,1-9.8-8.29c-9.63-12.34-19.88-24.15-30.58-35.57-9.47-10.12-10.76-21.64-6.55-34.31.62-1.86,1.12-2.43,3.38-1.81,11.36,3.08,22.67,6.54,34.54,7.16,2.2.11,3,.84,2.83,2.93-.1,1.32.35,2.8-.1,4-2.76,7.13.79,11.88,5.17,17.06,6.35,7.52,12.29,15.5,20.3,21.22C283.5,321.65,283.17,335.64,285.13,348.71Z"/><path d="M206,254.62c7.67,2.18,14.78,1.72,21.47-2.13a14.84,14.84,0,0,0,6.68-17.22c-.27-.84-.44-1.71-1.51-1.54s-1.21,1-1.13,1.9c0,.33.1.66.11,1,.3,12.18-11.15,20.3-22.6,15.84-4.54-1.77-6.68-5.79-7.9-10.3-.38-1.42,0-1.9,1.73-1.86a27.72,27.72,0,0,0,10.7-2c3.89-1.5,5.42-3.48,2.54-7.24a16.23,16.23,0,0,1-1.33-2.64,5.36,5.36,0,0,1,1.06-.08c1.75.4,2.76,4.34,4.63,1.93,1.25-1.6-1.9-2.94-3.21-4.32-1.89-2-4.88-1.47-6.94-3.53-4.11-4.13-6.19-8.35-5.78-14.57.64-9.76,1-19.31,7.44-27.41,1.47-1.86,2.49-3.68,4.58-.31,2.33,3.77,6.44,3.68,10.32,3.43s8.33-2.3,11.12-.33c3,2.08,1.4,7.13,2.12,10.83.58,3,1.26,6,3.05,8.38,6.06,8.19,7.5,17.53,7.58,27.37.07,8,.18,16,1.57,23.89,1,5.54-3.66,11-9.1,10.78-12-.5-23.5-4.08-35-7.19C207.29,257.09,206.37,256.53,206,254.62Z"/><path d="M210.46,299.41c7.14,8.19,14.32,15.75,20.62,24,2.42,3.17,2,7.91.49,12-6.35,16.64-15.21,32.1-22.71,48.19-.63,1.34-1.67,4.18-3.84,1.5-4.69-5.78-11.14-7.3-18-8.41-8.57-1.39-8.57-2-3.35-8.72,7-9,15.13-17.34,18.37-28.76a2.59,2.59,0,0,1,.73-1.29c11.92-9.59,8.93-22.4,7.56-34.86-.07-.66-.22-1.31-.27-2A9,9,0,0,1,210.46,299.41Z"/><path d="M184.18,170c1.55-4.39-.6-6.4-4.68-7.16-2.74-.51-5.37-1-4-5,.72-2.2-1.72-3.36-2.93-5.7,2.67.41,4.85.76,7,1.07,1.83.26,4,.7,4.55-1.7.6-2.62-1.69-3.86-3.57-3.81-4.57.13-6.17-2.88-7.78-6.22,4.3-3,9.22-3.08,13.95-2.18,12.3,2.36,24.16.8,35.9-3,2.85-.92,5.74-1.75,8.8-1.43,1.54.17,3.11.51,3.67,2.11s-.85,2.4-1.79,3.25c-5.59,5-10.35,10.77-15.29,16.39-2.24,2.55-3.27,5.4-1.6,8.18,2.32,3.87,2.27,7.25-.78,10.36-1.43,1.45-11.66.14-12.76-1.86-3.24-5.89-8.13-4.57-13.05-3.64C188,169.91,186.28,170.52,184.18,170Z"/><path class="cls-2" d="M283.51,427.26a38.06,38.06,0,0,1-20.3-7.48c-2-1.48-3.53-2.38-6.2-.86-3.08,1.76-12-5.09-11.74-8.73.41-5.93,2.73-10.86,7.74-14.35.9-.63,1.44-1.71,2.81-.41,3.62,3.43,8.06,3.58,12.58,2.47,2.91-.72,4-.17,2.39,2.73-1.88,3.39-.22,5.23,2.63,6.74,5.31,2.79,10.32,6.05,14.34,10.57,1.62,1.82,3.64,3.83,2.57,6.56C289.11,427.61,286,427,283.51,427.26Z"/><path class="cls-2" d="M235.69,180.07c-4.13.27-8.26.87-12.37.72-4.55-.17-5.65-2.3-3.8-6.4,1.5-3.34,2.29-6.48-.24-9.81-1.4-1.85-1.3-3.94.49-5.86,4.4-4.74,8.6-9.67,13.06-14.34,3.26-3.41,6.25-3.11,7.91,1.18,3.48,9,5,18.16-.42,27.16-1.74,2.9-3.93,3.73-7.11,2.63a20.54,20.54,0,0,1-7.75-5.26c-.68-.67-1.45-1.69-2.43-.62s-.06,1.83.6,2.57A19.62,19.62,0,0,0,236,178.76Z"/><path class="cls-2" d="M182.92,406c-2.27-.13-5.27-1.43-7.35,2.61-1,1.91-11.15.89-12.84-.92-2.94-3.16-2.92-7.16-1.39-10.72,1.63-3.76,4.28-7.07,6.33-10.66.9-1.58,1.73-.95,2.79-.39a18.15,18.15,0,0,0,9.07,2.29c2.86-.1,5.62-.62,5.19,3.93-.17,1.85,1.92,1.85,3.46,1.82,3.8-.09,7.62-.4,11.37.7,1.91.56,4.29.76,4.58,3.13.33,2.72-1.82,4.15-4,5.06A39.83,39.83,0,0,1,182.92,406Z"/><path class="cls-3" d="M248.37,205.74c-4.46-6.3-7.25-12.3-3-20.2,3.47-6.5,6.78-13.33,7.78-20.89.22-1.7.56-3.58,3-2.63,1.77.68,4.08,1.1,3.47,3.95-.14.65-.28,1.31-.48,1.94a132.71,132.71,0,0,0-5,25.37A20.45,20.45,0,0,1,248.37,205.74Z"/><path class="cls-2" d="M204.89,237.42c-3.55.56-5.62-1.15-7.42-3.14a35.36,35.36,0,0,1-6.21-10.16c-1.08-2.59-1.22-5.29,1.61-7.07s5.73-2.53,8.36-.31a54,54,0,0,1,12.42,15.47c1.07,1.93.49,3-1.48,3.77A21.73,21.73,0,0,1,204.89,237.42Z"/><path class="cls-4" d="M258.25,146.18c4.64-.51,5.46,1.15,4.37,4a25.77,25.77,0,0,1-2.28,4.39c-1,1.62-.23,5.07-3.17,4.66s-4.34-3.45-5.08-6.09.6-4.89,3.1-6.1A12.87,12.87,0,0,1,258.25,146.18Z"/><path class="cls-5" d="M265,386.65a11.24,11.24,0,0,1-6.27-2c-1.77-1.25-1.76-3.36-1.32-4.94.5-1.79,2.22-.35,3.39-.27a39.47,39.47,0,0,1,5.86.62c1.45.31,4-1.55,4.2,1.47.22,2.77-1,4.76-4.17,4.91C266,386.47,265.36,386.6,265,386.65Z"/><path class="cls-6" d="M188.66,380.15c-4.34,5.69-9.32,7.14-15.34,3.86C177.08,376.9,182.63,377.49,188.66,380.15Z"/><path class="cls-7" d="M269.25,389.19c-.77,6.57-4.48,8.5-9.9,5.62-2.46-1.31-2.54-3.34-2-5.53.77-3.21,2.51-.51,3.79-.48C263.75,388.85,266.36,389,269.25,389.19Z"/><path class="cls-8" d="M171.06,240.51a1.5,1.5,0,0,0,0-3,1.5,1.5,0,0,0,0,3Z"/></svg>