<svg id="Layer_1" data-name="Layer 1" xmlns="http://www.w3.org/2000/svg" viewBox="0 0 480 480"><defs><style>.cls-1{fill:#fbf9f9;}.cls-2{fill:#010101;}.cls-3{fill:#020202;}.cls-4{fill:#040404;}.cls-5{fill:#919090;}.cls-6{fill:#262525;}.cls-7{fill:#fff;}</style></defs><path d="M.1,240Q.1,122,0,4.09C0,.67.67,0,4.09,0Q240,.17,475.91,0c3.42,0,4.09.67,4.09,4.09q-.17,235.91,0,471.82c0,3.42-.67,4.09-4.09,4.09Q240,479.84,4.09,480C.67,480,0,479.33,0,475.91Q.18,357.95.1,240Z"/><path class="cls-1" d="M280.09,368.42c-7.16,6.14-7.9,12.4-5.13,20.49s-.79,16.14-5.45,22.92c-3.38,4.92-11.57,2.63-13.83-3.83-2.12-6.08-2.51-12.41.78-18.39,1.45-2.66,2.86-5.29,2.35-8.47-.45-2.83-1.09-5.25-3.8-7.24-6.59-4.82-9.7-11-8.38-19.83a81.43,81.43,0,0,0-2.89-36c-5.24-17.26-7.46-34.85-2.66-52.65,1-3.8-.41-5.5-3.74-6.39-2.89-.77-5.81-1.43-8.69-2.25-3.88-1.1-5.71-3.51-6.61-7.7-2-9.19-3.18-18.29-1.9-27.66.41-3-1.48-5.33-3-7.72-4.37-6.67-8.72-13.37-13-20.11a44.45,44.45,0,0,1-5-10.84c-1.68-5.45-.55-10.17,3.59-14.14C208.47,163,214,157.22,220.05,152a12.09,12.09,0,0,0,4.63-10.37c-.16-5.55,2.45-8.64,7.81-9.8,5-1.09,8.38,2,8.16,7.14-.33,7.57-5,12.83-9.32,18.28-3,3.76-6.11,7.46-8.86,11.41-2.39,3.43-1.81,6.58,2,8.83,1,.59,1.92,1.31,2.92,1.9,7.12,4.25,7.15,4.25,9.53-3.46,3-9.64,9.49-16.49,17-22.89,8.72-7.47,25.66-1.11,29,7.61a42.48,42.48,0,0,1,1.8,4.65c.84,3.36,2.37,5.54,6,6.9,6.29,2.36,6.92,7.34,2.44,13.83-3.37,4.87-2.95,7.43,2.58,10.5,10.53,5.85,12.23,16.22,12.92,26.43.51,7.64-5.71,12.4-11.31,16.71-1.91,1.47-2.7,2.33-1.64,5,3,7.68,1.92,9.33-6.05,10.61a5,5,0,0,0,.77,1.24c13.92,11,15.5,26.44,14.88,42.46-.31,8.31-1.45,16.58-2.15,24.87A66.69,66.69,0,0,0,305.82,350c2.92,9.21,0,16.26-8.71,20.54-3.16,1.56-3.28,3.06-2.18,5.64,1.18,2.74,2.75,5.37,3.51,8.23,2.48,9.35.43,18.21-4.12,26.44-2.57,4.65-7.27,4.64-10.57.39-2.79-3.59-3.5-7.82-3.44-12.25.07-5,.28-10-.13-15S280.09,374.06,280.09,368.42Z"/><path d="M272.8,294.77c-2.19-1.53-2.76-6.44-5.1-5.07s1.48,3.93,2.17,6.15c1.16,3.78,2.5,7.36,2.12,11.53-1.12,12.58,2.05,24.82,3.38,37.21.69,6.45,1.45,12.91,1.66,19.39.17,5.06-3.16,8.75-6.92,11.46-3.35,2.41-7.19.87-10.29-1.23-7.22-4.89-12.19-10.56-10.48-20.64A75.59,75.59,0,0,0,246.8,319c-5.22-17.42-7.88-35.05-3.19-53.15.7-2.68.84-3.74,4.17-3.08a43.4,43.4,0,0,0,28.61-4.07,48.71,48.71,0,0,1,4.95-2.36c2.46-.92,3.92-1.14,6.75,1.3,16.73,14.44,15.55,33.23,13.58,52.12-1.59,15.18-2.7,30.09,2.52,44.91,2.38,6.77-7.13,15.5-14.91,14.35-6.86-1-9.59-3.53-9.92-10.44-.57-11.67-2.64-23.14-4.1-34.69a103.58,103.58,0,0,1,.77-30.34c.24-1.43,2-3.63-.51-4.17-1.62-.35-1.56,2.17-2.11,3.47C273.16,293.46,273,294.1,272.8,294.77Z"/><path d="M217.66,155.94c3.28,5.58,4.45,9.43,1.42,14-2.1,3.18-.63,6.5,2.43,8.71,2.42,1.74,4.84,3.75,7.59,4.72,7.51,2.68,9.39,8.42,9.33,15.47,0,1.87,0,3.91,1.35,5.19A38.71,38.71,0,0,1,248,214.38c1.36,2.66,4.18,1.9,5.7-.41a24.41,24.41,0,0,1,7.52-7.11c2.42-1.55,3.23-4.05,3.17-6.93-.06-2.59.8-4.17,3.95-3.21,1.55.47,3.33.07,4.95.37,2.07.39,4.31-2.76,5.86-.33,1.82,2.86,4,6,3.55,9.62-1.46,11.6.48,21.94,8.23,31.3,2.44,2.94,2.49,8,3.27,12.11.38,2.05-1.65,2.39-3.09,2.29-6.83-.49-12.51,2.71-18.49,5.23-10.69,4.52-21.56,5.39-32.33,0-3.47-1.74-7.3-2.22-11-3.22-2.66-.73-3.84-2.27-4.51-5.16-2.17-9.31-3.38-18.57-1.82-28.12.54-3.33-1.83-5.93-3.6-8.53a259.86,259.86,0,0,1-14.63-23.2c-5.77-10.74-5.06-13.8,3.52-22.16C211.63,163.68,214.37,159.84,217.66,155.94Z"/><path d="M250.42,214.19c-1.75-5.08-3.9-8.54-7.62-10.78-.52-.31-1.15-1-1.12-1.56.49-8.92-6.05-17.19-1.82-26.59s10.37-16.89,19.29-22a6.51,6.51,0,0,1,5.72-.62c4.61,1.64,5.08,3.07,1.63,6.4-6.08,5.84-7.25,13.14-5,20.67,2.15,7.27,1.88,14.28.31,21.43a5.19,5.19,0,0,1-1.58,3C256.54,206.6,253.09,209.32,250.42,214.19Z"/><path class="cls-2" d="M285.26,210.41c3.34,1.64,6.52,2.87,9.58.44,3.3-2.62,2.45-6.15,1.49-9.94a8.71,8.71,0,0,1,1.89.82c10.48,8.54,9.83,26.85-1,34.65-2.06,1.48-2.81.53-4-.74C286.7,228.64,284.24,220.34,285.26,210.41Z"/><path class="cls-2" d="M283.14,370c2.85,1,7.21,1.39,7.67,2.93,1.72,5.7,5.64,10.62,5.94,16.76a38.38,38.38,0,0,1-4.09,18.75c-2,4.17-4.87,4.22-7.35.34a12.44,12.44,0,0,1-2.14-6.54C283.1,391.6,283.14,381,283.14,370Z"/><path class="cls-2" d="M263.15,173.69c.22-5.39,1.82-9.26,5-12.48,3.95-4,4.95-4.06,8,.82,2.9,4.59,5.54,9.16,2.68,15.16-1.33,2.8-.69,6.51-1.07,9.8-.49,4.37-2.57,5.45-6.36,3.18-3.62-2.18-6.6-4.9-7.12-9.51C264,178,263.45,175.44,263.15,173.69Z"/><path class="cls-2" d="M261.18,379.13c8.72-2.64,9.43,3.14,11,8.86,2.24,8-.8,14.75-4.18,21.33-2.06,4-8.26,2.54-9.88-2.42-1.72-5.27-2.24-10.8.71-15.94C261.08,387.09,262.39,383.12,261.18,379.13Z"/><path class="cls-3" d="M280.32,190.57c.29-4.86.35-8.19.72-11.48.27-2.35,1.07-4.74,3.75-5.34,3-.69,5.57.68,7.51,2.89a4.11,4.11,0,0,1-.4,5.91c-7.3,5.86-3,11.3.18,16.89,1,1.72,2.16,3.39,2.31,5.46.12,1.72-.05,3.43-1.94,4.16s-4.09.64-4.92-1.14C284.67,201.81,281.14,195.92,280.32,190.57Z"/><path class="cls-4" d="M237.93,137.83c-.46,5.12-1.63,9.31-4.91,12.81-2.48,2.67-4.54,5.73-6.81,8.59-.7.89-1.36,2.15-2.77,1.54-1.17-.5-1.49-1.67-1.52-2.92,0-1.72.16-3.43,1.4-4.66,3.34-3.33,4.31-7.38,3.91-11.89s2.89-6.1,6.38-6.9C236.46,133.75,237.9,135.53,237.93,137.83Z"/><path class="cls-5" d="M282.74,171q-1.65-4.36-3.28-8.74c3.13,2,3.27,5.31,4.57,8.11Z"/><path class="cls-6" d="M266.12,189.9l6.15,4C269.53,193.89,266,195.21,266.12,189.9Z"/><path class="cls-7" d="M234.92,3.44a10.75,10.75,0,0,1-.92-.86l-.18-.2c-.07-.09,0,0,0,0l-.07-.1a1.63,1.63,0,0,1-.11-.17l0-.1c-.05-.09.06.19,0,.06s0-.12-.05-.17,0,.21,0,.1v-.1c0-.13,0,.1,0,.09a.25.25,0,0,0,0-.08.41.41,0,0,0,0-.08s-.09.18,0,.06.08-.1.09-.15l-.06.07a.08.08,0,0,0,0,0l.08-.09.18-.15c.09-.09-.13.09,0,0l.13-.09a9,9,0,0,1,1.6-.83.76.76,0,0,0,.27-1,.79.79,0,0,0-1-.27,9.63,9.63,0,0,0-1.56.81,3.1,3.1,0,0,0-1,1,1.73,1.73,0,0,0-.19,1.24,2.51,2.51,0,0,0,.59,1.07,9.44,9.44,0,0,0,1.11,1.08.77.77,0,0,0,1.06,0,.75.75,0,0,0,0-1.06Z"/><path class="cls-7" d="M314.38,22.56c3.44-1.84,6.92-3.59,10.36-5.44.85-.45.1-1.75-.75-1.29-3.44,1.84-6.93,3.59-10.37,5.43-.85.46-.09,1.75.76,1.3Z"/><path class="cls-7" d="M168.38,24.22a38,38,0,0,1-3.59-2.12,39,39,0,0,1-3.23-2.59.76.76,0,0,0-1.06,0,.75.75,0,0,0,0,1.06A42.22,42.22,0,0,0,164,23.35a37.22,37.22,0,0,0,3.65,2.16c.85.46,1.61-.84.76-1.29Z"/><path class="cls-7" d="M236.12,23a.75.75,0,0,0,0-1.5.75.75,0,0,0,0,1.5Z"/></svg>