<svg id="Layer_1" data-name="Layer 1" xmlns="http://www.w3.org/2000/svg" viewBox="0 0 480 480"><defs><style>.cls-1{fill:#fbfafa;}.cls-2{fill:#010101;}.cls-3{fill:#020202;}.cls-4{fill:#030303;}.cls-5{fill:#0b0b0b;}.cls-6{fill:#504f4f;}.cls-7{fill:#fff;}</style></defs><path d="M.1,239.5Q.1,121.8,0,4.09C0,.67.67,0,4.09,0Q240,.17,475.91,0c3.42,0,4.09.67,4.09,4.09q-.17,235.91,0,471.82c0,3.42-.67,4.09-4.09,4.09Q240,479.84,4.09,480C.67,480,0,479.33,0,475.91Q.18,357.7.1,239.5Z"/><path class="cls-1" d="M194.74,176.73c-5.8-1.71-7.07-5-3.71-10.27,1.14-1.78,3-3.11,4.38-4.73.9-1,2.87-1.73,2.07-3.51-.66-1.45-2.41-1.81-3.88-1.9-3.15-.18-6.32-.06-9.48-.2-2.17-.1-4.8-.22-4.93-3-.11-2.44,2.25-3,4.27-3.34l4.18-.87c-1.73-2.47-4.39-2.67-6.46-3.83-1.69-.94-4.11-1.16-4.27-3.65-.14-2.32,2.27-2.57,3.65-3.74-.58-1.93-4.7-1.6-3.33-4.47,1.14-2.38,3.76-1.58,5.87-1.4a22.12,22.12,0,0,0,8.91-.55c14.59-4.75,30-4.85,44.9-5.42,8.77-.34,19.68,1.78,24.7,12.26a7.2,7.2,0,0,0,.86,1.21c1,1.36,3.61,2,2.73,4.24s-3.19,2.08-5.2,2.08c-1,0-2.29-.4-2.43.91a3.26,3.26,0,0,0,1.26,2.52c9.19,6,12.19,18.11,22.77,22.65.8.34,1.57,1.08,1.09,1.89a2.79,2.79,0,0,1-2.09,1c-5.62,0-10.94-.89-15.23-5-.65-.63-1.37-1.74-2.48-1.16s-.73,1.75-.65,2.7a12.83,12.83,0,0,0,7.52,11c1.26.64,3.41.77,3.27,2.59-.16,2-2.4,2-3.91,2.44-2.18.62-4.43,1-7.1,1.59,3.87,5,7.78,9.66,10.15,15.42,3.71,9,4.21,18.45,4.65,27.91.58,12.59,5.08,24.4,6.9,36.74.17,1.11,1.51,2.09,2.41,3,2.39,2.54,5.12,4.79,6.9,7.85,1.14,1.95,1.71,4.07.4,6.13-1.22,1.9-3.16,2.29-5.3,2a11.06,11.06,0,0,0-2-.25c-9.16.38-9.35.45-12.25-8.37-1.29-3.92-5.06-5.6-6.81-9-1.63-3.18-3.7-6.13-5.58-9.18l-1.24.52c3.09,8.43,5.79,17,9.37,25.25,3.38,7.79,6.84,15.5,9,23.75a24.92,24.92,0,0,0,2.7,7c11.27,18.12,15,38.94,21.25,58.87.8,2.55-.25,4.72-1.41,7.31-2,4.42-.39,9.49,1.3,14.11,0,.14.31.21.34.35,2.35,9.09,9,14.65,16.2,19.77a8.88,8.88,0,0,1,2.24,2.66c1.11,1.85,2.44,3.89,1.44,6.05-1.08,2.37-3.61,2.33-5.71,2-7.32-1.16-13.84,3.25-21.1,2.77-6.94-.46-8.76-1.9-9-9-.29-8-.09-15.91.22-23.88.11-3-1.44-6.09-2.1-9.16-.31-1.44-1.33-1.21-2.27-1.27-2-.12-4-.18-6-.32-5.84-.39-9.64-3.15-10.78-9.15-1.29-6.87-3.12-13.66-4-20.57a51.31,51.31,0,0,0-12.49-27.75c-7.08-8.33-14.28-16.6-20.74-26.55C222.34,318,215.66,331.55,215.13,347c-.21,6.12-1.16,11.87-3.84,17.36a91.82,91.82,0,0,0-6.06,16.88c-.95,3.56-2,7-5.6,9.05-2.25,1.31-1.73,3.89-1.79,5.91-.27,9.11-.24,18.22-.46,27.33-.15,6-2.71,8.18-8.37,7.61-7-.71-10.11-3.74-9.3-9.46a12.85,12.85,0,0,0-.48-5.88c-1.89-5.94-.21-11.52,1.93-17,.35-.89,1-2.11,1.76-2.32,6.48-1.81,3.35-6.88,3.52-10.65.07-1.49-1.06-3.18-.79-4.83,1.7-10.6.82-21.28,1.06-31.92.28-12.25,3.58-24,5.89-35.92,1.21-6.24,2.08-12.42,1.51-18.83A96.15,96.15,0,0,1,199,254.48c.83-2.46.87-4-1.64-5.74-4.08-2.89-6.19-7.51-7-12.29-.6-3.28-2.09-4-4.93-4a23.34,23.34,0,0,1-4.46-.55c-9-1.7-12.5-7.18-11-16.21,2.5-14.87,10.17-26.51,21.62-36C192.68,178.83,194.26,178.34,194.74,176.73Z"/><path d="M282.51,385.39c-11.69-.49-12.64-1.2-15-11.92a177.25,177.25,0,0,1-3.22-17.66c-1.16-10.16-5.48-18.71-12-26.37q-5.81-6.85-11.42-13.88c-4.15-5.18-8.54-10.23-11-16.56-.39-1-.62-2.54-2.22-2.1-1.34.37-.81,1.59-.56,2.5.42,1.47-.41,2.53-1,3.72C218.65,319,211.72,335,212,353.05a17.78,17.78,0,0,1-1.94,7.16,161.08,161.08,0,0,0-7.86,21.53c-1.68,6-3.92,7.34-8.89,5.95-4.64-1.3-5.47-4.65-4.79-9a48.87,48.87,0,0,0,.8-10.43c-1.18-19,1.92-37.5,6.18-55.88a57.88,57.88,0,0,0,1.33-18.83c-1.28-13.13.84-25.84,4.7-38.38.95-3.09,2-3.36,4.82-2.37,11.45,4,22.82,8.34,34.79,10.61,4.91.93,9.9,1.88,14.74-.19,1.89-.8,2.42.17,2.79,1.55,4.3,15.94,13,30.22,17.25,46.2a39.23,39.23,0,0,0,5.36,11.74A50.6,50.6,0,0,1,288,337.64c3.46,12.67,8.52,24.85,11.6,37.66.95,4,.39,6.1-3.67,7.54A41.15,41.15,0,0,1,282.51,385.39Z"/><path d="M251.75,226.18a107.48,107.48,0,0,0,6.71,28.46c1.1,2.78.29,3.76-1.7,5a14.07,14.07,0,0,1-10,1.88c-15.62-2.2-30.22-7.93-44.86-13.35-6.73-2.5-8.23-9.11-9.6-15.38-.32-1.46-.25-3-.58-4.45-.28-1.21-1.82-2.5-2.19-.93-1,4.19-3.75,2.36-5.77,2.09-10.37-1.39-12.69-5.45-10.58-15.79,3-15,12-25.64,23.67-34.59,2.18-1.66,3.92-2.19,6.55-.49a38.83,38.83,0,0,0,28.64,6c8.8-1.55,17.14,1.07,24.84,4,5.86,2.23,9.33,8.8,12,14.8a45.86,45.86,0,0,1,4.43,17.31c.44,14.89,3.13,29.43,7,43.76.75,2.73.38,4.69-1.77,6.65-3.23,3-5.6,2.66-8.05-1-11.11-16.48-17.94-34.09-14.76-54.43.17-1.06.82-2.58-.82-2.92s-1.66,1.21-1.86,2.31c-.3,1.64-.61,3.28-.8,4.93C252,221.89,251.93,223.72,251.75,226.18Z"/><path d="M182.73,153c3.44-1.44,7.5-.35,7.74-4.1.21-3.38-3.31-4.13-5.83-5.31-1.36-.63-2.73-1.22-4.41-2,2.36-1.77,5.22-3.36,1.89-7.15a33.89,33.89,0,0,0,15.57-2c4.14-1.41,8.46-1.62,12.81-1.79s9.15,0,13.37-1.27c10.48-3.1,19.92.29,29.51,3.49,4.55,1.52,4.9,6.45,8.36,9.72-2.75.72-6.49-.73-6.94,3.19-.41,3.67,2.2,5.74,4.74,7.67,6,4.56,9,11.35,13.41,17.21-3-.3-4.63-2.4-6.69-3.87-1.33-1-2.66-2.18-4.51-1.22s-2.26,2.79-2.26,4.68c0,6.17,3,10.68,8.41,14.24-5.92,2.22-11.26,1.38-16.45-.29a50.17,50.17,0,0,0-22.66-2c-8.07,1.12-15.52-.95-22.48-4.92-3.36-1.91-6.66-3.68-10.71-3.58-3.66.1-4.18-1.83-2.8-4.85,1.09-2.38,3.14-3.83,4.94-5.54,1.59-1.49,3.4-3,2.69-5.47s-3-3.33-5.31-4C191.37,152.79,187.5,153.9,182.73,153Z"/><path class="cls-2" d="M289.61,412.54c0-2.66-.1-5.32,0-8,.12-2.49-.69-5.49,3.25-6.13,3.57-.59,7.9.07,8.61,3.07,2,8.36,8,12.64,14.28,17a8.88,8.88,0,0,1,1.42,1.39c1.34,1.46,3.35,3,2.63,5s-3.22.82-4.89.88c-4.18.16-8.3.43-12.2,2.15-3,1.35-6.23.74-9.35.58-2.4-.12-3.46-1.79-3.61-4-.26-4-.46-8-.68-11.95Z"/><path class="cls-3" d="M194.76,412.6c0,3.65-.11,7.31,0,11,.11,3-1,5.11-4.1,4.93s-8.41-.48-8.16-3.91c.44-5.78-2.29-11.13-1.15-16.73.21-1-.86-4,2.78-2.61,1.51.59,1.27-2.48,1.73-3.94.36-1.15-.18-4,2.19-2.33,2.18,1.51,6.65-2,6.85,3.17.14,3.48,0,7,0,10.45Z"/><path class="cls-4" d="M288.05,284.85H285.1c-1.86,0-3.69,2.24-5.55.21a14.09,14.09,0,0,1-3.33-7.65c-.39-2.9,3.36-3,4.86-4.88,1.15-1.43,2,.21,2.74.93,2,2,4,4,5.83,6.12,1.1,1.24,2.22,2.74,1.42,4.48S288.47,284.84,288.05,284.85Z"/><path class="cls-5" d="M294.46,395.59c-2.37.09-5.58,1.9-5.34-2.09.27-4.6,4.84-2.57,7.34-3.58,2.77-1.12,1.81,2,2.06,3.25C299.56,398.25,295.31,394.27,294.46,395.59Z"/><path class="cls-3" d="M192,390.21c1.11.73,4.39-.66,3.39,3.3-.56,2.2-.87,3.64-3.59,3.4-4-.34-2.18-3.29-2.48-5.23S190,389.3,192,390.21Z"/><path class="cls-6" d="M287.94,387.82l9.84-2.82C294.8,388.2,292.62,388.81,287.94,387.82Z"/><path class="cls-7" d="M283,227.37A18.51,18.51,0,0,1,289.61,243a1.5,1.5,0,0,0,1.5,1.5,1.54,1.54,0,0,0,1.5-1.5,21.3,21.3,0,0,0-7.49-17.77,1.54,1.54,0,0,0-2.12,0,1.51,1.51,0,0,0,0,2.12Z"/></svg>