<svg id="Layer_1" data-name="Layer 1" xmlns="http://www.w3.org/2000/svg" viewBox="0 0 480 480"><defs><style>.cls-1{fill:#fbfafa;}.cls-2{fill:#010101;}.cls-3{fill:#070707;}.cls-4{fill:#0a0a0a;}.cls-5{fill:#090909;}.cls-6{fill:#1d1c1c;}.cls-7{fill:#1b1a1a;}.cls-8{fill:#fff;}</style></defs><path d="M479.91,240q0,117.92.09,235.83c0,3.27-.46,4.17-4,4.16q-235.85-.17-471.71,0C.51,480,0,479,0,475.59Q.15,240,0,4.43C0,1,.47,0,4.26,0Q240.12.2,476,0c3.54,0,4,.86,4,4.16Q479.84,122.09,479.91,240Z"/><path class="cls-1" d="M224.75,332.73a79.82,79.82,0,0,1-15.65,2.44c-2.71.2-4.61.77-3.22,4.61,2.7,7.5,4.94,15.16,8.12,22.51,3.36,7.78,6,15.85,6.39,24.41.37,7.27,3.36,13.29,7.65,19.07s4.05,8.74.6,12.52c-.92,1-1.94,2.17-3.34,1.84-4.5-1-7.2,1.85-10,4.43a42.93,42.93,0,0,1-13.21,8.81,14.78,14.78,0,0,1-5.78,1.39c-6.77-.11-9.39-4.33-6.23-10.31a30.58,30.58,0,0,1,8.53-9.68c9.12-7.08,11.08-14.2,6.64-25.79-2.43-6.34-5.47-10.65-12.82-10.67-2.46,0-4.92-.79-7.37-1.26-4.24-.81-6.92-3.29-7.48-7.6-2-15.18-4.46-30.31-3.37-45.73.25-3.48,2.23-5.86,4.49-8.05,7-6.8,15.26-11.75,24.09-15.78,6.66-3,13.32-6.08,20.07-8.88,2.66-1.1,3.91-2.63,3.94-5.53a44.93,44.93,0,0,1,4.9-19.7c1-1.93,1.3-3.39-1.14-4.86-3.91-2.35-4.61-6.05-2.33-9.94a21.41,21.41,0,0,0,2-18.2,15.86,15.86,0,0,1,1.91-13c4.09-6.74,1.37-13.06-1.16-19.09-2.62-6.28-6-12.25-7.46-19-1.54-7.05-.27-9.95,5.87-13.68a25.11,25.11,0,0,0,4.59-3c9.05-8.69,21.29-11.7,31.69-18,3.79-2.28,7.6-1.75,10.68,2,3.79,4.62,3.3,7.16-2.92,10,8.2,4.47,10.06,12.64,13.13,20.09a13.48,13.48,0,0,1,1.37,5.77,68.66,68.66,0,0,0,2.64,21.44c1.62,5.92-3.48,9.39-4.55,14.77,7.64,1.2,10.79,6.64,11.92,14.1.41,2.7,2.09,5.21,3.17,7.81.88,2.12,1.13,4.25-.56,6.08s-3.66,1.2-5.61.71c-.8-.2-1.55-.6-2.34-.87-5.83-2-6.4-1.69-8,4.3a18.32,18.32,0,0,1-.59,1.91c-2.39,6.31-4.24,13.21-13.92,11.28a53.82,53.82,0,0,1,5.52,30c-.81,8-5.36,13.88-11.74,18.32a9.83,9.83,0,0,0-4.32,6.82c-1.55,8-3.41,15.94-5.17,23.9-.8,3.61-.35,6.37,2.89,9.11,7.52,6.35,13.76,14,19.6,21.92a57.68,57.68,0,0,0,8.31,9.28c1.76,1.55,3.4,2.91,6.19,1.85a4.26,4.26,0,0,1,5.46,2.44c3.06,7.72,8.85,14.11,10.68,22.44,1,4.55-.12,7-4.58,8.22-3.28.89-7,1.32-9.82-.12-3.49-1.79-6.32-.92-9.45,0a36.44,36.44,0,0,1-15.79,1.47c-4.08-.57-7.44-2.32-8.21-6.76s2.61-6.12,5.87-7.53c2.89-1.25,6-2,8.86-3.34,2.06-.94,5.39-1.31,4.33-4.89s-5.5-6.21-8.53-5.05c-5,1.91-9.79,4.19-14.72,6.19-6,2.4-8.18,2-11.12-3.59q-9.17-17.41-17.45-35.28c-3.79-8.15-2.88-16.93-2.15-25.58C224.82,335.25,224.75,334.27,224.75,332.73Z"/><path d="M229.48,288a48.93,48.93,0,0,1,4.83-21.52c.77-1.64,1.07-2.77,3.45-1.67,8.44,3.89,17.38,4.39,26.4,2.63,2.51-.49,3.48.15,4.49,2.33a49.46,49.46,0,0,1,4.15,26.79,20,20,0,0,1-6.53,12.59,44.93,44.93,0,0,1-12.68,8.77c-14.13,6.19-27.92,13.5-43.8,14.38a24.92,24.92,0,0,0-2.94.55c-3.71.68-5.65,1.65-4,6.46,3.34,9.76,6.44,19.59,10.83,28.95,2.05,4.38.72,6.9-3.68,8.28-2.08.65-4.14,1.52-6.33,1.15-6.07-1-12.11-2.23-18.16-3.35a6.1,6.1,0,0,1-5.33-5.79c-1.45-13.22-3.75-26.36-3.41-39.77a17.47,17.47,0,0,1,7.35-14.43A122.63,122.63,0,0,1,211.44,299c6.58-2.79,13-5.88,19.5-8.93a25.28,25.28,0,0,0,4.62-2.91c.83-.64,2.11-1.57.79-2.82-1-1-1.75.22-2.51.74C232.62,285.93,231.39,286.74,229.48,288Z"/><path d="M257,319.27c-1.11,9.37-3.49,17.67-5.38,26.07-1,4.65-.17,8,3.74,11.22,8.85,7.4,15.7,16.69,22.65,25.84,2,2.59,1.67,4.74-1.26,6-8,3.57-16.17,7-24.27,10.4-2.21.94-3.9.11-5-1.91-1.44-2.62-3-5.18-4.19-7.91-3.05-7-6.17-14-10.3-20.46-7.06-11-6.55-23-5.34-35.26.25-2.56,2.28-2.64,3.84-3.24C239.85,326.81,248.41,324.07,257,319.27Z"/><path d="M251.09,196.08c1.85,12.52,10.38,19.91,15.7,29.14.4.7,1.07,1.73,1.66,1.75,6.34.29,6.05,5,6.56,9.37.53,4.52,1.26,9,6.31,11a2.57,2.57,0,0,1,1.4,1.24c1.61,4.72-5.72,14.92-10.77,15.3-3.81.3-7.59.91-11.37,1.42a41.56,41.56,0,0,1-26.85-5.45c-3.65-2.08-5-4.61-2.63-8.56a21,21,0,0,0,2.08-17.74,16.23,16.23,0,0,1,1.61-13c.42-.75,1-2.47,1.88-1.31,2.94,4,4.74.34,7.32-.38,4-1.12,3.6-3.9,4.51-6.71C250.05,207.31,247.89,202.09,251.09,196.08Z"/><path d="M284.17,216.9c-6.93-3.84-12.43-2.75-17.16,3.73-3.89-6.63-9.5-12-12-19.38-1.47-4.38-1.25-8.19,2.7-11.11,3.74-2.76,7.4-4.44,12.26-1.6,5.06,3,11.08,4,14.38,9.91C288,204.85,289.94,210.8,284.17,216.9Z"/><path class="cls-2" d="M279.37,395.28c3.91-1.61,7.47-3,10.93-4.55,2.05-.93,3.84-.74,4.55,1.33,2.38,6.95,7.8,12.37,9.57,19.65,1.18,4.87.49,6.38-4.53,6.78-2.58.2-5.31.45-7.62-1.39s-4.83-.28-7.1.29c-4.69,1.16-9.3,2.53-14.21,2.31a13.87,13.87,0,0,1-5.8-1.25,4.78,4.78,0,0,1-2.92-3.79c-.17-2,1.33-3,2.87-3.66,3.51-1.48,7.14-2.69,10.67-4.15C282.27,404.17,283.16,401.39,279.37,395.28Z"/><path class="cls-2" d="M196.8,432c-5,0-6.42-2.11-4.22-6.25,2-3.72,5.08-6.49,8.23-9.22,4.4-3.8,8.43-7.66,9.36-14.06.52-3.63,5-2.28,7.46-3.55,1.78-.9,2.56.05,3.45,1.49,2,3.24,4.45,6.22,6.23,9.56,2.3,4.32.39,7.25-4.52,7.27-3.53,0-5.81,2.27-8.13,4.32-4,3.53-7.95,7-12.95,9.08C200,431.27,198.38,432.15,196.8,432Z"/><path class="cls-2" d="M239.68,218c-5.72-8.94-3.2-19.56-5.56-29.31-.52-2.12.13-4.33.9-6.36a56,56,0,0,0,3.25-13c.64-5.35,3.54-9,9-9.94,4.76-.84,8.08-5.49,13.67-4.88-1.31,2.78-3.78,3.68-6.08,4.79-10.44,5-14,13.36-10.23,24.14,1.26,3.57,1,7.64,3.6,10.78a1.46,1.46,0,0,1,.15,1.35c-2.5,3.59-1.56,7.63-1.76,11.57C246.35,212.08,245.45,216.94,239.68,218Z"/><path class="cls-2" d="M251.59,193.36c-8.93-10.3-7.57-25.08,2.45-30.69,2.59-1.45,4.54-1.34,6.57.79,3.44,3.59,5.9,7.7,6.33,12.69.37,4.27-.06,8-5.72,9C256.85,186,253.84,189.43,251.59,193.36Z"/><path class="cls-2" d="M276.76,217.37c.85,0,1.79-.05,2.17.83,1.9,4.38,6.09,5.31,10,6.76a7.79,7.79,0,0,1,5.25,6.15,40.3,40.3,0,0,0,4.16,12.21c.64,1.16,1.32,2.52.2,3.66s-2.56.25-3.71-.21a22.25,22.25,0,0,0-8.26-1.61c-6,0-8-1.67-8.6-7.86-.51-5.68-1.45-10.88-7-14-1.76-1-.75-2.27,0-3.32C272.44,218.08,274.62,217.75,276.76,217.37Z"/><path class="cls-2" d="M285,193.85c-3.38-3.65-7.64-5.29-12-6.75-3.23-1.09-4.51-2.66-3.65-6.61,1.9-8.75-2.86-15.21-8.76-21,4.09-4.32,5.15-4.16,9.8-.63,7.93,6,11.5,14.63,14.56,23.54C286.14,186.06,284.12,189.87,285,193.85Z"/><path class="cls-3" d="M231.74,194.79a42.24,42.24,0,0,1-5.49-13.28c-1.59-7.11-.79-8.26,9.15-13.65.13,4.78-1.19,9.07-2.86,13.24C230.73,185.61,231.51,190.18,231.74,194.79Z"/><path class="cls-4" d="M217.54,384c.3,3,.08,5.6.9,7.85,1.36,3.77-.67,4.23-3.49,5.08-3.43,1-5.29.52-5.42-3.35a3.57,3.57,0,0,0-.44-1.41c-2.16-4-1.77-6.47,3.6-6.45C214.2,385.7,215.72,384.66,217.54,384Z"/><path class="cls-5" d="M262.94,151.56c7-4.15,9.55-4,12.3.47,1.46,2.38.86,3.27-1.85,3.17A17,17,0,0,1,262.94,151.56Z"/><path class="cls-6" d="M209.73,383.74c-2.7.15-4.34-.16-4.67-1.84-.52-2.61,2-1.4,3-1.94a52.5,52.5,0,0,1,5.46-2.16c.88-.32,1.89-1.91,2.66.13.5,1.36,1.33,2.73-.6,3.78A17.24,17.24,0,0,1,209.73,383.74Z"/><path class="cls-7" d="M285.66,389.41c-3.29,2-6.06,3.12-9.25,3.16C279.5,392.06,280,385.27,285.66,389.41Z"/><path class="cls-8" d="M145.38,110.65a.75.75,0,0,0,0-1.5.75.75,0,0,0,0,1.5Z"/></svg>