<svg id="Layer_1" data-name="Layer 1" xmlns="http://www.w3.org/2000/svg" viewBox="0 0 480 480"><defs><style>.cls-1{fill:#fbfafa;}.cls-2{fill:#010101;}.cls-3{fill:#020202;}.cls-4{fill:#060606;}.cls-5{fill:#0a0a0a;}.cls-6{fill:#0e0d0d;}.cls-7{fill:#121111;}.cls-8{fill:#fff;}</style></defs><path d="M479.91,240q0,117.92.09,235.83c0,3.26-.44,4.18-4,4.18q-235.86-.18-471.71,0C.54,480,0,479.06,0,475.59Q.15,240,0,4.43C0,1,.45,0,4.26,0Q240.11.2,476,0c3.53,0,4,.84,4,4.15Q479.84,122.07,479.91,240Z"/><path class="cls-1" d="M235.55,328.84c-.73,8.47-4.45,15.17-7.6,22-5.08,11-10.57,21.86-16,32.73-3.35,6.74-5.31,7.06-10.36,1.92a17.9,17.9,0,0,0-5.24-3.77c-2.79-1.29-9.16,1.49-9.38,4.47-.18,2.31-.63,5.63,3.86,5a25,25,0,0,1,9.9.91c3,.81,6,2,6.24,5.56s-2,5.95-5.06,7.33a41.14,41.14,0,0,1-18.42,3.8c-1.84-.07-3.36-.64-5,1.65-2,2.72-14.08,2-17.22-.27-3.38-2.47-4.86-9.32-2.41-14.31s5.51-9.47,8.4-14.13a3.69,3.69,0,0,1,3.77-1.9A5.26,5.26,0,0,0,176.9,375c.45-3.69,2.59-6,4.56-8.62,6.77-9,14.9-17.14,18.14-28.41a4.84,4.84,0,0,1,1.58-2.5c9.4-6.66,7.75-16.54,7.27-25.83a49.76,49.76,0,0,0-6.28-21.83c-4.31-7.82-3.59-16.57-.82-24.8,2-5.87,1.43-10.54-1-16.44-2.66-6.31-6.34-11.78-9.64-17.57-2.18-3.83-4.48-7.89-1.48-12.1s7.65-4.8,12.83-3.4c-.23-12.43-.31-24.64,8.22-35.17-4.75-.74-9.07-1.15-11.36-5.7-.85-1.66-2.87-1.36-4.55-1.08-3,.5-5.89,1.18-8.87,1.44-2.59.22-5.22-.79-4.15-3.88,1.12-3.26-.86-3.46-2.74-3.78-4.16-.71-7-2.2-5.87-7.21.42-1.84-1.22-2.49-2.46-3.32s-3.46-1.38-2.74-3.53c.57-1.69,2.48-1.37,3.93-1.54a24.44,24.44,0,0,1,2.48,0c-1.5-2.47-1.71-5.11-5-6.19-2.51-.83-1.1-2.46.5-3.53a22.14,22.14,0,0,1,17.16-3.59c12.15,2.53,23.8.72,35.43-2.82,14.1-4.29,24,3.91,24,18.71,0,6.45,1.35,12.8-2,18.8-.41.72-.42,1.79-1,2.27-4.49,3.82-3.73,7.8-.45,11.64,4.12-7.66,6.88-16.14,9.28-24.78.51-1.82-.54-2.45-1.18-3.42-2.53-3.81-1.92-7.46,1-10.47,3.14-3.22,7.35-3.87,11.56-2.51,2.39.76,2.89,3.18,2.47,5.43a20.72,20.72,0,0,1-1.87,4.58c-1.48,3.24-3.51,6.22-1.6,10.19.66,1.37-.1,3.62-.64,5.33A114.4,114.4,0,0,0,257,192.84a26.68,26.68,0,0,1-5.19,13.33c-.82,1.1-2.32,1.9-1.38,3.84,3.71,7.66,2.54,16,3,24.08.37,5.81.24,11.64,1.43,17.39,1.11,5.36-.2,9.92-4.83,13.2a4.61,4.61,0,0,0-2.2,4.6,28.58,28.58,0,0,1-.82,10.41,4.52,4.52,0,0,0,1,4.53c8.3,10,16.32,20.19,26.59,28.37,12.31,9.81,12,24.16,12.68,37.87.3,5.76-1,11.59-1.56,17.4-.45,5-2.72,8.55-7.77,9.74-3.24.76-4.6,2.63-4.82,5.87a54.89,54.89,0,0,1-1.32,7.36c-.41,1.93-1.12,3.65,1.34,5.05,1.56.9,1.56,3.12.64,4.54-1.91,2.94-.25,4,2,5.24a46.39,46.39,0,0,1,14.86,11.59c2.08,2.56,3.5,5.48,2,8.76s-4.75,4-8,3.93a39.06,39.06,0,0,1-22.39-7.44c-1.54-1.09-2.62-2-4.71-.57-2.49,1.65-4.64-.71-6.82-1.73-12-5.67-8.88-15.48-3.25-23a19.29,19.29,0,0,1,2.53-2.41c6.15-5.69,6.71-12.69,1.52-19.43-1.46-1.88-1.49-4-1.11-6.19,1.06-6.06,2.07-12.14,3.28-18.17.84-4.16-.25-7.15-4.29-8.93a20.89,20.89,0,0,1-7.55-5.62C239.9,334.11,237.94,331.71,235.55,328.84Z"/><path d="M285,350.16c-.64,5.53-1.4,12.14-2.17,18.75-.34,2.92-2,4.57-4.69,5.81a27.79,27.79,0,0,1-20.43,1.15c-3.54-1.07-5.29-3.06-4.51-7,1.2-6,2.17-12.11,3.33-18.15.93-4.88-.57-8.55-5.15-10.69a26.88,26.88,0,0,1-9.8-8.29C232.13,319.68,222.18,308,211.61,297c-9.66-10.13-11.52-21.65-7.38-34.61.71-2.2,1.31-2.87,4-2.13,11.2,3,22.36,6.46,34.07,7,2.2.1,3,.84,2.83,2.92-.1,1.33.36,2.81-.09,4-2.73,7.11.7,11.92,5.17,17.06,5.57,6.4,10.29,13.84,17.3,18.57C281.85,319.39,284,333.8,285,350.16Z"/><path d="M206,255.62c7.72,1.18,14.83.72,21.52-3.13a14.81,14.81,0,0,0,6.68-17.22c-.26-.83-.43-1.71-1.5-1.54s-1.21,1-1.13,1.9c0,.33.1.66.11,1a16.28,16.28,0,0,1-22.6,15.84c-4.54-1.77-6.68-5.8-7.9-10.3-.39-1.43,0-1.9,1.73-1.86a27.72,27.72,0,0,0,10.7-2c3.88-1.5,5.42-3.47,2.54-7.23a14.67,14.67,0,0,1-1.3-2.6,4.06,4.06,0,0,1,1-.13c1.74.39,2.76,4.33,4.63,1.93,1.24-1.6-1.9-2.94-3.21-4.32-1.9-2-4.88-1.47-6.94-3.53-4.11-4.13-6.19-8.35-5.78-14.57.64-9.76,1-19.31,7.44-27.41,1.48-1.87,2.52-3.7,4.57-.31,2.19,3.63,6.14,3.69,9.83,3.47,4-.22,8.71-2.37,11.61-.35,3.09,2.15,1.38,7.45,2.21,11.3.61,2.79,1.27,5.62,3,7.9,6.09,8.17,7.53,17.53,7.59,27.36.06,8,.2,16,1.58,23.89.92,5.27-3.52,10.92-8.61,10.76-12.37-.39-24.17-4-36-7.4C207.08,256.9,206.56,256.12,206,255.62Z"/><path d="M209.89,298.77c7.7,8.83,14.89,16.39,21.19,24.63,2.43,3.18,2,7.9.49,12-6.34,16.64-15.23,32.09-22.71,48.2-.62,1.33-1.67,4.17-3.84,1.49-4.69-5.78-11.14-7.3-18-8.41-8.57-1.38-8.57-2-3.35-8.72,7-9,15.13-17.34,18.37-28.76a2.65,2.65,0,0,1,.72-1.29c11.94-9.59,8.92-22.4,7.57-34.86C210.22,302.11,210.13,301.18,209.89,298.77Z"/><path d="M184,170.43c1.7-4.87-.44-6.88-4.52-7.64-2.74-.51-5.34-1-4.06-5,.66-2.09-1.39-3.5-3.73-5.82,3.49.54,5.67.89,7.86,1.2,1.83.26,4,.7,4.55-1.7.6-2.62-1.69-3.86-3.57-3.81-4.57.13-6.17-2.88-7.78-6.22,4.3-3,9.22-3.08,13.95-2.18,12.3,2.36,24.16.8,35.9-3,2.85-.92,5.74-1.75,8.8-1.43,1.54.16,3.11.51,3.67,2.11s-.85,2.4-1.79,3.25c-5.59,5-10.35,10.77-15.29,16.39-2.24,2.55-3.27,5.4-1.6,8.18,2.32,3.87,2.27,7.25-.78,10.36-1.43,1.45-11.66.14-12.76-1.86-3.24-5.89-8.12-4.55-13.06-3.66C188,169.88,186.26,170.1,184,170.43Z"/><path class="cls-2" d="M283.51,427.26a38.06,38.06,0,0,1-20.3-7.48c-2-1.48-3.52-2.38-6.19-.86-3.09,1.77-12-5.09-11.75-8.73.4-5.93,2.73-10.86,7.74-14.35.9-.63,1.44-1.72,2.81-.41,3.62,3.42,8.06,3.58,12.58,2.46,2.91-.71,4-.16,2.39,2.74-1.88,3.39-.21,5.22,2.64,6.73,5.3,2.81,10.31,6.06,14.33,10.58,1.62,1.82,3.64,3.83,2.57,6.56C289.11,427.61,286,427,283.51,427.26Z"/><path class="cls-2" d="M235.68,180.07c-4.13.27-8.26.88-12.38.72-4.53-.17-5.62-2.32-3.78-6.41,1.51-3.34,2.28-6.48-.24-9.81-1.4-1.85-1.29-3.94.49-5.86,4.41-4.73,8.6-9.66,13.07-14.34,3.23-3.39,6.25-3.07,7.9,1.19,3.48,9,5,18.16-.42,27.16-1.74,2.9-3.93,3.73-7.11,2.63a20.54,20.54,0,0,1-7.75-5.26c-.68-.67-1.44-1.69-2.43-.62s-.05,1.82.6,2.57C226.82,175.8,231.06,177.83,235.68,180.07Z"/><path class="cls-2" d="M183.63,406c-3-.17-6-1.45-8.07,2.58-1,1.91-11.14.89-12.83-.92-2.94-3.16-2.92-7.16-1.39-10.72,1.63-3.76,4.28-7.07,6.33-10.66.9-1.58,1.73-.95,2.79-.39a18.26,18.26,0,0,0,9.07,2.29c2.86-.1,5.62-.62,5.19,3.93-.17,1.85,1.92,1.85,3.46,1.82,3.8-.09,7.62-.41,11.37.7,1.91.56,4.29.76,4.58,3.13.33,2.72-1.81,4.16-4,5.06A38.52,38.52,0,0,1,183.63,406Z"/><path class="cls-3" d="M248.37,205.74c-4.46-6.31-7.26-12.3-3-20.2,3.48-6.5,6.78-13.34,7.78-20.89.22-1.7.56-3.58,3-2.63,1.78.68,4.08,1.1,3.47,3.95-.14.65-.28,1.31-.48,1.94a132.71,132.71,0,0,0-5,25.37A20.45,20.45,0,0,1,248.37,205.74Z"/><path class="cls-2" d="M204.39,237.6c-3,.38-5.12-1.33-6.92-3.32a35.65,35.65,0,0,1-6-9.7c-1.21-2.72-1.64-5.6,1.42-7.52s6.22-2.47,9.15.29a71.07,71.07,0,0,1,10.7,13.1c2.31,3.55,1.49,5.38-2.44,6.17C208.33,237,206.35,237.28,204.39,237.6Z"/><path class="cls-4" d="M258.26,146.17c4.63-.5,5.46,1.16,4.37,4a25.12,25.12,0,0,1-2.29,4.39c-1,1.62-.23,5.07-3.17,4.66s-4.34-3.45-5.08-6.09.6-4.89,3.1-6.1A13.51,13.51,0,0,1,258.26,146.17Z"/><path class="cls-5" d="M265,386.65a11.24,11.24,0,0,1-6.27-2c-1.77-1.25-1.76-3.36-1.32-4.94.5-1.79,2.22-.35,3.39-.27a39.47,39.47,0,0,1,5.86.62c1.45.31,3.95-1.55,4.2,1.47.23,2.78-1,4.75-4.17,4.91C266,386.47,265.36,386.6,265,386.65Z"/><path class="cls-6" d="M188.66,380.16c-4.34,5.68-9.32,7.13-15.43,3.8C179.38,377,179.38,377,188.66,380.16Z"/><path class="cls-7" d="M269.25,389.19c-.75,6.56-4.47,8.5-9.9,5.62-2.46-1.31-2.54-3.34-2-5.54.77-3.2,2.51-.5,3.79-.47C263.75,388.85,266.36,389,269.25,389.19Z"/><path class="cls-8" d="M277.78,133.23a1.5,1.5,0,0,0,0-3,1.5,1.5,0,0,0,0,3Z"/><path class="cls-8" d="M251.59,130.7a1.5,1.5,0,0,0,0-3,1.5,1.5,0,0,0,0,3Z"/><path class="cls-8" d="M288.76,157.73a1.5,1.5,0,0,0,0-3,1.5,1.5,0,0,0,0,3Z"/><path class="cls-8" d="M180.08,190.46a1.5,1.5,0,0,0,0-3,1.5,1.5,0,0,0,0,3Z"/><path class="cls-8" d="M145.44,168.5a1.5,1.5,0,0,0,0-3,1.5,1.5,0,0,0,0,3Z"/><path class="cls-8" d="M152.11,186c-4.59-2.81-9.52-5.68-15-5.95s-10.25,3.23-15.61,2.53c-.81-.11-1.49.76-1.5,1.5a1.54,1.54,0,0,0,1.5,1.5c5.16.68,9.69-2.51,14.76-2.55,5.26,0,10,2.91,14.37,5.56,1.65,1,3.16-1.58,1.51-2.59Z"/><path class="cls-8" d="M117.29,205.88a1.5,1.5,0,0,0,0-3,1.5,1.5,0,0,0,0,3Z"/></svg>