<svg id="Layer_1" data-name="Layer 1" xmlns="http://www.w3.org/2000/svg" viewBox="0 0 400 275"><defs><style>.cls-1{fill:#e2c287;}.cls-2{fill:#d9b77d;}.cls-3{fill:#ecd19d;}.cls-4{fill:#d8b982;}.cls-5{fill:#f5dfad;}.cls-6{fill:#d3ba8d;}.cls-7{fill:#eaca8e;}.cls-8{fill:#e8d4aa;}.cls-9{fill:#ebcd96;}.cls-10{fill:#e5c68e;}.cls-11{fill:#dcc79a;}.cls-12{fill:#dab97f;}.cls-13{fill:#dabc87;}.cls-14{fill:#ba9d69;}.cls-15{fill:#c8ac7c;}.cls-16{fill:#dfc492;}.cls-17{fill:#c4a97a;}.cls-18{fill:#e7cb92;}.cls-19{fill:#ddbe86;}.cls-20{fill:#c7ad80;}.cls-21{fill:#a57940;}.cls-22{fill:#e0d2ac;}.cls-23{fill:#b39665;}.cls-24{fill:#e8cc99;}.cls-25{fill:#cfaf78;}.cls-26{fill:#dac091;}.cls-27{fill:#c6a977;}.cls-28{fill:#dbc093;}.cls-29{fill:#eccfa1;}.cls-30{fill:#8d693d;}.cls-31{fill:#9e865f;}.cls-32{fill:#b89b6d;}.cls-33{fill:#d8c196;}.cls-34{fill:#d9bb87;}.cls-35{fill:#eed5a9;}.cls-36{fill:#d0ac79;}.cls-37{fill:#efdbb2;}.cls-38{fill:#ccae7d;}.cls-39{fill:#e7d1a8;}.cls-40{fill:#9c8665;}.cls-41{fill:#c9ac7e;}.cls-42{fill:#eddbb3;}.cls-43{fill:#af946a;}.cls-44{fill:#b6a178;}.cls-45{fill:#b19566;}.cls-46{fill:#41382a;}.cls-47{fill:#c0aa82;}.cls-48{fill:#55452b;}.cls-49{fill:#d6af6d;}.cls-50{fill:#e1bd7f;}.cls-51{fill:#c1985c;}.cls-52{fill:#e0c184;}.cls-53{fill:#d2ab6a;}.cls-54{fill:#dab677;}.cls-55{fill:#cea664;}.cls-56{fill:#d9b273;}.cls-57{fill:#c2a572;}.cls-58{fill:#b68a4c;}.cls-59{fill:#cfb480;}.cls-60{fill:#dbbc83;}.cls-61{fill:#e4d0a5;}.cls-62{fill:#cdac71;}.cls-63{fill:#d0b686;}.cls-64{fill:#cfb27e;}.cls-65{fill:#a79164;}.cls-66{fill:#d4b177;}.cls-67{fill:#b29564;}.cls-68{fill:#bd9b61;}.cls-69{fill:#b28e52;}.cls-70{fill:#c09f6d;}.cls-71{fill:#d1b585;}.cls-72{fill:#563818;}.cls-73{fill:#cda567;}.cls-74{fill:#9e8256;}.cls-75{fill:#b48f56;}.cls-76{fill:#e1c082;}.cls-77{fill:#e2c185;}.cls-78{fill:#d7b981;}.cls-79{fill:#e2c58b;}.cls-80{fill:#e4c58e;}.cls-81{fill:#caa265;}.cls-82{fill:#c7a163;}.cls-83{fill:#a67941;}.cls-84{fill:#bd9f6a;}.cls-85{fill:#b79455;}.cls-86{fill:#b79355;}.cls-87{fill:#846437;}.cls-88{fill:#866029;}.cls-89{fill:#b0874a;}</style></defs><path class="cls-1" d="M107.1,102.39c6.24,2.71,12.43.2,18.6-.34,12.64-1.09,24.93-4.77,37.81-4.62,10.85.12,21.35,2.5,32.05,3.45,3.46.31,6.93.54,10.39.8-3.38,3.57-7.6,3.78-12,2.95-9.46-1.77-19-2.44-28.79-.35,5.94,3.33,8.56,11.24,17,11.21,3.46,0,6.76,1.63,9.89,3.19,1.76.89,3.93,1.89,3.37,4.33-.66,2.86-3.19,2.25-5.39,2.07,1.34.85,3.2,1.4,3,3.09-.24,2.65-3,2.65-5.21,3.9a52.6,52.6,0,0,0,8.51,4.06c3.24,1.54,4.53,5,3.69,9.29-.08.47-2.09.33-.43,1,1.4.56,3.27.57,2.61,2.65-.53,1.69-2.33,1.52-3.84,1.45-.64,0-1.28,0-2.93,0,2.36-.05,3.59.33,4.67,1.17A24.08,24.08,0,0,0,211,156.08c3.11.52,6.18.74,8.32,3.53,1.61,2.09,3.74,0,5.58.47a4.41,4.41,0,0,1,.56,6.25c-2.81,2.59-4,6.49-7.15,8.54-4,2.59-6.51,1.46-6.67-3.27-.14-4.38-.48-6.79-5.73-4.45-2,.88-4.56-.87-6.48.18a11.11,11.11,0,0,1,2.95-.32c.68.06,1.44.11,1.63.84a2,2,0,0,1-.74,1.76c-2.86,3.15-12.78,3.83-15.83.62a6.26,6.26,0,0,0-4.92-2.19c-2.74-.17-6.16-1.38-6.65-4.31s3.21-3.23,5.25-4.4a7.75,7.75,0,0,1,7.22-.05c.48.21,1.55.19,1.55-.13.05-2.78,0-2.78,2.9-3a7.36,7.36,0,0,1,2,0c.43.09.69.1.73-.2,0-.07-.21-.18-.36-.28-2.39-1.43-4.85-1.06-7.32-.46-3.77-.22-7.51-.85-10.87,1.92-1.19,1-3.14,1-4.79,1.12-1.16.11-2.55.22-3.08-1s.67-2.05,1.61-2.71,2.08-1.13,2.7-2.16c.85-1.41,2-3.18.55-4.5-1.17-1.1-2.32.59-3.36,1.29-4.32,2.92-4.34,2.93-5.68-1.95a3.34,3.34,0,0,0-.34-.93c-1.13-1.82-4.44-3.08-.94-5.9,5.22-4.21,9-5.29,12.45-2.5,2.39,1.92,5.36,3,7.16,6,.81-2,0-2.95-.8-3.16-5.77-1.6-7.57-6.92-10.6-11.06-1.5-2-3.15-3.34-6.05-2.83.3,1.69,2.77,3.41.21,5.09-3.79.7-6.38-.22-8.59-3.94-2.76-4.64-6.14-9.16-13.05-7.68-2.83.61-5.6-.87-7.53-3.16-2.09-2.47-4.55-2.45-7.23-1.46s-5.37,2.6-8.11,3.79c-2.23,1-3.21,6.2-1.3,8.46,2.79,3.29,3.2,6.36,1.06,10a3.13,3.13,0,0,0,0,2.44c.93,3.13-.41,5.12-3.16,6.42-2.77-.22-4.08-1.91-4.37-4.51a5.82,5.82,0,0,0-1-3.25c-1.86-2.29-1.24-3.63,1.36-4.93,3.71-1.84,3.37-2,.1-4.74s-7.07-3.12-10.27-4.9c-5.71-3.17-8.47-9.2-8.77-15.84-.22-4.77.27-9.42-3.51-13.4-1.5-1.58-1.19-4.39.07-6.6,2.93-.64,3,1.94,3.67,3.51,1.5,3.63,3,3.27,4.72.29,1,2.33,2.11,4.67,3.17,7-2.93,1.9-3.14,4.83-3,7.88.1,1.79,0,3.79,1.93,4.73,1.22.59,2.24-.26,3.06-1.09,1.47-1.48,3.49-2.75,2.44-5.39C107.33,104.57,106.39,103.65,107.1,102.39Z"/><path class="cls-2" d="M53,267.31c-8.77.29-14.91-8.91-12.42-17.82,2.9-10.31,6-20.67,7.54-31.23,1.29-8.73,5.25-14.36,13-17.77,4.74-4.85,10.66-5.69,17-4.83,2.53.34,4.39,1.37,1.87,4.15-.48.54-1.74.72-.9,1.84,3.14,4.21-.65,5.79-3.3,8.17,2.18,1.72,3.94,3.64,1.4,6.41-1.69,1.85.15,2.94,1.18,4.15a2,2,0,0,1-.33,2A41.46,41.46,0,0,0,66.75,234.3c-2.89,4.63-5.51,9.35-5.76,15-.09,2,.11,4,2,5.25-.23,3-2.62,3.46-4.8,3.93C50.5,260.12,50.49,260.07,53,267.31Z"/><path class="cls-3" d="M78.09,222.41l0-1.94c.42-4.8,3.63-7,7.77-8.33,6.18-2,7.68-3.87,8-10.14-1.77,4.36-3.86,5.32-6.67,3-1.46-1.19-2.4-3-.79-4.24,4.28-3.34,1.92-6.94.54-10.24-1-2.41-1.35-4.36.25-6.47a7.15,7.15,0,0,1,2.64-1c4.3-1,6-4.22,7.13-8,.53-1.82,1.21-3.52,3.54-3.52s4.18.76,5.12,3.31c-3.88-7.84,1.22-13.36,3.68-19.73-3.67-1.36-9.56-1.55-10.62-8.49-.43-2.84-2.81-2.87-5.12-2.14-1.42.45-2.61,1.47-4.1,1.76-1.78.36-3.3.11-4.06-1.85-1-2.6,2-11.28,4.62-13.17,3.92,3.91,8.38,6.8,14,7.68a3.84,3.84,0,0,1,2.88,2.51c2.08,5.2,7.47,6.85,11.1,10.37a7.55,7.55,0,0,1,3.56,2.42,22.64,22.64,0,0,1,2,5.32c-1.22,3.71-2.84,2.06-4.52.3,1.39,3.92,4.71,6.8,5.6,10.92.41,3.72-2.31,6-4.15,8.59s-2.59,5.27-.13,8c.36,2-1.69,2.69-2.16,4.23h0c-5.25-1.77-6,1.73-6.89,5.57-1.74,7.38-8.07,9.72-14.15,12.24-5.33,3-8.64,9.18-15.66,9.67C80.24,219.09,79.2,221.22,78.09,222.41Z"/><path class="cls-4" d="M196,137.5c-3.21-2.83-9.32-1.45-10.94-7.69,2.92.41,5.67,1.17,7.32-1.76l-1.12-.89c-1.45-1.22-5-1.39-4.37-3.22,1-3,3.18.26,4.9.39,1.08.08,2,0,2.6-1,.83-1.42-.19-2.2-1.26-2.72-4.16-2-8.37-4.1-13.15-4.06-2.86,0-5-.74-6.8-3.19a19.49,19.49,0,0,0-7.65-6.2c-1.69-.79-3.07-2.36-2.2-4.44.8-1.92,2.53-1.2,3.85-.6,2.27,1,4.21-.45,6.31-.62a62.72,62.72,0,0,1,18.7,1.56c5.12,1.17,9.26-.15,13.75-1.38,4.9-.69,9.86-1.1,14.68-2.13,10.31-2.23,20.27,1.62,30.48,1.51,5.61-.06,11.16-1.36,16.76-.6a11.93,11.93,0,0,1,7.64.38c4.58,1.61,9.79.28,14.21,2.92.95.57,2.19.64,3.1,1.4-1.14,3.87-2.7,4.33-6.68,3.63-8.28-1.47-16.24-4.16-24.47-5.76-1.74.39-3.35,1.23-5.11,1.59-4.14,0-8.27,1.59-12.43.21-5.26-.79-10.48-1.15-15.59,1-2.16.89-4,1.32-4.26,4.52s-3.11,2.24-5.11,1.56a17.63,17.63,0,0,0-11.67-.15c-2.86,1-4.53,2.59-3.91,5.88.49,2.6-.24,5.28.56,7.89a4,4,0,0,1-2.33,5C198.67,131.93,197.21,134.55,196,137.5Z"/><path class="cls-5" d="M90.07,131.49c-2.94,3.37-2.82,7.8-3.81,11.79-.57,2.3,1.63,2.51,3.38,1.78,1.36-.57,2.5-1.8,3.88-2.14,2.82-.69,5.73-1,6.54,3,.89,4.44,5.3,8.29,9.73,8.08,1.71-.08,3.69-.88,3.8,1.48s-1.81,1.72-3.31,1.29a1.66,1.66,0,0,0-1.39.2c-2,2.3.34,5.6-1.78,7.93-1.68,1.85-4.41,3.29-.72,6.2,1.9,1.5-.14,3.91-1.28,7.27-.15-3.28-.92-4.91-2.83-5.64-5.06-1.92-2.73,4.47-5.6,5,2.32,4.15-2.22,3.6-3.59,5.22a3.86,3.86,0,0,1-3,1.52,20,20,0,0,1-6.64-2.82c-2.64-2-5.35-2.63-7.35,1.14a1.83,1.83,0,0,1-2.91.7c.15-.47.59-1.16.42-1.38-3.85-4.9.35-8.59,1.89-12.63,2.87-7.53,6.18-14.85,6.66-23.15.36-6.21,1.75-12.33,7.92-15.85a.65.65,0,0,1,.24.67C90.23,131.38,90.15,131.49,90.07,131.49Z"/><path class="cls-6" d="M135.18,194.48c1-6.63-4.61-5.64-8.13-7.07-3.16-5.37-1.57-9,4.28-8.85a9.73,9.73,0,0,0,7.81-3.35c2-2.13,4-2.92,6.93-1.07,2.47,1.58,5.45,2.2,8.11-.15a3.41,3.41,0,0,1,2.76-.12c.75-.34,2.07,3.2,2.38-.44.23-2.71,2.83-3.81,3.8-1.62,1.8,4.07,5.41,6.56,7.36,10.31A16.4,16.4,0,0,1,172,187.8c-1.19,4.16.2,8.52-.94,12.68-.61,5.58-3.28,10.93-1.92,16.74l-.71.37a3.13,3.13,0,0,1-1.61-2.62c-.55-4.06-.72-8,1.23-11.9,1.31-2.64.54-5.79.55-8.71-.43-3.55-1.37-6.86-4.59-8.94-1.54-1-2.76-1.56-3.4,1.28-1.22,5.41-5.77,8.69-9.27,12.53-1.66,1.81-4.13.86-5.94-.49C142.34,196.45,139.1,194.68,135.18,194.48Z"/><path class="cls-7" d="M92.09,88.53c0,3.61-.48,7.07,3.42,9.65,2.89,1.91.79,5.64.74,8.35-.13,6.88,3,11.93,7.16,16.75.22.25.59.66.76.6,5.09-1.67,7.61,2.79,11.26,4.59,1.75.86,3.46,1.56,3.44,3.67s-2,2.66-3.48,3.06c-2.63.68-4.81,1.14-1,3.48.76.47,1.42,1.14.94,2-1.81,3.25.72,4.38,2.72,5.8,2,.31,3.11,1.13,2,3.31-5.24,2.15-7.38-2.34-9.44-5.22-2.5-3.48-5-6-9.34-6.65a15.18,15.18,0,0,1-4.17-1.63c-4.6-2.24-5.33-5.31-1.73-9,1.81-1.82,1.88-3.16,1.3-5.59-1.27-5.33-2.77-10.61-4.26-15.85-1.83-6.4-2.83-13.24-8-18.3-2.21-2.15-1.68-5.26-1.33-8.08C84.26,70,87,60.77,89.32,51.47,91,44.93,96.23,42,101.08,38.56l4-2c1.46,3.44-1.28,5.18-3.12,7C93.65,52,89.51,61.93,90.1,73.76A7.68,7.68,0,0,1,90,76.71c-1.11,3.18-1.2,6.07,1.54,8.61A2.67,2.67,0,0,1,92.09,88.53Z"/><path class="cls-8" d="M171.08,200.48l-.06-14a3.84,3.84,0,0,1,1.26-4.07c6.36-4.32,12.44-9.93,21.12-6.54,7.06,2.75,14.78,3.78,20.93,9,3.23,2.73,6.35.28,8.59-2.35s4.11-5.66,6.83-7.92c1.89-1.57,4-2.94,6.12-.66,1.95,2.09,1.09,4.33-.47,6.32a13.84,13.84,0,0,1-4.59,3.78c-3.15,1.61-4.77,4-4.33,7.59-1,2.14-.48,4,.61,6a34.88,34.88,0,0,1,4,10c.33,1.74.45,3.62-1.15,5-1.11-3.24-2.09-6.53-3.35-9.72a14.6,14.6,0,0,0-9.46-8.8c-4.09-1.34-7.79-3.59-11.72-5.18a29.15,29.15,0,0,0-18.86-1,14.05,14.05,0,0,1-6.85.09c-5.55-1.17-7.47.59-7.64,6.38C172,196.36,172.75,198.63,171.08,200.48Z"/><path class="cls-9" d="M101.08,38.56C93.64,44,90.66,51.66,88.24,60.4c-2,7.38-2.19,14.92-4.1,22.22-.27,1-.17,3,.37,3.3C90.11,88.57,90,94.45,91.82,99c2.35,6.08,3.6,12.6,5.21,19,.31,1.25,0,2.63.88,3.79,1.94,2.55,1.22,4.27-1.35,6.12-3.81,2.75-3.34,5.5,1,7.24,2.44,1,5,1.63,7.5,2.5a9,9,0,0,1,5.76,4.89c1.72,3.68,4.16,7.33,9.25,7,.93,2.06.33,3.09-2,3-2,.23-4.14.89-4.45-2.49-.12-1.41-1.8-2.17-3.34-2.62-2.31-.66-4.26-1.66-4.27-4.66,0-2.64-2.24-2.8-4.22-3.24-5-1.08-9.58-2.72-11.71-8v-1a12.78,12.78,0,0,0,4.07-4c1.42-1.84,2.28-3.66,0-5.56a3.39,3.39,0,0,1-1-2.69c-.13-4.79-2.05-9.08-4.52-12.94C85.46,100.39,83.78,95,82,89.56c-6.91-21.14-1.9-37.79,15-49.32C98.24,39.41,99.46,38.47,101.08,38.56Z"/><path class="cls-10" d="M87.07,184.48c-.17,3.94,1.55,7.52,2.91,11,1.12,2.8.81,3.86-1.63,4.93-1.08.48-2.32,1.14-1.8,2.55s2.16,2.05,3.62,2.31c1.64.29,1.84-1,1.91-2.23.11-2.18.84-3.84,3.36-4.11.12,10.12-1.25,11.74-10.69,14.72-3.17,1-5.08,4-6.69,6.87-3.3-.52-5.43-1.86-2.08-4.85,2.53-2.27,2.46-3.34-.78-4.16-.8-.2-1.71-.23-1.86-1.28-.19-1.36,1-1.42,1.82-1.88,5.74-3.07,5.83-4.28.73-7.73.41-.89,1.25-1,2.07-1.1,1.1-.18,2.69-.12,2.36-1.75-.29-1.42-1.76-.83-2.87-1-6-1-11.11,1.42-16.27,3.79.12-.3.38-.61.35-.89-.45-5.35,2.59-7.54,7.35-8.2,1.56-4.27,4.77-6.64,9.12-5.91C81.3,186,83.9,183.07,87.07,184.48Z"/><path class="cls-11" d="M356,174.28l-4-.83a3.64,3.64,0,0,1-2-3.68c.26-3.25-1.62-3.85-4.4-3.68.32,2.11,4.14.95,3.22,3.48s-3.43,1-5.23,1.39a29.47,29.47,0,0,0-6.43.48,8.44,8.44,0,0,1-7.46-1.78c-4.07-3.58-8.75-3.15-13.65-2.19-8.9,1.74-15.67,7.41-23,12.09-3.21,2.05-6.34,4.08-10.37,3.74a3.08,3.08,0,0,1-1-2.74c2.16-2.81,5.16-4.42,8.22-6.08a56.59,56.59,0,0,0,14.59-11.64,8,8,0,0,1,5-1.81,5.25,5.25,0,0,0,5.12-3.24c1.65-3.55,4.41-3.53,7.52-2.47,4.47,1.53,8.09,4.5,11.78,7.25,4.85,3.61,4.77,3.72,8.52-.95a6.7,6.7,0,0,1,4.64-2.11,16.18,16.18,0,0,1,8.05,3.75c5.68,4.86,11.39,9.54,18.88,11.32a11.73,11.73,0,0,1-7,1.95c-4.29-1.14-7.94-3.68-12-5.64C355.15,172.24,356.45,173,356,174.28Z"/><path class="cls-12" d="M92.09,88.53c-.67-1.14-1-2.73-2-3.35-3.07-1.9-3.09-4.26-1.71-7.1a6.76,6.76,0,0,0,.34-5.31,11.3,11.3,0,0,1,.57-8.66c3.67-8.06,4.8-17.51,13.29-22.89a5.84,5.84,0,0,0,2.52-4.66,21.73,21.73,0,0,1,11-3.13c.5,1.3-.51,1.75-1.33,2.24-4.17,2.49-6.15,6.26-6.48,11A44,44,0,0,0,95,66.82c-1.43,4.41-1.57,8.64.55,13.05,1.92,4,3.08,8.39,4.58,12.6-.43,1.62,1,4.2-1.31,4.71-2.55.55-3.42-2.05-4.3-3.94C93.76,91.63,93.68,89.7,92.09,88.53Z"/><path class="cls-13" d="M284.9,265.45c1,4.16-.82,5.71-4.92,6.52-8.5,1.68-16.91,1-25.38.32-3-.25-4.39-2.33-5.23-4.64-1.34-3.66-2.24-7.48-3.33-11.23a4.15,4.15,0,0,1,3.77.27c6.28,2.83,11.7,1.63,16.32-3.42l3.89,4.08c.57.57,1.44,1.06,1.19,2-1.33,4.89,3.62,4.71,4.83,4.1C280,261.47,282.23,263.65,284.9,265.45Z"/><path class="cls-14" d="M266.13,253.27c-1.81,5.71-9,8.28-15.17,5.46-1.65-.75-3.28-1.54-4.92-2.31a12.71,12.71,0,0,1-3-7c-2-4.58-.27-10-4-14.41-1.71-2,2-2.62,3.22-3.87,4.81-4.05,9.71-7.88,16.66-6a4.88,4.88,0,0,1,2.41,1.33c.88.91.66,2.83,2.57,2.84a2,2,0,0,1,.45,2.48,4.45,4.45,0,0,1-3.53,2.32c-2.42-.06-4.75-1.56-7.25-.5-1.62.69-2.93,1.78-2.73,3.67.22,2.07,2.06,1.75,3.48,1.85,2.27.17,4.61-.26,6.79.76,2.93,4.38,2.14,6.29-2.78,6.74-1,.09-2,0-3,.08-1.56.15-3.54-.57-4.38,1.39-.61,1.43.44,2.52,1.55,3.31,1.4,1,2.5,2.19,4.61.46,1.88-1.54,4.58-2.88,7.1-.47Z"/><path class="cls-15" d="M135.18,194.48c3.25-1.59,5.7-.57,8.49,1.64,5.69,4.5,6.25,4.17,10.41-1.66,1.15-1.6,2.62-3,3.93-4.47.84-1,2.08-1.68,1.61-3.35-1.55-5.46,1.2-4.09,4.28-2.8,4.36,1.83,4.79,6,6.11,9.63a1.85,1.85,0,0,1-1.87-.19c-1.9-1.14-3.34-4.06-6.08-.81-3.5,4.15-4.82,8.45-2.12,11,3.66,3.52,3.66,5.89-1,8.17-1.9.94-1.58,4.95-4.86,4-2.13-.63-2.93-3.05-4.51-4.48-.78-.1-1.1-3.7-2.29-.35-.54,1.5-.59,3.19-2.23,4.07a1.75,1.75,0,0,1-1.92-.44c0-1.83,0-3.67.11-5.49.32-3.85-.8-6.23-5.23-5.68-2.51.32-3.2-1.13-3.07-3.32C135.05,198.13,135.1,196.31,135.18,194.48Z"/><path class="cls-16" d="M293,105.52c-2.9.21-5.47-.88-8-2-1.2-.54-2.46-1.35-3.74-.81a5.91,5.91,0,0,1-7.14-1.33c-1.66-1.61-4.12-.54-6.19-.9,6.59-2.33,13.1,0,19.59.56,6.88.59,13.82.54,20.64,2.34,3.71,1,7.53.08,11.4-1.86,11.48-5.76,26.8-1.56,34.9,8.77,2.61,3.33,6.5,5.71,7.53,10.21-4.16-.35-5.48-4.69-8.79-6.24-4.07-3.82-6.71-9.6-13.43-9.78-6-2.13-11.56.61-17.25,1.56-3.77.62-6.1,3.83-8.4,6.55-2.49,3-4.36,3.25-6.41-.19-1.8-3-5-2.87-7.88-3.41C297.12,108.47,294.52,108.09,293,105.52Z"/><path class="cls-17" d="M261,233.45l3-2c.56.3.71,1.23,1.25,1.22s.13-.75,0-1.09c-.43-1-.21-2.7-2.18-2.16-2.15.82-1.72-1-2-2,.85-1,.85-2.48,1.72-3.51,3.5-3.4,6.45-7.42,11.43-9,3.72-1.22,1.68-4.84,2.54-7.27,1.19-.88,1.68.08,2.25.85.26,7.18.75,14.91-4.94,20.05-4.26,3.86-6.47,7.88-7,13.3-.3,3.38-4.42,5.66-2.83,9.61a7.49,7.49,0,0,0-6.67,1.35c-3.67,3.28-5.41,0-7.47-1.58-1.29-1-1.48-3-.76-4.62s2.25-1.05,3.5-1.11a43.55,43.55,0,0,1,5,0c4.17.28,5.19-1.36,3.17-5C260.78,238.13,260.14,235.79,261,233.45Z"/><path class="cls-18" d="M154.06,174.47c-.48,1.31,1.64,5.11-3,2.26-1.85-1.13-5.07-.84-7.48-2.69-1.58-1.2-2.74,1.25-3.83,2.31-2.41,2.36-4.52,4.28-8.56,3.31s-5.13,1.51-4.14,7.75l-1,0c-2-1.95-4-.17-6,0-3.53-1.94-4-4.47-1.17-8.19,2.05-2.75,4.53-5.22,5.18-8.78,1-1,2.18-.74,3.26-.43,2.84.79,4.9.93,7-2.19,1.69-2.52,6.13-2.22,7.92-5.59.48-.9,2.38-.27,3,.69,2.44,3.59,5.88,6.2,8.82,9.29A1.52,1.52,0,0,1,154.06,174.47Z"/><path class="cls-19" d="M229.93,212.54c.82-5.77-1.92-10.48-4.57-15.19-1.25-2.21-3-4.3.63-5.9,4.6-3.28,9.8-2,14.84-1.93,2.44,1,5.17.18,7.58,1.26.79,2.89.26,5.92.82,8.86.35,1.83-.88,2.87-2.54,3-3.33.27-6.1-1.52-8.59-3.3-1.45-1,0-2.25,2.18-3.07-2.62.61-4,2.7-6.22,1.24,1.44,2.48,4.32,2.13,5.79,4,.59,2.29-3.3,1.4-2.54,3.41.63,1.67,2.59,1.86,4.18,2.34,1.24.36,2.91.49,2.81,2.24-.11,2-2,1.85-3.38,2.25-1.81.47-1,2.15-1.5,3.23-3.82,3.4-3.93-1.35-6.07-2.9-.43,2.33.59,4.23.76,6.18-.78,3.79,3.64,4.86,4.17,8-1.05,1.39-2.13,2.77-1.7,4.7a2,2,0,0,1-.57,1.2c-2.43-.78-2.31-3-2.67-4.88-.61-3.2-.68-6.64-3.17-9.09C228.22,216.21,230.71,214.36,229.93,212.54Z"/><path class="cls-20" d="M193,247.39c2.87.5,4.95,2.61,8.36,2.77,3,.14,4.79,4.39,2.6,8.17-1.13-.88-2.19-1.24-3.44-.09-1.05,1-2.49,1.35-3.51.2-3.34-3.77-4.73-.59-6.43,1.66-.34.64-1,.85-1.55,1.29-5.09-.22-10.24.83-15.27-.71a18.58,18.58,0,0,0-2.19-6.51c-2.17-4.27-3-8.74-.44-13.24a6,6,0,0,1,5.5-.14c1.87,1.37,1.53,3.49,1.76,5.4.39,3.2,1.7,5.71,5.06,6.5,3.14.73,4.87-1,6.11-3.69C190.2,247.67,191.15,246.35,193,247.39Z"/><path class="cls-21" d="M367,143.49l8.75,8a41.84,41.84,0,0,0,0,5.37c.14,3.56-1.49,6.11-5.1,6.64a6.45,6.45,0,0,0-4.64,3.08c-6.47.34-9.35-3-7.41-9,.81-2.53,1.2-5.13,1.91-7.66a5.12,5.12,0,0,0-1.72-5.73c1.48-2.82,2.09-5.39-1.93-6.61-.32-2.05,1.48-2.93,2.36-4.33,1-1,1.64-2.79,3.51-1.94,1.37.64,1.48,2.15,1.47,3.45C364.13,138,364.55,141.07,367,143.49Z"/><path class="cls-22" d="M283,182.47c7,.24,11.5-4.91,16.6-8.33,7.29-4.9,14.55-9.14,23.69-8.67,1.31.07,2.85-.29,3.79.79,4.67,5.36,10.93,4.17,16.89,4.22.32.23.43.45.33.68s-.22.34-.32.34c-7.8,2.09-16.15-.72-23.82,2.68-1.37.61-2.52-.46-3.72-1-4.27-1.71-8.84-2.89-12.69.23-8.08,6.56-18.36,9.55-26.1,16.66-1.84,1.69-1.82,4.72-4.55,5.49-1.83-2-.54-4.06-.27-6.12C273.44,183.18,278.56,183.34,283,182.47Z"/><path class="cls-23" d="M162,250.52l-3-5a3.8,3.8,0,0,1-.82-2.76c1.67-6.38-1.89-9.34-7.19-11.21-.83-1.13-1-2.54-2.69-3.26-3.65-1.57-4.8-5.27-2.3-8.16,1.77-2.05,2.57-4.5,4.08-6.59,4,3,4.81,7.26,2.17,10.95,9.26.56,12.25,2.82,14.78,11.13a14.2,14.2,0,0,1,.4,3.38,94.16,94.16,0,0,1,0,9.94c-.12,1.49-.25,3.23-1.89,3.77S163,251.58,162,250.52Z"/><path class="cls-24" d="M53,267.31c-3.7-1.44-3.2-4.58-2.75-7.45.48-3,3.15-2.56,5.19-2.38A9.13,9.13,0,0,0,63,254.54c4.46.75,7.48,4.07,10.87,6.53,2.35,1.7,1.55,3.79-1.53,4.38-2.88,1.4-6.54-.44-9.12,2.2C59.78,269.46,56.44,267.29,53,267.31Z"/><path class="cls-25" d="M374,174.58c-6.1.55-10.79-2.43-14.83-6.42a33.31,33.31,0,0,0-12.3-7.7c-1.78-2.37-.65-4.39.76-6.38,2.38-3.69,5-7,9.85-7.65,2.68-.36,4,.37,3.36,3.12-.7,3-.74,6.3-2.76,8.95s-1.07,4.56,1.46,6.15a42.17,42.17,0,0,0,7.58,3.77,10.14,10.14,0,0,1,1.26.67c1.17,1,2.68,1,4.11,1.26,1.77.26,3.09,1,3.15,3C375.52,174.29,374.76,174.41,374,174.58Z"/><path class="cls-26" d="M193,247.39a2.75,2.75,0,0,0-2.63,2.52c-.51,4.34-3.71,4.68-6.81,4.36-3.62-.38-5.89-2.85-6.44-6.46a45.34,45.34,0,0,1-.12-6.39c-1-1.32-1.2-2.64,0-3.95C181.48,242.22,187.66,244.15,193,247.39Z"/><path class="cls-27" d="M353.9,113.51c3.35,1.55,5.18,4.85,8,7,3.44,6.24,4.42,13,3.93,20-2.77-.1-1.85-2.3-1.87-3.67a24.68,24.68,0,0,0-2.41-9.57c-3.65.24-7.29,6.8-10.68-.07-.81-3.5.32-6.88.64-10.31a6.67,6.67,0,0,1,.93-3.13A1,1,0,0,1,353.9,113.51Z"/><path class="cls-28" d="M162,250.52c3.18,2.45,4.37,1.68,4.09-2.32-.23-3.23,0-6.49,0-9.74a8.09,8.09,0,0,1,5.34,1.13,1.61,1.61,0,0,1-.34,1.81c-.22,5.65-.52,11.28,4.06,15.75,1.83,1.8-1,2.3-1.34,3.53C167.9,259.57,165.46,254.43,162,250.52Z"/><path class="cls-12" d="M107.1,102.39c3.41,4.77,2.56,8.1-2.69,11.27-2,1.18-3.16.11-4.22-1.15-1.85-2.19-1.46-10.67.38-12.82.9-1,1.79-.35,2.71-.22Z"/><path class="cls-29" d="M87.07,184.48c-3.33,1.71-6.61,2.76-10.6,2.15-3.32-.5-5.25,2.82-7.59,4.77-2.59-6.05-2.59-6.05,4.3-7.91.61-.2,1.5-.22,1.81-.65,3.66-5.12,4.75-5.36,9.84-1.94l5.25,3.57Z"/><path class="cls-30" d="M365.92,166.48c-.21-2.48.23-4.15,3.4-4.06,4.33.13,5.8-2.29,4.94-6.43-.35-1.66-1.31-3.71,1.44-4.45,2.06,1.7,4.39,3.16,5.27,5.92-1.76,3.09-1,6.15.08,9.21a.72.72,0,0,1-.42.76,2.48,2.48,0,0,1-1.85.77c-4.18.33-8.11-1.73-12.31-1.28Z"/><path class="cls-31" d="M150.05,213.45c-.08,2.68.65,5.41-3,7-1.87.79-1.2,3.65-.81,5.51.5,2.37,2.3.69,3.58.83,4.2.46.71,3.14,1.21,4.7-.09.22-.18.44-.26.67-1.16,1.35-2.47,1.21-3.85.4-5.07-4.57-6.37-10.74-3.81-18.06l1.9,0c1.56-.22,2.75-1.63,4.46-1.36Z"/><path class="cls-32" d="M351.92,127.5c2.84,4.61,5.38.13,7.13-.87,2.75-1.57,3.41-2.16,4.3,1a70.6,70.6,0,0,1,1.52,9.2c.18,1.28-.26,2.69,1,3.66.57.93,1.38,1.77,1.09,3-5.38-2.2-3.53-7.32-4.33-11.31-2.12-.39-1.41,2.08-2.74,2.28A2.33,2.33,0,0,0,359,134c-1.85-.39-3.94-2.19-5.54-.41s2,2.69,1.65,4.58a3,3,0,0,1-2.66,1.41c-2.4-.08-4.28-1.17-4.45-3.6C347.76,132.57,348.48,129.34,351.92,127.5Z"/><path class="cls-33" d="M274,189.48c-.3,2-.61,4.09-.91,6.13-1,1.64-1.6,2.95.61,4.41,2.93,1.93,4.51,5,5.26,8.43l-1.92-1a2.38,2.38,0,0,1-1.69-1.09,12.13,12.13,0,0,1-.69-1.21c-.58-1.52-1.94-2.16-3.23-2.9a4,4,0,0,1-2.32-4.06c.65-5.23-2.64-5.16-6.22-4.78-1.68.21-3.6,1.31-4.78-.78-.76-1.34.58-2,1.39-2.68,2.78-2.27,6.67-2.51,9.29-5.08C272.86,183.73,272.9,187.18,274,189.48Z"/><path class="cls-34" d="M238,226.42c-1.83-2.56-6.11-3.59-5-8,3.64-.6,4,4.19,7.24,4.33a3.14,3.14,0,0,1,2.06,1.72c-.8,2.74.77,5.28.66,8l-5.14,2.35c5-.46,5.71,1.14,4.88,4.26a8.64,8.64,0,0,0,1.76,8.44c1.32,1.48-1,1.23-1.46,2-2-3.51-3-7.41-4.1-11.25-.65-2.22-1.07-4.46-2.9-6.08,0-.26,0-.52.07-.78A16,16,0,0,0,238,226.42Z"/><path class="cls-35" d="M82,89.56c2.78,7.39,7.25,13.92,10.67,21,1.94,4,.39,8.89,3.74,12.55.67.72-.76,2.7-2.25,3.41.75-5.09-1.81-9.37-4.12-13.32C85.68,105.79,83.49,97.83,82,89.56Z"/><path class="cls-36" d="M108.24,46.67c-1.57-3.62.67-9.25,4.43-11.4,1.11-.64,2.69-.43,3.38-1.84,1.49-.92,3.37-1.55,4.49-.14s-.34,3.07-1.32,4.33C116.24,41.45,111.79,43.52,108.24,46.67Z"/><path class="cls-37" d="M97.09,209.33c2.65-1.62,5.33-3.19,7.94-4.88a10.4,10.4,0,0,0,5.07-8,10,10,0,0,1,.27-1.45c1.57-6.19,2.74-6.72,7.76-3.51C115.23,199.85,104.52,208.92,97.09,209.33Z"/><path class="cls-38" d="M151.05,231.44c7,.14,9.75,3.65,8.27,10.67a29.43,29.43,0,0,0-.34,3.4,18.9,18.9,0,0,1-8.14-8c2.12-.93,2.46.71,3,1.74-.14-2.66-4.44-4.25-2.78-7.85Z"/><path class="cls-39" d="M284.9,265.45a10.43,10.43,0,0,0-1.47-.08c-2,.16-4.38-5.19-6.13.32-2.59-.84-5.41-1.3-7.72-2.62-2.63-1.5,1.35-2.32.86-3.83-.19-.61-.28-1.26-.42-1.89a65.4,65.4,0,0,1,10.61,3.71A6.53,6.53,0,0,1,284.9,265.45Z"/><path class="cls-40" d="M189.93,260.25c-.48-1.8-.2-3.27,1.9-3.66,1.69-.3,2.85-1.32,4-3.19,1.32,2.91,1.36,7.51,5.64,2.47,2.25-2.66,2,1.2,2.49,2.46-1.81,4.58-5.74,2.76-9,3C193.77,258.76,191.51,261.15,189.93,260.25Z"/><path class="cls-41" d="M171,239.45a4.51,4.51,0,0,1-5-1c0-1,0-2,0-3-1.12-2,3.42-.71,1.78-3-.13-2.86.08-5.73-.51-8.56a7.19,7.19,0,0,1,0-2.22c.38-1.42.48-3,1.69-4l.19-.36c1.76,4.22-.39,9.3,2.9,13.18C171.73,233.42,173.62,236.69,171,239.45Z"/><path class="cls-42" d="M344,171.5c0-.34,0-.68,0-1,1.41-.13,3,.32,4.18-1-.3-1.49-1.48-.92-2.29-1-1.28-.15-3.19.11-3.15-1.5,0-1.83,1.85-2.72,3.64-2.48,2.9.39,6.33.51,4.71,5.19-.46,1.33.31,2.55.89,3.73Z"/><path class="cls-43" d="M171,239.45c.54-3-1.1-6.24,1-9l5,7.07c0,1.32,0,2.63,0,3.95l-6,0C171.05,240.75,171,240.1,171,239.45Z"/><path class="cls-44" d="M356,174.28l-4.34-5c6.71,1,10.91,4.44,15.39,7.27C363.1,176.87,359.57,175.33,356,174.28Z"/><path class="cls-45" d="M378.88,167.54l1.75-.11c-1,2.53-2.94,4.25-4.95,5.94-1.1-1.67-2.69-2.05-4.58-1.91-1.47.12-3,.07-3.21-2,1.37-2.16,3.52-2.32,5.65-1.89A17.37,17.37,0,0,0,378.88,167.54Z"/><path class="cls-46" d="M381.05,166.67c-3.58-3-3.94-6.11-.08-9.21C385.26,161,385.27,161.91,381.05,166.67Z"/><path class="cls-23" d="M151.05,231.44l4.37,8.82-4.58-2.71-3.9-5Z"/><path class="cls-37" d="M120.05,187.46c2-1.71,4-3.36,6,0-3.74-.79-5.45,2.4-7.94,4.06C117.85,189.73,119.53,188.87,120.05,187.46Z"/><path class="cls-47" d="M63.25,267.65c-2-.63-1.46-1.26,0-1.77,3-1,6.06-.28,9.09-.43A21.7,21.7,0,0,1,63.25,267.65Z"/><path class="cls-48" d="M189.93,260.25c1.82-.26,4.59-5.06,5.06,1.06l-5.93.08Z"/><path class="cls-18" d="M241,190.48l-15,1c-3.06-4.17.08-6.18,3-7.88a20.15,20.15,0,0,0,6.17-4.91c1.16-1.49,1.25-3.17-.21-4.47s-2.73-.33-3.91.74a48.42,48.42,0,0,0-7,8.36c-3.44,4.94-8,5.32-12.16,1-1.67-1.72-3.86-1.83-5.78-2.58-7.17-2.83-14.28-6.18-22.34-5.2-1.4.17-4.28-1.07-2.47,2.67.76,1.56-1.48,1.16-2.44,1.31-3.7.59-6.56,2.21-7.83,6-1.29-3.55-2.89-6.86-6.33-8.93-1.38-.84-1.68-2.34-1.7-3.91,0-1-.35-2.09-1.69-1.83s-1.17,1.34-.88,2.34c.39,1.36,1.45,3.32-.42,3.75s-2.07-2.13-3-3.38c-1.08-.74-2.39-1.36-2.74-2.69-1.65-6.26-8.28-9.15-10.22-15.22-.46-1.42-2.31-1.82-2.92-3.24s-1-3.12-1.74-4.62c-2.47-5.22.55-10,6.26-9.78,2.72.09,5.42,1.27,6.94-2.71.64-1.66,3.6-.41,5.55-.33,2.5.1,5.87,1.84,6.72-2.58A5.13,5.13,0,0,1,166,131.5c1-1.93,0-2.68-1.74-3.12a1.36,1.36,0,0,1-1-1.91c.21-.54.95-1.36,1.26-1.28,2.82.73,5.91-.4,8.22,3.22,2.58,4.05,3.85,9.84,10.13,10.76.94.14,1.72,1.9,2.41,3s1.14,2.32-.29,3c-1.18.56-3.06.78-3.53-.62-.67-2-2.62-2.36-3.46-3.46-4.82-6.24-9-3-13.47.16-.53.38-1.13.66-2,1.14,1.86,2.28,6.46,3.44,3,7.58,2.33,1,3.08-.94,4.3-1.84,1.81-1.33,4-4,5.87-1.79,1.33,1.59.33,4.83-1.15,7.06-1.15,1.72-3.31,2-5.67,3.39,3.29,1.29,6.56.32,7.55-.67,3.68-3.7,7.52-2.34,11.5-1.63,2.68.21,5.49-.64,8,1,.73.2,2,.28.48,1.25-2.27,1.44-4.91.37-7.38.95.52,1.54,2.11.27,3.07,1.42-1.65.56-3,1.87-4.84,1-3.89-1.9-6.56,1.24-9.73,2.24-1.09.34-1.69,1.78-.3,2.06,2.6.54,4.38,4.9,7.81,1.72.72-.67,2.35-.93,2.44.28.56,7.6,6.6,3.55,10,4.55,1.56.46,3.8-1.48,6.66-2.73-3.74-1.44-6.57,1.48-9.51-.32,1.18-2,3.1-1.25,4.7-1.39,3.21-.27,6.65.91,9.36-2.1,1.39-1.55,2.25.43,3.25,1.06,1.15.73,2.39,1.6,1.2,3.15-.92,1.21-1.41,2.36-.13,3.48,1,.9-1,3.45,1.82,3.23,1.54-.12,3.93-2.71,3.86-4.31,0-1.1.79-1.39,1.49-1.64,4.29-1.54,5-4.92,4.72-8.89-.35-.79.07-1.36.56-1.9,3.89-5.34,6.17-10.82,5-17.91-1.35-8.34,0-16.54,6.19-23.16,3.81-1.67,5.91-.94,6.19,2.87a73.73,73.73,0,0,1-.32,16.2c-.89,6.06-1.2,6,4.59,9a3.65,3.65,0,0,1,1.07,1c.77.68-1.64,3.1,1.65,2.6s7,.23,10.42-.37c1.15-.19,2.55-.05,2.82,1.39.35,1.82-1.12,2.14-2.49,2.32-4.57.62-8.89,2.88-13,2-1.34.12-.62,1-.82.38-.05-.15.08-.23.4-.27,2.93-.34,5.86-.07,8.81-1.07,5.33-1.79,5.73-1.39,8.12,4a1.59,1.59,0,0,1-.38,1.29c-5.31,1-10.33,3.63-16,2.51-2.79-.55-3.66,1-3.07,3.48s.53,4.54-1.41,6.39c6.28-4,12.35-7.9,19.74-2.59a4.83,4.83,0,0,0,4.28.85c3.44-1.23,5.66.7,8,2.6,2,.68,4.65,1.15,3.88,4.06-.68,2.62-3.19,2.72-5.34,2.14-2.51-.68-4.91.65-7.36.06-2.86-.88-5.17,1-7.45,2-4.24,1.7-8.45,1.42-12.72,1.31-3.57-.08-4.66-1.55-1.81-4.52-8,4-8.58,6.28-3.42,12.71C241.12,190,241.07,190.25,241,190.48Z"/><path class="cls-49" d="M226,159.47l-1,1c-4,2.63-5,2.3-8.72-1.87-2-2.24-5.21-.23-7.9-1.77-1.68-1-4.51-1-6.16-2.39-3-2.62-6.82-2.94-10.55-3.61l.24-1.28h10c-1.11-2.9-3.88-1.38-4.73-3.3-.39-1.57,3.13-1.14,2-1.65-3.59-1.59,3.35-7.32-3.11-7.1-1.47-3.49.45-5.67,3.23-6.92,3.12-1.42,4.8-2.58,3.29-6.63-1.08-2.88-.43-6.43-.44-9.68,0-1.51,1.07-2.18,2.41-2.78,5.06-2.26,10.06-3,15.36-.66,1.52.68,5.24,2.67,2.83-2.22-.62-1.24-.11-1.89.92-2.34,6.53-2.85,13.21-4.62,20.38-2.74,1.33,2-.26,3-1.42,4-1.34,1.17-2.66,2.36-4,3.54s-3,1.37-5,1.8c2.12,0,3.56.42,3.52,2.63-5,3.87-6.15,9.37-6.42,15.25a7.47,7.47,0,0,1-1.12,4.26c-1.91,2.39-1.13,4.09-.38,6.87,1.07,3.93.71,9.12-2.61,12.31C224.45,156.28,225.67,157.67,226,159.47Z"/><path class="cls-50" d="M166,131.5v2a7.36,7.36,0,0,1-6.7,2.73c-4.5-.7-8.92,1.06-13.36,0-1.13-.27-2.79-.48-3.19.67-1.52,4.37-5.58,3.42-8.72,4.43,1.18,1.88,1.31,3.6-.39,5.17-1.4.88-2.51-.14-3.71-.57-1.48-.54-2.8-.18-3.31,1.24-1.1,3.11-3.86,4.87-5.65,7.4l-3-2a3,3,0,0,0,2-3c.18-1.56-1.37-2-2-3,1.09-2.09,4.53-3.72,1.27-6.65,2.79-4.81,1.76-8.64-1.26-13.41-1.42-2.26-1-9.18,6.06-9.19,1.85,0,2.92-2.37,5.08-2.86,3.59-.81,6.6-1.73,8.95,2.48a5.75,5.75,0,0,0,6.64,2.38c7.59-3,11.16,3.51,13.4,7.38S162.78,130.93,166,131.5Z"/><path class="cls-49" d="M196,155.47c-2.66-.4-5.53,1-8-1C190.86,153.11,193.65,152.45,196,155.47Z"/><path class="cls-51" d="M57.64,217.15c-.52-3.64,3.49-4.81,3.37-7.84-2.29-1.12-2.21,2.8-4.34,1.46-.86-1.25,1.1-1.88.9-3-.65-3.54,1.78-3.53,4-3.23,2.38.32,3.1,2.08,2.86,4.4C64.1,211.79,64.09,211.9,57.64,217.15Z"/><path class="cls-52" d="M142.06,153.49a6.51,6.51,0,0,1,4.06,3.78c2.8,6.3,9.24,10.24,10.9,17.21h-3c-2.16-4.45-7.34-6.09-9.61-10.73-1.18-2.42-3.13-.49-3.31,1.68-.22,2.67-.88,3.81-3.62,2.09-2-1.23-3,.63-3.16,1.85-.45,3.94-1.91,4.21-5,2.28-1.44-.89-3.48-.8-5.24-1.15a71.72,71.72,0,0,1-7.82-13.43c2.58-.32,3.14,1.4,4,2.73,1.12,1.79,2,1.33,2.81-.25,4,1.29,7.48,4.92,12.21,2.53,1.43-2.15,2.37-5.06,6.61-3.52-2-1.08-4.31-1-4.14-3.32.13-1.76,1.42-2.49,3.15-2.44A3,3,0,0,1,142.06,153.49Z"/><path class="cls-53" d="M136.06,163.48c-5.1,1.18-9.7.7-13-3.94a6.27,6.27,0,0,1-2-5c0-4.58,4-6.85,6.36-9.93,2.06-2.74,3.72,1.24,5.68,1.91a2.46,2.46,0,0,1,1.76,1.4C136.68,153,135.88,158.27,136.06,163.48Z"/><path class="cls-54" d="M293,105.52a31.88,31.88,0,0,0,8.42,2.39c3.27.46,7,.48,8.06,5.12.38,1.72,1.73,1.28,2.85-.17a23.41,23.41,0,0,1,13.78-9,32.41,32.41,0,0,1,13.86-.37c.87,3.69-1.07,5-4.37,5.15-1.45.06-2.88-.36-4.34-.18a17.44,17.44,0,0,1-2.89.14c-2.2-.06-4.43-1.54-6.57.21-.33.26-.66.52-1,.79-1.3,1.38-1.87,3.26-3.17,4.64-2.38,1.73-1.8,4.68-2.84,7a9.08,9.08,0,0,1-.58,1.22c-3.41,6.16-4.87,12.32-.11,18.53,1.12,1.47,2.23,2.91,4.26,3.11,1.83.27,3.56.65,4.78,2.3,3.09,4.15,7.78,6.55,11.32,10.23,2,1.82,5.93,1.4,6.36,5.2-4.73,2.19-8.44.33-11.27-3.34a15,15,0,0,0-9.84-5.91c-7.12-1.28-10.92-6-12-13.86-.19-1.47,0-3-.54-4.4-.38-1.09-.75-2.19-1-3.32-1.8-6.88-1.88-6.91-7.9-3.24-2.69-1.68-1.29-4-.85-6.06.58-2.79,2.08-5.56.08-8.37-.25-.38-.48-.77-.71-1.16-.64-1-1.32-2-2.73-1.67a1.87,1.87,0,0,0-1.32,2.36c.57,3.17-.23,6.17-.61,9.28s1.64,6.22,2.84,9.25c.95,2.4,1.87,4.65.07,7-2.37-1.07-4.89-3-6.24,1.26a1.74,1.74,0,0,1-2,1.17,1.54,1.54,0,0,1-1.34-1.8c.45-3-1.19-5.06-2.89-7.14a13.58,13.58,0,0,1-.75-1.29c-1.33-2.11.74-5.36-2-6.83-2.41-1.28-4.45,2.07-7,1.09-2.52-1.47-4.23-3.37-2.84-6.48,1.31-2.95,3.62-4.15,6.87-3.51a8.58,8.58,0,0,0,5.76-.51c-3-1.08-5.12-.38-7.24-.16-5.45.56-6.4-.12-6.91-5.35-.19-2-1.55-2.69-3.19-3.29-1.94-.71-4.34-1-4.24-4,3.62-.71,7,1.16,9.85,2.37,5.47,2.3,11.57,1.17,16.81,4.17C289.79,109.35,291.28,106.65,293,105.52Z"/><path class="cls-55" d="M261,101.58a6.22,6.22,0,0,0,5.42,2.92c2.93.14,4,2.37,3.45,4.4-1.61,6,2.58,4,5.17,4a30.9,30.9,0,0,0,6.35-.72c2.17-.44,2.7,1,2.91,2.44s-1.22,1.73-2.37,1.8a12.73,12.73,0,0,1-3.95,0c-2.68-.71-4.92-1.29-6.87,1.7-2.08,3.2,1,4.35,1.89,6.37.24,1.33-1,3.48,1,3.85,6.44,1.21,5,6.67,6.19,10.76a8.61,8.61,0,0,1,.11,2.44c-.19,1.78,0,4.21-2.27,4.38-3.58.25-7.79.64-10.16-2.6-4.3-5.89-10.66-9.8-14.43-16.22-4-6.78-2.59-18.14,3.6-23.57Z"/><path class="cls-56" d="M257,103.54c-3.73,5.53-4.38,12-5.4,18.32-.4,2.45,2.76,4.06,4.08,6.24,3.55,5.88,9.61,9.73,13.86,15.2,2,2.55,5.66,1,8.52,1.56,1.27.25.72-2.17,1-3.39,2.95-1.72,4.14.25,5.08,2.5,1.53,3.63,1.76,7.59,2.7,11.36a38.9,38.9,0,0,1-.34,5.81c-.12,2-.64,4-2.8,4.7s-3.27-.87-4.3-2.4A18.05,18.05,0,0,0,274,157.2c-.42-.27-1.16-.49-1.21-.82-.53-4-4.43-5.44-6.21-8.37-3.19-5.22-7.6-7-13.44-6.26-1.81.22-3.61.6-5.43.65-2.83.08-3.77-1.09-4-4.21-.5-7.26,1.09-14.31,1.35-21.47.14-3.64,0-5.91-4.47-5.12a2.75,2.75,0,0,1-2.65-1.09c1-3.21,5.55-3.32,6-7C248.32,105,252.65,102.83,257,103.54Z"/><path class="cls-57" d="M169,233.43c.24,2.54-2.68.33-3,2-2-7.69-7.93-9.75-15.69-10.12,5.14-4.49.68-8-.28-11.88h0a2.1,2.1,0,0,1,0-3,16,16,0,0,1,2.78,2.73c1.72,2.83,1.94,1.63,3.79-.32,3.55-3.74,6.15-6.07.75-10.72-2.37-2,3.33-12.19,6.67-13.16,1.3-.38,1.68.4,2.36,1.13,1.11,1.21,2.39,2.26,3.59,3.37-.22,4.67.67,9.34-2.1,13.88-1.21,2-.12,5.37-.07,8.12-4.21,2.67-4.21,2.67.2,6v2c-1.41,1.64-3.33.75-5.66,1.11A31.73,31.73,0,0,1,169,233.43Z"/><path class="cls-23" d="M168,221.46c-2.55-.14-5.51-.5-5.17-3.7.2-1.92,2.4-3.48,5-2.29.37.71.75,1.41,1.13,2.11C168.91,218.93,169.41,220.42,168,221.46Z"/><path class="cls-58" d="M340.93,161.48l-7-4c-1.42-5.58-6-9.32-8.31-14.41-1-2.18-2.88-1.8-4.65-2-8.1-.77-9.41-2.21-8.95-10.25a17.22,17.22,0,0,1,4.92-11.59,43.41,43.41,0,0,0,4.55-5.22c2-1.93,4.56-1.95,7.07-2.18,5.43.17,10.74.57,13.44,6.49.76,1.66,1.93,3.21.62,5.08-1.09,1.57-2.65,1.85-4.42,1.6a12.26,12.26,0,0,0-4,.1c-5.79,1-7-.47-5.22-7.12-2.91,2.61-4.66,5.46-7.34,7.37-2,1.43-1.56,2.78.76,3.38,2.64.69,5.06,1.66,6.71,4,1.81,2.56,3.15,5.18.88,8.63,4.92-2.89,5.81.52,6.76,3.88,3.07-2.1,7.74-1.71,8.53-6.24.84-4.85,2-9.8-.25-14.63-1.24-2.71-1.56-5.77-3.22-8.35a2.14,2.14,0,0,1,.45-3.11c4.17-.64,8.09-.58,10.67,3.54.05,3.71-1.65,7.25-1,11-1.55,1.38-1.41,3.52-2.31,5.24-1.66,3.17-.82,5.78,3.5,5.84.74,1,2.92,1.43,1.6,3.43-3.47,3.45-3.19,8.62-5.76,12.48-1.94,1.56-2.12,3.72-2,6l-3,1.12C342.91,162.05,341.9,162.31,340.93,161.48Z"/><path class="cls-59" d="M280,162.45c.89,1.31,1.63,3.26,3.62,2.5,1.72-.65,2.05-2.79,1.71-4.22-.46-2,.59-3.5.69-5.24,3.75.79,4.92,5.13,8.51,6.14,3.5,3.22,6.44,2.24,8.7-2.69.73-1.56-.08-4.13,2.69-4.5,2.57,3.31,1.29,6.22-.91,9-5.79,8.2-14.86,12-23,17-.48,0-1.23-.1-1.41.19-2.53,4-5.94,2.51-9.27,1.56-1.09-.41-2-1.13-3.1-1.58-1.2-.73-2.7-1.25-2.21-3.16,3.15.22,6.18-2.53,9.51-.13.9.64,3.06-.07,3-1.6-.09-3-2.72-2-4.51-2.29-.23-3.48-1.26-7,.23-10.44C276.05,161.91,277.88,161,280,162.45Z"/><path class="cls-60" d="M305,163.47c.52-3,2.25-6,0-9-3.8.52-4.14-2.41-4.91-4.92a4.2,4.2,0,0,1,.55-2.92c5.51-.53,6.23-1.42,6.11-7.34,0-2-.85-4.26,1.29-5.83,1.68,3.63,2.06,7.66,3.49,11.45,1.85,4.89,5.24,5.78,8.89,6.38,4.24.69,7.6,2,9.76,5.85,2.46,4.31,6.5,4.67,10.83,4.3l3,.1a10.1,10.1,0,0,0-1.71,2.78c-1.57,3.4-3.69,4.09-6.84,1.18-4.45-4.12-9.2-7.95-15.3-9.54-1.4-.37-3.08-.74-3.47.68-1.37,5-5.05,5.78-9.37,5.89A7.47,7.47,0,0,0,305,163.47Z"/><path class="cls-61" d="M271,181.44c2.21.12,4.55-.42,6.24,1.57,1.32-1.95.37-7.71,4.73-2.55.34.67.67,1.34,1,2-2.2,1-3.38,4-6.94,2.64-1.3-.5-.82,3.08-2.06,4.37-2.6-.43-2.1-5.55-6-4l-.41-.6C267.57,182.61,268.46,181.2,271,181.44Z"/><path class="cls-62" d="M240,223.42c-1.73,1-2.39,0-3.31-1.36a25,25,0,0,0-3.7-3.64,17.41,17.41,0,0,1-.91-4.29c.06-1.43-1.81-3.6.64-4.23,1.8-.45,2.83,1.37,3.18,3.07.39,2,.87,3.4,3.07,1.49a4,4,0,0,1,4.68-1.52c4.07,0,8.2.89,13-.59-5-2.81-8.75,1.21-12.79.56-1.38-.7-3.73.2-3.93-2.42,1.16-.29,2.67.57,3.53-1.1-1.27-1.7-3.42-.61-4.94-1.62-1.68-1.12-4.09-2.18-4-4.05.13-2.51,3.16-.45,4.5-1.7-1.86-2.23-8.22-.12-6.12-6.26,1.7-1,2.68,2.82,4.7.63,1.13-1.22,3.21-2.28,4,0s-2.94-.1-3,2.32c1.63.68,3.59,1.12,5.07,2.21s3,1.18,4.07.33-.87-2.91.54-4.21c-5-2.5.18-3.73.69-5.55a4,4,0,0,1,4.33-2.7c2.23.66,4.86-.3,6.75,1.69-1.74,2.16-1.67,2.39.61,2.18l2.35-.23a3.2,3.2,0,0,1,0,4.49c-2.06,2.37-2,5-1.77,7.86.42,5.25.12,10.53,0,15.79a7.76,7.76,0,0,1-2.28,5.82c-6.81-1.91-11.6,1.56-16,6-1.43-2.44-3.87-4.73-1.07-7.75,3.86-2.58,3.86-2.58.66-5.37C245.07,220.89,242.31,222.1,240,223.42Z"/><path class="cls-63" d="M259,226.41c1.29-8.35,1.68-16.7.12-25.06a3.78,3.78,0,0,1,1.89-4.23c1.94-1.13,2.09-2.79,2-4.67,5.57-1.35,7.65.11,7.12,5.09-.2,1.86.18,3.28,2.15,3.85s3.52,1.75,3.69,4.06c-1.75.71-3.09-.64-4.64-1-5.4-1.14-6-.81-7.39,4.64a29.65,29.65,0,0,0-.62,8c0,.74,0,1.48,0,2.22-.08,1.7.38,3.45-.3,5.12,0,1.45.06,2.93-2,3A2.17,2.17,0,0,0,259,226.41Z"/><path class="cls-64" d="M261,233.45c1.07,2.34,1.87,4.69,0,7-2.47,0-4.94.09-7.4-.08-1.61-.11-4,1-4.43-1.71a5.42,5.42,0,0,1,3-6.15C255.3,230.89,258.13,232.13,261,233.45Z"/><path class="cls-65" d="M263,229.43c2.4-1.77,2.61.59,3.33,1.83s1,2.85-.11,4.13c-.84,1-1.81.91-2.1-.48a21.91,21.91,0,0,1-.18-3.45A2,2,0,0,0,263,229.43Z"/><path class="cls-23" d="M150.07,210.44c0,1,0,2,0,3-1.74,0-2.9,3-5,1a22.08,22.08,0,0,0,1-3.19c.23-1.55-.39-3.81,1.5-4.19C149.72,206.59,148.94,209.45,150.07,210.44Z"/><path class="cls-66" d="M330.94,107.53a1.61,1.61,0,0,1,2.14-.48c3.6,1.4,5.95.33,6.86-3.53,7.41-.53,9.73,6.06,14,10h-1c-6.41-2.17-12.9-3.86-19.74-3.92C332.08,109.59,330.8,109.16,330.94,107.53Z"/><path class="cls-67" d="M263,224.43a7.57,7.57,0,0,1-.89-5c2-2.1,4-4.34,6.76-5.55,3.43-1.52,6-3.71,7.11-7.37l1,.93c1.69,6.88,1.67,7.51-5,9.76C267.86,218.56,267.17,223.53,263,224.43Z"/><path class="cls-68" d="M253,189.52l-4,2c-2.62-.51-5.49.89-7.92-1h0c.56-1.12,2.27-2,1.57-3.37-2.61-5,1.18-4.58,4-5,5.1-.67,10.24-1.41,13.58,4-.17,2.79-2.22,2.05-3.91,2.13-1.05,0-2.51-1.43-3.08.73Z"/><path class="cls-62" d="M238,226.42c1.79,2.58.56,4-1.91,4.9C234.91,229,233.64,226.61,238,226.42Z"/><path class="cls-69" d="M240,210.49l4,2c.3.22.4.43.3.65s-.2.32-.3.32l-5,1C238.55,213,236.58,211.07,240,210.49Z"/><path class="cls-70" d="M349,154.49c.35-3.83,2.5-7.25,2.21-11.32-.15-2.27,2.44-1.4,3.88-1.75,2.09-.87,3.48-.32,4,2,3,1.08,4,3,2.89,6.1-.74,2.15-.5,4.72-1.52,6.67-3.39,6.49-1.17,8.4,5.51,10.31h0c1.08.74,2.14,1.5,1,3-4.18-1.27-7.38-4.35-11.27-6.17-2-.91-1-2,0-3.09,2.85-3,3.68-6.91,4.46-10.84.48-2.44-.24-2.33-2.31-1.91C353.55,148.31,350.85,150.81,349,154.49Z"/><path class="cls-71" d="M355.05,137.58c-2.19-.31-3.75-1.4-4-3.71a2,2,0,0,1,1.74-2.12c2.75-.25,5.66-.66,7.06,2.71l-3,2.84A1.16,1.16,0,0,1,355.05,137.58Z"/><path class="cls-72" d="M355.05,137.58l1.8-.28c2,.2,4.4-.35,4.94,2.56.4,2.15-.54,3.37-2.75,3.54l-4-2c-.58-1-2.35-1.17-1.93-2.84A1.86,1.86,0,0,0,355.05,137.58Z"/><path class="cls-21" d="M366.93,169.47c-.33-1-.67-2-1-3,4.52-2.08,8.63.82,13,1.06-3.44,1.93-7.52.19-11,2Z"/><path class="cls-73" d="M330.94,107.53c3.71,2.17,8,1,11.91,1.65a18.85,18.85,0,0,1,10.06,4.34l0,3c-3.26-2.45-7.17-2.52-11-3-1.41-3.28-4.28-2.37-6.75-2.2-2.13.14-4.13,1.25-6.32,1.21l-7,2c-2.71,2.28-4.2,6-8,7,.75-2.76-.78-6.37,3-8,2.66-.66,3.58-2.38,3-5h1c2.1-2,4.77.09,7-1Z"/><path class="cls-74" d="M276,206.49c.58,3.61-.78,6-4.34,7.15s-5.83,4.71-9.53,5.77c0-.68,0-1.37,0-2,.86-3.17,3.51-4.61,6-6.24,1.12-.73,3.28-1.16,1.8-3.16a2.85,2.85,0,0,0-4.37-.56c-.75.56-1.36,1.53-2.55,1,1.29-6.84,5.58-7.82,13-3C276,205.8,276,206.14,276,206.49Z"/><path class="cls-68" d="M260,190.5c-2.34-.45-4.93.84-7.08-1l.17-.24c1.2-1.23,2.73-.8,4.17-.83,1.78,0,3.17-.63,3.77-2.47a5.81,5.81,0,0,1,2.54-1.41,4.49,4.49,0,0,1,4.37.91h0c.21.72.86,1.51-.33,2Z"/><path class="cls-75" d="M240,223.42c-1.43-2.75,1.68-1.48,2.22-2.47-1-1.58-4.47-2.7-3.08-4.14,1.8-1.86,3.5,1.21,5,2.48a25.26,25.26,0,0,1,3.09,4c-1.26,2.06-3.58.76-5.31,1.43Z"/><path class="cls-23" d="M169,233.43c-3.68-2-4.58-6.65-8.39-8.52-.29-.14-.39-1.35-.12-1.72a1.85,1.85,0,0,1,1.71-.46,14.53,14.53,0,0,0,5.81.71C170,226.61,168.67,230.1,169,233.43Z"/><path class="cls-76" d="M238,110.51c9.31,0,9.61,0,8.65,9.38-.25,2.45.11,5.19-1.41,7.71-1.36,2.25.87,5.62.37,7.24-3,9.53,3.44,6.11,7.3,5.59,6.89-.92,11.85,1.44,15.14,7.56.5.93,1,2.53,2.37,2.28,4.38-.84,4.2.52,2.29,3.72-1,1.74,2,1.2,2.29,2.49-1.92,1.63-6,.85-5.67,5-1.75,2.37-3.93,2.62-6.42,1.28-1.23-1.82-.68-3.21,1.07-4.29h0c.27-1.92.4-3.86.68-5.79.76-5.34-2.4-7.92-7.6-6.79-3,.65-5.92,2.4-9.06.6h-1a21.23,21.23,0,0,0-3.8-3.14,3.9,3.9,0,0,1-1.65-4.76c2.21-6.38.45-13,.92-19.44.31-4.26-1-4.81-4.78-3.46l-.69-.18c-.59-2.1-2.79-1.63-4.23-2.52C234.21,111.34,236.44,111.62,238,110.51Z"/><path class="cls-77" d="M264,158.48a6.86,6.86,0,0,0-1,4,1.72,1.72,0,0,1-2.64,1.7c-2.92-1.67-5.71-.68-7.84-.25,2.74-.92,5.69,0,9,1.51a9.87,9.87,0,0,0,11.81-2.1l.69.16a14.6,14.6,0,0,1,0,9.95c-1.45-2.21-2.49-4.42-6.12-2.65-2.63,1.27-5.22-1-7.64-2.35-3.86-2.14-11.86-.46-14.35,3.08-1,1.46-2.41,3.13-3.89,2-2.11-1.59-.54-3,1.18-4.19,2.34-1.58.56-4.52.13-5.36-1.85-3.62,1.49-4.57,2.62-4.15C252.27,162.19,257.9,157.52,264,158.48Z"/><path class="cls-78" d="M263,185.52l-2.11,1c-.28.35-.58.38-.87,0-5.13-5.32-11.34-3.24-18.25-2.71,3.73,3.19,4.66,5.74-.76,6.67-3.73-1.8-5.89-5.8-4.5-8.72,1.78-3.72,5.94-6.3,10.55-7.22.64,3.13-2.49,3.42-3.53,5.74,7.41.34,14.47.94,20.64-3.93.84-.67,1.4.38,1.78,1.11a3,3,0,0,0,3,2c-2.05,3.15-2.05,3.15-7.81.94C263,181.59,263,183.58,263,185.52Z"/><path class="cls-76" d="M226,159.47c-2.22-1.66-7.13-3.12-.38-5.45a2.15,2.15,0,0,0,1.2-1.46c.57-4.29,3.51-8.64-.22-12.88-.6-.68-1.72-1.83-.48-2.47,5.52-2.83,4-8.73,4.26-12.7.39-5.31,3.11-7,6.64-9h0a2.17,2.17,0,0,1,0,3c-4.73,7.33-7.2,15.06-4.65,23.86a9.8,9.8,0,0,1-1,7.78C229.47,153.22,230.44,157.93,226,159.47Z"/><path class="cls-1" d="M134,147.51l-1-1c.21-.45.66-.94.6-1.35-.65-4.68.72-7.18,6-5.86a1.09,1.09,0,0,0,1.22-1.26c-1.36-5.09,2.6-3.83,4.59-3.35,7.05,1.7,13.83.8,20.6-1.19.21,3-1.38,3.86-4.21,4.09-3.11.26-6-1.85-9.06-.8-.62,2,1.69,1.47,1.77,3.09-2.68,1.16-5.67.89-8.39.34a4.68,4.68,0,0,0-4.77,1.38c-2.08,2-3.73,3.45-.87,6.3,1.22,1.21,1.7,3.53,1.55,5.59h-1C138.74,151.45,135.24,150.82,134,147.51Z"/><path class="cls-77" d="M248,146.5c3-.64,6.16-1.11,9.16-2,5.29-1.49,10.18,2.64,9.11,8.07a33.8,33.8,0,0,1-2.29,5.87c-2.1-4.62-4.88-6.18-9.87-3.36-2.68,1.51-6.61-.55-9.4,2.08-.4.38-1.28-.13-1.43-.91-.19-1,.45-1.43,1.28-1.8,3.73-1.68,7.9-.6,11.71-2,2-.72,4.23-1,6.24-2.09-5.93.47-11.73-.32-17.58,0C244.68,147.92,248.44,148.92,248,146.5Z"/><path class="cls-77" d="M237,118.51v-3c1.42-1.2,2.13-3.7,4.69-2.82,2.8,1,1.62,3.39,1.41,5.09-.84,6.93,1.35,14-.94,20.86a3,3,0,0,0,1.66,3.75c1.63.9,3.08,2,3.17,4.09-6.69-2.24-6.87-3.37-5.72-9.9a74.54,74.54,0,0,0,.54-16.57C241.65,116.87,239.43,116.44,237,118.51Z"/><path class="cls-50" d="M134,147.51c1.84,2.58,6.33,2.05,7,6-1.21.09-2.55.41-2.53,1.76,0,1.6,1.64,1.85,2.88,2.1s3.5-1.26,3.19,1.31c-.26,2.07-1.77,1.84-3.67.83-4.19-2.21-3.11,2.77-4.86,4C133.67,158.38,135.15,152.78,134,147.51Z"/><path class="cls-79" d="M294,161.5c-4.75.75-5.31-4.07-8-6-2.08-3.27-1.63-7.21-2.83-10.75-.81-2.37-1.83-3.35-4.14-3.27-.42-3.06-.72-6.13-1.32-9.15-.27-1.35-.8-3-3-2.2-1.64.62-3,.15-3.51-1.55A3.11,3.11,0,0,1,273,124.5c1.37-.56,2.74-1.12,4.1-1.7,1.07-.44,2.74-2.68,2.95-1.21.31,2.27,5.13,2.18,2.45,5.65-1.27,1.65.38,3.59,1.64,4.76,2.39,2.21,3.77,4.52,1.28,9,3.42-2.12,3-5.18,5.13-6.13,3.81-1.68,2.9,2.49,4.44,3.63l.59.36c1.76,2.08,1.78,4.53,1.33,7-.31,1.71-1.08,3.13-3.32,2.61-4.77-1.11-1.76,1.48-1.31,2.84,1.51,1.78,3,3.62,3.37,6C295.9,158.91,296.63,160.91,294,161.5Z"/><path class="cls-80" d="M308,133.5c0,3.29.22,6.59-.08,9.85-.4,4.33-3.66,5.7-6.92,3.13-3-2.58-2.74-6.33-3.47-9.73-.37-1.9-1.13-3.72-1.33-5.64-.16-1.46-.76-3.4,1.81-3.6,1.74-1.53,2.55-4.72,5.71-3.82,2.89.83,3.06,3.49,3.34,6A27.16,27.16,0,0,0,308,133.5Z"/><path class="cls-81" d="M314,121.51c2.95-2,4.37-5.78,8-7-.07,2.3-1.86,3.5-3.33,4.73-5.27,4.45-5.7,10.51-5.55,16.65.08,3.16,4.9,5.13,9.81,3.84,1.57-.4,2.65-.8,3,.86,1,4.07,3.88,6.78,6.34,9.83,1.68,2.09,1.84,4.55,1.63,7.08-3.76-3.15-8.14-5.67-11.09-9.62-1.41-1.88-2.74-2.6-4.86-2.4-7.67-6.33-9.86-11.8-4-24Z"/><path class="cls-82" d="M298,127.51c-2.5,3.3,1,5.94,1,9-.75,1.8-1.43,3.75-4,2h0a21.63,21.63,0,0,0-5-14.15,1.55,1.55,0,0,1,.25-2.49c2.48-2.27,2.25-5.16,1.39-7.83s-.1-4.54,2.19-5.17c2.6-.71,3.82,1.26,4.18,3.68-3.74.38-3.23,2.39-1.91,4.94,1.28-1.54.36-3.71,1.91-4.92,2.18,1.85,2.2,4,1.35,6.6S297.1,124.53,298,127.51Z"/><path class="cls-73" d="M314,121.51c.41,2.79-1.46,5-2.12,7.49-1.85,7.12,2.32,11.66,6.12,16.49C308.37,141.49,307.54,128.31,314,121.51Z"/><path class="cls-66" d="M320,108.52c-.26,2.41,2.56,1.41,3.29,2.84-1.73,2-4,2.25-6.3,2.15Z"/><path class="cls-66" d="M328,107.52c-2.11,1.9-4.68.62-7,1C322.82,104.93,325.53,107.28,328,107.52Z"/><path class="cls-77" d="M269,160.49c-1.66-6.82,3.86-2.89,6-4a13.1,13.1,0,0,1,5,6l-6,1.05,0,0C272.69,161.85,270.83,161.19,269,160.49Z"/><path class="cls-83" d="M328.91,112.48c3.82-3,8.06-3.12,12.58-1.94,2.76.71,1.45,1.77.49,2.93,1.92,3.39,2.94,7.15,4.36,10.75,2.28,5.8,1.38,11.39-.58,17-.75,2.13-2.58,2.58-4.5,3.58-4.18,2.18-6.28,3.28-6.88-2.85-.2-2-2-.11-2.94.56s-1.43,2.24-2.8.95c-1-.95-.57-2,.05-3.15a6.86,6.86,0,0,0-3.83-9.64c-.77-.28-1.77-.09-2.41-.5-1.35-.87-3.8.13-4.22-1.94s1.48-3.41,3-4.16c2.74-1.37,3.72-4.18,5.75-6.07,1.17-1.09,2.68-2.16,3.94-1.07,1.67,1.43-.52,2-1.23,2.92a3.25,3.25,0,0,0-.17,4.14c.91,1.22,2.14,1.08,3.49.2,1.79-1.15,3.85-.9,5.75-.2a2.59,2.59,0,0,0,3.07-.9c1.08-1.15.35-2.2-.24-3.15-2.3-3.73-4.61-7.47-10-6.44A2.51,2.51,0,0,1,328.91,112.48Z"/><path class="cls-84" d="M294,161.5c2.42-4.37-1.12-6.94-3-10-.27-.48-.13-1.23.23-1.21,3.28.2,6.44-1.08,9.72-.75.92,2,1.41,4.33,4,5,.61,4-1.08,7.11-4.1,9.59C297.47,166.85,295,165.9,294,161.5Z"/><path class="cls-18" d="M263,185.52c-2.72-1.08-.15-4.81-3.32-5.55,3.3-2.07,6.39,3.75,9.26-.5l2,2c-1.61.9-2.95,2-3,4Z"/><path class="cls-54" d="M300.93,149.52c-2.87,2.92-6.62,1.39-9.95,2-1-1.61-2.71-3.33-1-5.18s2.62.53,3.9,1.25c1.63.91,1.85-.68,2-1.78.44-2.51-.34-4.88-1-7.27,1.88.41,2.87-.91,4-2-.1,3.49,1.4,6.65,2,10Z"/><path class="cls-85" d="M244,213.42v-1c3.67-1.08,7-3.22,11.16-2.63,1.57.22,3.29.16,3.29,1.94a2.91,2.91,0,0,1-3.17,2.6C251.5,214.26,247.61,215.32,244,213.42Z"/><path class="cls-86" d="M256.5,219c-2.05,2.46-4.28,2.63-6.82,1.49-1.17-.53-2.77-.52-3.12-2-.23-1,.94-1.28,1.64-1.56,1.39-.55,3.92-1,4,.14C252.56,220.54,255,218,256.5,219Z"/><path class="cls-87" d="M263,208.45c1.68-1.84,2.88-4.74,6.25-2.8,1.45.84,3.07,1.87,3.28,3.45.25,1.79-1.87,2-3.1,2.6-2.82,1.42-5,3.57-7.32,5.66C261.76,214.33,261.53,211.3,263,208.45Z"/><path class="cls-88" d="M260.05,186.53a8.64,8.64,0,0,0,.88,0c1.26,2.92-1.62,2.29-2.62,2.58-1.61.48-3.45.17-5.19.18-.62-1-2.33-.38-2.63-1.85C253.44,184.61,257.08,189,260.05,186.53Z"/><path class="cls-18" d="M269,160.49c3.13-1.45,4.85-.55,5,3-2.07,3.58-9.72,6.21-13.16,3.47s-6.6-2.34-10.13-2.5c-.78,0-1.71.16-2.55-2,4.56,2.4,8.52-3,12.74.94.52.49,1.57-.13,2.11-.87C265.14,162.3,267.68,163.25,269,160.49Z"/><path class="cls-89" d="M297.92,112.56c0,1.16.1,2.33,0,3.49-.09,1.57.39,3.94-1.91,3.85-1.89-.06-2.18-2.33-2-4s-1.38-3.45.07-4.72c1.62-1.42,2.48,1,3.82,1.31Z"/></svg>