<svg id="Layer_1" data-name="Layer 1" xmlns="http://www.w3.org/2000/svg" viewBox="0 0 400 275"><defs><style>.cls-1{fill:#dcbc83;}.cls-2{fill:#e0c083;}.cls-3{fill:#ead4a1;}.cls-4{fill:#dfc895;}.cls-5{fill:#ebcf97;}.cls-6{fill:#cdb181;}.cls-7{fill:#efd9a5;}.cls-8{fill:#d5af72;}.cls-9{fill:#d9bc85;}.cls-10{fill:#c9aa6f;}.cls-11{fill:#ded0af;}.cls-12{fill:#dfc089;}.cls-13{fill:#e5c994;}.cls-14{fill:#d7c7a2;}.cls-15{fill:#dec594;}.cls-16{fill:#e5c78e;}.cls-17{fill:#ab7e45;}.cls-18{fill:#dabe8f;}.cls-19{fill:#c9af81;}.cls-20{fill:#d6b579;}.cls-21{fill:#b09668;}.cls-22{fill:#e0c595;}.cls-23{fill:#d6b683;}.cls-24{fill:#ccab71;}.cls-25{fill:#e6ca98;}.cls-26{fill:#d7c7a4;}.cls-27{fill:#d8c39a;}.cls-28{fill:#ceb486;}.cls-29{fill:#d3b177;}.cls-30{fill:#c4a370;}.cls-31{fill:#dcbe8b;}.cls-32{fill:#b69968;}.cls-33{fill:#d5bd8f;}.cls-34{fill:#cbb085;}.cls-35{fill:#cbaf80;}.cls-36{fill:#d0b282;}.cls-37{fill:#cdb27f;}.cls-38{fill:#e4d7bb;}.cls-39{fill:#dfc79b;}.cls-40{fill:#e0cfaa;}.cls-41{fill:#dcbc85;}.cls-42{fill:#c1a982;}.cls-43{fill:#916e40;}.cls-44{fill:#dec9a4;}.cls-45{fill:#b8a37e;}.cls-46{fill:#e5d7c2;}.cls-47{fill:#a78f66;}.cls-48{fill:#cbb48b;}.cls-49{fill:#aa8d5e;}.cls-50{fill:#d3b687;}.cls-51{fill:#483c33;}.cls-52{fill:#e2cea7;}.cls-53{fill:#bfa67b;}.cls-54{fill:#d7c7a5;}.cls-55{fill:#9a7e52;}.cls-56{fill:#715338;}.cls-57{fill:#7c6746;}.cls-58{fill:#b9a077;}.cls-59{fill:#ece3d2;}.cls-60{fill:#a18f6d;}.cls-61{fill:#b09c77;}.cls-62{fill:#a79573;}.cls-63{fill:#d9b575;}.cls-64{fill:#e9cd97;}.cls-65{fill:#d4b070;}.cls-66{fill:#e0c594;}.cls-67{fill:#e5c88e;}.cls-68{fill:#d7b980;}.cls-69{fill:#e2c793;}.cls-70{fill:#d1aa6f;}.cls-71{fill:#cba564;}.cls-72{fill:#cbab71;}.cls-73{fill:#b49a6c;}.cls-74{fill:#b89b67;}.cls-75{fill:#c5a268;}.cls-76{fill:#cea667;}.cls-77{fill:#debd82;}.cls-78{fill:#d7b77d;}.cls-79{fill:#d9b678;}.cls-80{fill:#b19460;}.cls-81{fill:#bf995b;}.cls-82{fill:#b89962;}.cls-83{fill:#e2c48d;}.cls-84{fill:#d4bc8d;}.cls-85{fill:#d5b984;}.cls-86{fill:#50331c;}.cls-87{fill:#ac8d5d;}.cls-88{fill:#c3a777;}.cls-89{fill:#c9a469;}.cls-90{fill:#d3ab6d;}.cls-91{fill:#c59a5f;}.cls-92{fill:#c8af7c;}.cls-93{fill:#d1b27e;}.cls-94{fill:#c8ae80;}.cls-95{fill:#b8894a;}.cls-96{fill:#b48b50;}.cls-97{fill:#d4b98a;}.cls-98{fill:#b99967;}.cls-99{fill:#d2b684;}.cls-100{fill:#d0b27c;}.cls-101{fill:#d9b97f;}.cls-102{fill:#bc995e;}.cls-103{fill:#bb995c;}.cls-104{fill:#a18452;}.cls-105{fill:#e3c68d;}.cls-106{fill:#c4a26b;}.cls-107{fill:#b8965a;}.cls-108{fill:#ab7f44;}.cls-109{fill:#c7ae7d;}.cls-110{fill:#caa86d;}.cls-111{fill:#bf975b;}.cls-112{fill:#a4763b;}.cls-113{fill:#aa7c42;}.cls-114{fill:#9c6a2d;}.cls-115{fill:#9c773e;}.cls-116{fill:#907241;}.cls-117{fill:#b29765;}</style></defs><path class="cls-1" d="M40,27.55l2.09-5.83h7c.41,7.93-.23,15.82-.83,23.71-.49,6.44.3,12.85.87,19.25-4.33-1.36-2.5-4.55-2.25-8-1,4.6-.69,8.34,1.36,11.87,3.58,6.15,4.79,12.91,5.1,19.91-1.15.88-2,.14-2.9-.51C47,76.56,39.1,66.86,39.32,53.85c.12-6.93-1.28-14-.76-21.15A13.82,13.82,0,0,1,40,27.55Z"/><path class="cls-2" d="M51.1,87.64l2,1c2.66,1.19,2.8,3.9,3.41,6.14.91,3.35,2.49,6,5.7,7.45a4.67,4.67,0,0,1,.8,1.17c1.57,4.43,5.5,7,8.51,10.18,1.86,2,4,3.51,4,6.52,0,2.67,1.91,2.22,3.52,2.2,1.76,0,2.93-.7,2.54-2.74-.47-2.46-.49-4.81,2.47-5.66,2.63-.76,4.38.85,6,2.64.75.82,1,2.11,2.56,2.64-.5-4.12-3-7.8-1.2-12.1.89-2.17-2.6-2-3.49-3.58,1.57-1.07,3.41-.65,5.13-.92a27.43,27.43,0,0,0,8.29.07c3.86-.72,7.52-.35,10.85,2a5.54,5.54,0,0,0,4.21,1.22c6.35-1.45,12,1.21,17.87,2.73a28.65,28.65,0,0,0,13.31-.23c1.61-.37,3.32-1.22,4.87-.63,9.45,3.63,18.94,0,28.4.27,4.43.13,8.77-1.78,13.3-1.21,1.36,3.56-1.48,6.74-5.52,6.19-11.31-1.55-14.16,0-19.06,10.14a21.94,21.94,0,0,1-2.73,4.75c-1.94,2.32-2.45,4.61-.42,7.17a6.45,6.45,0,0,1,1.16,3.73c.42,6.31,6.51,9.74,8,15.52,3.45,0,5.63,1.77,7.62,4.45a1.8,1.8,0,0,0,3.13-1.41c.09-4.49,2.65-4.27,5.76-3.23,4.14,4.65-1.32,7.7-2.18,11.48-.3,1.29-2,2.1-.53,3.84.47.57-.49,1.41-1.24,1.82a7.53,7.53,0,0,1-6.48-.85c-2.75-1.74-8.51-.53-11.43,2-3.09,2.23-11.29,1.62-13.58-1a1.79,1.79,0,0,1-.47-2.22,2.73,2.73,0,0,1,3.4-1.34,9.23,9.23,0,0,0,6,.33,50,50,0,0,1-13.35-1.35,2.13,2.13,0,0,1-.71-1.78c.3-1.8-3.25-2.73-1.23-4.71,1.61-1.57,3.76-.81,5.7-.39,1.13.24,2.24.62,3.38.81,2.66.44,5.41,2.54,7.85-.82.65-.89,2.37.15,3,.17-6-4-14.23-3.82-20.53-8.49-.65-.48-1.56-.66-1.71-1.63-.2-1.3,1.59-3-.59-3.89a16.26,16.26,0,0,0-8.27-1.24c-1.17.14-2.2,1.19-3.27,1.08-2.07-.2-.37,1.37-1,1.75-5.82,1.79-7.08.25-6.81-5.61.15-3.47,1.67-4.5,3.58-6.8a11.18,11.18,0,0,1,7.43-4.43c1.51-.29,2-1.43,1.6-3.06-1.55-6.43-5.44-9.65-12.26-10-3.62-.21-7-.6-10.3-2.82-4.42-3-11.92,1.52-12.4,6.81-.21,2.4,1.08,3.28,3.11,3.65,1.81.33,3.08,1.22,3.2,3.22s-.41,3.82-2.44,4.39-1.29,1.23-1.07,2.9c.66,5,5,7.2,7.23,10.9.61,2.33.12,4.14-2.37,5-4.72-3.42-10.78-4.36-15-9.08a10.85,10.85,0,0,0-11.46-3.07c-3.68,1.13-7-1.66-10.9-1.66-2.16,0-4-4-5.15-6.86-1.48-3.7-3.26-7.22-2.78-11.45.28-2.46-1.35-4.26-3-6.06-4-4.42-9-8.05-11.06-14-.4-2.45-2.21-4.29-2.9-6.6C50.61,91.3,49.51,89.47,51.1,87.64Z"/><path class="cls-3" d="M58,165.53a3.7,3.7,0,0,1,.09-.94c-1-3.75-.21-7.58-.49-11.37-.37-4.84,3.71-3.85,6.28-4.45s3.78.77,4.88,3.51c3,7.34,4.27,15.79,11.86,20.51,1.61,1,3.21,3.53,5.08,1.81s2.17-4.79.58-7.34c-1.2-1.91-3.42-3.49-1.2-6.6-2.19.51-4,2.43-5.75.55a6.44,6.44,0,0,1-1.56-6.46c8-.23,8-.27,8.77-9.35.2-2.48,1.54-2.74,3.38-1.77,2.38,1.27,4.2,3,3.91,6.19,1.45-3.37,3.41-4.24,5.37-1.09a11.1,11.1,0,0,0,6.14,4.59c2.28.85,4.44,1.93,1.28,4.82-1.84,1.68.31,7.53,2.73,8.27,2.07.62,4,1.68,6.08,2.16,3,1,5.51,2.36,6,5.9.24,1.68,1.45,2.52,3,2.92a7.41,7.41,0,0,1,4.42,3c.8,1.14,1.28,2.4.44,3.7s-2,1-3.13.59c-3.11-1.26-4.76-1.22-3.76,3,.6,2.51-1.14,3.82-3.6,3.13a32.72,32.72,0,0,0-12.27-1.09c-3.65.35-6.35-2.22-8.78-5-2,7.48-3.31,8.71-10.79,7.74-4.84-.63-7.21,2.6-10.15,5a18,18,0,0,0-3.69,4.67c-3.14,5.39-8.88,7.2-13.78,10.18-1.9,1.1-3.83,1.42-5.3-.53-1.72-2.28-1.25-4.77.32-6.87,3.11-4.18,5.41-8.61,5.54-13.94a10,10,0,0,1,.31-1.52c.6-1.64.77-3.49,2.21-4.75,3.85-1.87,7.7-3.75,11.59-5.52,2.21-1,2.42-2.41.71-3.67-4.09-3-5.33-7.39-6.46-11.92a6.75,6.75,0,0,0-1.58-3.06c-1.44-1.52-2.67-4-5-3.41-2.11.58-1,3.16-1.39,4.82C59.92,163.45,60.7,165.66,58,165.53Z"/><path class="cls-4" d="M59.1,211.49a4.22,4.22,0,0,1,3.45-2.6c4.67-.62,7.21-4,9.43-7.42,2.68-4.1,6.53-6.86,10-10.12,1-.94,2.06-.58,3.25-.36a28.59,28.59,0,0,0,5.91.48c3.27-.11,5.61-1.27,4.35-5.22-.47-1.48-.27-2.73,1.19-3.35,1.78-.74,2.61.35,3.41,1.87,1.81,3.48,4.47,4.15,8.45,3.34a16.1,16.1,0,0,1,10,1.42c.94.45,1.73,1,2.66.14s.56-1.75-.08-2.63c-1.06-1.44-1.67-2.93,0-4.39s2.94-.54,4.41.47c.84.58,2,1.81,3.05.67,1.19-1.36-.25-2.37-1.07-3.36a5.26,5.26,0,0,0-4.37-2c-1.75,0-3.11-1-2.9-2.7.5-4-2.44-5-5.12-6.24-1.28-2.94,1.08-3.63,2.89-4.67a33.91,33.91,0,0,1,11.75,1.51,7.23,7.23,0,0,0,3.23,1c3,.53,3.83,2.17,3.61,5.23-.28,4-1.79,8.51,2.52,11.61a63.67,63.67,0,0,1-8.68,17.68c-2.06,2.79-4.17,5.4-5.27,8.72.39,3.06-.16,5.8-3,7.43s-2.62,5-3.94,7.54c-2.22-2.66-.91-5.24.1-7.89,2.68-7.08,2-9.26-4.12-14a4.49,4.49,0,0,0-.84-.55c-3.19-1.39-1.15-6.76-4.37-7-2.67-.21-5.27.53-8-.86-6.61-3.35-13.66-2-18.85,3.27a16.84,16.84,0,0,1-3.17,2.4c-6.46,3.94-6.76,4.69-4.8,11.5-4.75,2.39-9.83,4.37-11.81,10.08-.17.51-1.38.65-2.12,1-1.47-1.81,1.82-4.15-.65-5.85a4.23,4.23,0,0,1-1.2-1.78A4.87,4.87,0,0,1,59.1,211.49Z"/><path class="cls-5" d="M118.06,165.55c-1,1.34-3.2,1.75-3,4-3,.1-5.29-2.47-8.41-2.42-.82,0-2.76-1-1.33-2.8,1.08-1.37.06-2.7-.46-3.68-1.54-2.93-3.2-5.5,2.43-3.56.25-2.85-1.81-2.53-3-2.82-2.82-.7-5.36-1.44-5.93-4.89a1.71,1.71,0,0,0-2.14-1.56c-1.1.31-.93,1.15-.41,1.94,1.28,1.94-.22,1.81-1.39,1.8-1.36,0-3.44-.54-2.8-1.89,2-4.27-2.06-4-3.76-5.86,1.59,5.05-.45,9.14-3.58,12.31-1.77,1.8-4.31-.2-6.22-1.54-2.64-2.23-5.7-4.19-5.14-8.4a2.61,2.61,0,0,0-1-2.17c-6.14-6.34-8.84-13.79-7.24-22.61a2.78,2.78,0,0,0-.65-2.76c-4.71-4.71-7.62-10.7-11.38-16.08C47.12,94.62,41.28,86.78,39.25,77c-.5-2.42-1.37-4.76-1.29-7.28,3.74.95,3.73,4.78,4.85,7.27,3.52,7.9,8.54,14.94,12.29,22.68,2.4,5.63,7.18,9.4,11.34,13.49,2.32,2.28,3.41,4.85,3.16,7.3-.69,6.68,3,11.26,6.29,16.23.74,1.12,1,1.31,2.13.66,2.08-1.2,4.07-1.25,5.59,1.07a1.65,1.65,0,0,0,2.16.7c7.32-3.2,12.19.71,16.45,5.88,1.26,1.53,2.84,1.49,4.38,1.92,2.75.76,5.38,1.63,6.41,4.71,1.4,0,2.82-.26,4.15.42,2.74,1.69,4.27,4.38,5.81,7.06a2.75,2.75,0,0,1,.09,2.72C121.64,163.37,116.77,160.37,118.06,165.55Z"/><path class="cls-6" d="M235.94,271.32c-1.51-.06-2.37-.49-2.31-2.37.18-5.42-3-9.12-6.84-12.37.6-1.32,1.82-2.37,1.8-3.95,0-1.75.81-4.06-1-5-2.51-1.29-2.16,2.24-3.69,2.88-1.08-3.86-2.39-5.16-6.1-1.78a18.94,18.94,0,0,1-11.68,4.89l-.54-.47a6,6,0,0,1,.48-5.47c1.35-1.44,1.5-3.22,1.65-5.08.45-5.51,1.45-6.53,6.75-7.43,1.37-.24,3.58.2,3.43-1.87s-2.31-1.28-3.69-1.53c-4.79-.89-7.36,3.16-11,4.9a2.19,2.19,0,0,1-1-1.06c.11-5.28,2.06-7.69,7-8.26,2.94-.34,5.91-.3,8.74-1.41,1.64-.64,3.21-.06,4.71.78,5.72,3.2,11.73,1.51,15.16-4.22.51-.85.82-1.8,1.3-2.67.91-.89,1.62-2.48,3.21-.89.85,3.62.54,7.3.55,11-.08.32-.1.72-.32.91-10.54,9-8.95,19.37-3.51,30.2a2.55,2.55,0,0,1,.17,1C236.18,264.38,236.39,268,235.94,271.32Z"/><path class="cls-7" d="M64.05,118.62a3,3,0,0,1,2,3.57c-1.35,8.61.61,16,7.92,21.38.38.28,1,1,.9,1-3.6,4.88,3.28,6.29,3.26,9.95.35,1.44.67,2.89,1,4.33.61,2.3,1.75,3.43,3.65,1.13,1.32-1.6,2.89-2.1,4.22-.7s-.52,2.27-1.45,3c-1.32,1-.7,1.78.12,2.31,3.65,2.34,3.08,5.58,2.45,9.14-.73,4.08-3.26,4.16-5.59,2.31-5.08-4-10.67-7.63-11.67-15.22-.44-3.35-4.66-5.64-3.71-10.11.28-1.3-2.46-1.38-3.78-.69-1.87,1-5.5-.61-5.3,3.62.17,3.65,0,7.31,0,11-1.91-10.68-2.64-21.21.79-31.88C60.4,127.91,62.18,123.26,64.05,118.62Z"/><path class="cls-8" d="M206.19,105.5l9.81,1.11c2.84,1.08,5.79.29,8.68.5,4.17-.43,7.31,2,10.34,4.16,3.5,2.52,1.75,5.49-.09,8.22-.93,1-2,2.05-3.4,1.25s-.4-2.09-.39-3.17c0-3.41-2-5.33-6-5.3-3.32,0-5,1.51-4,5,.26,1,.47,2.11-.28,2.85-2.53,2.46-.35,4.75-.13,7.23.66,7.77,6.7,11.8,11,17,2.34,2.77,5.19,4.74,9.46,4.34,5.85-.56,8,3,5.94,9-4.38-.23-9,1.09-12.86-2.3-4.2-6.21-9.59-9.76-17.55-8.66-3.09.43-4.53-.2-4.74-4.88-.37-8.37,1.06-16.71,0-25-.41-3.13-2.73-2.9-4.92-2.51-3.06.56-6,2.09-9.25,1.16-5-3.57-4.79-5.35,1.2-9.62A11.33,11.33,0,0,1,206.19,105.5Z"/><path class="cls-9" d="M74.05,212.47c-4.83-3.14-3.27-8.1,1.55-11.11,2.82-1.77,5.53-3.29,7.56-6.18,2.35-3.37,13.34-3.9,17.77-1.37,2.41,1.38,4.62,3.35,7.38.28a1.73,1.73,0,0,1,3,1.18c0,4.89,3.28,7.28,6.57,9.92,4.51,3.62,4.17,8.33,1.7,12.77a13.16,13.16,0,0,0-1.44,7.61c-1.81,2.86,1.16,5.18.88,7.86-1,.52-1.69-.09-2.38-.69a11.94,11.94,0,0,0-1.89-1.87c-1.78-1-2.32-2.16-1-4,2.69-3.6,3.08-6.74-1.48-9.47-3.31-2-2.19-6-3.25-9.08-.58-1.66-.36-4.22-3.08-3.28s-7-1.77-7.62,3.33c-.38,3-2.6,5.35-2.8,8.45a1.77,1.77,0,0,1-2.5,1.62c-.31-3.91-1.81-7.64,1.6-11.46,1.83-2.05-1-4.26-3.42-4.51-2.92-.31-5.85,0-8.26,2.28C80.1,207.44,77,209.91,74.05,212.47Z"/><path class="cls-10" d="M93.05,218.46A33.22,33.22,0,0,0,97,207.79c.41-2.91.78-5,4.45-3.68a3.76,3.76,0,0,0,1.45.21c7.52-.38,7.67-.39,8.1,7.13.19,3.14.78,5.23,4.26,6.2,2.63.73,3,6.9.08,9.29s-.08,2.5.7,3.53c-.77,1-2,1.09-3,1.46-5.35,1.88-7.39,4.63-7.6,10.19-.08,2.13.2,4.29-.48,6.37a2.32,2.32,0,0,1-1,1.14c-4.77-4.31-8.8-9.29-13-14.14l.53-.46c1.15-.44,2.3,0,3.45,0,1.33.07,2.89.32,3.38-1.32s-1.1-2.22-2.1-3c-4-3.33-5.44-7.31-3.15-12.24Z"/><path class="cls-11" d="M242,230.47q0-6,0-12c-2.29-3-.94-6.55-1.4-9.82.22-2.44-.26-4.47-3.29-4.3-2.78.16-4.35-1.16-5.35-3.54-.74-1.76-2.22-2.86-3.58-4.09s-2.48-2.42-1.49-4.3,2.62-1.87,4.35-1.61c2,.3,4,.35,5.93.78,1.78.39,3.3.23,4.39-1.41a4.33,4.33,0,0,1,3.23-1.55,12.87,12.87,0,0,0,7.56-.64c.45-.22,1-.44,1.17-.87,3.11-8.09,10.87-9.63,17.63-12.57,0,1.78-.89,2.88-2.22,4.13-4.09,3.87-8.66,7-10.68,13.15-1.19,3.61-6.55,6.24-10.53,8.43-3.42,1.89-4.71,4.08-4.68,7.83.06,8.09.27,16,2.69,24,1.17,3.8.28,8.23.32,12.38-3.65-1.25-2-4.69-2.92-7.05C243.32,235,243.7,232.57,242,230.47Z"/><path class="cls-12" d="M59.1,216.47l1,1c-1.87,2.34-4.89,2.69-7.25,4.17-2.54,1.59-3.82,3.29-2.21,6.5a14,14,0,0,1,.77,12c-3.34,4.36-7.66,4.27-12.31,2.77-2.24-1.93-2.21-4.6-2.37-7.22-.11-1.79,0-3.61-.7-5.32a51.34,51.34,0,0,1,0-20c1.37,3.61,3,4.85,6.09,1.24a4.72,4.72,0,0,1,5.76-1.51c1,2.63-1.81,3.1-2.66,4.68-.63,1.16-1.93,2.38-1,3.57,1.22,1.5,2.44-.07,3.34-.81C51.23,214.59,55,214.14,59.1,216.47Z"/><path class="cls-13" d="M58,165.53c2.09-1.91.8-4.39,1.08-6.6.19-1.47-.18-3.26,1.52-3.89,1.54-.57,2.86.58,4,1.55,2.4,2.07,4.78,4.26,5.25,7.6A15.39,15.39,0,0,0,76,175c3.06,2.3,2.55,4.14-1.19,5.47-4,1.41-7.81,3.32-11.7,5-1.92-2.26-.52-4.32.41-6.39,1-2.31,1.89-4.62.34-7a1.76,1.76,0,0,0-2.61-.44c-2.33,1.63-1.82,4-1.44,6.3.56,3.21-.92,5.35-3.34,7.11-2.79,1.23-4,3.22-4.36,6.38-.28,2.77-1.18,5.84-5,6,.81-3,2.68-5.7,2.18-9.05a3.3,3.3,0,0,1,1.87-3.31c7-3.36,5-9.32,4.33-14.78C55.12,167.86,56.2,166.64,58,165.53Z"/><path class="cls-14" d="M271.08,174.56c-1.69,3.25-5.43,3.83-8.15,5-4.26,1.77-6.86,4.12-8.21,8.34-.21.66-1.16,1.1-1.77,1.64-2.59-4.34-2.38-6.83,1.11-10a19.57,19.57,0,0,1,7.12-4.36c5.91-1.92,11.17-4.89,14.76-10.23a5.93,5.93,0,0,1,5.11-2.58,11.46,11.46,0,0,0,8.64-4.18,6,6,0,0,1,2.16-.78,19.82,19.82,0,0,1,15.8.84c2.56,1.2,5.57-.5,8.32.49a2.26,2.26,0,0,1,1.14,1,49.4,49.4,0,0,1-13.58,4.45c-2.7.36-5.14.9-7,3.2-1.43,1.82-3.69,1.51-5.58,1.23C283.37,167.44,277.33,171.28,271.08,174.56Z"/><path class="cls-15" d="M134.05,109.62a13.21,13.21,0,0,1-5.3-1.06c-3.38-1.18-6.72-2.75-10.56-1.21a7,7,0,0,1-7-1.5c-3.52-3.24-7.54-2.63-11.27-1.81A7.46,7.46,0,0,1,93,102.58c3.46-2,7.46-1.21,11.11-1.56,15.57-1.53,31.2-2.67,46.81-.18a4.58,4.58,0,0,1,1.29.68,68.67,68.67,0,0,0-10.2,7.1A7.93,7.93,0,0,1,134.05,109.62Z"/><path class="cls-16" d="M55.1,99.63A124.83,124.83,0,0,1,44,82.42c-2.22-4.13-4-8.48-6-12.74-2.57-1.46-1.61-4.13-2.13-6.29A56.17,56.17,0,0,1,37.3,31.6,7.06,7.06,0,0,1,40,27.55c1.14,7.5-2.79,15.16.73,22.58a1.68,1.68,0,0,1,.24.95C38.32,64.94,48.7,75.19,51.1,87.64,50.8,92.18,54.66,95.33,55.1,99.63Z"/><path class="cls-17" d="M336.87,124.61l11.18,5.9c3.86,3.57,2.59,8.43,2.77,12.74.12,2.61-2.54,1.52-4,1.35,1.42,1.14,4.61-.51,5.26,2.71-2.91,4.14-6.85,1.67-10.41,1.65-7.24-.37-8.94-2.09-9.07-9.76-.07-4.43.59-9-4.55-11.34-.48-2.63,3.37-3.34,2.7-6.06a2.1,2.1,0,0,1,1.14-.7C334.31,121.22,335,123.82,336.87,124.61Z"/><path class="cls-18" d="M134.05,109.62c4.92.15,8.69-1.5,11.23-6.06,1.41-2.52,4.83-.56,6.95-2,2.82-.08,5.11,1.68,7.75,2.21.91,2.34,3-.65,4.06.88a6.88,6.88,0,0,0,4.78,1c8.87-1.36,17.9-.09,26.77-1.73a16.31,16.31,0,0,1,10.6,1.67L199,106.64c-1.28.53-2.29,2.19-4,1-6.22.8-12.53,2.65-18.63,2.11-7.72-.68-15.51,4.22-23-.49-1.87-1.17-3.53.1-5.25.51C143.39,110.85,138.71,111.48,134.05,109.62Z"/><path class="cls-19" d="M51.06,239.48c.27-4.84-.35-9.34-3-13.72-2.4-4.07,3-3.72,4.49-5.45,1.28-1.51,4.57-2.95,7.49-2.84.8.38,3.11-.91,1.83,1.73-.68,1.4-1.2,2.88-1.8,4.32-7.75,9.71-8.83,20.4-2.91,28.77,4.56,7,2.54,10.33-7.91,11.47,3.18-.1,5.38-.7,7.61-.25,1.31.42,2.67.77,3.43,2.08C55.08,267.3,50,266.3,45,264.51c-.68-2-1.94-3.1-4.16-2.83a1.74,1.74,0,0,1-.75-.36c-1.17-3,.22-4.29,3.13-4.6,6.4-.68,6.35-.71,6.47-7C49.76,246.24,49,242.67,51.06,239.48Z"/><path class="cls-20" d="M87.89,103.5c5.81.41,6.41,1.2,4.15,6.51a3.35,3.35,0,0,0,.29,3.55,11.15,11.15,0,0,1,1.72,6.1c0,.84-.16,1.77-1,2.12-1.32.55-1.61-.67-2.09-1.47a22,22,0,0,0-1.76-3c-1.38-1.67-2.92-3.51-5.42-2.39-2.73,1.22-1.25,3.35-.68,5.12.73,2.27.23,3.54-2.34,3.53-1.82,0-3.65,0-5.47,0-1,0-2.32-.4-1.6-1.69,2.24-4.05-1.38-5.12-3.12-7.54-2.68-3.71-8.14-5.25-8.44-10.73,3.69-3.09,5.8-2.87,8.35.89,1.78,2.62,3.47,5.41,6.76,6.28,4.41,1.16,7.23-1.21,8.85-7.13Z"/><path class="cls-21" d="M242,230.47c3.44,1.07,3.4,3.26,1.92,5.92-2.63,5.38-1.44,11-1.1,16.59.13,2.17,2.13,2.82,4.08,2.92a22.31,22.31,0,0,1,7.32,1.35L257,258.4c1.25,2.92-1.06,3.76-2.88,4.73-3.32,1.78-7,1.61-10.6,1.71-1.25.05-2.3,1.08-3.63.76-1-.9-1.62-1.88-.92-3.26-6.85-8.14-6.22-17.11-3-26.43C237,232.89,239.76,232.05,242,230.47Z"/><path class="cls-22" d="M225,107.64c-3-.5-6.19,1-9-1,12.35.43,24.2-3.34,36.38-4.45,6.49-.59,12.91-.26,19.36-.34a12.54,12.54,0,0,0,7.2-2.49c8.2-5.43,16.76-10.36,27.21-5.83-2.87,2.35-6.62,2.23-9.83,2.57-7.47.77-13.54,3.37-18.23,9.3-1.95,2.47-4.26,3.75-7.77,2.23-4.13-1.8-8.45.27-12.7.37C246.73,108.94,235.87,108,225,107.64Z"/><path class="cls-20" d="M62.09,102.63c-3.53,0-5.17-2-6.05-5.21-.83-3-1.95-5.86-2.94-8.78-2.86-5.79-1.37-12.91-5.32-18.26-3.27-4.42-3.18-8.81-1.13-14,.82,3,.24,6.17,2.49,8.33A61.49,61.49,0,0,0,55,76.57a170.39,170.39,0,0,0,15.93,22.1c-1.64,1.06-2.7-.2-3.89-1s-2.28-2.36-3.79-1.38-.61,2.67-.52,4.07A2.49,2.49,0,0,1,62.09,102.63Z"/><path class="cls-23" d="M258,106.62c5-.09,9.88-2.59,14.93.59,1.72,1.08,3.59-1.54,4.58-3,4.38-6.55,10.58-8.46,18.11-9.24,3.42-.35,7-1.12,10.56-1.47,6.42,3.47,14.2,4.62,18.88,11-4.28.47-7.46-3-11.54-3.22-4-2.4-8.39-1.43-12.66-1.4a35.32,35.32,0,0,0-11.14,1.39c-5.25,1.62-8.47,4.74-10.09,9.81a4.22,4.22,0,0,1-3.5,1.69c-4.8-1.14-9.31-3.57-14.45-3.24a9.63,9.63,0,0,1-3.59-1.57A1,1,0,0,1,258,106.62Z"/><path class="cls-24" d="M62.09,102.63c-.45-2.69-2.6-6.13,0-7.89,2.78-1.9,4.87,1.53,7,3.23a6.27,6.27,0,0,0,1.83.7c4.47,3.46,9.72,4.56,15.19,5,.87,2.58,1.69,5.77-1.08,7.07-3.23,1.52-7.12,3.21-10.67.4-1.78-1.41-4.09-3-4.64-5-1.43-5.1-4.38-3.74-7.57-2.55Z"/><path class="cls-25" d="M51.06,239.48c0,4.28,0,8.56,0,12.83,0,5.26-1.69,7-6.77,5.88-3.26-.73-4.3.07-4.25,3.13-2.13-3.68-4.11-7.4-4-11.84,1-.15,1.6.11,1.2,1.29.71-.67.14-1.5.28-2.24.38-2.05-.22-4.35,1.51-6.08C43.32,242.34,47.81,243.38,51.06,239.48Z"/><path class="cls-26" d="M125.11,210.61a8,8,0,0,1,2.18-6.81,32.17,32.17,0,0,0,8-14.19c.51-1.9,2.45-3.4,3.73-5.09a4.48,4.48,0,0,1,3.74-1.48,6.65,6.65,0,0,1,2.54,1c1.85,1.35,3.38,3.63,6.22,2.1,5.07-3.15,10.24-3.63,15.42-.37,1.46.92,3.41,1.6,3.16,4a4.06,4.06,0,0,1-2.15,1,19,19,0,0,0-8.07,1.92,11.32,11.32,0,0,1-10.9-.06c-.81-.57-1.61-1.16-2.44-1.71-5.71-3.83-8.76-3.2-10.68,3.43S128.52,205.07,125.11,210.61Z"/><path class="cls-27" d="M141.11,251.39l5.92.06c6.4,1.26,7.19,2.52,5.07,8-.63,3.16-2.46,5-5.47,6.41-4,1.93-7.78,4.36-12.19,5.2-3.15.59-6.35.54-8.54-2.5l.36-.57c2.07-1.24,4.37-.73,6.58-.84,1.54-.08,3-.11,2.52-2.34a2.55,2.55,0,0,1,.8-1.89c2.72-1,3.78-2.89,3.59-5.76a9,9,0,0,1,.79-5.32Z"/><path class="cls-28" d="M242,263.44c3.73-.14,7.54.46,11.1-1.18,1.76-.81,3.8-1.36,3.89-3.86a7.77,7.77,0,0,0,5,1c.19,4.4,4.66,3.94,6.88,6.05,2.12,4.84,1.68,5.34-5.94,6.72-3.92-1.66-7.81,1.17-11.72.07a8.21,8.21,0,0,1-1.27-.51c-1-3.41-2.87-5.78-6.81-6A1.59,1.59,0,0,1,242,263.44Z"/><path class="cls-29" d="M48.1,210.47c-2.9-.1-5,1.39-6.86,3.4-1.05,1.14-1.7,3.2-3.83,2.35s-1-2.86-1.27-4.37a12.13,12.13,0,0,1-.11-1.48,18.41,18.41,0,0,1,8.85-11c5.26-2.4,7.36-1.65,10,3.57C53.92,206.6,52.51,209.9,48.1,210.47Z"/><path class="cls-30" d="M314,100.6c4.3-.37,7.51,2.3,11.08,4,4.1,3.49,7.44,7.53,8.59,12.92.57,2.67,2,4.85,3.25,7.14-2.27,0-3.14-2.22-4.86-3.08-1.53-1.15-1.17-2.9-1.42-4.45-.42-2.63-1.44-4.63-5.07-4.59.72,1.47,1.74,2.87.6,4.33-2.16,1.46-4.68,1-7.05,1.28a2.94,2.94,0,0,1-1.35-.4c-1.69-2.81-1.68-6.09-2.5-9.14a6.88,6.88,0,0,0-1.73-6.06A1.83,1.83,0,0,1,314,100.6Z"/><path class="cls-31" d="M136.05,263.41v2c-5,1.72-6.87-2.5-9.66-5,.2-2.44-1.5-3.5-3.28-4.51-1.62-1.08-3-2.41-4.74-3.39-1.34-.77-2.47-1.71-1.24-3.46a5.36,5.36,0,0,1,2.88-.88,52.46,52.46,0,0,0,9-.62,9.85,9.85,0,0,0,6,2.83l.61.59A26.61,26.61,0,0,1,136.05,263.41Z"/><path class="cls-32" d="M186.88,240.3l3.16-.85c2.32.29,2.17,2.18,2.27,3.74.24,4.1-.16,8.21,1.3,12.25.58,1.61.38,3.87-2.64,3.05h0c-2.09-1.16-4.72-1.21-6.46-3.11a4.41,4.41,0,0,1-.77-1.28c-1-3.33-1.18-6.74-5.37-8.65-2.51-1.15-.51-3.62,1.65-4.72C182.26,239.9,184.69,242.08,186.88,240.3Z"/><path class="cls-33" d="M351.14,154.76c-1.26,1.14-2.25,2.68-4.2,2.78-4.7-.61-9.46-.76-14.44-2.36,1.12,1.17,2.6,1.74,1.45,3.27l-5,.05c-1.1-.7-2.6-1.26-2.84-2.56-1-5.44-4.39-5.17-8.37-3.69-1.12-.06-2-.41-2.06-1.74a6.65,6.65,0,0,1,4.76-4c4.62-.54,9.09,1.19,13.7.93a6.92,6.92,0,0,1,1.47.51,17,17,0,0,1,6,3.89c1.72,1.54,3.87,1.43,6,1.45C348.93,153.39,350.3,153.45,351.14,154.76Z"/><path class="cls-34" d="M254.19,257.25c-15.33.82-13.26,0-13.13-12.61,0-2.85-2.06-6.88,2.83-8.25,1.38,2.51.4,5.62,2.09,8.05C246.36,250.22,249.76,254.07,254.19,257.25Z"/><path class="cls-35" d="M117.07,249.46c1.66,2.78,5.13,3.4,7,5.89a6.21,6.21,0,0,1-4.65,3.06c-2.86.59-2.86.57-2.2,3.07a.85.85,0,0,1-1.24,0c-5.56-2.39-10.74-5.17-12.08-11.85l.25-.37c2.4.81,4.59,2.93,7.15-.44C112.31,247.51,115.28,247.75,117.07,249.46Z"/><path class="cls-36" d="M191,258.49c1-.24,2.39-.78,1.82-1.81-2.79-5.13-1.3-10.69-1.95-16-.06-.43-.52-.81-.8-1.21l1.92-2.08a15,15,0,0,0,3.33-2,6.43,6.43,0,0,1,1.17-.74c2.34-1,4.62-1.5,6.54.81l0,1.05c2.17,2.94,1.58,6.09.71,9.25-3,2.18-3.26-.63-3.79-2.25-.66-2-1.21-4-3.87-3.43s-1.71,2.76-1.78,4.44c0,1,0,2,.06,3,.17,5.19.81,5.77,5.84,5.2,2-.22,3.93-.85,5.69.62l.26.32c-3.37,1.69-6.34,4.14-10,5.19C194.37,259.3,192.6,259.91,191,258.49Z"/><path class="cls-37" d="M117.1,232.44l1.9,1c-.11,5.86,5.13,8.15,8,12-2.59,1.06-5.29-.59-7.89.34a34.32,34.32,0,0,1-4.42,0c-2.09-.13-4.5.09-5.39-2.43a6.1,6.1,0,0,1,2.16-7A42.26,42.26,0,0,1,117.1,232.44Z"/><path class="cls-38" d="M149,192.55c4.55.65,8.86,1,12.8-2.56,1.23-1.1,4.1-.36,6.22-.47,5.52,1.33,6.65,7.09,10.37,10.24a5.44,5.44,0,0,1,1.13,1.74,2,2,0,0,1-.47,1.95,16.74,16.74,0,0,1-2.65-2.2c-4.33-5.36-9.83-7.25-16.7-6.86C156.18,194.59,152,196.25,149,192.55Z"/><path class="cls-39" d="M57.15,264.46h-9c.3-1.65,1.54-1.06,2.27-1.27,8.52-2.39,8.52-2.36,6.75-10.9,4.2,1.17,8.82,1.36,11.95,5a3.34,3.34,0,0,1-2.2,1.91c-3,.68-4.87,2.68-6.44,5.12A3.1,3.1,0,0,1,57.15,264.46Z"/><path class="cls-40" d="M317.92,151.56c4-3.1,7.67-1.67,8.77,3.24.3,1.34,1.47,2.48,2.24,3.7-4-.46-7.84,1.22-11.82,1.18l-.26-.18c-1.4-1.71-3-3.37-1.42-5.81C315.87,152.52,317.13,152.31,317.92,151.56Z"/><path class="cls-41" d="M54.12,203.51c-1.72-4.42-5.12-5.07-9.24-4.13l2.18-1.89c2.33-1.76,4.21-3.91,4-7-.29-3.81,1.58-5.49,5-6,.09.22.17.44.25.66a3.55,3.55,0,0,1-.73,1.78c-1.44,1.81-3.05,3.7-1.81,6.13,1.42,2.78,3.46-.42,5.17.27a1.32,1.32,0,0,1,.67.65C59.74,198.28,58.88,202,54.12,203.51Z"/><path class="cls-42" d="M39.13,242.45c-.07,3.09.33,6.23-1.38,9.18-.52-.71-1.07-1.43-1.61-2.15-1.31-6.35-2-12.71-.12-19.08,2.4.32,2.16,2.15,2.08,3.77A23,23,0,0,0,39.13,242.45Z"/><path class="cls-43" d="M351.91,146.6c-2.93-1.51-6.4-.5-9.93-1.79.82-.61,1.14-1,1.51-1.09,3.25-.47,5.05-1.45,5.4-2.52,1.16-3.46,1.72-6.69-1.58-9.43-1.46-1.23.27-1,.74-1.26l3,2c2.66,4.06,2.23,9.53,6,13.1l-.05,1C355.26,148.81,353.59,148,351.91,146.6Z"/><path class="cls-44" d="M186.88,240.3c-2,2.14-4.64.52-6.89,1.2s-3.82,1.65-2,4.52c2,3.12,3,7,7,8.43,0,.3.07.61.11.91a.81.81,0,0,1-.16,1.17c-6.53-.26-11.15-5.06-10.88-11.64.17-4.33,3.5-5.19,7-5.31A35.55,35.55,0,0,1,186.88,240.3Z"/><path class="cls-45" d="M223.93,250.52c.17-2.47-.63-5.68,3.74-5,.48.07,1.17.05,1.38.35,1.81,2.47.63,5.33.91,8,.23,2.32-1.44,2.59-3.17,2.72C224.35,255.26,223.92,253,223.93,250.52Z"/><path class="cls-46" d="M196,236.42c-1.09,1.42-2.62,1-4,1-.23-5.24-2.17-10.23-2.18-15.54,0-1.88-3.27-1.3-3.84-3.29a2.22,2.22,0,0,1,2.3-1.62c6,2.35,4.91,8.31,6.41,12.87C195.34,231.88,195.08,234.3,196,236.42Z"/><path class="cls-47" d="M334,158.45a4.22,4.22,0,0,0-.58-1.31c-1-1.12-4.25-.16-3.62-2.23.83-2.71,3.51-.87,5.05-.31,4,1.44,8.58,0,12.14,2.94C342.72,159.4,338.3,158.46,334,158.45Z"/><path class="cls-48" d="M60.07,263.39c1.55-4.24,5.61-4.7,9.09-6.05,3.46,2.39,1.44,4.75,0,7.11C66.17,263.61,62.79,266.32,60.07,263.39Z"/><path class="cls-49" d="M351.91,146.6c1.67-.38,3.35,1,5,0,.08,1.95,0,3.84-1.86,5.08-2.57,1.09-5.36-.07-8,.78a6.23,6.23,0,0,1-4.27-1.37c-.9-1-1.56-2.05-1-3.46C345.26,147.62,348.9,150.21,351.91,146.6Z"/><path class="cls-50" d="M93.06,218.46c-.54,4.61.55,8.68,4,12-2.08,1.45-5,2-5.72,4.95l-.37.11C89.34,229.53,88.52,223.66,93.06,218.46Z"/><path class="cls-51" d="M354.66,134.69c6.28,3.56,6.64,5.09,2.39,10.21C351.54,140.06,351.32,139.14,354.66,134.69Z"/><path class="cls-52" d="M188,217.45l-2.1,1.09c-1.18-.67-2.69-1.61-2.54-2.82.59-4.9-3-8.16-4.36-12.27l0-1.94c2.09-.59,3.07.89,3.71,2.33,1.71,3.85,4.15,7.37,5.11,11.54A2.4,2.4,0,0,1,188,217.45Z"/><path class="cls-53" d="M120,244.5c2.48-.7,4.77,0,7,.94a2.83,2.83,0,0,1,2,2.1c-2.35,3.75-6,1.1-9,1.86A3.6,3.6,0,0,1,120,244.5Z"/><path class="cls-54" d="M268.85,265.48c-.77-.23-1.61-.8-2.28-.64-5.17,1.2-5.56-1.5-4.6-5.41C266.72,258.65,267.43,262.46,268.85,265.48Z"/><path class="cls-55" d="M239,262.34l1.08,3.1c.34,1.4-.5,2.58-.7,3.88-.49,1-1.57,1.41-2.38,2.08l-1-.08C234,264.92,234.47,263.38,239,262.34Z"/><path class="cls-56" d="M354.66,134.69c-2.57,4.19-.28,7.24,2.39,10.21a.58.58,0,0,1-.06.74c-5.72-2.67-5-8.29-6-13.1C352.49,132.82,353.93,133.16,354.66,134.69Z"/><path class="cls-57" d="M237,271.4c0-1.37.75-2,2.05-2,4.11-1.9,7.47.38,11,1.95l.87.19c.27,1,0,1.43-1,1C245.5,272.48,241.15,272.89,237,271.4Z"/><path class="cls-58" d="M346.89,151.6c2.75-1.88,5.47-.67,8.19.07a7,7,0,0,1-3.94,3.09l-4.24-.21A2.13,2.13,0,0,1,346.89,151.6Z"/><path class="cls-59" d="M152.1,259.49c.52-4.08-.49-7.18-5.07-8,3.87-.39,7.7-.61,7.76,4.89C154.8,257.94,155.16,260.3,152.1,259.49Z"/><path class="cls-60" d="M249.81,272.55l1-1c3.23-.68,6.7,1,9.86-1.48,1.34-1.06,2.1.73,2.2,2.16C258.54,272.27,254.22,274.1,249.81,272.55Z"/><path class="cls-61" d="M60.07,263.39c2.84,1.91,6.31-1.58,9.07,1.06-2.74,1.93-5.88.69-8.8,1.14-1.09-.3-2.44.11-3.19-1.13C58.22,264.37,59.4,264.57,60.07,263.39Z"/><path class="cls-27" d="M116,261.48l1.12-.23c1.23-.82,2.27-.17,3.32.42,2.19,2,4.75,3.61,5.68,6.64l-.22.29C121.09,268.32,119.83,263.12,116,261.48Z"/><path class="cls-62" d="M40.84,261.68c1.11-1.66,2.4-1.45,3.67-.27.92.85,2.19,1.78.49,3.1C43.13,264.28,42.05,262.89,40.84,261.68Z"/><path class="cls-15" d="M164,104.61a5.1,5.1,0,0,0-3,1.34c-.78.58-1.88,1-2.45,0s1.07-1.34,1.37-2.19C161.42,103.66,162.88,103.43,164,104.61Z"/><path class="cls-31" d="M135,250.37c2.27-1.05,4.53-2.07,6.11,1l-.26.16c-2.2,1.5-4.11,1.31-5.68-1Z"/><path class="cls-36" d="M185,256.53c.05-.39.1-.78.16-1.17,2.18.61,4.31,1.32,5.86,3.13C188.77,258.43,186.37,259,185,256.53Z"/><path class="cls-63" d="M195,107.62l4-1c-1.92,2.46-7.1,4.52-1,8-.48,2.46.73,4.58,1.39,6.82,1,5.37-2.69,9.39-4.15,14s-1.36,8.84,1,13a5,5,0,0,0-1,3.63c.27,2.09-.78,3.49-3.26,2.44-2.17.49-7.08-1.57-3.69,4.05.76,1.24-.22,2-1.35,1.85-2.15-.23-5.65,1.37-6.12-1.42-.6-3.55-1.72-3.71-4.54-2.79-1.73.57-2.28.22-2.92-2.2-.72-2.72-1.1-6.77-5.47-8-1.13-.32-1.91-4.4-1.57-6.54.25-1.58,0-2.82-.77-3.51-3.57-3.2-2.41-5.87.29-8.89s3.53-7.38,6.11-10.73c3.13-4.07,9.19-7.51,13.78-5.46C190.63,113.09,192.79,111.09,195,107.62Z"/><path class="cls-64" d="M192,154.57c1.69-.44,3.39-.46,1.53-3.1-1.74-2.46,1-2.4,2.43-2.91-1.12-8.25-.48-16.09,5.09-22.87,1.06-1.29,1.83-3,3.83-2.62a3.82,3.82,0,0,1,3.06,4.05c.07,5.34,2.21,10.82-1.23,16-1.63,2.45,0,4.7,1.3,6.89,3.18,5.33,3.06,5.28-1.46,9.71a38,38,0,0,0-6.85,9.14c-2,3.63-1,5,3.1,5.43,2.31.25,6.28-.86,6.24,2.16,0,3.52-4.22,2.6-6.48,2.19-4.59-.83-6.33,2.64-9.14,4.58.83,2,3.15,1.73,3.79,3.42-.17,1.63-1.53,1.82-2.68,2.26-7.52,7-14.18.27-21-1.61-3.06-.84-3-3.88-.35-6.26.94-.86,2.56-1.27,2-3-1.19-3.59,1.19-4.22,3.79-4.9,3-.79,6.31-.65,9-2.57-.46-4.4,1.5-8,4-11.33C193.34,157.43,191.94,156.1,192,154.57Z"/><path class="cls-65" d="M115.06,146.57c-6.21-1.95-6.28-8.75-10-12.76-1.39-1.51.52-2.16,1.93-1.7,2.26.75,3.57.11,4-2.22.46-2.81-1.16-3.35-3.53-3.34-3.36,0-3.68-2.28-3.26-4.82,1.3-7.86,10.18-11.23,16.68-6.65,2.64,1.86,6.11,1.69,9.3,1.49,5.36-.32,8.54,2.53,9.72,7.25.61,2.41,4.65,3.63,2.38,6.89-1.88,2.72-4.9,1.3-7.32,2-4.17,1.22,1.64,2.06-.78,3.78l-5.48,1.5c-.42,2.19,2.52,2,2.54,4.07-.36,1.16-3.48-.19-2.66,2.77,1.09,4,4.08,2.4,6.45,2.75.05.21.11.43.16.64-3,1.78-.73,5.28-2.49,7.47-.17,0-.37.06-.49,0-4.51-2.65-11.11-16-10.11-20.89.52-2.55,0-3.84-2.69-4-1.72-.12-2.48.35-2.09,2.26.59,3,3.48,6.3-1.46,8.48-1,.46.46.76.78,1,3,2.11,1.13,3.1-.88,4.09Z"/><path class="cls-66" d="M188,170.54c-1.84,4-5.95,2.93-9.08,3.88-2.24.67-4.88.33-2,3.64,1.73,2,.42,3-1.54,3.38-1.75.33-3.45.69-3.16,2.93.25,2,2.15,2.74,3.66,2.87a21.92,21.92,0,0,1,9.29,3.17c2.41,1.43,4.07,1,5.63-.84.91-1,1.67-2.06,3.19-2-.25,3.59-.37,7.22-3.69,9.62a4.64,4.64,0,0,1-2.22.14c-.16,0-.32-.08-.49-.09-1.7-.17-3.77-2.25-5-.33s.58,3.53,2.16,5c3,2.78,4.15,10.89,2.23,14.6-2.5-5.07-3.41-11-8-14.94l-1-1c-2.3-3.92-2.7-9.22-8-11-5.8-5.56-12.14-6.14-19-2,1.85-3.6-.49-7.15-.14-10.73,1.92-2.64,4.75-2.52,7.54-2.56,2.25,0,4.52.32,6.75.24,2-.07,4.62.36,4.82-2.9-.69-.25-2-1.09-1.29-1.27,4.35-1.07,8.81-1.66,13.23-2.41C182.62,171.85,185.77,170.17,188,170.54Z"/><path class="cls-67" d="M135,147.58c-.92-3.75,2.39-4,4.28-4.17,2.71-.22,5.54.66,8.28,1.25,3.81.83,4.41,2.57,1.13,5.07,8.38,5.05,17.93,6.8,26.82,10.91-1.78,1.64-3.56.57-5.36.13s-1.8-.35-2,1.74c-.18,1.71-1.5,1.1-2.18,1-3.57-.67-7.12-1.46-10.64-2.34-1.6-.39-3.12-1.07-5.26.41,3.68.78,3,2.83,1.94,5,0,.22-.07.45-.1.68a6.63,6.63,0,0,1-4.36,4c-3.48.28-3.87-2.17-4.13-4.7-.13-1.31,1.06-3-1.06-3.7-1.3-.38-2.65-.67-3.46-1.92-.2-1.65,1.55-3.93-1.52-4.66a2.61,2.61,0,0,1-.85-1c.66-2.79-.37-5.24-1.53-7.67Z"/><path class="cls-68" d="M143,161.56c2.13.35,3.4.89,2.06,3.56s-.92,5.18,2.95,5.4c2.06-.59,4.1-1.21,4-4h0c6.12-.12,12.19,1,18.37.64-3.41,1.8-6.72,3.72-10.66,1.81-1.18-.57-2.54-.62-2.91.73-.45,1.64,1.15,1.81,2.24,1.77,3.65-.13,7.29,4.47,10.95.06,3.29,1.24,1.44,2.14-.24,2.91-3.45,1.59-7.14,1-10.76,1.06-3.05-.89-6.54-3.52-8,2,2.09,3.32,4.13,6.64,0,10-3.47,2-4.44-1.11-6-3,2.46-1,3.86-2,1.71-5-2.39-3.31-2.91-7.83-6.45-10.5C137.51,164.54,137.6,164.28,143,161.56Z"/><path class="cls-65" d="M117,152.62c-1.37-.2-3,.38-4-1a4.89,4.89,0,0,0,2-5l0,0C118.72,147.4,119,148.17,117,152.62Z"/><path class="cls-69" d="M54.12,203.51c3.42-2.47,5.45-5.62,5-10-.38-1.7-.21-3,2-3,0,4.91-.83,9.5-4.49,13.19a13,13,0,0,0-1.9,2.89,4.33,4.33,0,0,0,0,4.7c1.27,1.89,2.88.91,4.39.2v5c-4.59-.22-9.2-.66-12.72,3.35-.63.71-1.67,2.08-2.9.88a3.56,3.56,0,0,1-.95-4.07c1-2.83,3.55-4.25,5.57-6.16C50.54,208.53,53.05,206.64,54.12,203.51Z"/><path class="cls-41" d="M56.08,184.5c2.05-2.27,3.7-4.56,2.12-7.9a6.22,6.22,0,0,1,0-3.45,4.05,4.05,0,0,1,4.11-3.59c2.67-.16,3.49,1.65,3.69,3.74s.43,4.27-1.2,6.15a7.92,7.92,0,0,0-1.71,6.07c-1.61.87-.41,3.12-2,4a17.73,17.73,0,0,0-5-5Z"/><path class="cls-7" d="M100.8,163.16c-.29,2.2-1.84,2.35-3.33,2.44s-3.76,2.15-4.06-.45c-.33-3-2.25-4.65-3.46-6.91-.65-1.19-1.37-2.6-.49-3.72,1.17-1.5,3.29-1.61,5-1.69,2.45-.11.46,2,1,2.91,1.2,1.95,2.63,3.75,4,5.61C99.86,162,100.38,162.63,100.8,163.16Z"/><path class="cls-70" d="M56.11,184.54c3.43-.1,5.4,1.26,5,5,0,.33,0,.65,0,1-.67,1-1.34,2-2,3-1.93.63-3.44,4.14-5.78,1.5-2.18-2.47-1.79-5.38.63-7.85C54.73,186.35,55.39,185.41,56.11,184.54Z"/><path class="cls-68" d="M143,183.53a6.92,6.92,0,0,1-4,1c-2.67.15-4.27-1-3.93-3.78.39-3.08-1.2-6.16.37-9.27,1-1.92-.61-2.62-2.25-2.89-1.42-.23-3.05.43-4.17-1-1-3-4.91-3.08-6-6l-1-2a3.12,3.12,0,0,1,2.11-.94c7,1.69,13.26,4.27,15.45,12.08.32,1.57-.42,2.86-1.1,4.18-1.71,3.34-1.89,6,2.82,6.75C142.29,181.73,143.33,182.16,143,183.53Z"/><path class="cls-3" d="M123.07,161.54c3.31.21,4.39,4.59,8,4.32a5.08,5.08,0,0,1,.31,1.15l-2.32.54-11-2c-2-.23-2.23-1.6-1.75-3.14a2.36,2.36,0,0,1,3-1.63Z"/><path class="cls-71" d="M124,159.53h-2l-5.07-6.9c-.6-2,1.63-5-1.92-6.08.39-1.13,2.2-1,2.24-2.58a24.66,24.66,0,0,1-2.63-1.08c-.65-.35-2,0-1.82-1.13.08-.61,1.13-1.61,1.63-1.55,4.37.56,3.19-2,2.5-4.27a6.83,6.83,0,0,1-.28-1c-.25-2-2.93-4.49-.69-5.69,1.75-.95,5.07-.22,7.07.88s1.09,3.79-.11,5.31c-2.15,2.74,1,5.5,1.45,6,3.46,4.36,3.7,10.68,8.6,14l.52.55c-.05,4.2-1,5-4.58,3.73C127.32,159.21,125.78,158.24,124,159.53Z"/><path class="cls-72" d="M188,196.5h2c1.71.54,4.14-.61,4.26,3.09,0,1.54,3.51,1.75,5.65,1,1.29-.45,1.91-1.79,3-2.47,3.1-.42,4.62,2.8,7.79,3.12s4.88-.08,6-2.92c2.89-1.11,4.51.3,5.1,2.92a9.68,9.68,0,0,0,2.39,4.25c-.4,3.4-2.07,6.45-2.25,10-.18,3.74.25,6.95,3.29,9.22,1.81,1.34,9-.29,11.13-2.24,1.05-.95,1.68-2.56,3.56-2-1.09,6.81-7.47,7.79-12,10.68-1.56,1-3.1-1-4.2-2-2.26-2.16-4.14-3.35-7.29-1.21-1.41.95-3.84.52-5.81.51-4.76,0-7.52,2-7.67,7-2.32-1.22-4.65-.06-7,0a3.26,3.26,0,0,1-1.26-4.66c.8-1.52,2.47-1.31,4.08-.92-2.44-.28-4.68-.77-5.53-3.5a17,17,0,0,1-1-6.75c.2-1.93,1.79-2.69,3.65-2.42a4.78,4.78,0,0,0,4.48-1.33c1.72-.8,3.56-.62,5.38-.69s3.62.18,6-1.41a13.58,13.58,0,0,0-9.6,0c-2.87,1-5.74,1.58-8.72.44.13-2.38-.87-3.85-3.09-5-1.92-1-5-1.75-3.25-5.39.45-1-1.51-1.42-2.11-2.38-.84-1.33-1.35-2.71-.55-4.15S186.77,196.33,188,196.5Z"/><path class="cls-73" d="M240,220.49c-2.53,3-5.34,5.26-9.62,5.82-6.05.8-10.48-3.13-9.72-9.27.5-4,.05-8.31,3.35-11.51,6.2-1.39,12.32-2,17.93,2,0,3.65,0,7.31,0,11Z"/><path class="cls-74" d="M203,246.38l.06-9.88c3.18-5.48,8.15-6.67,14-6.08,2.08.21,2.95.92,2.95,3s-.77,2.84-2.89,3.06c-7.63.78-7.7.86-8.06,8.59-.1,2.16-.51,3.58-3,3.39C203.93,249.36,202.22,249.68,203,246.38Z"/><path class="cls-75" d="M203,246.38c.1,2.05,1.57,2.08,3.07,2.09a7.61,7.61,0,0,1-.15,4.83c-4-.42-8.56,3.35-11.84,0-2.84-2.87-.19-7.68-1.39-11.46-.84-2.64.68-3.46,2.76-3.3s5-1.52,5.53,2.21C201.26,242.78,200.33,245.21,203,246.38Z"/><path class="cls-76" d="M258,107.6c1.1.05,2.28-.16,3,1l-.21.59a6.31,6.31,0,0,0-1.46,4c1.21,2.87.19,7.37,5.41,7.24a2.33,2.33,0,0,1,.53,3.3c-2.43,1.47-5.22,1.64-7.9,2.17-1.86-5.49-1.86-5.51-8.38-3.85a16,16,0,0,1-3.89.52c-7.44.08-7.83.59-6.32,8a7.2,7.2,0,0,1-.14,1.39c-.17,2.36-2.24,5.62-.18,6.84,2.57,1.53,2.45-3.79,5.27-3.77,3.5,1.21,2.81,4.49,3.53,7.07-.56,3.4,1.15,6.25,2.27,9.25-.21,2,0,4.13-1.13,6a1,1,0,0,1-1.39.2c0-7.43,0-7.21-8.13-7.24-3.86,0-6.43-3.09-8.79-5.78a44.23,44.23,0,0,0-4.6-5.1c-2.7-2.27-5.58-4.45-4.78-8.91.27-1.51-1.22-3.34-1.93-5a2.26,2.26,0,0,0-.61-.77c-.84-.7-1.48-2.27-.76-2.48,6-1.74-2.24-10.49,5.94-11.42,5.66-.64,9.49,2.64,8.7,8.34-.35,2.56,1.32.11,2,.42,6-1.28,11.4-5.15,17.94-4.06,3.21.53,2.07-2.16,2.64-3.59C255.27,110.16,254,106.83,258,107.6Z"/><path class="cls-77" d="M199,121.59c-1.08-2.22-5.07-4-1-7,2.9.31,5.51-.76,8.22-1.55,5.35-1.55,6.79-.07,6.89,5.43s1,11-.91,16.38c-.21.56.42,1.53.82,2.21,1.62,2.71,2,5.34-2,8.77,10.61-1.24,19.17-.68,23.91,8.71,1.62,3,1.33,6.71,5.38,8.77,2.54,1.29-.5,3.12-2,4.27-2.28,1.64-4.48,3.71-7.62,2.9-2.26-.58-4.36-1.58-2.36-4.47,2.46-3.55,1.61-7.44.63-11-1.29-4.62-5.21-2.88-8.05-2.42.3.09-.84-.37-.78-.35,2.75.9,5.54,2.5.84,4-3.35,1-8,.66-10.37-3-2.5-3.8-5.65-7.11-3.15-13,2.34-5.54,1.19-12.21.48-18.39-.26-2.19-1.7-2-3.33-1.38C202.85,121.11,201.13,122.44,199,121.59Z"/><path class="cls-78" d="M238,166.55c.24-1.28,2.51-.45,2.28-2.07s-1.54-1.1-2.66-1.09c-1.86,0-2.53-1.29-2.58-2.93-.06-2,0-3.93,0-5.89,2,1.66,4.33,2.64,6.88,1.82,2.08-.67,3.49.48,5.12,1.16h1c2.46-.12,2,2.14,2.73,3.4,1.56,2.67,2.58,5.67,4.94,7.83.92,1.47,3.9,1.38,3.16,4.12-2,1.3-4.35,1.54-6.65,1.88-1.34.2-2.83.33-3.26,1.83-.8,2.75-2.42,3.63-5.22,3.21s-3.8-2.32-4.26-4.77a14.44,14.44,0,0,0-.7-1.86A14.07,14.07,0,0,0,238,166.55Z"/><path class="cls-79" d="M258,107.6c-3.92,1.51-1.39,5.23-2.49,7.79-.73,1.69-1.32,3-2.7,1.91-3.44-2.71-6.42-.24-9.15.75A24.52,24.52,0,0,1,234,119.6c2.55-6.21,1-9.16-5.89-10.92-1.07-.27-2.32.09-3.1-1,3.86-1.39,7.88-1.17,11.84-1,7,.34,14.08.26,21.13,0Z"/><path class="cls-80" d="M120,244.5l0,4.9-3,.06c-2.76.53-7-2-7.3,3.72-.06,1.19-1.77.32-2.38-.24a40.57,40.57,0,0,1-3.22-3.68c0-3.11-.18-6.22-.07-9.32.19-5.6,5-9.37,11.93-9.47a2.24,2.24,0,0,1,1.07,2c.25,2.22-1,3.35-2.94,3.85-3.39.88-4.41,3.47-3.9,6.37.56,3.11,3.46,1.45,5.33,1.76A30.84,30.84,0,0,0,120,244.5Z"/><path class="cls-81" d="M108.34,221.42c-2.89-1.27-3.49,1.09-4.06,2.89-1.18,3.79-3.67,4.68-6.86,3-3.34-1.75-1.67-5.33-1.71-7.95,0-1.5,2.93-1.05,4.41-.76,2.8.55,5.41,1.12,8.29.09,1.23-.44,4-1.23,4,1.1C112.51,221.84,110,221.41,108.34,221.42Z"/><path class="cls-82" d="M91.32,235.38c-1.5-5.58,2.36-5,5.72-4.95,2.82-.2,3.14,1.51,3,3.75-.16,2.45-1.9,2.13-3.51,2.28C94.66,236.64,93,235.81,91.32,235.38Z"/><path class="cls-83" d="M238,166.55c3.65,1.44,3.18,3.57,1,6,1.16,2.2-.45,2.61-2,2.89s-3,0-4.47.2c3.41-.34,6.5-.33,6.46,4.45,0,1.73,1.63,1.77,2.9,2.17,4.54,1.44,4.95,2.45,3.08,7.24l-3,1a12.13,12.13,0,0,0-8.29-3.87c-.49,0-1-.27-1.45-.25-3.14.16-5.83-4.55-9.35-.81-.39.43-1.58,0-2.39-.2a22.94,22.94,0,0,1-3.37-1.57c1.3,1.19,1,2-.55,2.64a5.67,5.67,0,0,1-3.88-.38c-1.07-.41-2-1.27-2.84-1.05-1-.35-.3.84-.37.18,0-.22.13-.26.48-.12,1.15.48,3.12.54,2.84,2.09-.33,1.75-2.32,1.59-3.78,1.47-3.3-.27-6.39-1.85-9.77-1.76a13.36,13.36,0,0,1-2.27-.33c-.33-.05-.73,0-1-.17-1.63-1.13-4.75,0-5.18-2.13s3.18-2.26,3.95-3.72c3.31-6.34,9.4-1.07,13.84-3.77-2.1-2.17-4.66-1-6.86-1.16-4.69-.31-5.71-1.49-3.87-5.9A29,29,0,0,1,206.68,158c2.3-1.78,3.16-2.72,1.39-5.09-3.47-4.63-3.66-8.92-.95-14.48,1.61-3.3-.17-8.3-.59-12.51a2.22,2.22,0,0,0-1.86-2.09c-1.24-.15-1.6.93-2.14,1.75-3.92,5.87-6.91,12-5.57,19.38.22,1.23.38,2.7-1,3.63-1.83-1.38-2.79-2-3-5.46-.37-7,3-11.89,5.52-17.3.81-1.71-3-3.37.46-4.21.89-.44,1.78-.9,2.69-1.3,8-3.46,8.7-3.41,8.05,5.57-.41,5.67,1.62,11.8-2.24,17.2-1.34,1.88,3.91,11.3,6.32,11.29,2.87,0,5.62,2.31,8.93.39-2.08-2.33-5.31-.1-7.7-2.44,3.89-1.15,7.64-.48,10.83-2.35.86-.5,1.69.78,2.42,1.43,3.54,3.16,3.88,11.57.72,15.45-1.47,1.8.19,2.18,1.41,2.6C233.73,170.55,235.47,167.54,238,166.55Z"/><path class="cls-84" d="M217,185.51c.87-1.41-1.26-.8-1.07-1.53.24-.9,1.14-.44,1.71-.42,2.44.09,4.74,1.72,7.32.65-.73-1.46-2.64,0-3.4-1.61.16-.2.36-.78.69-.86,1.31-.33,2.75-.48,3.79.52,2.73,2.62,6.21,2.71,9.62,3.34,2.79.51,6.24.66,6.32,4.89.07,2.71-.48,4.08-3.76,2.79-2.55-1-5.45-1.09-8.19-1.58a2.19,2.19,0,0,0-2.52,1.15,1.85,1.85,0,0,0,1,2.52,11.18,11.18,0,0,1,5.43,6.74c.42,1.34,1.59,1.37,2.89,1,3.89-1.14,5.09,1,5.13,4.41-5.86-1.75-12-.86-17.93-2-1.66-.23-3.91.27-3.21-2.75s-1.35-3.89-3.78-4.28-1.41-1.5-.55-2.41c1.12-1.17,3-.76,4.2-1.82-2.29-1-2.2-4-5.31-4.83C213,188.78,216.21,186.86,217,185.51Z"/><path class="cls-84" d="M245,189.48c.47-4-.25-6.87-5.37-6-1.81.3-3.09-.89-2.42-2.66,1.8-4.78-1.3-4.29-4.21-4.29-1.44,0-3,.4-4.57-.78,1.64-2.13,3.92-.82,5.77-1.19s4.19,1,4.8-2c1.59.71,2,2,2,3.64,0,3.28,2.77,2.14,4.42,2.56,2.9.76,1.64-1.39,1.69-2.64.06-1.6,1.08-2.32,2.55-2.5l9.29-1.05c3.72.62,6.42-.6,7.81-4.25.3-.77.7-1.94,1.37-1.95,5-.1,6.48-5.07,10.1-7,3.86-1,7.71-2.14,11.72-.75-1.27,3.59-4,5-7.61,5-2.14,0-4.19-.21-5.57,2.22-3.39,6-9.3,8.67-15.46,10.64-3.16,1-5.38,3.09-7.69,5.14-2.65,2.35-.71,5.27-.68,7.95C250.3,189.42,247.63,191.64,245,189.48Z"/><path class="cls-85" d="M290,158.56l-12,2c-.91-1.75-.62-3.88-1.82-5.53-1-1.73-2.14-3.36-3.29-5-2-2.3-3.2-5.05-4.78-7.6-1.55-4.14-2.58-8.45-3.74-12.7-.48-1.76-.72-3.94.86-5.6.73-2.37,1.57-4.64,4.71-4.46,4.24.23,5,3.56,5.9,6.7a74,74,0,0,0,7.3,17.19c.39.72.61,1.88,1.49,1.73,2.93-.53,5.71,1.69,8.16,1.1,4.34-1,7.6.58,11.23,2.2a19,19,0,0,0,10.68,1.49,2,2,0,0,1,1.29.58,2.07,2.07,0,0,0,2,.9,3.35,3.35,0,0,1-1.93,2c-1.84,3.85-5,3.5-8.05,2.17-2.89-1.25-5.46-2-8.45-.14-2.33,1.47-4.41-.19-6.25-1.81-1.79,1.48,1.24,3.86-1.29,4.75Z"/><path class="cls-33" d="M292,158.55c1.68-2.37-4.07-3.39-1.21-5.66s4.24.81,6,2.3a1.65,1.65,0,0,0,2.25-.37c2.84-3.5,5.81-2.09,8.79-.32s5.65,1.15,8.18-.92c.77,1.47-1.23,4.24,2.11,4.51l-1.25,1.41c-4.8.1-9.6,1.1-14.16-1.76C299.15,155.52,295.58,158.65,292,158.55Z"/><path class="cls-30" d="M341.89,147.62l1.08,2.91c-2.72.68-4.62-1.6-7.06-1.95l-1,0a1.88,1.88,0,0,0-1.34-.5c-6-.31-6-.34-3.29-5.39,1.33-2.44.46-4.84.21-7.25-.17-1.69-1.38-1.6-2.57-1-1.92.93-4,1.69-4.91,3.9-.51,1.18-1,2.49-2.73,2.46a50.93,50.93,0,0,0-5.13-13.35c-2.17-4.16-.45-8.2,2.73-9.83l.09.07a12.85,12.85,0,0,0,5.94,4.68c-.52,3.14,3.8,1.9,4,4.39,4.84,1.09,6.56,4.23,6,9a28.79,28.79,0,0,0,0,3.94C334.08,146.62,334.93,147.47,341.89,147.62Z"/><path class="cls-86" d="M327.92,126.72c-1.8-1.25-3.9-1.29-6-1.4-.52-1.84,1.92-1.41,2-2.73a4.78,4.78,0,0,1,1.88-2.77c2.05-1.28,3.93-1.73,5.09,1.1,0,.23.07.46.1.69C332.86,125.05,332.1,126.91,327.92,126.72Z"/><path class="cls-87" d="M326,116.53c.6-2.85-2.25-2.62-3.68-3.77,6.69-3.2,9.41-1.5,9.63,5.79,0,1,.05,2,.08,3l-1,.08-.07-.08c-.81-1.63-.79-4.11-3.69-3.57A1.65,1.65,0,0,1,326,116.53Z"/><path class="cls-88" d="M250,271.33c-3.81.2-7.23-1.72-11-1.95-1.51-1.8-.21-2.86,1-3.94l2-2c.42.94,1.14,1.94,2.09,1.8C249,264.53,250.8,266.61,250,271.33Z"/><path class="cls-89" d="M315,150.63c-5.29,2.31-9.89-.21-14.54-2.16-.73-.3-1.61-1.58-1.9-1.43-4.49,2.38-8.88-1.1-13.28-.12-1.14.26-2.74,1.05-3-.37-1.1-7.18-7.3-12.44-7.34-20-.59-3.3-2-6.65.94-9.65,1.4-1.41,0-2.73-.42-4.08a1.67,1.67,0,0,1,.5-1.25c1.09,0,2.26.16,3-1,1.73-1.74,3.62-3,6.24-2,1.56,3.29-.77,5.31-2.46,7.55-4.94,5.54-4.63,15.88.63,20.54,1.53,1.35,3.18,2.42,5.31,2.29s3.56.14,4.21,2.43c.47,1.68,1.88,1.57,3.26,1.23,1.59-.4,3.15-1.08,4.86-.68a3.25,3.25,0,0,1,1.78.83C305.87,147,310.34,148.91,315,150.63Z"/><path class="cls-90" d="M285,108.63l-6,2c.76-8.54,8.33-10.24,16-11.93,1.9-.42,4-.06,6-.06-.23,2.63-2.57,1.85-4,2.49-1.65.74-4.2.14-4.43,3C291,107.29,288.85,109.42,285,108.63Z"/><path class="cls-91" d="M291.94,103.63c-1.83-2.2-.51-2.61,1.52-3,2.52-.54,5.23-.42,7.49-2,4.37.4,9.14-1.83,13,2,0,.66,0,1.32,0,2-.86,3.08-2.61,4.89-6.08,4.26a5.22,5.22,0,0,1-2.67-.75c-.86-1.2,1-3.79-2-3.9-2.84,0-5.52,1.06-8.34,1.19A9.17,9.17,0,0,0,291.94,103.63Z"/><path class="cls-79" d="M276,111.62c0,.33,0,.66,0,1a26.76,26.76,0,0,1-11.33,2.83,4.57,4.57,0,0,1-2.39-1.93c-.76-1.54-2-3-1.3-4.89h0C266.34,107.77,271.23,109.36,276,111.62Z"/><path class="cls-92" d="M143,183.53a5.48,5.48,0,0,0-1.66-.92c-6.08-.86-7.08-3.4-3.57-8.92a17.09,17.09,0,0,0,1.25-3.15c-.8-2.13-.1-2.78,2-2,5.35,2.89,5.69,9.07,8.34,13.63,2,3.4-2.3,2.42-4.35,2.36A2.07,2.07,0,0,1,143,183.53Z"/><path class="cls-52" d="M170,189.51c5.88.46,6.48,1.29,8,11-4.44-2.65-5.49-8.38-10-11Z"/><path class="cls-93" d="M126.12,268.31c-2.56-1.38-4-4-6.09-5.82,2.15-1.45,4.19-3.17,7-3.07,2.64,2.52,4.88,5.66,9,6,2,1.46,2.88,2.79-.62,3C132.33,268.5,129.22,268.34,126.12,268.31Z"/><path class="cls-94" d="M135.17,250.6c1.78,1,3.76.82,5.68,1a64.67,64.67,0,0,0,.23,7c.57,4.08-1.21,5.46-5,4.89C134.16,259.25,135.34,254.88,135.17,250.6Z"/><path class="cls-95" d="M291.94,103.63c.22-1.22.41-2.53,2-1,3.94,1.16,8.16,1.46,11.55,4.24.86.71,1.83-.16,2.37-1.1.47-1.18,4.67,2.32,2.76-2.29-.41-1,2.14-.54,3.31-.85,3.26,1.16,3.35,3.36,2,6-.14,3.33,1.61,7.37-3.34,8.9-1.14-2.76-2.79-3.73-5.82-2.37-2.69,1.2-5.93.59-8.59,2.32-2.26,1.47-4.48,1.18-6.13-1.08s-.69-4,1.06-5.7c.34-.32.74-.62.59-1.28-3.17,5.18-7,10-9.13,16.17,2.52-2.12,4.91-1.29,7.27-.43,5.58,2,5.94,4.69,1.2,8.66-2-.18-3.57-3.06-5.93-.91a3.55,3.55,0,0,1-1.94,0c.15.86,1.14.68,1.55,1.26a1.44,1.44,0,0,1,.3,1.35c-3.68,1.81-6,.62-7-3.36-1.44-5.78-1.44-11.35,1.93-16.55,1.34-2.18,3.29-4.1,3-7C287.72,107.56,290.54,106.58,291.94,103.63Z"/><path class="cls-96" d="M312.94,117.61c2.63-2.46,1.43-6.19,3-9,1.46,2.81,1.71,5.89,2,9-3.51,3.31-3.18,8.33-1,10.76,3.43,3.84,4.07,7.71,4,12.23,1.67,2.63.6,4.84-1.08,7l-3.9,3.14-.49,0H315c-6.7.83-10.25-3.83-14-8-1.19-1.36-4.19-.27-4.27-3.14,3.28-4,3.37-4,6.42-.47.43.5.74,1.38,1.36,1.35,4.07-.17,5.33,3.27,7.54,5.63a30.5,30.5,0,0,1-3.19-5.43c-1.42-3-1.05-5.69,2.22-7,1.77-.72.89-1.27,1-2.49C312.23,126.55,311.23,122,312.94,117.61Z"/><path class="cls-97" d="M326,116.53l1,1.09c.61,1.29-.54,2-1,2.95l-2,2c-3.5.18-6.09-.74-5.93-4.94C320.47,116,323.31,116.84,326,116.53Z"/><path class="cls-98" d="M127.05,259.42c-2.14,1.49-4,3.67-7,3.07l-2.91-1.24-2.85-3.51a21,21,0,0,0,9.82-2.38C125.27,256.57,128.58,256.23,127.05,259.42Z"/><path class="cls-99" d="M185,254.45c-3.57-.32-9.39-7.4-8.78-10.79.37-2.1,2.06-2.23,3.77-2.16-.76,1.22-3.74,3.26-.36,3.6,4.26.43,4.59,2.36,4.51,5.59A15.47,15.47,0,0,0,185,254.45Z"/><path class="cls-100" d="M319.85,147.52l1.08-7c0-5.49,4.93-6.23,8.26-8.46,1.1-.74,2.65-.48,2.54,1-.29,4.22,3,9.16-2.3,12.47-.36.22-.51.77-.85,1.31,1.92,1.58,4.71-.46,6.35,1.63C329.83,149.2,324.91,147.41,319.85,147.52Z"/><path class="cls-100" d="M335.91,148.58a8.66,8.66,0,0,1,7.06,1.95l3.92,1.07c0,1,0,2,0,3C341.51,155.74,339.44,150.81,335.91,148.58Z"/><path class="cls-101" d="M188,196.5c-.87.92-3.36-.22-3,2.33.48,3,3,3.6,5.33,4,.06,2.33-2.37,1-2.84,2.89,2.41,2.19,5.61,3.74,8.78,5.53-.36,2-2.9.59-3.31,2.22,1.87,2,5.1,1,7,3,.38,1.22,2.23,3-1.3,2.41-1.92-.32-5.38-3-5.53,1.66-.1,3.38-.53,7.77,5,7.88,3.48.06,3,2.16,2.38,4.63-1.83-.54-2.42-4-4.74-2.16-1.69,1.32-.46,3,.22,4.47,0,.34,0,.68,0,1-4.14-3.27-2.12-8.47-3.85-12.57-1-2.48-1.62-5-4.12-6.4l-1-1c-.89-5.2,1.41-11.31-5-14.9-2-1.14-1.86-5.36-1-6.24C183.13,193.24,185.79,195.16,188,196.5Z"/><path class="cls-101" d="M197,186.53l1.06-1c3,1.59,2.11,4.82,3,7.3,1.73,1.52.87,3.92,1.93,5.67-1.86,4-8.92,5.52-10.93,2-.67-1.18.12-3.32-2.05-4,2.94-2.27,1.16-6.66,4-9C195.1,187.48,196.29,187.71,197,186.53Z"/><path class="cls-2" d="M135,147.57c3.17,2,4.38,4.57,2,8-1.33,1.2-2.65,1-4,0h0C132.48,152.58,129.77,149.09,135,147.57Z"/><path class="cls-2" d="M151,177.52c.72-1.57-2.08-3.87.43-4.72,2.88-1,5.38.83,7.56,2.72C156.17,175.4,153.33,175.35,151,177.52Z"/><path class="cls-65" d="M133.07,155.54l4,0h0c1.94,1.15,1.32,3.33,2,5a6.78,6.78,0,0,0,4,1c-1.19,2.18-6.05,3.31-2,7a1.82,1.82,0,0,0-2,2c-3.21-6.11-8.53-9.35-15-11,1.08-1.93,2.74-2.68,4.54-1.34C132.44,161.07,133.08,159,133.07,155.54Z"/><path class="cls-2" d="M139.05,160.55c-2.3-1-1.09-3.43-2-5,1.93-.18,3.63.42,4.41,2.21C142.44,160,139.36,159.17,139.05,160.55Z"/><path class="cls-2" d="M152,166.54c.26,1.19,2.31,2,1.36,3.22-1.33,1.66-3.55.48-5.36.76Z"/><path class="cls-102" d="M203,198.52c-1.47-.2-3.78.19-2-2.5,1-1.47,0-2-1-2.53,2.13-5.33,8.22-7.06,13.83-4.33,3.21,1.56,5.27,5,9.12,5.36-1.43,1.73-3.61,1.46-5.47,2-1.29.4-1.5,1-.5,1.94.09,4.4-1,5.71-5.93,4.08C208,201.57,205.19,200.93,203,198.52Z"/><path class="cls-103" d="M200,216.52c-2.66-.24-5.83.72-7-3,5.67,1.19,10.67-3,16.34-2,1.74.29,4.16-.28,4.3,2.16.16,2.68-2.37,2.74-4.29,2.83C206.24,216.58,203.11,216.5,200,216.52Z"/><path class="cls-104" d="M241,214.8c-.07,3.73-5,8-9.92,8.69-5.16.69-7.69-.83-8.59-5.21a4.44,4.44,0,0,1,0-2.37c1.61-4,13.92-6.89,17.47-4.22C241.08,212.57,240.85,213.69,241,214.8Z"/><path class="cls-105" d="M246,142.55c-.84-2.4.28-5.64-3-7-3.87,1.44-5.38-.07-5-4h0c2-2.17,5-2.91,6.95-5.41,1.78-2.31,3.35-.85,4.23,1.46,1.47,3.84,2.61,7.83,5.71,10.87,1.48,1.45,2.34,2.06,3.73-.09,2.21-3.42,4.28-2,6.13.52a18.68,18.68,0,0,1,3.12,5.05c.51,3.35,3.08,6.93-1.05,9.78-2.47.51-3.53-2.08-5.88-2.68-1,3.68,2.11,5.94,2.86,8.89a8.45,8.45,0,0,1,.33,2.44,6.3,6.3,0,0,1-3.09,5.81c-2.53,1.52-3.83-.91-5.59-1.86a4.89,4.89,0,0,1-1.67-3.33,68.38,68.38,0,0,0-6.34-16.41C246.65,145.28,246.92,143.74,246,142.55Z"/><path class="cls-79" d="M263.94,139.6c-2.22-3.23-4-3.22-4.95.8-.75,3.11-2.17,2.42-3.69.7-3.35-3.78-6.11-7.93-7.31-12.93-.19-.76.11-1.78-.92-2.08a1.56,1.56,0,0,0-1.89,1.23c-1.08,3.71-4.48,3.39-7.18,4.28-.16-.64-.27-1.3-.48-1.92-2.19-6.62-.12-9.34,6.78-8.35,2.55.37,4.53-.65,6.72-1.27s4.83-1.07,6.67.58-1.08,3.17-.75,5C261,129.4,264.89,133.29,263.94,139.6Z"/><path class="cls-90" d="M264,114.6c4.1.05,7.66-3.13,11.95-2,2.94,1.41,4.18,3.17.86,5.48s-1.25,5.68-1.85,8.52c-.32-.54-.85-1-.92-1.62-.28-2.38-1.38-4-3.85-4.31-2.94-.41-3.31,2.08-4.25,3.91a2,2,0,0,1-1-1c0-1.1.18-2.29-1-3A4.25,4.25,0,0,1,264,114.6Z"/><path class="cls-106" d="M265,123.6l1,1c-2,6.51,2.89,11.85,3,18,0,1.68-.86,1.66-2,1l-3-4c-1.25-4.83-3-9.36-7.29-12.4-.64-.45-.3-1.16.29-1.61C259.25,123.46,262.08,123.42,265,123.6Z"/><path class="cls-107" d="M254.92,162.57c.1,1.08-.06,2.25,1,3,1,1.66,1.66,3.24-1,4-4.18-2.93-4.76-7.95-7-12,.33-2-.82-4.24,1-6C252.69,154.3,252.55,159.12,254.92,162.57Z"/><path class="cls-108" d="M264,114.6q0,3-.05,6c-.91,3-2.92,2.29-3.47.35-.77-2.78-2.64-5.25-2.49-8.29,1.65-1.41,3.29-1.22,4.92,0Z"/><path class="cls-8" d="M254.92,162.57c-3.4-2.9-3.16-7.77-5.95-11a9.91,9.91,0,0,1-3-9C251.3,148.19,252.55,155.63,254.92,162.57Z"/><path class="cls-79" d="M238,131.6c.4,2.9,2.18,4.07,5,4-1.4,2.13-1.15,6.66-4.92,5.5s-1-4.8-1.06-7.36A2.3,2.3,0,0,1,238,131.6Z"/><path class="cls-106" d="M262.91,112.7l-4.92,0c.29-1.85.59-3.7,2.94-4Z"/><path class="cls-109" d="M255,169.56c1.47-1.06.85-2.63,1-4,2.06-.62,2,3.44,4.38,2,3.11-1.89,2.72-5,2.59-8l.64-.22c2.74,1.26,4.48,5.42,8.5,2.9,2.14-2.25,3.06-5.26,4.89-7.71,1.39,1.82,2.34,3.72,1,6-2.83,2.25-3.68,7.15-8.9,6.35-1.18-.18-.87,1.88-1.35,2.87-2.16,4.4-4.9,5.26-8.75,2.77C258,171.09,255.49,171.62,255,169.56Z"/><path class="cls-110" d="M223,194.52c-4.18.9-6.3-3-9.58-4.26-5.5-2.16-9.16-1.65-13.37,3.24l-1.54-.88c2-2.49.5-4.76-.43-7.07,4.87-1.14,9.13,2.84,14.09,1.77-.83-1.92-2.78-1.56-4.08-2.68l8.94.87a6,6,0,0,1,.31,1.4c0,1-2.76.44-1.48,2.17.57.78,1.81.41,2.75.09s1.79-.89,2.75-.15C218.92,192.19,218.92,192.19,223,194.52Z"/><path class="cls-109" d="M267,143.59a2.18,2.18,0,0,0,2-1c2.51,1.73,2.7,5.1,5,7-2.38,2.22-1,6.11-3.61,8.22-3.14.91-4.14-1-4.64-3.54l.29-.72C270.46,150.63,266.06,146.85,267,143.59Z"/><path class="cls-106" d="M270,157.55a8.5,8.5,0,0,0,1-5.2c-.14-2.18,1-2.92,3-2.77,1,1.66,2,3.32,3,5,.69,3.9-2.76,5.94-4,9C271.54,161.74,271.21,159.41,270,157.55Z"/><path class="cls-17" d="M326,120.57l1-2.95c1-.39,1.29-2.34,2.69-1.47,2.06,1.28,1.08,3.52,1.3,5.38C329.55,119.73,328,119.15,326,120.57Z"/><path class="cls-111" d="M297,139.56c1,1.47,3.48.92,4,3-1.9.58-3.78,1.2-5.69,1.75-1.14.32-3.2.31-3.16-.47.35-5.62-4.23-2.83-6.42-3.88-6.64-3.19-7.28-9.21-7.71-15.41-.25-3.68.43-7,4-9a13.28,13.28,0,0,1-1.23,6.09c-2,4.11-.31,8.32,1.26,12.18.86,2.11,2.91,3.19,5,.84a2.77,2.77,0,0,0,0-2.22c2.84-4.26,4.32-1.22,5.93,1.11C295.18,135,297,136.62,297,139.56Z"/><path class="cls-112" d="M307.89,105.72c1.23,3.1-.95,3.38-2.61,2.4-3.52-2.07-6.86-4.08-11.19-3.77-1,.07-.78-1.1-.12-1.77l9.95-1.94c1,1.5.15,3.41,1.1,4.93Z"/><path class="cls-95" d="M305,105.57c-2.24-1.23-1.35-3.15-1.1-4.93C304.81,102.17,309.24,102.91,305,105.57Z"/><path class="cls-113" d="M297,139.56l-4-6c3.39-5.15,2.72-6.53-3.55-8.06-2-.5-3.17-.31-3.55,1.94-.13.79-.56,1.7-1.63,1.4s-.89-1.1-.9-2a11.23,11.23,0,0,1,3-8.39c2.4-2.61,3.62-6.27,5.69-9.25.89-1.28,2.37-3.75,4.23-1.92,1.22,1.19-.46,3.08-1.83,4-1.88,1.24-3.31,2.42-1.47,4.71,1.63,2,3.23,1.63,5.13.19,3.4-2.58,7.85-1.73,11.72-3.27,3.06-1.22,3.14,2.33,3.17,4.68-.55,3.94,2.44,7.9-.52,12-.91,1.26,2.31,2.49,2.91,4.51-2.32-.23-5.24-.51-5.88,2-1.3,5,2.9,7.75,6.28,11.07-3.78.71-6.61,1-7-3.48,0-.44-.46-1.21-.71-1.22-3.52-.09-6.11-.87-7.26-5C300.47,136.33,298.55,139.28,297,139.56Z"/><path class="cls-114" d="M287,132.49c.86.17,2.26-.13,2.37.88.19,1.66-1.49,1-2.37,1.34-1.84-.1-3.57-.38-4.38-2.47C284.19,130.7,285.57,132.19,287,132.49Z"/><path class="cls-115" d="M216.41,195c-3.32,1-6,.08-8.9-1.54C212.21,191.94,212.5,192,216.41,195Z"/><path class="cls-116" d="M231.73,213.05c2.48.65,5.4.23,5,3-.36,2.22-1.5,5-4.42,5.23s-2.23-2.23-2.25-3.89S229.5,213.39,231.73,213.05Z"/><path class="cls-109" d="M262.93,159.58a14.32,14.32,0,0,1-3.7-6.72c-.35-1.25-.79-2.94.37-3.64,1.41-.84,2.73.45,3.78,1.46s1.73,1.9,2.6,2.86l-.08.1c-2.89,1-1.1,4.33-2.89,5.88Z"/><path class="cls-117" d="M263,159.52c1.26-1.81-3.22-6.45,2.89-5.88,1.06,1.61,1.45,3.91,4.06,3.91,4,.49,2.76,3.6,3,6C268,166.18,265.57,162.71,263,159.52Z"/></svg>