<svg id="Layer_1" data-name="Layer 1" xmlns="http://www.w3.org/2000/svg" viewBox="0 0 400 275"><defs><style>.cls-1{fill:#ebd5a1;}.cls-2{fill:#e5c792;}.cls-3{fill:#e3c997;}.cls-4{fill:#d5b175;}.cls-5{fill:#d5b886;}.cls-6{fill:#e1c490;}.cls-7{fill:#ddc08c;}.cls-8{fill:#d4b788;}.cls-9{fill:#e4d4af;}.cls-10{fill:#e4cc9a;}.cls-11{fill:#c9ae7c;}.cls-12{fill:#caaa71;}.cls-13{fill:#dcbe87;}.cls-14{fill:#ac7e45;}.cls-15{fill:#cfaa6e;}.cls-16{fill:#ccaf7c;}.cls-17{fill:#d6b37b;}.cls-18{fill:#cfbc99;}.cls-19{fill:#e1c494;}.cls-20{fill:#d7b477;}.cls-21{fill:#debf88;}.cls-22{fill:#c9b081;}.cls-23{fill:#b49763;}.cls-24{fill:#caad7b;}.cls-25{fill:#9d7943;}.cls-26{fill:#dec7a1;}.cls-27{fill:#eadec4;}.cls-28{fill:#d6b785;}.cls-29{fill:#c3a577;}.cls-30{fill:#d7c195;}.cls-31{fill:#d7c39d;}.cls-32{fill:#e2d1ad;}.cls-33{fill:#d3b582;}.cls-34{fill:#e3cca0;}.cls-35{fill:#bca071;}.cls-36{fill:#bda06d;}.cls-37{fill:#decca7;}.cls-38{fill:#b1966b;}.cls-39{fill:#c0a16d;}.cls-40{fill:#a98654;}.cls-41{fill:#d4b98b;}.cls-42{fill:#8d673c;}.cls-43{fill:#bfa67b;}.cls-44{fill:#d2b685;}.cls-45{fill:#9e8867;}.cls-46{fill:#f0eadd;}.cls-47{fill:#aa8b60;}.cls-48{fill:#e0c291;}.cls-49{fill:#bfa57b;}.cls-50{fill:#c5a97a;}.cls-51{fill:#403323;}.cls-52{fill:#9a825a;}.cls-53{fill:#e3cca3;}.cls-54{fill:#b89f73;}.cls-55{fill:#b29566;}.cls-56{fill:#bfa87c;}.cls-57{fill:#968160;}.cls-58{fill:#76684a;}.cls-59{fill:#d9b273;}.cls-60{fill:#dab67a;}.cls-61{fill:#e9d09e;}.cls-62{fill:#e2c794;}.cls-63{fill:#ddbc7f;}.cls-64{fill:#ccab6d;}.cls-65{fill:#d6bb87;}.cls-66{fill:#daba82;}.cls-67{fill:#bea070;}.cls-68{fill:#c3a267;}.cls-69{fill:#c5a66f;}.cls-70{fill:#c9ac79;}.cls-71{fill:#bd9b64;}.cls-72{fill:#caab77;}.cls-73{fill:#ceb586;}.cls-74{fill:#debe81;}.cls-75{fill:#d0b075;}.cls-76{fill:#ba9459;}.cls-77{fill:#be9b5e;}.cls-78{fill:#b79357;}.cls-79{fill:#cba970;}.cls-80{fill:#d6b984;}.cls-81{fill:#b7975d;}.cls-82{fill:#cbad77;}.cls-83{fill:#d9bf8f;}.cls-84{fill:#cca669;}.cls-85{fill:#d0a86b;}.cls-86{fill:#c7a670;}.cls-87{fill:#4a2f19;}.cls-88{fill:#cca364;}.cls-89{fill:#9b8157;}.cls-90{fill:#c8ad7e;}.cls-91{fill:#b9965c;}.cls-92{fill:#bea274;}.cls-93{fill:#dabe8d;}.cls-94{fill:#b6884b;}.cls-95{fill:#c2965c;}.cls-96{fill:#a38254;}.cls-97{fill:#d2b589;}.cls-98{fill:#bf965e;}.cls-99{fill:#d8c49c;}.cls-100{fill:#b2874e;}.cls-101{fill:#9b7e53;}.cls-102{fill:#977d58;}.cls-103{fill:#e2c488;}.cls-104{fill:#bb9b64;}.cls-105{fill:#97743d;}.cls-106{fill:#d7b273;}.cls-107{fill:#cea968;}.cls-108{fill:#c29f5d;}.cls-109{fill:#c7a770;}.cls-110{fill:#dfc188;}.cls-111{fill:#c3995b;}.cls-112{fill:#d7b47a;}.cls-113{fill:#b69155;}.cls-114{fill:#ad8348;}.cls-115{fill:#ad8f5e;}.cls-116{fill:#a87b43;}.cls-117{fill:#a5763e;}.cls-118{fill:#9d6a2d;}</style></defs><path class="cls-1" d="M98.05,205.46c.15-2.34-.82-3.57-3.22-2.81a13.31,13.31,0,0,1-4.82.88c-.45-1.52,1.68-2.91.21-4.49-.92-1.88.22-4.38-2-6.2-3.72,6.21-10.36,7.66-16.33,10.19a28.08,28.08,0,0,0-5.64,3.1,37.37,37.37,0,0,1-6.85,4c-2.76,1.19-6,2.82-8.07-.38-1.8-2.78,1.15-4.76,2.85-6.69,3.89-4.38,9.46-7.6,9.8-14.39.92-4.73,3.9-7.89,7.86-10.34s4.92-5.53,1.92-8.82c-1.4-1.53-1.18-4.94-3.79-4.62-3.13.38-3.32,3.66-4.23,6.11a16.58,16.58,0,0,0-1.4,6.74c.08,1.49-.38,2.74-2.33,1.71-.92-5.27,0-10,2.05-15.14,2.5-6.31,3-13.47,3.93-20.32.44-3.17,1.22-5.81,4-7.59,3.11,1.6,5.15,3.36,4.78,7.64-.56,6.37,3.37,9,9.51,7.22,8.18-2.37,13-.51,17.73,7.08a2.62,2.62,0,0,0,2.36,1.47c5.26.06,8.4,3.35,11,7.33a6.3,6.3,0,0,0,3.35,2.83c2.59.81,4.67,2.5,6.89,3.94,1.75,1.13,4.74,1.94,4.24,4.3-.6,2.8-3.62,1.32-5.62,1.52-1.46.15-3-.24-4.67,1,2.84,3.83,4,7.64-.08,11.7-1.48,1.49-.15,4.16,0,6.29.21,2.53-.42,3.53-3.06,2.08-2.88-1.58-5.72-2.62-9.37-2-2.88.47-5.78-1.37-7.05-4.52a41.58,41.58,0,0,1-1.65-4.84c-.74,3.2,0,6.1.82,9.06S102.12,204.49,98.05,205.46Z"/><path class="cls-2" d="M247.83,229.55c-3.3-1.45-5.62-4.5-10-4.34-4.18.16-7.28.41-7.78,5.31a77.25,77.25,0,0,1-4.32-12.35c-.41-1.41-.37-3-2-3.63a3.35,3.35,0,0,1-1-1.1,1.41,1.41,0,0,1,.41-1.36c1.44-1,3.25-.63,4.78-1.23,2.67-1,5.5-2.14,5-5.81-.46-3.5-2.43-5.79-6-6.29-1.65-.23-3.54-.49-4.88.51-4.94,3.67-10.24,1.59-15.43,1.21-1.66-.12-3.41-.76-3.86-2.63s1.09-3.05,2.57-3.81c2.3-1.19,4.46-3.1,7.4-2,1.59,2-1.48,2.63-1.15,4.24,4.12.81,4.45.34,3.19-4.64,2.49-3.82,3.57-3.9,7.49-.66-2.21-2.2-2.93-5.54-5.84-7.18a4.77,4.77,0,0,1-1.63-1.26c-.47-2.16,1.11-3.94,1.12-6a7.1,7.1,0,0,1,2-3.9c-1.7-.13-2.64,1.41-4.11,1.49a2.86,2.86,0,0,1-3.25-2.22,3.72,3.72,0,0,1,.46-2,7.65,7.65,0,0,0,.52-1.36c.43-1.61.52-8.55.1-9.81-1.66-1.84-4.45-3.31-2.14-6.48a1,1,0,0,0,0-1c-4.14-5.4.64-10,1.6-14.83.44-2.24.78-4.07-.31-6.06,2.25-2.4,5.66-2.87,8.17-5,1.87-1.6,3.83-.07,4.66,2.07a62.7,62.7,0,0,1,3.95,20.87c.11,4,1.59,6.88,3.33,9.91,1.94,3.4,5.29,2.85,8.31,2.28.77.35.37-.79.31-.13,0,.22-.17.12-.5,0-3.2-.76-2.16-2.33-.68-3.81,5.88-5.91,10.19-6.38,17.34-2.17,1.38.82,2.62,1.78,2.8,3.3.5,4.17,3,4.62,6.34,3.72a4.42,4.42,0,0,1,2,.55c1.1.82.87,2,.9,3.13a8.87,8.87,0,0,0,.65,1.92c.67,5.18-1.11,7.91-6.78,10.42-.45.14-.95-.16-1.38.18a6,6,0,0,1,1.41,0c3.15.09,7.52-1.41,7.85,3.49.28,4.13-3.63,4.7-6.95,5.57-4.46,1.16-9.31.39-13.47,2.85-.94.58-2.73.58-1.68,2.51-.62,1.44-2,1.69-3.25,2.21a12.71,12.71,0,0,1-2,.46c-2.81.21-4.36,2.63-7.18,4.09a15.73,15.73,0,0,1,5.8,2.84,3.35,3.35,0,0,1,.83,1.14c-1,4.41.64,9.57-3.73,13-.56,2.78,1.62,4.59,2.48,6.85,2.74,1.11,5.63.17,8.4.69,1.52.28,3.34.73,3.3,2.45,0,2-2,1.94-3.47,1.79C243.87,227.05,251.5,229.86,247.83,229.55Z"/><path class="cls-3" d="M98.05,205.46c1.72-1.84,3.63-3.8,1.93-6.46-2.24-3.52-.4-7.36-1.26-10.95-.21-.88-.25-1.8.75-2,1.56-.36,1.18,1.08,1.58,1.88,1.73,3.47,1.26,8.43,6.43,9.6.62.14,1.49.78,1.77.57,4.8-3.59,7.5,1.27,11.26,2.44-.28-1.84-.69-3.86-.86-5.9-.13-1.64-.24-4,1.07-4.61,5.23-2.45,2-5,.2-7.24-.64-.82-2.19-1-1.64-2.51s1.86-1.74,3.26-1.74h9.51a49.92,49.92,0,0,0-11.33-7,10.26,10.26,0,0,1-5-4.27c-2.13-3.31-4.71-7.1-10-5.89-1.68.4-3.22.12-3.5-2.3-.49-4.25-7.76-8.8-12-7.7-1.29.33-2.54.79-3.8,1.2-6.59,2.1-10.72.43-11-6.22-.14-4.18-1.56-6.89-3.55-9.9l.89-.94c3-2.3,2.68-5,1-7.89l-.93-.88a1,1,0,0,1,0-1.36c2.6-1.37,5-.36,5.79,1.92,1.45,4.44,4,8.84,2.71,13.81-.77,3,.13,4.37,3.26,4.53,6.24.3,12.23,2.81,18.6,2.1,1.21-.13,2.65.29,3.1,1.26,2.25,4.83,7.47,5.66,11.13,8.54,3.64,7.42,10.39,11.83,16.4,17a5.24,5.24,0,0,0,2.2,1c2.17.58,7.83-2.17,4.23,4.21,2.36,3.77-.65,6.57-1.76,9.7a2.72,2.72,0,0,1-1.41,1.36c-2.08.16-2.63-1.64-3.78-2.8,3.78,4.62,3.74,10.57,5.56,15.88,1.15,3.34-.81,6.19-4,7.85-1.77-1.84-1.92-5-5-5.87.77,2.55,2.12,5.32-.13,7.46-1.16,1.11-2.4-.7-3.39-1.71,2,4.49.09,7.45-4.66,7.25-1.34-.05-2.49-.47-2.54-1.8-.11-3.1-1.88-4.3-4.5-5.56-2.88-1.4-1.28-4.77-1.81-7.84-2.1,2.45-4.16,3.36-7.37,2.69-3-.62-3.76,3.19-5.49,5.06C94.63,209.69,94.63,209.69,98.05,205.46Z"/><path class="cls-4" d="M54,77.55c6.1-5.62,24.17-7.93,31.09-3.89,4,2.33,8,4.55,12.08,6.82-3.09,2.87-6.74-.59-9.95,1,2.1,1,3.74,2.29,2.78,5-7-1.19-14-3.63-21.24-.74-2.74,1.1-5,2.46-4.88,5.91a1.31,1.31,0,0,1-1.3,0c-5.38-1.87-6-1.31-6.4,3.88-.38,4.54,1.35,7.52,5.15,9.61,1.89,3.66,3.85,7.27,7.47,9.58,4.46,3.57,10.64,3.17,15.21,6.56,1.39,1,2-.12,2.4-1.36.52-1.69,1.45-3,3.38-3.14a114.45,114.45,0,0,1,15.59-5c2.32-.6,4.81-2,6.89.63a2.3,2.3,0,0,1,0,1.53c-2.58,4-6.86,4.35-10.92,4.84a10.46,10.46,0,0,0-8.17,4.8c-3.22,4.83-8.94,5.86-13.87,2.48a30,30,0,0,0-9.91-4.36c-2-.81-3.13-2.53-4.47-4-6.5-5.31-13.24-10.42-16-18.89C48.19,91.1,51.43,84.41,54,77.55Z"/><path class="cls-5" d="M112,113.56v-1c-.18-3.89,2.47-4.39,5.31-4.11,8.27.81,16.53.11,24.79.1a44.23,44.23,0,0,1,12,1.45c-2.85-3.84-7-4.14-11.52-4.22-4.2-.06-8.63,1.35-12.61-1.23,7.85-2,15.8-1.06,23.69-.52,10.91.75,21.51,4,32.6,3.74a124.23,124.23,0,0,0,16.85-1.45c7.29-1.21,14.08.78,21,2.15-2.08,2.54-5.14,1.86-7.82,2.28a38.6,38.6,0,0,0-5.86.91c-4.68,1.68-10.51.33-14,5.29a1.77,1.77,0,0,1-1.86.48c-7.1-3-14.74,2.55-21.73-1.64,1.75,1.52,6.11.48,4.29,5-4.36,1.84-8.82.26-13.15,0-4.55-.22-9-1.65-13.7-.77a6.06,6.06,0,0,1-5-1.73c-5.76-5.16-11.79-2.8-17.48-.42-3.32,1.39-5.74,1.55-7.72-1.46S114.24,115.64,112,113.56Z"/><path class="cls-6" d="M37.92,265.35,31,265.19c-1.06-7.19-.06-14.42-.36-21.63-.11-2.63,0-5.27-.06-7.91,0-1.31,0-2.81-1.6-3.29s-2.35.72-3.17,1.79c-1,1.27-1.77,2.92-3.89,2.27a144.71,144.71,0,0,1,9.48-22.58c1.94-3.65,1.42-8.22,4.61-11.31,2,2.79-.78,5.29-.33,8.39,2.26-2.68,4.23-6.09,8.44-3.72,2,4.37,6.9,4.48,10.18,7,1.31,1,3.54,1.26,2.38,3.77-3.53,1.44-7.52.76-11,2.37-2.9,1.05-4.67,2.89-4.47,6.21.07,1.14.14,2.65-.71,3.27-4,2.93-1.7,5.27.48,7.7l.07,1a27.17,27.17,0,0,0,.38,20C43.6,263.94,43.67,264.3,37.92,265.35Z"/><path class="cls-7" d="M100,211.33c.46-5.17,2.67-6.86,7.47-5.69,1.72.42,1.72.42,5.86-4.49a4.72,4.72,0,0,1,1.23,4c-.79,3.59-1.71,6.86,4.21,5.87,1.68-.28.93,2.05,1.21,3.23s-.79,3,1,3.35a6.2,6.2,0,0,0,5.15-1.34c1.62-1.44.15-2.57-.5-3.87a36.34,36.34,0,0,1-1.57-4.74c3.07,1,2.72,4.28,4.93,5,.9-3.54.9-3.54-1.37-8.84,4.78.56,7.25,3,7.39,7.65a.86.86,0,0,1,.26.85c-.08.28-.17.43-.25.43-.68,2.86-1.36,5.72-2,8.59-.22,1,0,2.25-.61,2.84-6.08,6.32-6.45,13.45-3.32,21.17a.74.74,0,0,1-.06,1.25c-2.56-.26-2.8-2.55-3.74-4.24a11.63,11.63,0,0,1-.48-3.56c-.58-2.22,1.75-4.65-.5-6.74-1.67-.14-3-.71-3.42-2.53-.23-.61-.4-1.46-1-1.59-3.89-.85-6.06-2.45-4.62-7.06.78-2.5-2.92-2.08-3.71-3.85-.2-2.27-1.64-2.41-3.41-2a12.27,12.27,0,0,0-6.06-1.59Z"/><path class="cls-8" d="M314.88,262.48c-6.91,2.18-12.89.46-18.4-4.06s-11.09-8.64-16.65-12.94a2,2,0,0,1,1.2-.6c1.84.22,3.33,1.39,5.07,1.91,3,1.18,4.85,4.08,8,5.06,2.63,1.77,4.52,4.53,7.61,5.69,2.45.95,2.78-.69,3.14-2.47,1-4.71,2-9.41,1.81-14.28l.45-.53c6.85,3.29,13.52,6.94,20.77,9.37,2,.67,4.34,2.24,3.74,4.64-.77,3.11-3.47,4.68-6.68,5.11C320.82,258,317.62,259.52,314.88,262.48Z"/><path class="cls-9" d="M203.88,239.55c-.94-5.71-2.09-11.4-2.74-17.15a18,18,0,0,0-2.24-6.87c-1.07-2.8-1.9-5.68-1.35-8.68.66-3.53-1.35-5.55-4.08-6.53-5-1.77-10.06-3.43-15.12-5A4.73,4.73,0,0,0,172.6,197a4.11,4.11,0,0,1-5.63,1.44c-1.37-.17-2.93.44-4-1,2.59-1.69,5.25-3.13,6.79-6.18,1.18-2.34,3.88-2.24,6.24-1.81a57.75,57.75,0,0,1,7.12,2.16c11.15,3.4,21.56,9.36,33.59,9.73a7.15,7.15,0,0,1,3.39.57c2.89,1.63,6.25,3.09,6.47,6.9s-4,2.66-5.76,4.31c-4.49-.28-8.85-1.79-13.4-1.43-4.69-.8-4.62-.8-4,3.92.89,7,1.93,14,2.66,21A4.81,4.81,0,0,1,203.88,239.55Z"/><path class="cls-10" d="M57,217.45c-3.41-2.31-6.83-5.1-10.8-5.74-3.7-.6-2.58-2.27-2.19-4.24,6.47-3.86,12.55-8.14,15.87-15.28a10.53,10.53,0,0,1,3.83-4,1.3,1.3,0,0,1,1.28.27,11.85,11.85,0,0,1-4.13,9.7c-2.72,2.44-5.23,5.11-7.76,7.75-.89.94-2,2.13-1.25,3.48.89,1.57,2.72,1.31,4.06.85a20.89,20.89,0,0,0,6.28-3c5.91-4.73,13.11-6.77,19.79-9.88,1.76-.82,3.2-1.75,3.79-3.64.5-1.61.88-3.61,3.13-2.93,1.78.54,2,2.46,2.07,4.16.05,1.49,0,3,0,4.48-3.16,1.87-6.76,2.53-10.24,3.18-5.82,1.08-10.22,3.52-12,9.27a3.27,3.27,0,0,1,4.31.59c-5.67.9-10,4.73-15.1,6.86A2,2,0,0,1,57,217.45Z"/><path class="cls-11" d="M130,104.54c5.48,0,11,0,16.45,0,4.76,0,8.79,3.14,10.86,8.74-6.16-4-12.54-2.84-18.95-3.16-7-.35-14,1.35-20.89-.57-2.7-.75-4.3.76-5.45,3-6.74-.72-12.63,2.23-18.68,4.41-1.09.39-1.82,2.27-3.31.67-.15-2.09,1.67-2.95,2.81-4.17-.77-1.07-1.88-.7-2.75-1-2-1-5.28.63-6-2.93,13.45,1.23,26.33-2.8,39.49-4.33C125.64,104.91,127.8,104.74,130,104.54Z"/><path class="cls-12" d="M125.9,238.49c0,1.31,0,2.63.07,3.94-.93,3.67-.71,7.5-2.39,11.12-1.24,2.67,2,4.16,3.27,6.2,1.8,1.87,4.86,1.22,6.57,3.28,2.11,2.89,3.74,6.26,8.22,6.25,1.22,0,2.37,1.23,1.25,2.86l-2,0c-4.66-.85-9.41.35-14-.66-.93-.24-2.55-.28-2.68-.76-1.6-5.48-7.18-7.23-10.31-11.22-.43-4.29-.79-8.56.32-12.81,1.15-1.67,1.23-3.66,1.76-5.53C117.2,236.85,122.34,235.53,125.9,238.49Z"/><path class="cls-13" d="M239.75,107.45c6.37-2.86,13.17-4.23,19.91-5.85,8.17-2,16.36-3.71,24.78-4,2.52-.1,3.63-2,5.28-3.35C297.53,88,306,84.15,316.21,87.42c-2.17,2.08-5.23,2.35-7.78,2.66-4,.5-7.25,2.2-10.85,3.51-5.26,1.91-7,5.45-8.56,9.85a7.72,7.72,0,0,1-1.86,3.44c-3.11,1.2-6.6.33-9.68,1.88-1.14.57-2.31-.15-3.13-1-1.84-2-4.07-2-6.45-1.49-6.63,1.58-13.12,4.28-20.14,2.06C245.17,107.47,242.21,109.85,239.75,107.45Z"/><path class="cls-14" d="M350,119.52l10,5c2.41,3.57,2.84,7.5,2.34,11.68-.31,2.54-.14,2.56-3.23,2.73,1.49.81,4.1-.4,5.06,2.28-2.83,4.27-6.8,1.79-10.36,1.77a38.34,38.34,0,0,1-4.42-.18c-3.41-.33-5.4-2-5.56-5.62a80.37,80.37,0,0,1-.18-8.35c.2-3.08-.7-5.46-3.49-7-.41-2.69,2.77-3.78,2.82-6.27C346.47,114.74,347.36,118.64,350,119.52Z"/><path class="cls-15" d="M210,110.56c4.54-1.82,9.52-.77,14.15-2.09l5.88.2c2.3,1,4.54-.31,6.85-.16,2.52.17,4.59.68,5.54,3.28.2,2.13-1.23,2.23-2.81,2.4-6.76.74-6.75.77-5.75,7.51-.2,1.63-.7,3-2.73,2.89-7.79-8-7.84-8.07-16.94-1.59-2.73,2-5,1.3-7.24-.37a8.12,8.12,0,0,1-3.32-7.8,3,3,0,0,1,2.41-2.26A11.59,11.59,0,0,0,210,110.56Z"/><path class="cls-16" d="M207,210.49a34.09,34.09,0,0,1,14,1.93,1.37,1.37,0,0,1,2,.06l.06.93c-1.68,1.84-4,1-6,1.41-.79.14-1.72.18-1.85,1.21-.09.7.49,1.2,1,1.6,1.56,1.19,3.25,2.79,5.21,2.29s1.11-2.8,1.49-4.3a4.52,4.52,0,0,1,1.1-2.15c1.25.07,2.71.54,2.67,1.76-.18,5.43,4.4,9.74,3.45,15.29-.18,1.71.39,3.56-1,5a2.8,2.8,0,0,1-1.25-1.52c-.88-2.66-3.23-2.3-5.28-2.56a6.85,6.85,0,0,1-3.22-1.48c-1.81-1.83-3.54-.86-5.36.06-2.83,1.42-4.89.31-5.82-2.47-1.57-4.67-1.61-9.68-2.95-14.43C204.86,211.92,205.88,211.07,207,210.49Z"/><path class="cls-17" d="M61,192.47c-3.8,7.1-8.56,13.11-17,15-3.75-.66-5.91,1.14-7,4.54-.32,1-.73,2.11-1.85,1.94-1.61-.25-1.25-1.84-1.08-2.83.52-2.88,1.28-5.73,1.95-8.59a9.48,9.48,0,0,1,3.65-3.85c4.16-2.61,8.6-4.8,12.23-8.22,1.47-2.86.5-7.74,6-7.25a2.12,2.12,0,0,1,.13,2.3C56.42,189,58,191,61,192.47Z"/><path class="cls-18" d="M330.92,153.55c-5.71,2.21-11.28,4.81-17.37,5.88-.63.11-1.52.36-1.75.82-2.71,5.38-7.77,4.59-12.16,4.12-6.74-.72-8.79,5-12.72,8.13-2.47,1.36-4.59,2.84-5.65,5.79s-3.47,4.76-7,3.64c-1.33-2.32,1.21-2.77,2-4.09.22-.24.57-.44.66-.71,1.6-5.22,5.19-8.19,10.32-9.83,2.29-.74,3-3.3,4-5.38a3.15,3.15,0,0,1,1-1c6.54,1.33,9.8-3.55,13.69-7.23,2.78-4.71,6.65-4.43,10.9-2.39,3.8,1.81,7.52,2,11.1-.55a6.65,6.65,0,0,1,1.78-.81c1.58-.37,3.58-1,4.17,1S331.86,152.61,330.92,153.55Z"/><path class="cls-19" d="M142.89,272.14c-.09-1-.41-2.31-1.59-2.1-5.32.93-6.61-3-8.26-6.56,1.23-1.5,3-1.37,4.6-1.29a7.56,7.56,0,0,0,7.45-3.89c4.88,2.76,10.64,2.65,15.68,4.78,1.87.79,4.25,1.76,3.33,5.07-.84,3-2.8,3.22-5.22,3.13-1.87-1-3.61-4-5.65.08-.62,1.23-2.81.15-4.15.85Z"/><path class="cls-20" d="M241.94,112.55c-1.17-2.42-3.16-3.06-5.74-3-2.07,0-4.34.81-6.22-.83a40.81,40.81,0,0,1,9.78-1.22c7.52-1.25,15.17,1.17,22.72-.81a44.56,44.56,0,0,0,5.46-2.07c2.47,2.51,2.06,5.39,1.06,8.35-.53,1.58-2,3.13-3.22,2.45-4.35-2.34-6.68,1.15-9.57,2.83-6.29,3.65-6.32,3.7-9.84-2.63a3.78,3.78,0,0,0-2.63-2.08A3,3,0,0,1,241.94,112.55Z"/><path class="cls-21" d="M58,183.5c-4.32.32-3.93,4.76-6.11,7,.29-7.27,1.1-8.15,10.07-11,2.07-3.16,1.49-7,2.82-10.49a15.38,15.38,0,0,1,3.84-5.51,2.3,2.3,0,0,1,3.14-.41c2.12,1.4,5,10.43,4.66,13.14a2.33,2.33,0,0,1-2,2.31c-4.95,1.62-7.84,5.21-9.48,10H64C63.54,185,60.86,184.12,58,183.5Z"/><path class="cls-22" d="M21.92,236.42a4.54,4.54,0,0,0,3-3.61c.33-3.14,2.67-2.3,4.5-2.33,2.77-.06,2.45,2,2.52,3.83.35,9.31-.64,18.65.46,28,.11.9-.93,1.94-1.44,2.92-1.62-.14-2.32-1.41-3.13-2.54-.28-2.43-2.25-2.68-4.05-3.15a1.13,1.13,0,0,1-.77-.26c-.1-4.34,2.84-8.32,1.37-12.84a12.1,12.1,0,0,1-.22-6.35c-1.73-.2-5.12,1.78-3.15-2.54Z"/><path class="cls-23" d="M115.06,246.37c-.7,4.36,1.09,8.94-1.18,13.16a10.71,10.71,0,0,1-5-7c-1.68-3.82-1-8-1.79-11.93-.32-1.23-.94-2.42-.58-3.75a2.24,2.24,0,0,1,1-1c1.87-.59,2.78-2.29,4.11-3.51,3-2.7,6.26-4.3,10.38-2.89.21,2.49,1.93.73,2.91,1.05,1.48,2.53,1.75,5.16-1.67,5.77-5.22.91-8.07,3.24-7.47,8.82C115.79,245.54,115.34,246,115.06,246.37Z"/><path class="cls-24" d="M280.92,245.4l-1.09.08c-4.72-2.22-9-5.37-14-7-2.67-.86-4.91-3.18-8.29-1.45-1.56.81-2.74-1.27-3.64-2.65-1.41-2.38-4.88-2.21-6.07-4.86v0c-3.5-5.18,3.15-1.79,3.29-4.2-4-2.55-9.07.81-13.08-2,1.85-1.58,4.1-1.24,6.25-1.3.51,0,1,0,1.52,0a77.46,77.46,0,0,1,14.41,1.14c2,.34,4.39.47,4.94,2.69.62,2.54-2,3.53-3.49,5-.79.74-2.18.33-3.44,2.31,4.41-3,7.43-2,10.21,1.08,1.07,1.2,3,1.43,4.4,2.29C275.38,239.65,280.18,240.68,280.92,245.4Z"/><path class="cls-25" d="M63,91.53a7.53,7.53,0,0,0,.83.1c.83,3.25,3.86,5.13,5.08,8.14a10.23,10.23,0,0,1,2.64,3.57c1.33,4.44,4.76,5.58,8.7,6,1.17.14,2.55,0,2.77,1.44s-1,2.36-2.39,2.66a15.44,15.44,0,0,0-5.53,2.11c-1.89,1.25-3.92.32-5.88.35-3.85-3.77-5.57-9-9.15-13a22.62,22.62,0,0,1-1-7.35C59.24,93.39,59.45,90.67,63,91.53Z"/><path class="cls-26" d="M203.88,239.55l1.08-3.11c3.62-.49,4.08,2,4.29,4.64.29,3.46-.29,7,.46,10.41.67,2.87.84,5.93,3.12,8.19,2.83,2.75,7,1.59,10.14,3.41,1.1,1.74,0,2.68-1.34,3.41-1.69.93-2.9,2.5-4.6,3.39-1,.5-2.45.21-3.12,1.49-2.89-.18-3.69-2.54-4.68-4.6A51.62,51.62,0,0,1,203.88,239.55Z"/><path class="cls-27" d="M167,198.47c1.84,0,3.66.13,4.53-2.06,1.5-3.77,4.48-3.3,7.46-2.4,5,1.51,9.77,3.71,15,4.74,3.71.73,5.28,5.19,4.56,9.06-.45,2.47.23,5.14.4,7.72-3-1.53-2-4.75-2.6-7.12-.8-3-2.17-4.68-5.08-5.32-7.13-1.57-13.77-6-21.58-3.69A2.41,2.41,0,0,1,167,198.47Z"/><path class="cls-28" d="M286.92,106.54c.48-3.47,2.13-6.54,3.42-9.72.25-.61.56-1.66.92-1.7,5.4-.5,8.3-6.92,14.5-5.83,3.53.62,6.69-2.64,10.45-1.87,5.85,2.15,11.72,4.24,16.72,8.12-3.38,2.32-6.17,0-9.12-1.13-6.24-4.83-12.49-1.08-18.56.31s-12.17,3.62-14.68,10.55A2.3,2.3,0,0,1,286.92,106.54Z"/><path class="cls-29" d="M323.93,93.55c3,.51,5.75,2.44,9,2h0a34.71,34.71,0,0,1,6.1,6,14,14,0,0,1,5.25,8,19.45,19.45,0,0,0,5.66,10c-3-.13-4.22-3.55-7.14-3.81-.16-.17-.31-.34-.48-.51-.87-1.78-.49-3.85-1.34-5.64-.77-1.62-1.48-3.27-3.86-3-.23,1.66,2.71,3,.42,4.63a6.13,6.13,0,0,1-5,.13c-1.14-.2,0-2.34-2.18-2.11-2,.21-2.13-2.08-2.3-3.69-.19-1.93.15-3.95-1-5.69-.66-.88-1.41-1.69-2-2.61a6.8,6.8,0,0,1-1.37-3Z"/><path class="cls-30" d="M73.07,212.51l-5.32-.24c1.38-9.93,10.48-10.82,23.23-12.8,2.51,1.66,2.51,1.66-1,4.06A107.21,107.21,0,0,0,73.07,212.51Z"/><path class="cls-31" d="M273.94,181.48c3.66-.24,6.56-1.08,7.19-5.6.41-2.9,3.26-3.24,5.79-3.38-8,8.41-11.6,19.56-18,29a1.41,1.41,0,0,1-1.29.17,3,3,0,0,1-1.25-1.61c-.52-2,1.24-3.87.48-5.91-1.41-1.09-3.31-2-2.42-4.26,1.37-3.48,4.76-2.87,8-3.44-.53-1.53-3.11-2.51-1.44-4.39C271.82,181.12,272.74,180.46,273.94,181.48Z"/><path class="cls-32" d="M135,212.74v-1.28c4.23-5.42,4.23-6.2,0-11.65-.19-.25-.37-.53-.55-.79,4-2,.65-4.36,0-6.22-.88-2.58-2.69-4.84-4.08-7.25,0-.07.11-.27.31-.72,3.14.74,4.24,3.76,6.27,5.66a2.91,2.91,0,0,1,.89,1c.74,1.37.64,3.14,2,4.35,1.4-2.2.5-4.81,1.49-7a2.52,2.52,0,0,1,1-1c4.6-.46,9.1-.19,13.38,1.78,1.94.9,3.93,1.73,4.45,4.15-.08.23-.17.46-.26.7-3.8-.32-6.87-2.73-10.68-3.42-4.58-.82-5.87.76-6.63,4.73-1.1,5.73-1.41,11.84-6,16.31C136.12,212.6,135.78,213.26,135,212.74Z"/><path class="cls-33" d="M344.93,152.39l-3,.2c-4.12-2.66-5.65-7.56-9.23-10.71-.18-.17.41-.81.85-1.08,6.88-2,13.09.4,19.26,3a16.32,16.32,0,0,1,2,2.75c2.23,3,.66,4-2.26,4.18-2.81,0-5.46-1.12-8.51-1.12C344.15,150.61,345.43,151.3,344.93,152.39Z"/><path class="cls-34" d="M21.05,237.51c.37.7-.88,3.47,1.67,1.35.78-.65.92-2.5,2.46-1.45,1.1.76.75,2,.29,3.15a6.36,6.36,0,0,0-.16,4.34,15.86,15.86,0,0,1-2.26,14.34C17,252.48,19.54,245,21.05,237.51Z"/><path class="cls-8" d="M267.91,201.5l1,0c2.53,7.73,9.83,10.25,15.73,14.23,5.39,3.63,10.25,7.41,13.38,13.51,2.12,4.14,6,7.4,9,11l-.21.26c-3.28,1.24-4.39-1.54-5.85-3.33a142.71,142.71,0,0,0-21.57-21.13c-3.67-2.58-7.57-4.87-10.48-8.39C267.45,205.83,266,204,267.91,201.5Z"/><path class="cls-35" d="M41,237.5c-1.22-.52-2.67-.77-3.6-1.61-1.84-1.65-2.54-4.11.18-5.16,2.37-.92,2.63-2.29,2.41-4.14-.48-4,1.25-6.3,5-7.24,3.1,2.76,3.35,5.61,1,11.07Z"/><path class="cls-36" d="M145.09,258.3c1.36,4.31-2,4.61-4.62,5a51,51,0,0,1-7.43.16c-2-1.87-5.63.14-7-3,1.29-5.12,1.39-5.17,8.65-4.44a23,23,0,0,1,8.37,1.33Z"/><path class="cls-37" d="M332.89,141.54c4.94,2.12,6.65,6.87,9.07,11.05l-11,1,2.45-2.33c-2.07-1.64-3.7.43-5.46.3-2,.9-2.52-.06-1.81-1.69a14.57,14.57,0,0,0,1.4-5.24,6.88,6.88,0,0,1,3.4-3.53A2,2,0,0,1,332.89,141.54Z"/><path class="cls-38" d="M222.93,263.45c-3.88-.29-8,.34-11.09-2.94,1.41-1.29,2.36-2.39,1.64-4.78-.52-1.73,1.58-1.59,2.79-.9,1.82,1,3.56,1.7,5.42.18,4-1.78,1.51-5.41,2.31-8.1.38-.9.71-1.88,2-1.47-.81,5.63,2.36,9.39,6.08,12.89l-.51.48c-2,.81-3.47-1.88-5.78-.84-.46,2,2.8,2.13,2.33,4.11C226.75,263.82,225.1,264.64,222.93,263.45Z"/><path class="cls-39" d="M90,86.46c-.75-3.63-2.85-4.83-6.66-3.25,2.25-3,4.81-4.3,8-3.32a15.21,15.21,0,0,0,5.79.59c2.06,1.13,5.48,1.7,4.63,4.7-.76,2.66-4.07,2.25-6.47,2.2A33,33,0,0,1,90,86.46Z"/><path class="cls-40" d="M75,114.54c1.67-2.77,5.59-1.07,7.76-3.4-1.92-1.87-3.77-.56-5.45-.81-6.33-.94-6.27-6.52-8.36-10.56,5,3.35,8.78,8.46,15.09,9.72,1.91,2.09,5,.35,7,2.06.51,2.24-.62,3.73-2.61,4C83.88,116.12,79.26,117.23,75,114.54Z"/><path class="cls-41" d="M46,230.42c-.46-3.68,1.1-7.53-1-11.07,3.75-2.21,7.89-1.89,12-1.9a2,2,0,0,1,1,1.92Z"/><path class="cls-42" d="M363.89,140.55c-3.17-.33-6.19-1.47-10.46-1,3.06-3.41,5.47-.73,7.56-1.29,1.21-1.56-1.59-2.35-.48-4,2-2.93.79-5.59-1.33-8-1.06-1.19-.49-1.63.76-1.83a16.64,16.64,0,0,1,6.2,3.81A14,14,0,0,0,369,138.64a.85.85,0,0,1-.17.91C367.52,141.53,365.74,141.24,363.89,140.55Z"/><path class="cls-43" d="M232.12,258.33c2.3.55,4.76.63,6.78,2.09,1.71,3,.31,6.05-.52,8.79s-4,1.9-6.22,2.59c-1.68-3.24-5.63-5.84-2.91-10.32.22-1.44,1.27-2.22,2.38-3A2.65,2.65,0,0,1,232.12,258.33Z"/><path class="cls-44" d="M102,213.46c2.5-2.6,4.37-1.54,6,1,.28,3-2.28,4.41-3.53,6.55-2,3.93-1.91,8-.86,12.16a6,6,0,0,1,.21,1.39c-.11,1-.38,1.86-1.51,2.11A14.14,14.14,0,0,1,98,232.42c.86-4.09,4.9-7.72.54-12.55C97,218.19,100.84,215.7,102,213.46Z"/><path class="cls-32" d="M183,192.48c-1.92-.46-3.84-.94-5.77-1.39-3.31-.77-6.44-1.88-7.53,3.31-.64,3-3.93,3.11-6.66,3.07a6.4,6.4,0,0,1-3.07-2.94l.11-.15c3.42-1,2.9-6.35,7.14-6.48,4.79-1.53,9.17.15,13.53,1.75C181.89,190.09,183.21,190.75,183,192.48Z"/><path class="cls-45" d="M231.89,271.29c1.89.36,2.55-2.62,4.79-1.67,1.22.52,1.22-.68,1-1.46-.7-2.76.91-5.14,1.2-7.74,2.53,1.05,3.39,3.57,4.5,5.64,1.64,3,.58,5.55-3,6.12-3.07.48-6.21.49-9.32.71a1.1,1.1,0,0,1-.27-1.59A1,1,0,0,1,231.89,271.29Z"/><path class="cls-44" d="M108,239.41c2,4.27.58,8.77.86,13.16-1.59-4.44-7.56-4.51-9-9.07,3.71-.83.82-5,3.24-6.44C105.47,236.25,106.23,238.88,108,239.41Z"/><path class="cls-46" d="M37.92,265.35c4.74-1,4.7-3,2.32-6.84-3.47-5.54-2.69-16.06.8-20,.18,7.47-1.41,15,2.7,22.22C45.65,264.1,43.68,265.48,37.92,265.35Z"/><path class="cls-47" d="M363.89,140.55c1.43-1.39,3.43,0,4.94-1-.18,4.17-2.71,6.81-5.86,9-2.09-3.75-7-1.07-9.41-4.11a2.44,2.44,0,0,1,.27-2.86C357.21,141.52,360.89,144.22,363.89,140.55Z"/><path class="cls-48" d="M54,77.55c.2,7.51-4.46,13.86-5.08,21.18-2-6.09-.56-12,1-17.87C50.41,78.87,52.33,78.33,54,77.55Z"/><path class="cls-49" d="M103,237.44c.14,2.38.27,4.77.42,7.33-1.57,1.09-2.21-1.28-3.55-1.27-2.68-3.35-4-6.92-1.86-11.08a4.25,4.25,0,0,1,4,4C102.39,236.68,102.91,236.84,103,237.44Z"/><path class="cls-50" d="M354,144.48c2.32-.13,4.37,1.16,7,.42s-.25,3.2,2,3.7c-1.54,1.17-2.79,2.78-4.89,3.05-2-.89-5.1,1.42-6.21-2.1.85-.51,5,1.31,1.6-2.28-.54-.58-.39-1.81-.55-2.74A.67.67,0,0,1,354,144.48Z"/><path class="cls-51" d="M369,138.64c-4.82-2.38-5.19-6-2.86-10.34C372,131.42,372.4,132.73,369,138.64Z"/><path class="cls-52" d="M351.87,149.55c1.66,1.91,4.66-.13,6.21,2.1-4.3,1.75-8.76.64-13.15.74-.58-1.67-2.68-1.76-3.76-3.48C345,147.1,348.4,149.62,351.87,149.55Z"/><path class="cls-53" d="M143,257.34l-9,0a7.8,7.8,0,0,0-3-6.85c-1.18-1-2.69-2.08-2.13-4.09l.12-1.09C133.84,249.17,137.37,254.48,143,257.34Z"/><path class="cls-54" d="M314.88,262.48c2.41-5.4,5.14-6.24,10-3.1C322.28,262.75,318.69,263,314.88,262.48Z"/><path class="cls-55" d="M226,245.44a2,2,0,0,0-1.13,2c-2.67-.41-2-2.51-1.87-4.1s.58-3.17-.28-4.71a2.41,2.41,0,0,1,1-2.52c2.12-.08,3.1-2.36,5.1-2.67.09.71.18,1.41.26,2.12C229.17,239.2,226.81,242.07,226,245.44Z"/><path class="cls-56" d="M149.08,272.21c2.73-1.28,6.69-1.44,5-6.68,2.74,1.73,3.43,4,4.84,5.75C155.65,271.93,152.44,272.86,149.08,272.21Z"/><path class="cls-1" d="M64.9,117.62l4.1,2.92c1.71,1.36,4.09,2.17,4,5l-.12,1.19C68.49,125.21,67.06,121.1,64.9,117.62Z"/><path class="cls-57" d="M213.91,271.38c-1.33-2.69.74-1.88,2-1.93,2.75.13,5.57-.07,8,1.65a1.14,1.14,0,0,1,.06,1.41A29.07,29.07,0,0,1,213.91,271.38Z"/><path class="cls-58" d="M23.82,259.5c2.55-1.55,4.3.09,5.65,1.81.58.75-.92,1-1.6,1.34A7.27,7.27,0,0,1,23.82,259.5Z"/><path class="cls-1" d="M73.82,127.59c3.69,4.83,3.59,5.59-1,7.89A13.46,13.46,0,0,0,73.82,127.59Z"/><path class="cls-19" d="M126.87,271.51c4.68.21,9.43-.89,14,.66C136.23,272.14,131.48,273.28,126.87,271.51Z"/><path class="cls-43" d="M223.94,272.51l-.05-1.05a5.17,5.17,0,0,1,7.07,0l.08,1.46C228.64,273.36,226.25,273.81,223.94,272.51Z"/><path class="cls-2" d="M247.84,229.53c1.66,2.07,5.81,1,6.07,4.86C251.46,233.31,248.47,232.88,247.84,229.53Z"/><path class="cls-28" d="M339,101.5a17.63,17.63,0,0,1-6.1-6A9.84,9.84,0,0,1,339,101.5Z"/><path class="cls-59" d="M210,110.56c-.55.6-1,1.55-1.65,1.74-5.62,1.61-4.13,5.38-2,8.25,1.94,2.58,5,4.51,8,.47.92-1.23,2.67-1.89,4.11-2.69,5.95-3.28,10.89-.81,12.48,6.21v.68c-.92,4.82,1.06,8.12,5.34,10.22.85,3.88,2.45,6.93,7.17,6.58a4.06,4.06,0,0,1,1.37.43c5.19,3.68,10.44,6.91,17.35,5.19,2.51-.63,4.78.85,6.85,2.29,2.65,2.88,4.65,6.26,7.16,9.25-1.84,1.91,0,2.42,1.21,3.19,1.9,2.21,2.73,4.22-.85,5.68-1.29.53-1.5,1.7-.89,2.91,1.05,2.12,1.5,4.43-.89,5.63-2.81,1.41-3.38-1.74-4.81-3.09-1.09-1.23-2.13-2.47-1.07-4.24.76-1,1.83-1.74,1.92-3.11.08-2.7-2.88-2.12-3.9-3.62l-2,0c-1.51-2.26.37-3.67,1.33-5.31.33-.57.82-1.16.38-1.83a1.55,1.55,0,0,0-2.19-.49c-4.14,2.68-6.68.05-10.11-2.06-5.47-3.36-10.84-7.51-18.31-6.29-5.63.91-8.35-2.56-8.46-8.05-.1-5.09-2.39-9.93-2.24-15.17,0-1.6-2.05-1.76-3.25-1.35-4.65,1.56-9,3.65-11.09,8.57,1.17.83,3.27,1.76,2.14,3.27-2.59,3.44-1,8.29-4.24,11.36-1.09,1-.66,2.07.21,3,1.79,2,3.07,3.54.67,6.55-1.7,2.12,1.59,1.29,2.63,1.78.79.37,2.24.22,1.45,1.72-.18.33-1.23.2-1.88.28-1.59,1.69,0,2.09,1.05,2.91,2.59,2.1,1.36,3.51-1.13,4-9.82,1.84-19.2,1.3-27.3-5.54a12.74,12.74,0,0,0-5.11-3c-1.19-.3-2.38-.61-2.91-1.91,1.34-4.63.36-7.35-3.57-9.93-2.34-1.55-2.35-5.59,0-8.51a10.14,10.14,0,0,0,2.48-7.39c-.05-2.93-.33-6,1.48-8.57.48-3.34-2.31-2.45-3.93-3-1.05-.33-2.44.16-2.87-1.38a1.87,1.87,0,0,1,.6-2.24c1.18-.71,2.28.07,3.26.62,3.52,2,6.81,2.75,10.73.38,2.25-1.37,5.11.59,7.68,1,2.07.32,3.34,1,4.57-1.65,1.07-2.33,4.13-2.67,6.61-2.69A34.4,34.4,0,0,0,210,110.56Z"/><path class="cls-60" d="M211,130.53c-.22-.24-.66-.5-.63-.7.74-4.84,11.28-11,15.6-9.11a1.76,1.76,0,0,1,1.26,2.28,16.52,16.52,0,0,0,2,12.6c.27.44-.06,1.25-.13,1.89-.57,6,2.14,9,7.87,7.91,8.17-1.58,13.53,3.8,19.4,7.49,2.64,1.65,4.2,3.68,7,.78,1.73-1.79,3.71-.64,4.88.45,1.65,1.53.21,2.85-1.16,4a6.33,6.33,0,0,0-2.12,4.38,14,14,0,0,0-3.34.74c-2.72,1.34-3.29.23-3.74-2.37-1.35-7.81-8.85-10.48-15.25-5.47-1.6,1.26-4.46.83-4.92,3.61,1.81,1.43,3.43-.79,5.2-.26-3.68,4.74-9.9,4.73-13.64.06-1.51-1.89-.73-5.55-4.44-5.75a1,1,0,0,1-.25-.83c4.51-8.19-1.17-15.62-1.8-23.42-.18-2.16-1.85-4.91-4.16-2.1C216.42,129.36,213.7,129.64,211,130.53Z"/><path class="cls-61" d="M183,192.48c-5-2.83-10-5.24-16-3-1-1.45-.26-2.47.79-3.44,7.57-3.22,14.06.41,20.32,3.68s8.5,4,13.3-.9c4.52-4.59,10.08-5,15.57-6.33,3.46,1.72,3.8,6.06,6.91,8.16,1.14.77.54,2.11-.58,2.88s-1.87,0-2.17-1c-1.37-4.52-3.69-3.14-6.16-1.06-.36.89-.89,1.46-2,1-3.22-.2-5.64,1.82-8.25,3.17-2.41,1.26-1.49,3.22.51,3.25,5.33.07,10.72,3.59,16.15-1,1.87-1.57,5.76-1.5,8.65.13a8.58,8.58,0,0,1,4.47,9.12c-.55,2.84-3.78,4.78-7.08,5.23a35.34,35.34,0,0,1-4.49.06l-2-.06c1.23-1.69,4.92-.27,4.78-3.4-.12-2.57-2.58-3.59-4.45-5-5.07-3.68-11.35-1.61-16.72-3.62C197.39,197.75,189.73,196.31,183,192.48Z"/><path class="cls-62" d="M216.94,182.49c-.63,1.56-2.32,2.86-3.41,2.49-6.31-2.12-8.72,3.57-12.5,6.13-4.45,3-8.52,3.06-13,.13-6-4-12.71-6.12-20.1-4.76-4.41,2.24-7.71-.48-11.17-2.48-1.78-4.41-1.25-5.65,3-6.82,3.44-1,6.77-1.22,10,.79,6.41,3.91,12.47,3.4,18.18-1.64,3.16-2.79,6.87-2.15,9.48.33,2.37,2.26,5.49,3,7.8,5.11,1.7,1.57,3.42,0,5.14-.23s3.25-.34,4.56,1Z"/><path class="cls-63" d="M215,182.49h-5c-1.84.94-3.3.69-3.66-1.56-.47-2.89-2.51-3.71-4.93-4.07-3.54-.53-5.61-4.65-9.65-3.88,1.28-3-1.83-2.89-2.92-4.22-1.46-1.77-3.16-1.37-4.93-.49-2.62,1.29-5.13,2.73-6.56-1.65-.63-1.92-3-.68-4.49-1.23-2.43-.91-7.12.49-6.82-3s4.5-.56,6.91-1.39c-.63-1.38-3.61-1.34-2.68-3.38.75-1.62,2.9-1.22,4.53-1.37s3.66,1,5.2-.69c2.87.31,4.63,2.58,6.53,4.22,3.49,3,7.08,4.8,11.73,3.88.32-.07.84-.19,1,0,3.71,4.58,8.1-.22,12.06.86.71.19,1.81.2,2.1-.8.37-1.27-.65-1.65-1.6-2s-2.72.19-2.2-1.77c.29-1.09,1.41-1.28,2.44-1.33-.06,1.89,1.8,2.17,2.71,3.24.66.78,1.53,2.14.63,2.49-3.09,1.18-2,4.31-3.38,6.23-2.75-.6-5.43-1.57-8.44-1.72,1.73,3.31,4.75,2.58,7.45,2.73a3,3,0,0,0,3,2c1,2.37-2.31,3.52-1.71,5.82,2.18,0,2.28-3.35,4.72-2.82C217.22,178.8,215.78,180.54,215,182.49Z"/><path class="cls-64" d="M246,223.41l-1,0a25.22,25.22,0,0,0-5.27-7.84c.81-3.27,2.92-3.12,5.28-1.89,1.38.72,2.67,1.35,4.2.57.9-.46,1.91-1,2-2,.13-1.3-1.15-1.43-2-1.75-1.4-.51-2.76-1.13-4.16-1.63-4.23-1.52-4.32-1.93-1.33-5.35a3.56,3.56,0,0,1-2.7-1l-1,0c.82-3.34,3.54-2.26,5.48-2,1.69.23,1.52-.79,1.93-1.58,4.17-.84,8.27-2.33,12.62-1.27,3.3,3-1.38,3.13-1.63,4.83,2.79.05,5.31-2.23,8.34-1.38a8.24,8.24,0,0,0,3.34,7.18c1.29,1.07,3.52,2,2.82,4.48-4.6-1-8.1.39-10.67,4.45a3,3,0,0,1-3.92,1.09c-5.83-2.41-8.13-1.48-11.14,4.24C246.91,222.92,246.38,223.13,246,223.41Z"/><path class="cls-65" d="M269.91,169.48c-1.75,1.7-.06,2.27,1,3.05-.3,4.31,2.45,5.55,6,6l-3,3c-1.23.1-2.7.49-2.54,1.81.26,2.24,3.09.31,4.16,2.36-1.48,1.22-2.6,3.24-5.15,2.5s-4.56.06-5.17,2.36c-.75,2.83,3,1.23,3.66,3a7,7,0,0,1-4.12,1.62,5.47,5.47,0,0,1-1.51-.07c-4.79-2.71-10.15-3.89-15.33-5.56.13-2.33,2.22-2.36,3.63-2.65a104.65,104.65,0,0,1,11-1.53c2.83-.25,5.83-1.08,5.83-4,0-3.5-3-3-5.6-2.39-.56.13-1.26-.27-1.89-.43a1.34,1.34,0,0,1,0-2c5.58-2.53,7.33-5.46,6-10C269.73,165.66,270.74,166.64,269.91,169.48Z"/><path class="cls-66" d="M240.93,202.49c1.72.19,3.54-.49,5.18.46-.11,2.42-2.87,1.93-3.92,3.93a36.77,36.77,0,0,1,7.27,2.45c1.44.63,3.76.4,3.93,2.22s-1.85,3-3.41,3.84-3.43,2-4.86.07c-1.88-2.59-3.46-1.77-5.2,0a2,2,0,0,1-3,0C241.09,212,238.41,206.45,240.93,202.49Z"/><path class="cls-67" d="M223.94,213.47a5.46,5.46,0,0,1,0,1c-.5,2.58,1.53,6.86-1.78,7.39-3.57.58-6.71-2.72-9.14-5.55-1.53-1.79.64-2.36,1.6-2.48,2.77-.35,5.59-.3,8.38-.41Z"/><path class="cls-66" d="M246.88,199.65c.3.66,2.62,1.53-.24,1.84-2.24.25-4.68-.9-6.68,1l-7-3.73c3.66-1.35,4.9-5.51,9-5.24a13.54,13.54,0,0,0,4.44,1.7c1.47.43,3.31.72,2.75,3.06-3.06,1.64-6.37.1-9.14.79C242,199.35,244.58,198.22,246.88,199.65Z"/><path class="cls-68" d="M236.94,215.46l3,0c3.36,1.61,6.18,3.55,5,8l-6.89,0c-.59-2,1.26-5.09-2.8-5.63C234.05,217.6,234.14,216.92,236.94,215.46Z"/><path class="cls-69" d="M216.93,176.48c-2.26,1.29-2.66,7-6.13,4.21-2.48-2,1.67-4.51,2.92-6.76a4.43,4.43,0,0,0,.2-.45c1.8-1.34,3.28-3.38,6.32-2.78C219.86,173.16,216.76,174,216.93,176.48Z"/><path class="cls-70" d="M247.94,189.49c6.09-.75,11.26,1.43,16,4.95a5.55,5.55,0,0,1-3.15,1.81,7.24,7.24,0,0,1-2.93.18c-2.27-.64-4.72-1-6.18-3.18-.76-2.81-3.63,0-4.76-1.77-.68-.35-1.64-.78-1.16-1.6C246,189.47,247.19,189.6,247.94,189.49Z"/><path class="cls-71" d="M251.89,192.53c1.56,1.93,4.16,1.75,6.07,3-2.43,3.23-5.72,2.61-9,2-2.06-1.82-5.94-.45-7-4l2-.05C246.63,193.53,249,190.77,251.89,192.53Z"/><path class="cls-72" d="M213,192.5l2-1c3.35,1.12,2.38,3.8,1.39,5.58-1.33,2.41-4.11,1.59-6.25,1.12-1.45-.32-1.25-1.83-.38-2.78A37.84,37.84,0,0,1,213,192.5Z"/><path class="cls-59" d="M210.94,171.5c-5.13,4.67-7.05-1.75-10.47-3.08,4.2-1.34,8.06-1,11.46,2.07Z"/><path class="cls-60" d="M266.9,162.53c2.7,0,5.79-.44,5,4-2.23,1.06-4-.87-6-1C266.26,164.52,266.58,163.52,266.9,162.53Z"/><path class="cls-65" d="M251.89,192.53l-7.95.91,3-2c1.73-.31,3.45-.68,5.19-.92.67-.1,1.42.33,1.26,1C253.3,192,252.42,192.23,251.89,192.53Z"/><path class="cls-60" d="M260.65,168.71c-.35.83-.8,1.59-1.79,1.32s-.9-1.25-.84-2.05.44-1.88,1.33-1.66S260.63,167.69,260.65,168.71Z"/><path class="cls-73" d="M260.93,176.5v2a9.79,9.79,0,0,1-1.43,0c-1-.09-2.43,1.34-2.82-.38-.34-1.5,1.25-1.5,2.33-1.62C259.64,176.46,260.29,176.51,260.93,176.5Z"/><path class="cls-73" d="M265.93,165.51c2.12-.36,4,.67,6,1a3,3,0,0,1-2,3,2.74,2.74,0,0,0-3-2.95Z"/><path class="cls-74" d="M177,120.55c1.08,3.51-2.16,7.28,1,10.86,1.28,1.46-2.34.33-2.2,2,.64,1.71,2.94.44,3.66,2.08-.59,1.52-1.94.85-3,1-1.57.26-4.57-.54-2.28,2.73,1.8,2.57-4.25,1.44-1.78,4.16,1.38,1.52,3.52.77,5,1.87,1.91,1.38-1.48,3.56,1.27,5.38,3.56,2.37-1.33,2.42-1.75,3.86-3.4,2.29-5.71-.14-7.74-2.15A38.29,38.29,0,0,0,159,144.61a5,5,0,0,1-3.14-4.14c-.27-2.73-1.78-5-2.84-7.37-.46-1.06-.52-3-2.56-1.84-1.13.64-3.11.82-1.63,3.12,1.24,1.92,0,2.75-1.9,2.58-1.14-.1-2.23-.65-3.4-.13-2.83-.72-3.34-3.52-4.72-5.46-2.34-3.3-5.11-5.42-9.31-5.83a30.47,30.47,0,0,1-8.71-1.89c-2.18-.9-11.15,2.57-12.51,4.58-1.62,2.41-.52,6.43,2.28,7.5s3.67,3.11,3.55,5.84c-.26,5.34,2.44,9.29,6,12.84a2.81,2.81,0,0,1,1.13,1.67c-.46,2.49-3,1.37-4.27,2.43-2.12-1.25-3.95-3.09-6.68-3-.6,0-1.69-.3-1.75-.62-2.11-10.35-11.38-3.86-16.77-6.75a16.7,16.7,0,0,0-9.3-1.23c-2.43.39-4.23-2.47-2.58-5.85,2.41-4.95-2-14.56-6.9-15.49l-4-5a18.66,18.66,0,0,1,10.09,3.69c5.53,4.08,9.71,3.24,13.39-2.4a8.7,8.7,0,0,1,7.45-4.3,19.08,19.08,0,0,0,12-4c4.27-.89,8.2-.91,10.45,3.83.34.73,1.67,1.34,2.12.72,2.64-3.62,7.39-1.38,10.36-3.91,1.6-1.36,3.73-1.59,5.07-.41,4.74,4.18,10.39,4.64,16.26,5C163.15,119.17,170.05,119.94,177,120.55Z"/><path class="cls-75" d="M117,158.51c.1-3.12,3-.67,4-2,2.67-.44,3.09,1.78,4.17,3.38,2.55,3.75,4.3,8.47,9.88,8.87,1.73.26,2.73,1.81,3.78,2.23-3.21-5-7.28-10-10.25-15.66-1.09-3.13-1.31-6.15,1-8.89,1.71-1,2.86-.3,3.69,1.28,1.47,4.79,4.29,9,6.88,13.11,1.83,2.93,5.39,4.74,8.31,6.88,1.7,1.25,2.67,2.59,1.27,4.54-1.53,2.13-.53,3.58.95,5.2,2.13,2.33,3.24,5,1.62,8.15-3.21,1.8-7.42,0-10.33,2.86h0c-.74,2.51-1.21,5.45-4.94,3a7.73,7.73,0,0,0-.06-1,20.61,20.61,0,0,1,1.66-4.13c2.07-3.05,2.24-5.72-1-7.84.73-1.84,2.77-.18,3.63-2.46-6.72,2.85-9.76-2.12-13.83-5.4C123.13,167.2,119.11,163.72,117,158.51Z"/><path class="cls-1" d="M121.75,193.67c1.64,1.23,1.43,3.47,3.44,3.74s2.94,1.93,3.39,3.73a1,1,0,0,1-1.18,1.14c-1.93-.72-4.35-1.23-5.13-3.18C121.69,197.65,120.45,195.89,121.75,193.67Z"/><path class="cls-76" d="M75,114.54c3.73,0,7.47-.14,11.19.06,2.49.13,4-.74,4.83-3,1.27,0,2.85-.27,3.28,1.3.35,1.26-1,1.79-1.86,2.51s-1.62,1.51-2.43,2.27a2.57,2.57,0,0,0-2.65,3c.38,5.26-2.66,3.21-4.25,1.72A9.17,9.17,0,0,0,76,119.53c-3.39.15-5-3.38-8-4a.63.63,0,0,1,1.08,0C71.09,115.58,73.14,115.74,75,114.54Z"/><path class="cls-77" d="M63,91.53c-2.88.75-3.42,3-2.72,5.29a27.73,27.73,0,0,1,.74,6.69,1.44,1.44,0,0,1-.05,2.06c-2-1.16-5.37-1.08-5.69-4-.43-3.87-.76-8,.15-11.68.52-2.12,4,.3,6.16-.76C63,88.43,62.77,90.53,63,91.53Z"/><path class="cls-78" d="M61,105.57c0-.68,0-1.37.05-2.06,4.58,2.73,5.88,7.65,8,12l-1.08,0C64.54,113,61.55,110.13,61,105.57Z"/><path class="cls-79" d="M103,233.42c-2.1-3.29-1.56-10.57,1-13,2.25.68,2.32-1.27,2.91-2.48,1.16-2.4,2.73-3.24,5.09-1.52,3.2,1.3,7.14,2.05,3.82,7.09-.74,1.13,0,2.83,2.29,2.41,2.62-.49,4,.75,3.89,3.49-4.93.79-9.63,1.93-12.09,7-.45.94-1.28.82-1.91,0-.79-1.59.6-2.75.84-4.15s.46-3.35-.9-4c-1.54-.73-2.55.89-3.29,2.16C104.06,231.42,104,232.67,103,233.42Z"/><path class="cls-80" d="M128.91,246.43a50.18,50.18,0,0,0,4.59,4.95c2.34,2,2.64,3.79.53,6-3.46-1-6.5-.92-8,3.08-1.19-1.36-2.41-2.69-3.54-4.09-.49-.61-1.23-1.87-1.09-2,3.47-3.23,2.09-7.92,3.68-11.68.07-.18.61-.16.93-.24Z"/><path class="cls-80" d="M115.06,246.37c-.24-8.34-.26-8.39,8-11,3-.91,1.5-3.18,1.79-4.92,4.34,2.15,0,5.42,1,8-5.44-1.69-8.17,0-8.91,5.54C116.81,245.32,116.54,246.27,115.06,246.37Z"/><path class="cls-81" d="M112,216.45c-2-.08-3.88-.1-4.21,2.78-.13,1.1-1.39,2.12-2.23,3.09-.53.61-1.43,1.27-2,.38-.3-.45.27-1.48.45-2.25.76-2.39,2.71-4,4-6,1.44-.5,2.75-2.3,4.22-1.46S111.78,215.25,112,216.45Z"/><path class="cls-82" d="M272.93,212.47c-1.68-1.81-3.05-4.12-5.09-5.29-3.12-1.78-2.88-3.45-.94-5.73l-.35-.49.37-.47,1,1c-.48,5.08,3.77,7,6.66,9.72,1.64,1.56,4.13,2.11,5.36,4.24,3.53,3.37,7.13,6.48,9.92,10.78,2.36,3.63,6.4,6.41,9.54,9.79,5.21,5.61,5.62,12.43,6,19.34.16,3-1.43,4.25-4.43,3.05a14.94,14.94,0,0,1-7-6c-3-1.09-4.85-4.1-8-5-2.11.41-3.45-1.08-5-2-2-3.32-6.31-4.32-8-8,1.92-.81,4.39-1.25,1.76-4.15-2.87-3.16-1.53-6.26,1.08-8.64,2.81-2.55,2.5-4.38-.08-6.81C274.25,216.49,272.42,215,272.93,212.47Z"/><path class="cls-24" d="M300.93,258.42c3.93.17,4.19-2.17,3.8-5.25a38.1,38.1,0,0,0-10.19-21.3,9.08,9.08,0,0,0-2.8-2,6.25,6.25,0,0,1-4.07-4.95c-.87-4.18-5.71-5.82-7.74-9.48,4,.67,6.12,4.15,8.46,6.58,4.71,4.87,10.35,8.94,13.89,14.94,1,1.69,2.35,3.27,4.58,3.54,3,6.16-1,11.88-1.4,17.82C305.34,260,302.53,259.84,300.93,258.42Z"/><path class="cls-24" d="M285.93,247.43c3.69,0,5.66,2.8,8,5C290.06,252.67,288.64,249,285.93,247.43Z"/><path class="cls-83" d="M208.94,252.43c-2.11-3.53-.75-7.38-.9-11.06-.11-2.46-.69-4.13-3.08-4.93-1-7.25-2.09-14.49-3-21.75-.8-6.53-.71-6.55,5-4.2-2.09,4.39,2.18,8.1,1.35,12.41-.2,1,.44,2.24.64,3.38.63,3.66,2.37,4.59,5.43,2.22,2.23-1.74,4.32-2.86,5.57,1a2.78,2.78,0,0,1-1.46,1.83c-6.35,1.87-8.76,6.16-8.28,12.65C210.41,246.75,211.12,249.87,208.94,252.43Z"/><path class="cls-84" d="M58,183.5c6-1.27,6.74-.62,6,5l-3,4c-1.62-.31-3.95.95-4.7-1.31A7.46,7.46,0,0,1,58,183.5Z"/><path class="cls-85" d="M268.92,150.53c-4.72-3.42-10.26.05-15.23-1.84-3.72-1.41-7.34-2.77-9.75-6.16,3.83-1.45,7.83-.84,11.77-1-2.93.13-5.86,0-8.41-1.65-2.23-1.44-2.65-2.85.19-4.29,4.32-2.2,4.66-9.51.65-12.17s-5.28-5.73-4.2-10.84c3.62-.66,4.25,2.55,4.29,4.45.06,3.17,2.2,3.14,3.4,2.3,2.74-1.92,6.7-2.23,8.18-5.81.59-1.41,1.56-2.77,2.66-1.07,1.22,1.9,2.62,2.8,4.35,1.78s1.62-3.46,1.86-5.32c.18-1.38-.46-2.87-.74-4.31,2.68.21,5.8-1,7.38,2.58a1.54,1.54,0,0,0,2.56.37c2.83-2.39,6-.84,9-1,1.27,0,2.45-.47,2.75-1.73,2.14-9.1,10.41-10,17.18-11.91,3.9-1.11,8.07-3.56,12.53-2,1.64.59,3.72.59,4.55,2.64l0,0c-2.1,1.9-4.7,1.32-7.14,1.36-2.66,0-5.33-.15-7.81,1.06-2.72.52-5.15,1.16-6.47,4.22-.74,1.71-2.87,2.62-4.59,3.59-4.1,2.68-6.21,7-9.1,10.73-1,1.33-.9,2.72-.55,4.19.52,2.22,1.17,4.44.56,6.76a3.13,3.13,0,0,1-.73,1.16c-2.81-.25-2.27-2.77-2.9-4.43s-.56-3.27-1.71-4.57a2.15,2.15,0,0,0-2.16-.91c-.82.24-.63,1-.49,1.64.45,2.19-1.25,2.3-2.66,2.67-3.25-.21-6.22-.51-2.42,3.92,1.33,1.54,1.18,4,0,6-1.47.92-3.18.8-4.78,1.12-1.8.35-3.7.72-5-1.1-1.42-2,.53-3.17,1.32-4.72,1.59-3.1,1-7.2,4.39-9.51,1.17-1,4,.34,3.83-2.68-.16-2.09-1-3.64-3.28-4.35-.66,2.52,1.87,4.78-.31,6.81-5.24,1.46-10.16,3.75-15.17,5.84-1.14.47-2.42.73-2.21,2.17.4,2.76,1.18,5.46,1.64,8.23.2,1.24,1.69.39,2.61.31a2.57,2.57,0,0,1,1.33.29c1.78,2.29,1.9,5.15,2.68,7.78.53,1.79,1.16,3.1,3.35,2.06,2.46,1.39,5.22,2.51,5.19,6A2.42,2.42,0,0,1,268.92,150.53Z"/><path class="cls-86" d="M354,144.48l-1.08.05c-6.36-3.09-13.14-3.4-20-3l-1.89.08c-2-2-1-4.23-.6-6.39.66-3.3.61-6.45-1.4-9.34-1.34-4.85-.53-6.15,4.2-6.33,1.8-.07,3.64-.45,5.44.12a2.56,2.56,0,0,1,1.26,1c4.65.47,5.63,3.36,5,7.44a24.61,24.61,0,0,0,0,4.46c.38,9.94-.26,8.62,8.89,9C353.89,142.58,353.94,143.53,354,144.48Z"/><path class="cls-87" d="M339.9,120.69l-1-.15c-1.61-1.38-5.93.55-4.92-4a3.09,3.09,0,0,1,1.48-1.44c2.54-1.07,5.26-4.26,7.34.57v.07C344.22,118.77,343.65,120.66,339.9,120.69Z"/><path class="cls-88" d="M243.94,112.55c-.31,2.92,3.1,5.22,1.43,8.41-.09.16.49.85.89,1.06,5.18,2.76,7.07,6.25,6.33,12.16-.49,3.89-4.28,1.35-6.26,3.2,3.17,3.68,7.62,2.93,11.7,3.71-4.59,1.67-9.23,2.5-14.09,1.44h0A8.74,8.74,0,0,1,237.12,132a2.92,2.92,0,0,1,2.86-2.23c1.57-.21,3.07.36,4.62.19a21.68,21.68,0,0,1-3.86-.39c-2.92-.29-5.65-1-5.66-4.83,0-1.51-1.21-2.26-2.14-3.18-2.67-7.83-1.16-9.56,7.3-8.34a1.63,1.63,0,0,0,1.7-.65Z"/><path class="cls-85" d="M232.94,121.54c1.43.32,3.64-.84,3.78,1.89.08,1.32-1.73,3,.39,3.88,2.52,1,5.16,2.34,8,1.39,1.07-.35,1.95-1.48,3-.16a1.43,1.43,0,0,1,.17,1.3c-.65,1-1.77.54-2.71.71-2.54.45-6.8-1.18-7.24,1.78-.58,4,.49,8.6,5.61,10.2-1.65.79-4.42,1.93-4.92.48-.87-2.58-6.25-3.41-3.08-7.47-5.38-3.37-6.26-5.3-5-11h0A3,3,0,0,0,232.94,121.54Z"/><path class="cls-89" d="M228.84,233.45c-.89,2.23-1.55,4.84-4.93,3a2.14,2.14,0,0,1-2.59-1.27c-.7-2-.34-3.66,1.62-4.77C225.24,230.79,228.56,229.16,228.84,233.45Z"/><path class="cls-55" d="M222.94,230.43a8.07,8.07,0,0,0-1,5c-1.26,1.2-2.9,2.16-4.15.59-1.58-2-.27-3.93,1.11-5.62l1-.94Z"/><path class="cls-90" d="M328,144.67c1.29,2,.9,3.6-.82,5.13-1.12,1-.65,1.61.71,1.72-2.21,3.07-5.33,2.88-8.47,2.19a42.77,42.77,0,0,1-4.61-1.71c-2.66-.94-5.62-2.84-6.64,2-.07.32-1.48.36-2.27.53a10.25,10.25,0,0,0-2.4,1.72c-3,3.67-7,5-11.58,5.27h0c-.38.55.08-.15-.26.42-1.13,1.88-2.39,4.1-4.91,3-2.69-1.13-2.2-3.67-1.45-6a1.46,1.46,0,0,1,1.25-.81c4.09,2.72,7-1,10.15-2.24s6.57-3.24,3.63-8.24c-1.69-2.87.27-5.08,3.7-5.1s6.86-.16,10.21,1.28c2.71,1.16,5.68,1.86,8.7.75C324.63,144.42,326.34,143.52,328,144.67Z"/><path class="cls-73" d="M286,158.47a13.83,13.83,0,0,0,0,1.93c.17,1.35-.66,3.13,1.15,3.83,1.45.55,2.28-.82,3.26-1.61.49-.41,1-.74,1.57-1.1.07,4.87-3.16,7.2-7.13,8.41-2.94.89-5.27,1.54-5.05,5.35.09,1.5-1.44,2.51-2.82,3.21-5.76,1.48-7.25,0-6-6a4.4,4.4,0,0,1,.9,1.1c.51,1.32.78,3.31,2.77,2a2.24,2.24,0,0,0,.18-3.78c-2.28-2-1.87-4.37.61-4.79,4.27-.73,1.77-2.84,1.55-4.57a2.56,2.56,0,0,1-.58-2.8,3.47,3.47,0,0,1,1.29-2.56c2.31-.65,3.73-2.6,5.61-3.9C285.47,154.3,287.1,155.67,286,158.47Z"/><path class="cls-73" d="M291.94,161.51c5.68-.29,8.78-5.74,14-7-1.75,2.15-3.54,4.27-5.24,6.46-.92,1.19-2,1.79-3.4,1.15C295.54,161.34,293.73,161.56,291.94,161.51Z"/><path class="cls-91" d="M103,233.42c-.42-3.41.8-5.73,4.23-6.82.92-.3,1.18-.42,1.83.52,2,2.85,1.81,5.45-.3,8.07a11.54,11.54,0,0,0-.8,1.25H107c-.27-2.68-3.08-.55-4-2.09C103.07,234,103,233.73,103,233.42Z"/><path class="cls-79" d="M103.08,234.35c2,.61,2.64-1.07,3.52-2.28,2.3,1.38,0,3,.43,4.37.32,1,.64,2,1,3-2.22.73-3.12-1.93-5-2l-1-1C102.83,236,103,235.17,103.08,234.35Z"/><path class="cls-68" d="M272.93,212.47c.61.78,1.15,1.62,1.83,2.33,3.73,3.86,7.5,7.48.63,12.13-2.06,1.39-1.85,4.07.46,6,1.44,1.18,2.92,2.78,1.64,4.68s-3-.39-4.56-.15c-1.84-.67-4-1-5.44-2.12-2.42-1.9-4.13-4.7-7.59-1.21-.79.8-4,0-4.33-1.85s2-2,3.36-1.76c2.89.55,3.79-2.22,4.81-3.46,1.58-1.94-1.23-2.36-2.54-2.47-5.07-.43-10.09-1.63-15.23-1.15-.8-5.6,4.2-6.27,7.31-8.46a2.66,2.66,0,0,1,4,.62c2.16,4.09,4.24,1.63,5.23-.36C265.06,210.05,268.64,210.29,272.93,212.47Z"/><path class="cls-92" d="M218.92,230.4a3.76,3.76,0,0,1,0,1.43c-1.71,3.58-.16,4.31,3.09,3.6l1.95,1-.95,2-.41.57c-6.62,5.54-7,11.27-1,15.84.14.19.27.39.4.58-2.62,4.94-5,.17-8.11-.33,1.7,2.87.84,4.61-2,5.4-2.57-2.12-2.8-5.08-2.91-8.08,0-3.93,0-7.86,0-11.78C209,234.38,212.36,231,218.92,230.4Z"/><path class="cls-93" d="M231,271.43l-7.07,0a18.89,18.89,0,0,1-8-2l7-6c1.76-.45,3.62-.68,5-2a1.33,1.33,0,0,1,1.9-.11c-2.32,3.92,2.94,6.31,2,10C231.58,271.35,231.27,271.39,231,271.43Z"/><path class="cls-94" d="M296.94,102.57c2.53-1.18,5.11-1.84,5.57-5.62.35-2.77,3.6-.76,5.42-1.43.06.22.12.44.17.67.23.62-1.52,1.33-.46,1.38a15.14,15.14,0,0,1,8.18,3.16c2.25,1.58,4,.34,5.85-.82.36-2.44.39-5.33,4.23-3.33l2,2c.71,4-.71,8.34,1.45,12.22a2.76,2.76,0,0,1-.31,1.29c-1.76,1.51-1.66,4.07-3.22,5.69-3.09-.35-2.91-2.72-2.9-4.87,0-3.15-.6-4.78-4.4-3.28-3.52,1.39-7.48,1-11.22,1.7-3.13.55-4.45-1.8-3.23-4.79.37-.92,1.24-1.58,1.11-2.74-4.48,6.53-9.86,12.64-9.78,21.33a3.56,3.56,0,0,0,.27,1.91,2.2,2.2,0,0,0,1.84,1.1c-.8-1.22-2.2-2-2.05-3.5,1.37-5.77,3.53-7,8.65-5,4.06,1.61,4.45,4,1.55,9.77a4.14,4.14,0,0,1-.57.8c-1.85,1.85-.7,6.59-5.43,5.66-3.53-.71-8.43-6.15-9.3-9.42-2.06-7.75-1.11-14.64,4.83-20.43C296.16,105.09,296.28,103.7,296.94,102.57Z"/><path class="cls-95" d="M325.9,96.58c-1.45.36-5.28-.75-1.67,2.72l-1.33,1.28c-2.59.74-4.89,1.56-6.54-2s-5.94-1-8.45-3l0-.15c4.94-3.79,10.66-1.16,16-1.93C324.57,94.58,325.24,95.58,325.9,96.58Z"/><path class="cls-96" d="M342.8,115.64c-2.33-3.23-4.61-.62-6.91,0-.79-2.24.88-3.55,1.94-5.08.28-2.4-2.65-2.13-3.27-3.9,3.38-3.23,5.58-2.29,7.38,1.7A14.3,14.3,0,0,1,342.8,115.64Z"/><path class="cls-97" d="M337.83,110.6c.43,2.1-1,3.49-1.94,5.08l-1,.87c-1.81,1-3.66,2.65-5.72.76-1.87-1.71-1.57-3.76-.24-5.73h0c.65-1.29,1.48-2.09,3-1Z"/><path class="cls-98" d="M331.91,110.55l-3,1c-2.67-4.14-2.2-8.54-1.07-13,1.49,1.59,1.28,3.54,1.29,5.5,0,2.16-.61,4.51,3.13,4.65C334.12,108.81,331.75,109.83,331.91,110.55Z"/><path class="cls-70" d="M264.9,194.41c1.09-1.38,2.63-.8,4-.91l-2,7-.08,0C262.13,199.78,263,197.27,264.9,194.41Z"/><path class="cls-99" d="M142,188.47c2.09-5.19,6.47-2.74,10-3,1.18-1.85,2.72-2.82,5-2,3.72.81,6.93,3.44,11,3-.34,1-.67,2-1,3-1,.16-2.91-.28-2.57,1.32.9,4.34-2,3.54-4.36,3.58-3.18-4-7.58-5.38-12.38-5.15C145.6,189.33,143.92,188.08,142,188.47Z"/><path class="cls-99" d="M137,191.45c2.75.84,3.76-1.21,4.94-3a22.21,22.21,0,0,1-1.81,10.95C138.4,196.73,136.91,194.45,137,191.45Z"/><path class="cls-100" d="M328,144.67a10.49,10.49,0,0,1-5.1.86c-3.5.72-6-1-7.95-3.54-1.37-1.83-2.71-3.31-5.21-3-1.8.21-3.79.75-4.95-1.19s-.12-3.46,1.29-4.8c.92-.69,2-1.15,2.89-1.89,2.61-2.22,4.68-2.32,5.88,1.38.2.63.46,1.5,1.05,1.59,3.94.61,5.5,3.76,7.17,7.32.61-1.72-.43-2-.84-2.51-5.69-7.36-4.8-10.1,3.94-12,1.18-.63,2.14-1.9,3.74-1.3,3.3,2.58,2.36,6.1,1.89,9.37-.32,2.24-1.26,4.4-.82,6.73Z"/><path class="cls-101" d="M223,238.45c2.41.37,2.11,2,1.61,3.62-.57,1.86-1.26,3.68.34,5.38a26.26,26.26,0,0,1,.67,5.16c-.12,2-1.52,3-3.65,2.83h0c-4-2.05-3.69-5.54-2.74-9a25.19,25.19,0,0,1,3.77-8Z"/><path class="cls-102" d="M229.87,261.34l-1.9.11c-1.37-1.26-4.26-.4-4.52-3-.06-.59,1.22-1.35,1.94-2,2.43-2.1,3.32.77,4.87,1.53a14.33,14.33,0,0,0,1.37.53C231,259.47,230.46,260.41,229.87,261.34Z"/><path class="cls-103" d="M157,183.48l-5,2c.06-3.21-.1-6.22-3.34-8.22-2.31-1.43-2.33-3.55-.29-5.34,1.3-1.14,1.81-2.57,0-2.92-3.66-.72-4.51-4.84-8-5.83-1.23-.35-3.89-1.86-2.64-4.44.82-1.7-.55-1.13-1.09-1.22-1.25-.21-2.72-.88-2.41-2,.81-2.87-.06-4.59-2.47-6.09-.54-.33.58-.79,1.17-.9.33-.37.48-.89.83-1.2,2-1.8,2.41-2.71,1.91-4.84a3.21,3.21,0,0,1,1.12-.77,7.45,7.45,0,0,1,2.86-.16c4.74.39,5,0,4.29-5,1.08-3.33,3,.79,4.58-.9-.06-1.6-2.67-.83-3-2.23-.57-2.8,2.15-2.23,3.26-2.54,1.72-.47,1.8-2.26,3.71-3.12.57,4.73,4.48,8,4.45,12.84,0,1.77,1.19,2.41,2.7,3.07a25.21,25.21,0,0,1,9.85,7.61,7.88,7.88,0,0,0,7.38,3.28c.72,1.15,1.9,1,3,1-2.07,4.24-6.05.67-8.88,2.36-.26.67.52.79,1,1.12,1.39,1,4.67,0,4.21,2.32s-3.39.76-5.2,1.14c-1.5.31-3-1.77-5,.38,3,.58,5.89,2,8.18,1.38,4.53-1.26,5.22.66,4.74,4.64,1.57-.6,2.72-1.08,3.9-1.48,1.66-.56,2.93-2.6,4.95-1.65s2.33,3.59,5.1,4.25c1.49.35,1.2,1.57,3.57,1.59a4.8,4.8,0,0,1,1.78.45c-.64,4.85,3.53,2.83,5.51,3.91s5,1.34,3.67,5.16c-.54,1.55,1.48,1.22,2.52,1.39-2.29,1.51-3.79,2.19-6.63-.33-2.1-1.87-5.13-3-7.44-5.27-1.09-1.08-4.43-2.62-6.73-.08-6.49,7.16-13.74,6.32-21.12,1.7-3.71-2.33-7.05-.19-10.38.55C155.75,179.49,156.78,181.9,157,183.48Z"/><path class="cls-88" d="M277.9,157.53l-1,2a.58.58,0,0,1-1,0c-3.54-2.05-5.38-5.44-7-9a2.17,2.17,0,0,1,2.06-1C275.59,150.19,276.83,153.78,277.9,157.53Z"/><path class="cls-15" d="M230.94,124.55c-.16,4.49,1.31,8.24,5,11C229.6,133.47,227.55,129,230.94,124.55Z"/><path class="cls-60" d="M275.94,159.5h1v3c-1.25-.07-2.93.28-3.27-1.28S274.84,159.66,275.94,159.5Z"/><path class="cls-104" d="M264.9,194.41c-.26,2.33-1.39,4.94,1.94,6.13a7.07,7.07,0,0,1,.06.91c-3,.85-6,1.68-9,2.55-1,.29-2.08.71-2.57-.46-.68-1.61.72-1.81,1.8-2.26,1.51-.62,3.17-1.1,3.82-2.89-.7-1-.14-2,0-2.94.74-1.16,1.95-.91,3-1A6,6,0,0,0,264.9,194.41Z"/><path class="cls-105" d="M260.92,195.45c1.53,1,.3,2,0,2.94l-14.05,1.26-8.44-.55c3.8-1.47,7.44.38,10.52-1.6,2.81-1.51,6.25-.21,9-2Z"/><path class="cls-106" d="M144,136.52c4.13.77,1.58,3.44,1.31,5.21-.35,2.37-2.28,1.78-3.92,1.47-1.46-.27-2.93-.45-4.39-.68-.21-2,1.07-1.39,1-1.4-3.89,1.19-8.64,1.32-12.66-2.67-.9-.9-2.53-.71-3.77-1.19-2.59-1-3.29.44-3.4,2.62-.13,2.47,1.09,4.39,2.38,6.39,2,3.1,3,6.35-.53,9.22-2.44-.81-3.19-2.74-4.53-4.82-2.36-3.64-2.65-6.91-2.69-10.91s-4.08-2.8-6.69-3.44c-1-1.25,1.1-2,.7-3-2.56-6.23,2.48-6.88,6.06-9.49,5.28-3.86,9.74-.18,14.56,0,7.83.21,12.25,4.73,15.06,11.48C142.69,135.81,143.46,136.11,144,136.52Z"/><path class="cls-107" d="M120,155.49c1.37-3.57,1.78-6.65-1.62-9.8-2.53-2.35-2-6.11-1.14-9.39.28-1,1.68-2.08,2.18-1.52,2.44,2.68,7,.44,9,4.26,1.2,2.36,3.85,1.34,5.92,1.46,1.81.11,3.64,0,5.58,0-.39,1.72-2.51.6-2.92,2l-1,0-1.46.25c-1.21.22-4-1.42-2.34,2.19.42.92-1.56.84-2.2,1.54-.78,3-1.84,6,0,9-3,3.59-2.82,5.11.23,8.32,1.69,1.79,4.9,2.34,4.78,5.66-3.6,1-5.27-1.51-7.43-3.67-2.77-2.76-2.92-7.26-6.56-9.31C120.65,156.18,120.32,155.84,120,155.49Z"/><path class="cls-108" d="M135,169.5c-2.13-1.79-4.36-3.47-6.37-5.39a7.9,7.9,0,0,1-2.24-6.81c.22-1.92,2.11-1.75,3.6-1.78,1.79,4.91,6.87,7.8,8,13.18.18.81,2.19,1.27,3.39,1.8.84.37,1.54.77,1,1.78a1.46,1.46,0,0,1-2.07.78C138.47,172,136.74,170.69,135,169.5Z"/><path class="cls-106" d="M130,146.52c4.1-4-1.38-2.34-2.65-4.25,3.17-.9,5.84-1.41,8.65.27-.15,1.66,1.6,2,2.38,3.28l-5.39,2.7A3,3,0,0,0,130,146.52Z"/><path class="cls-109" d="M309.92,137.54c1.81,0,4-.39,4.76,1.74,1.45,3.94,4.87,5,8.24,6.25-1.9,1.71-4,.92-6.06.49-3.92-.82-7.53-3.11-11.86-2.09-1.25.3-3-1.08-3.82.83a3.7,3.7,0,0,0,.73,4.17c2.74,2.76,2,3.78-1.19,6.17-3.38,2.54-7.52,2.91-10.69,5.56-2.35,2-3.09.1-3.1-2.13.1-.12.17-.3.3-.38,7.24-4.32,7.31-5.29.8-11.28a3.42,3.42,0,0,0-1.7-.84,6.41,6.41,0,0,1-5.92,5.73,2.82,2.82,0,0,1-1.58-2.35c.15-3.67.69-7.32.37-11,.89-1.65,2.79-2,4.06-3.2,2.77-.18,3.29,2.29,5,4.53,0-4.83-3.42-9-.3-13.19,0-.34,0-.68,0-1,3.29,2.66,5.06,6.5,7.47,9.84.87,1.21,1,2.79,3.17,1.72,1.51-.76,2.93.1,4.08,1.09C305.34,140.48,307.71,140.18,309.92,137.54Z"/><path class="cls-20" d="M279.94,137.51c1.42,4,.42,8,0,12-3.28.28-3.6-2.22-4.12-4.45-.34-1.45-.33-3.19-1.91-3.83-4.83-1.94-6.05-7.19-9.63-10.26-1.2-1-.8-4.32-3.34-3.22a3.89,3.89,0,0,0-2,5.79c-2.5,3.53-4.48,1.19-4.45-1.12a20.66,20.66,0,0,0-1-6.12c-.72-2.61-1.91-6.19,3.4-5,.9.2,1.48-.38,2.18-.88,3.85-2.76,8-4.55,12.93-3.94h0c0,3-4.24,5.27-1.78,8.9.1.15-1.21,1.39-2,2-1.05.76-2.58,1.29-1.63,3,.8,1.41,2.12,1,3.5.72a47.09,47.09,0,0,1,5.85-.52C279.53,131.55,279.7,134.56,279.94,137.51Z"/><path class="cls-110" d="M258.94,133.55c-1.1-.84-3.18-1.4-2.09-3.22,1.19-2,2.73-4.1,4.66-5.16.8-.44,2.39,2.16,3.42,3.7,2.72,4,4.52,9,9.74,10.88,2,.73,2.31,2.71,2.22,4.57a5.11,5.11,0,0,0,3,5.2,2,2,0,0,0,1.08,1.93c1.53-.13,2.29.45,1.93,2.07-.25,3.12-2,4.39-5,4-2.53-2.49-3.6-6.23-6.93-8-.33-3.13-4-3.47-5-6-3.3-2.55-3.06-7.22-6-10h-1Z"/><path class="cls-111" d="M309.92,137.54c-2.34,4.46-4,4.84-7.72,1.76-1.56-1.27-2.89-3.09-4.54.13-.88,1.71-2.26.39-2.41-.68-.76-5.39-5.9-8.27-7.31-13.23-3.73-10.28,2.68-16.6,9-23a7.86,7.86,0,0,1-2,5.46c-3.75,4.7-4.64,9.38-3.61,15.76.89,5.52,3.52,7.77,7.34,10.25,2.85,1.85,4.35,1.56,3.91-2.14-.24-2,.94-2.18,2.33-2.35,1.36,1,2.6,2,2,4-1.1,1-2.29,2.2-1.41,3.76C306.71,139.44,308.44,137.31,309.92,137.54Z"/><path class="cls-112" d="M287.93,126.54c0,3.57-.29,7.12,1.58,10.5.81,1.46,1.22,4-.9,4.65-1.77.52-2.51-1.58-2.7-3.29s-1.74-2.19-3-2.84c-3.78-3.91-6.19-8.44-6.26-14a1,1,0,0,1,1.24-1c.58-.29,1.18-.55,1.75-.89s.73-.68.08-1c-2.68-1.31-.44-2.55.26-3.3,1.31-1.41,2.61-.44,3.84.58,1.66,1.38,1.91,3.2,2.32,5.18C286.49,122.92,286.41,125,287.93,126.54Z"/><path class="cls-113" d="M277.87,120.52c-1.11,5.94,4,9.82,5,15,.21,2.44-.6,3.35-2.95,1.95-2-1.91-1.76-5.18-4-7-1.53-2.33.54-6.54-4-7.4-.85-.16-.07-1.58.38-2.11C273.91,119.08,275.83,118.87,277.87,120.52Z"/><path class="cls-114" d="M272,116.52c0-1.64,0-3.27-1.16-4.67-.92-1-1.44-2.51-.29-3.55s2.69,0,3.64.58c2.95,1.81,3.47,5,2.41,7.83-1.28,3.46-3.06.32-4.61-.19Z"/><path class="cls-88" d="M259.94,133.55c4.61,1.76,4.41,6.4,6,10-.11,1-.17,2.21-1.39,2.31s-2.08-1.08-2.36-2.17C261.34,140.32,260.67,136.92,259.94,133.55Z"/><path class="cls-88" d="M260.63,146.31c-.23,1.35-1.43,2.41-2,1.79-1.57-1.84-4.66,0-5.35-2-.62-1.79,1.6-1.54,2.81-1.58C257.89,144.51,259.83,144.22,260.63,146.31Z"/><path class="cls-33" d="M335.94,139.48c-3.52.74-3.95-1-3.08-4.09a11.54,11.54,0,0,1,2.29-3.7c1.83-2.53,3.91-5.76,7.21-4.54,3,1.1.57,4.52.3,6.59C342.24,136.92,340.5,140.08,335.94,139.48Z"/><path class="cls-98" d="M329.93,125.52l-3,2c-2.92.11-3.9-1.62-3.24-4.07.54-2,.68-4.26,2.24-5.92-.13-2.57-.24-5.15,3.05-6-.75,4.93,1.26,6.57,6,5-1.33,4,3.27,2,4,4-2,0-3.93.23-5.89.13C329,120.48,328.17,122.14,329.93,125.52Z"/><path class="cls-115" d="M282.92,153.52,281,151.45c1.16-2.19,4.95-2.82,3.61-6.66-.31-.88,1.66-1.26,2.72-.29s2.18,2.06,3.2,3.14c2.06,2.17,5.3,4.92,4.48,7.27-.87,2.5-4.89,3.35-8.07,3.62l-1-.06C285.69,156.37,284.28,155,282.92,153.52Z"/><path class="cls-55" d="M223,238.45c-.09,1.93-.13,3.65-1.35,5.54-2.36,3.65-2.66,7.71.32,11.44-6.68-.2-5.49-6-5.66-9.49A6.92,6.92,0,0,1,223,238.45Z"/><path class="cls-116" d="M325.9,117.56c-.13,1.76.4,4-.51,5.17-2.2,2.78-.19,3.61,1.51,4.82a2.15,2.15,0,0,1-2.3,1.39c-4.89-.2-6.13,1.82-3.7,6,.9,1.55,1.72,3.23,3.37,4.25.93.58,2.35.89,2.1,2.4-.19,1.08-1.27.91-2.05.91-1.28,0-2.86.33-3.27-1.46-.74-3.26-1.49-6.37-6-4.95-.2,0-.75-.31-.75-.49-.2-8.76-4.52-2.72-7.34-2.05-.57-1.38-2.15-2.25-2-4a4.18,4.18,0,0,1,.09-1.47c1.3-2.81,3.55-5.81-1.34-7.4-4.39-1.42-7.23-.1-7.72,4.83a.78.78,0,0,1-1,0c-.61-4.84-.54-9.49,3.17-13.33,2.75-2.85,2.87-7.48,6.49-9.79.89-.56,1.5-2.2,2.83-1.1.91.76-.07,1.8-.19,2.73-.29,2.15-4.62,3.11-2.21,5.69,2.07,2.22,4.61-.29,6.95-.67,2.88-.46,5.82.64,8.68-1.84,1.09-.94,4.43,1.45,3.62,4.74C323.72,114.13,323.42,116.25,325.9,117.56Z"/><path class="cls-117" d="M307.91,95.67a9.22,9.22,0,0,0,2.95-.19c4-1.71,5.3.9,6.74,3.75,1.16,2.32,3.49,1,5.3,1.35-3.33,2.86-6.5,3-9.8-.21-2.45-2.4-5.87-1.19-8.82-1.74C304.41,96.23,307.08,97.1,307.91,95.67Z"/><path class="cls-118" d="M294.92,125.52h1c1.45.92,2.9,1.84,4.47,2.82a4,4,0,0,1-5.44.44C293.73,127.91,293.56,126.63,294.92,125.52Z"/></svg>