<svg id="Layer_1" data-name="Layer 1" xmlns="http://www.w3.org/2000/svg" viewBox="0 0 400 275"><defs><style>.cls-1{fill:#debe81;}.cls-2{fill:#d7b578;}.cls-3{fill:#e8ca94;}.cls-4{fill:#efd9a5;}.cls-5{fill:#e3c897;}.cls-6{fill:#ddc493;}.cls-7{fill:#e1c792;}.cls-8{fill:#d8c294;}.cls-9{fill:#d9c7a1;}.cls-10{fill:#d4b988;}.cls-11{fill:#e1d3b0;}.cls-12{fill:#dac59c;}.cls-13{fill:#d4b680;}.cls-14{fill:#e8d19d;}.cls-15{fill:#d3b37b;}.cls-16{fill:#cbac77;}.cls-17{fill:#ac7e45;}.cls-18{fill:#daba85;}.cls-19{fill:#e1c797;}.cls-20{fill:#e0cb9f;}.cls-21{fill:#e0c799;}.cls-22{fill:#e2c794;}.cls-23{fill:#d3b57d;}.cls-24{fill:#bfa473;}.cls-25{fill:#debe88;}.cls-26{fill:#b79a66;}.cls-27{fill:#d2ae72;}.cls-28{fill:#caa66c;}.cls-29{fill:#dac193;}.cls-30{fill:#c5a87a;}.cls-31{fill:#b0925f;}.cls-32{fill:#bba276;}.cls-33{fill:#bba47b;}.cls-34{fill:#d8cbae;}.cls-35{fill:#c5af85;}.cls-36{fill:#cbb893;}.cls-37{fill:#dbc194;}.cls-38{fill:#b9a176;}.cls-39{fill:#dfbf82;}.cls-40{fill:#beab8b;}.cls-41{fill:#c6b187;}.cls-42{fill:#a98c5e;}.cls-43{fill:#b8a178;}.cls-44{fill:#b59c73;}.cls-45{fill:#c5ad86;}.cls-46{fill:#96703f;}.cls-47{fill:#cfb380;}.cls-48{fill:#e1ca9d;}.cls-49{fill:#9c8464;}.cls-50{fill:#e3d3ae;}.cls-51{fill:#c4b393;}.cls-52{fill:#ac8e5e;}.cls-53{fill:#ccb994;}.cls-54{fill:#a99269;}.cls-55{fill:#b0966b;}.cls-56{fill:#d1bb93;}.cls-57{fill:#40332a;}.cls-58{fill:#e4d2b8;}.cls-59{fill:#bca57e;}.cls-60{fill:#76573a;}.cls-61{fill:#d1c2a9;}.cls-62{fill:#ddcba9;}.cls-63{fill:#f3e7cc;}.cls-64{fill:#9e8c6a;}.cls-65{fill:#d3b98f;}.cls-66{fill:#ebe1ce;}.cls-67{fill:#e0cda6;}.cls-68{fill:#dad0c1;}.cls-69{fill:#806d48;}.cls-70{fill:#9d8c68;}.cls-71{fill:#e4c68a;}.cls-72{fill:#d5b172;}.cls-73{fill:#cba565;}.cls-74{fill:#e2c48c;}.cls-75{fill:#cea565;}.cls-76{fill:#d9b372;}.cls-77{fill:#cfa96c;}.cls-78{fill:#d4bb8a;}.cls-79{fill:#c7ae7c;}.cls-80{fill:#ddbe87;}.cls-81{fill:#ae8d51;}.cls-82{fill:#c7a267;}.cls-83{fill:#ddbf86;}.cls-84{fill:#dabb86;}.cls-85{fill:#eacd97;}.cls-86{fill:#ddbd83;}.cls-87{fill:#debe83;}.cls-88{fill:#c7ad78;}.cls-89{fill:#d8ba80;}.cls-90{fill:#d9bb83;}.cls-91{fill:#d6ba87;}.cls-92{fill:#b99e6d;}.cls-93{fill:#b99f73;}.cls-94{fill:#b59764;}.cls-95{fill:#c9a76b;}.cls-96{fill:#c8a870;}.cls-97{fill:#b58a4e;}.cls-98{fill:#c29a61;}.cls-99{fill:#553923;}.cls-100{fill:#c0975b;}.cls-101{fill:#b2874b;}.cls-102{fill:#ceae71;}.cls-103{fill:#d2b787;}.cls-104{fill:#d2b47d;}.cls-105{fill:#bfa068;}.cls-106{fill:#c4a165;}.cls-107{fill:#e3c790;}.cls-108{fill:#b98947;}.cls-109{fill:#bf975b;}.cls-110{fill:#a97c42;}.cls-111{fill:#b69a68;}.cls-112{fill:#a98f5d;}.cls-113{fill:#845c25;}.cls-114{fill:#bd9c5e;}.cls-115{fill:#9b6b2c;}</style></defs><path class="cls-1" d="M53.14,73.52,77.28,96.4c-1.23,1.44-2.6,1-4.33.17,3,2.48,5.93,4.32,8,7.45,4.13,6.3,10.83,6.07,15.12-.18a14.8,14.8,0,0,1,2-2.19l3.82-.22a5,5,0,0,1,2.92-.29c2.63,2,.64,5.4,2.19,7.75,2.27-.23,2-1.94,2.4-3.31,1.09-4.1,4.42-5.29,7.32-2.23,3.54,3.73,7.6,4.35,12.49,4.52s9.58,2.6,13.38,6c2.22,2,3.16,2.24,5.75-.33,3.14-3.11,8.68-2.56,12.61-5.5,1.38-1,3.64,1.68,4.73,3.63,1,1.71.54,3-1,4.33-2.35,2-.83,3.22,1.14,3.86a8.08,8.08,0,0,0,7.16-1c3-2,3-3.37,0-5.55-2.24-1.61-2.35-3.4-1-5.55,1.84-1.66,4.09-1.55,6.1-.89,6.75,2.22,13.39,1,20-.32,2.29-.47,4.51-1.07,6.66.34-.64,4.31-4.23,7.68-8,7.24-2-.22-3.94-.32-5.91-.47-6-.45-9.83,2-11.47,7.86a8,8,0,0,1-.4.9,41.68,41.68,0,0,0-3.78,18.94c0,1.64.12,3.32-.86,4.8-3.09,1.42-5.3-.39-6.71-2.56-3-4.53-8.49-6.46-11-11.42-.91-1.79-2.3-.84-2.94.56-1.13,2.47-3.25,3.64-6.37,4.65,2.39,1.06,3.84.2,5.3-.29a5.45,5.45,0,0,1,5.2.75,3,3,0,0,1,1.59,2.89,3.07,3.07,0,0,1-2.68,2.58,6.48,6.48,0,0,1-3-.1c-4.21-1.07-7.89-.48-10.52,3.42,3,2.23,4.76,4.87,1.63,8.51a2.81,2.81,0,0,1-1.23.7,1.76,1.76,0,0,1-1.23-.59c-2-2.3-2.59-6.11-6.68-6.15-1.43-.87-.94-2-.44-3.14.63-1.31,2-2.57,1.37-4.09-1.14-2.73-.67-4.42,2.34-5.11.48-.11,1.18-.34,1.12-.81-.52-4.24,2.71-4.26,5.4-4.85,2.49-.55,2.29-1.54,1.57-3.86-1.91-6.11-5.56-9-12-8.81-2.44.06-4.78-1.11-7-2.37-3.63-2.07-7.42-1.69-10.92.25-4.16,2.3-4.24,6-.37,8.58,1.58,1.07,3,2.21,2.64,4.37-.4,2.64-2.62,3.06-5.18,3.78,3.83,2.35,4.11,5.23,1.92,8.51-2.74.55-2.81-2.4-4.3-3.29-4.63-2.77-5.93-5.7-2-10.2.88-1,.33-3.2-1.31-4.83-2.8,4.51-6,3.5-9.6.92-4.25-3-9.3-1.38-14-1.54-5-.17-5,.11-4.72-5a4,4,0,0,0-2.37-4,4.53,4.53,0,0,1-1.43-1.46c-.71-1.8-1.23-3.73-3.23-4.64a12.91,12.91,0,0,1-1.11-.7c-2.46-1.85-2.7-5.72-6.14-6.68a5.33,5.33,0,0,1-1-1A121.58,121.58,0,0,0,53.41,79.31C51.4,76.41,51.46,75.39,53.14,73.52Z"/><path class="cls-2" d="M174,146.5c-.23-4.06.76-8.21-2.2-11.93-1.64-2.06.46-4.37,1.73-5.69,3.12-3.23,4.64-7.25,6.17-11.18,1.45-3.73,3.94-5.22,7.55-5.12,3.41.1,6.9-1.14,10.24.61,1.28.67,2-.3,2.85-1.24,1.41-1.58,3.07-3,4.63-4.41a10.21,10.21,0,0,1,8.09-1.07l8.92,1.19c7.76,1.1,15.48.19,23.17-.68s15.47.27,23.21.51a2.49,2.49,0,0,1,1.79,1.64c-.45,1.15-1.51,1.36-2.52,1.65-2.28.09-2.28,1.86-2.69,3.48-1.32,5.18-1.77,5.47-7.11,4.09a4.63,4.63,0,0,0-3.71.78c-3.62,1.16-7,3.07-11,2.64-2.77-.29-4.93-.48-3.9-4.37,1.11-4.16-2.65-3.91-5-4.48-2.53-.62-4.75.11-5.19,3.13-.73,5-3,9.71-1,15.34,1.08,3,1.8,5.46,4.2,7.81,4.59,4.5,8,10,11.52,15.69-.44-2.17-.45-4.28,1.94-5a6.75,6.75,0,0,1,7.93,2.66c1.35,5.83,1.23,12.18,5.91,16.83,1.35,1.27,3.76,1.58,3.77,4.07-3.71,5.1-3.74,5.15-8.78,2.6-1.72-.87-2.49-.62-3.4,1.16-1.93,3.76-4.18,3.86-6.8.53a7.92,7.92,0,0,1-1.86-5.95c.13-1.09.74-2.31-.83-2.9a4.07,4.07,0,0,0-2.86.53,3.07,3.07,0,0,1-4-.51c-1.34-1.37-.69-2.61.12-4a9.82,9.82,0,0,0,1.05-8.5c-1.15-3.51-2.93-5.86-7.05-5.19-1.94-1.48-2.85-4.15-6.69-2.14-3.17,1.65-7-3.89-6.2-7.75,1.49-7.06,3.49-14.07,2.85-21.44-.41-4.69-.71-5-5.54-4.36-1,.13-2,.32-2.94.51-2.86.54-5.75.95-4.79,5.15a2.78,2.78,0,0,1-1.37,2.52c-3.59.31-5-2.7-7.64-5.15-.16,2.27.9,4.55-1.26,5.9-1.79,1.13-3.75,1.19-5.75,1.3-6.32.35-7.11,1.22-6.73,7.35.05.66.31,1.55-.11,1.94-3.39,3.12-3.34,8-6,11.48a2.34,2.34,0,0,1-2.07.41Z"/><path class="cls-3" d="M77.06,111.54l1,1c1.45,1.52,2.44,3.4,1.87,5.4-.63,2.17.75,3.53,1.12,5.22,1.79,8,8.72,8.28,14.39,9.95,6.29,1.84,12.41,3.54,16.57,9.08,1.17,1.56,3.12,1.76,4.71,2.6,1.91,1,4.71,1.17,4.75,4.29-1.07.56-2.29,1.05-1.4,2.66-3.68,2-7.36,4.16-11.49,1-2.2-1.66-3-4.31-4.29-6.54-1.51-2.49-6.22-4.71-8.79-4.05-1.35.34-1.23,1.24-1.28,2.27-.22,4.69-2.55,7.68-7.23,8.68-2-.72-4-1.53-2.5-4.3,2.57-2.8,1.49-5.74-.9-7.36-7.39-5-7.63-12.88-8.49-20.31-.46-4.05-1.52-7.18-4.33-10.14-5.83-6.15-11.55-12.36-17.86-18.07-5-4.54-8.5-10.74-12-16.35-6.17-9.83-12.74-19.84-14.75-31.78a31.39,31.39,0,0,1-.09-11.31c.32-2.52-1.2-6.33,1.51-7.21,2.91-.94,4.33,2.79,5.89,5,3.41,4.8,4.62,10.53,6.65,15.92,2.74,7.23,5.39,14.5,9,21.35-.38.52-2.08.23-1.22,1.45,6.69,9.46,11,20.38,18.15,29.55h0c3.09,1.58,3.12,6.2,7,7h0C75,107.72,75.88,109.75,77.06,111.54Z"/><path class="cls-4" d="M85.06,149.5c-1,2.11,1.16,2.11,2,3,2.53,1,4.59.49,5.92-2s3.21-3.36,5.81-2.49c3.08,1,6.79,1.29,7.7,5.37a17.27,17.27,0,0,0,1.73,4.65c3.33,6.05,1.79,10.41-4.83,12.9-3.11,1.16-5.75,1.62-4.94,6.3.62,3.65-4.76,6-8.13,4a11.65,11.65,0,0,1-3.25-3.73C80.84,168.53,74,160,68.45,150.42c-1.78,3.72.28,7,.68,10.43-.13,1.5.38,3.36-2,3.62-.62-4.66-2.37-9.15-2.09-13.95-1.47-7.36.7-14.2,3-21h0c2.06-4.09,1.84-9.33,6.19-12.27,1.37.23,1.32,1.12,1.13,2.21-1.24,7.42,1.33,13.74,5.27,19.89A28.18,28.18,0,0,1,85.06,149.5Z"/><path class="cls-5" d="M67.14,164.47c1.42-1.06.79-2.61.94-4,.42-1.91-.46-4.61,2.82-4.82,2.78-.18,3.81,2,4.34,4,.93,3.47,3,5.87,5.29,8.56,3.13,3.75,6.25,8,4.79,13.78-.95,3.76,3.21,1.35,4.3,2.88l.37.32c-3.54,2.81-1.87,7.09-3,10.59-4.63,6.58-8.61,13.68-15.41,18.45-3.58.59-5.78-.81-6.4-4.47a8.16,8.16,0,0,1,2.07-5.07c5.61-3.43,5.94-8.87,5.52-14.59-.13-1.62.53-3.26-.11-4.92-1.7-.31-2.64,1.22-4,1.59-2,1-3.35,2.51-3.27,5,.14,4.27-2.22,7.33-5.13,10.09a1.92,1.92,0,0,1-2-.33c2.4-3.68,4.92-7.17,4.86-12,0-2.82,2.35-4.87,4.71-6.56,1.68-1.21,2.28-2,1.17-4.88C67.46,174,65.25,169.31,67.14,164.47Z"/><path class="cls-6" d="M213.08,106.47,205,107.54c-4.61-3-8.36,1.49-12.72,1.55-4.76.07-9.49,1.28-14.08-.94a6.34,6.34,0,0,0-6.18.39c-2.16,3.38-5,3.82-7.94,1.31-2.47-2.09-4.17-2.1-7.35-.51-4.69,2.35-10,4.16-15.69,1.91-5.19-2-10.43-4.32-16.29-3.5a2.19,2.19,0,0,1-1.45-.25c-5.44-4-11.62-5.6-18.24-5.9l-3.2-.17c9.1-2.14,18.38-1.71,27.61-2,13.82-.41,27.44.53,40.75,4.86,8,2.6,16.44,1.18,24.68,1.48C201,106,207.09,104.25,213.08,106.47Z"/><path class="cls-7" d="M86.06,195.46c.24-1,1-2.28.63-2.79-3.32-4.58.42-5.67,3.37-7.2,3.22-1.94,7.48-1.36,10.32-4.34a2,2,0,0,1,2.75.32c4.37,5,11.57,4.43,16.6,8.53,3.11,2.54,6,.59,6.46-3.42.28-2.65,1.56-4.29,4.17-3.56,2.79.77,5.16-.58,7.74-.73a6,6,0,0,0,6.16,3.08c1.72-.14,4.11-.78,4.74,2.05-6-1.33-9.32,2.09-11.43,6.93-2.5,5.74-7.19,8.74-12.54,11.12-3.06,1.17-3.88,5.76-8,5.24-1.94-5.32-6.89-9.39-6.52-15.68a.67.67,0,0,0-.2-.45c-1.24-1.9-15.17-7.13-17.5-6.65-2.09.44-3.26,1.45-2.94,3.75A4.51,4.51,0,0,1,89.2,195a3.57,3.57,0,0,1-1.12.92A1.86,1.86,0,0,1,86.06,195.46Z"/><path class="cls-8" d="M149,187.4c-1.84-1.69-4.18-1.15-6.12-.8-3.67.67-4.86-.85-4.85-4.13-1.46-2-1.12-4.55-2.14-6.78-1.5-3.28,2.86-3.21,3.81-5.25,3.6-.26,3.25,2.27,3.05,4.51-.15,1.6-1.24,3-1.42,4.6-.21,1.79,1,1,1.89,1,3.19-.59,5.71,1.16,8.4,2.36,1.65.74,3.47,1.79,5.17.81,2.2-1.26,0-3.3.39-4.95,1-4.5,4.64-4.49,8.17-4.64,4.08-.17,8.37.26,11.18-3.73,3.94-1.59,8.31-1.71,12.22-3.61a2.71,2.71,0,0,1,3.9,2c.48,1.86-.41,3.2-2,4.07-2.15,1.15-4.51.94-6.82,1-2.06.06-4,.3-4.93,2.55-.48,1.19-1.46,2.47-.57,3.72s2.14.42,3.25.28c2.94-.38,5.55-.35,5,3.82-4.88,4.21-4.88,4.21-2.46,10.46,2,5.65.25,10.23-4,14.08-2.77-1.15-1.59-3.05-.93-4.86,1.88-5.2.47-9.77-2.78-13.94s-7-4-10,.24c-2.69,3.84-4.39,4.23-10.32,2.33Z"/><path class="cls-9" d="M325.93,161.52c-4.82,1.7-10,2.76-14.47,4.91-6.55,3.18-13.07,3.91-20.11,4.43-4.23.31-8.25,3.65-12.36,5.63-2.71,3.94-7.22,5.34-11.27,6.42-3.61,1-5.9,2.32-7.5,5.52-1.5,3-3.86,5-7.43,4.89a1.88,1.88,0,0,1-2.07-1.72c1.4-2,3-3.72,2.21-6.69s2.11-3.62,4.23-4.52c7.74-3.28,16.08-5.52,22.27-11.63,6.74-6.64,16-7.78,24.08-11.52,3.42-1.58,7.23-.19,10.63,1.13,6.66,2.59,6.63,2.67,9.83-3.18a3,3,0,0,1,1.77-1.2,2.44,2.44,0,0,1,1.35.36c.41.53.44,1.33.86,1.75C331.31,159.45,329.66,160.86,325.93,161.52Z"/><path class="cls-10" d="M234,235.22c-1.9-1.86-1.72-4.37-2.08-6.71l.49-.56c4.07-.74,7.32-2.83,10.87-5,4.64-2.84,8.62-6.94,14-8.62,2.1,5.54,2,11.5,3.26,17.21-3.4,4.75-2.81,10.8-5.2,15.88-1.43,1.12-2.87.48-4.31.05-2.94-1.33-5.3-.64-7.1,2-3.94-2.27-2.37-7.72-5.95-10.26a12.56,12.56,0,0,1-2.16-2.65c.79-1.67,4,.11,3.95-2.73a1.91,1.91,0,0,0-1.45-1.79C235.49,231.2,235.37,234.06,234,235.22Z"/><path class="cls-11" d="M251,191.47c3.4,2.3,6.07.18,7.38-2.29,2.33-4.38,4.44-7.21,10.31-7.75,2.91-.27,7.24-2.48,10.33-4.94a4.41,4.41,0,0,1-2.14,4.13,41.15,41.15,0,0,0-11.39,12.95,11,11,0,0,1-3.41,3.49c-2.48,1.77-4.59,3.89-4.08,7.38-2,.25-3.79-2.49-6-.51-4.37,1.9-9,1.23-13.57,1.44-1.66.07-8.67-7.88-8.78-9.57-.14-2.1,1.25-3,3.08-3.13,3.62-.26,7.34-.75,10.69,3,.31-3.88-.44-8.25,5.11-7A3.61,3.61,0,0,1,251,191.47Z"/><path class="cls-12" d="M249,189.48c-2.81.16-6.63-.5-3.41,4.4a2.09,2.09,0,0,1-.78,3,2.15,2.15,0,0,1-3.37-.84c-2.27-4.84-6.49-1.16-9.65-2.2-1-.33-2.21,1.5-.43,2.71a11.84,11.84,0,0,1,4.34,5.82c.31.79,1.5,1.82,2.21,1.76,4.71-.4,9.62.63,14.1-1.68,1.2,2.54-.48,4.26-2.38,4.09-5-.43-9.62,2.64-14.62,1.22-1.31,0-2.63,0-3.95,0-3.58.12-4.7,1.84-3.45,5.19,1.48,4,1.55,8.43,3.74,12.23a1.89,1.89,0,0,1-.36,2.28c-4-2.44-4.25-6.76-5.32-10.67-2.91-10.64-5.68-11.5-13.54-4.21-1.63-2.33.42-3.58,1.54-5,2.59-3.28,4.61-6.74,4.34-11.11,1-1.74,3.45-.26,4.35-2.07-3.5-1.88-2.34-4.89-1.37-7.33,1.08-2.69,3.63-1.19,5.63-1a14,14,0,0,1,7.6,3.27c1.37,1.14,3.14,1.69,4.49.33,1.61-1.63-1.18-2.33-1.21-3.73-.1-2,1.08-2.91,2.73-3.5C247.13,181.84,248.49,182.92,249,189.48Z"/><path class="cls-13" d="M193,253.43c-3.45,4.4-8.29,5.13-13.33,4.57-2-.21-3.57-.55-4.8,1.24-2.13,3.09-5.51,4.05-8.76,5.25a5.6,5.6,0,0,1-6-.67c-.82-2.4.94-4.33,1.19-6.54a11.17,11.17,0,0,0,1.39-4.69c.47-6.23,5.61-11.76,12.27-13.38,1.93,5.82,6,8.63,12.09,9.09a7.49,7.49,0,0,1,6.14,3.73A1.25,1.25,0,0,1,193,253.43Z"/><path class="cls-14" d="M85.06,149.5c-5-7.72-9.58-15.51-11.62-24.71-.64-2.85,2.58-4.74.65-7.27a2.41,2.41,0,0,1-2-1c-6.51-9-14.13-17-21.68-25-7.36-7.87-12.88-17-18.46-26.26-5.42-9-6.26-18.21-6.79-27.92-.07-1.3-.18-2.69.88-3.76-.41,11.25,3,21.27,9.56,30.35,1,1.44,1.29,3.4,2.17,5A116.53,116.53,0,0,0,56.16,94.13c6,6.17,12,12.28,18,18.5a8.18,8.18,0,0,1,2,6.72c-.69,6,2.4,11.2,3.45,16.82.29,1.59,2.28,2.58,4,3.44C88,141.76,88.58,146.94,85.06,149.5Z"/><path class="cls-15" d="M87.05,236.35c-1.59-.83-2.85-1.93-3.09-3.84-.22-4.7-3.81-6.36-7.3-8.11-1.18-4.2-4-4.7-7.71-3.6-1.62.48-3.21,2.1-5.1.61-.25-4,2.46-5.55,5.61-6.48,2.06-.6,4.15-1.09,6.15-1.87,1.46-.57,2.86-1.29,3-3,.45-6.65,5.71-10.13,9.47-14.6h0c9-3.73,13.81-2.81,18.22,3.45a2.27,2.27,0,0,1-2.73,1.63c-4.92-.76-9.42,1.42-14.15,1.83a6.6,6.6,0,0,0-6.4,5.94c-.59,3.49,1.76,5.92,4.25,7.93,1.33,1.07,2.85.21,4.22-.46,2-1,4.36-2.18,5.22,1,.8,3-1.23,4.16-4,4.24-3.34.79-4.24,3.1-4.33,6.27S89.32,233.61,87.05,236.35Z"/><path class="cls-16" d="M361.57,155.42c-.69,1.49-2.12,1.82-3.49,2.25-3.81.64-7.18,0-10.06-2.85-3.32-3.34-8-2.86-12.13-3.82-2.42-.55-5-.38-7.39-.92-2.08-1.7-1.24-3.8-.8-5.85.8-3.71,1.68-7.42-.31-11,.36-4.69,4.82-3.69,7.38-5.34a5.24,5.24,0,0,1,1.58,0c4.8,1.28,7,4.45,6.91,9.37,0,1.14,0,2.29,0,3.43.09,6.24.28,6.48,6.2,8,2.37,1.75,4.73,3.43,7.83,3.78A5.11,5.11,0,0,1,361.57,155.42Z"/><path class="cls-17" d="M349.87,149.56c-7.68-.15-8.06-.42-7.92-8.21.09-5.33.55-10.64-6-12.78,1.46-1.41,3.62-1.79,4.94-3.41,2.43-.81,3.31,1.68,5,2.36l9.29,4.8c2.72,3.08,4.67,6.11,3.58,10.79-.71,3-1,4.83-4,3.54,2.82.66,3.87,2,.73,4.51C353.3,151.93,351.66,150.46,349.87,149.56Z"/><path class="cls-18" d="M270,109.54l-1-1c-.27-2.3,1.45-2.72,3.06-3.11a12.51,12.51,0,0,1,4.9-.59c4.74.85,8.13-.83,12.05-3.75,7.86-5.86,17-8.31,27-5.52,5.32,3,11.53,4.42,16,9-3.12,1.21-6.12-.27-8.3-1.72-4.82-3.22-9.56-2.65-14.58-1.39a16,16,0,0,1-3,.41c-3.17-.19-6.22.72-9.31,1.2-3.65.56-5.54,3.39-6.92,6.49s-4,5.06-7.38,4.88c-3.14-.18-5.78,1-8.59,1.77a3.72,3.72,0,0,1-2-.85,6,6,0,0,1-1.38-1.7C269.89,112.3,269.19,111,270,109.54Z"/><path class="cls-19" d="M272.88,256.32c1.8-1.8,3.61-2.27,5.4,0a6.9,6.9,0,0,0,4.6,2.61c3.3.46,5.14,2.39,5.9,5.51-3.29.85-4.78,3.69-6.7,6.06-.84,1.79-2.94.91-4.15,1.94-2.66,1.51-5.36,1.18-8.07.13.46-.88,1.45-.44,1.88-.69-3.87-.18-8,.15-11.83-1.82a3.18,3.18,0,0,1-1.44-3.34,10.29,10.29,0,0,1,3.45-3.87c3-1.24,6.18-.32,9.22-1.07C275.59,260.68,275.86,259.92,272.88,256.32Z"/><path class="cls-20" d="M156,192.49c4.38,0,8.77.86,10.5-5.37.85-3.08,7.83-2.33,10.28,1,4,5.39,6.75,11.07,2.64,17.73a1.82,1.82,0,0,0,.59,2.61c1.72,1.59,1.06,3.94,1.87,5.82a9.88,9.88,0,0,1,.31,1.53,51.26,51.26,0,0,0,1.58,13.73,2.79,2.79,0,0,1-.78,1.36,2.74,2.74,0,0,1-2.93.53c-1.45-8.15-.26-16.53-2.63-24.67-.85-3,.37-6.39-3.1-8.53a16.81,16.81,0,0,0-9.33-2.55C161.91,195.67,158.32,195.41,156,192.49Z"/><path class="cls-21" d="M315.92,95.54c-4.74,0-9.78-1-14.15.34C297,97.3,291.7,99.06,288.09,103c-2.76,3-5.66,3.88-9.68,3.32-3.21-.44-6.9-1-9.47,2.17-13.91,0-27.82-.78-41.73,0-1.74.1-3.67.56-5.21-.86,14.39.86,28.22-3.3,42.36-4.72a40.91,40.91,0,0,1,12.88.23c3.93.84,7,0,10.5-2.49C296.13,94.78,305.34,90.67,315.92,95.54Z"/><path class="cls-22" d="M112.21,239.27c4.05,2.81,9.15,3.76,12.85,7.18a15.59,15.59,0,0,1,.93,12c-2.64.81-5.24,1.8-7.93,2.39s-5.8,1.75-8-1.4c1.47-1.72,3.64-1.06,5.61-1.53C110.4,254.49,109.1,246.08,112.21,239.27Z"/><path class="cls-23" d="M106.92,256.68c-3.48-.22-4.87-2.87-6.56-5.36-2.39-3.53-3.77-8-9.2-8.74-1.79-.24-3.4-2.57-3.16-5.09,2.11.28,3.82.62,6-1.13,2.86-2.31,6.86-1.27,10.43-1,1.2.35,2.36,1,2.48,2.23C107.53,244,108.76,250.33,106.92,256.68Z"/><path class="cls-24" d="M106.92,256.68c-1.16-5.46-.88-11-.83-16.52,0-2.23-.25-4-3.06-3.79-.58-2.47.61-4.39,1.94-6.27,5.65-1.49,5,3.85,6.92,6.4.11.92.22,1.84.32,2.77,0,1.82,0,3.64-.15,5.45-.47,6.19,0,11.86,8.11,13.48-3.66,1.87-6.94.94-10.09,1.25Z"/><path class="cls-25" d="M66.06,209.44c.52,3.56,3,4.2,6,4,.17.73,0,1.3-.82,1.4-7.23.94-8.53,6.83-10.15,12.33-.51,1.72-.33,3.66-2.58,4.27-2,.43-3.84.39-5.46-1-2-6.94-3.46-13.91-1.05-21.08a2.11,2.11,0,0,1,.88,1.16c1.51,6,1.47,5.93,6.74,2.09C61.56,211.18,63.15,208.91,66.06,209.44Z"/><path class="cls-26" d="M105,230.47c.25,2.28-1.08,4-2,5.9l-5.94,0c-1.16,0-2.83-.15-3.14,1-2,6.94-4,1.85-6,.11l-1-1.14A74.1,74.1,0,0,0,87,227c-.61-4.84,1.76-6.88,6.07-7.59.28.41.7.83.69,1.28-.25,7.05,3.78,9.17,10,8.77A2.77,2.77,0,0,1,105,230.47Z"/><path class="cls-27" d="M66.06,209.44c-3.16,2.33-6.33,4.67-9.48,7-1,.74-1.7,2.31-3.29,1.38-1.35-.79-1.19-2.23-1.21-3.55,0-1.64,0-3.29-.07-4.94,1-3.5,4.29-5.12,6.27-7.81l1.78-.09c1.76-1.31,3.76-.94,5.71-.78,3.42.29,4.47,1.78,2.29,4.79Z"/><path class="cls-28" d="M98,101.65c-1.14,3.21-1.68,7.25-5.86,7.74-4.65.53-9.77,1.35-12.31-4.51-1.64-3.78-6.19-5-8.28-8.77,2.11-1.12,3.86,1.18,5.7.29l3.81,2.27c3.82,1.78,7.91,2.33,12,2.81Z"/><path class="cls-29" d="M327.94,149.51c7.92,0,16.07-.84,22.3,5.75,2.15,2.27,5.6.37,7.84,2.41a3.81,3.81,0,0,1-3,1.91c-5,.27-9.74-1.14-14.57-2.58,0,1.5,2,1.9,1.43,3.4l-5,.08c-.74-.63-2.09-.88-2.28-1.75-1-4.49-4.43-4.14-7.71-4.23h-1a2.18,2.18,0,0,1-1.5-2.1A4,4,0,0,1,327.94,149.51Z"/><path class="cls-30" d="M308.92,100.49c4.92-2,9.58-2.52,14.4.78,2.45,1.68,5.7,2.2,8.58,3.25a21.77,21.77,0,0,1,7.18,8.94,2.54,2.54,0,0,1-1.84.39c-2.3,0-3.92.35-2.21,3.17a1.42,1.42,0,0,1-.6,2.07c-2.35.66-4.47-.18-6.59-1-2.44-1.89-2.81-4.66-3.15-7.43-.21-1.75.17-3.67-1.45-5a17.37,17.37,0,0,1-1.59-1.62c-1.86-1.94-4.3-2-6.76-2.17C312.84,101.75,310.6,102.3,308.92,100.49Z"/><path class="cls-31" d="M74.05,229.43c-.14,1.42.14,2.94-.89,4.18-.42-.28-.65-.86-1.07-1-1.08-.36-1.08.54-.76,1,1.89,2.92,1.29,6,.91,9.16-1.76,3.44-3.84.45-5.75.24-2.13-.24-1.75-2-1.82-3.46-.18-3.77-.35-7.54-.76-11.3a6.5,6.5,0,0,1,4.91-7.35c3.9-1,4.26,2,5.06,4.45.2.62.54,1.2.72,1.84A2.62,2.62,0,0,1,74.05,229.43Z"/><path class="cls-32" d="M64,264.51l-2.87-2.17c-1.16-1.69-1.49-3.39,0-5.09,1.67-1.17,3.45-.38,5.18-.23,2.37.22,4.15-.46,4.95-2.88a3.22,3.22,0,0,1,.92-1c2.3.91,4.37-2.58,6.75-.34,1.86,2,1.49,4.35,1.35,6.71a4.48,4.48,0,0,1-1,2.25A27.35,27.35,0,0,1,64,264.51Z"/><path class="cls-33" d="M79.07,261.42l0-2.06a6.34,6.34,0,0,0,2.07-3.21c.58-2.35,2-2.64,4-1.83a32.68,32.68,0,0,1,3.6,1.53C92.62,258,93,260.63,90,264.24c-2,.13-4.15-.2-5.91,1.21-2.56,1.26-5.26,1.11-8,.76-1.44-.67-1.48-1.47-.23-2.39C76.92,263,78.73,263.2,79.07,261.42Z"/><path class="cls-34" d="M105,230.47a5.86,5.86,0,0,0-.94-.07c-3-6.42-1.8-11.4,4-16.29,3.21-.66,5.46-3.67,8.94-3.67,3.61-.15,4.38-4.84,8-5A35.24,35.24,0,0,1,112,215.77c-2.58,1.11-5.39,2.53-3.54,7.49,1.53,4.08,3.62,8.51,3.48,13.24C109.06,235.11,109.74,229.73,105,230.47Z"/><path class="cls-35" d="M231,227.49c-3-4.86-3.12-10.68-5.33-15.81-1.42-3.3.59-4.68,3.38-5.13a38.41,38.41,0,0,1,6-.09c3.08.91,6.43.72,9.38,2.22.12,3.78-2,4.5-5.11,3.59-.94-.27-1.8-.83-2.75-1.11-4-1.2-5-.2-4.78,4,.25,4.35,2.05,8.66.42,13.08l-.21.31Z"/><path class="cls-36" d="M244,208.45c-3.27.6-6.07-.95-9-2,3.29-.57,7.09,1.86,9.94-1.73.23-.29,1.6.05,2.28.4,3,1.58,4.26.16,4.77-2.66,2.95-2.23,4.4.1,6,2,1.89,4.53.65,9.41,1.59,14.11s2.27,9.19,3.57,13.75l-.45.41a2.76,2.76,0,0,1-2.64-1.22c-1.58-4.44-3.21-8.88-2.29-13.71a5.34,5.34,0,0,0-.78-3.3c-.67-.89-.37-1.91-.39-2.89-.07-4.8-.64-5.26-5.2-3.67C248.91,208.79,246.44,208.36,244,208.45Z"/><path class="cls-37" d="M251,246.43l4,1c2.41,4.53,2.56,9.92,5.47,14.28.55.82-.05,1.93-.79,2.7-2,1.45-4.22,0-6.3.49a1.84,1.84,0,0,1-1.25-.56c-1.24-2-1.91-4.5-4.25-5.72C250.36,254.94,248.43,250.1,251,246.43Z"/><path class="cls-10" d="M263.13,232.3c1.86,2.2.65,4.83,1,7.24.85,6.49,4,11.85,7.83,16.92-3.05,4.4-6.32,1.9-9.56.31-3.34-8.13-2.59-16.18.47-24.19Z"/><path class="cls-38" d="M53.06,230.42l6,.06c2.95,4.63,1,9.75,1.5,14.63-.08,2.74.42,5.54-.79,8.18-2.33,2.39-3.81,2.45-4.25-1.37-.69-6.17-2.11-12.25-2.3-18.48Z"/><path class="cls-39" d="M66.07,99.54C59.4,93.82,55.8,86,52.1,78.38c-1.31-2.71-2.62-5.24-4.89-7.25-1.06-.93-2.85-2.16-1.73-3.62,1.37-1.78,2.31,1,3.66,1a10.8,10.8,0,0,1,4,5C52,74.29,52.31,75.1,53,76c3.36,4.26,5.32,9.39,8.86,13.59C64.2,92.34,65,96.08,66.07,99.54Z"/><path class="cls-40" d="M210.75,220.44c1,7.18-.48,14.4.64,21.63.42,2.72-2.26,4.5-5.37,4.39-1.61.15-1.81-1.08-2.17-2.18a7.78,7.78,0,0,1,.7-5c1.84-1.27,1.95-3.17,2-5.16.13-4-.29-8.11.31-12.16a4.32,4.32,0,0,1,.75-1.52A2.26,2.26,0,0,1,210.75,220.44Z"/><path class="cls-41" d="M263,256.42c3,.55,6,2.17,9,0a3.83,3.83,0,0,1,.95-.14c1.87.52,4.52.79,4.58,2.95.06,2.59-2.9,2.57-4.78,3.37-3.47,1.47-7.13.43-10.68.81C261.26,261,262.32,258.72,263,256.42Z"/><path class="cls-42" d="M335,118.46c-.65-1.84-2.26-2.86-4.67-4.26,3.6-.58,5.89-3.13,8.74-.74,3.45,4.12,2.56,10.35,6.84,14.06l-5.05-2c-2.5-.22-3.33-3.16-5.75-3.51C333.76,120.89,334.52,119.67,335,118.46Z"/><path class="cls-43" d="M251,246.43c0,2.6,0,5.21-.08,7.81-.1,2-.72,3.86-3.08,4.38-3.31-2.18-3.48-5.7-3.92-9.12C244.48,244.85,245.58,244.37,251,246.43Z"/><path class="cls-44" d="M162.07,257.36c-.09,2.21.31,4.6-2.06,6s-2.89-.84-4-2c0-2.58-.34-5.2,0-7.72s1.49-4.69,4.66-4.56C164.69,251.31,162.84,254.42,162.07,257.36Z"/><path class="cls-45" d="M126,258.46c-1.36-3.92-.84-8-.93-12a8.69,8.69,0,0,1,6.93,2c.17,2.71,1.48,5.38.27,8.13A7.7,7.7,0,0,1,126,258.46Z"/><path class="cls-46" d="M355.93,150.47c.71-1.51,1.22-2.84-1.34-3-1.36-.08-3,.66-4.3-1.07,2.3-1.84,4.67-.45,7-.15.65-2.53-.69-5,.82-7.31,1-1.53-.91-2.18-1.44-3.27s-3.24-1.3-1.43-3.35l1.76,1.31c2.59,1.5,4.48,3.52,4.19,6.73-.33,3.57,4,4.83,3.88,8.26a.88.88,0,0,1-.16.88C361.92,150.07,359.14,152.24,355.93,150.47Z"/><path class="cls-47" d="M210.75,220.44H208c-2.37-.44-1-2-.69-2.9,1.64-4.58,2.65-9.42,5.61-13.45a3.77,3.77,0,0,0,.53-2.83c-.32-3-1-6.33,4-5.32l.59.56c3.36,3.31-.17,5.75-1.1,8.5-1,2.93-4.71,4.12-4.84,7.61A20.31,20.31,0,0,0,210.75,220.44Z"/><path class="cls-48" d="M162.07,257.36c-.53-2.73,1.14-5.81-1.31-8.24-.26-.62-.88-1.29.2-1.75,1.85-1.56,2.14-3.91,3-6h0c2.44-3.6,6.46-3.21,10-4a3,3,0,0,1,.78-.09l.55.35a1.45,1.45,0,0,1-.37,1.73c-3.13,2.44-6.23,4.93-9.42,7.29-1.83,1.34-1.43,3.19-1.53,5C163.88,253.74,164.69,256.14,162.07,257.36Z"/><path class="cls-49" d="M77.92,252.35c-1.76,1.27-3.34,3.56-5.77,1-2.54-3.61-1.92-7.25-.11-10.9-.26-3.07,1.29-6.7-2.75-8.61a1.74,1.74,0,0,1-.64-1.6c.62-1.2,2-.89,3.06-1,2-.27,1.07,1.51,1.44,2.39a23.75,23.75,0,0,0,4.9,17.85c.34.25.43.47.28.64A.56.56,0,0,1,77.92,252.35Z"/><path class="cls-50" d="M326.93,154.5c1.72-.52,3.44-1.05,5.17-1.55,1.39-.41,2.81.37,2.42,1.49-1,2.93,2,3.9,2.4,6-3.74-.46-7.3,1-11,1l3.72-2.28C326.7,158.59,325.51,157.1,326.93,154.5Z"/><path class="cls-51" d="M53.18,233.44c1,5.89,2,11.77,2.87,17.67.29,2,.11,4,3,2.25,1.91.68,3.45,1.65,3,4.06-1.67,1.37-.75,3.26-1,4.92-3.62-2-5.2-5.43-6.05-9.22A68.61,68.61,0,0,1,53.18,233.44Z"/><path class="cls-52" d="M355.93,150.47c3.05.32,5.71-2.94,8.95-1,.73,3-1.82,4.17-3.31,5.92a26.46,26.46,0,0,0-7.36-2.34,5,5,0,0,1-4.34-3.52Z"/><path class="cls-53" d="M281.05,269.54c.23-1.43,4-.91,1.92-3.78-.93-1.27.36-.83,1.11-.84,1.57,0,3.14-.3,4.7-.47,3.47,3.75,3,5.9-1.54,7.1-1.4.37-2.87.52-4.3.78A10.41,10.41,0,0,0,281.05,269.54Z"/><path class="cls-54" d="M341.93,160.4c-1.43-1.08-2.86-2.16-4.27-3.26-.12-.09-.15-.28-.64-1.33,6.62-.13,12.23,2.46,18.05,3.77C350.81,161.71,346.32,160.38,341.93,160.4Z"/><path class="cls-55" d="M234,235.22c0-2.43-.61-4.85,3.42-4.93,3.47-.07,3.94,2.11,4,4.27.06,5.41-3.73,1.27-5.6,2Z"/><path class="cls-56" d="M79.07,261.42c1.85,2.13.59,2.79-1.45,2.94-1.25.09-2.42.07-1.55,1.85a24,24,0,0,1-12.1-1.7Z"/><path class="cls-57" d="M363.68,137.61c4.94,2.47,5.24,3.64,2.35,9C359.54,143.85,358.9,141.4,363.68,137.61Z"/><path class="cls-58" d="M74.05,229.43l0-2c-.27-2.3,1.23-2.82,3-3,4.51-.32,8.45,4.31,6.9,8.09C79.64,226.58,78.85,226.33,74.05,229.43Z"/><path class="cls-59" d="M253,264.35c1.94-2.17,3.92.08,5.88-.05a1.7,1.7,0,0,1,.15,2.32l1,2.71c-.49.88-1.59,1.12-2.08,2l-3.92-1C252.26,268.58,253.21,266.36,253,264.35Z"/><path class="cls-60" d="M363.68,137.61c-3.35,4.08-1.93,6.91,2.35,9l-1,2c-2.8-3-6.17-5.61-5.28-10.59.33-1.87-2.09-2.76-2.79-4.4A10.89,10.89,0,0,1,363.68,137.61Z"/><path class="cls-61" d="M205,244.43a2.13,2.13,0,0,0,1,2c-4.17,2.64-7.16,7.5-13,7,0-.31,0-.62,0-.94a22.93,22.93,0,0,1,2.8-3.57A46.91,46.91,0,0,1,205,244.43Z"/><path class="cls-62" d="M156.05,261.4c1.33.65,2.26,2.08,4,2l6.1,1.1a1.47,1.47,0,0,1-.31.38C158.43,269.44,158.43,269.44,156.05,261.4Z"/><path class="cls-63" d="M68,129.49c-1,7-3.57,13.8-3,21C62.8,143.05,64.26,136.11,68,129.49Z"/><path class="cls-64" d="M258,271.32c-1.27-2.71,1-1.7,2.08-2,4.24,1,8.43,2.18,12.94,2.22-.86,1.28-2.18.52-3.12,1C265.87,272.45,261.85,272.44,258,271.32Z"/><path class="cls-56" d="M77.92,252.35c0-.3.08-.59.13-.89l7.15,2.86c-1.3.26-3.32-.16-2.94,2.09.48,2.85-1.57,2.55-3.16,2.95C79,257,79.5,254.48,77.92,252.35Z"/><path class="cls-65" d="M180.05,231.43l2-.93c2.79,1.8,2.64,3.66-.13,5.18-2,1.12-3.83,3.52-6.68,1.91a4.82,4.82,0,0,0-.5-.27C176.54,235.36,178.29,233.39,180.05,231.43Z"/><path class="cls-63" d="M72.1,116.49a2.11,2.11,0,0,1,2,1c-1.68,3-3.9,5.71-4.07,9.35a2.88,2.88,0,0,1-2,2.62C67.69,124.63,71,120.92,72.1,116.49Z"/><path class="cls-66" d="M174,237.41l-10,4C165.46,235.39,170.38,238,174,237.41Z"/><path class="cls-67" d="M132.26,256.61c-.13-2.7-2.36-5.34-.27-8.13C134.56,251.11,135.18,253.8,132.26,256.61Z"/><path class="cls-39" d="M93.12,101.48c-4.3.32-8.46,0-12-2.81Z"/><path class="cls-68" d="M253,264.35c1.62,1.77.64,4,1,6-5.76-.31-.34-4.3-2-6A5.78,5.78,0,0,0,253,264.35Z"/><path class="cls-66" d="M164,241.4c-.22,2.39,1.18,5.59-3,6C160.6,244.69,162.17,243,164,241.4Z"/><path class="cls-69" d="M84,265.45c1.51-2.66,3.54-2.76,5.91-1.21C88.21,265.77,86.14,265.69,84,265.45Z"/><path class="cls-70" d="M281.05,269.54c1.95,0,3.21.53,1.89,2.79l-5,.12C278.62,271.1,281.09,271.66,281.05,269.54Z"/><path class="cls-71" d="M144,155.47c2.3-5.59,1.54-7.12-4.51-8.51,4.84-3.36,9-7.66,15.54-4.66a2.66,2.66,0,0,0,3.19-.79,1.43,1.43,0,0,0-.17-2.19c-1.31-1-2.82-2.33-4.47-1.41-1.8,1-3.49,1.85-5.6,1.59-1-.13-2.21-.33-2.32-1.46a2,2,0,0,1,2-2.41c2.81.11,4.32-1.3,5.12-3.78.41-1.23.45-2.9,2.17-2.93s2.23,1.67,3.19,2.79c4.74,5.5,9.33,11.2,15.87,14.79h0c-.16,1.87-1.79,3-1,5.71.94,3.35-3.19,1.66-4.63,2.19,4.18-.86,7.81,3.18,12.54,2.68,1.58-.17,3.46,1.42,2,3.83-1.93,1.37-4.13.52-6.51.68a26.64,26.64,0,0,1,5.15.72c1.27.24,2.83.53,2.73,2.28s-1.66,2.08-2.92,2.1c-6.11.12-12.17,1-18.27,1.1-2.61.05-4.93.42-6.53,2.72-4.69,1.42-6.9.14-7.33-4.33-.1-1.1.26-2.27-.63-3.21a11.56,11.56,0,0,1-1-1C146.62,159.7,145.12,157.7,144,155.47Z"/><path class="cls-72" d="M120.08,151.48c-.41-.5-1.25-1.14-1.14-1.45.33-.92,1.35-.4,2.08-.55,1.12-4.39-3.11-5.45-5-8,1.55-4-1.36-6.53-3.61-8.95,1.19-1.35,2.25-1,3.18-1a2.85,2.85,0,0,0,3-2.67c.25-1.54-1-2.5-2.21-2.95-2-.71-4.71-.51-4.3-3.66s1.54-6.39,4.9-7.51c4.21-1.41,8.48-2.56,12.68.77,2.17,1.72,5.18,2,8,2,5,.07,8.8,1.57,9.35,7.34a4.62,4.62,0,0,0,1,2.18c2.58,3.45,2,4.76-2.38,5.45-.66.1-1.33,0-2,.08a2.86,2.86,0,0,0-2.8,1.76c-.55,2,2.39.51,2.51,2.54-1.92,1.2-4.77.31-6.67,2.36,3.73,2.65,1.54,5-.81,7.27-1.95.55-3.83-.61-4.06-2-.6-3.47-4.59-6.34-1.89-10.43a2,2,0,0,0-.74-3c-1.18-.64-2.55-1.14-3.81-.48s-.82,2-.64,3.13c.33,2,.45,4-1,5.65-.9,1-.35,1.59.26,2.51a9.63,9.63,0,0,1,.7,10.27C123,153.28,121.39,153.56,120.08,151.48Z"/><path class="cls-39" d="M116.05,141.5c5.18,1.18,6.61,3.48,5,8,0-.17,0-.44-.08-.48-9.49-4.07-15.57-14.24-27.21-14.73-3.58-.16-7-2.55-10.58-3.88a3.17,3.17,0,0,1-2.05-2.54c-1.2-5.07-2.95-10-3-15.32,3.34,1,4.79,3.09,3.09,6.25-1.54,2.87.31,3,2,2.64,3.17-.78,6.26.44,9.31,0a10.59,10.59,0,0,1,9,2.79c2.29,2,4.58,2.12,5.6-1.46.28-1,.31-2.09,1.67-2,1.2.06,1.56,1.14,1.94,2,1.86,4.29,1.38,8-4.64,11.43C113.06,133.63,112.83,139.36,116.05,141.5Z"/><path class="cls-39" d="M105.05,101.6c5.63,0,11.62-1.64,15.84,4.09,1,1.29,2.78.93,4.25.82a25.12,25.12,0,0,1,12.6,2.17c7.21,3.37,13.82,2.53,20.33-1.55,2-1.23,3.67,0,5,1.11,3,2.66,5.92,2.43,9,.3,0,2.06-.2,4,2.89,4.06,3.42.09,3.21,2.13,1.83,4.42-2.88,4.78-10.28,6.33-13.83,2.83-1.65-1.62-3.36-3.37.46-4.6,1-.31,2.5-.61,1.77-2.33a7.3,7.3,0,0,0-4.07-4.17,2.21,2.21,0,0,0-2.83,1.46c-1.13,2.65-2.11,4.73-5.67,2.51-1.66-1-3.81.1-4.15,2.29-.79,5-3.18,3.09-5.13,1.15-2.42-2.41-5.55-3.55-8.19-5.38-4.18-2.89-8.77-.4-12.84-2.27-2.23-1-4.71-1.39-6-4a3,3,0,0,0-3.76-1.66c-2.05.66-2.06,1.84-1.76,3.81a4.15,4.15,0,0,1-3.78,4.53c-3,.31-1.73-2.54-1.9-4.09A47.85,47.85,0,0,1,105.05,101.6Z"/><path class="cls-73" d="M124,152.5c.59-4.36,2.41-9.06-3.7-11.85,3.29-1.58,4.55-3.89,3.19-7.31-.6-1.5-1.28-3.65.6-4.41,2.36-1,4.91.35,7.12,1.21,1.44.56.85,2.64.39,4.07-1.35,4.18.55,9.54,4.38,12.29,0,.66-1.1,1.34,0,2,2.17,2.49,3.66,5.66,7,7h0c2.88,1,2.86,4.39,5,6q.48,0,1,.06c1.57,4.2,1,5-3.88,5.86a5.22,5.22,0,0,1-3.5-2.5,10.16,10.16,0,0,0-8.85-5.24c-3.6-.2-5.59-3.16-8.15-5.12A1.84,1.84,0,0,1,124,152.5Z"/><path class="cls-72" d="M143,155.5c-5.26.58-6-3.36-7-7C141,148.21,142.11,151.76,143,155.5Z"/><path class="cls-39" d="M73.07,106.54c-4.88.21-5.18-4.16-7-7C70.79,99.49,70.64,104.3,73.07,106.54Z"/><path class="cls-72" d="M148.06,161.46c-3.7-.28-2.56-4.65-5-6l1,0C146.54,156.69,148.08,158.55,148.06,161.46Z"/><path class="cls-39" d="M77.06,111.54c-2.17-1-3-3-4-5C76,106.94,77.16,108.72,77.06,111.54Z"/><path class="cls-74" d="M240,183.47a3,3,0,0,0-2,2.94c-4.35,1.2-8.49-1.2-13-.51-3.68.57-7.64-.23-11.45-.74-1.92-.41-3.85-.78-5.75-1.24-1.64-.39-4.13-.12-4.05-2.59.07-2,2.34-1.88,4.2-2.43-2.89-.37-5.63.43-8-1.05-1.27-1.48-1-3.06-.31-4.66,4.07-9.09,9.13-12.23,19.08-11.9a23.29,23.29,0,0,1-4.14-.8c-3-.57-4.43-1.87-2.13-4.69,1.51-1.85.68-3.6-.18-5.09a12,12,0,0,1-.47-12.27c1.65-3.32,1.16-9.23-.4-13.72-3.52,5.26-7.2,9.77-7.17,16.21,0,2.66,1.06,5.74-1.77,7.83-2.7-1.87-4.54-7.83-3.13-11.75,1.11-3.11,1.69-6.38,3-9.4.65-1.59,2.18-2.63,2.7-4.31,1.87-3.45,5.37-4.88,8.56-6.55,2.43-1.28,3.88-.4,4.28,2.67.91,7-.37,13.92-1.74,20.7-1.12,5.5,1.71,11.55,7.33,13.39.45.48.47-.78.14-.2-.14.25-.22.07-.49-.09-2.11-1.3-1-2,.45-2.63,1.78-.83,3.58.43,5.36-.09,4.83-1.22,9.33,3.42,8.88,9.36a27.47,27.47,0,0,1-1.32,5.25c-.31,1.13-3.17,1.42-1,3.37,1.85,1.7,2.56-.42,3.66-1a2.86,2.86,0,0,1,2.82,0c2.59,4.09.23,7.6-5.51,8.18C242.12,176.1,242.68,177.36,240,183.47Z"/><path class="cls-75" d="M253,152.49c-1.82-.76-3.44-2.21-5.57-2-1.78.22-4.16.27-2.19,3.17.83,1.22,1.3,2.65-.22,3.39-1.7.81-2.93-.65-3.52-2-3-6.73-7-12.61-12.94-17.18-3.2-2.45-3.68-14.49-1.17-17.89a3.74,3.74,0,0,0,.42-2.82c-.36-4.43,2.22-6.67,6.51-5.73,7.55,1.66,7.7,1.89,5.78,8.57,4.91,2.11,9.21-1.38,13.91-1.54,1.72.46,3.4,1,3.12,3.31-1.56,2.2-3.75,1.51-5.89,1.39-4.69-.27-6,1.06-5.53,5.73.33,2.9-.42,5.59-.92,8.35-.19,1.07-1.12,2.48.34,3.09,1.7.71,2.22-.86,2.72-2.1.18-.46.35-.93.57-1.38,2.66-2.85,4.28-1.84,4.94,1.49,1,4.8,1.53,9.69,3.49,14.25a3.4,3.4,0,0,1-.38,1.5C254.29,155.67,254.08,153.13,253,152.49Z"/><path class="cls-76" d="M206,124.53a6.34,6.34,0,0,1-3,3c-1.64,3-1.54,6.61-4.09,9.41-1.47,1.62,0,4.47,0,6.75.08,5.82-2.24,10-7.4,12.41-3.11,1.44-10.49-2.44-13.56-6.73a20.32,20.32,0,0,1-2-2.87,15.6,15.6,0,0,1,1.4-5.14,29.92,29.92,0,0,0,4.26-13.64c.25-2.85,4.3-3.23,7.5-3.31s9.18,1.48,5.12-5.63a1.36,1.36,0,0,1,.83-2c1.23-.42,2.43-.21,2.93,1.07,1.12,2.86,3.62,4.16,6,5.67C205.16,122.9,205.44,124,206,124.53Z"/><path class="cls-77" d="M257,121.52l-3-3c1-1.23,1.48-3.53,4-2,4.22,2.64,5.21,2.21,5.94-2.77.3-2-.33-4.54,3.08-4.25.94,1.76-.83,3.28-.43,5,1.82,2-.15,6.57,4.47,6.7,2.08-1.43.52-4.1,2-5.73,3.15-1.4,6-3.44,10-2.3,1.38.4,4.26-.35,4.9-2.61,2.69-9.52,10.45-9.64,18.11-10,.58,3.31-4,2.54-4.15,5.24a5.62,5.62,0,0,1-1.26,1.61c-4.18,1.87-6.25,5.81-9,9.13-5.8,5.82-5.12,17.91,1.26,22.3,1.1.75,2.24,1.61,3.6,1.51,2.48-.2,5-1,5,3.08,0,1.11,1.49,1,2.48.72a11.69,11.69,0,0,1,5.86-.6,5.87,5.87,0,0,1,1.35.48c2.76,2.85,6.44,4.82,8.29,8.55-1.81,3.13-4.42,1.35-6,.31-6.24-4.15-13.18-1.95-19.76-2.54-3-.26-4.32-.82-5.25-3.79-2.36-7.52-5.75-14.68-8.15-22.2A2.94,2.94,0,0,0,277.9,122c-1.52-.13-1.78,1.21-2.14,2.3-.45,1.33-1.08,2.44-2.69,2.5-3-2.23-6,.66-9,0C265,120.57,259.83,122.6,257,121.52Z"/><path class="cls-78" d="M240,183.47c-.15-.47-.58-1.07-.43-1.38,2.53-5.14,0-6.14-4.46-5.48-1.17.17-2.67.67-2.59-1,.07-1.52,1.78-1,2.85-1.08,5.8-.38,7.46-2.12,6.63-7,1.77.33,3.54.79,2.23,3.15-1.87,3.36-.05,5.63,2.19,7.68,1.79,1.63,3.47,1.64,3.52-1.33.07-4.65,3.1-4.41,5-2.21,3.21,3.7,4.73,1.91,6.66-.84.22-.32.9-.31,1.37-.46,5-.81,9.85-1.18,13.31-6.24,1.17-1.72,4.57-2.45,5.7-5.29.49-1.22,1.91-1.78,3.18-2.25a9.34,9.34,0,0,1,3.93-.32c3.61.4,6.84.45,6.38-4.74a2.57,2.57,0,0,1,2.33-2.81c4.64,0,9.38-2.73,13.92.38,4,2.74,8.94,1.63,13.2,3.29-3.44,7.18-4,7.29-11.22,3.94-5.64-2.6-11.27-1.53-16.36,1.34-2.7,1.51-4.91,3.47-8.33,3.25-5.23-.36-7.48,4.64-10.67,7.26-6.14,5-13.5,6.83-20.28,10.08-2.59,1.24-5.48,1-3.36,5.39,1.17,2.4-1,4.27-3.72,4.72l-2-2C247.29,185.51,245.34,182,240,183.47Z"/><path class="cls-79" d="M285,160.49c-1.37,1.35-3.28,2.28-3.18,4.69,0,.54-.59,1.58-.94,1.59-4,.1-5.66,2.8-7.68,5.68-2.74,3.9-6.8.44-10.21,1-.53-2.08-3-1.55-4-2.95a7.9,7.9,0,0,1,2-3.27,5.58,5.58,0,0,1,2.63.22c3.47-.15,4-2.45,3.66-5.19a35.88,35.88,0,0,0-2.14-7.64c-.77-2.1-1.49-4.38,1.23-5.53,2.55-1.09,4,.79,5.18,2.66a5,5,0,0,1,.86,2.3c-1.17,3.25-2,6.42,1.59,8.82,3.16,2.12,4.9,1.38,6.12-2.79-3.37-.18-7.26.24-7.11-4.91,2-1.2,2-3,1.71-5.06-.28-1.87-1.05-3.75-.2-5.68A2.91,2.91,0,0,1,277,143a34.59,34.59,0,0,1,9.32,13.7C286.86,158.29,286.58,159.63,285,160.49Z"/><path class="cls-1" d="M176,146.49c4-.37,3.66,4.13,6.56,5.67,9.44,5,13.6,3.17,14.71-7.61.22-2.16.92-4.13-.28-6.19a2.92,2.92,0,0,1-.21-1.79c4.32-1.5,3.59-6.44,6.22-9,.54,2.8-.64,5.49-1.69,7.7-2.26,4.77-.46,8.92.68,13.28a5.39,5.39,0,0,1-1.42,1.66c-3.32,4.84-5.49,10.89-12.41,12-1.92.3-4.33,1.71-5.16-1.62,0-1.65-1.62-2.93-2.5-2.56-5.31,2.23-8.94-4-14-2.55-.45.12-1.11-.46-2.36-1,3-1.62,5.73-.17,8.17-1.28.62-2.21-2.6-1.89-2.36-4.17.8-1.08,3.14-.69,4.05-2.4Z"/><path class="cls-80" d="M206,124.53l-2-1c.21-.8.83-1.81.55-2.35-3.08-5.84,1.86-5.38,4.91-6.28a45.67,45.67,0,0,1,4.86-.85c3.84-.68,5.7.37,5.77,4.83a73.91,73.91,0,0,1-3.52,23.78c-.89,2.77,1.86,3.56,3.22,5,1.09,1.14,2.92,1.52,3.85-.09s1.74-2.32,3.48-1.8c2.81.84.41,2.61.73,3.88.1.37.73.6,1.12.89-1.64,2-4.18.22-6,1.44,1.46,1.42,4.07-.52,5.4,2.21-3.54.39-7.73,1.73-9.63-1.32-2.31-3.72-5.82-7.29-3.88-13s3.1-11.85,1.69-18c-.36-1.57.69-2.86.09-4.91C212.3,118.64,208.23,120.2,206,124.53Z"/><path class="cls-81" d="M260.93,167.49c.07,1.48,0,2.88-2,3-5.25-4.93-5.9-11.39-6-18,1.55-.15,2,1.38,3,2C258.53,158.48,260.58,162.66,260.93,167.49Z"/><path class="cls-82" d="M265,114.56c0-1.93,1.31-3.36,2-5h3a6.8,6.8,0,0,1,1,3.95C269.21,115.11,267.25,115.69,265,114.56Z"/><path class="cls-14" d="M124,152.5l1,1c.86.63-1.22,1.2.19,2.26,3.73,2.81,8.38,4.46,10.92,8.86,1.1,1.89,3.68,1,5.51,1.63,1,.35,2.59.34,2.26,2-.23,1.08-1.47,1.24-2.45,1.26-1.32,0-2.64,0-4,0a3.07,3.07,0,0,1,2.55,1c0,1,.17,2.4-.82,2.59-3.1.61-3.6,1.67-1.22,3.9,1.86,1.76-.49,3.66.05,5.49a6.49,6.49,0,0,1-7.55,1.7c-2.51-.93-3.61.22-3.14,2.59.4,2,1.55,4.74-.84,5.08-2.58.36-5.9,1.78-8.28-.78a15.6,15.6,0,0,0-9.66-4.61c-3.17-.45-4.67-3.64-7-4.42-1.81-.6-3.81,3.69-7,3.45-1.48-.11-3,0-4.48,0-1.32,0-2.64.07-4,0s-2.83.55-3.6-.88S83,182.19,84,181.4c.74-.55,1.29-1.5.9-2.12-2.27-3.53-2-8.47-5.83-11A8.32,8.32,0,0,1,75,161.44c-.15-2.14-.83-4.34-3.43-4.83-3.18-.61-1.85,3-3.47,3.88a23.94,23.94,0,0,1-2-9.63,2.45,2.45,0,0,1,1.83-2.62c1.66-.45,1.7,1,2.25,2,5.64,10.21,13.1,19.21,19.41,29a3.78,3.78,0,0,0,5.64,1.21c1.74-1.14,3.37-2.23,1.94-4.75-1.83-3.22,0-4.79,2.93-5,2.68-.25,4.65-1.54,6.69-3a5.27,5.27,0,0,0,2.13-3.24c1.21-5-6.78-15.51-11.88-15.7-1.9-.07-2.39,1.07-3,2.61-1.54,3.81-3.52,4.08-6.94,1.21,3.58-2.26,7.7-4.22,5.26-9.76a1.53,1.53,0,0,1,.88-2c2.21-1.19,10.73,2.52,12,4.74,1.93,3.26,3.09,7.65,7.86,7.93,2.39.14,4.25-2.65,7-1.88Z"/><path class="cls-83" d="M59.16,245.43q-.07-7.47-.14-15c2.25-1.49.59-3.87,1.21-5.86,1.92-6.19,6.35-9.1,11.84-11.17l14-18h2c-.94,2.59-2.83,4.44-4.77,6.27-1.73,1.63-3.59,3.6-3.11,5.94,1.24,6-3.18,6.59-6.87,7.48-4,1-7.81,1.75-9.23,6.3.77,2.35-.71,4.45-.95,6.7-1,9.77,3.43,17.73,7.43,25.92.2,1.19.22,2.42-1.22,2.74a3.49,3.49,0,0,1-4-2.07A41.23,41.23,0,0,0,59.16,245.43Z"/><path class="cls-84" d="M68.06,205.45c.4-2.17,1.27-4.46-2.74-3.4-1.59.41-3.49-.37-5.26-.61,1.78-3.61,4.89-6.6,4.19-11.32-.32-2.18,2-3.52,3.85-4.63,1.19,1.42.17,2.76-.15,4.13-.38,1.7-1.54,4,.25,4.9,2,1,2.66-1.64,3.59-3.05.57-.88.62-2.34,2.26-2C74.32,195.63,75,202,68.06,205.45Z"/><path class="cls-77" d="M74.05,189.45c-1.33,2.18-1.66,4.86-4,6.58-2.45,1.84-3.45,1.2-4-1.5-.69-3.33,1.28-6,2-9C74.2,182.62,74.2,182.62,74.05,189.45Z"/><path class="cls-83" d="M117,210.44c-2.52,1.59-4.46,4.36-8,4-5.93-4.13-6.26-5.77-3-15-4.72-7.13-11.83-3.43-18-4a11.47,11.47,0,0,0,.84-2.31c.25-2-2.66-4.6,1.16-5.77,3.66-1.13,7.38-2,10.9.51,2.94,2.09,5.57,4.78,9.6,4.66.88,0,2,.66,1.82,1.32-2.09,6.07,2.13,9.68,5.14,13.79C118.26,208.67,117.34,209.53,117,210.44Z"/><path class="cls-85" d="M200,148.51h2c1.25-1,1.18-2.41,1-3.67-1.37-7.87,2.64-14,6.46-20.17.6-1,1-2.26,2.52-1.91a2.59,2.59,0,0,1,2,3c-.28,5.38,1.15,10.93-2,16-2.86,4.56,2.56,7.37,2.84,11.37.05.73,1.41,1.44.84,2.55-1.23,2.38-.58,3.81,2.37,4.59a33.51,33.51,0,0,0,4.69.43,21.53,21.53,0,0,1-8.54,1.8c-4.38,0-7.68,1.76-9.41,6.15-1.22,3.09-5.72,4.46-4.72,8.79-2.29,1.36-5.91,1.56-4.7,5.86.24.83-.75,1.78-1.36,2.55-1.3,1.66-2.36,4.25-4.7,3.9-2.53-.37-3-3-3.22-5.31,0-2.8-1.13-4.22-4-2.95-2.48,1.1-4.86,1.61-6.52-1-.78-1.22,3.87-7.9,5.45-8,2.47-.15,5,0,7.43-.17,1.47-.11,3-.63,3.44-2.34a1.79,1.79,0,0,0-.72-2.18,3.27,3.27,0,0,0-3.73.53c-3.09,2.73-6.79,2-10.37,2.11-1.29.92-2.69,1-3.21-.59s1-2.27,2.36-2.47a58.06,58.06,0,0,0,10-2.49C194.27,162.2,196.87,155.22,200,148.51Z"/><path class="cls-86" d="M200,148.51c.25,1.59.4,2.89-.83,4.49-2.46,3.2-5.06,6.42-6.35,10.37a2.58,2.58,0,0,1-2.5,2c-5-.06-9.25,3.43-14.32,3.15-.72,0-1.93.16-1.24,1.32.29.48,1.45.43,2.22.62.38,5-3.92,4-6.5,4.77-2.28.64-4.86.24-7.31.21-2.83,0-4.74,1-5.19,4-3.17-1.75-4.56-6.22-2.22-6.82,3.6-.94-.22-1.57.23-2.18-.2-3,1.4-4.3,4.24-4,6.27.75,12.37-1.8,18.7-.78a4.61,4.61,0,0,0,4.83-1.56c-4-1.06-8-1.24-11.16-4.32l10.38.64c3.91,1.4,9.18-.22,11.31-3.45Q197.16,152.76,200,148.51Z"/><path class="cls-87" d="M186,184.47c1.24,1.35,3.71,1.94,2.64,5.12,2.35-3.14,7.32-4.23,4.64-9.41-.7-1.35.76-2.43,2.23-2.59s3-.09,4.47-.12h11.29c-.94,4.23-4.88,2.13-7.39,4.14,3.7,1.42,7.35.73,10.11,2.84a11.69,11.69,0,0,1-3.08,2.57c-3.29,1.4-6-1-8.88-1.47-1,.58-.42,1.68-.82,2.21-1.22,1.58-2.3,2.38.67,3.67s-1.33,3.5-.29,5.45c-.9,3.05-2.46,5.56-6.09,5-2.41-.38-6-5.55-5.17-7.53s-.8-.31-.78-.77c-1.5.07-2.91-.53-4.4-.51-.9.2-1.38,1-2.15,1.43C179.67,187.94,180.35,185.65,186,184.47Z"/><path class="cls-88" d="M156,170.47l3.16,1.45c-4.38,1.55-4.54,2.7-1.17,7.55.35,1.77,3.09,3.39.88,5.25-1.75,1.48-4.07.92-6.15.08-3.18-1.28-5.93-3.8-9.72-3.33-1.9-.93-2.25-2.45-1.24-4.11,2.05-3.36,2.12-7.25,3.23-10.86,3.45,0,5.09-1.38,4-5,1.29.6,2.31,1.57,1.81,3C149.07,169.67,152,170.48,156,170.47Z"/><path class="cls-89" d="M145,166.5a11.51,11.51,0,0,1-1.75,10.06,3.93,3.93,0,0,0-.24,4.91c-1.09.16-1.63,2-2.91,1.23s-.21-2.13,0-3.12a41.49,41.49,0,0,1,1.6-4.58c.64-1.92.35-3.55-1.68-4.51H132.7c3.08-3.17,6.79-1.14,10.15-2.6-1.48-.27-2.78-1.14-4.55-.64s-2.78-.59-3.65-1.91c-3.3-5-7.67-8.33-13.77-9.23.28-2.6,3.37-.78,4.12-2.6,3.49,2.55,6.58,5.47,11.54,5.45C141.1,158.94,141.54,164.66,145,166.5Z"/><path class="cls-90" d="M183,194.47c0-1.1-.19-2.29,1-3,1.75,1.52,2.93,3.52,4.48,5.22,2.57,2.8,1.38,11-2,13a27.89,27.89,0,0,0-5.53,4.78c-1.77-1.76-.68-4-1-6C182,204,185.33,199.84,183,194.47Z"/><path class="cls-91" d="M285,160.49c1.82-3.05-.3-5.86-1.71-7.65-2.35-3-3.88-6.45-6.3-9.34-2.81-5.31-5.54-10.64-4-17,1.08-.57,2-1.19,1.69-2.68A3.25,3.25,0,0,1,277,120c1.82-.33,3.41,1.07,4.15,3,1.16,2.93,3.22,5.88,3.19,8.82-.05,6.11,6.73,9.61,5.43,16-.18.85,1.34,2.19,2.06,1.59,4.2-3.51,9.31,3.38,13.41-1.34.89-1,1.94.72,2.94,1.12,3.49,1.4,6.45,4.59,10.76,3.35a4.35,4.35,0,0,1,5.94-.12l1.05,2.12-1,1c-3.48.89-7.14.88-10.06-1-5-3.24-10.32-2.08-15.59-1.95-1.78.05-3.27.39-2.84,2.93.73,4.22-1.15,6-5.53,5.51C288.92,160.76,286.94,160.65,285,160.49Z"/><path class="cls-92" d="M244,208.45c.18-1.47.86-2,2.33-1.38a4.58,4.58,0,0,0,4.26-.07c2-1.35,4.26-2.54,6.25-.8s1.11,4.54.72,6.93a6.18,6.18,0,0,1-.55,1.35c-3.67,2.51-5.76,7.2-11,7.69a4.67,4.67,0,0,0-3.18,2.22c-2.39,4.86-6.5,4.33-10.69,3.81-.48-4-.87-8.11-1.48-12.14-.34-2.2-1.9-4.72.48-6.28s5.12-.83,7.36.75C241.52,212.67,243.28,212.14,244,208.45Z"/><path class="cls-93" d="M259,266.62l-.15-2.32c1.12-1.38.91-2.53-.24-3.9-3.14-3.74-3.55-8.33-3.7-13,1-5.55.14-11.67,5.09-15.94l2.8,1.09c-.1,6-1.39,12-.92,18.12.15,2-.11,4,1,5.72,1.6,2.61-.27,4.74-1,7C261.23,264.71,260.82,266.31,259,266.62Z"/><path class="cls-47" d="M211,186.39c.18-2,1.63-1.92,3.05-1.93,2.54-2.32,4.64.75,7.17.65,5.59-.24,11.4-1.35,16.82,1.3,1.79.21,3.22,1.08,3.54,2.87.22,1.16-1.13,1.6-2,1.81-1.76.42-3.64,2.16-5.39,0-2.25-2.76-5.29-3.65-8.67-4-1.23-.12-2.38-1.16-3.64-.13,2.89,1.79-3.35,4.56.67,6.26a7.65,7.65,0,0,1,1.52,1.19l-.49.52a3.67,3.67,0,0,1-4.85-1.16c-2.15-3.12-5-3.32-8.26-2.59a4,4,0,0,1-1.37-.26C205.38,187.63,210.84,188.12,211,186.39Z"/><path class="cls-47" d="M224,194.43c1.34.38,2.61,1.19.42,1.84-2,.59-4.27.19-6.41.23l-.06-.06c1-3.6,4.36-.11,6-1.94Z"/><path class="cls-94" d="M175.29,237.59c2.78,0,4.49-2.32,6.85-3.27,2.89-1.17-.7-2.53,0-3.82.29,0,.59-.07.88-.12a9.37,9.37,0,0,1,1.3-.85c2.25-.61,4.49-1.3,6.88-.87a17.87,17.87,0,0,1,2.36.73c2.13.86,4.73,1.46,4.07,4.61-.7,3.32-3.3,3.74-6.15,3.5-1.8-.16-3.58-.79-5.4-.29-1.32.37-2.56,1-2.6,2.58s1.2,1.85,2.3,2.19c2.52.77,5.21,1,7.56,2.28,2,1.07,4.46,2.07,2.79,5.18a3.12,3.12,0,0,1-3.09,3.05c-2.71-2.85-6.49-3-10-3.85-6.05-1.4-7.56-3-8.07-9.24Z"/><path class="cls-95" d="M106.06,199.45c.2.25.62.55.57.73-1.28,5.12-2.15,10.16,2.44,14.27-6,4-5.22,10-5,16-12.91.07-10.84,1.19-11-11,1.16.52,2.28.81,2.78-.81.3-1,.44-2-.49-2.74a2,2,0,0,0-2.67.52c-2,2-4.61,3.31-6.52,1.14-2.27-2.58-5.74-5.25-4.76-9.3.82-3.33,2.4-6.78,6.63-7.24C94,200.36,99.9,198.37,106.06,199.45Z"/><path class="cls-96" d="M70.07,254.44a38.07,38.07,0,0,1-7.86-29.54c.16-1.21,1.22-2.3,1.87-3.45,2.41-.33,4.41-1.77,6.84-2.33,5.14-1.2,6.19,1.11,6.14,5.3l-3,3c-.49-.43-1-.85-1.47-1.29-1.35-1.23,1-5.89-3.39-4.08-2.46,1-5.7,1.83-3.64,6.75,1.12,2.68.65,6.94.54,10.5-.09,2.84,3.09,4.5,6,3.13q.06,5.46.1,10.91l-.15.12C71.49,254.08,71.18,255.07,70.07,254.44Z"/><path class="cls-97" d="M324.87,152.37l-5.94.12c-3-2.36-6.19-4.46-8-8l.31-.63c4.11-2.77,5.06-2.66,7.43,1.12.71,1.12,1.08,2.44,2.71,2.47-7.54-8.34-7-11.59,2.5-13.92,1.37-.43,2.73-1.21,4.14-.14,4.2,2.84,1.4,6.79,1.17,10.06a21.57,21.57,0,0,1-1.22,6Z"/><path class="cls-98" d="M328,133.44l-4,1.05c-3.59-.62-3.21-2.9-2.29-5.42,2.14-2.85-.47-7.22,3-9.64a2,2,0,0,1,1.39,0,11.12,11.12,0,0,0,7,4.79c1,1.26,2.06,2.47,2,4.21-1.21,1-2.1,2.34-4,2.18S328.06,131.47,328,133.44Z"/><path class="cls-99" d="M335.08,128.39c-1.23-1-2.88-1.84-2.34-3.93.11-1.44.07-3,2.13-3,3.6-.93,4.24,2.41,6,4.14.24,4.08-2.87,2.69-4.92,3A2.19,2.19,0,0,0,335.08,128.39Z"/><path class="cls-100" d="M300.94,105.53c-.81-4.15,4.5-2.15,5-5l3-.06c3.25.05,6.51-.09,9.73.22a4.86,4.86,0,0,1,4.26,2.85c-2.08.9,0,3.86-2.29,4.65-2.7.46-5.16,1.35-6.88-2.37-1-2.21-4.16-2.11-6.71-1.75C304.94,104.38,303.15,105.83,300.94,105.53Z"/><path class="cls-101" d="M265,114.56c2-.43,3.89-1.38,6-1.07l1,1a11.36,11.36,0,0,1-.06,8c-2.7,1.75-4.31.63-4.77-2.14A21.26,21.26,0,0,0,265,114.56Z"/><path class="cls-82" d="M271.92,122.51l.06-8,1,1C273.59,118,274.08,120.44,271.92,122.51Z"/><path class="cls-102" d="M191,229.46l-7,.94c-.93-5-.95-10.18-3-15,0-.33,0-.66,0-1-.49-3.54,2.53-4.37,4.65-5.67,2.86-1.75,4.29-3.54,1.63-6.54s.69-2.46,2-3.23c-2.37-2.14-5-4-5.27-7.53,3.43,1.19,7.41.16,10.75,2.25-1.05,2.71-3.33-.44-4.2,1.52,6.39,7.34,6.39,7.34,10.41,1.21.17,0,.44-.14.47-.09,3.19,5.19,8.19,5.59,13.52,5.09.26,1.79-.73,3.07-1.65,4.45-2.92,4.42-4,9.53-5.33,14.53,0,.33,0,.65,0,1a4.43,4.43,0,0,1-3.15,1.25c-1.49,0-3.2.06-3.91-1.51-.88-1.93.93-2.49,2.14-3.26a16.87,16.87,0,0,0,1.86-1.62c1.71-1.48,3.21-3.56-.19-4.1-4.14-.67-8.36-1.85-13.4-1,3.38,2.55,7.73,1.73,9.94,5,.74,2.2-.31,3.06-2.37,3.09a9.83,9.83,0,0,1-2.87-.62c-2.32-.68-4.94-2.13-6.76.42-2.22,3.12,3,2.8,2.8,5.15-1.93,1.15-.76,2.15.16,3.16A1.76,1.76,0,0,1,191,229.46Z"/><path class="cls-65" d="M181,215.44c3.8,4.43,4.2,9.53,3,15l-1,0A33.48,33.48,0,0,1,181,215.44Z"/><path class="cls-103" d="M334.87,121.42c-1.21.66-.5,2.67-2.13,3-3.84.58-6.35-.69-6.76-4.87a2.18,2.18,0,0,1,2-2l7,.9C336.1,119.5,334.5,120.41,334.87,121.42Z"/><path class="cls-100" d="M328,117.56l-2,2-.07-.08c-3.17-2.34-2.54-6-3-9.18a12,12,0,0,1-.11-3,4.26,4.26,0,0,1,1.16-2.79c1.82.79,2.14,2.35,2,4.07A17,17,0,0,0,328,117.56Z"/><path class="cls-97" d="M323.92,104.54v3a2.11,2.11,0,0,1-3,0c-.21-3-.21-3,2-4Z"/><path class="cls-25" d="M70.07,254.44l1.92-1c.58,3.73-1.52,5-4.75,4.9a33.53,33.53,0,0,1-5.17-1l-3-4.06c0-2.65.09-5.29.14-7.93,4.33,1,5.21,4.89,6.88,8.17C66.93,255.34,67.92,258.11,70.07,254.44Z"/><path class="cls-104" d="M191,229.46l1-2a3.68,3.68,0,0,1,3.63-1c3,2.41,6.59-.71,9.67,1,.42.75.7,1.69.18,2.31-2.15,2.53-1.88,4.9,0,7.42.5.66.12,1.57-.49,2.22v5c-2,3.45-5.64,3.87-8.91,5,.12-3.67-3-3.95-5.34-4.85a21.56,21.56,0,0,0-5.31-1.13c-2.24-.24-4.19-1.2-4.17-3.43,0-2.53,2-4.05,4.52-4.53,1.83-.36,3.58.36,5.37.71,2.08.42,4.44.8,5.39-2,1.12-3.33-2.1-2.59-3.45-3.58A17.26,17.26,0,0,0,191,229.46Z"/><path class="cls-105" d="M205,239.41c-.16-.79-.05-2-.52-2.29-3.8-2.54-3.76-4.85,0-7.38.47-.32.35-1.51.5-2.3-1.63-3.82-4.32-4.34-7.83-2.6a4.88,4.88,0,0,1-4.66.12l-.49-.52a15.21,15.21,0,0,1-2.09-1.18c-1.28-1-4.22-1.54-3.14-3.53s2.81-4.7,6.22-3.41c1.7.65,3.47,1.1,5.19,1.7,1.56.55,2.61.3,2.8-1.56a3.46,3.46,0,0,1,5.05,0c-.61,2.29-2.76,2.86-5.24,4,2.75,1.55,5.05.77,7.2,1,0,4.91-.07,9.81,0,14.71C208,238.29,207.46,239.64,205,239.41Z"/><path class="cls-106" d="M215,201.46c-7.92,2.8-9.06,2.39-14-5-1.52-1.71-1.52-1.71,1.19-3.45a7.56,7.56,0,0,0-5.55-2.93c2.54-.66,4.5-1,3.26-4.48-.87-2.47,1.6-2.38,3.14-1.43a13.27,13.27,0,0,0,7.93,2.22c2.75.85,1.14,1.56-.15,2-1.09.36-2.86-.14-1.8,2,.22,2.56,2.72,1.69,4,2.66-.83-1.09-3.33-.2-3.07-2.58,3.67-1.72,7-1.9,9.22,2.25,1.06,2,3,1.69,4.77,1.75-1.53,2.06-4.42-.08-6,1.94C213.05,195.77,214.21,198.73,215,201.46Z"/><path class="cls-86" d="M173.08,164.28,162,163.19l.05-1.39c3.72-.36,7.38.86,11.07,1.27Z"/><path class="cls-107" d="M272,154.51a12.22,12.22,0,0,0-1.08-1.64c-1.21-1.34-1.7-4.26-4.32-3-2.88,1.43-.32,3.36.11,5,.69,2.71,1.72,5.35,2.19,8.08.67,3.9-2.11,6.32-5.9,5.44-3.91-4.27-4.62-10-6.94-15-2.88-4.76-3.17-10.19-4-15.47-.53-3.37-1.85-1.55-3.09-.57-2.44.44-3.27-1.19-3.59-3.07-.29-1.66.77-2.8,2.21-3.53a22.89,22.89,0,0,0,2.67-1.33c5.28-3.62,6.81-3.09,8.41,3.43a10.57,10.57,0,0,0,3.13,5.45c1.92,1.84,3.36,3.12,5.18-.2.94-1.73,2.75-1.61,4.25-.21,1.14,2.25,3.31,3.91,3.76,6.56s.4,5.24,1.21,7.65c1.22,3.62-.93,3.36-3.18,3.3C272.07,155.73,271.7,155.45,272,154.51Z"/><path class="cls-2" d="M271,138.51c-2.42-1.36-3.6-.59-4,2.1-.56,3.36-2,2.36-4,.87-3.75-2.84-5.7-6.66-6.75-11-.87-3.62-2.21-3.91-4.11-.74a3.41,3.41,0,0,1-2.06,1.82c-5.18,1.68-5.26,2.29-1.11,5.91.35,2.42-.19,4.45-2.93,4.86-2.53.38-4.48-.09-3.15-3.49,1.38-3.55,2.19-7.06,1.29-11-1-4.29,2.35-7,7.14-5.9,2.07.46,3.86.78,5.71-.34.78-.21,1.55-.47,2.34-.63,2.07-.42,4.42-1.18,5.92.77,1.35,1.77-.84,3.21-1.27,4.85C269.07,129.12,271.82,133.84,271,138.51Z"/><path class="cls-2" d="M256,153.47c3.61,4.4,4.25,10.18,6.94,15l-2-1c-2.2-4.12-4.25-8.3-5-13Z"/><path class="cls-108" d="M291,115.54c2.45-3.55,4.7-7.3,9-9,.83.89,1.85.25,2.78.32a1.63,1.63,0,0,1,1.5,1c-1.94,4.21-5.08,7.64-7.43,11.6-2.72,4.58-3,4.42,1.89,6.09.47.16.93.33,1.39.52,5.22,2.19,5.8,4.66,2.21,9.42-1.53.58-2.33-.53-3.14-1.45-1.64-1.84-.8.74-1.4.77a6.29,6.29,0,0,1-2.74-.06c.75.83,3-.87,3,1.64-5.82,2.59-8.93,1-9.77-5A24.05,24.05,0,0,1,291,115.54Z"/><path class="cls-109" d="M291,115.54c.23,5.33-3.19,10.16-1.63,15.84,1.48,5.38,2.79,6.37,8.58,4.08-.33-.2-.45-.4-.33-.61s.22-.3.34-.3c.35-.67-2.63-1.49,0-2,2.23-.42,2.66,2,4,3,1.83,1,2.68,3,4.37,4.15,1.57,1.33,5,1.23,3.65,4.81-2,0-4-.2-5.82.91-1.36.84-2.61,1.16-4-.2-1.55-1.51-.49-2.67.2-4-4.72,1.37-10.46-1.31-12.84-6S287.1,118.8,291,115.54Z"/><path class="cls-82" d="M271,138.51c-1-4.77-3.75-8.53-7-12a24,24,0,0,1,4.84-1.88c1.57-.25,3.76-.84,4.16,1.89q2,8.49,4,17l-2,1C273.15,142.82,270.86,141.45,271,138.51Z"/><path class="cls-110" d="M301.94,107.53c-1.55,1.51-1.79.32-2-1l1-1c4.51-3.57,11.09-4.52,13-1s4.28,2.88,7,3h3c0,1,0,2,0,3-5.05-.32-10.32,1.64-15-2.32C307.25,106.83,304.36,106.75,301.94,107.53Z"/><path class="cls-97" d="M309.94,144.49c.14-3.57-3.65-2.26-5-4,1.29-1.75,2.44-4.61,5.12-2.85,2.39,1.56,2.68,4.27.89,6.83l-.07.07Z"/><path class="cls-111" d="M272,154.51c.33.33.67.65,1,1,1.61,2.86,3.62,4.59,7.14,2.91,1.49-.72,3.16-.16,1.9,1.55s-.42,5.31-3.9,5.52a7.66,7.66,0,0,1-7.4-4.07C269.43,159.11,269,156.33,272,154.51Z"/><path class="cls-112" d="M254.08,210.61c-.35,4.11-3.93,5.68-6,8.32-.43.56-1.8-.35-1.77-1.1.11-2.31-2.43-4.84-.05-6.83a15.22,15.22,0,0,1,6.12-2.95C254.68,207.53,253.45,209.85,254.08,210.61Z"/><path class="cls-113" d="M209.94,190.5c1.77,1.71,4.85,1.08,6.38,3.51-2.35.91-4.32-.4-6.36-.78-1.22-.22-2.64-1.2-1-2.81A2.88,2.88,0,0,0,209.94,190.5Z"/><path class="cls-110" d="M311,144.47a18.93,18.93,0,0,0-.08-2.92c-.49-2.64-1-5.36-4.13-1.63-.34.41-1.19.39-1.8.57-.76-1.81-3.06-2.67-3-5,2.57-6.14,1-8.67-5.92-9.42-3.34-.36-4.29-2.37-2-5,3.72-4.24,5.6-9.78,9.91-13.54,3.87-.84,2.68,1.7,2.21,3.48s-2.24,2.88-2.12,5.89c4.09-2.4,8.4-2.1,12.38-3.64,4.82-1.86,7.32-.08,6.44,5-.67,3.83,1.86,7.49.06,11.22-2.24,2.2-.34,3.53,1,5-1.84,2.12-7.1-.36-6.67,4.12a10.27,10.27,0,0,0,6.11,8.21c.52.25.85.89,2.17,2.32-4-.66-7.13,1.07-8.23-4.17C316.43,140.65,313.18,144.39,311,144.47Z"/><path class="cls-97" d="M322.92,129.51c.62-4.67-2.34-8.9-1.24-13.82.65-2.88-3.06-2.78-4.21-1.65-3.61,3.56-9.65,0-12.7,4.73-.46.71-1.44-.39-1.95-1a2.85,2.85,0,0,1-.38-3.64c.82-1.23,1.91-2.27,2.74-3.48,1.07-1.55,1-2.8-1.23-3.13h-2c3.38-1.81,6.53-2.34,9.66.75,1.61,1.6,3.48,2.61,6,.65,2.3-1.79,4,1.63,6.31,1.59.73,3,.56,6.16,2,9-2,.93-1.92,2.7-2,4.52S324.66,127.94,322.92,129.51Z"/><path class="cls-114" d="M206,216.48l-5.05,0c-2.87-1.79-6.15-2.35-9.37-3.06-1.44-.32-2.61-1-2.34-2.63s1.73-1.37,2.84-1.29c4.6.33,9.21.63,13.79,1.19a3.35,3.35,0,0,1,2.91,3C209,215.57,207.71,216.3,206,216.48Z"/><path class="cls-105" d="M196,227.43l-4,0-4.8-2.07c1.76-1.43,3.37-.74,4.79-.94C193.16,225.67,196.09,224.53,196,227.43Z"/><path class="cls-102" d="M196,227.43l-4-3a11,11,0,0,0,5.51-1.27c4.34-2.51,7.31-.6,7.47,4.27C202,227.37,199,231.39,196,227.43Z"/><path class="cls-115" d="M297.91,134.55a4.61,4.61,0,0,1,0,.91c-1.77-.09-3.56-.07-5.3-.32a1.41,1.41,0,0,1-1.2-1.8,1.31,1.31,0,0,1,2.06-.44C294.83,133.81,296.16,134.73,297.91,134.55Z"/></svg>