<svg id="Layer_1" data-name="Layer 1" xmlns="http://www.w3.org/2000/svg" viewBox="0 0 400 275"><defs><style>.cls-1{fill:#daba7e;}.cls-2{fill:#e0c490;}.cls-3{fill:#ecd7a4;}.cls-4{fill:#e5cd9a;}.cls-5{fill:#e2ca99;}.cls-6{fill:#dec18d;}.cls-7{fill:#c9aa74;}.cls-8{fill:#dcbd86;}.cls-9{fill:#d5b47b;}.cls-10{fill:#e5ce9d;}.cls-11{fill:#d0aa6f;}.cls-12{fill:#e5ca9a;}.cls-13{fill:#d4b482;}.cls-14{fill:#e0d1ac;}.cls-15{fill:#ceb281;}.cls-16{fill:#bf9b5f;}.cls-17{fill:#c4ac7c;}.cls-18{fill:#aa7c44;}.cls-19{fill:#cfb079;}.cls-20{fill:#cebb98;}.cls-21{fill:#ceb386;}.cls-22{fill:#e7d8b8;}.cls-23{fill:#cbaa72;}.cls-24{fill:#e1c899;}.cls-25{fill:#d6b988;}.cls-26{fill:#b59761;}.cls-27{fill:#e1c493;}.cls-28{fill:#d1b482;}.cls-29{fill:#e1c99c;}.cls-30{fill:#d5b481;}.cls-31{fill:#c0a174;}.cls-32{fill:#b3905a;}.cls-33{fill:#dcc7a0;}.cls-34{fill:#bfa16f;}.cls-35{fill:#e1caa0;}.cls-36{fill:#dec8a0;}.cls-37{fill:#cfac71;}.cls-38{fill:#dac59b;}.cls-39{fill:#af905e;}.cls-40{fill:#dbc297;}.cls-41{fill:#bfa376;}.cls-42{fill:#b79b6e;}.cls-43{fill:#946d40;}.cls-44{fill:#dacebc;}.cls-45{fill:#dacbb0;}.cls-46{fill:#a7865a;}.cls-47{fill:#e3d7c3;}.cls-48{fill:#baa479;}.cls-49{fill:#c4a77b;}.cls-50{fill:#bfa16c;}.cls-51{fill:#44372a;}.cls-52{fill:#a28960;}.cls-53{fill:#c4af88;}.cls-54{fill:#6c5134;}.cls-55{fill:#d1ba8a;}.cls-56{fill:#c1a97d;}.cls-57{fill:#aa9674;}.cls-58{fill:#d3b888;}.cls-59{fill:#ebe2d1;}.cls-60{fill:#d5ae6f;}.cls-61{fill:#e3c58b;}.cls-62{fill:#e2c387;}.cls-63{fill:#ddbd84;}.cls-64{fill:#caa464;}.cls-65{fill:#d8b578;}.cls-66{fill:#c7a66b;}.cls-67{fill:#ceb380;}.cls-68{fill:#d8b880;}.cls-69{fill:#c6a874;}.cls-70{fill:#c1a46d;}.cls-71{fill:#d3b37a;}.cls-72{fill:#e3c790;}.cls-73{fill:#bc9c61;}.cls-74{fill:#c09f66;}.cls-75{fill:#aa8952;}.cls-76{fill:#cea96d;}.cls-77{fill:#d6b376;}.cls-78{fill:#dbbb87;}.cls-79{fill:#99835e;}.cls-80{fill:#cdac77;}.cls-81{fill:#462a14;}.cls-82{fill:#c5aa7c;}.cls-83{fill:#cbac79;}.cls-84{fill:#dcc092;}.cls-85{fill:#b89e78;}.cls-86{fill:#a4895d;}.cls-87{fill:#cba86d;}.cls-88{fill:#c1965c;}.cls-89{fill:#c0975e;}.cls-90{fill:#a18053;}.cls-91{fill:#d2b589;}.cls-92{fill:#a87a42;}.cls-93{fill:#b48950;}.cls-94{fill:#998157;}.cls-95{fill:#cca365;}.cls-96{fill:#d7b579;}.cls-97{fill:#94703a;}.cls-98{fill:#dfbf85;}.cls-99{fill:#af8f59;}.cls-100{fill:#c5a369;}.cls-101{fill:#a28146;}.cls-102{fill:#825f39;}.cls-103{fill:#b89b69;}.cls-104{fill:#b58546;}.cls-105{fill:#bf9454;}.cls-106{fill:#ae844a;}.cls-107{fill:#a4753b;}.cls-108{fill:#8e5c1f;}</style></defs><path class="cls-1" d="M149,103.58c10.69-.81,21.19,1,31.46,3.29a82.17,82.17,0,0,0,30.41.91c-3.75,5-8.82,5.69-14.51,4.57-7.34-1.44-14.79-2.06-22.2-3-1-.12-2-.27-2.84,1.12,2.22,2.47,4.35,5.09,2.87,9-.54,1.43,1.35,1.92,2.38,1.66,7.93-2,10.35,2.64,11.41,9.12a3.46,3.46,0,0,0,1.48,1.95c4.33,2.05,8.34,3.88,6.93,10.3a8.82,8.82,0,0,0,2.4,7.7c1.58,1.48,1.15,3.37.65,5.15-.59,2.12-.52,4.14,1.55,5.28,6.62,3.67,13.55,6.32,21.33,5.62.95-.08,3.18,0,1.89-1.57-.92-1.08,1-3.72-2.1-3.4-3.41.34-4.88-1.2-2.86-4.45.91-1.46.34-1.69-.82-2.53-3.3-2.39-3.41-4.81-.61-7.6,1.09-1.09,2.38-2.08,1.92-3.77-1-3.82,1.29-6.27,3.34-8.87,2.77-.74,3.91.51,3.21,3.09-2.1,7.81-1.82,15.12,2.74,22.23,2.81,4.37,1,9.14-.68,13.62-2.07,5.25-6.14,6.54-11.3,5.73-.82-.13-2-.07-2.32-.69-2.47-4.85-7.68-4.83-11.78-6.59a40.37,40.37,0,0,0-15.33-2.94,19.77,19.77,0,0,1-7.83-1c-.76-.21-1.67-.51-1.68-1.52s1-1.26,1.7-1.5a18.64,18.64,0,0,1,5.42-.44c3.39-.2,2.48-4.24,4.75-5.39-.61-1.62-1.15.23-1.71,0A3.53,3.53,0,0,1,187,159c-4.13-1-8.53-1.3-10.38-6.27-1.36-3.63-1.47-3.69,3.11-3.65-1.92-1.78-4.06-1.75-6.32-1.59-2.88.21-4.1-.89-4.8-4.14A21.38,21.38,0,0,0,159,130.08c-3.71-2.43-4.72,2.41-7.18,3.53-1.71.78-.5,2.54.61,3.7s2.44,2.68,1.4,4.37c-1.31,2.09-3.32,3.23-6,2.33-2-1.56-4.41-1.11-6.69-1.33a44,44,0,0,1-5.34-1.1,5.43,5.43,0,0,1-4.16-4.49c-.47-2.31,1.81-2.35,3.22-3,1.1-.51,1.82-1.4,3-3.14-3.38,1.72-6.35,1.83-9.32,2s-5,1.51-4.74,5c.39,4.74-.71,9.59,3.39,13.74,2,2,.82,5.67.24,8.6-2.16,1-4.42-.15-6.61.33a3.82,3.82,0,0,1-3-1.7c-.41-1.62.82-2,1.91-2.36,1.5-.54,2.35-1.29,1.29-2.92-1-1.23-2.56-1.44-3.92-2a3.47,3.47,0,0,1-1.64-1.21c-.52-2.45-.11-5-3.35-6.54-2-1-1.5-3.9,1-5.15,2.73-1.36,1.93-2.83.07-3.94-2.57-1.53-4-3.76-5.22-6.38-1.42-3.05-3.69-5.09-7.48-4.31-6.27,1.28-12.08.54-17.36-3.47A16.05,16.05,0,0,0,76,117.46c-1.25-.75-2.71-1.09-4-1.85-3.59-3.11-7.91-5.33-11.08-9,2-1.79,3.63-.36,5.27.74,5.11,3.4,10.51,6.12,16.64,7.15a7.91,7.91,0,0,1,4.09,1.67c4,3.76,8.37,3,12.84,1.17,5.8-3,11.79-3.3,18.28-2.57,4.84.55,10,.49,14.33-3.64,2.7-2.6,6.94-.54,10.47-1,4.36-.5,8.74-1.4,13.34-.66-.49-2.62-2.34-3-4-3.62C150.93,105.44,149,105.84,149,103.58Z"/><path class="cls-2" d="M228,172.5c-.22-1.82-1-3.26.87-5.27,2.34-2.44-.18-6.38-1.37-8.06-5-7.07-4.61-14.31-2.32-21.81.81-2.65-.18-2.86-2.17-2.83a1.43,1.43,0,0,1-1.94-1c-.4-1.31.73-1.63,1.58-2.09,2.62-.64,3.9-3,5.81-4.54,2.87-2.34,4.38-2.07,5.63,1.23,2.9,7.62,3.83,15.72,5.43,23.64a16.84,16.84,0,0,0,1.86,5.55c1.73,2.86,4,3.47,6.53,1.07,1.35-1.25,2.83-2.33,4.15-3.59,5.7-5.44,12.35-5.07,17.12,1.27a6.23,6.23,0,0,0,5.15,2.86c3.24.3,7,.93,8.15,5.12,2.49,4.36.89,10.87,7,13.31,3.12,3.13,3,3.53-1.59,7.21,1.74,1.15,3.41-1,5.1-.07-1.09,8.1-4,16.36,2.14,23.82l-.58.4c-5.21-2.62-8-7.95-7.22-14.39-3.11,1.13-6.18,2-8.86-.62a1.55,1.55,0,0,0-1.89-.07c-2.83,2.08-6.47,2.64-9.21,4.84-.87.69-2.1,1.46-1.58,2.81.4,1.07,1.66.87,2.61,1,1.32.17,2.67.22,3.51,1.44-.07,1.84-2.23,1.54-3,2.84a8.63,8.63,0,0,1,3.14.26c2.54,3.09-.56,4.36-2,6.17-3.13,1-5.8,3.1-9.12,3.61a7.12,7.12,0,0,1-3-.3c-2.76-1.54-1.83-3.53-.54-5.42,1.12-1.64,1.14-2.95-.39-4.34-4.72-4.3-2.4-9.7,3.29-12s5.59-2.4,8.6-8.17c-1.61-1.25-3.73-1-5.51-1.86-6.4-3.13-7.63-2.81-11.71,3.07-1.49,2.14-2.83,4.21-5.87,3.6-3.82-.77-5.17,1.45-5.49,4.64-.43,4.37-2.88,6.49-7.09,6.91a27.94,27.94,0,0,1-11.19-1.87c-1.5-3.32.45-4.41,3.22-5,1.86.52,3.13,2.41,5.32,2.24,2-.16,4.17-.35,4.64-2.74.51-2.58-2.37-1.61-3.33-2.74,5.27-5.82,4.68-13.8,7.5-20.53.66-1.59,1.53-3.74-.18-5.09-1.92-1.52-3.67,0-5.59,1.33,1.53,1.64,5,1.35,4.73,4.27a5.81,5.81,0,0,1-4.12,5.09,2.6,2.6,0,0,1-1.33-1.4c-.85-1.81-2.56-.79-3.86-1.15S227,174,228,172.5Z"/><path class="cls-3" d="M72,115.61a5.79,5.79,0,0,1,4,1c2.64,1.7,5,3.75,7.5,5.65,2.68,2.06,3.65,5,3.45,8.33a16.35,16.35,0,0,1-1.91,4.59c-2.91,5.58-2.6,8.66,2.16,12.62,3.27,2.71,2.81,6.1,3.11,9.6,1.51-1.83,1.14-4,1-6.08-.25-3.12,1.26-4.66,4.37-4.7,7.72-.08,10.9,2.38,12,9.94.41,2.72,1.5,4.16,4.1,4.83a6.32,6.32,0,0,1,4.79,4.63c.49,1.79,1,3.64-.32,5.25-1.52,1.89-3-.49-4.55-.28-.39,1.8.41,2.53,2.09,2.46,4.15-.17,7.28,2,10.13,4.61s3,6-.22,8.49c-1.63,1.27-2.82,1.92-1.26,4.1a2.75,2.75,0,0,1-.65,4c-1.35.89-2.63,0-3.53-1-1.89-2.11-3.45-2.11-5.21.2-1,1.3-2.32,1-3.44-.09-1.58-2.9-3.61-5.56-4.45-8.85-.28-1.08-.84-2.37-2.27-2.3s-1.53,1.48-1.71,2.61c-1.41,9.21-8.39,13-15.93,16.1a5.14,5.14,0,0,1-6-1.19c-1.48-1.68-.53-3.46.08-5.16a57.09,57.09,0,0,0,1.89-5.67c.72-3.1,2.09-5.52,5.39-6.54,2.34-.72,3.34-2.47,1.92-4.61-2.69-4-4.09-8.7-6.33-12.94-.67-1.26-1.54-3-3.37-2.22-1.54.63-1,2.21-.8,3.53.36,2.47.21,4.69-3,5,0-9.94,2.23-19.67,2.86-29.54.23-3.57,2.78-5.52,4.43-8.08,2.25-3.52,2.16-7.67-1.25-9.85C77.45,121.73,75,118.46,72,115.61Z"/><path class="cls-4" d="M110,193.48c1.49.78,2.47.49,3-1.25,1.1-3.87,3-2.57,5-.72,1.06,1,1.68,3.72,3.59,2,1.39-1.28-.09-3-1.29-4.27a12.69,12.69,0,0,1-1.17-1.67c2.81-1,6-1.69,5.82-5.27s-3.21-5-6.1-6.12c-2-.79-3.64-3-6.35-.92-1,.74-2.36-1-2.35-2.46s-.93-3.59.73-4.6c1.34-.81,1.79,1,2.46,1.81.52.67,1.13,1.44,2,.88a2.16,2.16,0,0,0,.64-1.72c-.26-2.66-.51-6-3.68-6.27-5.66-.41-5.74-4.22-6.24-8.18-.55-4.36-8.31-8.67-12.27-6.87a2.31,2.31,0,0,0-1.37,3.27c1,2.35.48,4.53-.27,6.77-.39,1.15.13,3.11-1.83,2.85-1.58-.2-1.88-2.4-1.65-3.26,1.36-5.19-1.22-8-5-11.09-3.12-2.56-2.07-6.69-.69-10.15a54,54,0,0,1,3.08-5.69c3.13.28,2.63,2.11,1.87,4.18-2.44,6.69-1.87,7.87,5,7.41,5.7-.38,10.42,3,15.91,3.11,1.31,0,2.32,1.36,2.79,2.61.78,2.13,2.62,2.24,4.35,2.68l2,0c-.63,4.53,3.28.12,4,2,5.06,6.23-2.66,4-4,5.95-.44.51-1.91.07-1.45,1.37a2.09,2.09,0,0,0,2.23,1.58c1.06-.14,1.47-1.24,2.19-1.88,2,.13,4.4-1.86,6,.93a5.09,5.09,0,0,1,2.72,1.78A5.17,5.17,0,0,1,130.8,164c.73,4.07,2.57,7.2,7,8.16,1.44.14,2.93.08,4.17,1-.59,4.71-4.71,3-7.31,4-.34.36-1,.24-1.23.76a2.94,2.94,0,0,1,1.27-.67c1.29.57,1.39,2.48,2.66,2.77,4,.91,3.33,3.75,3,6.53.14.92-.41,2,.86,2.9,2.73-2.64,4.12-8.18,9.81-5.29a1.15,1.15,0,0,1,0,1.29c-6.3.17-6.68,4.93-6.84,9.36-.26,7.09-2.71,13-8.11,17.62-1.7-3.35-2.15-7.15-4.18-10.45-1.25-2-.1-3.53,2.82-2.64-.36-1.63-1.66-2.72-2-4.91-.77,4.61-2.78,8.35-1,12.45.38.86-.4,1.94-1.39,2.4-1.37.65-2.25-.21-2.88-1.22a43,43,0,0,0-2.59-4.08,34.5,34.5,0,0,1,3.35,7.63c.88,2.9-.4,3.78-3.08,2.86-2.34-.8-4.9-1.45-5.18-4.62-.06-.68-.36-1.47-1-1.67-4.41-1.45-4.43-4.82-3.53-8.66-2.13.69-4.33,4.45-5.51-.58-.21-.89-1.28.33-1.9.64-.89.44-2.22,1.42-2.7.71-3.19-4.72-5.69-.56-8.24.62-3.12,1.44-6.07,2.73-9.26.36.15-1.94,1.9-2.33,3.16-2.7,5.63-1.65,9-5.18,10-11,.29-1.74.8-3.43,2.8-3.55,2.26-.14,2.36,1.91,2.71,3.47C107,190,109.09,191.38,110,193.48Z"/><path class="cls-5" d="M151,185.53l0-1c2-.93,3.91-.11,5.87.06,2.07.76,3.35-.5,4.77-1.7,6.76-5.74,13.16-6.17,20.71-1.54,6.81,2.43,13.41,3.47,19.22-2.41a5,5,0,0,1,5.14-1c5.19,1.57,10.54,2.64,15.47,5a7.14,7.14,0,0,0,9.59-2.77c.61-1,1.07-2.08,2.2-2.61.84-1,1.64-2.05,2.52-3,2.07-2.27,1.27-3.44-1.44-4-1.35-.26-3.47.68-3.77-1.33s2-2.29,3.4-3c1.8-.93,3.56-2.61,5.84-.65,2,1.74.9,3.52.54,5.42-1.05,5.5-4.28,10.42-3.47,16.5.37,2.81-4,3-5.62,5-.78,3.17-3.13,4-6,4a4.15,4.15,0,0,0-4,4c-3.2,1.53-6.51-.05-9.75.37-5.67-.43-11.15-1.44-16.21-4.3-3.94-2.23-8.42-3-12.75-4.21-2.57-.7-5-.34-6.77,1.89-1.55,1.95-3.31,2.7-5.62,1.35l-2.82-1.17a55.87,55.87,0,0,0-8-4C158,187.05,153.3,188.47,151,185.53Z"/><path class="cls-6" d="M88,201.48c5.52,1.42,9.36-2.52,13.74-4.5,3.51-1.59,4.51-.87,3.62,3.15l5.76-4.34c1.16,1.75-1.06,3.38.34,4.9,2.38-.13,2.2-3.1,4-3.82,4.17,2.09-3.61,8.4,3.88,10,2.92.62,2.17,7.86,8.21,6.76-1.37-2.45-1.4-5.58-3.71-7.92-1.3-1.31-1.5-3.48.15-4.35,2.67-1.41,1.48,1.63,2.24,2.5.32.37.45,1,.83,1.22,1.38.87.29,4.6,3,3.33,2-.93.17-2.83-.65-4.22a2.92,2.92,0,0,1,0-3.32c2.2-2.71,2.27-5.59,1.08-8.83,3.22,2.63,5.74,5.49,5.64,9.9-1.64,0-1.62-2.32-4.07-1.91,1.53,4.18,5.39,7.68,3.9,12.5-.87,6.48-4.26,11.78-8,16.93-2,1.24-4,.89-6,.16a2,2,0,0,1-.47-1.95c.77-1.38,2.81-2.93-.5-3.75-1.3-.14-2.61.46-3.91-.05a2.24,2.24,0,0,1-.83-1c.57-5.43.57-5.43-3.84-9.11-.33-.93.48-1.9-.19-3-3.89,1.71-5.7,5.54-8.51,8.31-.84.94-.83,2.88-2.84,2.46,0-.33.18-.74,0-1-2.52-4.24-1.89-7.71,2.07-10.83,1.31-1,.23-2-1.23-2.15-2.31-.18-4.75-.39-6.73,1-5.12,3.56-11.45,3.65-16.94,6.1-2.77.72-3-1.25-1.86-2.53C79.87,208.17,82.3,202.94,88,201.48Z"/><path class="cls-7" d="M300,215.42c7.11,7.94,16.31,14,21.33,23.87,1.42,2.81,4.36,4.85,6.6,7.25,1.84,2.49,0,4.41-1.14,6.29-1.86,3-3.9,5.54-1.69,9.48,1.31,2.34-1.15,4.44-3.88,3.66a9.68,9.68,0,0,1-3.73-2.41c-4.13-3.77-7.94-8-14-8.75-1.32-.17-2.11-1.51-3-2.5-3.05-4.49-7.72-7.26-11.56-10.9-1.48-1.41-3.54-2.78-1.9-5.37a3.59,3.59,0,0,1,2.77-.44c2.53.83,2.74,3.59,4.33,5.19.82.83,2.05,1.76,3,.74s-.34-2-1.08-2.8-2.05-1-3.07-1.57c-1.78-.91-1.31-2-.21-3.13a5.16,5.16,0,0,1,2-.73c2.15-.22,4.18-1,6.32-1.3,4.83-.62,4.89-1,2.66-5.47-1.8-3.6-5.58-6.35-5-11A.91.91,0,0,1,300,215.42Z"/><path class="cls-8" d="M57.83,194.35c3.8-2.26,8-4.11,9.28-9,.37-1.37,1.1-2.8,3-2.83,1.43-.84,2.71-2.19,4.64-1.38,1.45,2.16-.77,2.8-1.69,3.93s-1.71,2.07-.92,3.51a1.65,1.65,0,0,0,2.1.8,3.62,3.62,0,0,0,2.36-2.93c.5-2.17-.93-3.74-1.74-5.51,4-2.28,5.93-1.56,6.38,2.59.75,6.93-4,11.22-7.89,15.86-1.58,1.9-3.89,3.08-5.64,4.85-3.43,3.47-3,6.2,1.41,8.52,1.86,1,4.85.57,5,3.8-3.35,3.64-8.45,4.64-12,8-1.7-.37-.12-4-2.76-3.06-1.93.69-2.15,2.75-1.8,4.69.14.81.39,1.61.57,2.41a2.88,2.88,0,0,1-2.06,1.84,58.22,58.22,0,0,1-8.86.51c-3.65-.1-5.5-1.79-5.55-5.47,0-2.31-.33-4.61-.44-6.92L53,197.41c1.59.33,2.25,1.86,3.49,2.64,2.17,1.36,4.45,2.3,7,1.21,1.62-.7,3.9-1.35,3.73-3.42-.19-2.42-2.66-1.86-4.36-2.11S59.16,196.06,57.83,194.35Z"/><path class="cls-9" d="M189,133.54c-2.93-.84-2.61-3.47-3-5.61-.67-4-1.88-7-6.92-5.44-1.22.37-2.64,0-4,.06-3.19,0-4-1.65-2.35-4,1.88-2.69.83-4.23-1.36-5.71-1.17-.8-3.27-1.35-2.6-3s2.78-2.32,4.67-2.08c5.38.67,10.73,1.52,16.1,2.23a66.22,66.22,0,0,1,8.89,1.57c4.77,1.31,8.41-2,12.4-3.7,7-2.44,13.75.32,20.48,1.16,8.38,1,15.91-1.07,23.58-3.44l.75.1c2.19.81,3.66,2,2.17,4.54a10.66,10.66,0,0,1-7.25,2.55c-9.77-2-19.45.34-29.14.94-3.68.23-7.89,1.62-8.76,6.71-.39,2.27-2.58,2.36-4.45,2.06-3.12-.51-6.29-.39-9.41-.78a10,10,0,0,0-4.9.45c-2.81,1.09-4.85,2.38-2.49,5.79C193.57,130.91,192.41,132.78,189,133.54Z"/><path class="cls-10" d="M74.11,216.54c-2.5-2.92-7.21-1.82-9.51-5.73-1.52-2.59-1.65-4,.48-5.89,1.86-1.64,3.67-3.32,5.58-4.92,4.81-4,8.94-8.68,9.37-15.44.26-4.08-1.37-5.22-5-3.07h0l-5,1c.53-.59.94-1.48,1.6-1.74,4.18-1.63,5.92-3.95,2.75-8.07-.13-.15.36-.79.57-1.2,1.73-1.62,3.17-3.08,1.38-5.8-1.14-1.74.12-3.57,1.81-4.6,1.91-1.17,2.95,0,4,1.6,3.45,5.23,4.83,11.48,8.53,16.62,1.15,1.6.19,3.8-2.11,4.11-4.45.59-5.73,3.68-6.52,7.39-.3,1.45-.93,2.83-1.34,4.26s-2.35,2.91-.78,4.49a4.68,4.68,0,0,0,5.61.49c6.73-3.8,14.94-6.49,14.11-16.76-.12-1.49,1.2-2.3,2.55-2.64a2.27,2.27,0,0,1,2.93,1.22c1.67,3.85,3.27,7.74,4.9,11.61a7.61,7.61,0,0,1-4.29-6.27,2.33,2.33,0,0,0-1.69-2.24,1.46,1.46,0,0,0-1.75,1.38c-.27,8.87-6,12.52-13.6,14.41-.26.07-.44.47-.67.72-3.32,3.16-6.72,6.25-9.9,9.55-.83.86-3.11,2.43.05,3.53A3.8,3.8,0,0,1,74.11,216.54Z"/><path class="cls-11" d="M100,118.55c-4.57,1.91-8.57,2.62-13.3-.85s-11.12-3.38-16.45-6.06c-3.17-1.6-5.18-5.4-9.37-5-3.4-2.34-6.81-4.66-10.18-7-1.36-.95-1.64-2.32-1.45-4,.27-2.44.85-5,.31-7.35-1.14-4.89,2-6.85,5.42-7.19,9.6-1,18.74-4.43,28.39-4.9,1.44-.08,3.07-.93,4,.76.8,1.41-.39,2.49-1,3.62C83.73,85.56,78.6,87,73.92,89c-1.77.76-4.12.79-4,3.61-.84,1.22-2,1.88-3.4,1.24s-1-1.93-.61-3c.48-1.36-.51-2.57-.18-4.53C63.6,88,60.93,88.67,63.5,92c1.79,2.31-.67,3.13-2.17,3.92-2.77,1.45-2.68,2.84-.43,4.81,4.49,4,10.58,5.42,14.85,9.78,1.43,1.45,3.46.26,5.17-.36a3,3,0,0,1,1.38.15c2.62,2.84,6.47,3.8,9.48,6.07,2.5,1.89,3.64-1.39,5.59-1.75a7.63,7.63,0,0,1,5.26.38C104.07,117.84,100.73,117.24,100,118.55Z"/><path class="cls-12" d="M234,201.48c3.46-.48,5-2.21,5.15-6,.17-4.21,1.82-7.6,7.27-5.39a2.36,2.36,0,0,0,3.44-1.79c.73-2.8,3.22-4.11,4.9-6.11,1.84-2.18,4-2.17,6.2-.69,2.65,1.8,5.27,3.37,8.68,3,1.21-.13,2.86.53,1.54,1.92-3,3.17-4,7.93-9.58,9.2-7.33,1.69-7.94,5.9-2.2,11,1.86,1.65,1.19,2.61-.06,4s-3.69,2.43-1.33,4.8a13.39,13.39,0,0,0,4.53,3.7c6.43,3,9.21,9.56,14.07,14.09a1.78,1.78,0,0,1,.33,2.25c-6.74-6.29-16-9.65-21-17.92a8.36,8.36,0,0,1-1.07-2.78c-1.38-9.42-3.65-9.85-14.65-11C238,203.55,235.05,204.84,234,201.48Z"/><path class="cls-13" d="M300.94,251.43c.77.84,1.6,2.46,2.31,2.41,7.57-.51,10.86,6,16,9.47,1.44,1,2.64,3.1,4.62,1.39s-.24-2.84-1.11-4c-1.58-2.16,0-3.73.92-5.4,1.61-2.82,4.4-5.06,4.25-8.74a12.49,12.49,0,0,1,6.07,3.75c2,1.54,4.07,2.76,4.34,6,.35,4.27,2.22,4.74,5.75,2,2.1-1.61,6.93-.12,9.94,3.08.13,3.57-2.09,5.14-5.15,6-1.74.52-3,1.94-4.76,2.45-3-2.53-5.18-.91-7.17,1.51-5.1,2.55-9.45-.56-14-1.84-7-7.29-17.1-10.45-23.84-18.07A1.24,1.24,0,0,1,300.94,251.43Z"/><path class="cls-14" d="M234,201.48c4.4,2.16,9.27.63,13.88,1.84s7.4,3.94,7.34,9a36.71,36.71,0,0,0,.69,5.28c-2.38-1.62-2.5-4.78-4.78-6.64-4.78-3.89-10.43-3.22-15.35,2.24-1.5-.52-3.08-.65-4.61-1.06-7-.44-14-.16-20.36-4.47-2.4-1.64-5.05.27-6.22,3.05-.51,1.19-.42,2.61-1.26,3.71a1,1,0,0,1-1.38.07l-2-3c-.8-4.55,2.8-5.91,5.72-7.5,2.33-1.28,4.92-2.05,6.32-4.55,3.37-.06,6.75-.17,10,1Z"/><path class="cls-15" d="M100,118.55l3-3c.51-2.79,2.9-1.93,4.62-2.36,4-1,8.6-.14,11.93-4.25-3.06-2.22-7.12.3-9.69-2.46,8-.9,16-2.31,24-2.54,5-.14,10.1-2.08,15.18-.35,2.27,1.92,6.1.07,7.86,3.34.61,1.13,2,2.13,1.33,3.49-.72,1.56-2.14,1-3.47.59-4.91-1.35-9.69,1-14.62.7-1.64-.09-3.33,1.19-5-.37a1.22,1.22,0,0,0-2.07.33c-3.14,6.54-9.75,4.8-14.35,4.48C112.1,115.7,106,115.56,100,118.55Z"/><path class="cls-16" d="M81.06,110.59c-1.55,2.56-4.46,2.94-5.88,1.19-3.83-4.71-10.1-5.44-14.19-9.56-1.35-1.36-3.92-1.88-3.74-4.21.2-2.66,2.81-2.86,4.8-3.56a6.09,6.09,0,0,0,1.22-.8c-3.77-3.75-3.55-5.86.77-7.53,1-.38,2.06-1.09,3.09,0-2.7,1.77,2.91,2.61.48,4.44-.69.52-1.88,1.41-.92,2.39s2.11-.54,3.25-.33c5,5,12,7.21,17.24,11.89-2.06,2.1-4.87,1.53-7.35,1.9C79.16,108.24,81.17,109.09,81.06,110.59Z"/><path class="cls-17" d="M41.2,218.5c2.74.58,1.78,2.8,1.83,4.43.19,6.53.14,6.46,6.85,6.55,2.06,0,4.33-.8,6.17.9-1.17,2.16-2.33,4.35-4.94,5.12-8.16.88-6.51,7.74-7.36,12.72a71.67,71.67,0,0,0-1.17,9.26c-.18,4.17-1.6,4.35-4.28,1.65-2.56-4.65-2.72-9.74-2.68-14.85,0-3.3.12-6.51-2.32-9.29-1.63-1.87-1.27-4,.68-5.66C37.45,226.43,36.25,220.42,41.2,218.5Z"/><path class="cls-18" d="M359,116.46l8.18,3.89c1.76,3.23,4,6,3.34,10.38-.61,4.17-1.58,5.51-5.67,3.75,2.94,1.05,4.77,2.17,1.53,4.83a10.52,10.52,0,0,1-3.85.59c-8.83-.05-9.42-.73-10.19-9.27-.38-4.15,0-8.65-3.47-11.95-.67-2.32,1.45-3.14,2.47-4.55C355.15,110.88,356.43,115.83,359,116.46Z"/><path class="cls-19" d="M117,223.48l4-1c2,1.32,2.51,3,1,5,0,.65,0,1.31.07,2l-.54.46c-1.76.53-3.62.11-5.4.6-3.55,1-7.12,2-7.08-3.87a1.84,1.84,0,0,0-2.46-1.77c-1.9.44-2.62,1.78-2.5,4.41,2-2.38,3.9-2.34,3.89.53,0,5.35.17,10.79-2.14,15.86-2.55-1.8-4-4.78-6.92-6.27a4.17,4.17,0,0,1-1.9-4.36c.92-4.63.57-9.65,3.92-13.58.68-1,1.35-2,2-3a7,7,0,0,0,4.86-3.65c1.31-2.1,2.86-3,5.13-1.35,7.26,1,5.48,5.57,4,10-.38.61-1.17.73-1.63,1.31C116.33,224.82,116.56,224,117,223.48Z"/><path class="cls-20" d="M293,184.5c-1,.6-1.9,1.52-3,1.71-1.64.31-4,1.23-4.72-1s1.45-2.34,3.07-2.84c2.54-.79,4.1-2,.57-3.88,3.53-6.58,6.29-13.66,12.24-18.65a3.48,3.48,0,0,1,3.05-1.37c4.79.79,7.52-1.88,10.24-5.29,3.23-4,6.87-6.72,12.73-3.78,3.47,1.73,7.4.33,10.57-2.18,3.75-.84,4-.69,4.15,2.3-6,2.38-12.6,3.83-17.73,7.41-5.63,3.93-11.4,4.82-17.74,5.92-3.57.62-6.32,5.19-8.16,8.7C296.15,175.64,293.44,179.66,293,184.5Z"/><path class="cls-21" d="M204.86,243.31l.16-5.87c1.83-6.91,6-9.92,13.73-9.79.61.27-.16-.64-.36,0,0,.14-.17,0-.48-.07a2.14,2.14,0,0,1-1.27-1.4c.35-2.08,1.59-3.51,3.64-2.73,2.37.91,4.86,2.2,4.26,5.58-.54,1.16-1.74,1.43-2.75,1.91-2.39,1.13-1.76,2.63-.59,4.23a2,2,0,0,1-.9,1c-2.33,1-6.07-.17-6.78,3.06-1,4.25-2.26,8.74-.39,13.11,1.32,3.08,4.9,2.36,7.21,3.85,1.49,1.64,2.88,3.32,2.08,5.79-4.21,3.3-8.28,1.76-12.33-.38-1-2.33,1.64-1.61,2.25-2.55-1.87-.48-3.86.25-5.68-.67C202.55,253.77,203,248.62,204.86,243.31Z"/><path class="cls-22" d="M212,199.48c1.3,3.79-2,4.05-4,4.79-3.74,1.37-6.77,3.26-8,7.26-1.4-1.15-.68-2.79-1-4.2-.61-2.91-2-5-5.07-6.12-4.88-1.77-9.67-3.3-15-2.75-3,.32-6-.07-8-2.89,1.48-.33,3.26.45,4.17-1.73,1.51-3.63,4.89-4,7.93-3.08,4.85,1.45,10,2.15,14.41,4.93S206.94,198.9,212,199.48Z"/><path class="cls-23" d="M117,261.43c-4.22-4.19-11.12-6.3-10.87-14,2.55-.15,2.55,2.72,4.32,3.65,1.2-5.21-1.73-11.3,3-15.6a9.28,9.28,0,0,1,8.84-2.16c2.43,5.94,3.23,11.94.35,18-.81,1.69-.07,3.2.08,4.81C123.08,260.27,121.14,262,117,261.43Z"/><path class="cls-24" d="M210,260.37c3.85,2,7.76,3.1,12,1.07,1.89-2,7.19-2.22,3.76-7.06a1,1,0,0,1,.59-1.07c3.63,2.17,6,6.22,10.47,7.12-.59,3.06-2.66,5.56-3.25,8.62-1.23,1.35-3.24,1.27-4.53,2.5a12.39,12.39,0,0,1-9.14,0,1.11,1.11,0,0,1,1.2-.55c-.27-.28-.62-.14-.9-.13-3.54.13-6.74-2.4-10.39-1.31-3.4-.86-2.63-3.69-2.85-6.06-1.17-2.13.13-3.26,1.73-4.27C209.54,259.11,210.11,259.34,210,260.37Z"/><path class="cls-25" d="M117,261.43c4.54-1,5.5-2.71,3.88-6.69-.3-.74-.91-1.92-.63-2.23,5.35-6,1.85-12.67,1.73-19.08-1.23-1.33-.94-2.66,0-4l.1,0a9.05,9.05,0,0,1,6,0c.16.95.76,2.14.4,2.82-2.86,5.43-.49,9.86,2.47,14.23,2.19,3.49,5.5,5.66,9,7.67,1,.57,3.61.61,1.55,2.93-3.73,1.16-7.55.81-11.3.34-2.91-.37-4.85.37-5.8,3.21a11.29,11.29,0,0,1-3.4,4.85A12.59,12.59,0,0,1,117,261.43Z"/><path class="cls-26" d="M122,229.45c0,1.33,0,2.65,0,4a28.08,28.08,0,0,1-2.8,1c-6.58,1.62-7.16,2.35-7.17,9.13v11.52c-3.21-2.09-3.85-5.39-5.88-7.59l-.27-1.82c.39-5.71.77-11.42,1.18-17.46-1.63,1.14-.73,4.35-2.88,3.65-1.91-.61-1.84-3.27-1.63-5.09.33-2.78,2.82-3.82,5.09-3.84,2.71,0,3.57,2.56,3.1,4.64-.71,3.13.3,3,2.67,2.29C116.2,229,119.07,228.08,122,229.45Z"/><path class="cls-27" d="M153,260.35a21.55,21.55,0,0,1,3.7,1.17c2.09,1.09,5.22,1.11,4.45,5.1s-3.36,3.8-6.21,3.71a6.81,6.81,0,0,1-2.45-4.37c-1.15,3.78-3.45,5-6.41,5.25l-6.2-.09c-1.87-1.74-4.8.23-6.59-1.85-1.36-2.16-3-4.27-1.55-7,4.16-1.41,8.76-1.74,12.09-5.1C146.23,260.18,149.8,259.78,153,260.35Z"/><path class="cls-28" d="M300.94,251.43l-1.89,0c-6.36-6.71-14.84-10.48-22.14-15.89-5.65-5.5-9.05-13.37-17.19-16.28-1.71-.62-1.8-2.21-1.74-3.76h3c3.92,2.23,8.8,2.62,11.88,6.61,1.06,1.38,3.4.89,5.2,1.08s3.78,0,4.38,2.33c-1.07,1.63-1.53,3.26.06,4.87a4.38,4.38,0,0,1-.11,1.3c-.41,2.35,1.49,2.83,3,3.65a3.19,3.19,0,0,1,1.59,1.13c.51,3.32,3.19,5.3,5.53,6.72C296.05,245.34,298.14,248.68,300.94,251.43Z"/><path class="cls-29" d="M34,229.33c-.8,1.73-1.52,4,.26,5,3.66,2,2.86,5.11,2.8,8.1-.12,5.45,0,10.85,2,16,.09,4.22-1.08,5.22-4.5,3.8a6.34,6.34,0,0,1-4-5.17c3.8-4.62,3.8-4.64-.48-7.62C27.25,241.48,28.88,233.17,34,229.33Z"/><path class="cls-30" d="M326,84.57c5.81,2.77,12.22,4.4,17.12,8.92-2.54,1.65-5.15.19-7.72.15a7.5,7.5,0,0,1-3.31-1.9c-2.85-2-5.73-2.37-9.31-1.58-4.48,1-9,1.64-13.44,3-3.36,1.07-5.81,2.6-7.42,5.93-1.1,2.28-2.11,5.58-6,4.58-.35-6.57,2.67-12,8.37-14.22,1.93-.74,2.75-2.29,4.08-3.47s3.12-1.26,4.84-1.29c2.54,2.15,4.56-.61,6.87-.74C322,84.42,324.05,83.57,326,84.57Z"/><path class="cls-31" d="M334.92,92.58a26.09,26.09,0,0,1,8.15.91c4.85,4.09,9,8.7,10.32,15.14.72,3.59,3.53,5.4,5.65,7.83-2.73.82-3.76-4.39-6.94-1.94a2.6,2.6,0,0,1-1.06-.91c-2.07-3-.21-7.83-4.75-10.33-.21,2.1,2.87,4.13-.13,5.63-2.66-.79-5.49.08-8.14-.86-2.34-2.13-1.56-5.06-1.92-7.7a20.3,20.3,0,0,0-.94-5.19C334.84,94.32,334.36,93.49,334.92,92.58Z"/><path class="cls-32" d="M81.06,110.59a16.76,16.76,0,0,1-2.8-2.71c-1.15-1.79-.75-3.66,1.64-3,2.61.69,4.85-.73,7.28-.34l1.9.88c4,1.78,8.19,1.74,12.43,1.74,1.49,0,3.54-.82,4.11,1.55.44,1.83-.66,3.19-2,4.27s-2.55,2.14-4.35,2.1c-6.27,2.36-11.13-.63-15.85-4.18a2.73,2.73,0,0,0-1.44-.3Z"/><path class="cls-33" d="M217,226.43l3.09,1.77c-7.49.2-12.18,3.41-15,9.24-.61-2.26-1.37-4.51-1.1-6.91-.93-5.33-.55-10.73-.92-16.08-.31-3.43-.05-6.4,3.69-8.22,3.18-1.55,5.07,0,7.5,1.62a16.51,16.51,0,0,0,10.7,2.72c2.31-.16,4.94-1,7.07.93-2,1.81-4.43,1.29-6.75,1.44-2.46-.23-4.93,0-7.39-.18-1.7-.12-3.08-1.19-4.65-1.66-4.06-1.22-6.25.56-5.76,4.7.34,2.9,1.62,5.58,0,8.68-.82,1.61,1.24,2.4,2.84,2.49,1.87.1,3.57-.79,5.38-1A1.86,1.86,0,0,1,217,226.43Z"/><path class="cls-34" d="M98,114.54a3.87,3.87,0,0,0,3.44-1.43c1.24-1.38,4-2.06,3.14-4.39-.75-2.1-3.18-1-4.85-1.06-3.7-.18-7.48.17-10.69-2.28a72.59,72.59,0,0,0,20.8,1.09c3.12,0,6.24.06,9.36.11,1,0,2.06-.06,2.48,1.1s-.32,1.84-1,2.61c-3.48,4.21-8.64,3.24-13.14,4.23-1.54.34-3.33-.49-4.61,1H97C96.79,114.63,97,114.17,98,114.54Z"/><path class="cls-35" d="M326,84.57h-7a16.79,16.79,0,0,1-5,1c-1.69.22-3.59-.64-5,1-4.73,3.2-10.1,5.56-13.43,10.56a3.76,3.76,0,0,1-2.56,1.44c-8,1.07-15.41,4.64-23.46,5.35a28.32,28.32,0,0,0-6.21,1.67c-2.74.88-5.47,1.32-8.24.15l-.07-.22a146.23,146.23,0,0,1,34.14-9.82c3.42-.5,6-2.13,8.66-4.3C306,84.73,315,80.29,326,84.57Z"/><path class="cls-36" d="M31.06,256.43c0,1.67,1.09,2.67,2.18,3.64,2.77,2.47,5.11,3.25,5.81-1.64,1.07.48,2.54,3.63,2.93-.43.47-4.92,1.22-9.78,1.17-14.77-.07-8.16-1.83-7.89,8-7.73C46.74,243,42.86,250.75,43,259.79c0,1.58-.33,3.26-2.12,3.44-3.05.31-6.62,1.49-9-1-1.87-2-3.65-4.77-2-8C30.9,254.59,31.5,255.23,31.06,256.43Z"/><path class="cls-37" d="M57.83,194.35c2.65.08,5.31,0,7.94.28a3.92,3.92,0,0,1,3.48,2.47c.71,1.92-1,2.69-2,3.55C62,204.91,56.45,203.6,53,197.41,53.85,195.21,56.28,195.47,57.83,194.35Z"/><path class="cls-38" d="M341.93,149.53c-.72-2.83-2.25-2.38-4-1-2.2,1.09-3.56.92-2.92-2,.35-1.57,1.16-3,1.12-4.69a5.07,5.07,0,0,1,.34-1.34,5.32,5.32,0,0,1,2-1.89,6.66,6.66,0,0,1,1.93-.81c4.28.77,8.22,2.05,9.29,7,.39,1.8,1.56,2.32,3.09,2.57a5,5,0,0,1,2,.77,1,1,0,0,1,.34.81q0,.45-.15.45Z"/><path class="cls-39" d="M225,211.49h7c1.32.43,3.4-.81,3.79,1.7-2.15,2.35-2.79,5.4-3.82,8.26-7.72,2.21-11.45-.55-10-7.44C222.51,212.66,223.9,212.27,225,211.49Z"/><path class="cls-40" d="M354,261.38c-1.81-1.12-3.6-2.24-5.9-2.11-1.21.06-2.58-1.56-3.61-.17s1.42,2.11.88,3.94c-4.29-1.42-9.65-1.37-8.51-8.43.36-2.19-2.57-2.44-2.89-4.32,5.27,2.21,10.58,4.35,15.82,6.65C351.75,257.8,353.59,259,354,261.38Z"/><path class="cls-41" d="M227,238.46l-3.14,12c-.29,1.59-.92,2.88-2.83,2.66a4.57,4.57,0,0,1-3.82-3.39c-1.38-3.86,1.68-11.23,5.52-13.4C224.73,235.89,225.9,237.13,227,238.46Z"/><path class="cls-42" d="M223,213.47c-1.08,4.05-1.1,7.34,4.59,7.13a19.31,19.31,0,0,1,4.36.85,50.75,50.75,0,0,1-2.8,11.05c-2,.66-3.52.23-4.41-1.79,1.74-5.16-1.7-7.46-5.31-9.74-1.84-1.16-3.95-2.54-2.41-5.12C218.27,213.72,219.94,211.6,223,213.47Z"/><path class="cls-43" d="M366.92,138.52c1.08-3-.44-3.21-2.65-2.32-.82.33-1.56,1.73-2.13,0-.35-1.07.47-1.83,1.42-2.33,1.85-1,3.48.83,5.09.49,2-5-.22-9.42-1.43-14l3.93,2.06c1.79,4.44,3,9.1,4.8,13.54C373.3,138.07,370.86,140.93,366.92,138.52Z"/><path class="cls-21" d="M223,236.45c-4.11,2.3-3.53,6.85-4.88,10.44-.72,1.93.2,3.89,2.15,5.07s2.57-.66,3.63-1.51l2.45,2.86-.42.15c-1.22,1.7-2.67,2.93-5,2.47a7.22,7.22,0,0,1-1.27-.73c-2.43-2.06-6.74-2.24-6.39-7,.41-5.62,1.07-10.87,7.65-12.67l.06-.05a1.32,1.32,0,0,1,1.73.39Z"/><path class="cls-23" d="M132.06,262.45c-.47,2.64,1.79,4.48,2,6.92-2.8,2-6.65,1.62-8-.37-2.24-3.3-2.76,0-4,.23-1.38-1-.7-2.5-1.09-3.74-.57-2.19,1.9-3.16,2-5.07A10.43,10.43,0,0,1,132.06,262.45Z"/><path class="cls-44" d="M344,269.46c1.52-.92,2.77-2.46,4.84-2.11-4.08,4.78-10.12,5.68-15.56,7.75-.65.25-2,.13-2.27-.31-2-2.9-5.69-3.18-8.14-5.32,5,.9,9.9,2.15,15,.93A13.05,13.05,0,0,1,344,269.46Z"/><path class="cls-45" d="M209,259.54c-.69,1.32-2.11,2.26-2,4-6-6.55-6.79-14.74-2.07-20.2.64,5.12-1.38,10.79,3.14,15.1A1.17,1.17,0,0,1,209,259.54Z"/><path class="cls-46" d="M366.92,138.52c3.58.85,5.85-2.23,8.9-3a1.26,1.26,0,0,1,1.2,1.09,6.37,6.37,0,0,1-2.4,5.79c-3.65,1.57-7.27.73-10.9-.1-1.5-1-2-2.22-.82-3.8Z"/><path class="cls-47" d="M153,260.35c-3.38.18-6.95.93-9.13-2.8-1.14.5-2,.46-2-1.1-4.18-1.52-7.43-4.34-10.58-7.36a2,2,0,0,1-.4-2.6c3.84,2.69,8.33,4.29,11.7,7.83A19.48,19.48,0,0,0,153,260.35Z"/><path class="cls-48" d="M58.11,228.54c-3.27-.75-2.07-3.4-2-5.26.18-3.19,3.13-3.29,5.32-4.3,1.08,1.92.38,3.77.63,5.52A10.27,10.27,0,0,1,58.11,228.54Z"/><path class="cls-49" d="M364.91,141.59l9.71.86c-2.12,3.14-5.41,4.66-8.65,6.23l-.65-.29a1.84,1.84,0,0,1-.61-1.86c.68-.43,1.36-.83,2.09-.11-.5-.85-1.46-.2-2.1-.62C362.93,144.3,363.55,142.93,364.91,141.59Z"/><path class="cls-50" d="M122.06,269.23l2.67-5.46c.7,6.44,5.3,5.54,9.34,5.6,1.82,1,5-2.46,5.85,1.75l-1.94,0c-4.32-.78-8.73.36-13-.65C123.87,270.33,122.68,270.41,122.06,269.23Z"/><path class="cls-51" d="M375.78,125.58c5,2,4.65,5.22,2.18,9a6,6,0,0,1-5.31-4.88A3.28,3.28,0,0,1,375.78,125.58Z"/><path class="cls-52" d="M225,230.44l4.15,2.06a5.81,5.81,0,0,1-2.12,6c-1.74.13-2.64-1.44-4-2l0,0c-1.1-2.42-2.59-4.92,1.22-6.41Z"/><path class="cls-53" d="M233,268.39a41.62,41.62,0,0,1,3.81-8l3,5c-.88,2.71-2.24,4.86-5.55,4.57C233.39,270,232.75,269.46,233,268.39Z"/><path class="cls-54" d="M375.78,125.58c-4.73,4.32-1.31,6.66,2.18,9-.32.7-.63,1.39-.94,2.09l-1.2-1.09c-4.4-3.38-4-8.45-4.67-13.16C372.38,123.92,375,123.39,375.78,125.58Z"/><path class="cls-55" d="M31.06,256.43c-.41-.74-.81-1.49-1.21-2.23.06-1.59.13-3.18.2-4.76,2.91-1.41,4.23.58,4.68,2.74C35.27,254.74,34.07,256.56,31.06,256.43Z"/><path class="cls-56" d="M146.12,271.21c2.57-1.4,5.74-2.37,4.7-6.82a7.52,7.52,0,0,1,4.16,5.94A18.28,18.28,0,0,1,146.12,271.21Z"/><path class="cls-57" d="M233,268.39c4.3,3.74,4.23-2.73,6.84-2.93,1.26,2.73.1,4.28-2.52,5a24.82,24.82,0,0,1-8.3,1.08A5,5,0,0,1,233,268.39Z"/><path class="cls-57" d="M209.78,269.57c-.57-2.58.76-2.14,2.39-1.61A82.65,82.65,0,0,0,223,271l-3.17.55C216.39,271.5,213,271.2,209.78,269.57Z"/><path class="cls-22" d="M203,214.45c2.05,5.26.55,10.72.92,16.08-2.22-5.15-1.19-10.71-2-16Z"/><path class="cls-2" d="M300,215.42l-1.05.07c-1.53.46-2.16-.64-2.84-1.65-.5-1.73-2.42-3.12-1.3-5.25l.33-.27A15.61,15.61,0,0,1,300,215.42Z"/><path class="cls-27" d="M124.94,270.5c4.35.19,8.76-.91,13,.65C133.62,271.13,129.21,272.19,124.94,270.5Z"/><path class="cls-58" d="M354.94,149.37c0-.24,0-.48,0-.72,3.53-2.52,7.16-1.72,10.82-.35l.24.38C362.38,150.37,358.63,149.31,354.94,149.37Z"/><path class="cls-59" d="M160,190.43a11.2,11.2,0,0,1,8,4A16.36,16.36,0,0,1,160,190.43Z"/><path class="cls-60" d="M189,133.54c2.79-1.75,3.57-3.5.58-6s-1.31-4.35,1.23-5.78c5.46-3.06,11.23-1.22,16.83-.7,2.69.24,4.89,1,4.06-2.92-.39-1.86.8-2.28,2-2.91,4.12-2.21,8.31-4.21,13.18-3.66,5.33.61,10.52-.94,15.8-1a25.94,25.94,0,0,1,8.32,1,1.57,1.57,0,0,1,.44,1.27c-3.12,2.18-7,.07-10.21,1.85-.54.3-1.32.07-2.15.87,5.37,3.48,6.14,9.33,7.55,14.83.33,1.29.34,2.66,1.24,3.72,2.73,3.23,1.93,6.06-.92,8.69a19.75,19.75,0,0,1-10-15.08c-.79-5.61-3.33-6.69-8-3.5-2.94,2-6.71,3.58-5.93,8.3-.55.11-1.44,0-1.27.82.1.47.84.81,1.29,1.2.12,3.32-4,5.85-1.59,9.8.56.93-1.34,2.79-3,3.52-.93.41-2.59.85-1.19,2.37.95,1-.47,3.64,2.49,3.36,2.74-.26,4.16.58,1.51,3.14-.88.85-2.8,1.33-1.75,3,.85,1.35,2.36.72,3.63.26a3.3,3.3,0,0,1,3.59.32c-1.06,1.26-3.51,2.48-.32,4.29,2,1.13.91,3.08-.93,2.74-3.93-.74-8.47,3.48-11.87-1.38a1,1,0,0,0-.9-.28c-5.44,3.36-8.06-2.82-12.27-3.78-2.83-.64-3.34-3.75-2.19-6.66.81-2,1.88-4.27-1.72-4.81a1.15,1.15,0,0,1-.92-1.83c1-1.85,1.2-3.35-.95-4.56a1.85,1.85,0,0,1-.31-1.78C198.55,135.64,192.36,135.45,189,133.54Z"/><path class="cls-61" d="M182,182.49c-7.56-4.37-14.52-4.52-20.69,2.61-1,1.11-2.69,2.27-4.29.38.07-10-8.29-24-17.18-27.15-1.69-1.15-.74-2.38-.13-3.61s-.23-1.82-.79-2.59A3,3,0,0,1,138,150c.19-1,1.17-1.44,2-2,.58-.42,2.1,0,1.7-.77s-1.25-1.41-.94-2.47a2.87,2.87,0,0,1,2-2c1.82-.15,3.67-.54,5.27.78a4.65,4.65,0,0,0,5.07-2.41c.88-2-1.1-3.08-2.93-3.77-1.21-.46-.92-1.5-.71-2.53.75-3.72,5.32-3.74,6.88-7,.34-.72,4.92,1.31,6.63,3.35,2.53,3,4.21,6.87,7,9.55,2.22,2.11-2.15,4.21.72,5.58,2.18,1,4.37-1.06,6.27-.39s3.71,2.51,5.69,3.94c-2.21,1.51-4.09-1.45-5.9.3,1.45,5.83,6.52,6.93,11.27,8.44,1.14,3.37-1.51,2.68-3.14,3,1.46.85,3.51,1.45,2.14,3.95h-7.91l-.06.71,9,1.28c1.42-.82,2.46-.4,2,1.21-.73,2.65-2.21,4.94-5.49,4.53-1.63-.2-3.23-.17-5.4-.31,1.91.25,3.34-.27,5.06.74C181.66,176.18,183.6,179.68,182,182.49Z"/><path class="cls-62" d="M116,150.51c-2.6,2-4.73,2.8-5.16-1.76-.14-1.41-1.34-2.94-2.5-2.77-6.33.94-11.72-4.37-18.19-2.53-1.61.45-4,.59-4.74-1.63s-1-4.63.59-6.65c1.32-1.63,3-3.07,0-4.65-.17-4-1.78-7.17-5.56-9A8.57,8.57,0,0,1,76,116.57c3.57-.71,6.14,1.7,8.55,3.41,5.11,3.61,10.37,4.16,16.14,2.62,4.56-1.22,7.12,1.81,8.52,5.07,1.26,2.91,2.57,5.09,5.51,6.37a3.55,3.55,0,0,1,2.19,3.63c-.15,1.92-1.62,1.79-2.93,1.91-1.86.16-2.13,1.43-1.8,2.86.29,1.21,1.09,2.21,2.54,1.59,4.78-2.06,3.21.35,1.85,2.59C115.83,147.86,116.09,149.2,116,150.51Z"/><path class="cls-63" d="M182,182.49c-1-2,1.12-5.15-2.65-5.68.84-2,3.16-.69,3.87-2.72-2.29-1.53-5.34.34-9-2.07,4.26.2,7.13.52,10,.43,3.52-.11,5.08-2.32,3.79-4.95a2.88,2.88,0,0,1,4-.59c2.31,2.05,5.07,1,7.46,1.71,4.69,1.44,9.17,3.58,14,4.63.49,6.08,5.15,3.81,8.47,4.25,3.84.51,3-4.49,6-5a1.85,1.85,0,0,0,2,2c.92,2.54-3,3.92-1.68,6.7,3.15-.78,1.53-6.11,5.66-5.69v2c-2.53,7.67-3.65,8.44-11.14,7.84A2,2,0,0,1,221,184a6.58,6.58,0,0,0-1.29-1.91c-5.76,2.75-9.29-3.73-14.47-3.45a4.69,4.69,0,0,0-3.45,1.58C195.8,186.5,189,185.08,182,182.49Z"/><path class="cls-64" d="M148,143.49l-5.94.08c-1.13,1.12-3.45-1-4,1.22-.76,3.17-2.84,6.8,1.87,8.9.74.33,1.54.73,1.05,1.81-.59.54-2.2.59-.94,2,.47,1.71,1,3.37,2.9,4.1a6,6,0,0,1,2.65,2.15c1.27,1.7,3.13,3.45,1,5.59-1.82,1.84-4,1.28-5.83-.15-3.61-2.79-8-4.18-11.74-6.74a3.27,3.27,0,0,1-2-1.94c.22-2.09-1.32-4.11-.18-6.3.3-.58.08-2.07-.35-2.3-7.83-4.2-2-11.65-4.13-17.18-.39-1,.74-1.81,1.74-2.07,5.28-1.38,10.79-1.33,16.13-2.88-2.32,2.48-2.57,7.18-7.82,5.78,1.57,6.05,6.31,5.21,10.19,6C144.47,141.92,147.15,140.18,148,143.49Z"/><path class="cls-3" d="M121,159.58c-.1,1.72.55,4.21-2.4,3.76S114,160,114.44,158c.67-2.82,2.27.53,3.58.51Z"/><path class="cls-63" d="M187,165.51c0-4.32-4.62-1.93-6.24-4.16,1.91-2.43,6.17,1.32,7.24-2.83l0,0a2.09,2.09,0,0,1,3,0C189,160.48,189.55,163.88,187,165.51Z"/><path class="cls-60" d="M183.75,146.28c2-.59,3.7-3.9,5.72-.6.46.76,1.47,2,.41,2.48C187.58,149.11,185.7,147.41,183.75,146.28Z"/><path class="cls-62" d="M122,152.56l-7.28,2.73c-1-3.34,3.79-2.09,3.29-4.76C119.21,151.45,121,151.14,122,152.56Z"/><path class="cls-60" d="M195.94,153.9c-3.31,1.19-5.1-.64-7.16-1.45C191.46,150.86,193.41,152.12,195.94,153.9Z"/><path class="cls-60" d="M191,158.52l-3,0c.29-2.44,2.28-2.4,3.6-1.77C193.63,157.7,192.18,158.23,191,158.52Z"/><path class="cls-65" d="M223,132.51c-3.59-3-2-4.95,1.36-6.62,3.61-1.78,6-6.28,11.21-4.43,1.76.62,2.76,1.32,2.37,3-.75,3.25,2,5.94,1.24,9.13-.07.3,0,.91.11.93,4.56.78,4.09,6.38,7.73,8,.64-1.08,1.61-2,2.82-1.58,4.89,1.77,10.35.63,15.1,3.8a13.19,13.19,0,0,0,10.54,1.51c3-.79,5.22-.25,7.09,2.79a26.33,26.33,0,0,0,7.71,8.24c.64,1.33.73,3.28-.67,3.36-3.26.2-4.95,2.92-7.64,3.87-2.51-3.09-5.26-5.84-9.65-3.79-2.39,1.11-2.67-.7-3.06-1.92-1.73-5.41-6.53-6-11-7.17a2.54,2.54,0,0,0-3,1.26c-1.26,3.37-5,4.09-6.8,6.8-2.1,3.15-5.38,2.31-6.73.38-1.55-2.22-5.71-4.08-3.18-8.15.25-.41-.12-1.25-.27-1.88-1.77-7.26-3.58-14.5-5.3-21.77-.58-2.47-1.39-2.44-3.32-1C227.36,129,226.72,132.75,223,132.51Z"/><path class="cls-66" d="M294.79,208.59c.72,1.62,1.43,3.25,2.15,4.87-6.15.33-9.55,3.78-11,9.55-.5,2-1.33,3.85-4,3.41-.47-2.85-2.73-1.8-4.37-1.94-3.2-.29-6.78.49-8-4-.39-1.46-2.37-.72-3.58-1.13-2.1-.69-4-1.69-5-3.82,3.27-.18,5.35-3.88,9-3,2.39,3.65,4.25,3.61,10-.61-3.36-.66-4.3-4.65-8-4.4-1.88-.92-4.68,2.76-5.55-.35-.74-2.67,3.22-1.86,4.74-3.38-.63-.1-1.11-.17-1.58-.26-2.13-.39-5.63,1.2-6-1.76s2.8-4.92,5.29-5.89,5-1.63,7-3.56c.92-.89,2.7-1.22,3.18-.39,2.36,4.08,4.93,2.39,7.87.88,1.25-.64,3.58-.54,2.4,2C286.08,201.45,291.48,204.56,294.79,208.59Z"/><path class="cls-67" d="M281.93,164.5c1.73-2.2,2.15-6.09,6.71-4.46,1.47.52,1.13-1.52,1.29-2.55a1.73,1.73,0,0,1-.28-2c1.93-1.34,4.36-1.75,6.2-3.26,1.41-.15,2.19.69,2.84,1.75.92,2.26,1.66,4.61,3.23,6.55a10.49,10.49,0,0,1-4.68,5.48c-1.52.86-3.43,2.21-3.14,4.1.67,4.45-2,6.49-5.15,8.4-3.17-.64-4.3-2.82-5.28-5.74-.75-2.25.69-6-3.65-6.6C279.08,166,279.16,165.44,281.93,164.5Z"/><path class="cls-68" d="M271.94,207.46l1.72-1.65c2.1,2.54,5.21,3.55,7.88,5.24.63.4.38,1.67-.4,2.14-3.1,1.88-6.2,3.78-10.12,3.27-1.47-.18-1.43-.94-1.2-2a11.72,11.72,0,0,0,.13-2C270.29,210.67,272.52,209.62,271.94,207.46Z"/><path class="cls-69" d="M226,196.48l6-4c1.52,1,4.36-2.78,5,1.36.54,3.64-1.63,5.28-4.79,5.49C229.76,199.51,226.54,200.6,226,196.48Z"/><path class="cls-70" d="M234,175.52c-2.34,1-2.18,3.49-2.93,5.39-.7,1.75-1.57,3.09-3.58,2.14s-1.58-2.68-.62-4.19,2.09-2.9,3.15-4.35C231.54,174,233.41,172.16,234,175.52Z"/><path class="cls-71" d="M129,162.45c.54-.74,1.7-1.27,2.08-.68,2.42,3.82,7.81,2.76,10.33,6.51a2.89,2.89,0,0,0,4.73.27c1.51-1.64-.57-2.48-1.21-3.67-1.42-2.61-6.73-2.64-4.93-7.38,5.15,1.07,7.45,5.42,10.94,8.61,4.63,4.23,4.27,9.85,7,14.34,1.31,2.14.84,3.66-1,5-2.06,0-4.14.16-6-1-3.61-.34-6.53.17-7.23,4.63-.27,1.7-2.55,1.71-3.86,3.12-1.43-1.9-.65-3.92-.88-5.74,1.67-2.49,3.22-5,3.06-8.21-.14-2.77,1.51-3.81,3.9-4.17,2.67.66,2.71,3.84,4.86,5.07-.08-1.62-1.81-2.5-1.88-3.93-.22-5-2.23-3.12-4.32-1.23a2.35,2.35,0,0,1-2.67-.5l-4.95,0c-1.93-3.61-5.53-6.05-7-10Z"/><path class="cls-72" d="M142,173.54h3a1.16,1.16,0,0,1,1,1c-1.32,1.16-3.28,1.43-2.72,4.35.6,3.15-1.12,6-4.25,7.65,0-2.22,2.16-5.56-3.06-5-1.42.16-.33-3.09-2-4h0C135.6,174,140.21,176.64,142,173.54Z"/><path class="cls-3" d="M128.38,174.42c-7.12-.63-7.79-1.26-7.74-6.6a2.61,2.61,0,0,1,1.22-2.47c.94-.6,1.46.12,2,.78,1.71,2.05,5,1.58,6.47,4.15.64,1.11,2.11,1.94,1.23,3.42C130.87,174.88,129.51,174.44,128.38,174.42Z"/><path class="cls-72" d="M130,163.53c2.41,2.42,4.84,4.83,7.24,7.26,1,1,0,1.81-.22,2.7C132.49,171.72,129.51,168.85,130,163.53Z"/><path class="cls-72" d="M122.61,162.16c2.13.48,4.11,1.15,5,4.28A9.36,9.36,0,0,1,122.61,162.16Z"/><path class="cls-3" d="M134,177.5c-.24,1.25-.23,2.94-2.24,2.08-.84-.36-1.91-1.41-1.26-2.34,1.05-1.52,2.33-.11,3.5.26Z"/><path class="cls-73" d="M113,213.44c-2-.11-3.44.29-4.53,2.56-.81,1.7-2.23,4.86-5.46,2.44,2.19-2.58,4.17-5.39,6.65-7.64,1.11-1,2.83-3.34,4.58-1.72C115.6,210.35,113.41,211.93,113,213.44Z"/><path class="cls-25" d="M122,227.46a8.21,8.21,0,0,0-1-5,3.53,3.53,0,0,1,3.59,2.77C124.93,226.9,123.41,227.3,122,227.46Z"/><path class="cls-74" d="M281.9,226.42c2.21-1,2.84-2.74,3.13-5.11.72-5.8,6.72-9.59,11.91-7.85l2,2c1.52,4.59,4.7,8.24,7,12.39.78,1.4,1.36,2.67.55,4.13s-2.38,1.6-3.9,1.2c-2.75-.75-5,1.6-7.66,1.22-2.42-2-5.33-2.43-8.32-2.29-1.63.08-3.27.74-4.64-.68-.27-.57-.4-1.35-.85-1.67-.87-.61-2.66-.48-2.46-1.91C278.89,226.21,280.61,226.5,281.9,226.42Z"/><path class="cls-74" d="M293,234.45c-.33,1-.73,2.05.95,2a3.52,3.52,0,0,1,3.63,2c.77,1.45,3.62,2.74,1.65,4.38s-4.76,1.09-6.51-1.27c-1.16-1.55-1-3.87-2.77-5.1C289.93,234.21,290.92,233.51,293,234.45Z"/><path class="cls-75" d="M293,234.45a3.12,3.12,0,0,0-3.05,2l-3,0-1.91-.08c0-1.48.25-3-2-3.2a1.2,1.2,0,0,1-1.1-1.71h0c3.24.15,6.36-1.64,9.77-.16,1.65.72,3.1,1.06,3.19,3.13Z"/><path class="cls-76" d="M75,181.49c3.41.33,3.15,2.86,2.93,5.16a5.52,5.52,0,0,1-4,4.6c-1.46.55-2.48-.61-3.25-1.7A3.47,3.47,0,0,1,71,185c1.12-1.44,3.31-1.64,4-3.54Z"/><path class="cls-77" d="M251,112.56v-1c2.64.4,4.52-1.86,7-2a2.26,2.26,0,0,1,2-.65c1.88.35,1.28,2.31,2.1,4.18,3.55-6.88,9.31-7.49,15.42-7.25,1.72,5.72,1.71,5.76-1.71,8,5.64-1,6,2,5.47,5.79,4.77,5.79,7.92,12.54,11.53,19,1.86,3.33,3.19,6.76-.44,9.91-3.58.34-5.12-2.22-5.89-4.89s-2.29-4.09-4.31-5.73a30.68,30.68,0,0,1-8.06-9.36c-.52-1-.64-2.39-2.14-2.41-.94,0-1.39.81-1.69,1.61-.54,1.44.39,2.12,1.46,2.74.86.49,1.8,1,1.37,2.26-4.64,3.52-7.67,2.63-9-2.74a19.68,19.68,0,0,0-1.57-4.16c-2.36-4.73-1.66-6.23,3.56-8,3.25-1.08,3.25-1.08,4.64-3.82-2.68.48-4.13,2.47-6,3.6-4.71,2.77-6.24,2.64-9.63-1.51C253.84,114.77,252.12,114,251,112.56Z"/><path class="cls-78" d="M260,109.56h-2c.18-2.17-1.86-2.64-2.94-3.84,8.35-2.23,17.3-2,25.15-6.25,1.21-.65,2.46-.46,3.78-.53,4.75-.24,9.55-.67,13-4.8a23.08,23.08,0,0,1,12-7.59c-.9,2.17-1.94,3.8-4.75,4.23-5.22.8-5.12,6.1-7.17,9.56a15.5,15.5,0,0,0-1.06,3.21,2.66,2.66,0,0,1-1.15.81,31.64,31.64,0,0,0-17,.81,32.49,32.49,0,0,0-10.8,2.25A32.82,32.82,0,0,1,260,109.56Z"/><path class="cls-16" d="M98,114.54l-1,1c-1.76,3.13-3.87,4.44-6.77,1.23-2.35-2.6-7.39-1.63-8.23-6.22.83-1.15,2.37-1.44,3-.66C88.59,113.91,92.72,115.77,98,114.54Z"/><path class="cls-79" d="M344,269.46c-1.91,1.17-3.8,2.52-6.14.94-1-2.16.85-3.24,2.06-3.67C342,266,343.05,267.93,344,269.46Z"/><path class="cls-80" d="M364.91,141.59c-.06,1.31-1,2.62,0,3.93-2,1.54-3.55.53-4.68-1-2.53-3.39-5.82-4.5-9.93-4.34a12.2,12.2,0,0,1-6.22-1.41c-1.3-.7-2.69-1.34-4.12-.22l-1.07.93c-1.32-1.4-1-3-.47-4.56a27,27,0,0,0,1.33-10c-.18-1.16-1-2.1-1.27-3.2-.76-2.76,0-4.8,3.19-4.56,1.88.14,3.56-.6,5.37-.49a2.38,2.38,0,0,1,1.86,1.08c3,.85,4.62,2.41,4.18,5.92-.26,2,.69,4.22.79,6.35.4,8.44.36,8.45,9,8.56C362.88,140,362.94,141.44,364.91,141.59Z"/><path class="cls-81" d="M348.9,117.72l-1.95-.21a4.67,4.67,0,0,0-1.67-.75c-1.3-.28-2.55-.64-2.93-2.17a3.33,3.33,0,0,1,.23-1.36,7.81,7.81,0,0,1,3.19-2.81c3.61-1.93,4.77.78,6.08,3.21a5.33,5.33,0,0,0,.25.89C351.82,116.37,350.14,116.83,348.9,117.72Z"/><path class="cls-26" d="M117,223.48c1.12,2.38-.25,2.94-2.22,2.94-.9,0-2.48.19-2.23-1.13.46-2.51,2.78-1.6,4.44-1.81Z"/><path class="cls-82" d="M301.92,160.52c-3.73-.42-3-3.78-4-6a1.53,1.53,0,0,1,1.3-.31c4.2,2.27,7.29.42,10.63-2.26,3.68-3-.5-5.34,0-8,.16-2.92,1.77-4,4.61-3.9a62.71,62.71,0,0,1,11.33,1.59c2.1.46,4.19,1.14,6.34.28a26.21,26.21,0,0,1,3.49-.88,1.81,1.81,0,0,1,1.29.47c1.74,2.05-.26,3.66-.9,5.19-1.24,3,1.14,1.38,1.9,1.81-3.34,2.89-7.64,4.22-11.2,2.11-4.85-2.89-8.06-.71-10.52,2.39-3.5,4.43-6.62,8.51-13.12,6.66C302.8,159.61,302.32,160.23,301.92,160.52Z"/><path class="cls-83" d="M223,213.47c-2.28-.32-3.71,1-5,2.58-.94,1.09-1,2.41.33,2.85,2,.67,3.11,2.71,4.76,3.21,5.82,1.8,3.44,5.08,1.95,8.33h0c-.31-.36-.92-.43-1-1,.36-3.16-2.4-4.08-4.28-5.24-1.09-.67-2.05,1.13-2.7,2.24l-1,.06c-2.1.58-.9-1.7-2.12-2.41-4.09-2.4-5.33-6.14-4.29-9.86,1.22-4.41,5-1.72,7.39-2.74h8Z"/><path class="cls-84" d="M220.92,235.49c-2.84,2.94-6.25,4.92-6.3,10.3,0,4.27.81,6.19,4.51,7.47.79.28,1.27,1.45,1.88,2.21.17.84-.15,1.18-1,1-7.44-.21-9.91-3-9-10.15.26-1.93.26-3.88.43-5.74C212,234.72,216.72,235.29,220.92,235.49Z"/><path class="cls-85" d="M220,256.45l1-1,4.89-2c4.44,5.31,3.86,6.5-3.93,8C221.32,259.78,220.66,258.11,220,256.45Z"/><path class="cls-42" d="M224,229.43l1,1c-3.62,1-1.34,4-2,6l-2-1c-.68-1.36-2.41-.66-3.44-1.59C219.22,231.49,220.44,228.8,224,229.43Z"/><path class="cls-86" d="M209,259.54l-1-1.13c2.29-2.44,4.41.48,6.91-.33-1.17,2.83-3.14,2.27-4.9,2.29Z"/><path class="cls-50" d="M141.92,256.45l2,1.1c-2.45,5.24-7.16,5-11.85,4.9a25,25,0,0,1-9-2c1-3.58,2.45-5.59,7-4.35C133.76,257.07,137.94,256.38,141.92,256.45Z"/><path class="cls-74" d="M282,231.46c.54.31,1.07.92,1.6.91,4.45-.07,4.08,1.54,1.47,4-2,0-3-1.74-4.2-2.86S280.62,231.63,282,231.46Z"/><path class="cls-87" d="M332.93,142.5c-1.64,2.48-3.95,1.27-5.89.84a109,109,0,0,0-12.72-2c-3.12-.32-3.43.94-3.4,3.23-2.59,2.43-5.45,3.68-9,2.08a14.19,14.19,0,0,1-6.37-6c-3.76-6.31-8.37-12.15-10.62-19.33-1-3.3-3.42.21-5-.7.09-3.06,1.68-7.08-4.92-6,4.29-2.92,1.07-6.23,1.9-9a1.81,1.81,0,0,1,1.28-.51c1.71-.43,3.93-2,3.78,1.71-3.88,3.35.42,5,1.26,8,1.44-3-1.13-5.46.74-7.67a19.63,19.63,0,0,1,11-3.53l1,0c3.28-.27,4.62-3.35,5.18-5.38,1-3.72,3.39-4.83,6.43-5.66,4.72-1.29,9.45-2.49,14.27-3.45,4.33-.86,7.6-.56,11.09,1.53-2.73,2.23-6,1.2-9,1.36-2.12.11-4.27-.19-6.36.37-5,2-7.61,6.79-11.87,9.62-1.26,1.53-2.32,3.21-3.63,4.7-5.79,6.63-6.29,11.4-1.94,19.2,1.45,2.6,3.58,4.74,5.16,7.26.45.71,1,1.53,1.92,1.2,2.46-.89,4,.81,5.85,1.76,2.28,1.15,4.86,1.88,5.54-2,1.57-2.11,3.76-1.55,4.42.14,1.63,4.19,5.07,5.33,8.73,6.48C332.51,140.93,333.18,141.46,332.93,142.5Z"/><path class="cls-88" d="M316,91.61c5.53-2.27,11.31-.47,17-1l2,2,1,2a.76.76,0,0,1,.31.78c-.07.27-.14.41-.22.41-3.29-.13-5.92,3.26-9.47,1.79-1-.29-1.81-.7-1.87-1.88-1.16-.47,2.58-.48,0-1.6C321.84,92.81,318.51,93.64,316,91.61Z"/><path class="cls-78" d="M313.93,85.59c1.4-1.68,3-2.24,5-1C317.53,86.27,316.43,89.42,313.93,85.59Z"/><path class="cls-89" d="M335.91,95.6c0-.34,0-.69,0-1,2.32,4.1.83,8.79,2.07,13.06,1.07,2.51,2.48,4.73,5.05,6-.06.3-.14.59-.22.88.07,1.32.07,1.32,3.18,1.91l.95,1.11a12.76,12.76,0,0,1-3.12,1.32c-5,.72-5,.67-2.9,5.71-2.2.3-4.35-.35-6.55-.38a3,3,0,0,1-2-2.72c1.31-2.75.69-5.8,1.23-8.58C334.73,107.13,332.24,100.93,335.91,95.6Z"/><path class="cls-90" d="M351.85,113.63c-1.85-1.16-2.86-4.57-6-2.21a1.79,1.79,0,0,1,.22-2.75c1.93-3.16-1.63-3.48-2.71-5.07,4.18-2.3,6.53-1.29,7.48,3.28C351.29,109.11,351.52,111.38,351.85,113.63Z"/><path class="cls-91" d="M346.06,108.67c-.07.91-.15,1.83-.22,2.75l-2.8,2.19c-5.17,1-5.56-2.14-5.05-6C340.67,108.06,343.76,105.33,346.06,108.67Z"/><path class="cls-21" d="M217,211.48a10.35,10.35,0,0,1-1.66.91c-1.63.55-4.54-1-4.61,2.06s-1.12,7.71,3.3,8.62c3,.61,1.33,2.34,2,3.42a10.48,10.48,0,0,1-6.48,2,3.82,3.82,0,0,1-3.82-2.59c-.7-1.54-1-2.8,1-3.55,1.37-.51.84-1.53.44-2.46-1.39-3.28-2.74-7.23.22-9.64C210.18,207.93,213.94,209.57,217,211.48Z"/><path class="cls-92" d="M332.93,121.55l2,2c2.05,1.74,1.28,2.63-.92,3.2-4,1-4.48,2.45-2.18,5.89a17.6,17.6,0,0,0,3.48,3.47c1.37,1.19,2.86,2.4,1.72,4.57a3,3,0,0,1-.1.84h-1a13.9,13.9,0,0,1-8.39-5.87c-2.83-4.13-7.25-6.16-12.38-6.31a5,5,0,0,1-2.33-4.47,10.72,10.72,0,0,1,.62-2.91c.6-2-.35-3.23-2-4a3.07,3.07,0,0,0-4.3,1.24c-.78,1.2-1.38,3-3.3,2.23s-1.44-2.7-1.37-4.35c.33-7.09,5.18-12,8.56-17.58a2.61,2.61,0,0,1,3.48-1.15c1.69,1,1.15,2.54.58,4a10.72,10.72,0,0,0-1,2.79,2.43,2.43,0,0,0,1.08,2.58,1.69,1.69,0,0,0,2.21-.6c3-3.64,7.75-2.35,11.49-4,2.37-1,4.94,1.21,4.76,3.71C333.26,111.7,335.55,116.76,332.93,121.55Z"/><path class="cls-93" d="M337,140.69a5,5,0,0,0-3.14-4.16c-2.38-1.22-3.58-3.52-4.59-5.7-1.57-3.41.56-5.79,4.32-5.1,2.58.47,1.81-.89,1.31-2.17a5,5,0,0,1,6,1c1.18,5.24-1.6,9.94-2,15Z"/><path class="cls-58" d="M340,138.57c1.31-1.59,3-1,4.56-.69a29.42,29.42,0,0,0,8.66,1,7.73,7.73,0,0,1,7.38,4.17c1,1.8,2.27,2.75,4.35,2.52l2.21.22v.57l-2.22.24c-3,1.88-6.08,1-9-.09-2.18-.84-3-.22-2.92,2-2.8,0-4.07-.84-4.67-4.14C347.56,140.55,343.51,139.42,340,138.57Z"/><path class="cls-94" d="M352.93,148.49l-3.12-3.37c5.55-1.89,10.11,2.9,15.08,1.43l.84,1.75-10.82.35Z"/><path class="cls-95" d="M251,112.56a5.19,5.19,0,0,1,5.51,3.43c1.57,3.78,4.14,3.09,6.28,1.43,1.76-1.37,4.32-1.73,5.37-4.09.49-1.11,1.43-2,2.77-1.12a3.8,3.8,0,0,1,1.95,2.73,2.11,2.11,0,0,1-1.57,2.66c-1.9.57-3.72,1.53-5.65,1.8-4.58.65-4.08,3.1-2.18,5.86a12.48,12.48,0,0,1,2,5.55c.78,4.59,4.49,3.22,7.55,1.73a4.62,4.62,0,0,1,2.44,2.36c2.86,6.81,8.4,11.57,12.9,17.11a5.86,5.86,0,0,1,1.63,3.52c0,.65,0,1.31,0,2-5.07-.52-6.09-5.41-8.86-8.37-.86-.91-1.11-2.77-2.71-2.16-4.27,1.64-8.48.25-12.71.2-1.17,0-2.08-.26-2.37-1.27-.79-2.77-2.47-2.46-4.63-1.79-2.9.91-5-2.12-7.93-1.92-1.23.08-2.52-.38-3.74.33,1.24-3.24,1.8-5.81-1-9.25a12.56,12.56,0,0,1-2.19-9.32c.41-2.11-2-5.49-5-7-.92-.45-2.55-.75-2.05-2.29.43-1.3,1.87-1.08,3-1.15C243.51,113.34,247.1,111.48,251,112.56Z"/><path class="cls-96" d="M141,155.5c-4.88-.77-6.29-4.28-5-8.18.81-2.41-.21-2.92-2.21-4,3.33-1.09,5.81-1,8.24.3-2.21,5.49,3.58,1.35,4.11,4-1.67,2.33-5.44-.21-7.37,2.52C138.67,152.06,144.14,152.15,141,155.5Z"/><path class="cls-97" d="M283.05,197c-3.62,2.55-7.65,3.47-13.41,3.61A22.8,22.8,0,0,1,283.05,197Z"/><path class="cls-98" d="M289.92,155.53c-6.32-7.18-13.51-13.71-17-23-5.74-2.47-5.82-2.87-3.14-6.82,2.35-3.47,4.06-1.6,4.85.72,1.79,5.23,5.49,8.58,9.86,11.45,1.45,1,2.9,2.26,2.78,3.86-.3,3.74,2.39,5,4.72,6.72,2.79-.07,3.67,1.69,3.91,4.07C295,155.77,292.5,155.68,289.92,155.53Z"/><path class="cls-99" d="M295.93,152.54c-1.38-1.29-2.05-3.25-3.91-4.07,2.18-3.89.89-7.14-1.17-10.8-2.44-4.35-5.92-8.29-7-13.27-.53-2.51-4.63-.61-3.92-3.85,1.35-1.52,3.14-3.11,5-2.42,1.61.59,1.38,2.83,1.55,4.68.33,3.6,3.83,5.65,5.25,9,2.26,5.28,5.24,10.32,10.18,13.76a14,14,0,0,1,1.87,1.58c2,1.84,4.18,4,2.56,6.71-1.8,3-4.82,1.76-7.44.72l-1,0A3.09,3.09,0,0,0,295.93,152.54Z"/><path class="cls-100" d="M146,174.51l-1-1c-.86-1.85-.21-2.86,1.77-3,1.48-.1,4.1.22,3.66,1.42-1.33,3.62,2.19,5.37,2.34,8.23a17.71,17.71,0,0,1-.2,2.3C149.07,180.47,147.92,177.16,146,174.51Z"/><path class="cls-101" d="M295.69,218.05c-2.16,2-4,1.28-6.39,1.36C291.39,217.3,293.16,217.06,295.69,218.05Z"/><path class="cls-9" d="M278,105.53l-1,0c-1.93,1.35-3.49,3-6.47,1.89-2.82-1.09-3.8,2.46-5.83,3.6-1.31.73-.21,4.16-3.69,3s1.05-3.44-1-4.54c5.56-3.24,11.38-5.55,18-5,.34.22.45.43.34.65S278.06,105.53,278,105.53Z"/><path class="cls-77" d="M278,105.53v-1a20.39,20.39,0,0,1,17-1c-4,.65-7,3.88-11.11,4.06-1,.32-1.56-.19-1.89-1.08C281.14,104.16,279.36,105.57,278,105.53Z"/><path class="cls-102" d="M346,116.4h-6.29c.41-2.14,2-1.62,3.11-1.91Z"/><path class="cls-93" d="M315.91,128.56c.6.26,1.32.87,1.79.72,2.22-.73,4.65-4.5,5.78,1.4.46,2.36,5.31,1.81,6,5.62.57,3.08,5.33,2.14,6.44,5.24-.73,1.17-1.91.94-3,1-2.11-.73-4.24-1.41-6.32-2.21-1.68-.64-3.56-.73-3.45-3.65.06-1.8-1.32-4.42-4.24-2.1-1.74,2.05-4.11,2.87-5.73.57C311.09,132.12,313.41,130.11,315.91,128.56Z"/><path class="cls-103" d="M298.93,154.54a4,4,0,0,0,.49,0c2-.35,4.7,1.05,6-.94,1.73-2.59-1.46-3.93-2.39-5.86-.35-.75-.74-1.47-1.11-2.2,3.28,2.35,5.93-1.19,9-1,0,1.47.94,2.4,1.86,3.35a2.15,2.15,0,0,1,.75,2.19C312.23,154.89,302.84,157.76,298.93,154.54Z"/><path class="cls-104" d="M332.93,121.55c-.3-.56-1-1.46-.83-1.62,3.67-4.06-.31-8.5.64-12.75.4-1.77-2.42-4.25-3.3-3.3-3.36,3.66-10-.58-12.11,5.49-.44,1.3-1.95,1.16-2.89.11-1.32-1.47-2.7-2.86-1.87-5.25.59-1.71,3.21-2.8,1.78-5.17a2.19,2.19,0,0,0-2.57,1.24c-3.24,6-8.32,11.08-8.47,18.47,0,.88-.11,1.71.86,2.06a1.08,1.08,0,0,0,1.45-.94c.3-4.8,3.77-4.51,6.52-3.36,3.7,1.55,3.79,4.76,1.78,8-2,.55-3.39-4-5.75-.72-3.19.15-1.85,1.69-.94,3.11-2.11,4-4.2.54-6.31,0-3.25-4.1-2.95-8.71-1.34-13.18,1.5-4.17,2.74-8.5,5.33-12.21,3.34-3.7,6.7-7.37,11-9.94,5.06-.06,5.06-.06,11.15,2.76l-2.18,1.21c-2.58-.23-4.77-2.69-7.7-1.22,2.82-.06,4.94,1.41,7.1,2.89.78.53,2.38,2.29,2.58-.61,1.67-.74,4.79,1.79,5-2.66.07-1.11,2.5,1.16,4,1.62.1,3.67.54,8.25-.48,10.84C333.44,111.53,337.7,117.33,332.93,121.55Z"/><path class="cls-105" d="M308,123.48c2.19-4.08,2.29-4.07,6,1.08-.07,1.7.2,3.23,2,4a6.16,6.16,0,0,0-.62,1.3c-.31,1.65-3,2.6-1.66,4.59,1.54,2.26,3.51,0,5.29.09,0,.78,2.27,1.37.56,2.09-2.39,1-5.08,3.36-7.62.28-2.09-2.52-4-2.76-6,.82-1.93-6.5-7.38-10.13-9-16.28-1.54-5.81-1.42-10.64,3.4-14.8a53.4,53.4,0,0,0,4.62-5.1c-1.51,3.89-2,8.07-3.77,12-1.94,4.22-2.51,8.88.79,13,1.44.8,2.38,2.45,4.1,2.72,1.37.21,2.87,1.84,4.11.28,1-1.25.64-2.84-.49-4.09A6.19,6.19,0,0,1,308,123.48Z"/><path class="cls-106" d="M282,106.55l1.89,1.08c.41,1.6.81,3.19,1.23,4.78.38,1.41,1.28,3.06-.75,3.8-2.34.84-2.58-1.35-3.3-2.72a12,12,0,0,0-1.35-2.59C276.49,107.33,278.31,106.48,282,106.55Z"/><path class="cls-107" d="M326.91,96.64c0,.79,2.18.88.7,2.16-.69.6-1.22,1.64-2.39.61-3.33-2.93-7.1-4.79-11.85-4.42,4.18-2.33,8.13-4.13,11.56.59C325.33,96.42,326.11,96.55,326.91,96.64Z"/><path class="cls-77" d="M268.35,137.82c-.23,1.39-1.36,1.94-2.15,1.51-1.87-1-5,.27-5.68-1.85s2.11-1.39,3.3-1.68C265.67,135.35,267.24,136.35,268.35,137.82Z"/><path class="cls-93" d="M310,124.53c3.53,1.63,2.28,4.65,1.24,6.7-1.35,2.67-3-.38-4.54-.65-2.3-.41-3.6-2.18-4.77-4,1.67-.78,3.35,3.55,5,0A6.09,6.09,0,0,1,310,124.53Z"/><path class="cls-108" d="M310,124.53c-.11,2.07-1.57,2.06-3.07,2-1.9-.31-4.15-1.22-3.38-3.2s2.85.59,4.41.15A2.36,2.36,0,0,1,310,124.53Z"/></svg>