<svg id="Layer_1" data-name="Layer 1" xmlns="http://www.w3.org/2000/svg" viewBox="0 0 400 275"><defs><style>.cls-1{fill:#d7b377;}.cls-2{fill:#ecd7a2;}.cls-3{fill:#e1c48b;}.cls-4{fill:#e4cb99;}.cls-5{fill:#dbbb84;}.cls-6{fill:#e1d1ad;}.cls-7{fill:#ccab73;}.cls-8{fill:#c1a16b;}.cls-9{fill:#dec18e;}.cls-10{fill:#e6cb98;}.cls-11{fill:#d6b67c;}.cls-12{fill:#aa7c42;}.cls-13{fill:#c5ac81;}.cls-14{fill:#dfc393;}.cls-15{fill:#dac398;}.cls-16{fill:#e3c99a;}.cls-17{fill:#c9a770;}.cls-18{fill:#c5ae82;}.cls-19{fill:#ccba98;}.cls-20{fill:#e1c493;}.cls-21{fill:#d2b484;}.cls-22{fill:#c19c64;}.cls-23{fill:#c7a872;}.cls-24{fill:#cfb080;}.cls-25{fill:#d0b07f;}.cls-26{fill:#ba945f;}.cls-27{fill:#e8dcc2;}.cls-28{fill:#b49764;}.cls-29{fill:#cda76f;}.cls-30{fill:#dbbf8f;}.cls-31{fill:#dbc296;}.cls-32{fill:#c9a567;}.cls-33{fill:#c2a273;}.cls-34{fill:#ddcaa4;}.cls-35{fill:#8d693e;}.cls-36{fill:#ebd1a0;}.cls-37{fill:#d4b482;}.cls-38{fill:#c2a87c;}.cls-39{fill:#b89e74;}.cls-40{fill:#ab8a5c;}.cls-41{fill:#dcc4a2;}.cls-42{fill:#d7c49e;}.cls-43{fill:#af9a77;}.cls-44{fill:#483a2a;}.cls-45{fill:#988059;}.cls-46{fill:#ccb78e;}.cls-47{fill:#c2ab80;}.cls-48{fill:#d1c3ad;}.cls-49{fill:#937f5d;}.cls-50{fill:#ae9870;}.cls-51{fill:#a59371;}.cls-52{fill:#5d4624;}.cls-53{fill:#d4ac6e;}.cls-54{fill:#dcbc80;}.cls-55{fill:#cca466;}.cls-56{fill:#dcbd85;}.cls-57{fill:#d1ab6d;}.cls-58{fill:#e1c187;}.cls-59{fill:#c2965b;}.cls-60{fill:#ac8851;}.cls-61{fill:#c5a36b;}.cls-62{fill:#b99457;}.cls-63{fill:#d9b87a;}.cls-64{fill:#d1ab6c;}.cls-65{fill:#d9be8c;}.cls-66{fill:#ba995e;}.cls-67{fill:#e3ca98;}.cls-68{fill:#d0b17c;}.cls-69{fill:#dac59d;}.cls-70{fill:#bb9c69;}.cls-71{fill:#ab874b;}.cls-72{fill:#c4a268;}.cls-73{fill:#ba9760;}.cls-74{fill:#c9ac78;}.cls-75{fill:#a9854c;}.cls-76{fill:#e0c38d;}.cls-77{fill:#d6b67f;}.cls-78{fill:#d9be8b;}.cls-79{fill:#d6b478;}.cls-80{fill:#c7a56e;}.cls-81{fill:#4a2f17;}.cls-82{fill:#e1c494;}.cls-83{fill:#b59b6d;}.cls-84{fill:#aa8e63;}.cls-85{fill:#c6aa7a;}.cls-86{fill:#c9aa76;}.cls-87{fill:#bc9f6b;}.cls-88{fill:#ae8c53;}.cls-89{fill:#a97c43;}.cls-90{fill:#b58649;}.cls-91{fill:#b2874d;}.cls-92{fill:#d1b488;}.cls-93{fill:#907249;}.cls-94{fill:#d3b888;}.cls-95{fill:#e3c58c;}.cls-96{fill:#be9a5e;}.cls-97{fill:#ba9b64;}.cls-98{fill:#b98e52;}.cls-99{fill:#c09f6a;}.cls-100{fill:#a4753c;}.cls-101{fill:#c29f61;}.cls-102{fill:#c4a571;}.cls-103{fill:#d0af73;}.cls-104{fill:#b4915b;}.cls-105{fill:#7f5824;}.cls-106{fill:#8d6832;}.cls-107{fill:#c6a169;}.cls-108{fill:#c7a771;}.cls-109{fill:#d2b27e;}.cls-110{fill:#b59765;}.cls-111{fill:#976529;}</style></defs><path class="cls-1" d="M189,102.58c7.13-1.8,14.09-.27,21.14.85,8.61,1.38,16.64-1.7,24.75-3.92,9.79-.77,19-3.61,28.14-7.13,1.56-.6,3.31-1.36,4.83-.8,5.26,1.94,7.85-1.19,9.5-5.15,2.48-6,8.3-7.69,13.17-9.37a30.53,30.53,0,0,1,13.53-1.57c6,1.74,11.4,4.92,16.78,8.06-2,1.88-4.38,1.41-6.72.9-5.55-2.26-11.22-1.8-16.93-.75-2.1.38-4.12,1.15-6.27,1.26-4.14.41-7.66,1.37-8.67,6.37-.46,2.25-2.67,4.1-4.73,4.77-4.8,1.56-9.29,3.84-14,5.45-1.52.2-3.56-1.71-4.42.09-.94,2,1.54,3.74,1.81,5.82,1.07,2.25-1.25,4.35-.26,6.6,2.78,3.87,1.66,5.68-4.3,7-1.58-.46-2-2.64-4.07-2.72-.53,2.52,1.94,4.53,1.21,7-1.19,1.45-.83,3.29-1.2,5a6.25,6.25,0,0,1-4.56,4.18c-2,.39-4.13.73-5.6-1s.91-2.53,1.14-3.81a15.45,15.45,0,0,0-1.16-9.6c-2.91-6.12-2.58-6.88,3.91-9.16,1.63-.57,3.51-.78,4.72-3.35-3.26.8-5,2.83-7.22,4.06-4.77,2.67-5.6,2.27-9.45-1.72-3.27-3.39-7.92-3.93-12.39-4-5.81-.1-11.44,1.81-17.26,1.91-3.56-.09-6.1,2.42-9.16,3.6a1.33,1.33,0,0,0-.94,1.9c1.32,4.25-1.7,4.25-4.45,4.43-3.35.21-6.55-.95-9.87-1.17-2.59-.17-5.19,0-6.72,2.3-1.38,2,.88,3.58,1.45,5.38,1.27,4.05,3.18,6.84,7.8,7.82,2.84.61,2.91,3.68.62,5.91-2.59,2.54-2.45,4.09.72,6.08,1.17.74,2.86,1.89,2.32,2.87-2,3.59,2.12,6.49.76,9.85-.39,1,.51.41.62.42a33.93,33.93,0,0,1,8,2.36c5.1,2.06,10.42.56,15.43,2.05a4.25,4.25,0,0,1,1.32.68c1.27,1.65,2.28,3.34.55,5.3a2.52,2.52,0,0,1-.47.13c-1.56.18-3.34-2.16-4.5-.29s2.48,1.8,2.36,3.67c-2.95,3-9.82,3.32-12.13.27a7,7,0,0,0-5.93-3c-1.33,0-2.89.13-3.74-1-3-4-8-3.11-12-4.85-2.19-1-4.36-.81-4.53-3.89-.11-1.94-2.1-3-2.65-4.72s.19-3.64-.08-5.46c-.19-1.32-.13-3-1.37-3.6-7.53-3.55-3.38-9.7-2.56-14.3,1.07-6.08-1.22-10.68-7.4-11-2.67-.13-5.48-.28-6.6-3.38-.65-1.81-1.82-1.53-3.19-1.18-3.31.87-4.66-1.25-5.21-3.86s.45-4.32,3.53-3.63c1.94.43,3.88.87,5.83,1.5-.21-.63-.81-.81-1.16-1.23-1.23-1.48-3.48-2.82-2.15-5,1.23-2,3.55-1.36,5.46-.76,4.49,1.41,9.19.44,13.74,1.22C175.14,103.84,182.14,105.27,189,102.58Z"/><path class="cls-2" d="M58,172.46c3.12-3.42,3-7,1.92-11.47-2.45-10.47-2-21.21-.49-31.83A5.59,5.59,0,0,1,64,124.37c.74.82.56,1.87.7,2.83.51,3.66,2.5,5.1,6.23,4.62,6.63-.85,11.59,2,15,7.54.9,1.44,1.68,3.26,3.5,3.19,3.62-.14,4.8,2.29,6,4.87a4,4,0,0,0,1.75.8c2.07.68,5,.59,3.12,4.32-.79,1.53.69,2.45,1.92,2.94a9.46,9.46,0,0,1,4,2.88c1.34,1.66,3.22,3.18,2.26,5.65s-3.24,1.82-5.17,1.84c-2.76,0-3.63,1.08-2.3,3.72s1.24,5.44-1.1,7.76A6.84,6.84,0,0,0,98.6,180c-2,5.6-2.07,5.6-7.68,4-.31-.09-.66-.42-.92-.3-6.47,3-8.2-2.44-11-6.61-2.33,2.61-2.3,5.61-2.76,8.44-.63,3.9-2.55,5.5-6,5s-4.18-2.85-3.79-5.86c.24-1.81.26-3.64.47-5.45.62-5.2-.07-6-5.24-6C60.42,173.16,59.09,173.63,58,172.46Z"/><path class="cls-3" d="M95,148.57c-1.08-.18-1.75-.5-1.59-1.91.22-1.94-.29-3.1-2.83-2.52-2.84.64-4.48-1.2-5.51-3.7-2-4.83-8.73-8.53-13.62-7.55-6.19,1.25-9.1-2.08-7.43-8.52.63-.64,1.26-1.27,1.9-1.9,1.58-3.45.22-9.51-3.15-12.53-3.57-3.21-7.15-6.49-11.7-8.37A147.3,147.3,0,0,1,32.89,87.69c3.38-2,6.5-.61,9.22,1.21a105.58,105.58,0,0,0,17.78,9.88c4.33,1.82,7.79,5.55,11.7,8.33,2.24,1.58,4.06,2.18,6.25.64C82.62,104.36,89,103.4,92.47,98c1.72-.71,3.25,0,4.77.66,7.36,3.18,15.08,3.45,22.92,2.95a3.79,3.79,0,0,0,3.19-2c2.05-3.27,5.11-3.94,8.65-3.34a5.1,5.1,0,0,1,1.47,2.55c3.3,8.51,0,13.21-9.35,13.22-5.7,0-11.13-1.94-16.74-2.68-5-.66-9.47,1.36-14.07,2.37-3.29.72-3.71,4.88-1.38,7.92,3.4,1.68,4.69,4.47,4.33,8.15-.21,2.19,1.54,4.91,1.16,6-1.43,4,2,5.86,2.83,8.75C101.55,147.17,98,147.69,95,148.57Z"/><path class="cls-4" d="M58,172.46c1-.14,2-.24,2.93-.42,6.09-1.14,8.19.84,7.23,6.79-.37,2.28,0,4.6-.61,6.92-.56,2,.5,3.56,2.84,3.7s4.57,0,4.59-3.11a26.53,26.53,0,0,1,2-9.66c.37-.92.93-1.87,2.12-1.79a1.89,1.89,0,0,1,1.81,2c0,2.5,2,3.72,3.17,5.47.42.64,1.28,1,1.94,1.45,3.1-4.7,5.64-.19,8.42.48.37.08.9-.33,1.31-.58,2.88-1.71,0-5.77,3.66-7.83,3.13-1.75,1.25-5-.72-7.5-1.35-1.72-.41-3.31,1.58-3.71a16.77,16.77,0,0,1,5,0c3,.32,3.49-1.54,2-3.11s-2.14-4.78-5.73-4.63c-2.18.09-2.68-2.92-3.8-4.49-.78-1.09,1.94-.43,2.54-1.61-.86-2.08-2.76-1.11-4.24-1.38,2.73-3.57,4.41-3.55,7.93.08,3.77,3,6.63,6.85,9.35,10.73,1.14,1.61,1.11,4.06,3.88,4,.81,3.48-.95,6.47-1.9,9.59s-1.41,6.05-.14,9.17c2.49-.4,2.35-3.38,4.44-3.86l.64.28c-.87,8.61-2,17.08-8.88,23.49a9.85,9.85,0,0,0-2.75,5.18c-1.06,4.88-4.11,8.17-8.56,10.26-1.45-2.35-.19-4.27,1.34-5.75,2.84-2.76,4.06-6.45,6-9.69,1.43-2.34,1.93-5-.66-7.28-1.11,1.62-.49,4.67-3,4.72-3.29.06-2.44-3.91-4.66-5.72-.43,2.18.88,3.49,1.55,5,.8,1.81,1.91,3.66.45,5.6-.7.92-1.81.73-2.77.4-2.11-.75-4.3-1.81-4.18-4.34.15-3.32-1.6-4.72-4.33-5.57-1.25-2.07-.26-4.16-.42-6.16-.71.45-1,1.89-2.31,2.1-2.29,0-1.41-2.41-2.46-3.37-1.35.7-2.1,2-3.22,2.86-2.63,1.77-4.78,4.14-7.26,6.08-5.69,4.46-10.9,4.21-15.71-.27-2.84-2.65-3.27-5.18-.71-8.19,1.18-1.39,2.59-2.66,3.26-4.39,1.12-2.89,2-5.87,3.82-8.5-2.85-1.17-3.63,2.32-5.84,1.54C56.73,176.2,56.19,174.55,58,172.46Z"/><path class="cls-5" d="M59,177.53a17.58,17.58,0,0,1,2.75-2.77c1.34-.87,3-2,4.48-.37s-.59,2.49-1.14,3.71c-2.17,4.78-4,9.72-7.76,13.6-1.14,1.18-.38,2,.4,2.94,4.68,5.94,10.57,6.48,16.35,1.31,2.22-2,4.08-4.41,7-5.48,3.17,2.45,7.12,4.29,7.12,9.19-4.47,1.71-7.72,5.07-11.17,8.18-.84.66-1.39,1.82-2.74,1.6-1-3.87-4.92-6.34-8.51-5.34-1.56.43-3.11.91-4.67,1.36-4.14-.26-8.29,0-11.62-3.57-1.29-1.4-3.93-1-4.81,1.54-2,5.66-4.12,11.36-.36,17.15a2.64,2.64,0,0,1-.21.87c-1.51,1.62-1.72,4.76-5,4.32a3.31,3.31,0,0,1-1.78-2.87,12.72,12.72,0,0,0-7.6-6.61,6,6,0,0,1-.48-4.78c3.43-5.51,4.52-12,7.24-17.79,1.66-3.55,2.45-7.55,5.58-10.29.13.1.32.19.37.32,2.21,5.66,4.85,6.6,11,3.91,1.1-.48,2.26-1,2.12-2.41s-1.28-1.8-2.41-2.19c-2.3-.78-5.07.46-7.05-1.64,2.79-1.54,6-.86,9-1.73C56.52,179.24,58.29,179.48,59,177.53Z"/><path class="cls-6" d="M151,191.49c-7.6-3.05-13.81-8.45-20.65-12.74-4.34-2.72-7-2.66-10.11.79l-.3,0a2.68,2.68,0,0,1-.61-2.27c1.08-3.07,3.32-4.08,6.4-3.59,2.77.66,5.14,2.33,7.87,3.1a36.9,36.9,0,0,1,6.79,3.12c4.13,2.35,8.27,3.28,12.71.7a7.18,7.18,0,0,1,6.3-.19c8,3,16.74,4.27,24.31,8.67,2.68,1.56,5.83,1.32,8.74,1.71,7.93,1.05,15.67,3.16,23.74,3.54,5.77.27,11.57-.21,17.31.75,1.81.3,3.63.54,5.05,1.88,3.45,4.73,3.6,10.18,3.38,15.7-3.1-1.39-2.52-4.76-3.62-7.16-1.3-2.85-2.89-4.19-6-4.06a67.88,67.88,0,0,1-9.46,0c-5.22-.49-9.27,1.64-13,5-8.72-.14-16.91-3.55-25.57-4.08-1.81-.88-3.8-1.37-5.49-2.52-1.63-5-8.63-10.4-14-10.77a4.86,4.86,0,0,0-3.73,1C158.07,192.79,154.59,192.34,151,191.49Z"/><path class="cls-7" d="M74.26,209.44l1.8-2c2.3.19,3.72-1.32,4.71-3,1.52-2.5,3.37-2.82,5.8-1.67,4.15.88,6.88,2.63,4.69,7.5a1.68,1.68,0,0,0,.81,2.52c3.49,1.33,3.09,6.12,6.82,7.47,1.19.42.92,2.63.17,4.06l-1,1.09c-5.38,2.26-3.37,7-3.64,11-1.25,4-2.17,8-.83,12.17-.4,2.84.58,4.73,3.57,5.36a6.66,6.66,0,0,1,3.54,1.54c1.43,3.47,5,4.87,8.17,7.93a54.11,54.11,0,0,1-14.93.05c-1.72-.14-3.48-.43-3.7-2.54-.71-6.89-6.36-10.54-10.17-15.33-1-1.33-2.23-2.31-2.19-4.11,2.21-.36.91-1.95.88-2.91-.22-8.46-.25-8.46,7.55-12a2.71,2.71,0,0,0,1.6-2.19c-2.51-1.45-6.28.57-8.3-2.47-.26-2.24,2.75-5.15-1.66-6.56,2,1.46,2.49,3.23,1.48,5.33-.78,1.66.47,4.22-2.24,5-5.91-3.61-6.73-5.54-5.24-12.42Z"/><path class="cls-8" d="M281,204.43c3.43,8.78,6.92,17.44,12.21,25.44,4.15,6.27,5.32,14.22,9.69,20.55,1.31,1.71-.28,3.12-.46,4.67,1.6,7.91-1.39,11.52-9.59,11.58-1.2-2.06-3.28-3.29-4.77-5.08-1.68-3.11-2.94-6.35-6.72-8-2.42-1-1.65-3.93-1.41-6.19,1.07-2.62,1.91-5.2,1.26-8.17a5,5,0,0,1,3.21-6c1.4-.59,3.34-1.21,2.27-3-3.25-5.46-3.33-12.07-6.68-17.44-1.05-.93-2.52-1.2-3.49-2.26-.42-3.77-1.58-7.39-2.26-11.12a2,2,0,0,1,2.32-1.44C279.43,199.2,279.6,202.24,281,204.43Z"/><path class="cls-9" d="M99.06,224.39c0-2.18.14-4.56-3.11-4.32-1.33.1-1.89-.46-1.84-1.61.11-2.84-.52-4.88-4-4.72-1.34.06-1.12-1.18-.76-1.74,2.94-4.47,1.11-7-3.33-8.55-.7-2,1-2.77,2-3.92-1.78-2-2-5.51-5.83-5.73-1.69-.09,0-2.42-1.14-3.33a18.08,18.08,0,0,1,5-5c1.53,2.07-1.38,4.56,1,6,1.38,1.05,1.52,3,3,4,3.58-.34,5.76.74,5,4.88a3,3,0,0,0,.18,1.94c1.11,1.8,3.23,3.25,4.87,2.55,2-.87.22-3.05-.41-4.26a25.83,25.83,0,0,1-2.44-4.77c-.4-1.41,0-3,1.21-3.46s1.71,1.14,2.47,1.94c1.49,1.59.27,5.56,2.57,5.28,3-.38.43-4.38,2-6.29,5.08,3.63,6,6.8,2.51,11.43-2.35,3.11-2.84,7.42-6.64,9.65-.94.55-1,2.7-1.38,4.11C99.72,220.44,101,222.69,99.06,224.39Z"/><path class="cls-10" d="M241.93,212.62c-2.39-4.77-1-10.54-4-15.16-2.41-2.84-2.87-5.52.63-7.92,1-.66,2-1.46,1.59-2.79s-1.63-.68-2.55-.81c-3.45-.49-2.79-3-2.58-5.3a24.36,24.36,0,0,1,3.56-5.3c1.87-2.44,4.61-2.33,7.23-1.67,2.47.63,4.08,2.28,3.84,5-.15,1.64,0,2.42,2,2.28s3,1,3.64,2.75a2.55,2.55,0,0,1-.61,2,17.07,17.07,0,0,1-3.27,2.52,29.65,29.65,0,0,0-3.23,2.36c-1.33,1.43-3.12,2.56-3.14,4.82.74,1,1.55.35,2.28.15,1.86-.5,2.92.35,3.35,2,.56,2.17-.8,3.27-2.43,4.38-6.15,4.19-6.3,6.15-1.05,11,2.06,2.11,3.84,4.52,6.32,6.2C256.28,226,261.2,231,267,235.42c1.76,1.35,4.45,2.83,3,6-6.79-5.93-14.18-11.18-18.47-19.63C249.47,217.91,244.46,216.39,241.93,212.62Z"/><path class="cls-11" d="M92.07,98.57c1,1.72,1,3.35-1.11,4-5.14,1.52-9.27,5-14.07,7.12-1.66.74-3,1.08-4.53-.32-7.94-7.32-18-11.19-27-16.75-3.91-2.41-7.49-5.27-12.43-4.91-8.41-3.34-14-9-14.81-18.4-.26-3,.79-5.16,4-5.82.93,1.46.1,2.87-.2,4.27-.35,1.69-.48,3.52.92,4.6,2.59,2,4.36,4.65,6.68,7.9-.24-3.38-3.22-6.57,1.44-8a13.19,13.19,0,0,1,6.91,6.93c1.87,3.38,3.64,6.84,6.43,9.62,5.77,2.81,11.09,6.62,17.6,7.79A6.47,6.47,0,0,1,66,99.12c.39.53.74,1.1,1.17,1.61,5.2,6.11,7.18,6.28,14.42,1.29,2.64-1.07,4.52-3.19,6.74-4.86C89.78,97.06,91.3,96.81,92.07,98.57Z"/><path class="cls-12" d="M336.81,106.6,349,112.48c1.22,3.56,2.16,7.06,1.74,11-.35,3.32-1.4,4.47-4.71,3.08,2.55,1.23,3.95,2.38,1.21,4.6-3.41-.07-6.81-.35-10.21-.31-3.15-.15-4.26-2.1-4.38-5-.12-2.65,0-5.31-.08-8-.07-3.37-1.07-6.18-4.37-7.7a1.86,1.86,0,0,1-.57-1.3c1.28-1.62,3.27-2.6,4.16-4.58C334.28,103.22,335.14,105.81,336.81,106.6Z"/><path class="cls-13" d="M176.06,251.44c-3.84-7.84-3-15.88-1-24,.65-.76.37-1.83.91-2.63,1.27-2.07,3.31-2.92,5.52-3.52,3.61-.6,7.39-2.07,10.12,1.92.43,2.47-.89,4.15-2.57,5.66-8.25,2.35-9.09,3.6-8.67,12.62.1,2,.75,3.93.45,5.95,0,1.06-1.7,2.21-.5,3,1.52,1,2.48-1,3.72-1.57,2-1,4.53-.33,6.27-2.09,1.52-1.05,3-2.66,4.82-.44l2,2c1.28,3.07,0,4.91-2.75,6.33C187.15,258.41,179.72,257.15,176.06,251.44Z"/><path class="cls-14" d="M304.07,75.49c-4.29.72-8.18,3.25-12.91,2.24-2.42-.52-11.75,6.67-12.14,9.1-.44,2.66-3.25,3.16-4.1,5.8-1.16,3.63-4.13.36-6.3,0A10.33,10.33,0,0,0,262.38,94c-6.26,3.1-13.24,3.82-19.71,6.27-2.19.82-5.16-.43-7.77-.74,10.8-4.5,21.59-9,33.22-11a13.27,13.27,0,0,0,7-3.54c4.61-4.5,10.37-7,16.07-9.71C295.72,73.12,299.81,73.76,304.07,75.49Z"/><path class="cls-15" d="M92.07,98.57a5.88,5.88,0,0,0-4.15-.81.64.64,0,0,1-1-.3c4.6-1.76,9.56-1.3,14.21-1.41,17.68-.43,35.52-2.35,52.9,2.94,3.3,1,6.95.57,10,2.5l-.49.57c-4.36,1.89-8.51,0-12.63-.94a42.49,42.49,0,0,0-6.88-.89,39.77,39.77,0,0,0-10-2.55,4.7,4.7,0,0,1-2-1.07c-4-.09-7.24.84-8.13,5.41-.23,1.2-1.15,1.53-2.24,1.45-9.19-.72-18.7.44-27.19-4.58A6.32,6.32,0,0,0,92.07,98.57Z"/><path class="cls-16" d="M176.06,251.44c5.39,4.94,11.32,4.88,17.71,2.14,2.5-1.06,3.57-2.62,3.37-5.22,2.12,3.89,6.77,5.21,9.05,8.94-3.35.39-3,2.81-2.85,5.14-1.85,1.43-4.59.27-6.31,2.13a9.18,9.18,0,0,1-8.05-.08c-3-.11-5.67-3.48-9-1.15-4.15-1.26-5.41-4-4.4-8.13A33.82,33.82,0,0,0,176.06,251.44Z"/><path class="cls-17" d="M86.94,97.46l1,.3a6.61,6.61,0,0,1-5.87,4.82c-1.09.75-2.33,1.22-3.47,1.87-3.33,1.89-6.12,1.33-8.08-1.89A11.46,11.46,0,0,0,61.64,97a16.22,16.22,0,0,1-7.23-3c-3.47-2.49-7.3-3.59-11.32-4.42-2.36-3.12-4.77-6.19-6-10,2.29-.79,4,0,4.71,2.2.9,2.6,2.87,3.24,5.28,3.7,4,.77,8.13,1.32,11.8,3.36a1.7,1.7,0,0,0,2.23-.31c5.62,2.26,10.21,6.61,16.56,7.57C80.74,96.58,83.77,97.49,86.94,97.46Z"/><path class="cls-18" d="M29.21,211.51c1.5,1.43.65,3.29.91,5,.78,4.48,5.06,4.32,8,6l1,3c1.71,3.54-1,4.07-3.26,4.27-3.47.3-4.39,2.16-4.31,5.25s.27,6.27-1,9.26c-.55,3.32-2,5.05-5.56,3.25-1.27-3.69-2.21-7.38-1.34-11.38.62-2.89-.42-6.18.18-8.73C25.14,222,23,215.23,29.21,211.51Z"/><path class="cls-19" d="M320.94,141.46c-6,2.12-11.51,5.63-17.8,7.12-.46.11-1.16.35-1.25.67-1.71,6-7.22,4.44-11.1,4.91-3.35.4-5,1.53-6.05,4.33-4.8,3.87-5.4,9.63-6.77,15l0,0c-1.14,1.52-1.79,3.63-4.27,3.53-2.54-.82-2.86-2.61-1.75-4.67a26.25,26.25,0,0,0,1.78-5.11c1.94-1.86,3.37-3.65,3-6.83-.43-3.77,4.45-9.05,8.23-9,4.32.07,7-1.85,9.57-5,3.24-4.1,6.73-7.7,13-4.9,3.15,1.42,5.72-.79,7.59-3.45a36.86,36.86,0,0,0,5.46-.28c1.18-.07,2.44.11,2.66,1.62C323.5,141.14,321.72,140.78,320.94,141.46Z"/><path class="cls-20" d="M94,263.48h13.18c-4.39-1.12-6.27-4.06-7.06-8,3.69-1.91,8.34-1.58,11.44-4.89l.66-.27c3.59,2.94,8.38,2.36,12.32,4.2,2.13,1,5.37.94,4.7,5s-3.3,3.92-6.2,3.85a8.32,8.32,0,0,1-2.58-4.1c-1,3.48-3.31,4.69-6.3,5C107.41,264.15,100.65,265.2,94,263.48Z"/><path class="cls-21" d="M191,223.43c-3.07-3.13-6.69-.76-10.05-1-1-.46-2.33,0-3.07-1.22-2.3-3.84-.12-16.2,3.41-19a2.62,2.62,0,0,1,2.72-.72c5.41-.49,10.51.71,15.58,2.55,1.94.71,4.26.31,6.4.49,1.51.14,3.54-.7,3.93,1.85a2.44,2.44,0,0,1-.84.19,23,23,0,0,1-4.47.25c-1.72,0-3.44,0-5.16,0-2.31-.11-4.64.07-6.9-.55-2.51-.69-5-1.33-6.08,2.06-1,3.21.58,8.36,3.21,9,3,.72,5,2.46,6.93,4.49.85,1.55,3.45,3.28-.42,4.38A9.11,9.11,0,0,1,191,223.43Z"/><path class="cls-22" d="M61.09,88.54c-.29.4-.66,1.17-.84,1.13-5.94-1.37-12-2.53-17.75-4.41-2.4-.78-1.77-5.46-5.43-5.67-1.17-3-4.55-4.18-6-7-1.58-.63-2-2-2.32-3.5-.25-1.26-.72-2.69.58-3.6s2.15.08,3,.79c1.06.85,2.56.45,3.6,1.33.65.51,1.55.89,1.89,1.55C42.86,79,53.15,82.33,61.09,88.54Z"/><path class="cls-23" d="M44.29,220.58c-3-1.32-3.3-4-3.46-6.8-.23-4.08,1.94-7.57,2.61-11.45.56-3.16,6.53-4.08,8.52-.9s4,3,6.81,2.16c1.32-.4,2.17.47,2.31,1.87-4,3.31-9.1,5-12.47,9.34C47.14,216.69,45.83,218.74,44.29,220.58Z"/><path class="cls-24" d="M301,254.44c.52-1.41,2.1-2.29,2-4l3,1.93c2.4,1.58,3.88,4.45,7,5h0c1.77,3.8,3.48,7,8.9,4.66,3-1.3,5.58,1.52,6.19,5.61-1.2,5.19-5.57,4.24-9.19,4.73-.64-.41-1.3-1.07-2-.86-.58.16.06.74.11,1.14a18.77,18.77,0,0,1-11.2,0,4.12,4.12,0,0,1,.53-2c4.46-4.32,3.63-10.45-1.88-13.43C303.1,256.41,301.7,255.88,301,254.44Z"/><path class="cls-25" d="M269.92,241.45c-.48-3.29-3.18-4.91-5.45-6.64-5.32-4.06-9.91-8.55-11.53-15.34-1.29-2.17.51-2.82,1.87-3.48s3.05-.88,4.29-2a2.56,2.56,0,0,1,2,0c2.2,1.78,1.24,3.25-.29,4.91-3.39,3.67-3.4,6.14.55,9.35,3.78,3.06,6.88,7.14,11.87,8.6a4.7,4.7,0,0,1,2.76,2.68c3.2,1.62,3.62,5,4.92,7.82.14,2.66-.94,5.39,3.72,6.17,2,.34,4,4.52,4.28,7.81-3.42-.16-5.12-2.83-7.2-4.95C275.73,253.09,274,246.37,269.92,241.45Z"/><path class="cls-26" d="M327.91,108.73c0,.26,0,.51.06.76-1.91,1.49-4.14.34-6.21.73-2.24.42-3.74,1.11-3.64,3.66-.17,1.23-.42,2.41-1.66,3.05-3.62-.4-5.56-2-4.12-5.91.67-1.79.36-3.59.37-5.39,2-6.2-.19-13.08,3-19.1,3.45.27,2,3.16,2.55,4.93.8,2.81,1.43,4.21,4.35,1.46,3.95-3.72,4.14-3.51,8.31,1.65,2.5,3.74,2.42,8.75,5.88,12-2,.14-2.9-2.28-4.93-2-.84.2-1.29-.29-1.66-.94a7.23,7.23,0,0,1-.56-2.81c0-3.14-1.6-1.31-2.74-.88-1,.06-2-.16-3-.16-1.83,0-3.93-.17-4.53,2.08-.75,2.83,2.32,2.15,3.42,3.29.56.34-.34,1.85,1.39,1.47C325.78,106.34,327.41,106.76,327.91,108.73Z"/><path class="cls-21" d="M195.13,246.36c-1.77-1.12-2.85.42-4.15,1.07-5.9-.06-8.2-2.78-6.94-8.25.94-4.05.43-9,6.16-10.1,2.42-.7,5.16,2.54,7.38-.63a4.74,4.74,0,0,1,2.18-1.38,1.23,1.23,0,0,1,1.16.37c-.54,3-2.15,5.49-3.65,8A16.79,16.79,0,0,0,195.13,246.36Z"/><path class="cls-27" d="M151,191.49c3.63.07,7.23.33,9.85-3.13,1.08-1.43,3.2-1.23,4.68-.72a52.41,52.41,0,0,1,12.32,6.16c2.32,1.57,1.75,3.57,1.14,5.65-1.25,1.32-3.19,1.59-4.47,2.87-.2.09-.41.17-.63.25-3.68-9.46-12.4-8.87-20.2-10.08C152.71,192.34,151.68,192.41,151,191.49Z"/><path class="cls-28" d="M77,225.41c2-1.16.2-3.77,2-5,.63,0,.74.62,1,1,2,1.56,4.25,1.3,6.52,1.22,1.1,0,2.77-2.13,3.14.13.27,1.66,0,5.15-1.73,5.09-10-.33-7.74,6.77-7.87,12.38,0,1.95-.2,3-2.17,1.26-1.14-3.07-3.76-5.5-3.92-9C72.49,229.07,73.21,226.58,77,225.41Z"/><path class="cls-29" d="M36,67.62c-2.22.28-4.53.9-6.71-1.35q.9,3.17,1.81,6.33c-2.86,1.47-2,3.42-.62,5.35.71,1,2.5,1.88.79,3.18a2.53,2.53,0,0,1-3.87-1c-1.19-3.26-3.87-5-6-7.36-2.75-3-.27-6.25.71-9.33C27.46,62.34,32.15,63.55,36,67.62Z"/><path class="cls-30" d="M93.07,248.47c-2.64-4.25-1.84-8.21,1-12,2.64.29,4,3.5,7,3.07L112.2,250.3l-.36.28C105.47,250.9,99,252.14,93.07,248.47Z"/><path class="cls-31" d="M30.09,244.41c0-3.95.17-7.9-.06-11.84-.19-3.29,1.08-4.41,4.28-4.18,2.11.15,5,.91,4.8-2.94,2.33-.51,3-3,5-4-1.83,9.08-5.27,17.25-13,23C30.72,244.89,30.4,244.91,30.09,244.41Z"/><path class="cls-32" d="M46,181.42c2.15,0,4.3.07,6.45.07,2.69,0,4.72,1.54,5.13,3.83s-2.13,3.21-4,3.73c-2.67.75-5.46.81-8.12,1.94-1.57.67-3.22-.54-3.38-2.6-.13-1.65-.07-3.31-.1-5A5.85,5.85,0,0,1,46,181.42Z"/><path class="cls-33" d="M330.93,94.57c-3.15-4.44-6.56-2.77-9,.3-2.62,3.25-3.07.77-4.24-.88-1.6-2.25.42-5.31-1.73-7.41-1.59.49-2.11-.53-2.5-1.74a2,2,0,0,1,.52-1.28h6.91C324.92,86.58,329,89.58,330.93,94.57Z"/><path class="cls-34" d="M320.94,141.46c.53-.63,1.56-1.34,1.48-1.86-.24-1.4-1.42-.94-2.36-.64-1.76.56-3.51,1.18-5.1-.39a4,4,0,0,1,.75-1.27,6.46,6.46,0,0,0,1.93-2.81c.81-2.78,3-3.24,5.45-3.12s4.67,1.06,5.3,3.61c.77,3.15,2.56,4.41,5.67,4.09,3.31.37,6.89-1,9.87,1.52C336.32,142.39,328.59,140.94,320.94,141.46Z"/><path class="cls-35" d="M347.92,130.51c.27-3-1.7-3-3.84-3-.81,0-1.8-.1-1.7-1.23s.9-1,1.82-1.09c1.81-.09,4.94,2.5,5,.37.05-3.06,2.06-6.38-.18-9.5-.69-1-3.12-2.4,0-3.57,1.77.75,3.61,1.38,4.67,3.17.16,4.19,2.21,7.87,3.18,11.84l-.05,1C353.81,129.13,351.3,131.76,347.92,130.51Z"/><path class="cls-36" d="M51.05,101.57c5.76.41,13.57,6.87,15.1,12.26.84,3,4.79,5.89-.25,8.64,1-4.51-1.19-7.52-4.4-10.38C57.83,108.8,54.52,105.1,51.05,101.57Z"/><path class="cls-37" d="M77,225.41c-1.9,2-3.3,4.18-3,7.1-6.4-6.08-7.07-12.54-2-19.19C71.23,218.37,74.05,221.92,77,225.41Z"/><path class="cls-38" d="M351.09,136.7c-1.22,1.2-2.22,2.72-4.18,2.8-3.41-.47-7.24,1.15-10.08-2.05,2-2.26,1.13-4.44-.18-6.62a1.23,1.23,0,0,1,1.07-.76c4.38-1.09,8,2.18,12.32,2.17C352.63,132.23,350.91,135.11,351.09,136.7Z"/><path class="cls-39" d="M101,239.53c-3.53,1.73-5.2-.78-7-3.07-1.75-4.41-2-8.5,2.27-11.79,1.27-1,1.61-.39,1.78.81C98.21,230.34,96.57,235.57,101,239.53Z"/><path class="cls-40" d="M351.09,136.7c-.76-2.13-.92-4-4.57-3.5-3,.42-5.67-3.86-9.54-2.72q-.42-.28-.3-.6c.08-.22.16-.33.25-.33,3.69,0,7.41-.28,11,1,3.07-.15,5.4-3.55,8.85-2C357.43,133,353.31,134.2,351.09,136.7Z"/><path class="cls-41" d="M328.09,267.61c-1.79-2.85-2.4-8.21-7.66-3.05-1.61,1.58-3.55-.84-5.34-1.35-3.11-.88-2-3.69-2.09-5.87,4,1.41,8.15,2.5,11.93,4.37C326.89,262.68,330.2,264,328.09,267.61Z"/><path class="cls-42" d="M274,176.49l4-3c-.19,5.57.46,11.24-1.74,16.6-.67,1.63.64,2.81.89,4.22l-.64.39c-2.66-.49-3.35-2.3-3.13-4.7s.7-4.54.73-6.84C273.28,181,270.22,178.79,274,176.49Z"/><path class="cls-43" d="M200.92,227.44l-.94,0c-1.27-.89-1.76-2.32-1-3.46,3.21-4.76,1.51-11.11,5.23-15.71.55-.68-.06-2,.76-2.75,1.44.08,3-.45,4.1,1Z"/><path class="cls-44" d="M356.82,127.49c-4.17-6.35-4.48-7.48-3.18-11.85C360.78,118.68,361.44,121.13,356.82,127.49Z"/><path class="cls-45" d="M336.82,136.6c2.85,2.75,7.05.83,10.09,2.9l-3,1.09-10.83-.28a7.18,7.18,0,0,1-.92-.33c-1.42-.71-3.61-1.17-3.11-3.15.45-1.81,2.62-1.55,4.22-1.56A4.13,4.13,0,0,1,336.82,136.6Z"/><path class="cls-15" d="M189,102.58c-1.09,2.3-3.19,2-5.16,2H167c-1-.94-3.48-.39-3.08-2.88l.14-.18c2.93.42,6,.46,8.76,1.35C178.32,104.59,183.62,102.5,189,102.58Z"/><path class="cls-24" d="M281.74,256.47l7.2,4.95c1.72,1.34,4.68,1.68,4,4.95,1.64.77,3.12,1.67,3.33,3.72-.16.74-.81,1-1.35,1.32-3.12-.17-3.11-3.26-4-5C288.65,262.23,283.25,261.15,281.74,256.47Z"/><path class="cls-46" d="M203,262.39c.24-2-2-2.75-2.31-4.46,1.74-1.38,3.66-.69,5.52-.63,3.43,3.37,3.21,4.43-1.25,6C204.45,262.69,203.41,263.17,203,262.39Z"/><path class="cls-27" d="M176.1,225.49l-1,2c0-8.32,0-16.65-1.16-24.91l.21-.17a2.66,2.66,0,0,1,2.93,2.72C176.88,211.91,178.39,218.8,176.1,225.49Z"/><path class="cls-47" d="M114.14,264.23c2.61-1.45,5.75-2.51,4.81-6.73a7.22,7.22,0,0,1,4.07,5.86A19,19,0,0,1,114.14,264.23Z"/><path class="cls-42" d="M278,173.53c-.69-6.17,2.26-12.71,6.77-15C281.39,163,280.44,168.61,278,173.53Z"/><path class="cls-48" d="M30.09,244.41H31a3.17,3.17,0,0,1,0,1c-.52,1.8,2.11,4.25-.24,5.29-2.59,1.15-4.37-1.15-5.79-3.2C27.48,247.72,29.35,247,30.09,244.41Z"/><path class="cls-49" d="M180,263.34c-.31-.89-1.52-1.38-1.1-2.77,3.66,0,6.52,2.79,10.09,3.08.09,0,.22.26.23.4s-.13.29-.19.44C185.89,264.71,182.94,263.87,180,263.34Z"/><path class="cls-50" d="M294.93,271.41l1-1c3.87-1.82,7.46-.76,11,1.09l-1.13,1.12C302.14,272.29,298.4,273.06,294.93,271.41Z"/><path class="cls-42" d="M281,204.43l-4.12-6c-.94-1.27-1.2-2.56-.11-3.9l.32-.25A32.47,32.47,0,0,1,281,204.43Z"/><path class="cls-51" d="M203,262.39l2,.95a20.68,20.68,0,0,1-7.91,1.22C198.24,261.73,200.43,261.57,203,262.39Z"/><path class="cls-41" d="M313,257.35c-3.74.29-5.21-2.59-7-5C308.92,253.16,310.54,255.83,313,257.35Z"/><path class="cls-52" d="M317,272.62c-.78-.46-2.15.32-2.41-.84-.1-.46.84-1.44,1.5-1.72,2.18-.92,2.1,1.24,2.84,2.28Z"/><path class="cls-53" d="M212,162.51c-3.07.88-6.86-2.77-9.44,1.49a1.5,1.5,0,0,1-1.34-.11c-4.14-5.88-11.82-2.33-16.7-7.1,0-1,2.66.27,2.48-2.79.17,1.15.16.87.13.87-7.52-.73-1-4.87-1.75-7.23-.15-.44-.14-.94-.28-1.39-1-3.16-5.77.58-5.38-1.9.44-2.74.83-4.06-2.21-4.38.32-1.81,1.64-1.22,2.45-1.58,1.64-.73,3.86-1,3.85-3.33,0-2.55-2.27-2.17-4-2.64-2.6-.68-5.86-1.1-4.9-5.3.24-1.07-.69-1.79-1.33-2.56-1.61-1.94-3.77-4.34-1.9-6.56a8.29,8.29,0,0,1,8-2.78,92.51,92.51,0,0,0,9.82,1.27c1.38.11,3.22.73,4.12-.85,1.16-2.06-1.53-2.56-2.2-4.5,4.8-.11,7.8-4.6,12.64-4.58.48,1.46-.81,2-1.49,2.85-.86,1.09-2.87,2-1.58,3.63a5.41,5.41,0,0,0,5.25,2.18,9.45,9.45,0,0,0,2.66-1.32c7.66-4.14,9.78-3.74,14.78,3.35,1.61,2.28,2.72,4.78,5.48,6.14,2.3,1.13.7,4,1.87,5.89,1.93,3.2,3.43,6.65,6.23,9.26-3.25,3.29-6.82,2.36-9-.66-2.73-3.82-6.74-6.68-8.46-11.29-.7-1.87-1.57-3.61-1.49-5.68a2.9,2.9,0,0,0-2.92-3.31c-2.76-.23-9.7,5.86-9.84,8.64a3,3,0,0,0,.86,2.26c1.66,1.22,3.33,1.67,1.39,4.75-3.63,5.77-.77,16.08,4.8,20.73a2.53,2.53,0,0,1,1,2.12,5.58,5.58,0,0,0,.23,4.7C214.49,162.36,214,163.41,212,162.51Z"/><path class="cls-54" d="M163.93,101.67l3.08,2.88c-4.71-1.26-9.8.66-14.41-1.83-.82-.44-2.45-.69-3,.73-.47,1.11.8,1.65,1.3,2.46,1.18,2,4.72,2.3,3.86,6.27-2.28-2.34-5-2.62-7.64-3.13-1-.2-2-1.7-3.06-.22s.14,2.81.74,4.11c.69,1.49,1.8,1.94,3.22,1,3.11-2,4.37-2.07,4.7,2.44.16,2.2,3.93,2.42,6.43,2,4.35-.79,6.75.88,6.86,5.32a6.31,6.31,0,0,0,2,4.39c.72.76,1.28,1.87-.24,2.28-3.6,1-2.14,4.12-2,5.9.16,1.62,1.23,2.76-.7,4-.94.62-.93,1.51.43,2.19,5.68,2.84,6.24,4.33,4.52,11.06a3.37,3.37,0,0,1-2.78.11c-1.91-.54-3.7-1.46-5.66-1.89-1-.2-2.29-.39-2.51-1.37-1.12-5-5-6.58-9.18-8a3,3,0,0,1-2.35-2.91c.09-7.66-5-12.16-10.77-18.08.51,5.77-3.75,5-5.93,6.54-.31,2.94,7.88,4.7.88,8.16-1.35-.62-2.09-2.76-4.15-1.67a6.79,6.79,0,0,1-3.32-.1c-2.43-.9-4.49-3-7.43-2.26a2,2,0,0,1-1.16-.65c-1-2.69.63-3.49,2.82-4s4.56-.33,6.47-2c-.84-1.91-2.78-2.91-3.46-4.79-.29-.35-.56-.72-.84-1.09-4.37-5.19-10.91-5.74-17.27-8.21,1.72,1.53,4,2.1,3.1,4.41-.81,2.14-3,2.14-4.66,1.89-3.78-.58-7.12-.19-9.76,2.88-1.42-.31-3.56.82-3.8-1.88-.35-4.09,2.15-8.49,5.4-9,8.21-1.32,16.37-2.42,24.62.36a15.42,15.42,0,0,0,12.91-1c3-1.69,4.21-3.57,2.22-6.74a8.43,8.43,0,0,1-1.34-5.68h2c3,2.06,6.76,1.62,10,2.94,3.71-2.17,7,.59,10.31,1.22A36.69,36.69,0,0,0,163.93,101.67Z"/><path class="cls-55" d="M237,138.52a5.71,5.71,0,0,0-3.38-1.92c-.62-.18-1.82-.46-1.81-.48.84-3.58-3.25-5.75-2.95-8.55s.45-4-2.59-4.19c-1.55-.11-2-1.41-2.3-2.83-.87-3.86-4.12-6-6.93-8.09-2.47-1.81-5.42.7-7,2.27-4.12,4.23-7.42.77-10.93-.43-1.72-.59-.45-2,0-2.91,1-2.2,3.27-3.2,4.88-4.83,4.69-.64,9.43-.78,14.08-1.89,5.22-1.26,10.07,1.18,15.05,2.14a3.08,3.08,0,0,1,2.45,2.3c1,5.76,4.79,3.21,6.91,1.82a31.68,31.68,0,0,0,5.92-4.28c1-1,2-2.66,3.42-.36,1.13,1.84,1.32,3.49-1.1,4.35-2.18.77-4.4,1.42-6.63,2-3,.82-4.12,2.94-1.9,5,3.35,3.11,1.56,7.43,3.45,10.86,1.23,2.23-2,2.73-3.95,4.14,5,2,8,.46,10.28-3.14,2.49.11,2.6,1.81,2.47,3.67-1.17,1.5-3.05,1.85-4.52,2.87,1.25-.5,2.37-1.27,3.66-1.7s2.47.56,3.75.62c1.95.58,3.33,2.07,5,3.15a2.67,2.67,0,0,1,.92,2.51,2.29,2.29,0,0,1-1.62,1.26,14.32,14.32,0,0,0-9.06.88c-2.79,1.26-6.22.67-9-.91C241.35,140.69,238.74,140.42,237,138.52Z"/><path class="cls-56" d="M168,152.52l2,1c1.27,2.08,4.55,3.17,3.2,6.57-.1.24.7,1.11.72,1.1,4.45-2.76,7.19,4,11.47,2.06.75-.34,2.11-.67,2.17.16.45,5.78,5.08,3.18,7.91,4,1.1.34,2.55.16,3,1.39,2.19,6.27,7.2,1.67,10.7,2.81.13,0,.54-.75.82-1.16-.56-1.82.59-2.5,2-3,2.15-1.67-.24-3.33,0-5,2.52-.35,1-1.42.33-2.15-1.63-1.65-1.32-2.88.65-3.87,3.53,1.49,5.42,3.61,3,7.52-1,1.6,0,3.17.36,4.73,0,1.43-1,2.34-1.71,3.41-.54.82-1.13,1.65-.35,2.64a.8.8,0,0,0,.87.26c1.11-.36,1.26-1.39,1.52-2.32a8.59,8.59,0,0,0-.06-4.82c.59-1.64,1.64-3.19,3.46-2.34,2.76,1.3,1.59,3.76,1.08,5.9-.71,2-1.37,4.1-2.21,6.09-.68,1.59-1.77,3.39-3.53,3-3.85-.78-5.81,1.8-8.11,3.86a19,19,0,0,1-6.16,4.14c-1.1.39-2.37.89-3.2-.3-1-1.42.08-2.46,1-3.43,1.77-1.84,4.81-2.46,5.44-5.46-1.06-1.4-2.2-.47-3.18-.13-2.12.73-3.89.79-5.09-1.5-1.76-3.33-4.08-2.4-6-.41s-4.08,3.36-7,2.22c-.3-.12-.77-.21-1,0-6.09,5.18-11-.42-16.43-1.7-1.69-1.67-2.15-4-3.34-6-1.33-2.22-1.32-4.95,2.41-5.5a8.79,8.79,0,0,0,5.09-2.48c-2.75-.17-5.3.1-7.82-.18-1.47-.17-3.39-.24-3.31-2.23s2-1.9,3.46-2.1a23,23,0,0,1,3.33.19c-1.93-.63-3.53-1.46-3.5-3.34,0-1.72,1.82-1.7,3-2A5,5,0,0,0,168,152.52Z"/><path class="cls-57" d="M259,114.52c-.73-.36-1.8-1.4-1.11-1.64,3-1.06,1.77-3.49,2.11-5.4,2.41-.41,4.55-1,2.78-4.19a2.12,2.12,0,0,1,.15-2.72c5.34-3.44,12.3-3.44,17.1-8,.47-.45,1.41-.92,1.37-1.3-.78-6.67,4.74-6.2,8.55-7.65a8.83,8.83,0,0,1,.56,4.49c-.73,2.48-3.09,3.3-4.81,4.79-2.22,3-4,6.35-6.66,9.07-4.26,4.39-1.4,9.25-.88,14a11,11,0,0,1-.18,3.39c-.49,2.12-1.28,4.13-3.59,4.79-2.51.72-3.32-1.41-4.42-3-.38-.52-.84-1-1.26-1.47a14,14,0,0,1-2.6-3.6c-1-1.58-.71-4.94-4.17-2.8C261.15,114.11,260,114,259,114.52Z"/><path class="cls-58" d="M263,140.47,262,138.53a43.86,43.86,0,0,0-6-5.49c-1.17-2.42-4.22-4.1-3-7.49a41.18,41.18,0,0,1-1.82-5.09c-.3-1.31-1.94-3-.18-4s3.05.64,4.12,1.86a7.34,7.34,0,0,1,.89,2.24c0,1,1,1,1.53,1.49,4.45,5,10.2,8.86,13.68,14.77,2,1.94,4.23,3.6,6.41,5.33a5.25,5.25,0,0,1,1.18,1.89c.7,2.87.1,5.24-2.74,6.61-3.52,1.7-4.84-1.69-7-3.12C266.87,145.29,264,143.7,263,140.47Z"/><path class="cls-59" d="M290,87.58a3.24,3.24,0,0,1,0-4c6.28-.84,12.43-2.7,18.88-2,1.94.2,4-.23,5.11,2,0,.35,0,.69,0,1-1.24,2.26-1,6-5.28,5.19-1.78-.3-3.39,0-4.12-2.81s-3.92-2.31-6.41-2C294.9,84.36,293.21,88.44,290,87.58Z"/><path class="cls-60" d="M262.93,100.57c.39.88.71,1.79,1.17,2.63,1,1.83,1.51,3.83,0,5.43-1.77,1.89-2.51-1.49-4.11-1.15a10.43,10.43,0,0,0-1.18-2.19c-1.43-1.62-2.43-3.75-1-5.3C259.08,98.68,261.28,99.64,262.93,100.57Z"/><path class="cls-61" d="M256,121.53c-.68-.32-.7-.65,0-1,1.44.07,2.29-1.07,3.42-1.65,3.56-1.83,2.34-3.14-.38-4.37l2-2c2.62-.25,3.65,2.66,6,3,.68,1,1.35,2,2,3l-.48.43c-2.81,0-1.2,3.24-2.93,4.07C262.25,123.19,258.81,124.26,256,121.53Z"/><path class="cls-53" d="M212,167.51l-2,3c-2.16.12-4-.53-4.55-2.8-.28-1.17,1.18-1.37,1.95-1.89C209.68,164.26,211,165.51,212,167.51Z"/><path class="cls-62" d="M253,125.55c.75,2.65,2.46,4.78,3.9,7a2,2,0,0,1,.14,2.91c-1.8,2.06-1.94-.84-3-1-.26-.2-.35-.4-.28-.62s.14-.33.22-.33a5.3,5.3,0,0,0-2-4C251.45,128,249.57,126.12,253,125.55Z"/><path class="cls-63" d="M92.05,120.55c.75-3.28,2.66-4.84,6.11-4.13a2.61,2.61,0,0,0,1,.1c2.18-.41,5.64,1.32,6.31-1.1.84-3-3.59-1.75-4.85-3.58,3.48-3.19,16.45,1.48,21.42,7.71-4,3.13-8.92,1.48-13.37,2.12-5.45.78-6.84,1.92-6.45,7.56.1,1.32.3,2.62.27,4,0,1.17-2.47,3.4,1.29,3.14.51,0,1.07,1,.86,1.61-.84,2.44.39,4.41,1.08,6.6.81,2.53-.85,4.38-2.65,6-1.93-3.24-4.27-3.53-7-1L95,148.57a7.73,7.73,0,0,1,1.25-1.51c1.23-.89,3.88-.53,3.39-2.86-.43-2-1.22-4.18-3.27-5.39-1-.6-3.18.17-3-1.79.2-2.9,3.25.94,3.85-2a5.3,5.3,0,0,1-2.2-6.15A7.38,7.38,0,0,0,92.05,120.55Z"/><path class="cls-64" d="M103.06,150.5c3.93-4.06-1.5-8.57.53-12.95.4-.86-1.88-1.1-2.54.55-.37.94-.94,1.4-1.85.79s-.56-1.55.11-2.06c2.77-2.14,2-5,1.67-7.76-.86-6.13,1-8.37,6.9-8.56,4.72-.16,9.43-.63,14.15-1h0c-.55,3.76-4.61,6.46-9.9,6.58,2-.11,4.07-.34,3.08,2.77a2.26,2.26,0,0,0,.84,2.62h1c2.68-.55,4.6,1.53,7,2l4,0a1.82,1.82,0,0,1,.08,2.24c-1.6,1.2-3.44,1-5.27,1a8.26,8.26,0,0,1-2.84-.57c-2.8-1.21-3.75.21-4.3,2.69-.48,2.2-.06,4.58-1.36,6.6-3.59.89-4,2.72-1.7,5.48,2.9,3.43,5,7.91,10.35,8.23a3.29,3.29,0,0,1,1.39,3c-.58,1.27-1.75,2-2.61,3.06a2.55,2.55,0,0,1-1.16.61,4.28,4.28,0,0,1-3.56-1.41c-5,1.32-4.74-3.85-6.55-5.92C108.09,155.83,105.89,152.88,103.06,150.5Z"/><path class="cls-65" d="M117.05,164.5a6.29,6.29,0,0,1,4,1c-.62,2.87-2.83,4.92-3.83,7.68-1.17,3.28.27,3.92,2.82,4.29,0,.68,0,1.35-.07,2-1.4,2.33-2.45,4.92-5.08,6.6C110.47,178.3,115.49,171.56,117.05,164.5Z"/><path class="cls-5" d="M90.06,195.47c-3.2.32-3.07-1.87-3-4l4.09-5.82Z"/><path class="cls-31" d="M38.07,222.47a10.36,10.36,0,0,0-1.93,0c-4.89.84-7-1-6-6,.25-.21.46-.52.74-.6C32.67,215.35,38.1,220.35,38.07,222.47Z"/><path class="cls-66" d="M88,199.53c.14,1.71-1.35,2.6-2,3.92-3-1.34-3.72,1.27-5.34,2.69-1.1,1-2,5-4.63,1.32C79.67,204.25,82.24,199.47,88,199.53Z"/><path class="cls-67" d="M166,177.49a8.64,8.64,0,0,1,7,2,8.08,8.08,0,0,0,2.06,1.38c.55.23,1.7.34,1.81.13,2.64-5.39,8.89.22,12-4.08,3-4,6.09-3.78,8.19.5,1.45,2.94,3,.58,4.5.41s3.41-2.2,4.48-.29-.21,3.83-1.85,5.17c-1,.84-2.2,1.49-3.27,2.27s-2.61.95-2.5,3c5.26-.14,7.79-4.53,11.19-7.29,1.7-1.38,2.62-2.79,4.95-1.22,1.93,1.32,2.66-.64,3.23-1.88.89-1.95,1.48-4,2.19-6.07.82-.93,1.28-2.52,2.94-2a2.73,2.73,0,0,1,1.82,3.13c-.41,4.18,2,8.9-2.3,12.36-3.42,1.7-6.16,4.53-9.79,5.88-.4.34-1.42,1.06-.86,1.14,3.59.46,7.23.5,10.86.68,1.68.09,1.9-2.09,3-3.09,2.2-1.59,2.29,3.61,4.65,1.45s.75-4.51.75-6.8c2.05-.71,2.62-3.4,5-3.72.6,1.77-1.77,6.7,3.64,3.37a1.38,1.38,0,0,1,2.2,1.13c.12,1.73,1,4.56-.82,5-5.21,1.16-4,4.24-3,7.51-4.1-1-8.45-.83-12.43-1.46-7.17-1.14-15,2.08-21.6-2.84a3.3,3.3,0,0,0-1.88-.19c-7.93.38-15.1-1.5-22.53-4.71-7.13-3.09-14.94-5.14-22.57-7.25a2.57,2.57,0,0,0-1.88,0c-7,5.19-13,1.64-19-2-1-.59-2-1-3-1.54,1-1.18,2.35-.91,3.63-.93,1.7,0,2.37-.83,2-2.5-1.21-6.24,6.54-15,13.07-14.66,2.67.13,3.53,2.22,2.68,4.17-1.3,3-1.82,6.7-6.5,8.16C155.41,171.22,161.22,172.86,166,177.49Z"/><path class="cls-65" d="M140,174.49c1.12,2.71-.41,3.56-2.7,3.58a27.3,27.3,0,0,1-4.28-.57c-2.81.11-4.73-1.87-7-3,5.37-2.83,5.47-6.82.94-11.4-2.17-2.2-2.48-5.67-3.07-8.76,5-1.64,6.11-1,8.43,2.88,2.62,4.38,8.26,7.37,5.65,14C137.62,172.12,139.3,173.38,140,174.49Z"/><path class="cls-68" d="M124,154.52c.12,2.5,5.15,3.29,2.44,6.85-.06.08.54,1,.82.95,5-.17,3,3.71,3.86,6.16,1.82,5.31-.53,6.5-5.14,6-2.64-.3-4.77.43-6,3-1.63.87-3.6,1.81-5,.55-1.73-1.5.89-2.67,1.13-4.21.52-3.31,1.5-6.6,4.92-8.31l0-.06c1.21-.27,1.61.65,2.11,1.43.67,1.25,1.1,2.68,2.6,3.27.88.34,1.88.92,2.5-.22s-.26-1.76-1-2.4c-1.53-1.4-3.32-2.62-3.25-5l-1-3a4.69,4.69,0,0,1-1.89-3.05,3.72,3.72,0,0,1,.58-2.84C122.88,152.91,123.53,153.53,124,154.52Z"/><path class="cls-69" d="M176.1,225.49,176,207.64c0-2,.27-4-1.9-5.24.17-3.41,2.75-2.8,4.88-3,1.92.05,4-.31,5,2-4.61,3.69-7.55,15-5,19.68.33.61,1.31.87,2,1.29Z"/><path class="cls-70" d="M93.07,248.47c6.15,1.64,12.68-.05,18.77,2.11-2.27,5.59-7.21,4.75-11.74,4.88C92.47,254.9,91.29,253.72,93.07,248.47Z"/><path class="cls-71" d="M80,221.42l-1-1c-.15-1.45.85-3.43-1.91-3.6-.94-.06-2.07-.7-1.5-2a2.16,2.16,0,0,1,2.92-1.09C82.22,214.91,82.71,217.32,80,221.42Z"/><path class="cls-72" d="M275,240.43c-.27-2.38-2.46-2.26-3.95-3.17-5.18-3.17-10-6.66-13.39-12-1.88-3-.74-4.34,1.21-6.2,1.22-1.16,4.11-1.77,2.11-4.52.09-1.58,2.87-1.89,2.1-3.57-.92-2-3.1-1.68-4.88-1.36-2.55.46-5.22-1.66-7.67.41-2.25.21-4.29-.54-4.5-2.85s2.15-2.63,3.93-2.9c2.2-.33,4-1.51,6.05-2.26,1.6-.6,3.78-.94,4.23,1.12,1,4.5,2.86,1.13,4.48.8-2.92-1.57-4.31-4.95-8.54-5.06-3-.07-2.15-3-.38-4.82,2.16-1,4.57-1.3,6.77-2.22,1.11-.36,2.23-.67,3.3-1.13,1.29-.51,2.57-1.12,4-.65,2.88.91,5,2.24,3.92,5.9-.39,1.3.41,2.5,1.19,3.57,1.8,3.42,3,7,2,10.88-4.28,1.65-3.61,7.84-8.7,9,2.12,2.83,6.05,1.33,7.85,4a1.47,1.47,0,0,1-.79,1.72,5.17,5.17,0,0,1-2.73.24c-2.57-.23.36,1-.33,1.31-.7,2.49,1.06,2.19,2.51,2.24,1.2,0,2.37.18,2.71,1.6a2.09,2.09,0,0,1-1.57,2.66c-2.56.93-.5,2,0,2.88C277.44,238.88,277.46,238.86,275,240.43Z"/><path class="cls-73" d="M275,240.43c3.42-2,.25-3.53-.66-4.49-2.2-2.3-3.87-3.87,1.11-3.87.75,0,1.34-.16,1.35-1,0-1.07-.61-1.54-1.59-1.15-2.28.9-4-.12-6.1-1.42l2.89-2c.22-1.69,3.21.74,2.8-1.88l1.19-1.11c.18-1.75,1.86-2.22,3.05-3.2-1.31-.6-2.38-.14-3.45,0a4.4,4.4,0,0,1-3.4-.46c1.25-4.59,3.61-8,8.84-8.41,3.76,6,3.62,13.41,7.5,19.37,1,1.57.3,3.27-2.06,3.29-3.9,0-4.78,2.29-3.86,5.53a7.9,7.9,0,0,1-1.62,7.8c-.73-.28-2.11-.77-2.09-.81C280,243,276.11,242.56,275,240.43Z"/><path class="cls-25" d="M306.9,271.46c-3.74.44-7.29-1-11-1.09-1-1.33-2-2.66-3-4a21.6,21.6,0,0,1,2.32-.87c6.46-1.62,7.22-3.08,5.71-11.06,1.95.83,4,1.56,5.84,2.53,4.38,2.26,2.63,7.3,4.54,10.81C312.2,269.31,307.49,269,306.9,271.46Z"/><path class="cls-74" d="M275,199.48c-2-.15-3.75-1.74-2.78-3.09,2.54-3.56-.95-4.2-2.23-5.93-.17-1.66.77-3.31-2.65-3.46-3.66-.17-6.89,1.63-10.44,1.16-1.22-.62-3.09-.54-2.89-2.68l1-1c3-4.65,6.89-6.91,12.42-4.1,2.68,1.37,5.79,1,8.54,2.1,0,4-4.17,8.4.88,12.09,0,1.3.08,2.6.11,3.9A2,2,0,0,0,275,199.48Z"/><path class="cls-75" d="M275.91,219.47c2.22-2,3.79-.75,5.62,1.07l-5.59,2.93c-2.09-.41-4.19-.75-6.25-1.27-1.7-.43-3.22-1.49-3.27-3.29-.06-2.06,1.9-1.22,3-1.43s1.88-.11,1.79-1.63c-.21-3.94,2.09-5.44,5.71-5.49l4,1.09c-.07.31-.1.89-.22.91-4.29.69-5.28,5.48-8.82,7.08C273.25,221.27,274.58,220.48,275.91,219.47Z"/><path class="cls-76" d="M275.93,182.49c-3.63,1.76-7.22.21-10.16-1.24-3.84-1.9-6-.7-8.18,2.07a3.28,3.28,0,0,1-2.62,1.17c-1.66-4.21-4.74-1.89-7.78-1.18.38-3.16,3.75-6.6-.82-8.41-4-1.58-7-.2-8.56,4-.25.67-1.21,1.08-1.84,1.6-1.18,1.94-1.49,5-5,4-4-.63-3.33,3.33-5,5-.21,3.63-1.45,5.27-5.66,4.43-3.62-.71-7.5-.14-11.63-.14.38-2.49,1.8-3.42,3.37-4.23,2.28,2.41,5.26,1.93,7.92,1.43,4.22-.8,1.87-4.12,2-6.47,3.44-4,1.51-8.76,1.5-13.06,0-3.18-2.25,0-3.5.06a6.79,6.79,0,0,1,.27-1.44c.54-1.24,1.27-2.76-.08-3.58-1.84-1.1-2.35.93-3.2,2a.61.61,0,0,1-.93.07c-1.81-.82-2.9-2.88-1.8-4,3.61-3.59.55-5.63-1.28-8.07.09-3.14-6.2-1-4.51-5.48-5.62-4.68-1-11.11-2.79-16.47-.6-1.79.84-2.88,2.93-3.38L205,129.53c1.46-3.08,4.17-5.23,6-8.09,1.55-2.44,4.11-1.52,5.45,1.77a35.35,35.35,0,0,1,2.33,8c.86,6,4.74,11.26,4,17.71-.5,4.39,3.07,6.11,7,3.78a36.38,36.38,0,0,0,5-4.14c5.57-4.81,12-4.38,16.49,1.48,2.4,3.14,4.77,5.08,9.06,4.81s7.29,4.49,5.74,8.61c-.82,2.19-1.84,3.52-4.24,5.6,3.3-1.19,6.25-4.19,10.44-2.86a3.23,3.23,0,0,1,1.73,1.31c1.12,1.74,1.08,3.12-.63,4.69-1.48,1.36-1.79,3.19.64,4.28C271.78,179.43,274,180.9,275.93,182.49Z"/><path class="cls-77" d="M254,185.48l3,2a5.49,5.49,0,0,1-1.95,3.82c-2,1.83.16,2.34.9,3.31-.83,2.17-2,4.66,2.23,3.34,1.78-.54,3.17-.88,3.54,1.68.22,1.56,1.57,2,3,1.93s2.23.6,2.17,2.1a2.54,2.54,0,0,1-2.37,2.73c-2.12.22-4.25.29-6.44.42-1.27-1.78,3.08-2.22,1.07-3.84-1.59-1.28-3,.22-4.46,1.07a13.53,13.53,0,0,1-3.68,1.4c-1.51.38-4.12-.55-4.23,1.45s2.45,2.24,4.23,2.58a1.68,1.68,0,0,1,2.13-.09c1,3.59-2.61,3.1-4,4.56a2.14,2.14,0,0,1-2.15-.42c-3.2-.43-4.42-2.87-4.82-5.5s1.12-4.69,3.56-5.93a28.43,28.43,0,0,0,3.42-1.9c1.13-.8,1-2,.49-3.13s-1.44-1.09-2.37-.28-2.18,2.42-3.65.59c-1.19-1.47-.17-2.84.55-4.09a10,10,0,0,1,3.82-3.78c1.56.18,2.92.05,3-2Z"/><path class="cls-78" d="M247,213.47l2,0c2.59-1.68,5.27-1.06,8-.31a3.36,3.36,0,0,1,2,1.46c.91,1.78-.18,1.83-1.52,1.89-2,.11-4,.46-4.46,3C249.65,218.76,248.34,216.08,247,213.47Z"/><path class="cls-74" d="M250.91,187.44c2,.22,1.67,1.22.48,2-1,.65-2.32,3-3.44,0Z"/><path class="cls-79" d="M43.09,89.56c5.55-1.79,9.39,1.9,13.53,4.39a18.58,18.58,0,0,0,6.87,2.62c3.51.53,6.76,1.19,8,5.43.67,2.28,2.85,3,5.34,2.16,1.71-.61,3.47-1.06,5.21-1.58-6.49,6.32-11.28,6-16.13-1.51a7.71,7.71,0,0,0-5.47-3.6C54.13,96.11,48.74,92.49,43.09,89.56Z"/><path class="cls-80" d="M336.93,129.55c0,.31,0,.62.05.93l-.07.11c-3,2.19-6.41,1.55-9.57,1a21.7,21.7,0,0,0-9.29.17c-2-2.49-1.14-4.54,1-6.38,1.86-.24,3.47.93,5.34.93,2.62,0,4.56-.9,5.51-3.39.76-2,1.75-4.66-.19-6-1.74-1.19-3,1.42-4.36,2.46s-2.11,3.55-4.63,3.22c-1.71-2.85-1.09-6.66-3.8-9.09-.7-6.8,5-3.5,7.74-4.75.82-.37,2.18.45,3.3.72,4.69-.06,5.59,3.21,5.82,6.84.2,3.28.21,6.58.11,9.87C333.83,128.43,334.53,129.68,336.93,129.55Z"/><path class="cls-81" d="M330.85,103.63l1,1c.59,3.22-1,4.34-4,4.1a11.92,11.92,0,0,0-5.07-1.38c-2.1-.3.33-1.27-.14-1.89.23-2.13,2-2.79,3.54-3.64C328.21,101.32,329.9,101.55,330.85,103.63Z"/><path class="cls-82" d="M191,229.49c-2.77,1.5-7.51,10.44-6.48,13.06s3.73,4,6.49,4.88c-1.63,3.13-4.62,1.61-7,2-1.65.92-3.22,1.54-4-1a54.6,54.6,0,0,1-1-10.69c.25-8,1.58-9.3,10.05-9.37C190.12,228,190.62,228.57,191,229.49Z"/><path class="cls-83" d="M191,229.49,189,228.42l2-5c2.09-.38,3.45,1.05,5,2,.95.83,3.44.63,2,3C196.93,232.16,195.61,232.35,191,229.49Z"/><path class="cls-84" d="M180,248.48c1.08,1.33,2.6.9,4,1-.3,2.33-2,2.79-3.9,2.72a2,2,0,0,1-1.87-1.95C178,248.94,178.89,248.59,180,248.48Z"/><path class="cls-3" d="M144,99.55c-3.58-.14-7.5.89-10-2.94C137.57,96.85,141.13,97,144,99.55Z"/><path class="cls-85" d="M274,167.52l-2-.05c-1.4-2.95-4.05-4.8-5.12-8.45-1.21-4.11.13-5.94,2.24-8.34.69-1.41-.9-2.79-.07-4.21a9.44,9.44,0,0,1,1.85.66c1.47.92,1.45,4,4.48,2.73s2.6-3.86,2.59-6.31c1.75-.64,2.58.68,3.59,1.64,2.26,3,4.83,3,7.66.84,3.9-3,4.06-3.94,1.48-9.06-.25-4.64,1.15-6.23,5.07-4.64,5.3,2.15,10.48,2,15.84,1,.48-.06,1-.09,1.46-.11a9.59,9.59,0,0,1,2.83,0c2.67,1.74.4,3.54,0,5.32l-.94.07c.13,3.47-4.48,6.3-8.14,4.18-5.27-3.05-8.11.31-10.54,3.46-3.09,4-5.91,7.26-11.67,6.42-2.65-.39-7.24,5.64-6.65,8.41C278.75,164.67,277.54,166.75,274,167.52Z"/><path class="cls-86" d="M196,222.45c-2.64-1.22-3.9-5.08-8.09-3.61-1.35.47-4.09-9.5-2.69-11.89,1.64-2.77,3.92-4.06,7.43-2,1.65,1,4.21.41,6.36.54a1.36,1.36,0,0,1,.07.48c-.6,2.38-5,1.11-4.41,4.3.41,2.26,2.57,3.73,3.79,5.64C200.5,219.13,199.61,221.34,196,222.45Z"/><path class="cls-87" d="M196,222.45c2.89-2.5,3.54-4.93,0-7.56-.88-.65-1.18-2-2-2.8-3.46-3.22-.93-4.38,1.81-5.42,1-.4,2.37,0,3.16-1.15l6,0c.43,2.06,2.92,4.6-1.37,5.57-.31.07-.6,1.16-.57,1.76a19.29,19.29,0,0,1-3.29,11.73c-.42.64.13,1.89.23,2.86a2.1,2.1,0,0,1-2,1.08c.14-1.56-1.39-2-2-3C199.06,224.45,195.65,223.45,196,222.45Z"/><path class="cls-88" d="M258.92,214.59,257,214.4c.81-3.51-3.31-2.72-4.17-4.78l-1.88-.2c0-.6-.06-1.21-.1-1.81a103.81,103.81,0,0,1,11.32.85c1.2.21,3.53,1.07,3.32,3.06-.27,2.52-3.21,1.72-4.6,3Z"/><path class="cls-89" d="M315.92,133.51l-1.93.81c-4.51-4.27-9.44-8.06-13.82-12.48-.51-.51-1.36.71-2.12,1-6.11-1.31-5.95-6.85-7.56-11.4-2.6.53-1.77,3.83-3.85,4.61a6.06,6.06,0,0,1-5.13-1.31c-2.65-3.57-2-7.07.26-10.52a18.69,18.69,0,0,0,6.15-8.86,10.88,10.88,0,0,1,4.76-6.18c1-.59,2.13-1.25,3.22-.37s.77,2.09.42,3.23A17.9,17.9,0,0,1,295,94.7c-.93,1.91.13,2.79,1.71,2.13,3.14-1.3,6.56-.65,9.7-1.89,4.32-1.7,7.85,1.15,7.31,5.88-.19,1.64-.87,3.2.21,4.74-.37,2.25,1,4.44-1,6.88-1.39,1.75,1.6,2.92,3,4.11.86,2.73-.72,2.65-2.58,2.24-1.29-.29-2.7-.91-3.53.69-.73,1.39.28,2.48.85,3.68,1.54,3.22,5.26,4.61,6.61,8A2.66,2.66,0,0,1,315.92,133.51Z"/><path class="cls-90" d="M313.93,105.56c-2-1.3-1.33-3.12-1-4.91.39-2.27-.95-3.72-2.5-5.08-2-1.71-2.87.89-4.15,1-4,.26-7.81,1.57-11.75,1.84-1.95.14-3.1-1.33-1.48-3.33,1.33-1.65,2.94-3.12,2.61-6C292,90.13,290.1,92.57,289,95.8c-1.19,3.5-2.63,6.82-6.07,8.75-2.51-4.82,1.56-8.61,2-13,1.93-1,4-1.87,5-4,2.3-2.06,4.78-3.77,8-4,.93.68-2.42,3.35,1.47,2.88,1.39-.17,2.82,1.47,4.16,2.39,1.87,1.27,3.61,1.33,5.32-.22.12-1,3.54,1.93,1.8-1.72-.89-1.85,1.8-1.91,3.21-2.31l2,2C314.87,92.87,315.66,99.35,313.93,105.56Z"/><path class="cls-91" d="M316.92,131.51c-2.69-2.54-5.59-4.85-7.67-8-1.18-1.83-2-3.62-.68-5.35s3.21-2,5.15-.39c1.36,1.14,2,.27,2.21-1.17,1.17-.74,1-1.93,1-3,5,1.39,3.77,5.49,3.93,9a2.89,2.89,0,0,1-.94,3c-1.9,1.58-2.05,3.75-2,6A.72.72,0,0,1,316.92,131.51Z"/><path class="cls-92" d="M326.06,102.67l-3.36,2.79c-1.84-.5-5,1.65-5-2.51,0-3.38,1.77-4.76,5-4.42,1.43.14,3-.43,4.15,1C327.76,100.87,326.67,101.71,326.06,102.67Z"/><path class="cls-93" d="M326.06,102.67c.28-1,.55-2.1.83-3.15,1.77-.81-.32-2.45,1-3.67,3.34,1.69,3.1,4.76,3,7.78A5.27,5.27,0,0,0,326.06,102.67Z"/><path class="cls-94" d="M316.92,131.51a3.5,3.5,0,0,0,1,0,8.23,8.23,0,0,1,8.26-1.46c3.49,1.11,7.17.25,10.76.54a7.62,7.62,0,0,0,1.27,1.48c1.17.84,3,1.36,2.47,3.21s-2.5,1-3.83,1.32h-8l4.24,3.71c-3.18.5-5.15-1-5.47-4-.3-2.8-1.89-3.62-4.22-3.72-2.09-.09-4.39-.56-4.64,2.78-.12,1.52-1.45,2.52-2.87,3.16-1.53-1.66,1.61-3.32,0-5Z"/><path class="cls-1" d="M270,150.52c.34.91,1,2.09-.33,2.53-3.65,1.25-4.72,2.62-.56,4.71-2.79,4.36,3.62,6,2.89,9.71-3.89-1.89-6.31,2.13-9.68,2.46-1.53.15-2.74,2-4.89,1,1.13-3,5.36-2.21,6.37-5.44.63-2,2.79-5.1,1.76-5.72-2.11-1.25-2.83-5.25-7-3.54-2.49,1-5.3-1-7-3.63-5-7.59-10.67-8.19-17.11-2-1.43,1.37-3.1,2.48-4.64,3.72-1.88,1.53-4.81,2.14-5.84.56-1.17-1.79-4.16-3.57-2.38-6.75.51-.91.79-2.69.27-3.32-3.57-4.31-2-10.34-5.27-14.82-1.11-1.52-.59-4.18-1-6.26-.24-1.1-.77-2.41-2-2.69-1.55-.35-1.79,1.22-2.29,2.17-1.45,2.72-3,5.33-6.17,6.34-.56-2-2.48-4.1-.46-5.93,3.25-2.94,6.13-6.68,10.65-7.61,1.73-.36,4.4.78,4.39,3.12,0,5.67,1.33,10.25,6.78,13.18,1.39.74.77,3.38,2.47,5,2.71,2.56,5.22,2.21,8.14,1.24,4.54-.39,7.86,3.16,12.4,3.69,3.42.4,4.37-3.72,7.86-2.24,1.29.55,3.21.69,4.7,1.57C265.26,144,266.84,147.93,270,150.52Z"/><path class="cls-95" d="M124,154.52l-2-1c-.79.61-1.77.63-1.93-.34-.32-1.85-.42-2.24-2-2.91a5.87,5.87,0,0,1-.84-.53,2.34,2.34,0,0,1-.86-3.63c.24-.43.66-.84.71-1.3.6-6,.81-6.21,6.19-6.13-.86-.28-2.91.4-3.16-1.88-.1-.9,1.39-.63,1.92-1.26l6,0a2.14,2.14,0,0,1,3,0c4.5-1.1,2.16-3,.45-4.6-.94-.89-3.53.15-3.18-2.2s2.6-2.86,4.56-3.1c2.17-.26,3.91-.39,1.84-3.08a1,1,0,0,1,.26-1.68,2.34,2.34,0,0,1,2.8.21c2.48,3,7.75,3.76,7.42,9.13-.1,1.52,1.51,2,2.56,2.78,1.33,1,3,2.27,1.84,4-2.28,3.35-.68,3.79,2.34,4.79,3.72,1.25,7.71,2.55,8.28,8,.13,1.17,5.08,1.83,7.8,2.73.39,4.28-3.4,2.39-5.26,3.26,1,3.83,4.58,2.07,7.16,3.43-3.32,2.65-7.29.12-11.12,2.43,5.24,1.68,9.86.29,15.45,1.28-3.75,1.45-5.19,4.86-8.9,4.58-4.12-.31-1,2.89-2,4.12,2.91,1,1.42,4.08,2.68,5.87-3.35-.6-6.15-2.65-9.38-3.7-3.62-1.19-6.54-1.38-10.17.3a3.66,3.66,0,0,1,2.23-3.64c3-1.53,2.58-5.2,5-7.14.77-.62,0-2.7-1.49-3-2.79-.55-12.32,6.48-13,9.37-.44,1.76.88,3.15.88,4.81-3.11-2.13-6.15-4.11-2.48-8.45,1.37-1.62-.52-2.7-1.93-3.14-1.84-.58-3.71-1.28-3.93-3.29C131.16,154.66,128.08,154,124,154.52Z"/><path class="cls-63" d="M116.05,131.52c-.94-.1-2.82-.06-2.48-.85,3.28-7.56-3.52-2.11-5.34-4.24,5.49-1.11,10.6-2.29,13.8-6.88,1.19,1.28,1.77,3,3.39,4,2.55,1.65,2.53,3.24-.79,3.91a36.15,36.15,0,0,1-5.77,1C116.7,128.57,115.9,129.5,116.05,131.52Z"/><path class="cls-63" d="M124,133.51c-2.64.42-4.81-.83-7-2C120.27,129,121.9,132.14,124,133.51Z"/><path class="cls-63" d="M131,135.52h-3v-2a1.83,1.83,0,0,1,2.83-.48C132,133.78,131.31,134.67,131,135.52Z"/><path class="cls-96" d="M270,150.52c-4.54-1.32-6.16-5.25-8-9l1.08-1.07a25.61,25.61,0,0,1,6,6C269,147.89,272,148.61,270,150.52Z"/><path class="cls-1" d="M253.93,133.56l.06.95c-2.14,1.91-4.25,4-8.23,2.16A25.29,25.29,0,0,1,253.93,133.56Z"/><path class="cls-1" d="M257,135.51c-.05-1-.09-1.94-.14-2.91,2.34,1.43,4.56,3,5.1,5.93C259.64,138.61,258.79,136.27,257,135.51Z"/><path class="cls-97" d="M216.05,168.54a7.28,7.28,0,0,0,.93-.07c1.62,1.75,1.05,8-.9,8.51a3.78,3.78,0,0,1-3.57-1.16,2.37,2.37,0,0,1,.08-3.17C213.66,171.22,214.89,169.91,216.05,168.54Z"/><path class="cls-61" d="M313,134.5c-2.58.34-5.16.87-7.75,1-3,.12-6.07.39-8.89-1.71-.9-.67-3-1.84-4.53-.37s.37,2.74.13,4.13c-3.38-.25-6.58,1.68-10,.89-2.64-.92-4.3-2.95-5.8-5.15-1-1.8-1.73-3.8-3.42-5.16-1.95-2.9-5.18-5.3-3.77-9.53l0,0a10.26,10.26,0,0,0,1.62,1.13c1.7.73.77,4.78,3.81,3.41,2.32-1,2.63-3.63,2.56-6,0-.5,0-1,0-1.5,3.29,1.21,4.43,4.57,6.68,6.82,3.17,3.17,8.08,2.58,11.17,5.78.57.59,1.75-.56,2.44-1.29,1-1.1,2-2.24,3.76-2,.65.14,1.54.34,1.68.88,1.22,4.76,4.78,6.34,9.13,7A1.31,1.31,0,0,1,313,134.5Z"/><path class="cls-98" d="M300.94,125.54a2.79,2.79,0,0,0-2.32,1.55c-2.1,3.32-4.4,4.21-7.12.56-.57-.76-1.54-1.82-2.25-1.77-7.55.55-8.65-6.39-12.29-10.34-2.3-6.77-2.39-12.88,4.06-17.82,1.82-1.39,2.65-4.06,3.93-6.14.65,4.53-2.07,8.53-2,13-2.53,3.1-2.18,6.5-1,10,3.5,3,3.72,3.07,5.05,1a36.45,36.45,0,0,1,.76-4.32c.47-1.57,1.83-1.7,3.24-1.57s2,.9,1.69,2.34c-.95,4.86,1.73,8,5.27,10.6C299.7,122.78,301.31,123.17,300.94,125.54Z"/><path class="cls-60" d="M266.94,115.53c-3.76,2.54-3.74-2.46-6-3C265.65,108.18,266.11,112.24,266.94,115.53Z"/><path class="cls-1" d="M256,121.53c3.2,1.74,6.81-.67,10,1,2.72-.16,3.13,2,3.93,3.83a30.36,30.36,0,0,1,1,11.18c-.62-.19-1.65-.23-1.8-.61C266.54,130.23,259.35,127.51,256,121.53Z"/><path class="cls-60" d="M276.94,132.56a16.35,16.35,0,0,0,5,5c1.19.86,2.64,1.33,3.6,2.53,1.55,1.95,3.59,4.11,1.38,6.45-2,2.09-4.21.76-6-1l-3-2-1-1c-.95-2.09-1.76-4.22-2.83-6.27C272.77,133.77,273.25,131.69,276.94,132.56Z"/><path class="cls-99" d="M276.94,132.56c-3.13.47-3.72,2.06-1.32,4.05,2.16,1.79,2.16,3.68,1.3,5.94a12.65,12.65,0,0,1-6-5c-2.14-3.39-.67-7.44-2-11,2-1.18,2.83,3,5,1C275.57,128.83,276,130.88,276.94,132.56Z"/><path class="cls-100" d="M308.89,88.63c-.59,2.44-2.16,3.34-4.34,2.17-3.51-1.89-6.45-5.16-11.38-3.5,1.37-2.34,4.22-1.36,4.77-3.72,3.44,0,7.17-.59,7.77,4.5C305.74,88.38,307.78,88.45,308.89,88.63Z"/><path class="cls-60" d="M273.93,127.55c-.05,2.14-.23,4.2-2.71,1.38-.73-.83-1.13-1.94-2.26-2.4-.9-1.4-1.22-3.24-3-4,.44-1.61-2.39-2.56-1-4.19,1.22-1.45,2.6.43,3.95.26C270.19,121.79,271.11,125.2,273.93,127.55Z"/><path class="cls-101" d="M117,146.53c-.46,1.06-.73,2,1,2a20.52,20.52,0,0,0,4,8c.33,1,.66,2,1,3-2,1.31-3.52,1-5.27-.68a77,77,0,0,1-7.34-8.72c-1.07-1.34-1.59-2.88-.33-4.54s2.63-.52,3.94,0A2.92,2.92,0,0,1,117,146.53Z"/><path class="cls-63" d="M117,146.53c-1.09,0-2.26.16-3-1,0-1.47-.08-2.95.07-4.41.78-7.49.94-7.59,8-5.57.09.72-2.23,1.08-.41,2a42.94,42.94,0,0,0,5.37,1.73c-3.84.39-6.86.09-9.47,1.81C120.63,143.22,119.56,145,117,146.53Z"/><path class="cls-101" d="M124,162.49c1.44,1.22,2,3.3,4,4-.6,3.64-1.56,3.8-6,1a2.18,2.18,0,0,0-1-2A2.76,2.76,0,0,1,124,162.49Z"/><path class="cls-102" d="M222,184.5c2.84,1.57,2.67,4.36,1.48,6.36-1.84,3.1-5.37,1.19-8.14,1.58-2.08.29-3.6-.34-3.26-2.9C216,189.13,218,184.75,222,184.5Z"/><path class="cls-10" d="M226,189.48c.1-1.47-.2-3.15.4-4.38,1-2,2.6-3.93,4.59-.62,2.52,2.26,2,7.26-.88,9.2-1.18.78-1.81.26-2.34-.74C227.16,191.79,226.58,190.63,226,189.48Z"/><path class="cls-103" d="M122.05,167.48c2-.21,4.58,3.13,6-1,2.42,1.27,2.81,3.54,1.36,5.28s-3.33-.21-4.9-.77S122.72,168.76,122.05,167.48Z"/><path class="cls-103" d="M122,156.52c-2.67-2-5-4.16-4-8,1.87,3.28,5,.42,7.67,1.36-.86,2.39-3,1.1-4.14,1.94-1.4,1-.77,1.45.5,1.68C122,154.53,122,155.53,122,156.52Z"/><path class="cls-104" d="M255.89,194.56l-5-.44,6.06-6.69c3.9-1.86,8.24-1.18,12.3-2.08a2,2,0,0,1,2.44,1c1,1.95-.7,2.92-1.74,4.09l-3.92,1c-.85-2-2.12-1.45-3.45-.55s.32,1.07.43,1.62A11.81,11.81,0,0,1,255.89,194.56Z"/><path class="cls-105" d="M274.75,224.58c.54,1.33,2.67,1.37,2.67,3.31-2.11.45-3.4-2.1-5.47-1.43-1.06-.9-3-.35-3.73-2.42C270.58,222.82,272.64,224.46,274.75,224.58Z"/><path class="cls-106" d="M263,192.58c-.65-.46-3.28,1.17-1.67-1.75a4.3,4.3,0,0,1,5.39-2c1.61.54-.79,1.65-.7,2.7C265.25,192.53,264,192.32,263,192.58Z"/><path class="cls-107" d="M275.91,219.47c-1.2,3.24-3.29,2.2-5.15.88-.44-.32.59-.8,1.18-.91Z"/><path class="cls-108" d="M252.87,209.62l6.52,1.33c.11,1.88-2.19,1.94-2.35,3.45a24.1,24.1,0,0,0-8.06-1C248.71,210.57,253.07,212.41,252.87,209.62Z"/><path class="cls-109" d="M319.92,125.53c.09-1.07-.2-2.27.94-3,1.68-1.81,3.33-3.66,5.05-5.43,1.26-1.29,2.5-3.07,4.59-2.32,2.37.85,1.36,3.14,1.37,4.79,0,6.54-5,10-11,7.6C320.41,127,320.23,126.09,319.92,125.53Z"/><path class="cls-110" d="M280.93,145.54c.95.26,1.9.57,2.86.78s2.13.36,2.72-.61a2.47,2.47,0,0,0-.54-3.15c-1.42-1.61-2.69-3.35-4-5,1.78-.14,3.77.55,5.26-.85,2.07-2,3.22.21,4.72.86,3.28,4.23,2.61,7.16-3.2,10.39C285.87,149.52,282.38,150.06,280.93,145.54Z"/><path class="cls-91" d="M300.94,125.54l-3-3c1-1,.4-3.45,2.2-3.47,2,0,1.57,2.15,2,3.48.48,1.51,1.7,1.86,3.1,2a3.81,3.81,0,0,1,3.5,3.07c.35,1.94,1,3,3.15,2.91,2.94-.09,2.49,1.9,2.11,3.76l-1,.17c-.39-.28-.74-.71-1.17-.82-4.1-1-9.32-.44-9.41-7C302.38,126.32,301.44,125.93,300.94,125.54Z"/><path class="cls-111" d="M287,115.49c.89.16,2.14-.22,2.46,1,.27,1-.83,1.24-1.52,1.56-2.84,1.3-4.57.27-6-3.51Z"/></svg>