<svg id="Layer_1" data-name="Layer 1" xmlns="http://www.w3.org/2000/svg" viewBox="0 0 400 275"><defs><style>.cls-1{fill:#d7b579;}.cls-2{fill:#f4dca9;}.cls-3{fill:#ecd19e;}.cls-4{fill:#e4c68b;}.cls-5{fill:#ebcc90;}.cls-6{fill:#dbba7d;}.cls-7{fill:#d5b57d;}.cls-8{fill:#dabc87;}.cls-9{fill:#d8b982;}.cls-10{fill:#a6824e;}.cls-11{fill:#e7d7b3;}.cls-12{fill:#e5c68e;}.cls-13{fill:#dfbe86;}.cls-14{fill:#bfa26f;}.cls-15{fill:#bf9f67;}.cls-16{fill:#b49965;}.cls-17{fill:#a67b40;}.cls-18{fill:#decba1;}.cls-19{fill:#ceb280;}.cls-20{fill:#e0c99e;}.cls-21{fill:#e7cb98;}.cls-22{fill:#e3c794;}.cls-23{fill:#d5b883;}.cls-24{fill:#c6ab78;}.cls-25{fill:#f0d8ac;}.cls-26{fill:#bca77e;}.cls-27{fill:#bb9a66;}.cls-28{fill:#bca272;}.cls-29{fill:#e3d1a8;}.cls-30{fill:#c9ad79;}.cls-31{fill:#d4b98a;}.cls-32{fill:#b29b71;}.cls-33{fill:#8d6a3a;}.cls-34{fill:#e3d6b6;}.cls-35{fill:#decfb5;}.cls-36{fill:#caaf7f;}.cls-37{fill:#b69969;}.cls-38{fill:#e7d0a6;}.cls-39{fill:#d1af7c;}.cls-40{fill:#cdb488;}.cls-41{fill:#bba175;}.cls-42{fill:#c1b396;}.cls-43{fill:#958362;}.cls-44{fill:#4c3f2e;}.cls-45{fill:#dbd4bc;}.cls-46{fill:#94876c;}.cls-47{fill:#b6a078;}.cls-48{fill:#b7a07a;}.cls-49{fill:#b8a681;}.cls-50{fill:#c29a5e;}.cls-51{fill:#e2c081;}.cls-52{fill:#d6b171;}.cls-53{fill:#e0bf80;}.cls-54{fill:#cea664;}.cls-55{fill:#cda76a;}.cls-56{fill:#e5c88c;}.cls-57{fill:#d8b273;}.cls-58{fill:#c59f60;}.cls-59{fill:#cbad70;}.cls-60{fill:#af8549;}.cls-61{fill:#d5ae6c;}.cls-62{fill:#c6a66c;}.cls-63{fill:#b3925e;}.cls-64{fill:#956b38;}.cls-65{fill:#c9a977;}.cls-66{fill:#e5cd9a;}.cls-67{fill:#ecd29f;}.cls-68{fill:#d0af73;}.cls-69{fill:#daba83;}.cls-70{fill:#b08f50;}.cls-71{fill:#d8b67e;}.cls-72{fill:#957842;}.cls-73{fill:#a28350;}.cls-74{fill:#c2a570;}.cls-75{fill:#462d0f;}.cls-76{fill:#a38656;}.cls-77{fill:#b58849;}.cls-78{fill:#dcbe83;}.cls-79{fill:#ddc390;}.cls-80{fill:#d6c194;}.cls-81{fill:#f0dfb5;}.cls-82{fill:#b7985c;}.cls-83{fill:#b49761;}.cls-84{fill:#dac296;}.cls-85{fill:#d4b888;}.cls-86{fill:#e7c98e;}.cls-87{fill:#ecce93;}.cls-88{fill:#e0bd7e;}.cls-89{fill:#d9b473;}.cls-90{fill:#a17439;}.cls-91{fill:#d0b57f;}.cls-92{fill:#b99d65;}.cls-93{fill:#cea665;}.cls-94{fill:#e0be80;}.cls-95{fill:#d1b380;}.cls-96{fill:#c3a36e;}.cls-97{fill:#c6a568;}.cls-98{fill:#d3b57c;}.cls-99{fill:#775319;}.cls-100{fill:#a57940;}</style></defs><path class="cls-1" d="M75.05,222.32c-9.64,9.4-11.33,22.35-4.08,31.25.18,3.3-2.18,3.59-4.55,3.77-1.85.14-4.34-1.18-5.13,1.47-.72,2.37-.49,4.91,1.77,6.73.59.47,1.48.92.82,1.94a.52.52,0,0,1-.38.17,1.65,1.65,0,0,1-.47-.13c-10.15.09-12.41-2.31-14.23-12.7-2-11.61-2.51-23.34-3.83-35-.72-6.39,1-11.34,6.21-15.16A62.27,62.27,0,0,0,56,200.39c4.69-6.08,11.3-3.55,17.28-3.84a2.43,2.43,0,0,1,1.61.88c-2.93,3.21,2.91,7.56-1.42,10.58-1.75,1.22-1.66,1.94,0,3.93C75.67,214.64,75,218.75,75.05,222.32Z"/><path class="cls-2" d="M65.9,184.39c-3.44-5.13-1.78-10.06-.42-15.57s.61-11.83.61-17.77c0-6.82-.69-13.77,1.34-20.3C68.64,126.86,72,124,76,122.36c.88,1.76-.56,2.69-1.36,3.86-3.91,4.51-3.6,6.14,1.78,8.17,3.46,1.3,6.12,4,9.46,5.45a3,3,0,0,1,1.78,2.83c-.33,6,2.53,8.53,8.45,8a3.52,3.52,0,0,1,3,1.6c.9,1.23,1,3.18-.36,3.41-4.83.81-3.67,4.54-4.16,7.52a5,5,0,0,0-.28,2.82c2.53-1.22,2.91-3.37,3-5.68.08-1.4.49-2.65,2-3.17s2.46.6,3.3,1.63,2.11,2.13,3,3.28c2.78,3.41,2.33,5.28-1.89,6.22-2.41.55-3.3,1.92-3.83,4-.86,3.27-2.52,5.77-6.06,6.58-.81.18-1.9.46-2.11,1.2-2.66,9.58-9.74,3.32-14.24,3.16-3.88-.14-7.46-2.71-10.69,1.42C66.65,184.82,66.19,184.61,65.9,184.39Z"/><path class="cls-3" d="M65.9,184.39A2.67,2.67,0,0,0,68,182.44c.93-3.42,2.87-3.53,5.63-2,3.07,1.71,6.06,4.44,9.92,1.5.33-.24,1.35,0,1.77.39,2.62,2.23,4.85,4.16,4.06-1.78-.22-1.66,1.84-2.56,3.18-2.66,4.43-.35,5.74-3.34,6.48-6.94.55-2.68,1.24-5,4.85-3.71a1.78,1.78,0,0,0,2.6-1.45c.11-.65-5.65-7.9-6.34-7.87-1.52,0-2,1-1.61,2.36a6.25,6.25,0,0,1-1.76,5.89c-1.08,1.19-2.64,2.67-4.27,1.76-2.22-1.25.51-2.41.59-3.71.07-1.13,1.14-2.48.78-3.3-1.68-3.8-1.39-6,3.5-5.53a1.32,1.32,0,0,0,1.45-1.1c.21-1-.41-1.5-1.15-2a5.32,5.32,0,0,0-3.32-.76c-5.66.38-8.19-2-7.87-7.61.07-1.2.59-2.56-.73-3-3.52-1.16-5.9-4.61-9.33-5.24s-5.28-2.06-6-5,1.88-3.91,3.69-5.29c2.85,5.58,8.56,7.57,13.41,10.62,1.56,1,3.45,1.63,4.1,3.45a10.85,10.85,0,0,0,5.73,6.54,4,4,0,0,1,2.37,3.57c1.66,2.59,5.49,1.85,7.06,4.58a6.38,6.38,0,0,1,1.5,3.38c-.12,4.05,1.94,7.32,4.06,10.45,1.29,1.9,1.75,3.67.52,5.47-3.56,5.2-5.2,10.57-2.61,16.74.49,1.15.15,2.62-.13,3.93-.6,2.27-2,4.16-3.12,6.17-2.29,4.12-4.77,8.14-5,13-.76-.61-1.57-1.18-2.27-1.85-4.57-4.4-6.15-4.47-10.54.3-3.33,3.6-6.66,6.9-12.08,6.49,4.31-5,9.76-8.68,14.79-12.85,1.22-1,3.15-1.29,3.48-3.74-2.41.07-4.92,2.57-7.17-.94-.45,3.38-.74,6.41-4.39,5.22-3.22-1-4.4-3.28-2.42-6.62,1.81-3.06-1.13-6-.55-9.22.16-.84-1.9.35-3-.2-4.53-2.28-7.32-2-12.08.81-1.19.71-2,2.44-3.85,1.56C58,186.86,58,186.86,65.9,184.39Z"/><path class="cls-4" d="M99,99.42c8.19-.92,16.39-1.72,24.56-2.8,17.91-2.36,35.38,0,52.69,4.49,10.17,2.66,20.43,1,30.67.54-3.7,3.67-8.29,4.68-13.25,4.1-1.78-.2-3.57-1.07-5.35-.78-6.88,1.13-13.43-.43-20-2.11a68.5,68.5,0,0,0-18-1.51c-3.66.23-5.12.55-2.88,4.2a3.37,3.37,0,0,1,.3,1.92c-.66,3-3.07,4.18-5.59,5.11-2.36.86-4,1.55-3,4.9.88,3.07-1.84,3.5-3.58,2a12.9,12.9,0,0,0-10.56-3.1,4.51,4.51,0,0,1-4.22-2.21c-2.33-3.41-5.66-3.73-9.26-3.24a38.51,38.51,0,0,0-8,2.53,4.17,4.17,0,0,0-2.85,4.72c.46,3.82-1.55,5.47-5,6-3.13-.37-6-1.57-9-2.47-5.31-1.59-9-3.94-8.3-10.76.39-4.06-1.79-8.29-1.86-12.62,0-1.77-1.5-2.85-2.71-4-1.47-1.38-2.85-2.83-2.35-5.11,1-1.9,2.23-.71,3.32-.14,1.75.93,3.28,2.32,5.44,2.21l5.86,5.18c-3.38,2.25-4.9,5.22-3.59,9.27,1.18,3.65,4.07,4.51,6.68,1.63A46.43,46.43,0,0,1,99,99.42Z"/><path class="cls-5" d="M72.08,88.55c0,1.35,0,2.75,1.18,3.62,7.66,5.67,5.31,14.37,6.24,21.88.38,3,1.64,4.12,3.67,4.93,4.23,1.69,8.59,3,12.9,4.54,2.8-.89,4.82.34,6.15,2.63s.36,4.51-1.57,6.1c-1.46,1.19-1.87,2-.18,3.38a3.94,3.94,0,0,1,1.46,4.83c-1,2.29,1.12,3.59,1.8,5.35.6,1.57,1.21,3.21-.24,4.6s-2.95,1.21-4.45.05a4.08,4.08,0,0,0-3.29-3.87c-1.56-.41-3.17-1.31-3.48-2.56-1.86-7.38-9-8.36-14-11.8-2.59-1.78-4.17-3.61-4.15-6.73L76,122.36l.92-1.92c.07-4.41-.5-8.75-2.9-12.51-6-9.45-14.39-17.22-19.17-27.68-2.2-4.82-6.6-8.61-8.82-13.65-1.15-.7-2.43-1.53-2.62-2.84-1.81-12-3.65-24.07-1.39-36.26,2.29,2.38,1.46,5.38,1.33,8.08-.4,8.33,1.79,15,7.65,21.69,4.93,5.62,9.52,12.4,11.53,20.14a7.22,7.22,0,0,0,4.88,5.17C70.05,83.61,72.75,84.81,72.08,88.55Z"/><path class="cls-6" d="M242.8,103.44c1.88-1.22,4.06-.55,6.07-1,6.84-.11,13.69-.55,20.41,1.44a20,20,0,0,0,8.38.52c3.81-.51,7.6-.46,11.07,1.73,3.3,2.07,5.73-.22,8-2,8.68-6.86,18.11-5.93,27.77-2.89.5.16.61.72.63,1.23-3.84,5.12-9,6.23-15,5-3.71-.76-7.13-.88-9.35,3.3-1,1.93-3.55,2.24-5.63,2.78-5.32.31-10.66-.11-16,.46a8,8,0,0,1-1.42-.51,7.08,7.08,0,0,1-1.76-1.31c-1.14-1.09-2.79-1.8-2.44.56a22.61,22.61,0,0,1-1,10.25c-.47,1.52.53,2.88,1.13,4.24,1.68,3.79,3.63,7.47,4.41,11.62,1.45,6.82.92,7.84-4.66,9.09-1.7-4.28-6-7.08-6.91-11.79-.63-3.43-3.51-5.88-3.51-9.69,0-1.9-2.07-1.65-3.38-.39-1.78,1.72-3.8,1.81-6,1-2.13-1.48-4-3.16-3-6.1s3.29-4.39,6.45-4.47a10,10,0,0,0,5.54-1.51c-4-.95-7.14.9-10.43,1.54-1.46.28-3.22.4-4.08-1s.71-2.25,1.66-3.08c2.9-4.58,2-6.92-3-7.63C245.39,104.56,243.82,104.83,242.8,103.44Z"/><path class="cls-7" d="M242.8,103.44c1.31,0,2.63.14,3.94.08,2.4-.1,5.18,0,5.74,2.59.5,2.39,1.62,5.51-1.51,7.41-3.73-6.76-9.64-6.7-16.05-5.16a19.47,19.47,0,0,1-4.87.5c-4.16,0-8.22-1.54-12.39-1-5.17.73-10.71.8-13.55,6.56-1,2-2.84,1.37-4.37.65-3-1.4-6.13-1.37-9.29-1.19s-5,1.8-4.09,5.2c1,3.72.38,7.62,1.52,11.33.55,1.76.39,4.26-1.78,4.55-3.59.48-4.6,3.48-6.63,5.49-2.42.64-3.27-.88-2.74-2.69.8-2.71,1.09-5.55,2.25-8.15,2.74-6.2.56-10.3-6-11.34-4.76-.76-6.47-2.89-5.63-7.5a3,3,0,0,0-1.84-3.61c-1.71-.91-3.39-2.3-5.49-.76-1.07.78-1.56,2.93-3.56,1.69a2.42,2.42,0,0,1-1.07-2.6,4.1,4.1,0,0,1,3.52-3.72c2.23-.25,4.52-1.3,6.81-.17a1.82,1.82,0,0,0,2.28-.1,12.35,12.35,0,0,1,3.42.32,26.45,26.45,0,0,0,14.36,1.78c2.83-.47,6-.6,8.67,1.09,2.17,1.35,3.71-.59,5.51-1.09,2.34-.63,4.66-1.33,7-2,5-1.3,9.37,1.45,14.08,2.08C228.35,104.71,235.55,103.58,242.8,103.44Z"/><path class="cls-8" d="M292.87,264.46c2.24,5.67,1.86,6.38-4,7.5-9.41,1.8-18.85,1.56-28.32.44-4.46-.53-4-4.85-5.91-7.34a21.57,21.57,0,0,1-1.8-3.48c-6.07-4.06-11-9-12.19-16.58-.29-1.83-1.94-2.65-2.51-4.2a14.26,14.26,0,0,1-.35-6.33c.27-1.16.78-2.64,1.91-2.59,4.29.17,8-2.6,12.28-2.23a2.68,2.68,0,0,1,1.71,2.56,89.77,89.77,0,0,0-.33,13.42c.17,4.8,1,9.56,6.15,11.51,5,1.89,9.79,1.45,13.61-2.87,2.14.23,3.2,2.12,4.81,3.17,1.39,5.37,3.18,6.51,8.93,5.29C289.29,262.22,291.05,263.28,292.87,264.46Z"/><path class="cls-9" d="M184.78,223.25c6.54-2.23,6.56-2.23,5.33-9.5-.3-1.76-.77-3.5-1.16-5.25a10.46,10.46,0,0,1-1.29-5.16,4.42,4.42,0,0,1,2.72-4.31c1.76-.74,3.18-.06,3.88,1.81-3.49,2.8-2.39,5.11.26,8,3.67,4,8.41,5.59,13.16,7.56,2.61,1.07,7,.86,6.76,5.59.56-.57-.66-2.31,1.19-2.42.25,2.79.75,5.63-1.53,7.94-2.11-.08-3.12.93-3,3-3.09.66-2.33,4.78-5.12,5.71-1.63-1.59-1-3.73-1.39-5.62-.21-1-.49-2-1.76-2a2.12,2.12,0,0,0-2.11,1.77c-.74,3.14-.8,6.23,1.18,9l-19.66,11.18a1,1,0,0,1-1.38-.23C187.08,242.06,184,232.38,184.78,223.25Z"/><path class="cls-10" d="M102,213.44c-1.34-3.53-.8-6.51,1.66-9.59,2.23-2.81,3.65-6.26,5.42-9.43,1.12-1.88.37-4.32,1.83-6.11a2.84,2.84,0,0,1,1.43-.33c3.44.55,4.12,2.9,3.81,5.88a19.8,19.8,0,0,1-1,3.85c-1.82,5.73-1.34,6.86,4,9.26,1.68.75,3.36,1.46,4.33,3.17a2.53,2.53,0,0,1,0,2.12c-2.4,1.25-3.83-1.51-6-1.46-1.3,0-2.79-.41-3.49,1.14-.57,1.25.34,2.2,1,3.12,3.41,4.49,7.21,5.7,10.68,3.39a1,1,0,0,1,1.27,0c3.2,6.5,10.19,8.55,15.18,12.94a1,1,0,0,1-.08,1.32c-2,1.36-4.11.7-6.22.56-3.46-.22-6.62.27-8.18,4-1.7,1.75-3.42,2.49-5.6.61-3-2.57-1.85-5.28-.43-8.07-3.22,4.28-4.14,4.34-6.52,0a13.88,13.88,0,0,0-3.89-4.44C107.5,221.89,105,217.48,102,213.44Z"/><path class="cls-11" d="M194,201.44c-.8-1.43-1.88-2.48-3.58-1.54a4.14,4.14,0,0,0-2.06,3.73,36.52,36.52,0,0,0,.57,4.87c-3.38-2.37-2.72-6.05-1.19-8.41,1.78-2.75.36-3.31-1.21-4.6-6-4.86-12.28-7.76-20.38-6.22-2.82.54-6.21-.76-9.09-1.87a24.44,24.44,0,0,0-10.11-2,1.22,1.22,0,0,1,.13-1.33,4.7,4.7,0,0,1,1.16-.87c.6-.29,1.3-.74,1.87-.55,5.49,1.89,10.25-.42,15.06-2.5,5.78-2.29,10.92.31,15.67,2.78A46,46,0,0,0,194,187.27a9.57,9.57,0,0,1,1.56.45c5.23,4.49,11.36,6.37,18.17,6.64a5.08,5.08,0,0,1,5,4.74c.4,3.16-.45,6-3.83,7.26C207.73,205.56,200.05,207,194,201.44Z"/><path class="cls-12" d="M61.89,192.4c4.24-5.29,11.29-4.14,16.45-7.35,1.25,1.65-2.11,2.59-.55,3.93s2.78-1.34,4.5-1.08c0,3-1,6,1.15,8.66,1.19,1.46.36,2.82-1.06,3.76s-1.49,2.08-.49,3.35a3.61,3.61,0,0,0,3.4,1.7c2.36-.35,1-1.91.93-3.06a3.12,3.12,0,0,1,2-3.18c1.86-.87,1.56.91,2,1.85,1,2.16,2,.54,3-.11s1.87-3.16,3.42-.94c1,1.36,1.1,3.9-.42,4.53-7.51,3.14-11.69,10.74-19.1,13.92-.67,1.31-1.34,2.63-2,3.94-.35-2.72-4.7-4.87-1.16-8.16a1,1,0,0,0-.18-.91c-6.44-2.64-2-5,.07-7.62,1.11-1.4,1-1.53-3-4.29.43-1.83,2.93-1.38,3.69-3.78C68,197.7,61.76,197,56,200.39,54,194.78,59,194.37,61.89,192.4Z"/><path class="cls-13" d="M72.08,88.55c-1-2.69-2.71-4.64-5.68-4.94-3.28-.35-4.35-2.71-5.2-5.3A63.26,63.26,0,0,0,47.45,55.37c-3.07-3.36-5.2-7.24-5.32-11.9C42,38.15,42,32.82,42,27.5c.06-1.25-.13-2.79,1.67-2.83S46,26,46.18,27.56c-.58.48-1.69-.16-1.69,0,.06,3.8-1.09,7.83,2.07,11.68,1.49-3.8-2.27-7.41.51-10.57,1.82,2.5,2.13,5.57,2.58,8.4,1.74,11.14,7.74,20.65,11.45,31,1.25,3.5,4,6,6.51,8.63C72,81.43,76,86.47,80.19,91.36,76.16,94.26,74.77,89.53,72.08,88.55Z"/><path class="cls-14" d="M112,188.52l-.84,0c-1-1-.55-1.93.14-2.85,6.42-3.22,12.83-6.56,20-1.83a15.22,15.22,0,0,0,4.17,1.47c4.47,1.39,5,2.54,3.6,7.22-3.34,3.38-6.19,7.12-10.16,10-3.54,2.59-4.49,7.15-3.42,11.69.34,1.43,1.62,2.56,1.42,4.18-.33.05-.65.1-1,.13-3.15-1-3.38-3.4-3-6.11l.1-2c-.06-4.22-.55-8.05-5-10.33-2-1-2.27-3.47-1.38-5.76C118.87,188.5,118.63,188.21,112,188.52Z"/><path class="cls-15" d="M252,230.41c-1,.09-2.47-.2-2.86.32-2,2.74-4.47,2.67-7.34,1.81a2,2,0,0,0-2.8,1.88c-3.43,1.79-3.74-2.31-5.81-3.08l-1.24-1.87c-1-1.47-.72-3.05-.4-4.64.58-3.1-1.09-7.07,3.33-8.7,2.43.19,3.24,2.86,5.36,3.54.81.83.91,2.35,2.45,2.71.61-2.62-2.08-1.66-2.62-2.86a2.91,2.91,0,0,1-1.31-3,4.48,4.48,0,0,1,1.59-1.34,5.64,5.64,0,0,0,1.22-.84c.94-.88,1.78-2.41,3.24-1.77s.87,2.34,1,3.6c1.92,2.44,3.42-1,5.43-.24-1.17-.92-3.09-1-2.34-3,2.43-2.87,5.09-3.62,8.12-.87a3.77,3.77,0,0,1,.44,2.16C258.21,220.44,256.87,226,252,230.41Z"/><path class="cls-16" d="M273.14,254.27a4.63,4.63,0,0,1-3.07,4.57c-7.32,3-15.94-.74-17.46-8.46-1.16-5.87-1.58-12,.34-18,1-1,.18-2.57,1.07-3.71,1.65-2.13,3.74-3.81,6.34-2.6,2.37,1.1,2.52,3.72,2,6.12-.47,2-3.36,3.4-2.1,5.75,1.09,2,4.21.64,5.71,2.47h0c1.3,3,1.46,5.44-2.62,6.2-1.32.25-3.41,0-3.12,2.2.27,2.07,2,2.9,3.95,3.06,2.56.2,5.22-1,7.69.54Z"/><path class="cls-17" d="M353.75,147.57l2.19,1.9c.25,2,.5,4,.56,5.95.12,4-2.19,6.31-6.53,6.78,2.61,1.27,5.52,2.08,7.15,4.82-4.05,2.67-7.27,2.49-11.76-.64-7.83-3.51-7.85-3.88-6.1-12.27.81-3.9,2.54-8.06-.55-11.86.37-1.88,2.18-2.88,2.78-4.62a1.79,1.79,0,0,1,1.26-.5C347,140,349.61,144.59,353.75,147.57Z"/><path class="cls-18" d="M293.87,170.54A10.82,10.82,0,0,0,283.66,174c-2.8,2.91-7.17,4.06-9.69,7.51-.79,1.12-1.64,2.06-3.15,1.06a2.29,2.29,0,0,1,.51-2.33c6.49-6.37,12.31-13.67,21.84-15.83a10.35,10.35,0,0,0,5.34-4.25c1.52-2.53,3.24-3.16,5.51-.81,3.42,3.53,8.4,3.65,12.56,5.58,1.83.85,3.08-.5,3.86-2.15a10.58,10.58,0,0,1,1.17-2.67,5.12,5.12,0,0,1,3.37-1.74c6.56.15,10.17,2.89,12.46,9.41-2.13,1.32-.83,3-.5,4.62a7.8,7.8,0,0,1-5-.9c-2.44-2.6-5.57-2.51-8.7-2.11-6.27.8-12.49,1.53-18.49-1.36-2-1-3.82-.42-5.58.82C297.6,169.92,296.16,171.58,293.87,170.54Z"/><path class="cls-19" d="M139.1,192.58c.36-3.68-.62-6.16-5-6.19a5.83,5.83,0,0,1-3.64-1.33c-3.27-3.06-6.33-3.39-10.22-.87-2.33,1.5-6.13-1-8.27,2.23a5.83,5.83,0,0,1-1.5-2.53c-.78-1.95-2.18-3.91-.32-6,1.63-1.81,3.36-.48,5,0,3.07.81,5.75.56,8.21-1.85,3.22-3.14,6.75-3.8,10.57-.64,1.8,1.49,4.23,1.66,6.45,2.3,3.3.95,7.32,1.68,6.6,6.76,0,.31-.05.62-.08.92C143.79,187.16,142.81,191.37,139.1,192.58Z"/><path class="cls-20" d="M324.9,102.54c-9.78-2.68-19.37-4.92-28,3.28-2.69,2.54-6.09,4.82-10.16.78-2.3-2.28-6.15-1.42-9.15-.86a16.91,16.91,0,0,1-10.45-1.44c-.74-.33-1.64-.85-2.32-.67-5.45,1.4-10.55-1.49-15.9-1.17,5.85-1.95,11.89-1.1,17.73-.56a141.35,141.35,0,0,0,27.35.31c5.25-.54,10.29-3.62,15.94-4.28,10.72-1.23,19,2.93,25.85,10.58,1.58,1.77,3.91,3.24,4.27,6-3.27.46-4.8-2.35-7-3.84-1.48-1-2.67-2.44-4.22-3.4C327.27,105.87,325.46,104.72,324.9,102.54Z"/><path class="cls-21" d="M63,267.52c-2.85-1.4-3-4.06-3.33-6.76-.41-3.84,1.22-5.81,5-4.84,3,.76,4.79.13,6.23-2.35,4.7.3,8.27,2.93,11.62,5.86,1.17,1,3.27,1.94,2.71,3.78a4.7,4.7,0,0,1-4.6,3.22l-2.48.08a13.9,13.9,0,0,0-5.06.34c-.1,0-.21.27-.21.4s.17.25.26.37A16,16,0,0,1,63,267.52Z"/><path class="cls-22" d="M232.92,225.46c-.33,1.34-.67,2.67-1,4-2.93-1.47-2.9-5-4.88-7.09a27.41,27.41,0,0,0-3.09-9.54c-.27-2.33-1.85-3.76-3.4-5.33-3.76-3.81-2.66-8.27,2.5-9.94a34.92,34.92,0,0,1,8.31-1.67,22.32,22.32,0,0,0,3.47.07c2.07-.34,5.47-1.48,5.77.62.44,3.08,2.84,6.42.25,9.71-2.41,3.07-4.81.62-7.16.11-2-.44-2.78-1.6-1.28-3.49a2.84,2.84,0,0,0-1.92,1.47c-.75,1.26-2.89-2.27-2.64.85.13,1.62,1.53,1.4,2.7,1.36,1.47-.06,3.07-.36,3.72,1.56-.25,1.06-1,2-2,1.84-3.12-.41-.2,1.16-.58,1.61a2.58,2.58,0,0,1-.3,1.93C228,218,229.43,221.87,232.92,225.46Z"/><path class="cls-23" d="M336.91,168.47c-2.41-5.21-5.63-9.35-12.14-9.1a1.16,1.16,0,0,1,.26-1.23c2-1.62,1.91-4.46,3.58-6.33.64-.72.95-1.75,1.64-2.49,2.32-2.48,7.52-4.12,9-2.46,2.68,3.07.15,5.8-1.24,8.47a11.2,11.2,0,0,1-2.31,2.61c-1.27,1.19-1.45,2.17.42,2.92,3.73,1.5,6.59,4.42,10.13,6.24,2.3,2.84,6.54,2.56,8.8,5.47-4.6,2.31-9.31,2.89-14.21,1,.56-.76,1.35-.64,2.19-.55C340.42,172.17,337.4,172,336.91,168.47Z"/><path class="cls-24" d="M194,201.44c6.75,2.57,13.87,3.2,20.95,4a16.55,16.55,0,0,1,2.15,6.63c-.14,1.42,0,3-1.88,3.49-1.52-1.09-1.43-2.91-2-4.44a5.45,5.45,0,0,0-3.57-3.86c-2.15-.63-5-1-6,.93-1.26,2.42,2,2.72,3.34,3.9,2.22,1.93,5.36,1.62,7.77,3.13,1,.83,1.69,1.79,1.17,3.18l-.39,1.14c-1,1-.38,2.52-1.1,4.29-.74-5.86-5.63-6-9.13-7-6-1.59-10-5.35-14-9.57a4.32,4.32,0,0,1-1.16-4.52C190.84,200.84,192.68,201.71,194,201.44Z"/><path class="cls-25" d="M46,66.6c3.34,4.79,8.1,8.62,10.5,14C59.58,87.48,64.32,93.05,68.75,99c3.54,4.72,9.83,8.52,8.06,16.2-.37,1.57,4.46,3.31.09,5.25-.38-3.45-1.36-6.8-3.79-9.26-7.67-7.77-11-18.37-17.79-26.76a47.82,47.82,0,0,1-7.66-12.67C47,70.06,45.89,68.53,46,66.6Z"/><path class="cls-26" d="M172.94,259.51c-7.16-2.83-11.11-10.32-5.93-17.08,1.41-1.84.25-4.36,2-6a3.69,3.69,0,0,0,4.19.13c1.19-.66,2.25-.49,2.76,1,.25,6.68.89,13.34.21,20C175.58,259.09,174.94,260.43,172.94,259.51Z"/><path class="cls-27" d="M353.75,147.57c-4.65-2.22-7.54-6.35-10.83-10-2.24-2.39,1.28-6-1.91-8.35-.27,1.28,1.25,2.93-.79,3.66-1.54.06-2.69-1-4.06-1.43s-2.75-.85-3.24.87c-.42,1.48,1,1.74,2.09,2.08a6.21,6.21,0,0,1,1.76.79c-2.32,2.23.57,4.62-.21,6.9-2.37.71-4.65,1.81-7.2,1.81-3.12-2.32-2.69-5.75-2.75-9a19.83,19.83,0,0,1,4.26-12.19,1.94,1.94,0,0,1,2.09-.22c1.38.69.86,2.87,2.57,3.29,2.7.19,2.3-2.62,3.65-3.73,2.55-1,3.63.84,4.83,2.45s2.07,3.32,1.83,5C344.71,137.24,348.67,142.61,353.75,147.57Z"/><path class="cls-13" d="M99,99.42c-2.63,4.29-7.62,6.22-10.38,10.5-.87,1.35-3.61,1.12-5.12.1-2.76-1.84-3.29-5.23-2.88-8,.37-2.48.91-6.36,5.39-5.51C90.1,98.8,94.31,100.25,99,99.42Z"/><path class="cls-28" d="M184.78,223.25c.9.46,3.18-.06,2.54,1.39-2.69,6.06-1,12.32-1.18,18.45-.14,3.91-3,5.17-5.06,7.36.28.77,0,1.12-.81,1-2-1.56-1.69-3.82-1.75-5.91-.15-5.6.08-11.2.16-16.8a10.14,10.14,0,0,1,1.27-3.47C181,223.2,183,223.43,184.78,223.25Z"/><path class="cls-29" d="M271,182.47l3-1c-2.07,4.33-5.62,7.93-8.91,10.79-6.13,5.32-6.4,11.84-7,18.68-.11,1.16-.06,2.33-.07,3.49q-.54.7-1-.06l-.08-1.93c-2.63-6.14-1.44-12.52-.95-18.8.19-2.43,2.67-3.55,4.66-4.66-1.11-3.08-.88-5.6,2.85-6.59C266,182.28,268.49,180.69,271,182.47Z"/><path class="cls-30" d="M257,214.38q.48,0,1,.06c-.25,4,1.68,7.65,3.54,10.59,3.08,4.9,3.3,10.19,4.41,15.41a28.85,28.85,0,0,1-3.48,0c-1.52-.17-3.57.81-4.29-1.41a4.38,4.38,0,0,1,1.35-5c3.36-2.32,2.46-5.6.44-7s-4.48,1-5.81,3.28L253,232.41a2,2,0,0,0-1-2c.77-2.3,1.27-4.45,3.38-6.38C257.92,221.66,255.37,217.47,257,214.38Z"/><path class="cls-31" d="M142,232.38a2.49,2.49,0,0,1,.14-1,25.25,25.25,0,0,0,7.51,2.23c3.36.31,5.44,2.11,5.29,5.78-2.18-.41-4.33-2.2-5.41,2.06-.82,3.26-4.69,2-7.37,2.16a10.41,10.41,0,0,1-1.47-.21c-3.88-1.71-8.52-1.3-11.92-4.32a2.08,2.08,0,0,1,2.58-2.61C135.85,237.37,139.24,235.84,142,232.38Z"/><path class="cls-32" d="M129,238.44l12,4.05c.1,2.43-1.57,2.84-3.43,2.92a32.72,32.72,0,0,0-4.75.24c-8.61-1.29-12.37-8.67-17.62-14.13-1.67-1.73-2.73-4.06-4.06-6.12,2.55.26,3.46,2.28,4.43,4.2,1.37,2.72,2.7,3.81,4.72.41.85-1.43,1.84-3.15,4.42-3.09-.8,3.49-5.84,5.79-2.66,10.05,1.56,2.08,3.29.51,5,.46C128.18,236.87,128.59,237.7,129,238.44Z"/><path class="cls-33" d="M356.9,166.51c-3.62.13-5.7-4-9.52-3.45a1,1,0,0,1-.64-1.52,2.67,2.67,0,0,1,1.63-.89c6.76-.75,6.89-.9,6.56-7.54-.06-1.29-.31-2.7,1-3.64,2.16,1.58,4.23,3.24,5.05,6-1.94,3.36-1,6.74-.06,10.12l-.83,1.13A2.56,2.56,0,0,1,356.9,166.51Z"/><path class="cls-34" d="M293.87,170.54c.63-.19,1.52-.17,1.85-.59,4-5.06,8.25-4.61,13.41-1.54,3.65,2.18,8,.82,12.13.6,3.61-.19,8.28-3.23,10.67,2.46-9.78-2.53-19.56-1.12-29.23.41C299.35,172.41,296.62,172.34,293.87,170.54Z"/><path class="cls-35" d="M239,241.44c1.24.09,2.64.48,2.69,1.77.32,8.24,6.18,13,11.18,18.37-2.25.07-3.52-1.51-5-2.84-4.15-3.77-7.62-8.26-12.4-11.36-3.21-2.09-2.48-5.5-2.28-8.59.11-1.8.54-3.58.82-5.36,2.81.48,2.17,2.81,2.27,4.54.16,2.75.14,5.49,1.55,7.9C238,244.4,237.51,242.66,239,241.44Z"/><path class="cls-36" d="M271.86,252.44l-7.27.95c-3.13.41-5-1.2-6.07-3.91s-.53-4.39,2.62-4c4.09.52,5.35-1.31,4.82-5a2.75,2.75,0,0,1,1.62,2.81C266.91,247.37,269.25,249.93,271.86,252.44Z"/><path class="cls-37" d="M201.89,239.44c-5.31-.84-2.14-4.95-2.79-7.52-.59-2.34.51-4.18,3-5,2.26-.74,3.64,0,3.82,2.37s.05,4.65.06,7C205.38,238.31,203.28,238.42,201.89,239.44Z"/><path class="cls-32" d="M142,242.6c3.52-.28,8.1,1.05,7.24-5.4-.24-1.8,1.47-2.06,2.76-1a27.44,27.44,0,0,1,2.94,3.23c-.29,2.62,1.63,6.13-2.85,7.05-2-.08-3.94,0-5.91-.1C143.82,246.21,142,245.39,142,242.6Z"/><path class="cls-11" d="M215,215.49c1.46-1.07.77-2.71,1.1-4.07.85-1.75,1.28-4,3.9-3.83,3,.19,3.94,2.58,4.95,4.86a18.69,18.69,0,0,1,2.05,9.93,6.41,6.41,0,0,1-.91-1.65c-1.1-5.57-3.4-6.66-8.12-3.76-.7.43-1.32,1-2,1.47l-1-2.95Z"/><path class="cls-38" d="M292.87,264.46c-3.6-1.92-7.21.79-11.15-.33-4.38-1.25-5.52-2.74-3.77-6.69,4.17.62,8,2.41,11.91,3.79C291.51,261.81,292.93,262.39,292.87,264.46Z"/><path class="cls-39" d="M47.07,28.69c-.3,3.06.77,5.9,1.51,8.77.36,1.39.73,2.77-.74,3.5-1.87.92-2.71-.76-3.46-2-2.31-3.66-1.46-7.83-1.09-11.69.21-2.35,1.84.43,2.89.25C46.47,27.94,46.77,28.31,47.07,28.69Z"/><path class="cls-40" d="M344,124.48c-1.67-.72-3-2.45-5.09-1.94-.16,0-.44-.06-.46-.13-1.16-6.2-7.33-9.06-9.64-14.48a1.65,1.65,0,0,1,.11-1.4c4.48,1.56,6.87,6,11.08,8C341.61,117.71,343.58,120.79,344,124.48Z"/><path class="cls-41" d="M356.9,166.51l3.2.17c-.91,2.64-1.82,5.28-5.08,5.89-3.31-1.2-7.32-1.14-9.12-5a1.39,1.39,0,0,1,0-2C349.36,168.27,353.06,168.19,356.9,166.51Z"/><path class="cls-42" d="M239,241.44v5.29c-3.6-.25-3.92-2.29-4.09-4.81-.18-2.83,1.15-5.86-.9-8.49-.28-.7-.57-1.39-.85-2.09,2.9-.8,3,3.7,5.81,3.08Z"/><path class="cls-43" d="M142,242.6a5.81,5.81,0,0,0,5.64,2.86c1.52-.07,3.25-.54,4.45,1a32.71,32.71,0,0,1-19.19-.82c2.05-2.8,6.47.53,8.18-3.16A4.06,4.06,0,0,1,142,242.6Z"/><path class="cls-44" d="M360.93,165.55c-3.27-3.39-4-6.77.06-10.12C365.88,159.17,365.88,160.8,360.93,165.55Z"/><path class="cls-26" d="M180,225.31c0,1.08,0,2.17,0,3.26-1.25,1.35-.59,3.07-.86,4.6-.41,2.27-1.34,3.6-3.88,2.69A9.44,9.44,0,0,1,172,232.4C176.11,231.66,176,226.2,180,225.31Z"/><path class="cls-45" d="M181,251.34a4.42,4.42,0,0,1,.11-.89l1.14.17a76.05,76.05,0,0,1-2.41,7.91c-1.43,3.46-4.26,3.76-6.87,1,1.19-.18,2.07-.69,2.16-2C177.52,255.87,178.51,252.9,181,251.34Z"/><path class="cls-46" d="M172,232.4a2.87,2.87,0,0,1,3,3c.27.23.35.44.25.64s-.21.3-.31.3c-2-.45-3.86,7.63-6,.08A7.31,7.31,0,0,1,172,232.4Z"/><path class="cls-47" d="M336.91,168.47a17,17,0,0,0,7.26,4.3c-1.12,1.19-2.35.46-3.36.81l-3.87-1.21c-1.12-1.47-3.63-1.71-3.7-4.16C334.57,167.12,335.68,168.71,336.91,168.47Z"/><path class="cls-48" d="M211.09,230.56c-1.24-1.13-1.63-2.53-.31-3.66,1.06-.89,2.4-.59,3.32.62A7,7,0,0,1,211.09,230.56Z"/><path class="cls-49" d="M73.21,267.62c-.46-.27-1.54-.78-1.13-.92,2-.67,4-2.6,6.13-.19C76.71,267.62,74.92,267.43,73.21,267.62Z"/><path class="cls-50" d="M53.62,218.14c.23-2.09,1.42-4-1.17-5.88-1.54-1.11.66-3.49,2.17-4.79a3.34,3.34,0,0,1,4.88,0,3.87,3.87,0,0,1,.66,5.27c-1.48,2.14-3.32,4-5,6Z"/><path class="cls-51" d="M99,150.46c1.57-.14,3.75.71,4.3-1.39a4.93,4.93,0,0,0-1.67-4.47c-1.44-1.44-3.43-2.5-.7-5,1.31-1.23-.76-3.37-2.45-3.87-2.55-.75-2.89-1.68-.62-3,2.07-1.22,4.47-2.34,3.88-5.08s-3.17-3.6-5.71-4.07c2.36-1.22,4.57-2.25,3.13-5.83-.9-2.25.68-4.28,2.89-5.11,4.6-1.72,9.18-3.78,14.31-3,1,.14,2.43.23,2.72.81,2.39,4.74,6.32,5.23,11,4.82a4.92,4.92,0,0,1,5.3,2.9c.45,1.08,1.66,1.93,2.82,1s0-1.77-.66-2.42c-2.51-2.66-.85-3.48,1.66-4.32,2.92-1,6.21-1.52,7.78-4.77,2.81.52,1.19,2.06.65,3.19-.79,1.66-2.91,2.15-4.11,4.75,9.14-6.44,15.47,1.45,22.83,3.2,2.58.61,2.85,3.46,2.12,5.91-1.7,5.68,1.36,9.32,5.17,12.82,1.81,1.66,5.55,2.92,4.28,5.78s-4-.32-6.2-.24a12,12,0,0,1-2,0c-2-1.06-3.24-3.19-5.75-3.63-2.06-.36-2.67-2.05-2.66-4.15a15.47,15.47,0,0,0-6.72-13.06c-4.75-3.53-8.48-2.76-11.4,2.49-1,1.72-1.65,3.58-3.08,5.12,2.95.16,6.65-1.55,7.39,3.27a2.65,2.65,0,0,1-.77,1.27c-2.61,2.09-6,1.13-8.84,2.16a10.25,10.25,0,0,1-4.51,0,53.14,53.14,0,0,0-8.57-1.81c.51,2,.69,4-1,5.59-1.92,1.76-3.76.18-5.76-.18-.08,1.82.79,4-1.71,4.92s-2.92-4.15-5.62-2.44c-2.23,1.42-.67,4.41-1.82,6.39S107.6,153,106,154.53c-1.75.09-2.32-2-4.12-2.11C100.83,152.36,98.91,152.65,99,150.46Z"/><path class="cls-4" d="M116.05,144.5c2.79-1.89.72-3.59-.35-5.33,2.69-2,4.81,1.61,6.69.79,2.81-1.22,2.45-3.72,0-6.16A15.49,15.49,0,0,1,133,135.51c1.11,1.36,2.8.77,4.17,1.24,1,.35,1.86,1,1.85,2.09,0,1.25-1.18,1.54-2.13,1.65-2.8.34-5.6.6-8.42.8-5.08.35-6.1,2.53-3.32,6.69.74,1.1,1.31,2.47,2.44,3.12a11.74,11.74,0,0,1,6.22,8.88c1.91-.75.91-1.79.78-2.63-.41-2.72,1.29-3.93,3.4-4.8s3.88-.21,5.05,1.82c1.29,2.21,2.86,4,5.45,4.82,1.24.37,2.81.59,2.88,2.29.09,2-1.48,2.86-3,3.49-2,.8-4.16,1.21-5.74,2.84-.79.81-1.92,1.41-1.67,2.83.45,2.5,1.88,3.89,4.33,4.8,5.12,1.9,5.6,3.83,2.71,9l-.95,0a6.92,6.92,0,0,0-6.67-5.61,11.57,11.57,0,0,1-7.67-2.74c-3.49-3.14-6.25-1.74-8.43.82-3.4,4-7.14,3.07-11,1.63-1-.38-1.72-.93-2.54,0a2,2,0,0,0-.08,2.74,6.35,6.35,0,0,1,1.37,5.1,1.9,1.9,0,0,0-.8,2.15c-.32,2.1-.56,4.22-2.16,5.85-.08-2.94.17-5.76-1.52-8.61-1.54-2.61-.21-6,1.52-7.9,4.32-4.83,3-9-.33-13.35-1.63-2.12-1.82-4.56-1.63-7.09,1.91-.5,2.61,1.07,3.54,2.13a27.82,27.82,0,0,0,5,4.78c.92.64,1.81,1.87,3,1.26,1.47-.72,1.18-2.32.84-3.54-.81-2.9-1.84-5.68,0-8.6.8-1.24-.8-1.51-1.32-2.23C116.81,149.25,115.38,147.21,116.05,144.5Z"/><path class="cls-52" d="M116.05,144.5c2,2.49,1.07,7.4,6.92,7.12-3.26,2.95-4.48,5.76-2.33,9.34.85,1.41.61,3.24.12,4.84-.66,2.13-1.46,2.88-3.83,1.23-3.85-2.68-6.76-6.19-9.85-9.56l-1-2.94c-.07-4.07,3.15-7.38,2.61-11.67-.11-.87,1.81-2.54,3.06-2.89,2-.56,2,1.57,2.65,2.84C114.69,143.49,115.46,143.94,116.05,144.5Z"/><path class="cls-53" d="M170,142.51c2.62-3.25,4.89,2.05,7.87.17-1.65-1.55-3-3.25-4.72-4.34-5.14-3.24-7.81-7.7-5.92-13.59s-2.6-6.14-5.71-7c-2.39-.64-4.59-1-6.69-2.62-2.63-2.07-5.74-2.36-8.37.44-1.41,1.51-2.84,2.52-4.44.35-1.85-2.52,1-2.45,1.94-3.41,1.43-1.4,4.56-1.79,3.06-5,.41-2.71-4.53-3.8-2.32-6.84,2-2.71,4.66.4,6.88-.3,5.67-1.79,11,.43,16.41,1.16-2.5,1.47-5.31.12-7.95.93s-4.27,2-3.36,6.59c2.68-6.76,6.12-5.1,9.8-2.82,2.5,1.55,4.61,2.71,1.59,5.91-1.6,1.71,2.27,5.88,5.52,5.07,4.53-1.13,4.87,1.34,6.89,4.37,4.27,6.41-2.84,10.17-2.42,15.55.11,1.36-.69,2.5.93,3.35,2.54-1.42,4.36.61,6.35,1.45,1.27.54,1.43,1.84.44,2.88-3.28,3.44,1.11,6.94-.13,10.41-.2.57.68.44,1.1.6,4.21,1.6,7.64,4.1,9.48,8.38.85,2.1-2.41,2.14-2,4-3.44,4.45-8.42,6.5-13.55,7.66-3.83.88-7.37-1.63-10.3-3.89a19.27,19.27,0,0,0-4.61-2.52c-1-1.87-.18-3,1.41-4.06,1.19-.8,2.94,0,3.8-1.45,1.53-2.6,4.14-1.23,6.24-1.75a3.19,3.19,0,0,0,1.88-1.47,29.92,29.92,0,0,0-5.44-1,5.14,5.14,0,0,1-2.65-.91c-.62-4.72,2.5-3.08,4.72-2.9-1.28-.42-2.72-1-2.72-2.7s1.85-1.49,3.3-2.3C170.86,150.41,170.22,146.61,170,142.51Z"/><path class="cls-5" d="M99.9,106.94c-.21,1.65-1.55,2-2.76,2.36-.85.26-1.84,0-1.64-1.08a3.22,3.22,0,0,1,2.68-2.49A1.36,1.36,0,0,1,99.9,106.94Z"/><path class="cls-54" d="M230,107.54c4.13.57,8-1.22,12.15-1.29,5.74-.11,8,2.32,8.84,7.27-.82.1-1.91.09-2.09,1-.26,1.33,1,1,1.65,1,3.89-.41,7.4-2.48,11.41-2.51,1.15,0,2.35-.7,2.82.91s-.43,2.45-1.95,2.8S259.56,118,258,117.8c-2.76-.27-4.65.23-6.16,2.81-1.81,3.09,1.49,3.94,2.13,5.92.37.74-.05,1.26-.48,1.78-1.9,1.22-.29,3.56-1.59,5-6.82,3.22-13.35,1.67-15.85-3.84-1.24-2.73-.94-5.82-1.41-8.7a16,16,0,0,0-4-8.8C229.45,110.65,228.58,109.25,230,107.54Z"/><path class="cls-55" d="M328.93,106.53a27.17,27.17,0,0,0,2.18,3.29c3.35,3.79,7.72,6.93,7.81,12.72,2.18,4.49-2.07,3.79-4,4.95-1.37-1,1.67-4.14-2-4l-1-1c-1.82.11-1.11-1.14-.95-1.93.4-1.91,1.1-3.81-.52-5.86-.61,2.8-2.47,3.1-4.69,2.65-2.25-.63-2.3-2.83-3.35-4.36-2.85-4.14-8.06-4.32-14.16-.5-8.5,2.76-14.19,11-13.61,19.17.21,2.83,1.26,4.31,4.06,4.65,4.35.52,8.14,1.72,9.15,6.88.32,1.62,2.35,2.34,3.2,3.74,1.68,2.76,4.21,5.52,1.06,8.9-2.45.84-3.57-1-4.8-2.47a34.06,34.06,0,0,0-4-3.59,10.76,10.76,0,0,0-6.48-5.49c-3.78-1.26-6.11-4.72-6.74-8.63-.9-5.56-1.33-11.28,2.16-16.29,1.48-2.11,1.36-4.74,2.69-6.85,2-1.53,6-.52,5.8-5.23-.05-1.13,4.26-2.12,6.62-1.67,5.83,1.11,11.5,2.29,16.09-3,.22-.26,1-.08,1.44-.1A10.79,10.79,0,0,1,328.93,106.53Z"/><path class="cls-56" d="M253,127.53c.33-.34.67-.67,1-1,1.76-.37,4.14,1,5.05-1.83.37-1.14,1.08-2.37,2.48-1.68a13.57,13.57,0,0,1,3.33,2.62c-2.52,3.75,2,5.36,2.43,8.18.5,3.06.66,6.35,4.79,7.75,2.28.77-.41,4,.89,5.93,1.7,1.17,2.59,3.07,4.06,4.45,1.13,1.3,2.33,2.56,2.7,4.34-1.52,4.34-2.85,4.89-8,3.29-2.72-2.45-4.93-5.25-5.63-9-.62-3.24-3.39-5.15-4.81-7.89-1.57-3.22-.46-7.57-4.2-9.87C254.61,132,252.29,130.9,253,127.53Z"/><path class="cls-57" d="M295,112.53c1.3,2.8,0,4.9-1.5,7.26-4.77,7.36-3.49,17.93,2.46,22.68.51.41,1.13,1.22,1.55,1.13,5-1,5.53,2.62,6.48,5.89-3.48,2.4-6.43,1-8.76-1.67-4.11-4.66-7.21-9.91-7.81-16.32-.13-1.49-.16-3-.38-4.46-.61-4.26-1.89-4.87-5.39-2.6a7.74,7.74,0,0,1-2.61,1.39c-1-.06-1.77-.69-1.57-1.51,1-3.88,0-8,1.55-11.8Z"/><path class="cls-58" d="M279,112.52c2,4.35-1.19,8.68,0,13,.22,3.88,2.91,7.4,1.64,11.5-.93,1.12-1.69,2.7-3.58,1.44a61.36,61.36,0,0,0-5.44-12.43,2.82,2.82,0,0,1-.52-1.83c1.35-4.21,2.26-8.4,1.21-12.86a2.77,2.77,0,0,1,1.51-2.27c1.76-.4,2.47,1.16,3.17,2.46-1.3,1.76-2.16,3.6-1,6.24,1.32-1.69.4-4,2-5.23Z"/><path class="cls-59" d="M277,138.48c1.55.2,1.93-1.37,3-2,3.05,2.92,3.57,6.75,3.86,10.67a3.63,3.63,0,0,1-.48,1.42c-2,2.17-4,4.3-7.33,3.86-1.38-1.43-2.79-2.84-3-5C279,146.58,278,142.55,277,138.48Z"/><path class="cls-60" d="M277.93,112.56a13.28,13.28,0,0,1,0,2.44c-.33,1.77,1.14,4.34-1.32,5.14-1.75.56-2.47-1.62-2.44-2.92,0-2.17-2-5.67,2.74-5.67C277.26,111.89,277.59,112.23,277.93,112.56Z"/><path class="cls-61" d="M230,107.54c-.35,4,4.84,4.82,5.05,8.51s2.29,6.67,1.7,10.52a6,6,0,0,0,5,6.71c3.3.6,7,1,10.24-.77,1.29,2.78-1.46,3.5-2.58,5-1.52,1-4.22-1.62-5,1.65-6.64,1.13-7.52,1-9.67-5-1.42-3.93-4.91-3.9-7.66-5.38-.79-1.53.31-2.24,1.3-3,3.52-2.9,1.88-6.43.91-9.65s-3.69-2.07-5.84-1.57c-8.34,1.93-8.63,2.49-8.77,11.67,1,5.12-.21,10.06-1.35,15-.19.8-1.37,1.78-1.14,2.11,2.54,3.72.48,8.27,2.14,12,1.88,4.21,1.34,5.88-3.35,6.07-3.09.13-6,2.7-9.48.32-1.24-.84-3.09,2.74-5.48,2.73-2.4-1.41-3.34-4.85-7.16-4.54-1.13.09.59-1.84.42-2.94-1.18-1-2.15.17-3.22.34a5.27,5.27,0,0,1-1.48.06c-.49-.06-1.19-.5-.81-.9,2.78-3-1-4.69-1.07-7,0-.45,1.67-1.46.69-2.62-2.8-3.3,2.44-1.57,1.76-3.8L179,140.5c1.8-2.37.54-7.6,6.41-6.25,1.89.44,2-2.31,1.39-3.45-2.15-4.12-.24-8.79-2.11-12.92-1.17-2.6.51-4.54,2.73-4.87,4.17-.62,8.5-1.61,12.55.87,1.73,1.06,3.84,2.6,3.19-1.58-.27-1.74,1.44-2,2.59-2.57,6.65-3.08,13.48-4.45,20.74-2.31A13.87,13.87,0,0,0,230,107.54Z"/><path class="cls-62" d="M249.84,240.61a25.47,25.47,0,0,0-.24,3c.08,2.09-1.54,2.55-2.92,2.63-2.38.13-1-1.88-1.29-2.91-.39-1.28,2.19-4.67-2.21-3-.46-1.51.27-3.12-.7-4.7-.49-.8.88-1.23,1.67-1.15,1.68.16,3.82-.9,4.75,1.47C249.51,237.46,250.31,239,249.84,240.61Z"/><path class="cls-63" d="M112,188.52a5.16,5.16,0,0,1,4.51-1.18c4.71,1,5.38,2,2.31,5.67-2.6,3.09-2.44,5.69,1,7.23,5.28,2.37,4.86,6,3.15,10.22-1.74-.87-3.42-1.89-5.23-2.58-5-1.9-6.2-4.45-4.3-9.36.47-1.22.91-2.46,1.29-3.71C115.64,192,115,189.73,112,188.52Z"/><path class="cls-64" d="M122.92,212.49c1.31,1.89,1.27,4.45,3,6.11.17,3.15-1.51,3.77-4.1,2.89-3.89-1.33-6.76-4.08-9.21-7.24-1-1.22-1.18-3.18.06-4.1,2-1.44,4.5-1,6.67-.31C120.71,210.24,121.75,211.58,122.92,212.49Z"/><path class="cls-65" d="M129,238.44l-2-1c.43-4.31,3.52-6.45,8.62-5.54a33.39,33.39,0,0,0,6.3.49c-1,6.13-5,6.34-9.83,5.1A2.74,2.74,0,0,0,129,238.44Z"/><path class="cls-66" d="M166,169.47c1.94-.48,4.38-3,4.78,1.7.15,1.7,9.21,3.46,11.25,3,4.69-1.06,8.35-3.82,12-6.61a1.55,1.55,0,0,1,1.95-.36c2.55,3.18,4.29,7.66,9.86,6,1-.3,2.5.77,2.25,1.39-1.67,4.18,3.05,2.66,3.85,4.53.67,1.71-.51,3-1.7,2.73-4.17-1-6.29,2.1-9.08,3.9-1.92,1.24-3.72,2.76-6.21,2.74h-1c-2.93-1.77-3.19-4.63-2.57-7.46,1-4.67-1.32-4.25-4.54-3.2-.46,0,.25.94.07.3,0-.15.1-.13.37-.19,1.89-.42,3.53,0,3.71,2.1.15,1.75-1.5,2.82-2.92,2.91-6.07.41-11.91-.42-16.86-4.42-1.05-.84-.71-3.3-3-2.71s-2.32,2.56-2.56,4.39a2.32,2.32,0,0,1-.73,1.27,9.87,9.87,0,0,0-4.49,2c-2.31,1.51-4.69,2.4-7.34.66-1.76-1.14-3.51-.47-5.2.33,1.24-4.55,1.4-8.07-5.12-8.16-2.77,0-2.31-4-3.84-5.78,5.72-3.25,11.44-6.46,18.37-3.79C159.48,170.06,162.78,169.67,166,169.47Z"/><path class="cls-67" d="M195,188.47c3.21-2.59,7.11-4.21,10-7.3a2.69,2.69,0,0,1,4-.4c1.51,1.2,2.37-.05,3-1.32a1.88,1.88,0,0,1-.46-1.95,4.8,4.8,0,0,1,1.28-1.77,3.43,3.43,0,0,1,2.06-.86c4.2,2.64,4.22,4.22.11,9.88a21.24,21.24,0,0,1-5.42,4.12c-.84.43-1.85.9-1.79,2.08,0,.74.74,1,1.41,1.08,1.21.16,2.36-.05,2.9-1.25.73-1.63,1.05-3.44,2.3-4.82.32-.38.69-.72,1-1.11,4.55-6.07,4.55-6.07,11.25-2.89a1.38,1.38,0,0,1,.7,1.11c-.07,1.8-3.6,2.57-.59,5.67,1.85,1.9,3,5.09,5.42,7,0,.23-.09.46-.14.69-2.68.67-5.35,1.45-8.06,2a5.78,5.78,0,0,0-4.64,3.94c-.62,1.91.79,3.3,2.34,4.45,1.87,1.38,3.7,2.87,3.35,5.61-4.21-5.16-4.56-5.2-8.85-1-.13-2-2.4-3.64-1.16-5.94,2.45-1.93,3.35-4.35,2.31-7.37s-3.42-2.65-5.78-2.65C205,195.45,199.37,193.46,195,188.47Z"/><path class="cls-67" d="M165,181.46a17.35,17.35,0,0,1-.34-3.9c.39-2.93,3-3.39,5.2-3.79,3-.56,1.12,1.83,1.46,2.92.54,1.74,2.09,2.43,3.56,3.22,3.62,2,7.76,1.35,11.59,2.31,1.38.34,3.89-.52,3.7-2.34-.2-2-2.2-1.23-3.64-.75a4,4,0,0,1-3.86-.23c1.18-2.23,3.93-1.22,5.52-2.8,1.27-1.25,3.07-.68,4.47.59s.65,2.4,0,3.86c-1.27,2.78,0,5.41,1.34,7.92-7,.42-12.36-4.16-18.43-6.44C171.9,180.64,168.63,180.17,165,181.46Z"/><path class="cls-68" d="M261.94,189.44c-6.7,2.13-4.95,8.25-5.3,12.76a96.12,96.12,0,0,0,.3,10.25c-2.94-1.78-5.54-1-8,1-1.3,1.6-1.84,4.48-5,2.95.33-1,1.4-1.85.29-3.73L241,216.44c-1-2-3.32-2.84-4.23-4.9.89-2.68-2.75-1.33-2.82-3.16a2.59,2.59,0,0,0-2.22-.85c-1.74-.05-3.93,2.38-5.12-.62-1-2.43.22-4.42,2.21-6,2,.43-.19,2,.74,2.72,2,.71,2.5-4.56,4.91-1.48,1.81,2.32-2.48.47-1.77,2.74,1.36.44,3,1.06,4.68,1.46.94.22,2.91,1.14,2.45-.8-.36-1.51,3.63-2.65,0-4.2-2.87-1.24.53-2.78.3-4.39-2.53-2.08-5.6,2.29-8.13-.5h0c1.1-2.18,3.13-3.34,5.07-4.6,1.81-.61,3.7.13,5.51-.38,3.43-.43,7-.11,10.27-1.3.67-.25,2.73,1,1.94-1.39,1.06-1.58,2.6-1.57,4.22-1.33C259.88,188.3,262,187.23,261.94,189.44Z"/><path class="cls-69" d="M237,211.46c1.87,1.23,4.74,1.66,4,5l-2,.07a2.09,2.09,0,0,1-2.86.07c-5.14,1.51-2.38,5.82-3.16,8.88-5.29-2.59-6.39-6.71-3.11-11.39a14.85,14.85,0,0,0,1.18-2.63C233,210,235,209.79,237,211.46Z"/><path class="cls-70" d="M244,216.42c2.51.45,2.7-3,5-2.95l5.24,2.46C250.71,214.21,247.69,222.11,244,216.42Z"/><path class="cls-71" d="M239.92,219.37a6.76,6.76,0,0,1,2,.1c1.17.41,3.11-1.06,3.49,1.35-2.54-.22-.1,3.52-2.24,3.06-1.53-.32-4.51-.18-3.32-3.49a3.51,3.51,0,0,0,.08-1Z"/><path class="cls-72" d="M240,227.92c2.56-.57,4.19-2.28,7.09.14C244.47,228.34,243,230.29,240,227.92Z"/><path class="cls-73" d="M236.08,216.58l2.86-.07c.33,1,.65,1.9,1,2.86l0,0C236.49,221.35,236.56,218.59,236.08,216.58Z"/><path class="cls-74" d="M345.91,165.53c0,.66,0,1.33,0,2-4.21-1.38-7.19-5-11.57-6.22-2.36-.65-1.81-2.15-.22-3.52a14.75,14.75,0,0,0,5.12-7.71c.72-2.9-.6-3.1-2.83-2.77-5.41.81-8.73,5.46-8.66,9.31.07,4.29-2.56.62-2.8,1.89a2.42,2.42,0,0,1-.41-3.13c2.39-3.7,3.58-7.92,5.39-11.87,1.81-2.63,4.59-1.89,7.12-2.05a1.3,1.3,0,0,1,1.9.11c1.43,1.17,3.59,1.74,3,4.42-.69,3.2-.79,6.56-1.75,9.67-1.78,5.77-1.68,6.31,4.11,8.81A9.23,9.23,0,0,1,345.91,165.53Z"/><path class="cls-75" d="M338.94,141.56l-1.9-.11c-.85-2.06-2.63-2.72-4.69-2.69.5-3.1,3.72-1.29,4.65-3.2a2.56,2.56,0,0,1,1.3-.86c2-.12,3.77.17,3.66,2.83C342.08,139.72,341.94,141.71,338.94,141.56Z"/><path class="cls-76" d="M342,137.53c-.82-1.74-2.4-2.06-4.09-2.18-.27-1.67.64-2.45,2.11-2.81,2-2.17-2.37-2.6-1.05-4.73,3.72-1.09,4.91,1.11,4.9,4.38a32.06,32.06,0,0,1-.91,5.34h-1Z"/><path class="cls-77" d="M329.92,143.5c.6,4.22-1.13,7.74-3.52,10.95a5.6,5.6,0,0,0-1.46,4.05c-.05.29-.1.58-.17.87L322,160.55c-1.82,1.16-3.38.31-4.94-.6.29-3.4-2.62-2-4.11-2.7-.68-.37-1.21-.83-1-1.72a3.2,3.2,0,0,0,.41-.91c.48-5.42-7.19-15.94-12.3-16.9-6.58-1.24-8.28-4.19-6.79-10.71,1.4-6.14,6.24-9.88,9.65-14.61,1.13-1.57,3.56.72,5-.92,5.37-1.9,9.88-1.17,13.22,4,1.1,1.68,2.91,2,4.81,1.11,3.36-.35,3.36-.35,2-2.84,4.7.12,5.89,1.63,4.86,5.89-.24,1-2,1.55-.85,2.92C328.45,129.24,325.61,136,329.92,143.5Z"/><path class="cls-78" d="M311.89,155.53l1,1c1.42.89,3,1.55,4,3l5,1.07c0,1,0,1.95,0,2.93-2.4,2.1-4.69,1.76-7.14,0-2.93-2.17-5.6-4.61-8.31-7-3.95-3.54-7.25-3.85-11.63-1.45-7.19,2.67-9-3.16-11.86-7.45q-1.52-5.49-3-11c.51-3.74-3.47-7-1-11,.4-.52.71-1.34,1.22-1.49,1.93-.58,2-4.14,5.1-2.91s3.4,4.31,3.24,6.61c-.42,6.13,2.07,11.06,5,16.05,2.4,4.08,5.47,6.53,10.45,5.69C308,149.6,308.12,155,311.89,155.53Z"/><path class="cls-79" d="M294.94,154.5c2.3-3.38,7.5-3.32,11.67.21,2.89,2.45,5.76,4.92,8.53,7.51a5.92,5.92,0,0,0,6.77,1.26c-1.9,2.89-4,4.4-7.51,2-3.82-2.59-9.6-1.48-12.25-6.55-.47-.89-1.78-.14-2.17,1-1,2.94-3.44,4.32-6,5.52-1.48-.58-2.56-1.49-2.58-3.24A38,38,0,0,1,294.94,154.5Z"/><path class="cls-80" d="M292,162.49l2,3c-10,2.47-16.25,10.07-23,17-2.7.05-5.22,1.53-8,1-3.82,1-7.7,2.68-11.17-.85a1.85,1.85,0,0,1,0-1.37c3.92-2.44,8.34-3.2,12.81-3.76.87-.1,1.65.05,1.06-1.21.08-.76.57-1.46,1.18-1.43,3.41.19,5.43-.84,6-4.66.26-1.84,2.41-2.76,4.44-2.14,2.35.72,3.66-.46,5.12-2C284.94,163.31,287.9,161.32,292,162.49Z"/><path class="cls-81" d="M330.68,165.47c-.62.51-.86.88-1.09.88-2,0-4.28.92-6.06-.72-.56-.51.13-1.34.68-1.59C326.54,163,328.66,163.33,330.68,165.47Z"/><path class="cls-82" d="M237,211.46l-6,0c.07-.69-3.2-1.79.29-2.09a10.17,10.17,0,0,0,2.64-1C235.24,209.11,238.14,208.26,237,211.46Z"/><path class="cls-83" d="M215,215.49c-5.13.81-8.82-2.2-12.55-4.88-2.09-1.5-2.41-3.06.64-4.19,7.54-2.78,11.62.26,11.91,9.07Z"/><path class="cls-84" d="M174.93,236.36c0-.32,0-.63.07-.94,2.83.35,3.5-1.58,3.39-3.68-.09-1.54,0-2.61,1.55-3.17,0,6.06,0,12.11.1,18.17,0,1.56-.58,3.31.93,4.6-1.53,2.46-1.53,6.37-5.87,6.14Q175,246.92,174.93,236.36Z"/><path class="cls-85" d="M340,132.54l-2.11,2.81a2.22,2.22,0,0,1-.87.21c-1,0-1.95,0-2.93-.05-2.22-.1-3.32-1.32-3-3.49.31-2.38,2.18-2.63,4.06-2.42S338.57,131.19,340,132.54Z"/><path class="cls-40" d="M332.93,123.53c1.45-.71,3.14-1.78,4.29.08,1.48,2.39-3.05,1.66-2.31,3.88C331.79,127.4,334.23,124.53,332.93,123.53Z"/><path class="cls-86" d="M252,182.47c3.55,1.68,7.35.54,11,1-1.45,1.37-4.89,2.79.08,4,.77.19,1.91.29,1.15,1.4-.32.48-1.48.38-2.26.55-.68-1.15-1.83-1-2.91-1.07-3.1-.32-6.22-.47-8.6-3-.62-.67-1.9-.88-1.26-2.14S250.73,181.58,252,182.47Z"/><path class="cls-4" d="M170,142.51c.64,1.36,4.68,1.05,2,4.1-1.07,1.22-.1,1.71,1,1.87,2.31.31,3.86,2.46,6.47,2.23-1.32,2.83-3.8,1.13-5.4,2.07,1.45,2.44,1.45,2.44,4.83,3.23-2.28,1.91-6.3-1.68-7.87,2.47-.21.27-.49.67-.74.62-5.51-1.18-10.92.39-16.37.48-1.29,0-2.82-.18-3.18-1.83-.33-1.48,1-1.94,2-2.51,2.07-1.2,2.58-3.32,3.53-5.79-1.79.39-2,1.78-2.7,2.68a3.49,3.49,0,0,1-3.9,1.56c-2.27-.62-4.14-2-3.78-4.52.42-3.07-5-6.77,1-9.23a18.57,18.57,0,0,0,4.23-2.63c1-.73,3-.91,2.36-2.63-.57-1.44-2.26-1-3.58-.77-1,.17-2,.42-2.81-.4-1.63-6.24-6.17-1-9.72-2.56,3.29-2.23,3.6-6.19,6.18-8.68,5.71-5.5,13.21-4,16.34,3.46,1.37,3.3,4.68,6.26,2.62,10.62-.56,1.18,1,2.21,2.19,2C168,137.9,168.71,140.52,170,142.51Z"/><path class="cls-87" d="M147,133.51a21.51,21.51,0,0,1,3.73-1.25,5,5,0,0,1,5.42,2.54c.73,1.7-1.82,1.91-3,2.58-2.42,1.4-4.39,3.53-7.21,4.29-.54.14-.93.83-1.39,1.26,2.58,2.22,2.11,5.4,2.92,8.24s4.4,2.24,5.41-.58c.55-1.53.93-2.84,2.73-3,1-.09,2.12-.34,2.76.58s-.14,1.56-.73,2.14c-2.26,2.23-1.51,6.93-6.46,6.88a3.75,3.75,0,0,0,4.48,1.24,24,24,0,0,1,15.31.07l3,0c-.53,2.89-3.84,4.54-7.64,3.68-1.68-.39-3.17-1.52-4.94-1.27-.75-.09-.13,1.13-.21.47,0-.23.11-.24.38-.29.82-.14,1.75-.24,2.24.45s-.13,1.57-.77,2c-1.71,1.27-3.1,2.94-5,3.9-6.82-2.17-12.63,2.15-19,3,1.58-3.44,4-5.72,8-6.2,1.39-.17,3.32-.77,3.48-2.37.21-2.11-1.9-1.08-3-1.49a8.59,8.59,0,0,1-5.41-5.41c-1.06-3.29-3.16-1.75-4.7-1s-3.24,2.23-.91,4.16c.82.68,1.73,1.37.41,2.25a8.78,8.78,0,0,1-3.58,1.6c-1.33.14-1.32-1.28-1.24-2.22.3-3.43-1.28-5.05-4.29-6.84-2.74-1.64-4.59-5.1-6.26-8.07-1-1.76,3.73-5.5,6.71-5.12,3.42.44,6.62-.58,10.08-.52-.87-3-5.11-.27-5.27-3.74h5c3-.85,6.62,1.51,9-2Z"/><path class="cls-4" d="M147,133.51c-1.89,5.66-5.8,2.21-9,2C140.76,133.61,144.22,135,147,133.51Z"/><path class="cls-88" d="M196,167.52l-1.88,0c-.82-1.94,2.18-1.5,1.92-3.09.89-2.07,3.69-2.29,4.4-4.59.18-.59,1.26-1.23,1.56-.63,2.09,4.22,5,1.19,7.57,1.06,1.79-.09,4.12.88,4.84-1.22s-1.13-3.62-2.89-4.56-1.37-1.93-.16-2.55c3.71-1.9,2.27-3.69.09-5.56-1.79-1.53-2.81-2.88.18-4.33,1.64-.8.1-3.33,1.87-4.28-2.24-2.64,0-5,.71-7.25.62-1.87-.63-2.75-1.18-4,1.86-.76,1.74-4.49,4.91-3.26.88,1.11.34,2.31.26,3.49-1.72,10.89-2.27,21.74,1,32.49-.48,1.53-2.11,2.29-2.53,3.85-.43,2-1.39,3.36-3.75,2.87-3.87-.34-7.75-2.53-11.6.09C199.56,166.86,198.08,168.35,196,167.52Z"/><path class="cls-4" d="M158,167.48c.12-3.28,3.33-3.68,5.4-5.62l-3.75-.73c.55-.34.74-.57,1-.59,3.69-.36,7.35,1.27,11.1,0,1.2-.41,2.16-.62,2.27-2,2.38-.32,4.39,1.63,7,.77-1.83,3.56-1.83,3.56-9,4.71,1.21,1.27,3.35-.38,4.61,1.72-1.7,1.2-3.3.38-5,.22-2.53-.23-5.59-.54-5.61,3.54C159.45,172.29,159.08,172.19,158,167.48Z"/><path class="cls-89" d="M249,137.49c-.38-2.48,3.05-2.69,3-5-.89-1.91-2.12-3.9,1-5,.95,2.21,1.93,4.4,5,4,2.16,3.68.63,6-2.78,7.67C252.8,139.84,250.58,139.77,249,137.49Z"/><path class="cls-90" d="M325.91,116.54c-1,1.31-2,4-3.88,1.45-3.66-4.75-8-7.44-14.15-6.5,3.32-2.18,6.7-3.89,10.9-2.62,2.94.9,4,2.17,5,5.78C324,115.41,325.17,115.92,325.91,116.54Z"/><path class="cls-89" d="M227,128.5c4.44-.19,8.14.57,9,6,.91,5.66,5.49,3.73,8.95,4,3.54-1.11,7.09,1.71,10.61,0,1.22-.62,2.47-1.06,3.53.22a2.28,2.28,0,0,1,.14,2.75c-1.73,2.86-4.38,1.19-6.68,1.3,4.49,3.16,5.08,3.15,9.4-.24a14.77,14.77,0,0,1,6,10.14c.37,2.53,3.08,3.59,3.93,5.86.62,1.74,4.09,2.67,1.66,5.24a6.09,6.09,0,0,1-8.35-.07c-1.13-1.19-2-2.59-3.83-2.87a5.84,5.84,0,0,1-2.6-1c-.4-2.12-3.63-6.18-5.91-7.33-2.48-1.25-3.54-3.89-5.6-5.61s-3.84-2.7-6.62-1.16c-2.59,1.43-5.69,1.78-8.56,2.61-2.23.63-4.67.78-6.28-1.61a1.93,1.93,0,0,1,0-1.36,6.3,6.3,0,0,1,1.66-1.19,2.28,2.28,0,0,0,.67-3.09c-1.71-3.41-1.26-7.05-1.3-10.64A2.34,2.34,0,0,1,227,128.5Z"/><path class="cls-91" d="M262,159.5c.74.29,1.91.37,2.16.9,2.16,4.46,5.28,4.93,9.45,2.1.46-1.43-2-2.26-1.61-4,3.35,1.45,6.23,1.81,6.95-2.94,2.12-.38,2.3,1.38,2.88,2.64s.3,3.85,3,2.47c2.09-1.06,2-2.83,1-4.66-.88-1.58-2.33-2.82-2.87-4.62a3.35,3.35,0,0,1,0-2.87l0-1c2,.95,4.3,1.37,4.18,4.59-.08,2,1.67,2.82,3.57,2a4.42,4.42,0,0,1,4.22.46c.5,3.22-1.33,5.58-3,8-4.23.92-8.16,2.25-10.33,6.5-.95,1.88-2.43,1.12-3.81.43-3.09-1.54-4.95.34-4.54,2.86.71,4.4-.86,4.57-4.2,3.4a2.56,2.56,0,0,0-3.13.78c-2.15,1.27-3-.27-3.74-1.82-1.79-3.93-.93-8.36-2.23-12.42C259.65,161.22,261.16,160.34,262,159.5Z"/><path class="cls-92" d="M282.94,148.52a28.06,28.06,0,0,0,3.62,6.31c1.87,2.28,3.11,5.13-1.13,7-3.06,1.39-4.59,1.29-4.55-2.54a4.3,4.3,0,0,0-2-3.77l-2.91-3.1C278.88,152.15,279.83,148.43,282.94,148.52Z"/><path class="cls-93" d="M262,142.5c-.32,4.87-3.84,4-6.9,3.74-.54,0-1.08-.69-1.53-1.16-1.12-1.15-4.55.14-3.72-2.69s3.4-.53,5.14-.61c1.4-.07,3.06,1,3.67-1,.72-2.33-1.16-2.21-2.65-2.28a.6.6,0,0,1-1,0c2.78-1.55,3.39-4.05,3-7C262.14,134.15,261.15,138.66,262,142.5Z"/><path class="cls-89" d="M218,123.51c-2.48-.35-2.71,3-5,3-.78-8.68,4.37-13.9,13.72-13.93a3.51,3.51,0,0,1,3,1.41c2.92,3.52,1,7.82,1.86,11.68.18.77-1.59.78-2.56.83a4,4,0,0,1-.83-1.1c-1.25-2.67,1.07-6.4-2.49-8.38-2.25-.18-3.59,1.12-4.71,2.84C220.09,121.18,219.81,123,218,123.51Z"/><path class="cls-94" d="M218,123.51c1.63-3.7,2.55-8.1,8-8,1.43,1.6,1.5,3.57,1.46,5.54,0,1.69.1,3.29,1.54,4.45v1a3.39,3.39,0,0,0-2,2l1,1a16.45,16.45,0,0,0,.29,10.35,6,6,0,0,1-.29,5.63h-2c-2.78-3.95-2-8.53-2.29-12.91-.07-1,0-2,0-3-.11-5.43-.1-5.42-4.89-2.83a1.46,1.46,0,0,1-1.81-.26Z"/><path class="cls-54" d="M255,138.5h1a13,13,0,0,1-11,0c-.16-1.1-2.07-1.75-1.27-2.84,1.26-1.72,2.06.52,3.12.8a11.79,11.79,0,0,1,2.16,1C251,137.83,252.84,138.86,255,138.5Z"/><path class="cls-53" d="M196,167.52l5.06-2c2.37-1.77,4.95-1.1,5.94,1.05,1.45,3.13,2.78.42,4.12.5,4.83,1.23,5,1.72,2.92,8.46l-1,1c-.46-.14-1-.71-1.31-.38s.22.89.28,1.38c0,.65,0,1.3,0,1.95l-7.11-1.38c-.48-2.15,3.64-1,2.51-3.24-.9-1.81-2.82-.51-4-.16-2.63.79-4.37,1-4.72-2.47C198.49,170.36,194.28,170.62,196,167.52Z"/><path class="cls-86" d="M214,175.49c.52-1.85-1.2-3.43-.17-5.58,1.19-2.48-2.72-.57-2.85-2.43-.26-1.6.37-2.31,2-2,2-.12,3.1-.81,2-3,4.92-1.54,5.64-1.14,6,3.61,3-1.34,4.31-4,6.46-6.14-3.34-3.14-6.53,2-9.5-.46-3.5-10.9-2.86-21.92-1-33,1.67,0,2-1.52,2.94-2.37s1-2.9,2.86-2a4,4,0,0,1,2.2,4.14,116.8,116.8,0,0,0,1,19.24h0c1.56,4,5.22,6.17,9.05,5.12,1.75-.48,3.43-1.25,5.22-1.66,2.18-.5,4.52-3.33,6.37-1.42,2.43,2.51,5.16,5.24,5.46,9.24.17,2.15-.37,4.31.5,7.12.29-4.78,2.82-5.52,6.37-4.43l3,0c.21,1.65-3,3.72.73,5,1.35.46.58,1.24,0,2.19-1.63,2.67.34,8.21,3.26,9.79,1.09.16,2.53-.28,2.78,1.38a1.18,1.18,0,0,1-1.52,1.42c-5.51-2-10.09,2.1-15.25,2.23-3.38,1.83-7.15,2.93-10.11,5.54-2.17,1.95-5.35,1.31-7.74,2.76.41,1.68,2.32,1.45,2.79,2.75-.94,2.16-3,3-4.89,3.93-3.52-1.25-5.83-3.46-6-7.42-.22-4.77-3.81,1.89-4.51-2,1.31-1.67,4.52-2,5.51-4.62,3.31-2.2,7-3.87,9.85-6.7-3.63,1.73-6.17,5.05-9.86,6.69a4,4,0,0,1-.49,0,14.82,14.82,0,0,0-11.49,4,2.13,2.13,0,0,1-1-2C218,178.59,218,177.6,214,175.49Z"/><path class="cls-95" d="M214,184.46a2.14,2.14,0,0,1,1,2c-.51,1.22-1.53,2.49-1.42,3.65.19,1.86-.17,3-2,3.24-2,.28-4.13.38-5.66-1.15s.2-2.47,1.12-3.15C209.25,187.4,211.66,186,214,184.46Z"/><path class="cls-96" d="M212,177.5c-.77-.65-2.48-.53-2.2-2a2.68,2.68,0,0,1,2-1.66c1.59.06,1,1.63,1.2,2.62Z"/><path class="cls-97" d="M236.89,192.54c-2-.28-5.14-.3-5.21-2.3-.09-2.34,3.19-2.06,5.08-2.69a39.46,39.46,0,0,1,5.21-1.08c3.58-.41,7.24-1.09,9.3,3.08-.51,2.33-2.44,1.75-4,1.9-1.77.17-3.66-.39-5.26.86C240.41,194.42,238.57,191.67,236.89,192.54Z"/><path class="cls-98" d="M251.14,189.58c-2.39-3-6.4-1.21-9.17-3.11-.05-.6-.17-1.72-.15-1.72,3.59-.44,6.32-3.57,10.13-3.26,0,.33,0,.65,0,1a7.59,7.59,0,0,0-2.11,1c-.4.36.11.79.61.94,3,.93,5.12,3.93,8.57,4-1.38.26-3-.41-4.06,1.13A2.76,2.76,0,0,1,251.14,189.58Z"/><path class="cls-99" d="M251.14,189.58l3.83-.07c.16,0,.36,0,.48.13a5.12,5.12,0,0,1,.55.59,10.23,10.23,0,0,1-5.55,1.77c-2.79.3-5.61.23-8.42.31.36-2.49,2.33-1.84,3.88-2C247.66,190.12,249.58,191.13,251.14,189.58Z"/><path class="cls-100" d="M313.72,113.79c-.59,2.87-2.71,3.23-4.08,4.25-1.9,1.42-2,2.85-1,4.72,1,2.14,2.38,1.85,4,.66,3.61-2.64,8.09,1.49,11.82-1.43.43-.34,2,1.19,2.22,2.35,1.29,6.44.64,13.23-3.41,17.86-1.87,2.14-6,2.66-5.9,6.88a2.12,2.12,0,0,1-2.05-2.19c.1-7.83-6.22-12.13-9.72-18-.92-1.53-2.52-1.4-4-1.41-1.19,0-2.45-.07-3-1.29-.78-1.63.59-2.64,1.58-3.25C304.6,120.2,307.24,114.64,313.72,113.79Z"/><path class="cls-55" d="M316.94,159.48c-2.05,0-3.09-1.41-4-3C314.77,156.83,318.06,155.16,316.94,159.48Z"/><path class="cls-67" d="M218,159.5c3.13.1,5.51-3,8.9-2,1.54.43,3.5.87,2,2.67-2.45,3-4.67,6.37-8.45,8a2.7,2.7,0,0,1-1.8-.16c-.18-.07-.3-1-.1-1.26,4.42-6.21-1.6-3.47-3.57-4.19C215.39,160.88,217.23,160.73,218,159.5Z"/><path class="cls-61" d="M213,165.48l-2,2a34.7,34.7,0,0,1-2.49,2.91c-.93.9-2.27.46-2.09-.59.86-5-2.64-4.08-5.38-4.32.3-.56.52-1.52.91-1.6A16.07,16.07,0,0,1,213,165.48Z"/><path class="cls-94" d="M259,159.48c-2.54.92-6.41.68-4.45,5.42.23.58-.93,1.5-1.81,1.19-1.48-.5-2.92-1.59-2.29-3.28,2.08-5.58-.74-9.63-3.65-13.89-.86-1.25-1.51-1.31-2.17-.64-2.39,2.41-5.82,2-8.61,3.44-4.66,2.41-10.38-1.34-10-6.21a3.51,3.51,0,0,0,4.62,1.89c3.7-1.27,7.9-1.21,11.08-3.7,1.51-1.19,2.79-1.47,3.79,0,1.75,2.52,5.23,3.15,6.26,6.62.53,1.82,3.47,2.42,5.19,2,5.82-1.25,3.7,1.6,2.55,4.27A12.31,12.31,0,0,0,259,159.48Z"/><path class="cls-88" d="M228,145.5c-.92-4-.35-8.14-1.79-12.06-.61-1.64,1.28-2.56,1.79-3.92.34,4.27-.31,8.64,1.86,12.72A2.14,2.14,0,0,1,228,145.5Z"/><path class="cls-88" d="M229,125.52c-2.29-.18-3.36-1.57-2.84-3.66s-.49-4.22-.16-6.33C231,117.65,228.21,122.12,229,125.52Z"/><path class="cls-67" d="M227,182.47c2-3,5.48-4.5,7.5-7.57a2.71,2.71,0,0,1,4.32-.33c1.35,1.72-.9,2.66-1.81,3.24-3.1,2-6.23,4.07-10,4.67Z"/><path class="cls-67" d="M222,170.78c-.72,1-.91,1.46-1.07,1.46-1.73-.08-3.45,1.25-5.13.12-.21-.14-.06-1.39.29-1.72C218.16,168.68,219.62,171.18,222,170.78Z"/><path class="cls-91" d="M251.87,173.91a5.59,5.59,0,0,1,6.25-2.17C256.47,174.16,253.81,173.09,251.87,173.91Z"/></svg>