<svg id="Layer_1" data-name="Layer 1" xmlns="http://www.w3.org/2000/svg" viewBox="0 0 400 275"><defs><style>.cls-1{fill:#e1bf81;}.cls-2{fill:#e4c690;}.cls-3{fill:#f5dcaa;}.cls-4{fill:#ecd19f;}.cls-5{fill:#d9b679;}.cls-6{fill:#eacb91;}.cls-7{fill:#d5b277;}.cls-8{fill:#e8d8b6;}.cls-9{fill:#e3c78f;}.cls-10{fill:#d9ba83;}.cls-11{fill:#cead70;}.cls-12{fill:#dfc290;}.cls-13{fill:#c9ae7c;}.cls-14{fill:#d7bd8c;}.cls-15{fill:#dfcea8;}.cls-16{fill:#daba81;}.cls-17{fill:#a77b41;}.cls-18{fill:#b49460;}.cls-19{fill:#ccad77;}.cls-20{fill:#d7bb86;}.cls-21{fill:#e7cc97;}.cls-22{fill:#c3a46f;}.cls-23{fill:#d9ba82;}.cls-24{fill:#e2c38b;}.cls-25{fill:#e0c390;}.cls-26{fill:#bea374;}.cls-27{fill:#dab780;}.cls-28{fill:#dfbe83;}.cls-29{fill:#e3cc9f;}.cls-30{fill:#caae80;}.cls-31{fill:#ead1a0;}.cls-32{fill:#ccab7c;}.cls-33{fill:#c8ac79;}.cls-34{fill:#b59d73;}.cls-35{fill:#8e6b3c;}.cls-36{fill:#dac092;}.cls-37{fill:#e8d0a6;}.cls-38{fill:#c7ae83;}.cls-39{fill:#ac8d5e;}.cls-40{fill:#c1a374;}.cls-41{fill:#ddcca9;}.cls-42{fill:#493c2d;}.cls-43{fill:#b69f77;}.cls-44{fill:#e9d9bf;}.cls-45{fill:#eee1cc;}.cls-46{fill:#ece0cc;}.cls-47{fill:#ae9f84;}.cls-48{fill:#b8a57d;}.cls-49{fill:#e4c791;}.cls-50{fill:#b49e77;}.cls-51{fill:#e9ca8d;}.cls-52{fill:#dbb474;}.cls-53{fill:#dcb777;}.cls-54{fill:#dec08a;}.cls-55{fill:#d3aa69;}.cls-56{fill:#d6b173;}.cls-57{fill:#e2c386;}.cls-58{fill:#cdab6d;}.cls-59{fill:#bd9759;}.cls-60{fill:#d6b171;}.cls-61{fill:#c1995d;}.cls-62{fill:#e8cf9c;}.cls-63{fill:#c9ac79;}.cls-64{fill:#d4bf96;}.cls-65{fill:#b39763;}.cls-66{fill:#e7ca92;}.cls-67{fill:#dac293;}.cls-68{fill:#bd9c63;}.cls-69{fill:#d0b17a;}.cls-70{fill:#825d24;}.cls-71{fill:#b7965c;}.cls-72{fill:#b69759;}.cls-73{fill:#c9a368;}.cls-74{fill:#dec390;}.cls-75{fill:#614422;}.cls-76{fill:#7b623c;}.cls-77{fill:#967642;}.cls-78{fill:#ab8d57;}.cls-79{fill:#bb9156;}.cls-80{fill:#9a7a45;}.cls-81{fill:#c1a677;}.cls-82{fill:#d4b787;}.cls-83{fill:#dfc186;}.cls-84{fill:#dcb879;}.cls-85{fill:#cea564;}.cls-86{fill:#d5b77f;}.cls-87{fill:#b38648;}.cls-88{fill:#ba8a46;}.cls-89{fill:#debe84;}.cls-90{fill:#cba262;}.cls-91{fill:#b99a61;}.cls-92{fill:#cbae78;}.cls-93{fill:#cdad75;}.cls-94{fill:#a07439;}.cls-95{fill:#a47840;}.cls-96{fill:#ae8349;}</style></defs><path class="cls-1" d="M172.08,104.5c2,.22,4.18-.35,6,1-3.32,2.31-7.15,2.16-10.92,2.3-3.16.12-8.92,4.76-9.44,7.64-.19,1.08.56,1.46,1.33,1.75a29.63,29.63,0,0,0,3.31,1.06c8.42,2.17,10.24,5.73,8.44,14.26-.61,2.86-1.86,6-.75,9.08,1.24.86,2.81,1.06,4,2,1.58,1.2,3.44,2.22,1.38,4.7-.89,1.07-.57,2.85-.49,4.27s3,3.05.22,4.53a4.57,4.57,0,0,1-5.88-1c-1.6-3.41-7.05-3.28-7.64-5.54a13.51,13.51,0,0,0-5.23-7.73,13.18,13.18,0,0,1-4.71-7c-1.87-5.56-4.74-11-10.93-13.42-4-1.54-9.7,2.65-9.36,6.85.15,1.92,1.72,1.11,2.63,1.5,1.62.69,3.22,1.55,3,3.49s-2.13,2.33-3.83,2.5c-4.3.44-8.6.93-12.84,1.79-6.55,1.33-7.94,4.68-4.28,10,1,1.43,2,2.84,0,4.26-9-3.39-12-9.47-9-18.09.48-1.35.88-2.63-.49-3.58-1.8-1.27-1.5-2.36-.42-4.1,1.18-1.92,2.4-2.56,4.47-1.89,1.87.61,3.73,1.56,5.78.15-2,.42-3.8-.11-5.68-.4-7.09-1.09-11.06,3.33-8.62,10.1,1.61,4.48.08,8.89.71,13.3.23,1.58-1.53,2.45-2.56,3.92,2.4.9,3.41,2.78,4.26,5.08,2.1,5.73,7.94,9.66,12.65,8.95a1.92,1.92,0,0,1,1.6,1.34c.45,4.06-1.8,5.17-5.3,4.75-1.6-.19-3.15-.72-4.76-.86a5.71,5.71,0,0,1-1.35-.35c-1.55-1-2-2.88-3.43-4a6.82,6.82,0,0,1-.82-1,40.26,40.26,0,0,0-5.27-8.43c-1.92-2-3.1-4.81-6.42-5.05-1-.07-2.17-.32-2.34-1.46-.25-1.68,1.18-2.16,2.39-2.69,3.06-4,.42-8.06-.13-12-.25-1.78-1.22-3.41-.15-5.2,1.82-3,.74-5-2.3-6.24a3.75,3.75,0,0,1-2.29-1.8c4-13.71,14.13-18,27-11.58,4.51,2.27,10.14,2.29,13.48,6.9-2.13-3.68-1.82-5.19,2.1-6.63s7.46-2.73,7.24-8c-.08-2,2.09-2.25,3.75-2.56,5.82-1.06,11.57-.36,17.3.7C162.32,102.9,167.16,104,172.08,104.5Z"/><path class="cls-2" d="M172.08,104.5c-7.86.86-15.31-2.33-23.15-2.38-3.29,0-6.46,1-9.75.51a1.56,1.56,0,0,0-1.86,2.16c2.13,5.75-2.64,6.13-5.87,7.68-.87.42-1.95.42-2.83.83-1.84.86-3.51,1.83-.77,3.76a6,6,0,0,1,1.88,2.25c.42.86.58,2.06-.48,2.64-.91.5-1.55-.31-2-1-2.52-4.18-6.29-6.18-11.07-6.55a4.24,4.24,0,0,1-2.28-.94c-7.09-6.1-14.22-2.4-21.34-.12-1.13.36-2.47,1.15-2.3,2.33.47,3.35-1.76,5.42-3.23,7.87a63.89,63.89,0,0,0-14-2.27c-4.51-.29-6.23-3.5-5.15-8.18,1.27-5.48-2.88-14.63-7.68-17.38-4.06-2.33-7.3-6.29-12.77-5.61-1.2.15-2.37-1.17-3.2-2.21C39.56,82,33.2,79.51,26,78.8c-3.74-.37-6-2.69-8-5.4-1.66-2.28-3.37-4.52-5-6.81h0c-1.58-2.19-2.25-4.9-4-7a8.41,8.41,0,0,1-1.92-6c1-.83,1.8-.36,2.56.38,3.31,4.73,6,10,10.14,14,3.5,3.41,6.63,3.13,9.32-.58,3.31,3,6.67,6,9.9,9,6.21,5.93,14.78,7.75,21.66,12.65,4.7,3.35,9.35,7.29,15.39,8.43-4.7,4-5.51,7.38-3,11.57,1.07,1.75,2.83,2.62,4.06,1.15,2.61-3.11,6.77-5.56,5.86-10.66,14.56-1,29.11-2,43.68-2.86,9-.52,17.85,1.22,26.61,3.18C159.62,101.32,165.83,103,172.08,104.5Z"/><path class="cls-3" d="M63,185.46c-4.68-4.2-3.59-9.23-2.79-14.66s-.43-11.11-1.35-16.65c-1.25-7.47-2.5-15-.79-22.58.64-2.87,1.64-5.44,5-6.06a12.21,12.21,0,0,0,1.77,11.85c4-2.76,13.2.29,14.29,5.53.91,4.35,2.34,7.6,7.46,7.69a3.88,3.88,0,0,1,3.13,2.26c1.88,3.44,4.79,5.86,7.66,8.39,3.87,3.43,3.27,6.14-1.69,7.48-2.2.6-3.06,1.64-2.92,3.83.19,3.12-1,5.52-4,6.82-1.93.85-2.51,2.39-2.66,4.39-.24,3.3-1.95,4.08-4.65,2.18a4.94,4.94,0,0,0-4.7-.7c-1.61.52-3.58.94-4.86,0C68.7,182.77,65.9,184,63,185.46Z"/><path class="cls-4" d="M63,185.46c2.07-3.25,4.22-5.74,8-1.77,1.25,1.32,3.32,1.18,4.75.61,2.69-1.08,4.66-1.4,7,1.07,2,2.09,2.63-.22,2.27-1.68-.86-3.44.69-4.74,3.71-5.64,2.64-.78,3.42-3.15,2.78-5.59-.93-3.59.31-5,3.88-5,1.23,0,3,.55,3.39-1.2a4,4,0,0,0-2-4.25c-3.45-2.07-6.36-4.48-7.7-8.45a3.07,3.07,0,0,0-3.61-2c-5.34.69-7-3.21-7.14-7-.23-6.53-6-5.23-9.24-7.33-2.78-1.83-3.92,1.76-5.63,3.5,2.06-5.23-7.3-10-.34-15.23h0a.84.84,0,0,1,1.29,0c.89,3.91,3.18,6.21,7.2,7.2,3,.73,6.58,1.9,8.42,3.95,3.84,4.26,7.16,8.88,12.48,11.51.26.13,0,.92-.39,1.3-.8.09-1.74.09-2.08,1s.43,1.14,1,1c5.08-1.16,5.65,3.64,8,6a34.42,34.42,0,0,0,5,9h0a6.77,6.77,0,0,0,3,4h1c1.6,2.83-.55,4.73-1.91,6.57-2.57,3.48-3.47,7-1.59,11,1.07,2.3.68,4.84.95,7.26.64,1.68,1.88,1.33,3.16,1,1.49-.43,3-1.24,4.41.21a38.47,38.47,0,0,1-4.68,2.62c-9.83,3.91-11.15,5.74-11.33,16.25l-.65.32-.66-.29a5.77,5.77,0,0,1-.8-1.17,5.75,5.75,0,0,0-1.66-2.44c-2.47-2.1-3.27-4.45-1.48-7.41a2.3,2.3,0,0,0-.19-3c-2,.53-4.12,4.68-6.09.13-1.39.88-1.25,2.22-1.82,3.2a2.89,2.89,0,0,1-3.37,1.46c-1.56-.31-2.52-1.62-2.06-2.89,1.21-3.35-1.21-6.12-1.14-9.07.08-3.54-3.67-1.88-4.09-3.69-.93-4-2.76-.78-3.91-.52-3.64.82-6.7,3.1-10.14,4.48-3.91-4.25-3.82-4.7,1.12-7.15A28.4,28.4,0,0,0,63,185.46Z"/><path class="cls-5" d="M169,142.51c-.86-.5-2.07-1.11-1.14-2.21,2.77-3.27-.14-8,3.33-11.38,1.21-1.18-2.27-3.57-2.31-6.16,0-3-2.2-2.87-4.67-2.65-1.65.14-3.4-1.1-5.15-1.54-1.46-.37-3.18-.5-3.71-2.06-.68-2,1.6-2.18,2.5-3.22.53-.61,1.82-1.11,1.79-1.58-.57-7,4.59-4.77,8.11-5.16s6.9-.71,10.35-1.07a47.43,47.43,0,0,0,13.34-1c8.58-1.6,16.71,1.78,25.09,2.5,5.57.47,10.88-.4,16.31-.57,7.21-1.89,14.36.35,21.51.61,4.78.17,9.48.89,14.21-.28a10.65,10.65,0,0,1,8.58,1.29c1.59,1,2.88,2.32,2.08,4.51-2.81,2.1-6.2,1-9.26,1.7a4.39,4.39,0,0,1-2.74-.7c-3.38-2.28-3.71-.59-3.11,2.36-.17,3.63-.87,7-4.48,8.87-4.18,1.33-9.43-1.37-12.72,3.5a2.34,2.34,0,0,1-3.15.41,4.81,4.81,0,0,1-1.09-1.78c-1.18-5.66-.44-6.94,4.81-8.75,2.08-.71,4.33-1.16,6.24-3.22-3.66-1.2-6.05.54-8.48,2.08-2.61.76-5.27,2-7.51-.76a3,3,0,0,1,0-1.43c1.17-2.73-.32-4.17-2.64-4.82s-4.76-1.39-7.34-.68a37.15,37.15,0,0,1-17.59,1.06,11.63,11.63,0,0,0-8.14,1.5c-2.1,1.15-5,1.18-3.37,5.28,1,2.47-1.63,3.43-3.83,2.59-4.39-1.67-9.12-1.73-13.57-3.07-5.51.25-5.88.88-5.68,6.1C175.82,130.14,173.11,136.59,169,142.51Z"/><path class="cls-6" d="M92.05,149.51c-.11-2.35-2.24-2.23-3.63-2.69-3.44-1.15-6.57-2.3-6.5-6.83,0-1.81-1.58-2.27-3.09-2.67-3.81-1-6.93-3.56-10.85-4.52-3.35-.82-5.11-3.47-3.89-7.24,1-2.35,4.26-3.71,3-7v0a2.69,2.69,0,0,1-.54-.83c-2.71-10.46-10.91-15.72-19.36-21C42.53,93.84,37.92,91,33,88.59c-8.94-5.26-16-12.21-20-22a18,18,0,0,1,5.19,5.23,13.25,13.25,0,0,0,10.07,6.05c5.85.67,11.92,2.57,15.81,8.11,1.7,2.42,3.88,4.81,7.51,2.87.39-.22,1.28-.29,1.41-.09,3.72,5.78,13.5,5.16,14.33,14.39.37,4.17,3.29,7.67,1.17,12.66-1.16,2.73,2.79,4.44,6.15,4.41,4.39,0,8.9-.28,12.34,3.3,6.76,1.18,7.77,2.85,5,8.44-.46.92-1.1,1.72-.3,2.66,3.27,3.84,1,8.82,2.72,13C95.36,149.76,93.22,149.32,92.05,149.51Z"/><path class="cls-7" d="M50.11,207.59l1.1-1.1c4-5.43,10.4-6.34,16.26-7.9,4.08-1.09,4.82.35,3.72,4.42-.74,2.7.69,5.83-1.44,8.37-.18.21,0,.71.36.85,3.21,1.53,3.72,4.21,3.48,7.41-.09,1.12,1.45,1.72,1.92,2.79a2.45,2.45,0,0,1-.36,2.07c-1.86,1.51-4,2.7-5.14,5-1,1.44-.71,3.21-1,4.74-.57,3.71-2.29,5.48-6,5.81-3.57.31-4.93,2.25-3.45,5.8,1.73,4.15,1.77,8.71,3,13,.86,2.87-.63,5.46-2.32,7.79a2.22,2.22,0,0,1-2.2.11c-1-3.87-2.84-7.56-3.33-11.55-.35-2.92-2.33-4.62-3.95-6.65-2.31-3.56-2.7-7.74-3.5-11.71-.82-4.13-.82-8.38-2.17-12.49C43,217.73,46.72,212.65,50.11,207.59Z"/><path class="cls-8" d="M165,227.42c1-7.89,2.67-15.69,2-23.74-.57-7.15-3.25-10.11-10.18-11.3-5.25-.9-10.39-2.45-14.79-5.55s-8.15-2.54-12,1A23.46,23.46,0,0,1,117,194.41c-.13-2.18,1.75-2.57,3.09-3.21a45.17,45.17,0,0,0,10.14-6.62c1.44-.88,2.57-2.21,4.16-2.87a9.75,9.75,0,0,1,8.16,1c3.5,2.23,6.72,2.25,10.07-.42,3.82-3,7.89-2.58,12.19-.71,8.15,3.54,15.93,7.77,24.92,9.52,4.74.92,8.76,5.17,14.19,5.26,1.8,0,3.55.45,5.41.37a7.89,7.89,0,0,1,8,6.65c.3,1.74.7,3.19,2.09,4.3.48.59.91,1.19.38,2-1.84-.09-3.51-.31-5-1.82-5-5.18-8.61-4.84-13.15,1a10.21,10.21,0,0,1-1.87,1.49c-.85-.7-1.07-2-2.24-2.38s-2.63-.3-3.85-.87a15.89,15.89,0,0,0-9-3.46c-3.26-1.6-6.81-2.38-10.28-3.32-2.42-.66-4.7-.6-5.08,2.74-.36,8.06.4,16.06,1.06,24.07a2.42,2.42,0,0,1-1.83,1.35,4.6,4.6,0,0,1-3.11-.41C165.34,227.8,165.16,227.61,165,227.42Z"/><path class="cls-9" d="M75,222.45c-2.13-1-5-1.29-2.65-5,1.33-2.1-.75-3.46-2.52-3.84-3.68-.79-3.29-2-.81-3.92,1-.79,2.22-2.37,1.11-3.38-3.37-3.06-.75-4.31,2.23-5.67a6.19,6.19,0,0,0-6.66-.54c-4.83,2.15-10.24,3-14.52,6.35,1-2,3.83-3.39,1.44-6.4-1-1.27,1-1.73,1.93-2.21,1.67-.89,4.08-.76,4.41-3.38,3.42-5.54,10.41-4.33,14.54-8.39,1.62,1.84-1.41,3,.23,4.36s2.28-1.6,4.16-1c.57,2.9-.8,6.53,2.37,9,1.19.92,0,2.05-.57,3.05-.76,1.37-1.32,3,.65,3.73s2.67-.62,2.68-2.42.9-3.65,2.6-3.79c2.49-.21.48,2.91,3,4.17a12.4,12.4,0,0,1,1-1.94c.62-.89.26-3.24,2.43-2,1.56.86,2.82,2.79,1.75,4.17-3,3.86-2.08,6.44,1.75,8.78.46.28.31,1.54.45,2.34-5.74.53-8.81,4.5-11.57,8.9a2,2,0,0,1-2.65-.33C79.64,221.07,77.38,221.43,75,222.45Z"/><path class="cls-10" d="M298.8,266.47c1.51,5,.63,5.89-6.06,6.79a95.34,95.34,0,0,1-26.78.2c-1.14-.17-2.85.09-3.19-1-1.89-6-8.24-8.35-10.71-13.68-.92-2-2.74-2.24-4-3.46-.85-3.55-3.73-6.39-3.56-10.29a3.27,3.27,0,0,1,.86-1.74c1.15-1.12,2.28-3,4.06-2.09,2.12,1,.48,2.85.27,4.35a2.23,2.23,0,0,0,.5,2.14c1.71-1.06,1-2.74,1.18-4.19.41-3.49,1.61-6.33,5.95-6,1.68,3.46.95,7.18.85,10.74-.2,7,5.19,12.62,14.83,10.46,4-.9,1.64-2.92.23-4.53-.67-.86-1.05-1.75-.3-2.76,2.3.9,4.07,2.58,5.94,4.11,1.55,2.06,3,4.18,4.49,6.28s4.71,3.28,7,2.35C294.14,262.73,296.31,264.64,298.8,266.47Z"/><path class="cls-11" d="M256.92,210.46c0,.91.09,1.82.14,2.72a3.07,3.07,0,0,1,.26,2.06c-3.52.51-6.83,1-9.65,3.86-2.51,2.56-3.31-1.19-4.76-2.34-.69-3.08-3.3-.57-4.7-1.6a11.92,11.92,0,0,1-3.59-2.07,7.8,7.8,0,0,1-1.42-1.56c-.45-.86-.92-1.72,0-2.55.29-.17.61-.26.9-.41,1.58-.81,4.29,1,4.84-1.24.37-1.52-2.33-2.85-1.93-5.19.14-.86-1.33-.36-2.07-.34-1.57,0-3.34,1-4.41-1a2.19,2.19,0,0,1,.72-1.91,4.6,4.6,0,0,1,4.27-.9,4.93,4.93,0,0,0-2.12-.48,5.63,5.63,0,0,1-2.94-.49c-3.09-3.24-2.87-4.62,1-6.16a28.24,28.24,0,0,1,3.73-1c2.47-.53,4.9,0,7.32.34,3.12.46,3.11.51,3.9-2.29,1.94-.5,3.6-.47,4.12,2a7.58,7.58,0,0,1-1.76,4.15c-2.46,2.24-5.65,0-8,1.1,3.34-.13,6.95,0,10.45-1,.11,0,2.44.8.53-.79.11-1.48,1.19-2,2.36-2.44a3.05,3.05,0,0,1,2.12.27c1.16.93,1.89,2.42.89,3.44-4.15,4.2-1.93,8.64-.81,13.06C256.52,208.58,256.18,209.64,256.92,210.46Z"/><path class="cls-12" d="M279,112.52c-1.32-4.83-5.45-5.56-9.05-4.63-5.72,1.49-11.2.22-16.69.36-7,.19-13.51-2.74-20.39-1.79,8.66-2.58,17.47-2.51,26.44-2.59,8.57-.07,17.19.27,25.76-.39,2.23-.18,3.17-2.38,5-3,6.85-2.32,13.8-3,20.87-1a29.32,29.32,0,0,1,16,13.27c-2.17,1.4-3.8,0-5.52-1a13.72,13.72,0,0,1-3.26-3c-2.59-3.79-5.53-6.76-10.69-4.59a1.65,1.65,0,0,1-1,.1c-8.68-2.29-15.28,1.25-21,7.37C283.65,113.61,281.46,114.49,279,112.52Z"/><path class="cls-13" d="M131,185.38c-3.77,4.39-9.52,5.71-14,9-1.3.73-2.23,2.15-4,2.11-1.88-.29-3.36.77-5,1.38s-3.52,1.45-4-1.42c1.07-1.95,1.09-4.17,1.39-6.27.67-4.54,3.15-7.44,6.54-10.58,5.21-4.83,9.09-7.16,16.11-2.52C133.33,180.56,134.19,179.66,131,185.38Z"/><path class="cls-14" d="M168.1,202.51c-.36-4.4,2.69-4.58,5.49-3.84,3.86,1,7.92,1.6,11.41,3.79a1,1,0,0,1,0,1.26c-1.85,1.16-3.52.12-5.23-.42a9.56,9.56,0,0,0-5.4-.32,2,2,0,0,0-1.64,1.67c-.12.91.2,1.87,1.05,2,5.76,1.15,9.42,6.06,14.75,8.1,2.62,1,3.89.58,5.36-1.49a62.91,62.91,0,0,1,5.08-6.77c1.56.93.87,2.43.93,3.73-3,4.67-7,8.75-7.93,14.55,0,.16-.05.43-.15.46-3.9,1.39-4.36,5.66-6.86,8.21-1-1.1-1.58-.77-1.68.59-.06.75.45,1.56-.31,2.21-.79,1.5-1,3.41-3,4.07-1.73-2.13-1.55-5-2.95-7.29a4.59,4.59,0,0,1-.32-2.85,19.25,19.25,0,0,1,4-6.18c1.73-1.88,1.64-3.57-1.11-4.44-3.16-1-5.55-3.62-9-4.14-1.17-.19-2.44-1-1.93-2.36C170.08,209.42,167.87,206.05,168.1,202.51Z"/><path class="cls-15" d="M326,172.35c-1,0-2.17.31-2.93-.11-8.55-4.77-17.45-1.73-26.07-.77-5,.56-9.64,1.22-14.75.59-3.76-.47-6.11,4.16-9.36,6.16-2.61,1.61-4.6,4.22-6.86,6.39-1.34-1.44-.83-2.84.07-4.23,3-3.91,8.57-5.47,10.1-10.85a2.38,2.38,0,0,1,2.36-1.57c4.24.58,7.06-2.2,10.26-4.1,4.45-2.74,8.75-1.72,13.22.17,6.18,2.62,6.9,2.28,10.68-3.32a7.85,7.85,0,0,1,1.17-1.59c4.73-.74,8,1.45,11.37,7.7C323.74,168.89,326.35,170.43,326,172.35Z"/><path class="cls-16" d="M60.07,266.39c2.7-7.6-.1-14.63-2.38-21.67-.85-2.61-.94-5.2,2.22-5.24,6.9-.1,8.8-4.6,10.1-10,.22,4.39-1.49,8.59-.51,13.17a24.49,24.49,0,0,0,5.58,11.78c1.31,3.61-1.67,3.61-3.69,4.32-3,1-3.92,2.59-2.15,5.56,2.39,4,2,4.49-3.24,4.47C64.07,267.85,61.24,269.19,60.07,266.39Z"/><path class="cls-17" d="M344.76,148.57l2.07,2a26.14,26.14,0,0,0-.38,5.39c.2,3.58-1.51,5.9-5.23,6.81a25.3,25.3,0,0,0,6,2.79c1,.37,2.4.68,1.59,2.36-7.35,2.78-13.13-.66-18.58-4.89-2.36-1.83-2.38-4.4-1.51-7.21,1.4-4.52,3.22-9.14-.09-13.66.71-2,3-2.26,4.1-3.75a1.78,1.78,0,0,1,2.2.65C337.08,143.39,341.58,145.29,344.76,148.57Z"/><path class="cls-18" d="M101.08,243.44c-2.55-.19-3.19-2.86-5.08-3.9a44.3,44.3,0,0,1-9.38-10.83c-2.23-3.56-1.38-6.38.68-9.14s4.11-6.4,8.73-4.12l0,0c2.12,1.44,2.49,4.11,4.12,5.91l0,0c1.34,2.29,2.33,4.76,3.45,7.14s2,5.21.14,7.57c-2.08,2.6.25,3.34,1.48,4.64-.06,1.95-2.3,1.67-3,2.95A.85.85,0,0,1,101.08,243.44Z"/><path class="cls-19" d="M256.93,215.48c0-.76.09-1.53.13-2.29,2.19,6.26,3.89,12.73,8,18.13l-.57.39c-5.37-1.81-5.39,3.44-7.64,5.76-2.59,2-5.62,3.64-4,7.91.61,1.64-.29,3.25-1.8,4.31a1.57,1.57,0,0,1-2.24-.13c-1.26-1.42-1-3.07-.47-4.69.28-.9,1.5-1.4,1-3a10.11,10.11,0,0,0-4.37,3.42c-.31,1-.81,1.6-1.95,1.08l-1-1c-2.41-2.87-3.45-6.3-4.07-9.91a3.64,3.64,0,0,1-.05-.87,1.07,1.07,0,0,1-.06-1.27c3.8-.19,3.92,3.93,6.34,5.55.11.49,1-.63.4-.3-.32.17-.59,0-.47-.09,1.76-1.89-1.73-5.11,1.66-6.59a4.67,4.67,0,0,1,1.34-.25c.32,0,.63.06.95.07,1.15,0,3.08.93,3.06-.89S249,230.53,248,230a9.23,9.23,0,0,1-4.29-2.41,5.74,5.74,0,0,1-.1-4.84c.67-1.53,2.78-2.72,3.41-1.13,1.36,3.5,4.33,3,6.8,3.88,1.49.54,2.64,1.4,2.8,3.19C256.69,224.22,254.37,219.81,256.93,215.48Z"/><path class="cls-20" d="M324.91,167.48c-3.26-3.19-5.14-8.27-11-7.95a.89.89,0,0,1-1.25-.14c.41-4.11,3.11-6.92,5.58-9.87a10.49,10.49,0,0,1,4.93-2.19c2.21-.27,5.08-1.85,6.33.77s.55,5.76-1.71,8.14c-3.29,3.46-3.18,3.31,1.1,5.71,4.59,2.57,8.58,6.06,13,9a2.83,2.83,0,0,1,1.05,2.66c-3,1-5.85,2.82-9.14,1-1.93-2-4.78-2.46-6.83-4.24C326.09,169.55,324.43,169.28,324.91,167.48Z"/><path class="cls-21" d="M66,268.35c1.33-.2,3.21.8,3.75-1.22.43-1.59-1.29-1.55-2.2-2.07-2.39-1.38-.5-3.21-.45-4.8.07-2,1.4-2.83,3.3-2.82,2.23,0,4.37-.06,4.66-3,5.89.53,10.64,3.37,14.81,7.36,2,1.93,3.23,3.74-.78,4.67-3.64,0-7.13,1.49-10.78,1.24.4.61,1.56,0,1.86.93a46.71,46.71,0,0,1-18.25,0C63.24,267.49,64.63,267.83,66,268.35Z"/><path class="cls-22" d="M343,173.57c-5.79-3.69-9.92-9.82-17.23-11.33-4-.82-3.85-2.88-.89-5.16,1-.8,2.68-1.37,3-2.4.73-2,1.51-4.54.86-6.34s-2.91.2-4.45.08c-2.2-.18-3.73,1.06-5.43,2-2.76-3.08-1.71-6.89-1.23-10.18.41-2.72,3.67-1.95,5.9-2,2.24.41,4.52.77,5.32,3.42,6.79,4,2.44,9.68,1.1,13.91-1.46,4.63.41,6.62,3.39,8.43,4.7,2.86,9.84,4.43,15.48,3.29a.73.73,0,0,1,1,.2C349.19,171.39,346.33,172.76,343,173.57Z"/><path class="cls-23" d="M238,233.42l-.15,1.22c-4.64-1.44-7.41-4.72-9-9.13-2-4.17-2-8.86-3.43-13.18a3.07,3.07,0,0,1,1.53-3.28c2.86-.71,4.78,1.37,7.06,2.4l1,.92c-.12,1.11-1.23,1.48-1.82,2.3,1.71.73,3.23-.95,4.86-.21,1.13-.1,2.26-.13,3.38-.3s1.79-2.07,2.84-.62c.88,1.21-1.07,1.78-1.27,2.85-.34,2.11-2.17,3.08-3.4,4.5-1,1.18-.2,2.39-.08,3.59a4.71,4.71,0,0,1-.71,2.61,3.38,3.38,0,0,1-1,.94c-1.44.67-4.71.67-1.1,3.15C237.39,231.69,238.35,232.19,238,233.42Z"/><path class="cls-24" d="M227,209.49l-1,2.9a1.45,1.45,0,0,1-2.06.16c-.93-1.57-2.65-2.05-4.07-2.93l-.87-1.19c-2.56-3.6-2.39-5.09,1.12-6.69a27.16,27.16,0,0,1,6.83-2.45,4.67,4.67,0,0,1,4,1.16c2.77,1.31,5.34-.55,8.46-.5.14,1.85-3.9,5,1.26,5.69,1.2.16.26,1.36-.17,1.92-.61.78-.12,2.49-2.06,2.2a52.45,52.45,0,0,0-5.47-.27C231,209,229,207.2,227,209.49Z"/><path class="cls-25" d="M177,263.29c-1,1.45-2.53.85-3.88.89,1.86-2.35-1.55-.48-1.27-1.57-2.51-3.13-4.67-6.52-4.9-10.59-.17-3.12-1.83-4.33-4.51-4.89-2.1-1.34-3-3-1.18-5.2A13.63,13.63,0,0,0,165,238c2-2.62,4.59-4.23,8.11-3.56,2.3,3.32.86,7.09,1.33,10.63.06,2.12,0,4.23,0,6.34-.1,3.36-.84,6.61,3.67,8.42C180.81,261,177.79,262.23,177,263.29Z"/><path class="cls-26" d="M105.08,241.28c-3.74-.93-6.56-1.89-2.15-6.05,2.06-1.95.1-4.69-.57-6.91s-2-4.48-2.22-7a148,148,0,0,0,11.5,14.71,9.57,9.57,0,0,1,2.19,4.38c.42,2.15,1,5.89.19,6.34a8.8,8.8,0,0,1-8.47-.35c-1.55-.89-3-2-4.47-3l1-.11c.83-.9,2-.7,3-.9C106.48,242.18,104.94,241.68,105.08,241.28Z"/><path class="cls-27" d="M29.15,67.42c-.49,1.3,1.79,3.42-.36,3.85-2.79.55-6,1.31-8.54-1.08-4.75-4.45-8.19-9.85-11.14-15.6,3-.78,4,3.33,6.81,3,1.34-2.68-2.72-4.49-.82-7.06,3.47,2.23,4.82,6.16,7.27,9.2C24.53,62.42,26.8,64.94,29.15,67.42Z"/><path class="cls-28" d="M83.06,99.59c2.56,1.26,3.52,2.64.71,4.81A9.88,9.88,0,0,0,81,107.84c-1.34,2.78-3.17,4.94-6.41,4.54s-2.86-3.71-3.6-5.9c-1.67-4.92.14-7.88,5.12-9Z"/><path class="cls-3" d="M33,88.59a69.31,69.31,0,0,1,27.55,16.75c4,3.89,6.81,7.54,6.47,13.18-3.5-4.36-8.17-7.54-11.69-11.94-4.7-5.88-10.7-10.36-17.25-14.11C36.29,91.42,34.21,90.56,33,88.59Z"/><path class="cls-29" d="M267,180.51a6.24,6.24,0,0,0-1,4.1,47.05,47.05,0,0,1-5,8.88c-4.26,5.31-4.71,10.85-4.06,17-3.37-3.27-1.38-9-5.41-11.94,2.23-1.89,6.1-2.72,4.44-7a4.1,4.1,0,0,1-1.48-2.48c-.08-1.1.57-2.49,1.3-2.38C261.18,187.52,260.12,176.75,267,180.51Z"/><path class="cls-30" d="M321.89,110.57c1.61.81,2.91,2.41,5,2,1.49-.06,2.29.87,2.95,2,4.94,7.59,8.12,15.68,7,25-4.78-1.15-2.26-5.08-3-7.77-.18-1.95,0-4-1.2-5.7-1.4-1.94-2.76-2.29-4,.16a4.18,4.18,0,0,1-.95,1.06c-1.79,1-3.58,1.91-5.2-.26,1.55-5.33,2.15-10.6-1.06-15.63C321.3,111.19,321.64,110.81,321.89,110.57Z"/><path class="cls-31" d="M163,246.46c3.58-.44,5.39.93,5,4.73-.38,4.25,3.24,7.13,3.93,11-2,2.34-4.57,1.37-7,1.2-3.81-2.43-2.7-6.37-3-9.86C160.59,250.93,160.38,248.49,163,246.46Z"/><path class="cls-32" d="M15.1,50.56c0,2.16,2,3.32,2.56,5.2.33,1.13.79,2.32-.19,3.21-1.14,1-2.48.68-3.57-.21-1.64-1.34-3.2-2.77-4.79-4.17a2.06,2.06,0,0,0-2-1c-1.17-3.09-4-6.93-.64-9.25s4.87,2.59,7.23,4.25A7.16,7.16,0,0,1,15.1,50.56Z"/><path class="cls-33" d="M272.94,251.49a2.18,2.18,0,0,0,1.05,2c-2.86,2.83-7.75,2.82-10.27,0-2.38-2.68-2.12-5.45,1.17-8.25,1.35-1.15,1-1.66.07-2.72-4.08-4.83-4.06-5.81-.17-11l.31-.23C267.79,238,269.44,245.11,272.94,251.49Z"/><path class="cls-34" d="M173,252.41c0-2.33,0-4.65,0-7,1.07-3,.25-6.12.5-9.17.22-2.78,1-4.87,4.46-3.79a11.54,11.54,0,0,1,2,7.88,11.21,11.21,0,0,0-1,11.32c1.21,2.58-1,2.69-2.43,3.2C174.32,255.67,173.65,254,173,252.41Z"/><path class="cls-35" d="M349.84,167.52l-1-.2-12-4.69c2.09-1.69,4.23-.45,5.57-1.32,1.82-1.18,3.45-2.69,2.87-5.49-.37-1.84-1.62-4.36,1.59-5.3a18.18,18.18,0,0,1,5.26,5.81c-2.11,2.95-3.18,6-.45,9.15Z"/><path class="cls-36" d="M50.11,207.59c-1.6,3.43-1.5,7.52-4.46,10.46-1.39,1.38.13,3.21.49,4.68,2.11,8.48,1.28,17.53,5,25.68.27.28.34.53.22.76s-.23.33-.34.33c-3.39-3.79-3.75-8.84-4.47-13.35A98.14,98.14,0,0,0,44,223.21C41.9,216.25,44.51,211.4,50.11,207.59Z"/><path class="cls-37" d="M298.8,266.47c-3.36-2.18-7-.82-10.6-1-6.26-.27-7.71-5.19-9.32-9.9a37,37,0,0,0,13.83,5.94C295.49,262.12,298.18,263.09,298.8,266.47Z"/><path class="cls-38" d="M173,252.41c2.31,2.51,4.25,2,5.9-.74.81,1.19,1.53,2.45,2.43,3.56,1.47,1.83,3.54,3.88,2.25,6.11s-4.08,2.41-6.65,2c-.84-1,2.8-2.46.2-2.77C171.2,259.83,173.38,255.61,173,252.41Z"/><path class="cls-39" d="M334.9,131.54c1.24,2.52-2,6.11,1.92,8,1.73,3.81,5.91,5.48,7.94,9-5.28-1.77-8.45-6-11.83-10a16.06,16.06,0,0,1-5.22-3,2.24,2.24,0,0,1,1-2.59c2.35-1.21-.17-1.12-.37-1.63-.78-1.55-1.71-3.08-.43-4.81h0C332.57,125.45,333.43,126.07,334.9,131.54Z"/><path class="cls-40" d="M96,215.45c-7.19.25-11.23,7.75-8,14.13,2,4,6,6.16,8,10-6.49-2.58-8.7-8.78-12-14.1a1.36,1.36,0,0,1-.06-2c1.34-6,6.54-9.9,12-9A8,8,0,0,1,96,215.45Z"/><path class="cls-16" d="M51,249.5l.12-1.09c3.63,1.39,4.81,3.87,5.16,7.85.3,3.32,2.55,6.49,1.8,10.16.23.21.3.42.21.62s-.17.3-.26.3C52.61,262.62,53.41,255.43,51,249.5Z"/><path class="cls-8" d="M163,246.46l-1,7.09c-2.76-1.83-1.17,2.47-4.29,1.79,3.75-5.92-2.36-13.85,5.31-19l.52.54c.81,2.18-.07,3.91-1.47,5.5C160.07,244.32,161.38,245.42,163,246.46Z"/><path class="cls-41" d="M329.84,114.56l-2.95-2c-5.18-4.53-9.58-10-15.94-13.08C320.22,100.78,325.62,106.93,329.84,114.56Z"/><path class="cls-42" d="M351.64,165.48c-4.92-3.88-4.87-5,.45-9.15C356.47,159.6,354.86,162.58,351.64,165.48Z"/><path class="cls-43" d="M324.91,167.48c3.06,1.86,6.1,3.77,9.2,5.58,1.54.9,1.06,1.24-.28,1.52-2.64-.65-5.47-.67-7.86-2.22-.79-.83-1.56-1.69-2.39-2.49C320.93,167.34,323.27,167.61,324.91,167.48Z"/><path class="cls-44" d="M84,223.45l.06,2c-3.13,1.26-5.61-3.74-8.9-.94L75,222.45C78.72,216.42,81.11,222.08,84,223.45Z"/><path class="cls-45" d="M223.93,212.55l2.06-.16c1.91.93,1.27,2.39,1.29,4.08,0,3,1,6,1.53,9C225.68,221.75,223.6,217.61,223.93,212.55Z"/><path class="cls-46" d="M243,246.39l1.95-1.08c.67,3.46,4.68,5.89,3.13,10.05C245.2,253,243.13,250.26,243,246.39Z"/><path class="cls-8" d="M163,236.38c-.26-3.2-.49-6.39,2-9l.2.19c1.07,1.23.88,2.85,1.35,4.27a5.08,5.08,0,0,1,.17,1.34c-.43,1.95-1.22,3.5-3.62,3.26Z"/><path class="cls-47" d="M165,263.41l7-1.2,3.75.34-2.61,1.63C170.34,264.34,167.51,265.28,165,263.41Z"/><path class="cls-48" d="M80.19,268.61l-3-.5a19.84,19.84,0,0,1,12-1.67A35.14,35.14,0,0,1,80.19,268.61Z"/><path class="cls-46" d="M237.9,235.51q2,5,4.07,9.91C238,243.19,237.76,239.43,237.9,235.51Z"/><path class="cls-49" d="M183,236.28c-.66-2.19-1-4.35.78-6.33,2,.61.92,2.33,1.21,3.53C184.28,234.41,183.62,235.35,183,236.28Z"/><path class="cls-3" d="M67.07,118.54c2,3.61-.79,5.19-3,7l-1,0C64.49,123.24,66.91,121.54,67.07,118.54Z"/><path class="cls-40" d="M100.18,221.38c-2.66-1.08-2.78-3.93-4.12-5.91a8.26,8.26,0,0,0,1-.08C98.37,217.24,100,218.92,100.18,221.38Z"/><path class="cls-6" d="M9.05,59.6c2.58,1.62,3.34,4.28,4,7C10.63,64.9,9.91,62.21,9.05,59.6Z"/><path class="cls-50" d="M58.06,267.34c0-.31,0-.62,0-.92l2,0c1.5,2.12,4.44-.13,5.95,2l-4.08.24C60.57,268.4,59.06,268.68,58.06,267.34Z"/><path class="cls-51" d="M118,167.49l-1-1a2.87,2.87,0,0,1-.93-1.14c-1.31-3,.7-4.82,2-7.13.34-.61-4.15-2.61-2.07-5.71,1.38-2.38-.85-3.23-2-4.44-3.2-3.43-1.51-9.59,3.14-10.46,5-1,10.13-1.4,15.2-2.09,1.48-.2,3.9.66,3.77-1.8-.1-1.79-2.14-2.29-3.94-2.18l-3.09.22c.21-2.7,1.68-4.78,2.28-7.09.91-3.52,6.73-5,10.21-3.33,6.9,3.29,10.37,9,11.47,16.32.23,1.56.83,2.48,2.29,2.81,3.44.77,4.14,4.81,7.59,6,2.28.79-1.16,2-1.16,3.58,3.22.94,7.16,1.11,8.19,5.44-1.1,1-2.21,1.34-3.36.16.83,2,3.82,1.07,4.58,3.25-2.56,3.51-6.71.78-9.71,2.49a4.54,4.54,0,0,0-1.18,2.8,4.08,4.08,0,0,1-1.87,1.48c1.38,0,2.13-2.18,3.86-1.14a3.33,3.33,0,0,1,.64,1.93c.52,3-3.48,3-3.65,5.57-1.69,3.45-4.62,3-7.25,1.85s-4.73-3.36-3.34-6.75c.71-1.75-.2-3.21-.32-5.46-4.51,2.91-9.56,4.4-11.6,9.8-.79,2.09-3,2.47-4.76,3.3-4.4-2.18-4.55-6.12-4.63-10.36-1.25.39-3.5-1.23-4.44.89-.74,1.66,1.2,2.86,2.16,4.14,1.27,1.68,2.42,3.51.1,5.06-2.11,1.42-3.21-.66-4.47-1.85C119.28,171.26,119.18,169.09,118,167.49Z"/><path class="cls-52" d="M171,158.51c-2.11,0-4.29.12-5.35-2.4,1.46-1.05,3-.42,4.37-.6,1.68,1.69,3.55.79,5.89.85-3.53-3.28-3.61-5.22-.76-9.17.75-1-.11-1.29-.58-1.91-1.42-1.87-4-1.19-5.56-2.77,1.86-4.29,2.67-8.94,4.73-13.21a9,9,0,0,0,.73-6.23c-1.44-5.82.15-7.4,6.54-7.54-4.83,4.33-1.66,9.16-.82,13.81.34,1.88,2.07,2.36,3.67,3,5.55,2.13,5.85,3.62,1.6,7.53a3.51,3.51,0,0,0,.75,5.9c1.9.9,3.53,2.84,2.52,4.21-1.91,2.55,1,5.15-.83,7.44-.67.85.46,1,.94,1.3a7.38,7.38,0,0,0,4.84.56c5.12-.78,5.76,0,4.62,5.2-5.41,1.47-10.86.77-16.3.25-1.79-.31-4.39.38-4.1-2.72.06-.6.38-.69-.28-.41C174.24,163,172.92,160.13,171,158.51Z"/><path class="cls-53" d="M116,152.51c-.4,3.25,2,4.44,4.93,5.84-4.24,1.67-4.88,4.59-3.92,8.14-.84,3.27-3.19,2.22-4.6,1.07-3.85-3.16-8.74-5.6-9.46-11.41-.4-3.29-3.46-2.35-5.82-3,6.58-5.32,4.86-11.53,3.42-17.91-1.7-7.53.25-12.48,10.55-11.67,1.72.13,3.38,1.68,5.2.15.86-.73,2.12-1.8,3-.58,1.06,1.5-.76,2.28-1.6,3.13-1.78,1.8-3.85,1.47-6,.62-1.6-.63-4.06-3.12-3.82,1.45,0,.17-1.37.42-3.28,1,5.91.8,5,3.62,3.48,6.58-2,3.79-.71,10.82,2.9,12.82C112.94,149.75,114.26,151.38,116,152.51Z"/><path class="cls-54" d="M118,167.49c2.07,1.07,2.66,3.32,4,5,.84,1.07,1.55,2.5,3.08,1.18s.16-2.34-.71-3.31-1.89-1.88-2.69-2.93a3.62,3.62,0,0,1-.36-3.8c.75-1.61,2.33-1.31,3.45-.66,1.93,1.13,3.85-.33,5.82.16-4.64,4.55-.52,7.81,1.43,11.36,2.26,2.27,6,4.15,2,8a6,6,0,0,1-3.07,2.89c.32-1.44.73-2.87.92-4.33.14-1.16.07-2.64-1.74-2-3.21,1.09-5-1.32-6.85-2.91-2.36-2.05-4-1.74-5.82.41a22.8,22.8,0,0,1-7.11,6c-2.3,1.18-3,3.8-3.35,6.31-.42,2.78-.91,5.53-3,7.69-.19-3.4,0-6.68-1.64-10a7.45,7.45,0,0,1,1.31-8.3c1.92-2.16,3.9-4.52,4.29-7.64,1.81-1,3.43,0,5.06.53C116.4,172.09,118.1,171.05,118,167.49Z"/><path class="cls-54" d="M104,166.49c-3.1-2.2-5.18-5-5-9A19.59,19.59,0,0,1,104,166.49Z"/><path class="cls-54" d="M107,170.48c-2.75,0-4.77-.58-3-4C106.41,166.8,106.69,168.66,107,170.48Z"/><path class="cls-55" d="M198,164.49c.16-3.36.33-6.24-4.68-3.81-3.45,1.67-5.92-1.74-8.9-2.83.66-2.27,2.84-.6,3.88-2.07,1-1.71-3.07-.08-2-2.66,2.53-6,2.31-6.13-4-6.64a7.94,7.94,0,0,1-1.52-.38c-1.22-2.22,5.7-2.14,1-5.4-1.1-.76,2-1.21,3.1-1.94s2.86-.58,2.72-2.32a3.09,3.09,0,0,0-3-2.8c-4.35-.35-6.86-2-5.75-6.89.11-.49-.53-1.15-.81-1.74-2.85-6-2.77-6.28,3-9.48,4.25,1.34,8.87.91,13.06,2.78,1,.45,2.84,2.09,3.72-.21.61-1.59-.25-2.89-1.94-3.48-.58-.21-1.34-.29-1.28-1.22,7.48-3,14.74-6.49,23.3-3.25,2.69,1,5.95-1.36,9-2,3.36-.72,6.25.28,9.27.6,3.44.36,4.22,3.92,1.86,6.79-8.21-4.67-8.21-4.67-13.77-3.83,2.59,3.1,3.71,6.78,5.3,10.21,1.05,2.29,2.39,3.07,4.44,3.08,2.48,0,4.6-.4,2.35-3.73-1.6-2.36-2.66-4.93,1.68-5.73,2,2.8,4.7.42,7,1,.38,1.42.36,1.4-.76,2.79-1.86,2.33-3.36,4.7-.24,7.21,0,.67,0,1.34,0,2a1.41,1.41,0,0,1,.29,1.32,6.15,6.15,0,0,1-2.7,3.26,2.46,2.46,0,0,1-2.69-.68c-.43-.52-.23-1.4-.67-1.81-1.55-1.4-3.37-.88-5.11-.44a1.1,1.1,0,0,0-.84,1.52c.63,1.56,2.07,2,3.52,2.36,2.42.61,4.92-.57,7.33.34,1,2.6-1.3,3.15-2.61,4.32-1.54.64-3.43.62-4.45,2.29-5,2.24-5.85,2-8.22-2.58-.54-1-.73-2.79-1.59-3-6.35-1.64-4.42-6.74-4.94-10.92-.75-6-2.27-7.77-5.9-7.66-4.78.14-9.57,4.3-10,8.65a11.18,11.18,0,0,0,.85,5.36,3.9,3.9,0,0,1,.13,1.4c-.39,1.63-1.44,3-1.8,4.61-.27,1.2-3.66,2.56.21,4,1.24.45-1.22,4.95-3.72,6.16a4.33,4.33,0,0,0,1.69,2.37c3.11,1.58,4.39,2.93,2.12,6.78-1.1,1.88.11,5.32-2.59,7.17C201,164.22,199.9,165.78,198,164.49Z"/><path class="cls-56" d="M279,112.52c5.53,1.54,7.32-3.79,10.31-6.23,3.68-3,9.15-1.37,11.94-5.6,4.94,3.89,13-1.54,16.83,5.56a18.58,18.58,0,0,1,.88,2.26c-1.56,3.89-4.48.79-6.69,1.3a15.71,15.71,0,0,0-10.75.47c-1.14.45-2.24,1-3.35,1.48a16.87,16.87,0,0,1-5,1.2,16,16,0,0,0-10.83,14c-.71,8.84,1.44,11.58,8.63,15.94,4.33,2.63,9.73,5.55,9.49,12.23-1.59,1.66-2.66,0-3.92-.59a10,10,0,0,1-1.61-1.5c-.43-.49-.83-1.31-1.37-1.34-6.49-.36-9.07-5.48-12.25-9.89-2.94-3.65-3.83-8-4.44-12.52-.26-1.9.4-4.44-1.9-5.26s-2.89,1.72-4.15,2.9a2.54,2.54,0,0,1-1.73.85,4,4,0,0,1-1.75-2.37c-.27-4.05-.34-8.08,1.66-11.82C272.13,111.76,275.62,112.83,279,112.52Z"/><path class="cls-57" d="M244,129.52l0-1c2.29-.13,3.39-1.9,4.64-3.41,1.62-1.94,3-3.66,5.44-.71,1.53,1.87,1.5-.37,2.12-1.1,2.14-2.54,2.46-.59,2.78,1.21a1.69,1.69,0,0,1-.2,1.87c-2.22,2.8-.92,4,2,4.83,7.26,2.13,9.42,6.1,7.38,13.52-.68,2.46-1.56,4.81.66,6.95,1.42,1.65,3.4,2.94,3.51,5.44-2.11,3.8-5.2,2.37-8.19,1.54-1.24-.52-2.55-1.21-3-2.48-2.08-6.55-7.76-11-9.87-17.57-.61-1.9-2-2.78-3.91-3.32C244.54,134.53,242.65,132.87,244,129.52Z"/><path class="cls-58" d="M268,152.48c-2.23-2-2.82-3.82-1.35-7.15,3.14-7.08.49-11.38-6.78-12.84-4.63-.92-4.88-3.23-.89-8a10.43,10.43,0,0,0,4-9c3.24,1,2.13,3.61,1.65,5.59-.77,3.13.31,4.41,3.37,4.4a2.11,2.11,0,0,1,1,2c1.76,1.66,2,4,2.83,6.09,1,5.63,2.31,11.15,6.07,15.77a6.78,6.78,0,0,1,1.63,5.48c-1.53,2-3,.38-3.39-.63C274.18,149.37,271.24,150.46,268,152.48Z"/><path class="cls-59" d="M268,125.52c-.61,3.26-2.41,1.28-3.54.63-1.34-.78-3.06-1.81-1.66-3.86,1.53-2.24,1.8-4.46.18-6.76.36-1.58-2.37-3.51.17-4.69s3.82,1.87,5.81,2.71C269.27,117.59,268.36,121.53,268,125.52Z"/><path class="cls-60" d="M244,126.53c-4.64-2.1-1.67-5-.81-7.66.33-1,2.44-.62,1.81-2.34,1.49-3.8,5.32-2.69,8.08-3.75,1.39-.54,2,.86,2.42,1.94a1.72,1.72,0,0,1-1.47,2.56c-2.48,0-4,2.09-6.45,2.31C243,120,242,122.61,244,126.53Z"/><path class="cls-61" d="M53.93,221.38c-2.18-3.42,3.16-4.37,1.72-7.19-2.48-.78-1.56,4.45-3.92,2.46-1.6-1.34.26-3.68,1.15-5.28s2.65-2.63,4.51-1c1.68,1.49,3,3.3,1.38,5.54C57.35,217.82,55.63,219.49,53.93,221.38Z"/><path class="cls-62" d="M134.06,182.49c2.79-3.56-2.06-5.16-2-8,4.29-4.63,7.59-10.25,13.82-12.95,1.64-.7,3.18-1.5,4.55-.65,2.63,1.64-1.57,1.94-.86,2.41,3.16,2.12,0,3.52-.31,5.26-.38,2.16,1.36,3.48,2.87,4.2,2.4,1.15,5.09,1.72,6.92-1.26,4.11-2.27,3.46,2.91,5.68,3.61,4.41,4.76,10.94,5.51,16.58,2.11,2.6-1.57,5-5.53,8-3.79s-.26,5.73.39,8.71c0,.15.06.32.11.58,1.82.4,3-1,4.29-1.77,1.18-.71,2.18-.78,3,.44s.33,2.24-.54,3.12c-1.52,1.55-3.69,1.94-5.52,2.94,5.6-1.1,8.67-7.67,15.09-7a9.06,9.06,0,0,1,3-2.07c4.8,1,5.28,3.49,1.64,8.37-2.5,2-5.66,3.16-8.82,6.1,3.25,1.22,5.39,1.87,6.69-1.59.46-1.21.64-2.54,1.57-3.54,2.2-3,4.57-4.95,8.83-3.65,3.3,1,5.69-1.34,7.2-4.11,1.88-3.44,4.88-4.24,8.38-3.93,1.29.11,2.93.35,3.32,1.78s-1.13,2.19-2.2,3a111.55,111.55,0,0,1-15.48,8.68c1.56-.14,3.93-1.14,3.73.51-.47,4.09,2.68,6.85,3,10.51-2.07-.08-3.24,1.91-5.31,2.14-3.75.41-4.5,2.65-2.66,5.84-2.14-.18-2.65-1.8-2.88-3.47-.73-5.32-2.83-6.29-8-6.88-5.49-.63-11.59,0-16.1-4.86-2.65-2.83-7-2.06-10.4-2.93-5.81-1.5-10.61-4.75-15.88-7s-9.4-3-13.66.82a6.29,6.29,0,0,1-8.57.47C140.53,182.43,137.38,182.38,134.06,182.49Z"/><path class="cls-63" d="M199,206.53c-.33,4.7-4.6,7-6.53,10.76a1,1,0,0,1-1.68.27c-2.73-2.82-7.12-2.74-9.79-5.64-1.84-2-4-3.47-6.85-3.5-2.33,0-3.12-1.47-3.09-3.61s1.27-3,3.4-3.4c3.88-.75,6.94,2,10.58,2.06a87.44,87.44,0,0,1,9.05,2.91Z"/><path class="cls-49" d="M168.1,202.51c2,2.79-.78,7.75,4.3,8.86-.67,1.62-2.49.6-2.9,2.2.28.22.65.76,1,.73,4.81-.41,7.43,4.65,12.18,4.78,1.57,0,1.58,2.41.58,3.73-2,2.62-4.15,5.1-6.24,7.63-2.87.25-4.9-1.45-7-3C166.58,219.34,168.94,210.8,168.1,202.51Z"/><path class="cls-38" d="M170,227.44c2.87-.24,4.83,1.63,7,3,.32.68.65,1.35,1,2-3.13.41-3.88,2.46-4,5.28-.14,2.57,1,5.33-.93,7.68-.63-3.62,1.24-7.48-1.08-10.94a7,7,0,0,1-5.93-2.05l0,0c-1.14-2.36.62-3.55,2-4.9Z"/><path class="cls-64" d="M194.05,206.38c-3.38.14-6.93.82-9.05-2.91v-1C188.54,202.56,192,203,194.05,206.38Z"/><path class="cls-25" d="M168,227.5l-2,4.9c-1.76-1.33-.86-3.14-.87-4.79Z"/><path class="cls-65" d="M264.79,231.55a4.44,4.44,0,0,1-.74,3.28c-2,2.93-1.54,5.18,1.89,6.68,1.52.67,3.1,1.73,2.71,3.68-.36,1.76-2.13,1.13-3.35,1.24s-2.4.55-2.22,2c.28,2.29.59,4.87,3.3,5.54,2.5.61,5.17,1.2,7.61-.48,1.64,1.08,4.05,2.15,3.4,4.3s-3.24,2.38-5.46,2.64c-10.45,1.22-16.15-5-15-14,.37-2.94,0-6,0-9a32.71,32.71,0,0,1,1-4.21C259.35,229.49,261.61,228.56,264.79,231.55Z"/><path class="cls-66" d="M227,200.45c-2.47-3.07-5.63-5.89-3.55-10.52-2.51-.18-3.7,2-6,1.72,5.11-6.53,13.8-7.84,19.38-13.33-5.07-2.38-5.72-1.67-9.72,3.08-2,2.39-4.62,6.4-9.47,3.59-3.52-2-4.73,1.77-6.71,3.46a2.21,2.21,0,0,1-.93-1.95c.8-1.56,2.26-2.78,2-4.85s-.79-3.22-3.07-2.19c-2.12-3.18-1-5.81.89-7.7-2,2.41-6.52,4.68-2.87,9.67-.15.29-.38.86-.46.84-7-1.68-10.09,5.29-15.59,6.91-.85.25-1.64,1.67-2.5.45s0-2.29,1.13-2.84c1.92-1,4-1.68,5.9-2.61.95-.46,1.76-1.39,1-2.4-1.08-1.47-1.42.31-2.13.67a32,32,0,0,1-6.86,2.62c2.44-3.46-.14-7.58,2.79-11.14a6.81,6.81,0,0,0-5.71,2.5c-3.85,3.9-8.76,4.31-13.75,3.95-3.09-.22-5.82-1.47-6.79-4.88a2.74,2.74,0,0,1,3.64-.57c5.08,3.54,9.2.59,13.19-2,7-4.43,7.09-4.6,13.47,1,2,1.74,3.83,1.61,5.88.42,4.1-2.75,6.59-6.78,8.84-11a3.24,3.24,0,0,0,.21-2.81c-3.31-9.43-4-19.16-3.25-29h0c.35-2.25,6.24-9.32,8-9.58a2.68,2.68,0,0,1,2.88,1.52,11,11,0,0,1,1.3,3.76c1,6.84,2.16,13.67,3.49,20.46.62,3.14,4.44,6,7.63,5.39a6.93,6.93,0,0,0,2.8-1c4.76-3.59,9.23-2.92,13.6.68a3.62,3.62,0,0,1,1,1c.56,4.31,2.37,7.24,7.26,7.62,4.17.32,3.34,3.59,3.18,6.33-.2,5.15-3.26,7.71-8.19,8.77a11.69,11.69,0,0,0,3.82.21c2.34-.14,4.64.12,4.91,2.93s-1.64,4.76-4.35,5.16a25.44,25.44,0,0,0-6.74,1.63A87.63,87.63,0,0,1,236,189.47a18.15,18.15,0,0,0-5.24,1.44c-1.32.68-2.86,1-2.89,3,0,2.19,2,1.83,3.13,2.56l2.86.15c-.81,2.78-2.76.89-3.7,1.19-1.14-.39-.57,1-.53.32,0-.06.13,0,.37,0,.93,0,2.11-.35,1.88,1.31l-1,1.07Z"/><path class="cls-67" d="M246,185.48c2.21-1,4.17-2.21,7-1.79,2.22.34,4-1.73,3.73-4.13-.24-2.12-2-2.16-3.84-1.57-2.48.8-4.91-.9-7.71-.45,4-3.11,11.17-2.65,10.83-10,2.29-1.15,2.58.45,2.57,2a25.16,25.16,0,0,0,.63,5.88c.34,1.48.65,3.07,2.62,3.05s3.8-.65,4-2.89c.31-4,3.35-4.6,6.16-6.43,4.4-2.87,9.41-3.78,13.81-6.26a3.41,3.41,0,0,1,3.21,1.61c-2.78,2.35-5,5.74-9.58,4.36a2.25,2.25,0,0,0-2.7,1.67c-.76,5.82-6.46,6.69-9.69,10a9.22,9.22,0,0,0-5.49,1.64c-.25,1.7,2.79,1.09,2,2.94-.65,1.46-2.13,1.39-3.47,1.38-3.48,0-5.48,1.11-4,5l-2,0c-1.49.25-2.91.25-4-1.05-.33-2.7-2.4-1.83-4-1.94C243.37,187.52,244.62,186.5,246,185.48Z"/><path class="cls-68" d="M238.06,226.53c.29-.68.59-1.36.88-2.05.31-1.36,2.06-2.73,0-4.08a12.83,12.83,0,0,1,4-4c.78.18,2.2.28,2.24.55.59,4.47,1.79,1.45,2.92.31,2.54-2.59,5.23-4.54,8.85-1.77-.83,5.35,2.48,11-1.72,17.6,1.22-7.05-2.47-7.25-6.44-7-1,.07-2.43.14-2-1.16.56-1.53.69-2.91-1-2.95-2.33-.05-1.32,2.07-1.46,3.4-.07.65-.24,1.29-.36,1.93C241.87,228.35,239.92,227.85,238.06,226.53Z"/><path class="cls-69" d="M246,185.48c-.28,1-1.61,2,0,3.05.39,1,1.38,2.27,1.06,2.92-.84,1.72-2.25.19-3.42.05-2.56-.32-5.11-.69-7.67-1a1.33,1.33,0,0,1,.07-2Z"/><path class="cls-24" d="M236,188.51c0,.65-.05,1.31-.07,2-1,1.45-2.71,1.05-4.07,1.46-3.44,1-3.6,2.42-.86,4.5-1.8,0-4,.46-4.37-2-.35-2.05,1.06-3.25,2.8-4.17C231.52,189.14,233.58,188.16,236,188.51Z"/><path class="cls-70" d="M252,193.54a4.1,4.1,0,0,1,.48.1,1.34,1.34,0,0,1,.44.17c-.19,1.18-1.39,1.45-2.1,1.48-4,.15-8,.07-12.3.07,3.06-3.23,6.7.49,9.54-1.65A2.57,2.57,0,0,1,252,193.54Z"/><path class="cls-71" d="M227,209.49c-.38-4,4.66-.74,4.89-4.07.56,1.56-1.5,3.4,1.1,4.07l1,2C231.22,212.26,229.38,209.84,227,209.49Z"/><path class="cls-72" d="M238,214.46c-2.39,1.84-4.81,3.16-7.59.19,1-1.85,3.36-1,4.55-2.28Z"/><path class="cls-24" d="M231.9,199.38c-.57-1.28-2.21-.44-3-1.49,1.51-1.08,3.68.4,5-1.32l4.67.83C237.07,200.67,233.78,197.72,231.9,199.38Z"/><path class="cls-69" d="M252,193.54l-3.94.17a5.73,5.73,0,0,1,2-3.24,6.54,6.54,0,0,1,4,1.05Z"/><path class="cls-73" d="M311.92,108.55c2.33-1,4.69,2.27,7,0l3,2.06c.29,2.05,2,3.5,2.55,5.23.75,2.32,4.09,5.35-.58,7.58-.67.31-.65,2.06-.94,3.15a1.05,1.05,0,0,1-1.3,0,6.06,6.06,0,0,1-1.07-2.63c-1.13-2.66,1.07-5.14.34-8.49a4.43,4.43,0,0,1-5,2,4.86,4.86,0,0,1-3.21-2.6c-.7-.73,1.59-1.55-.24-2.5C311.08,111.61,311.13,110,311.92,108.55Z"/><path class="cls-74" d="M288.93,164.49l-3-1c-1.4-2.93-.79-6.11-1-9.17-.21-2.56,1.3-3.93,4-3.78a14.27,14.27,0,0,1,7,2l1,1c3.12,3.06,5.49,7.53,11.11,5.86,1.62,0,3.26-.69,4.86.11l1.07.05c.37,4.43-4.52,5.27-5.92,8.52a5.83,5.83,0,0,1-2.21-.66C300.55,164.29,295.19,161.8,288.93,164.49Z"/><path class="cls-75" d="M327.92,135.49a4.69,4.69,0,0,1,5,3c.36,3.25-1.94,3.08-4.06,3.14L324,139.46c-.62-.66-2.3-.21-2.1-1.57s1.59-1.53,2.61-2S326.7,134.84,327.92,135.49Z"/><path class="cls-76" d="M105.08,241.28c1.24.37,3.48-.15,3.16,1.82-.28,1.73-2.16.31-3.31.45a15.34,15.34,0,0,1-2.85-.22C100.92,239.48,104.25,242.21,105.08,241.28Z"/><path class="cls-68" d="M238,233.42a5.92,5.92,0,0,0-1.16-.88c-1.87-.77-4.31-2.23-4-3.74.49-2.42,3.35-1,5.17-1.35a6.31,6.31,0,0,1,4.29.53c1.1.6,4.19.61,1.47,3.18-.1.1,1.77.32,2.22,1.31-3.32,3.53,2.55,1.49,1.77,3.77l-3.08.51c-.52,2.61,2.71.88,2.7,3.09-2.1.83-3.82-.15-5.35-1.51S240,234.49,238,233.42Z"/><path class="cls-77" d="M246,232.47c-1.73-.25-3.67.59-5.3-1.12.7-1.54,2.4-.39,3.55-1.44L238,227.45c0-.31,0-.61.06-.92a9.89,9.89,0,0,1,6,.77,6.94,6.94,0,0,1,4,2.09c2.27,1.93.71,2.46-1.07,2.92Z"/><path class="cls-78" d="M246.93,232.31c.85-.8,2.12-1.44,1.07-2.92,1.58.47,2.45-2.94,4.24-.87a3.05,3.05,0,0,1,.16,4.12C250.72,234.28,248.72,233.33,246.93,232.31Z"/><path class="cls-79" d="M325.07,136.66c-.35.93-4.08.59-1.06,2.8-3.77-.27-7-.06-5.12,5.25.64,1.85-1,3.83,0,5.75l-6,9a7.41,7.41,0,0,1-4.93,1,1,1,0,0,1-.33-.81q0-.45.12-.45c.71-1.11,1.67-2.3.79-3.6-2.22-3.32-.45-5.44,1.94-7.55,3.81-3.38,1.92-8.79,4.37-12.68a13.35,13.35,0,0,1,.34-1.42c.72-2.67.46-5.63,2.34-7.92,1.13-1.37,2.15-3,4.36-2.53,0,1,0,2,0,3,.83,2-.53,3.38-1.42,4.92-1.36,2.38-.6,3.72,2.14,3.91A3.2,3.2,0,0,1,325.07,136.66Z"/><path class="cls-80" d="M238.93,220.4c1.11.15,3.27.26,3,.8-.56,1.25-1.12,3.05-3,3.28C238.29,223.12,236,221.77,238.93,220.4Z"/><path class="cls-31" d="M166,232.44c2.31-.28,4.06,1.07,5.93,2.05-4.51,1.15-6,6.08-9.94,7.93q.54-3,1.07-5.94C164.57,235.51,166,234.45,166,232.44Z"/><path class="cls-81" d="M322,136.39c-4.37-.12-4.59-2.45-2.63-5.44a19.65,19.65,0,0,0,2.58-4.43h1c1.66,2.15,3.34-.27,5,0,.36,1.64.72,3.28,1.07,4.91a2.08,2.08,0,0,1-2.24.65C322.88,131,321.72,132.92,322,136.39Z"/><path class="cls-81" d="M334.9,131.54c-1.32-3.07-3.33-5.18-7-5,.24-1.46-.69-3.5,1.76-3.88,1.88-.3,3,1,3.93,2.35C335,127,335,129.25,334.9,131.54Z"/><path class="cls-82" d="M322,136.39c-.57-1.58-2.65-3-1.26-4.8s3.57-1.09,5.47-.83c1,.14,1.88.45,2.82.68,2.8,2.19-1.34,2.53-1.07,4.05l-2.85,1.17Z"/><path class="cls-83" d="M201,175.48c-3.47,2.3-6.24,2.22-8.56-1.81-2.45-4.27-6.08-3.56-9.09-.85s-6.64,3.44-9.88,5.28a3.15,3.15,0,0,1-4.07-.8c-1.48-1.67-3.33-2-5.39-1.8-2.9.21-1.54-4.89-5-4-.89-.13-2.22.31-2.41-.94-.17-1.09,1-1,1.79-1,2.07,0,3.48-.74,3.62-3,5.51-4.12-1.61-3.22-2-5,.34-2.47,2.28-1.8,3.84-2,2.38-.31,5,1,7.13-1,2.91-.58,4.29,4.4,7.68,2.1-.74,3.09,1.3,3,3.33,2.89,5.08,2.95,11.25,3.08,16.26,6.34C200.46,171.27,201.78,172.77,201,175.48Z"/><path class="cls-62" d="M160,161.49c3.41-.65,5.41.92,6.43,4.18-1.24,1.44-3,.55-4.44.82v-2c-.43-.78-1.56-.18-2-1C159,162.84,159,162.16,160,161.49Z"/><path class="cls-83" d="M160,163.51c.6.44,2.14-1,2,1-2.13,1.08-3.4,3.61-6.44,3.64C155.2,164.73,158.65,165.06,160,163.51Z"/><path class="cls-1" d="M121.91,139.49c2.37-1.37,3.9-1.14,6,.39C125.49,140.69,123.92,140.78,121.91,139.49Z"/><path class="cls-84" d="M201,175.48c-1.1-4.45-4.91-5.94-8.55-6.93-3.88-1.06-7.67-1.88-10.44-5.05,2.19.5,5.06-2.78,6.71,1.43.45,1.16,2.18.26,2.92-.65,2.27-2.81,4.29-1.33,6.36.21,2.69-.14,3.75-2.53,5.46-4,.55-.47,1.46-1.28.28-1.91-3.47-1.85-1.19-3,.45-4.19,2-1.48,2.23-2.69-.7-2.86-3.3-.18-2.48-4.35-5.18-5.14-.38-.11.15-1.65.66-1.4,4.4,2.13,4-2,5.46-3.92-1.58-.66-2.89,1.15-4.68-.06,3.71-2.14,3.88-6.48,6.24-9.49,4.15,2,1.33,5.61,1.1,7.87-.45,4.36-.53,8.41,1.13,12.41C213.25,163.9,209.27,167.69,201,175.48Z"/><path class="cls-5" d="M246,153.51c-6.13-4.25-11.58-1.86-17.26,1.33-2.28,1.28-4.26-1.17-5.7-2.9-1-1.2-5-1-2.33-4.25.19-.24-.11-.95-.29-1.4-2.56-6.66-2.16-13.89-3.93-20.69-.26-1-.2-2.48-1.66-2.82s-2,1-2.52,1.94c-1.64,2.71-4.27,4.47-6.29,6.8-3.45-4.41-2.45-10.66,2.08-13,.89-.46,1.78-.9,2.65-1.39,7-3.83,11.12-1.16,11.53,6.17.13,2.4,2.46,4.88-.4,7.24-.79.66.14,1.75.95,1.74,4.05-.08,5.3,2.74,6.21,5.84,1.22,4.16,4,3.5,7,2.42.87-.29,1.4.22,1.89.81a17.78,17.78,0,0,0,6.46,6.6C246.54,149.18,247.86,150.93,246,153.51Z"/><path class="cls-60" d="M246,153.51a4.18,4.18,0,0,0-2.83-5,10.54,10.54,0,0,1-6.16-7c1.73-1.86,3.95-.7,5.81-1-1.12-.27-2.9.22-2.81-2-.3-2.3,3.29-1.7,3-4a2.16,2.16,0,0,1-1-2,3,3,0,0,1,2-3c.74,2.76,1.21,5.55,5.4,4.67,1.47-.32,2.26,1.56,2.69,3.07,2,7.12,8.55,11.82,10.36,19.09.12.48,1,.78,1.55,1.16.42,2,0,4.21,1.44,6.09.95,1.28,2,3,.05,4.3-1.68,1.1-4.25,1-4.89-.62-1.69-4.22-8.66-4.67-7.43-10.85.28-1.4-1.3-1.08-2.22-1.08a6.37,6.37,0,0,1-4.94-1.83Z"/><path class="cls-85" d="M238,115.53c-2.52,1.69-2.75,3.28-.31,5.46,2.82,2.54,2.29,4.86-1.41,5.1-3.1.19-8.66,2.3-7.61-4.83-4.81-1.68-1.66-8.72-7.45-9.74,9-2.36,13.22-1.21,16.78,4Z"/><path class="cls-85" d="M242,132.52a2,2,0,0,1,1,2c-4.08,1.65-8,1.71-11.69-1.05-1.65-1.22-1.66-2.69-.58-3.8,2.13-2.18,5.05-1,7.62-1,2.37,0,1.6,1.38,1.26,3C239.32,132.77,241.07,132.35,242,132.52Z"/><path class="cls-85" d="M240,138.52c2.07,2.15,5.1.07,8.3,2.2-4.24,1.36-7.84.54-11.3.79l-1-1C235.61,136.46,238.24,138.4,240,138.52Z"/><path class="cls-86" d="M246,153.52c1,.15,1.95.28,2.93.46,1.71.3,5.22,4,5.46,5.87.09.74.19,1.47.92,1.46,2.93,0,3.84,2.38,5.06,4.24s2.95,2.71,4.57,1.57c1.89-1.33-.34-2.73-1-3.58-1.81-2.21-1.8-4,.1-6,2.72.28,5.7,2.72,8-.93,2-.54,2.49,1,3,2.36.62,1.54,1.13,3.51,3.28,2.76s.84-2.49.61-3.85c-.13-.81-.42-1.6.12-2.37-.6-5.69-6-9.07-6.89-14.89-.33-2.28-1-4.66-1.13-7.07,3.3,1.19,3.05,4.71,4.4,7.09,3,5.25,3,5.46,6.61.9.93.88,2.23,1.59,2.73,2.67,1.55,3.34,3.35,5.87,7.64,5.45,1.76-.17,2.82,1.39,3.61,2.88-3,.66-6.19-2.15-8.73-.6-3.39,2.07.63,5.45-.34,8.24-.37,1.09-.61,2.23-.92,3.35-2.13,1.45-3.95,3.26-6.95,3.26-2.06,0-3.78,2.86-5,3.12-4.95,1.06-7.15,3.26-7.66,8.39-.17,1.68-4,2-6.18,1.82-1.79-.17-1.58-2.53-2.25-4-1.31-2.78.88-6.26-1.91-8.63.68-3.59-.45-5.27-4.46-5.39C246,161.94,245.87,157.65,246,153.52Z"/><path class="cls-87" d="M321.89,123.52c-4.7,2.2-4.56,7-5.95,11-2.91-1.45-1.91-3.85-1.43-6.07.53-2.46.3-3.87-2.88-3.32-3.79.66-7.65-1.79-11.58.49-1.53.88-3-.93-3.89-2.39a4,4,0,0,1,.25-5.06c1.23-1.52,3.45-2.16,3.82-4.39.34-.86,0-.87-.81-.86-1.58,0-2.51-.62-1.48-2.36l2.89-1.17.68.09c3.74-.14,6.53,1.62,8.7,4.48,1.45,1.92,3,3.37,5.68,2.6,1.07-.23,2.32.43,3.23-.52.59-.61-2-3.06,1.08-2.18,1.76.5,3.13,2,2.37,4.18C321.94,119.85,320.44,121.48,321.89,123.52Z"/><path class="cls-88" d="M297.94,110.57c.16,2,1.23,1.82,2.62,1.22.47-.21,1.34-.57,1.43.31.05.44-.68,1-1.06,1.43-3.85,3.19-7.53,6.57-11.25,9.9-1.77,3,1.44,3.21,2.61,4.28,4.59,4.24,5.06,8,1.17,12.11a8.48,8.48,0,0,1-1.94-.41c-3.2-1-7.71.07-9-4a17.63,17.63,0,0,1,1.2-13.53c2.18-4.22,5.59-7.36,9.23-10.29A8.87,8.87,0,0,0,297.94,110.57Z"/><path class="cls-89" d="M282,141.51c.32,2.72-.61,4.61-3.53,4.9s-3-1.92-3.63-4.14c-.84-3-2.53-5.84-3.85-8.75a9.43,9.43,0,0,1-2-6,1.47,1.47,0,0,0,.38-.32c1.54-2.19,2.32-5.88,5.64-5.31,3.65.64,2.81,4.26,3,7A32.28,32.28,0,0,0,282,141.51Z"/><path class="cls-90" d="M293,111.55a14.91,14.91,0,0,1-4.07,5.52c-4.47,4-6.1,9.1-6,15,.07,3.69,1.59,5.61,5.33,5.43,2.21-.1,4.29-.07,5.69,2a2.07,2.07,0,0,1,.72.88,8.28,8.28,0,0,1,.31,1.11,4.6,4.6,0,0,0,1.06,2,31.77,31.77,0,0,1,3.87,4.33c1.13,2.38,2.91,4.64,1.38,7.51a1.15,1.15,0,0,1-1.34.13c-1.55-6.35-5.95-9.86-11.78-12.16-3.39-1.33-5.35-4.68-6.73-7.56C277.4,127.41,283.88,114.44,293,111.55Z"/><path class="cls-86" d="M299.93,155.5c.33,0,.66,0,1,0a8.46,8.46,0,0,1,2.56-.09c2.64.11,3.14,2.52,4.41,4.1,0,.32,0,.64.07,1-4.9,1.28-8.31-.87-11-7Z"/><path class="cls-87" d="M311.92,108.55c.94,1.24.14,3.07,2.34,4.18,1.92,1-1.62.57-1.31,1.79-1.4.44-2.22-.46-2.8-1.43-2.16-3.63-6.14-2.35-9.19-3.54l-.13-.15A12.73,12.73,0,0,1,311.92,108.55Z"/><path class="cls-91" d="M279,155.48a23.81,23.81,0,0,1,1.78,4c.36,1.51.81,3.53-1.56,3.88-2,.3-4.49.66-5.09-2.3-.35-1.73,0-3.69-2.17-4.5l-3.94-4.1a9.54,9.54,0,0,0,1.71-1.71c2.57-4.56,4.58-2.33,6,.68C276.52,153.15,277.24,154.64,279,155.48Z"/><path class="cls-92" d="M210,186.5a1.9,1.9,0,0,1,.93,1.95c-1.27,1-.76,2.4-1,3.63a3.82,3.82,0,0,1-3.27,3.24,7.59,7.59,0,0,1-5.53-1.59c-1.41-1.07.12-2.07.9-2.7A26.66,26.66,0,0,1,210,186.5Z"/><path class="cls-93" d="M207,181.43c-4.56-1.25-3.54-4-1.62-6.69a18.79,18.79,0,0,1,7.83-5.88c-2.39,3.2-5.38,6.12-4.23,10.6Z"/><path class="cls-94" d="M301,109.55a4,4,0,0,0,.49,0c4.78-.51,9.25-.33,11.5,5l2.94,2c-1.54,1.62-3.49,2.79-4.9.35C308.66,112.9,305.14,110.87,301,109.55Z"/><path class="cls-95" d="M288.94,122.54c4.21-2.71,6.47-8,12-9,1.78,2.53-.7,3.12-2,3.93-2.27,1.45-3.5,2.87-1.76,5.59s3.37,2,5.29.46a3.65,3.65,0,0,1,5,0,3.56,3.56,0,0,0,4.58.26c1-.66,1.9-1.57,3-.41a3.67,3.67,0,0,1,1,4c-.79,2.32-1.91,4.7-.14,7.09l0,1c-.85,2.43-2.94,4.13-3.55,6.81-.44,1.9-2.56,2.33-4.47,2.33-2.74,0-4.86-1.22-5.74-3.8a11.41,11.41,0,0,0-5.4-6.69c-1.93-2.81-3.33-6-6.81-7.53C288.17,125.86,287.71,124.29,288.94,122.54Z"/><path class="cls-96" d="M296.94,133.52c3.61.48,5.5,2.6,6,6.16.41,2.74,2.21,3.83,4.91,3.84,2.27,0,3.87-.59,4.08-3.2s2.75-3.11,4-4.81c-1.93,5.32-.57,12-6.85,15.54-1.81,1-.45,2.5.55,3.68,2.15,2.53,1.5,4.14-1.72,4.79-3,1.18-2.07-4-5-3,.55-4.49-4.48-7.49-3.23-12.24.25-1-.95-1.13-1.81-1.06a4.66,4.66,0,0,1-3.94-1.69c0-.33,0-.66,0-1C295.92,138.6,295.41,135.62,296.94,133.52Z"/><path class="cls-87" d="M296.94,133.52c.15,2.82.17,5.59-3,7,0-.33,0-.65,0-1,1.91-7.19,1.61-8.21-4.88-12.39-2.64-1.7-2.72-3-.11-4.6,0,1.33-.13,3,1.34,3.46C294.12,127.17,295.24,130.56,296.94,133.52Z"/><path class="cls-87" d="M294,141.51c1.45-.06,2.75,1.27,4.33.39,1-.52,2.74,0,2.45.62-2.42,5.24,5.58,8.73,2.2,14a2.15,2.15,0,0,1-2-1c.68-3-1.64-5.26-2-8-.51-2.16-2.15-3.19-4-4A2,2,0,0,1,294,141.51Z"/><path class="cls-88" d="M294.91,143.53c2.87-.22,5.33,0,4,4A10.74,10.74,0,0,1,294.91,143.53Z"/></svg>