<svg id="Layer_1" data-name="Layer 1" xmlns="http://www.w3.org/2000/svg" viewBox="0 0 400 275"><defs><style>.cls-1{fill:#f1d9a6;}.cls-2{fill:#e7d09c;}.cls-3{fill:#d5b277;}.cls-4{fill:#dec595;}.cls-5{fill:#e3c894;}.cls-6{fill:#dabd8a;}.cls-7{fill:#dccaa2;}.cls-8{fill:#e2d3b0;}.cls-9{fill:#e1c38f;}.cls-10{fill:#e0c894;}.cls-11{fill:#caa96c;}.cls-12{fill:#dec08a;}.cls-13{fill:#cdaf79;}.cls-14{fill:#e9ca91;}.cls-15{fill:#cdb180;}.cls-16{fill:#dec495;}.cls-17{fill:#a97c44;}.cls-18{fill:#c3a878;}.cls-19{fill:#c2a571;}.cls-20{fill:#e0c798;}.cls-21{fill:#dbbd88;}.cls-22{fill:#bba072;}.cls-23{fill:#c9aa74;}.cls-24{fill:#ddc18b;}.cls-25{fill:#c4ac7e;}.cls-26{fill:#e4d3ad;}.cls-27{fill:#d0bd96;}.cls-28{fill:#d6b274;}.cls-29{fill:#e7ca93;}.cls-30{fill:#9e8052;}.cls-31{fill:#cab081;}.cls-32{fill:#d0b484;}.cls-33{fill:#efd29e;}.cls-34{fill:#cea86b;}.cls-35{fill:#ead1a3;}.cls-36{fill:#e0cba3;}.cls-37{fill:#e1c594;}.cls-38{fill:#d5b177;}.cls-39{fill:#dcc599;}.cls-40{fill:#e2cda4;}.cls-41{fill:#d4ba8a;}.cls-42{fill:#bea272;}.cls-43{fill:#c5a87a;}.cls-44{fill:#b3925c;}.cls-45{fill:#c7a776;}.cls-46{fill:#c9b085;}.cls-47{fill:#c3ac81;}.cls-48{fill:#b59a6e;}.cls-49{fill:#dabd86;}.cls-50{fill:#946d3b;}.cls-51{fill:#cdb486;}.cls-52{fill:#e9e0d0;}.cls-53{fill:#e7cfa0;}.cls-54{fill:#e3d7bf;}.cls-55{fill:#d2b782;}.cls-56{fill:#ac9065;}.cls-57{fill:#b39c72;}.cls-58{fill:#ddc89f;}.cls-59{fill:#443d2f;}.cls-60{fill:#785d3d;}.cls-61{fill:#baa987;}.cls-62{fill:#b5a487;}.cls-63{fill:#e3c386;}.cls-64{fill:#dbc08c;}.cls-65{fill:#bf9658;}.cls-66{fill:#ceb78a;}.cls-67{fill:#a48655;}.cls-68{fill:#debe80;}.cls-69{fill:#ddbd82;}.cls-70{fill:#ebcf94;}.cls-71{fill:#d9b271;}.cls-72{fill:#dabd89;}.cls-73{fill:#d5bd8a;}.cls-74{fill:#e1c592;}.cls-75{fill:#e7ca8e;}.cls-76{fill:#f0d6a1;}.cls-77{fill:#c2a066;}.cls-78{fill:#d5b379;}.cls-79{fill:#bf9b62;}.cls-80{fill:#b18e50;}.cls-81{fill:#b79456;}.cls-82{fill:#926a33;}.cls-83{fill:#b59254;}.cls-84{fill:#caa468;}.cls-85{fill:#b59966;}.cls-86{fill:#b89a65;}.cls-87{fill:#ae905d;}.cls-88{fill:#553921;}.cls-89{fill:#b1874d;}.cls-90{fill:#be965f;}.cls-91{fill:#d7b881;}.cls-92{fill:#c79f64;}.cls-93{fill:#91754a;}.cls-94{fill:#d4b06e;}.cls-95{fill:#cca363;}.cls-96{fill:#e5c78f;}.cls-97{fill:#d9b272;}.cls-98{fill:#c49d5f;}.cls-99{fill:#b68b4e;}.cls-100{fill:#d0af71;}.cls-101{fill:#cdb17f;}.cls-102{fill:#c5a066;}.cls-103{fill:#d4b782;}.cls-104{fill:#d4b985;}.cls-105{fill:#b7884a;}.cls-106{fill:#d3b789;}.cls-107{fill:#a77a41;}.cls-108{fill:#a5773d;}.cls-109{fill:#ac8a4d;}.cls-110{fill:#bea16e;}.cls-111{fill:#9d6d2f;}</style></defs><path class="cls-1" d="M65,177.46c4.06-4.23,4.76-9.43,5.22-15.07.57-7.13-.33-14.16-.22-21.24a17,17,0,0,1,4-10.76c.85,6.79,8.27,10.79,7.66,18.5,3-4.09,6.88-5.15,11.45-4.58,2.24.28,3.82,1.22,4.11,3.57.52,4.12,2.77,6.53,6.78,7.62,3.13.84,4.16,2.37,2.43,5.85-2,4-1.68,8.37.33,12.48.29.6.72,1.13,1,1.74,1.13,2.8,2.73,6-.62,8-3.53,2.11-5.32-1-7.44-4.28,0,3.38.41,6.36-2.76,7.7-3.33,1.4-6.14.21-8.78-1.81-.53-.41-1.28-.63-1.62-1.14-4.73-7-11.77-5.88-18.64-5.37A3.71,3.71,0,0,1,65,177.46Z"/><path class="cls-2" d="M68.07,177.51c4.34-1.63,8.8.86,13.19-.4a2.16,2.16,0,0,1,2.68,1.71c.73,4.14,4.81,4.78,7.33,7,1.62,1.41,4.07,1.08,6.08-.19s.91-3.15.8-4.89c-.09-1.27-1.65-3.21.64-3.8,1.67-.42,2.79,1.2,3.06,2.66.53,2.81,2,4.57,4.71,3.36s1.67-4.13.45-5.63c-3.39-4.15-3.12-8.87-2.93-13.64.2-5,0-5.62-4.4-8.36a8.18,8.18,0,0,1-3.54-5.22c-.43-1.72.8-4.54-2.43-4.47s-7.28-1.56-9.35,2.61c-.83,1.67-1.14,3.82-3.64,2.92s-.87-2.76-.7-4.27c.25-2.24,0-4.33-1.93-5.83-3.57-2.71-4.4-6.46-4.08-10.65.62-.65,1.25-1.29,1.88-1.94,1.48-.6,1.06-3.28,3.32-3a3.1,3.1,0,0,1,.6,2.75,6.56,6.56,0,0,1-.54,1.35c-3,5.84-1.81,8.63,4.6,9.63,4.3.68,8.25,2.42,12.43,3.44,1,.23,2.23.59,2.52,1.43,1.84,5.41,7.93,6,11,10,1.44.38,3.24.51,3.78,2.07,2,5.95,6.56,10.3,9.76,15.49,5.79,4.21,6,4.92,2.82,12.08-2.83,6.31-5.49,12.73-10.15,18a11.76,11.76,0,0,1-1.67,1.41c-3.41,1.64-5.8,4.83-9.37,6.25-3.59.17-5-1.42-3.68-4.86,1.67-4.32-1-6.36-4.26-7.43-3.06-1-4.84-2.8-6.73-5.29-3.58-4.73-9.08-6.79-14.57-8.61a3.08,3.08,0,0,1-1.18-.73,5.7,5.7,0,0,0-4.35-2.88C69.21,179.37,67.8,179.23,68.07,177.51Z"/><path class="cls-3" d="M75.07,182.49h1c-3.13,4.34.33,7.55,2.68,9.84,3.35,3.28,2.9,4.92-.24,7.84-3.91,3.65-6.77,8.37-11.37,11.37C59.88,214.1,54.8,218.71,53,226.44c-4,1.77-7.51,4.05-9.54,8.11a6.83,6.83,0,0,0-1,1.72c-.84,2.59-2.34,4.83-5.33,3.87s-3.91-3.9-3.47-6.9c1.83-12.5,5.29-24.68,7.62-37.09a12.15,12.15,0,0,1,7.75-9.57l3-.15A66.19,66.19,0,0,1,51,195.3c-1.34,1.21.92,1.81.52,2.88-.93,2.93-.68,4.82,3,3.12,3.89-1.78,7.89-3.34,11.23-6.18,1.45-1.23,1.42-2-.06-3-3-2.07-5.7-4.56-9.68-4.5a3.29,3.29,0,0,1-3.08-1.24l6.22-1.86C64.35,183,69.45,180.78,75.07,182.49Z"/><path class="cls-4" d="M314.94,266.51a10.3,10.3,0,0,0-2.48,0c-5.83,1.48-9.7-.58-12.27-6-.78-1.63-2.84-2.66-4.31-4,.5-2.59,2.57-4.54,2.76-7.35.24-3.66-.18-6.59-4.49-7.31-1.14-1.88.38-3.44.77-5.07.84-3.48.58-6.51-2.37-8.86s-6.14-2.95-9.5-.79c-4.07.22-5.58,3.31-7.14,6.35l-1.1-1.95c-1.94-2.66-5-4.05-7.2-6.43-2.48-2.74-5.51-5.36-3.74-9.77,2.69,0,3.12,2.68,4.63,4.06,1,.87,1.45,2.68,2.91,2.43,1.68-.29,1.12-2.14,1.41-3.36a10.65,10.65,0,0,0-1.12-8.61c-1.29-2.1-1.35-4.63.86-6.32,2.43-1.86,4.35-.18,6.11,1.45s2.77,3.73,4,5.7c1.65,2.32,2.23,5.17,3.76,7.53,1.39,2.14,2.78,3,5,.54a32.48,32.48,0,0,0,5.57-7.38c3,6.23,5.88,12.49,8.91,18.69.75,1.52-.06,2.9.05,4.34-1,7-2,14,2,20.49,1,1.57,1.86,3.25-.22,4.71-1.33,1.53.33,2,1,2.84C310.11,264.89,314.38,262.91,314.94,266.51Z"/><path class="cls-5" d="M67.12,211.55c4.17-5,7.84-10.41,13.09-14.43a1.83,1.83,0,0,0,.33-1.22c-3.63-1.64-4.16-5.74-6.65-8.23-.66-.66-2.59,0-2.58-1.66,0-1.95,2-1.16,3-1.81a11,11,0,0,0,1.71-1.7c1-.41,2.11-1.35,3.17-.25,2.5,2.58,5.93,3.54,8.9,5.29A7.66,7.66,0,0,1,92,191.83c.7,2.33,2.19,3.3,4.62,3.72,5.23.91,7.4,4.77,5.51,9.64-1.3,3.35.82,3.18,2.9,3.27.42,2.75-2.14,3.08-3.53,4.36a4.52,4.52,0,0,1-1.3.43c-4.08-1.46-8.1-1.83-11.94.72a7,7,0,0,1-2,1.79,1.05,1.05,0,0,1-1.19-.38c1.49-3.75.49-5.38-3.78-5C76.57,210.88,71.73,209.78,67.12,211.55Z"/><path class="cls-6" d="M161.17,101.49c7.51,1.16,15,2.48,22.54,3.45a78.65,78.65,0,0,0,23.28-.13c5.47-.93,10.9-.09,16.27,1,8.15,1.69,16.33,2.34,24.57.66,4.75-.45,9.46-1.79,14.29-.76,1.76.37,3.69.39,4.93,2a6.86,6.86,0,0,1-8.42,3.09c-8.14-2.94-15.78-1.12-23.55.91-2.67.15-4.35,1.5-5.65,3.88-1.12,2.06-2.56,4.22-5.49,4.11a22.6,22.6,0,0,1-3.51-5.44c-.77-1.9,2.55-3.33,1.06-4.76s-4.08-.55-6.09.1a34.49,34.49,0,0,1-9.19,1.33c-6.56,1.09-13.38,3-19.69,2.13-8.25-1.12-16.59,1.47-24.64-1.34-2-.69-3.93-.12-5.87.39-3.09.81-6.19,1.23-9.31.16a1.85,1.85,0,0,1-1-1.17C150.29,107,152.86,99.66,161.17,101.49Z"/><path class="cls-7" d="M328.94,164.48c-10.17,1.24-19.43,6.62-30.05,6.2-3.75-.15-4.75,4-6.16,6.91-.83,1.72-.58,4-2.7,5.06-1.94-2.53.7-5,.11-8.09-3.22,4.59-8.62,6.32-10.79,11.61-1,2.33-4.37,2.38-6.52,3.75-3.37-1.49-.49-4.52-1.83-6.94-2.8.51-3.23,3.1-4.34,5.09-2.53,4.54-6,5.21-9.05,1.81.36-2.16,1.61-4,2.18-6.09.8-2.23,2.56-3.17,4.72-3.71a10,10,0,0,0,4.75-2.28c2.71-2.8,7.16-2.69,9.67-5.81,2.67-1.94,5-4.44,8.52-4.89,1.36-.17,1.93-1.18,2.2-2.39.85-3.71,3.27-4.47,6.76-4,3.7.47,7.12-1.62,10.34-2.72,5.65-1.92,10.09-.63,14.62,1.94a6.1,6.1,0,0,0,6.52.11c1.82,0,3.6-.43,5.4-.4,1.1,0,2.55,0,2.62,1.54.06,1.29-1,1.9-2.22,2.26C332.13,163.88,330.42,163.68,328.94,164.48Z"/><path class="cls-8" d="M258,189.45c2.75,2.34,6.2,1.61,7.68-1.68.33-.73.11-1.75.52-2.39,1.31-2.08,2.91-5.12,5.32-4.47,2.87.77,1.29,3.8.77,5.93-.26,1-.31,1.95.67,2.64,2.55,5.87,1.55,7.53-4,8.82-4.11,1-7.71,3.54-11.73,5-1.15.41-.88,2-.43,3.11.73,2.5,3.94,3.23,4.32,6a.81.81,0,0,1-1.19.07c-3.27.19-4.57-2-5.7-4.56-2.51-5.58-5.34-6.72-11.35-6-7.32.87-14.74.82-22,2.47a1.49,1.49,0,0,1,0-1.38c1.63-2.28,4.2-2.39,6.63-2.91,5.48-1.19,7.12-3.21,6.94-8.69a3.45,3.45,0,0,1,2.55-3.74,4.15,4.15,0,0,1,1-.23,29,29,0,0,1,8.41.42c3.21.58,2.72-5.05,6.37-4.15C255.58,184.64,258,186,258,189.45Z"/><path class="cls-9" d="M161.17,101.49c-2.94-.31-4.94,2.72-7.95,2.25-.2,0-.71.43-.68.59,1,5.45-4,4.49-6.51,6.22-2.93,3.24-6.65,2.68-10.16,1.7a20.53,20.53,0,0,0-9.25-.59,19.62,19.62,0,0,1-17.7-5.4c-4.76,1.13-8.93-1.07-13.26-2.34-1.77-.32-4.06.39-4.59-2.33,14.44.06,28.76-2.47,43.13-2.49C143.13,99.09,152.45,97.92,161.17,101.49Z"/><path class="cls-10" d="M182.78,226.32c-2-4.24.34-8.35.55-12.5.13-2.72.55-5.48.61-8.25a28.92,28.92,0,0,1-.54-8.32c.39-4.12-.41-8.11-4.3-10.47-4.36-2.65-9.34-2.74-13.18.25s-6.79,2.42-10-.49c-3.32-1.24-6-3.6-9.51-4.7-6.29-2-6.58-2.22-9.56,3.78a27.58,27.58,0,0,1-1.83,2.85c-1.9-3.11.52-5.47,1.4-8.09,2.43-2.6,5.63-2.85,8.76-2.36,4,.63,8.34-.14,12.1,2.31,1.46.95,3,.39,3.43-1.53.92-4.16,3.92-4.74,7.54-5,4.45-.25,9.09-.45,12.08-4.66a8.88,8.88,0,0,1,5.88-2.42c1.93-.18,4.82-1.66,4.65,2.7,0,1.37,3.34,1.4,3.46,3.7-.88,2.47-3.2,2.69-5.24,3.24a21.85,21.85,0,0,0-5,2.05c-3.15,1.76-.08,2.26.55,3.27a14.81,14.81,0,0,0,.77,1.83c4.78,6,4,12.23,1.13,18.64-.18,3.5.17,7-.41,10.49a15.65,15.65,0,0,0-.32,8.71,13.92,13.92,0,0,1,1.55,3.2c-.39,1.78-1.87,2-3.29,2.31A1.71,1.71,0,0,1,182.78,226.32Z"/><path class="cls-11" d="M216.06,208.61c-.07.74,0,1.53-.86,1.92-1.1.75-1.57,2.44-3.32,2.26-3.34-.19-5.3-4.84-9.35-2.88.16,1.21,1.68,1.53,1.75,2.75-2.21,2-5.33,3.13-6.24,6.41-1.82.29-2.76-.79-3.15-2.31-.77-3-2.89-5-5-7-.46-1.6.69-2.11,1.79-2.67,1.78-.54,3.9.82,5.44-1-2-2.54-4.34-4.76-5.74-7.69a3.63,3.63,0,0,1-.08-2.09,2.12,2.12,0,0,1,2.84-1.26c.23.06.79.49.66.18-2.64-6,2.62-4.34,5.14-5.31a2.32,2.32,0,0,1,1.25.5c1.3,1.54-2.66,3.27.18,4.75,1.12,1.11,3.56,3.09,3.32.42-.42-4.62,2.54-4.72,5.07-5.93.45-.18.9-.33,1.36-.47,3.37-1.59,6.17.47,9.15,1.4,1.84.8,4.08.21,5.73,1.66.37,1.79-1.13,2-2.17,2.52C219.85,198.62,218.75,204.06,216.06,208.61Z"/><path class="cls-12" d="M267,108.55c-6.16-2.72-12.71-1.77-19.13-2.06,12.69-4.27,25.82-4.9,39-4.8a27,27,0,0,0,13.87-3.47c7.62-4.16,16.5-7.22,25.33-1.75-4.15,2.12-8.29,2.83-13.16,3.19-6.73.5-13.87,4.22-16.68,12a3.81,3.81,0,0,1-1.3.7c-5.29-2.25-11.18-1-16.53-2.82a11,11,0,0,0-6.78.21C269.89,110.26,268,110.84,267,108.55Z"/><path class="cls-13" d="M212,212.48l3.16-1.95c-2.82,6.88-5.55,13.81-8.52,20.63a24.29,24.29,0,0,0-1.8,9.18c-1.64,5.91-2.3,11.84-.23,17.8-.2,2.45-1.9,3.6-3.91,4.47a18.8,18.8,0,0,1-3.31.89c-4.78.75-5.09.45-5-4.77.05-.16.11-.31.16-.47.5-1.71,3.38-2.7,2.3-4.59-1.4-2.49-3.52.86-5.37.07-.94-.26-1.78-.79-2.75-1-1.27-.26-2.82-.45-3.1-2-.35-2,1.6-2.15,3.14-3.21-1.55-.73-3.46-.57-4.36-1.71-1.08-1.4-3.65-3.06-.42-5a3.51,3.51,0,0,1,1.36.27c3.64,2,7.41,3.47,11.69,3,1.56-.17,3.34-.37,3.09-2.31-.46-3.77.58-8-3-11a20.92,20.92,0,0,0-4.46-3c-1.31-.65-3-1.31-2.74-3s2.09-1.84,3.42-2.39c3.39-1.42,6.72-.91,10,.31,2.05,2.27-2.8,4.82.36,7.06,5.22-4.47,6.86-11,9.66-16.94C211.65,212.75,211.84,212.61,212,212.48Z"/><path class="cls-14" d="M45,105.64c-10.58-3.81-14.25-9.32-12.07-21.92C33.19,82,32.63,80,34,78.47c5.63,5.63,10.9,11.59,16.35,17.39,1,1,2.48,1.65,3.59.87,5.31-3.7,9.24,0,13.46,2.25,2,2.71.22,4.7-1.27,6.76-5.76-5.08-11.58-2-17.4-.14A4.68,4.68,0,0,1,45,105.64Z"/><path class="cls-15" d="M101.05,212.46l4-4c3-1.94,5.21-5.19,9-6,.92,5.34,1.94,6.09,8.22,6-.32,3.86-4.67,4-6.28,7.13-4.38,8.5-4.88,16.58.06,24.86,1.28,2.34-.38,3.87-2.06,3.95-2.18.1-4.26,1.39-6.49.58a7.58,7.58,0,0,1-.77-3.62c-.06-2.5-.08-5,0-7.48.1-2.91-.82-5.2-3.34-6.76A22.26,22.26,0,0,0,101.05,212.46Z"/><path class="cls-16" d="M49.08,186.58c-4.51,3.92-6.93,8.87-8,14.77-1.7,9.52-5.31,18.68-5.12,28.56,0,1.92-2.49,3.28-1.69,5.52.61,1.7,1.1,3.63,3.34,3.9s3.36-1,3.5-3.17a3,3,0,0,1,1.93-2.67c1.72,3.47,2.88,7.28,6,9.93-1.42,2.23-.3,5.38-2.68,7.3-.76.62-.63,1.34.23,2,1.3,1,2.21,2.27.79,3.74-1.16,1.2-2.8,1-4.25.69-7.1-1.74-8.11-3.15-8-10.69.06-3,.27-6-1.42-8.7a7,7,0,0,1-.58-5.35c1.93-8.19,2-16.74,5-24.72A36.78,36.78,0,0,0,40.22,197,11.14,11.14,0,0,1,49.08,186.58Z"/><path class="cls-17" d="M355.78,135.6l6.41,4.71a8.62,8.62,0,0,0,.55,2.41c2,5.74,1.22,7.69-4.38,10.57,2.48.72,5,1.42,6.78,3.51-2.56,3.32-5.79,3.34-9.23,1.74-1.19-.56-2.2-1.49-3.6-1.56-6.1-1.29-7.47-3.09-6.46-9.29.73-4.48,1.31-8.86-1.1-13-.16-2.31,1.86-3.34,2.9-5C351.76,129.72,352.72,134.1,355.78,135.6Z"/><path class="cls-18" d="M122.26,208.51c-3.75,2.15-7.06,1.29-9.41-2.24-1.28-1.91,1-2.48,1.19-3.81l1-1c4.75-3.88,6.67-9.79,10.29-14.49,2-2.52,3.76-5.11,6.3-7,1.85-1.4,3.87-2.24,5.4.55.42,2.93-2.39,5.06-2,8C132.26,196.1,126.23,201.65,122.26,208.51Z"/><path class="cls-19" d="M108,241.39c0,1.36,0,2.71.08,4.07a3.49,3.49,0,0,1,.7,3.66c-1.61,2.14-2,5.11-4.42,6.73-3.47-.67-2.74-5-5.45-6.31-1.62-2.69-4.11-4.84-4.88-8,1.24-.48,1.7.33,2.07.93-.45-3.11-.37-6.59-.91-10a23.8,23.8,0,0,0,3.3-10.89c.26-3.61-1.3-4.26-4-4.7s-6,.89-8.5-1.46l1.12-1.89c2.62-1.94,5.47,0,8.18-.5,1.91-.35,3.94.61,5.79-.52h0c2.36.17,3,1.65,3,3.75,0,1.15-.31,2.81.31,3.38,3.46,3.14,1.13,4.93-1.3,6.8,1,6.54.25,13.09,0,19.59C103.21,242.81,103.43,239.87,108,241.39Z"/><path class="cls-20" d="M314.94,266.51c-1.69-2.49-6.77.74-7-4.17a2.7,2.7,0,0,1,.58-2.65c1.55-2.45,3.82-2.05,6.21-1.71,3.6.51,7.06.29,9.23-3.32,4.08,1,8.16,2,11.78,4.19,2.26,1.36,3.3,3.72,1.83,5.92-1.15,1.71-2.59,4.47-5.81,2.15-2.15-1.56-4.41.73-6.69.49C321.69,267.05,318.16,268.48,314.94,266.51Z"/><path class="cls-21" d="M67.08,99.56c-2-1.12-4.42-1.07-6.17-2.91-1.27-1.33-2.7-1-4.33.32-3,2.46-5.18,1.6-8.36-1.21C43.63,91.71,42.11,84.51,35,83.05c-1.6-.33-.59-3-.93-4.58.13-4.23,2.34-8,2.95-12.07,3.62,3,7.13,6.18,8.08,11.16.16,2.79-.1,5.51,1.06,8.31,1.93,4.65,5,7.37,10,7.65,4.22.24,7.87,2.51,12,3.1.86.53,1.7,1.13,1.29,2.3S68.08,100.2,67.08,99.56Z"/><path class="cls-22" d="M292,198.47l2.07,4.87c.82,4.87.32,5.59-4.13,6-2.47.26-4.9.29-7.16-1-2.42-2.2-4.55-4.7-6.88-7A6.31,6.31,0,0,1,277.39,191c3.45-1.85,7.16-3.44,11.22-1.51.55.59.84,1.36,1.37,2h0C289.85,194,290.9,196.25,292,198.47Z"/><path class="cls-23" d="M344.88,133.68c5.32,3.67,3,8.79,2.28,13.39-1,6.64-.4,7.88,5.73,8.53,2.68,1.73,4.68,4.5,8.59,4.14,1.89-.18,3.11,1.64,2.46,3.89l-1.86,1c-3.78,1.11-6-2.17-8.54-3.63a67.1,67.1,0,0,0-19-7.13,5.42,5.42,0,0,1-2.85-1.17c-1-2-.55-3.49,1.55-4.4a8.48,8.48,0,0,0,8.08-.1c1.49-.85,2.86-2.3,1.54-4-1.19-1.57-2.7-.31-3.94.45s-1.72,2-2.63,2.95-1.67,1.81-2.83.4c-.33-3.66,1.65-7.07,1.12-10.74.21-4.32,2.56-6.09,6.76-5.64C342.72,132,344.07,132.36,344.88,133.68Z"/><path class="cls-24" d="M193,258.47c.27,5.91,3.76,4.25,7.07,3,1.15,1.38,3.06,1.58,4.33,2.77,2.14,2.85.49,5.61-.19,8.39a52.54,52.54,0,0,1-16-.89c-3.88-.8-5.58-4.38-6-8.27-.21-2-.21-4-.3-5.94l.55-.39c1.78,0,3.33,1.31,5.19,1C189.38,258.31,191.26,257.05,193,258.47Z"/><path class="cls-25" d="M323.94,254.66c1.95,3.91-1.94,3.54-3.53,4.3a8.63,8.63,0,0,1-6.8.07c-2.21-.88-3.41,0-4.69,1.38-1.16,0-2.31.08-3-1.08,1.19-.94,3.24-1,1.11-3.63-4.79-5.89-2.86-13.14-2.87-19.94,0-.88,1-1.2,1.85-1.36,1.62,3.34,1.61,7.51,5.07,9.92.6,5.94,4.71,8.08,9.85,9.12Z"/><path class="cls-26" d="M155.94,186.54c3.49,1.65,6.31,2.78,9.62-1.39,2.45-3.09,12.06-2,15.32,1,3.65,3.32,4.81,7.62,3.61,12.59a41,41,0,0,0-.55,6.86,14.16,14.16,0,0,1-1.86-6.6c-.25-4.93-2.94-6.72-7.49-6.49-4.21.21-8.2-.93-12.27-1.69A9.08,9.08,0,0,1,155.94,186.54Z"/><path class="cls-27" d="M290,191.46l-1.08-.93c-2.07-3.26-5.24-2.55-7.92-1.63-3.07,1-6.45,2.59-6.45,6.61,0,3.46-1.66,4.22-4.7,4.93-5.1,1.18-9.53,4.13-13.87,7-2.14-3.42-1.09-6,2.73-6.24,4.77-.26,7.52-6.24,13-4.08.93.36,1.23-1.27,1.24-2.26,0-1.81,0-3.61,0-5.42,1.29-.88,1.11-3.87,3.88-2.66.68.3,1.58-.09,1.63-.67.55-6.5,7.62-7.3,10.34-11.91.62-1.07,1.92-2.28,3.3-1.33s-.13,2-.38,3.07c-.55,2.22-1.13,4.44-1.7,6.66C290,185.58,291,188.53,290,191.46Z"/><path class="cls-28" d="M295.94,111.55c.37-4.53,5.7-10.52,10-10.93a6.85,6.85,0,0,0,4.38-1.89c.69-.66,2.24-1.62,2.43-1.43,4.79,4.62,8.82-1.86,13.3-.83,4.73,1.54,8.2,4.92,11.83,8.07-1.48,1.32-1.48,1.32-5.67-.11-5.67-.29-11.18-1.59-17-.94-4.62.52-6.84,4.25-10.6,5.61C301.8,110.2,299.24,112.19,295.94,111.55Z"/><path class="cls-29" d="M67.08,99.56c2.54-.22,1.61-1.64,1-2.94l22.12,4.83c-1.54,1.73-3.6,1.42-5.57,1.46a15.94,15.94,0,0,1-3.16-.36c-2.09-.69-4-.71-5.06,1.64s.11,3.84,1.89,5.08a8.72,8.72,0,0,1,3.85,8.66c-.25,2.21.44,4.27.69,6.41.3,2.61-.35,4.74-3.77,4.19v-3c-1.92-1.06-1.48-3.39-2.63-4.86.76-3.64-1-5.83-4-7.69-2.84-1.75-6.27-3.24-6.38-7.43C65.22,103.36,68.52,101.86,67.08,99.56Z"/><path class="cls-30" d="M96,232.46c1.59,2.6,1,5.48,1,8.27.06,4.14-2,.59-3,.77-4.43-7.53-8.38-15.26-9.79-24,2.58-2.06,5.71-1.6,8.55-1.38,3.88.28,3.73,3.43,2.72,6A11.27,11.27,0,0,0,96,232.46Z"/><path class="cls-31" d="M104,255.49c1.71-1.79,1-5.22,4.12-6.06,1.23-.3,1.7.74,2.42,1.36,4.4,3.78,7.44,3,9.47-2.37.53-1.38.8-3.1,3-2,1.08.6,1.54,2.13,3.08,2,4.71,5.28,3.66,9.26-2.85,11.25-2.35.72-4.91.5-7.14,1.71l-2-.11a22.74,22.74,0,0,1-9.37-2.77C103,257.64,103.16,256.76,104,255.49Z"/><path class="cls-32" d="M283,207.48c2.73,1.45,5.66.53,8.48.56,3.3,0,2.24-2.84,2.62-4.7,2.05,2.28,2.18,5.28,3,8,1.26,5.64-4.78,6.79-6.69,10.56-.79,1.55-2.85-.5-4-1.63-2.44-2.44-2.52-6.08-4.39-8.82C281,209.82,281.63,208.56,283,207.48Z"/><path class="cls-33" d="M66.08,105.55a22.08,22.08,0,0,0,8,7.07c3.12,1.66,5.36,4,3,7.92-3.54-2.71-6.77-5.79-10.51-8.25s-7.8-4.32-12.51-2.64a19.65,19.65,0,0,1-9.09-4c3.73-1.21,7.65-2,11.14-3.75,3.66-1.79,6.14-1.63,8.08,2.16C64.51,104.7,65.43,105.06,66.08,105.55Z"/><path class="cls-34" d="M50.09,195.48c.72-3-1-6.55,2-9a1.25,1.25,0,0,1,.83,0c6.25-1.14,10.64,2.64,15.23,5.81.87.6,2.3,1.69.69,2.7a94.53,94.53,0,0,1-15.59,8.35,2.86,2.86,0,0,1-3.58-.95c-1.48-2.14.81-3.25,1.41-4.82,1-.94,2.62-1,2.86.16.61,3,2.1.9,3.06.66,1.29-.32,2.49-1.1,2.15-2.78a3.83,3.83,0,0,0-2.32-3c-1.37-.55-2.07.45-2.83,1.34C53,195.08,52.16,196.84,50.09,195.48Z"/><path class="cls-35" d="M283,226.41c2.25-3.27,5.1-2.09,7.86-1,3.43,1.36,6.05,3.84,5.94,7.55-.08,2.89-.11,6.25-2.83,8.45.15,4.1,2,8.48-1.95,11.9-1.33-1.41-2.89-2.67-3.19-4.77.77-2.82-.11-5.45-.75-8.17s-1.44-5.44-.2-8.2C290.29,226.83,284.5,228.42,283,226.41Z"/><path class="cls-36" d="M116.06,261.43c-.11-.72-.88-1.68.48-1.92,1.14-.21,2.33-.06,3.47-.27,8.33-1.55,8.94-2.67,6-10.77,3.74,1,7.59,1.82,10.62,4.41a6.38,6.38,0,0,1,2.31,5.6c-.88,2.24-3.44,1.62-4.89,2.89l-2,.07c-2.24-1.37-4.1-.07-6,.86C122.69,262.3,119.28,263,116.06,261.43Z"/><path class="cls-37" d="M123,246.43a2,2,0,0,0-1.88,2.41c.28,3-.4,5.37-4,5.54-3.34.16-6.79.39-8.19-3.78a4.7,4.7,0,0,0-.86-1.17v-4c1.08-1.3,1.31-3.69,4.23-2.05,2.55,1.44,3.27-.9,3.72-2.91Z"/><path class="cls-38" d="M84.07,101.59l6.13-.14a2.34,2.34,0,0,1,.87.14c1.4,1.61,3.3.73,5,1,1.34,4.19-1.63,10.52-5.54,11.66-2.86.83-4.88-.56-6.27-2.84C82.28,108.22,80.46,104.92,84.07,101.59Z"/><path class="cls-39" d="M289,232.48c-1,3.58-.19,7,1.16,10.26,1,2.37,1.38,4.38-1.32,5.81-3.75-4.87-8.74-8.69-11.88-14.07C280.49,231.06,284.4,229.8,289,232.48Z"/><path class="cls-40" d="M332,152.59l2.9-.05c2.61,2.23,6.76,3,7.2,7.33-.19,2.42,2.95,3.16,2.83,5.55-5.35-.11-10.6-1.68-16-.94,1.62-1.95,4.77-1.07,6.38-3.32-2.46-1.9-5.2,2.1-7.39-.65-.89-2.36,1.56-3.84,1.58-6A3,3,0,0,1,332,152.59Z"/><path class="cls-41" d="M341,160.56c.44-4.53-5-4.63-6.06-8,9.1,2,17.6,5.25,24.85,11.31a6.68,6.68,0,0,0,2.32.77,10.57,10.57,0,0,1-5.2,1.82A83.06,83.06,0,0,1,341,160.56Z"/><path class="cls-42" d="M49,243.42c-5-1.47-6.11-5.34-6-9.93,2-4.26,4.79-7.33,10-7.05-.84,4.51-4.59,8.48-2.25,13.62C51.33,241.26,49.63,242.28,49,243.42Z"/><path class="cls-43" d="M332.92,103.55c1.81-.4,3,2.21,5,1,3.83,3,7.79,5.84,8.91,11-3.42,1.36-5.57,4.87-9.37,5.6-3.67-1.09-1.79-4.29-2.49-6.52C337.26,110.38,333.47,107.26,332.92,103.55Z"/><path class="cls-44" d="M96,232.46c-2.76-2.58-4.45-5-2.19-9.21,2.71-5,1.28-6.51-4.31-6.44-1.85,0-3.47.94-5.28.67.26-.7.53-1.4.8-2.1a4,4,0,0,0,.92,0c3.91.47,7.93-.67,11.77.84,1.06.41,2.52.43,2.81,1.71.57,2.45-2.49,4.43-1.17,7,1.55,3.05-.06,4.53-2.53,5.82C96.4,231,96.3,231.87,96,232.46Z"/><path class="cls-45" d="M45.05,77.56c-2-4.24-6.79-6.42-8.08-11.16a4.43,4.43,0,0,1,.2-1c1-2.33,1.31-5.79,4.69-5.48,3.19.29,2.57,3.76,3.16,6C46,69.75,46.61,73.68,45.05,77.56Z"/><path class="cls-46" d="M292,253.32c2.35-3.69-.42-8.22,1.95-11.9,5.83.06,8.3,6,5,12a7.38,7.38,0,0,1-3.06,3.1Z"/><path class="cls-1" d="M54.05,109.65c3.31-3,7.63-2.86,12.36.89,3.8,3,8.36,5.34,10.66,10l2,5c-1.26.76-1.4,2.73-3.17,2.93,1.72-4.87.22-8.28-4.29-10.94C66,114.23,59.71,112.68,54.05,109.65Z"/><path class="cls-24" d="M183,241.39c-3.35,1.64-1.17,3.06.42,3.85s3.76,1,5.72,1.5c-.17,3-3.29,2.07-4.86,3.68,1.54,1.79,4.88.21,5.68,3a2.65,2.65,0,0,1-1.06.84c-2.53.45-5.32.36-6.81,3.12l-.27.19c-.25-10.08-3.72-20.16.11-30.23C183.93,231.89,186.6,236.4,183,241.39Z"/><path class="cls-47" d="M289,232.48c-4.27-.88-8.08,1-12,2l-1-1c-.68-5.39,2.18-7.24,7.06-7.07C290.7,226.52,291,226.79,289,232.48Z"/><path class="cls-48" d="M337.91,120.51c1.62-1.82,4.16-2.54,5.49-4.73.94-1.53,2.23-.87,3.42-.24a33.28,33.28,0,0,1,4.08,12.89c.3,3.24,3.49,4.61,4.88,7.17-3.68-.63-4.74-4.67-7.87-6l-.5-.48c-1.34-1.61.7-5.59-3.62-5.09-2.09-.45-4.2-.86-6-2.21A1,1,0,0,1,337.91,120.51Z"/><path class="cls-49" d="M183,241.39c1.15-4.8-.91-9.36-1.07-14.06.28-.34.55-.68.83-1l1.12.11c1.48,3.57,3,6.85,8,6.29,1.05-.12,1.88,1.68,2.18,3-.21,6-4,7.93-11,5.72Z"/><path class="cls-50" d="M364.9,156.55c-3.75,0-6.63-3-10.62-2.38.79-2.26,2.44-1.67,3.54-2.06,4.86-1.71,5.88-3.69,3.79-8.41-.63-1.42-.84-2.47.58-3.39a4.14,4.14,0,0,1,2.7,2.23,31,31,0,0,1,1.54,6,7.5,7.5,0,0,1,0,1.34c-.24,2.58,1.91,4.32,2.35,6.65a.76.76,0,0,1-.12.92C367.05,158.73,366,157.67,364.9,156.55Z"/><path class="cls-51" d="M204.19,272.65c-1.35-2.71,1.15-5.49-.16-8.2,1.57-.72,3.25-.12,5.06-1.38,2.42-1.68,5.85,2.67,5.88,7.26C211.61,272.16,207.89,272.37,204.19,272.65Z"/><path class="cls-52" d="M260,212.47l1,0a3.83,3.83,0,0,1,3,3c.35,5.27,3.73,8.63,7.53,11.63,1.54,1.22,3.53,1.95,3.34,4.42-4.53-.26-6.36-5.22-10.86-6-2.32-.42-2.77-3.89-2.87-6.31A34.32,34.32,0,0,0,260,212.47Z"/><path class="cls-53" d="M215,270.33a19.11,19.11,0,0,0-1.74-4c-.93-1.27-2-3.07-3.81-2.69-2.7.56.65,2.93-1,4.07-1.73-.63-1.87-3.59-4.37-3.27-2.06,0-3.89-.32-4-3,2-.19,3.06-1.55,4-3.08,2.62-1.23,3.89,1.28,5.78,2.07C215.45,263.43,216.74,265.91,215,270.33Z"/><path class="cls-5" d="M75.07,182.49l-15.93,2c2.77-1.68,5.58-3.34,5.88-7.07l3,0a3.12,3.12,0,0,0,3.16,1C74.35,178.1,75.44,179.56,75.07,182.49Z"/><path class="cls-54" d="M209.85,260.48c-2.4.63-3.79-1.56-5.78-2.07-3-5.91-2.64-14.23.81-18.07,0,1.33.13,2.65.12,4C204.94,250.21,203.77,256.43,209.85,260.48Z"/><path class="cls-55" d="M216.06,208.61c.24-6,3.4-10.64,7-15.1,4.42,2.72,4.54,3.74.76,7.16a11.92,11.92,0,0,0-2.8,2.78c0,.3,0,.61,0,.92C219.34,205.82,218.61,208.25,216.06,208.61Z"/><path class="cls-56" d="M364.9,156.55l3.79.89c.11,3.36-2.23,4.84-4.75,6.19-.71-1.43-1.18-3.26-3.28-3.06-3.94.37-5.75-2.43-7.77-5C356.75,157.81,360.62,159.72,364.9,156.55Z"/><path class="cls-57" d="M341,160.56c6.06-.07,10.88,3.19,15.91,5.88-4.08.85-8-.21-11.94-1C343.51,163.88,340.88,163.33,341,160.56Z"/><path class="cls-58" d="M320.9,253.44c-9.67,0-10.13-.4-9.85-9.12C314.17,247.54,318.44,249.51,320.9,253.44Z"/><path class="cls-36" d="M104,255.49c.38.63-.52,1.56,1,2a97.26,97.26,0,0,1,9.11,3.79c-5,.2-10.46.78-12.61-5-.83-2.23-1.92-4.45-2.55-6.78C102,250.3,102,253.77,104,255.49Z"/><path class="cls-59" d="M369.58,146.58c4.28,3.69,4.17,5.43-.59,9.15-1.4-1.88-4-3.19-3.07-6.2h0C366.71,148,366.71,145.51,369.58,146.58Z"/><path class="cls-60" d="M369.58,146.58c-1.92.11-2,2.55-3.65,2.94-.7-2.27-2.24-4.42-1-7C366.75,143.55,368.61,144.55,369.58,146.58Z"/><path class="cls-61" d="M126,262.3c.19-3.52,4.07-1.41,5.24-3.43,1,.63.69,1.66.77,2.57C130.07,261.88,128.15,262.71,126,262.3Z"/><path class="cls-27" d="M292,198.47c-1.61-2.07-3.83-4-2-7A21.75,21.75,0,0,1,292,198.47Z"/><path class="cls-60" d="M365.92,149.53c.18,2.49,2.5,3.9,3.07,6.2a.87.87,0,0,1-.18.79C367.5,154.34,363.62,153.21,365.92,149.53Z"/><path class="cls-62" d="M134.09,261.37c.84-2.3,3.31-1.84,4.89-2.89C139.22,262.61,136.17,261.18,134.09,261.37Z"/><path class="cls-63" d="M79.07,128.53c2.6-1,3.84-2.56,2.31-5.32a6.22,6.22,0,0,1-.55-4.7c.82-3.68-.14-6.79-4-8.64-3-1.44-3.19-3.82-1.68-6.66s3.2-3.67,5.88-1.66c-.4,4.94,2.46,8.82,4.32,13a5.71,5.71,0,0,0,6.46,3.57c2.85-.39,3.61-2.27,4.17-4.79,1.24-5.62,3-6.87,8.67-5.84,2.81.51,3.48-1.12,4.37-2.93,2,0,2.68,1.6,3.61,3a5.07,5.07,0,0,0,2.76,2c2.58.8,27.91,1.76,30.6,1v1c-2,3.75-5.05,3.57-8.86,3.38-9.6-.48-19.46-3.15-28.72,1.88-1.68.91-4.15,1.34-3.88,3.91s.68,5.11,3.62,6.59c4.78,2.42,5,5,1.32,8.8-2.48,2.58-2.6,7.43,0,9.94a15.28,15.28,0,0,1,4,5.58c3.48,5.53,6.26,11.6,12.27,15.08,1.43.83,2.75,1.88,2.83,3.8-1.28,3.69-3.77,3.38-6.58,2-1.1-3.68-4.34-6-6-9.32-1-2-3-3.21-3.1-5.86-.07-2.46-2.36-1.58-3.85-1.81-.34-2.46-.81-4.75-3.76-5.53a3.67,3.67,0,0,1-2.74-2.68,9.83,9.83,0,0,0-5.6-7.56c-2.31-1.16-1.28-3.37-.52-5.27.35-.9.65-2.11-.82-2.33-.94-.13-1.51.73-1.56,1.58-.25,4.75-3.78,5.39-7.33,5.67-3.9.32-6.47-2.09-8.6-5-1.63-2.21-.23-4.05.95-5.87Z"/><path class="cls-64" d="M122.05,172.5c2.37-.26,5.49,1,6-3,3.51-1,6.21.67,8.79,2.68,1.41,1.09,2.31,1.4,1.95-1-.17-2.38-.25-4.69,3.28-4,5.13,5.9,9.15,6.24,14.41,1.21,1.88-1.79,1.88-1.79,8.37-2.71-.73-.77-2.19-.85-2.12-2.21s1.25-2,2.4-2c5.53-.29,10.94.39,15.87,3.09,1.86,1,2.2,2.59-.06,3.67-1.38.66-.06.86.07,1.26-2.32,6.34-8.24,5.22-12.95,5.67-3.61.36-5.82.45-6.18,4.88s-3.54,2.38-5.62,1.46a26,26,0,0,0-19.22-1c-6.16-2.34-7.48,3.37-10,6.42-3.48,4.13-6.28,8.82-9.38,13.27a3,3,0,0,1-2.57,1.27c2.58-4.22,5.49-8.27,7.63-12.7s3.41-9,5.07-13.53C125.83,173.94,123,175.2,122.05,172.5Z"/><path class="cls-29" d="M79.07,128.53c-2.14,3.89.3,6.1,2.94,8.36,3.11,2.66,6.29,1.07,9.41.27,1.33-.34,1.47-1.49,1.11-2.84-.51-1.88.49-3.2,2.13-4,1.45-.7,2.64.11,3.55,1.08,1.41,1.51.09,2.91-.73,4-1.77,2.3-1.31,3.54,1.4,4.23,3,.76,4.46,2.47,4.26,5.73a3.75,3.75,0,0,0,3.56,4.1c4.66.61,4,3.09,2.35,6.07-2.35-2.42-4.26-5.46-8.18-5.67a1.56,1.56,0,0,1-1.18-.81c-2.55-8.53-10.6-6.43-16.46-8.47-2.63-.91-5.68-.9-6.71-4.22S76.19,130.48,79.07,128.53Z"/><path class="cls-65" d="M50.09,195.48a3.08,3.08,0,0,0,3.07-2.69A2.69,2.69,0,0,1,57,190.71c2.32.87,3.33,3.13,4,5.34.53,1.83-1,2.58-2.46,3.17-1.22.51-2.49.9-3.71,1.41-.91.38-1.88,1.05-2.71.08-1-1.17.65-1.57.82-2.29.39-1.66-1.16-.62-1.8-.94C50.48,197,48.87,196.91,50.09,195.48Z"/><path class="cls-66" d="M263.94,215.48a7.29,7.29,0,0,1-3-3c-1.65-1.68-4-2.67-5-5,.09-1.87,1.19-3.55,2.78-3.69,4.67-.39,7.34-5.52,12.6-4.74,2.26.34,2.45-2.35,2.71-4.46.74-5.89,8.57-9.6,13.62-6.62a2.74,2.74,0,0,1,1.23,2.56c-4.41-1.64-8.4-.21-12,2.16-3,2-2.71,6.37.64,8.72a15.29,15.29,0,0,1,5.37,6.07c-.34,1.33-.67,2.67-1,4-1.47-2-2.83-4-4.43-5.9-1.16-1.36-2.61-3.06-4.56-1.32a3.47,3.47,0,0,0-.34,5c4.68,4.29,1.23,9.2.95,13.58-.22,3.26-3.2.92-4.32-.28A72.76,72.76,0,0,1,263.94,215.48Z"/><path class="cls-67" d="M305.89,259.33c1.1.09,2.34-.17,3,1.08l-1,1.93C306.23,262,304.11,262,305.89,259.33Z"/><path class="cls-15" d="M101.06,212.46c-4.42,3.66-9.28,1.16-14,1,3.81-2.39,7.61-4.71,12.07-1.25C99.59,212.56,100.41,212.4,101.06,212.46Z"/><path class="cls-68" d="M142,167.5c-3.24.05-2.26,2.21-2,4-4.61-1.1-6.8-4.59-7.31-8.76-.57-4.62-2.82-8.54-4.67-12.48-3.23-6.86-3.65-6.94,1.56-12.82.74-.83.77-.87-.06-1.51a1.61,1.61,0,0,1-.83-1.65,2.1,2.1,0,0,1,2.18-1.68,22.09,22.09,0,0,1,7.42.51c2.08.64,4.22.85,6.15-.59-4.18,2.29-8.23-.54-12.37-.31-.76.05-1.44-.79-1.4-1.77a2.69,2.69,0,0,1,1.77-2.22c2.24-1.16,4.89-.86,7.14-2-.43-.51,0,.16-.19-.44-2-5.76-5.85-4.13-9.95-2.84-11,3.48-17,13.69-14.66,25.39.32,1.64,1,3.7-1.75,4.18-1.78-2.31-2.78-5.19-6-6.36-1.79-.65,0-3-.51-3.86-2.51-4.42.72-5.89,3.27-8.29,2.19-2.05,2-4.89-1.66-5.37-5.71-.75-4.2-5.69-5.24-8.85-.91-2.8,2.63-2.84,4.31-3.75a28,28,0,0,1,18.64-3c4.85.79,10-.54,15,1.11,1.29.42,3.41-1.69,5.14-2.64,4.16.06,8.32.28,12.24-1.58a4.39,4.39,0,0,1,4.3.39c2.11,1.28,4.43,1.28,6.77,1.19,12.56-.48,25.22.76,37.66-2,.82,4.86,5.05,4.19,8.3,5.12a15.82,15.82,0,0,1-1,7.82c-.38,3.56-2.16,6.61-3.86,9.61-2.07,3.67-4,7.17-3.39,11.66.42,3.32-2.58,5.22-4.19,7.67a48.17,48.17,0,0,1-3.13,4.5c-2.48,2.68-6.22,4.52-6,9-5.32-1.1-10.88,0-16.13-1.65-1.1-.35-3.07.12-2.82-2,.23-1.94,2.16-.89,2.78-1.23-3.33-1.58-7.34-1.5-11.11-2.6-1-.28-1.88-.91-1.72-2.12.2-1.47,1.43-1.64,2.62-1.76s2.61.52,4,.22c-2-3.88-1.44-5,2.55-5.36,1.45-.13,3,.41,4-1.24,3.36-1.8,5.24.45,7.16,2.59,3.91,4.37,4.83,4.47,9.43,1,1.92-1.43,3.85-3.13,4.14-5.44.78-6.36,5.12-10.94,7.72-16.36s2-9-2.72-12.45c-4.48-3.24-14.2-3.3-18.45.11a6.69,6.69,0,0,0-2.22,7.23c.88,3.27,0,5.59-2.87,7.1s-2.95,3.14-1.25,5.94c2.83,4.68,2,8-1.74,10.93-3.8,1.16-5.79-1.43-7.87-3.81-3.63-4.19-7.1-6-11.57-5.7-.14,2.52,4.42,5.19.12,7.6-2,1.14-9.36-.76-11.2-2.75s-.33-3.25,1.48-4.79c-6.66-.26-7.13,7.15-13.42,8.13,3.81,2.2,6.09,3.87,1.68,6.32-1.5.84.18,1.9,1.18,2.4,1.48.75,3.2.9,4.66,1.72s3.13,2,2.91,3.71c-.29,2.36-2.52,1.46-4.23,1.67,2.57.48,5-.47,7.38.09,1.4.33,2.52,1,2.46,2.63a2.32,2.32,0,0,1-2.23,2.28C146.27,167.72,144.15,168.44,142,167.5Z"/><path class="cls-28" d="M267,108.55c.9.34,1.77,1.1,2.78.58,4.16-2.16,8.2-1.69,12.2.39.29.15.73.45.89.34,4.53-2.79,8.14.81,12.13,1.7,4.1,1.29,4.9,3.41,1.58,5.8-3,2.13-2.83,4.42-2.31,7.29.42,2.28.82,4.56,1.27,6.83A16,16,0,0,0,311,144.62c4.14.17,5.55,3.87,8.41,5.65a8.91,8.91,0,0,1,1.19.91c.77,1.14,2.54,2,.95,3.75a4.58,4.58,0,0,1-4.62-1.17c-3.52-3.62-8.17-2.93-12.44-3.74-2.51-.48-3,.68-2.46,2.75.69,2.69.84,5.36-2.81,5.37-3,0-4.31-2.32-4.06-5.16.78-8.7-2.45-16.55-5-24.54-.64-2-.95-4.47-3.5-5-3.11-.65-2.63,2.89-4.27,4-2.53,1-4.28-3.66-7-1,3,3.82,5.71,7.73,4.76,13-2.5.79-2.29-2.59-4-2.68-.59-.12-1,0-1,.37-1.24,6.65-1.3,6.52-7.25,3.14-3.94-2.24-6.72-4.78-5.39-10.15-5,1.59-4.56,4.44-3.44,7.54-1.37,1.68-3.2,2.86-4.64,4.5s-3.31,1.23-4.8-.22-1.7-2.85-.07-4.29c3.89-3.43,2.18-8,2.56-12.21,0-.61.35-.3-.08-.42-6.54-1.74-2.22-5.42-2-8.78s-4.21-3-6.56-4.12a2.92,2.92,0,0,0-4.1,2.49c-.38,3.7-3,5.78-5,8.35-1.26,1.41-2.58,2.65-4.7,1.85-3.25-3.24-1.89-6.3.09-9.6,1.13-1.88,2.79-3.12,4.16-4.71,5.07-2.83,10.9-1.32,16.23-2.81,1.22-.34,3.11-.68,3.85,0C258.24,111.33,262.64,108.84,267,108.55Z"/><path class="cls-69" d="M234,110.55c.06,2.28-1.92,3.34-3,4.88-2.1,2.94-2.75,5.85-1,9.11-.68,4.38-4.67,7.43-4.56,12.27.12,5.42.52,6.23,6,6.57,4.31.27,5,1.05,4,4.81,3.21.47,7.22-1.09,9.14,2.82a13.34,13.34,0,0,1-.61,13.28c-2,2,1.56,2.34,1.18,3.87a3.07,3.07,0,0,1-2.47,1.46,11.16,11.16,0,0,1-2.95.35c-3.3-.28-2.87,4.63-6.1,4.27-2.58-.29-4.51-2.63-7.52-2-3.57.74-7.18,1.11-10.56,2.67-1.88.87-4,1-5.45-.9-1.65-2.15-.05-3.77,1.32-5.18a10.14,10.14,0,0,0,3.24-6.5c2.95-3.17,6.33-2.23,9.53-.68,2.67,1.31,5.17,1.83,8.09.38a10.5,10.5,0,0,0-8.56-1.71c-2,.4-4,.16-5.31-1.76-1.54-2.31.67-3,1.77-4.32,1.42-1.74,1-4.64.2-6-3.34-5.5-1.2-10.9-.57-16.35A68.22,68.22,0,0,1,222,121.2c.26-.91.61-2,2-1.66,2-1.35,4.11-2.83,4.87-5.22C229.7,111.66,231.69,111,234,110.55Z"/><path class="cls-70" d="M224,119.54c-1.92,3.9-2.38,8.22-2.84,12.38-.61,5.44-3.49,11.13,1.06,16.48,1,1.14-1.27,3.9,1.46,5.39.68.38-.6,1.54-1.7,1.69-1.35.18-3.54-.27-3.12,1.94a2.82,2.82,0,0,0,4,1.86c4.06-2.07,7.33.52,10.9,1.35.87.21,1.67.7,1.72,1.57.08,1.06-.88,1.18-1.74,1.28-3.64.44-7.17,2.27-10.76-1.09-2.11-2-5.33-1.16-8,.12-.91,1.73-1.59,3.83-4.3,2.8-.79-3.77,2-6.11,3.6-8.92,1.27-2.23,3.76-4.43.6-6.88-2.17-1.68-7.26-.06-8.49,2.89a7.5,7.5,0,0,1-7.6,5.13,1.61,1.61,0,0,1,.2-2,27.28,27.28,0,0,1,5.29-7.74c1.48-1.41,2.23-3.19,1.63-4.93-1.5-4.41,1.34-7.4,3.09-10.74,1.62-3.07,3.49-6,4-9.56,4.2-1.12,4.24-5.64,6.69-8.19a1.17,1.17,0,0,1,1.3.19C223,115.58,224.22,117.13,224,119.54Z"/><path class="cls-71" d="M221,114.54h-1c-1.67,1-3.34,1.6-5,0a5,5,0,0,0-1.46.06c-5.78,1.83-6.41,1.35-6.53-5.06a17.13,17.13,0,0,0,8.2-1.23,12.42,12.42,0,0,1,6.29-.68c1.15.11,2.44.48,2.91,1.57.61,1.44-.78,1.93-1.74,2.5A3.2,3.2,0,0,0,221,114.54Z"/><path class="cls-72" d="M281.93,127.56c1.33-1.93-.39-5.89,3.68-6s4.47,3.15,5.76,6.18c1.94,4.54,2.71,9.43,4.59,14a17.35,17.35,0,0,1,.38,10.88c-.65,2,.28,3.17,1.67,4.22a2.17,2.17,0,0,0,2.77,0c1.72-1.32.45-2.68-.1-4s-1.26-2.85,0-4.13,3.3.15,4.31-.11c7.06-1.78,11.11,4.47,16.91,5.78,1.38-1.4,3.15-1.3,4.89-1.3a4.07,4.07,0,0,1,3.12,1.34c2,2.87-1.82,3.81-2,6-1.32,2.49-2.6,3.69-5.52,1.41a18.25,18.25,0,0,0-9.06-3.76c-.8-.09-2.1-.69-2.31-.41-2.89,3.85-8.49.22-11.33,4.18a2.52,2.52,0,0,1-2.31.44c-4.3-1.7-6.74-.77-6.7,4.27,0,.4-.54,1.14-.83,1.14-4.33,0-7.1,3.56-10.9,4.73-.13-.21-.27-.41-.41-.61-.77-5.72-.68-5.84,4.73-6.71,4.57-.73,7.61-8.15,5.13-13.06a85.82,85.82,0,0,1-4.19-8.36c-1.09-2.39-1.11-5.11-2.34-7.45C281.38,133.4,277.14,130.45,281.93,127.56Z"/><path class="cls-73" d="M279,172.51c0,2.59-2.17,2.76-3.91,3.48s-3.4,1.66-5.1,2.5c-3.37,1.9-7.23,2.15-10.83,3.3a2.46,2.46,0,0,1-2.47-1.07,3.23,3.23,0,0,1-.32-1.4,7.69,7.69,0,0,1,2.55-4.25c1.66-.86,3.52-1.32,5-2.57a6.48,6.48,0,0,1,5.74-.82c3.08,1,6.2.78,9.33.81Z"/><path class="cls-73" d="M258,189.45a16.75,16.75,0,0,0-5-5,1.5,1.5,0,0,1-.35-1.83,1.64,1.64,0,0,1,1.15-.55l.63.13c1.57,1,3.13.59,4.7-.05,1.58,0,1.08,1.66,1.84,2.32C259.82,186.06,260.3,188.59,258,189.45Z"/><path class="cls-74" d="M261,184.49l-2-2a.63.63,0,0,1-.24-.66c.07-.22.15-.33.22-.33,3.19-2.75,7.33-2,11-3-1.23,2.42-3.73,2.45-5.86,2.92C262.24,181.82,261.08,182.52,261,184.49Z"/><path class="cls-74" d="M253,182.49c0,.66,0,1.32,0,2-.76.28-2.14.49-2.18.86-.77,6.43-5,3.46-8.27,3.18a25.79,25.79,0,0,0-5,.08c-1.41.16-2.46.77-2.08,2.63,1.12,5.49-1.69,9.53-7.46,10.12a19.26,19.26,0,0,0-7,2.11,3.47,3.47,0,0,1,1.56-3c3.3-2.16,3.42-4.43.48-7,1.1,0,2.26.11,3-1,2.68-2.49-2-1.61-1.44-3.14,1.56-3.69,6-5.54,11.08-4.48,3.08.64,6.11,1.69,9.59.24-3.06-2.86-7-2.36-9.84-1.63-4.09,1.05-7.88.74-11.79.29-1.93-.22-3.63-.26-5,1.27a3.65,3.65,0,0,1-3.44-.12c-.7-.47-.93-1.37-1.63-1.82-1.34-.84-3.72-1-3.48-3,.26-2.23,2.85-1.6,4.38-2.36a26.9,26.9,0,0,0-8.14.8,9.29,9.29,0,0,0-5.76,4.29c-2.5,4.22-3.43,4.32-7.42,1.33-1.1-.82-2.14-.58-3.26-.61-1.63,0-3.4.19-4.18-1.82.47-3.3,2.58-4.45,5.66-4.14,7,.7,12.37-1.38,15.54-8.07.82-1.74,1.91-3.55,4.12-4q2-1.49,4-3c2.37,3.49-.78,5-2.49,7-1,1.15-3.24,2-1.67,4,1.22,1.54,3.14,1.21,4.54.19,3.74-2.73,8.36-1.76,12.39-3.19,3.11-1.1,4,3.45,6.35,2.72,1.56-.49.38-4,3.77-4.42,2.29-.26,5.08.76,7.08-1.35a1.14,1.14,0,0,1-.31-.86c0-.31.08-.46.14-.47,1.45-1.67,2.93-1.56,4.43-.07a3.74,3.74,0,0,1,.55,1.32c-1.28,5.44-2.65,6.58-9.51,7.42,3.89.77,6.4,3,9.59,3.79A3.66,3.66,0,0,1,253,182.49Z"/><path class="cls-68" d="M109.06,104.56c.84,4.53-.33,5.71-4.29,4.32-4.65-1.63-7.25-.24-7.57,4.76C97,116.8,96,118.83,93,119.36s-6.68.73-8-3.13c-1.6-4.8-7.28-8.57-3.92-14.68l3,0c-.1,1.78-1.65,3.44-.73,5.27,1.28,2.57,1.77,6.09,5.34,6.56s4.24-3.16,5.94-5.2A7.3,7.3,0,0,0,96,102.6c.82,0,2.08-.29,2.38.11C101.42,106.8,105.4,104.65,109.06,104.56Z"/><path class="cls-75" d="M142,167.5c1.79-1.14,3.81-1,5.8-1.05,1,0,2.07-.31,1.88-1.68-.13-1-1-1.24-1.88-1.22a47.44,47.44,0,0,0-6.43.39c-1.34.23-2.57.79-3.64-.45a1.4,1.4,0,0,1-.1-1.83c1-1.32,2.23-1.16,3.56-.59a3.26,3.26,0,0,0,3.18,0c-1-2-2.32-3.36-4.68-3.57a11.13,11.13,0,0,1-1.91-.54c-1.95-.54-4.2-1.11-4.48-3.38-.42-3.47,4-.87,4.5-3.88-.35-.56-1.4,0-2.21-.13-1-.13-2.1,0-2.36-1.31a2.15,2.15,0,0,1,1.36-2.42,16,16,0,0,0,7.06-6.6c1.86-3.07,5.68-2.27,9-2-.27,2.71-3.17,2.37-4.29,4.37,2.34,3.06,6.16,3,9.5,3.9a2.24,2.24,0,0,0,2.54-1.18c.63-1.12-.23-1.81-.83-2.6-1-1.35-3.59-2.5-2-4.42,1.28-1.52,4.09-1.28,5.62-.3,3.19,2,7.22,2.82,9.15,6.89a6.92,6.92,0,0,0,6.57,3.71.58.58,0,0,1,1,0c-.6,3.11-3.11,1.64-4.84,2-1,.19-2.17.23-2.44,1.33-.22.9.68,1.35,1.52,1.62,1,.33,2.68.38,1.89,2.09-.56,1.21-2,.87-3.14.93-1.78.09-3.58-2-6.07.53,5.8,1.4,11.55.92,16.13,4.65-1,2.37-4.22-2-5.57,1.18,6,2.38,12.76-.57,18.52,2.66a1,1,0,0,1,1.24,0c1.12,1.79-.38,4.66,2.49,5.81a1.39,1.39,0,0,1,.38,2.12c-1,1.38-2.32,2.28-4.1,1.08-.61-1.68-2.15-1.91-3.57-2.31-2.93-.83-1-2.2-.21-3.58-3.4-.27-6.31.82-9.22,1.91-1.45-.16-3,.39-4.51-.72.93-2.4,3.78-.35,5.22-2.48a31.22,31.22,0,0,0-18.4-3.56c1.23,2.86,3.77.78,4.86,2.38a1.33,1.33,0,0,1-1.35,1.28c-5.35.37-9.6,2.82-13.5,6.38-1.91,1.74-10.88-1.07-11.91-3.45C141.22,168.9,141.8,168.12,142,167.5Z"/><path class="cls-76" d="M194,173.49c1.44-.22,2.9-.43,3.72-2.52-7.22.32-2.4-4-2.7-6.46,1.29-2.36-.85-6.66,4-7,2.38-2.26,6.52-2.52,6.73-7.35.1-2.21,8.34-3.52,10.35-1.84,3.24,2.71,2,5.25-.27,8.08-2.13,2.68-4.23,5.53-4.82,9.1-1.36,2.07-2.8,4.09-4.06,6.22-3.34,5.63-9,8.51-15.23,7-3-.72-4.17,1.07-5.69,2.74a1.35,1.35,0,0,1-2,0l-4.93-.27C183,175.64,189.12,175.78,194,173.49Z"/><path class="cls-49" d="M184,181.51h2c1.5,1.62,3.39,1,5.15.77,1.37-.19,2.35-.39,3.26,1.18,1.59,2.73,3,2.59,4.63-.12,4-6.42,10.86-8.57,19.57-5.72-2.65,1.61-5.37,1.64-7.71,2.18-.43,3.42,6.57-.6,4.11,4.59-2.18,1.33-4-.8-6.29-.79-.33,2-.15,4.47-3.21,4.43,1.62.57,3.8.2,4.45,2.48-1.15.59-2.33,1.14-3.45,1.79-.67.39-1.73,1-.69,1.81,4.52,3.63-1.47,4.35-1.93,4.53-2.71,1.05-2.32-1.65-2.92-3.14-1-1.66,1.66-3.33,0-5h-1c-4.11.06-8.22.13-8,6,0,.66,0,1.32,0,2-1.2,3.64-4.05,3.44-7,3,.88-2.46,1.79-4.9,2.62-7.38.75-2.22.56-4.32-1.41-5.85C183.94,186.46,183.84,184.05,184,181.51Z"/><path class="cls-77" d="M193,234.44c-1.4-.4-2.27-2.77-4.19-1.25-1.44,1.14-2.52,1.53-4.15,0s-1.18-2.61-.13-4.08c.69-1-.32-1.79-.63-2.66l3.1-2c-1.31-2.18.53-3,1.78-4a2.68,2.68,0,0,1,2.26.18c.58.26,1.13,1,1.88.31a1.18,1.18,0,0,1-1-1.33c1.47-3.4,4.25.46,6-1.1.59-.38,1.08-1,.67-1.58-2.72-3.55-.23-3.5,2.32-3.46,1.12,0,2.28.1,3.06-1,2.36-1.34,4.55-.36,6.75.5-.17,6-2.72,9.09-8.76,10.5-4.48-.12-9.15-1.75-13.51,2,2.56,1.59,6.16,1.81,7.52,5C196.38,232.81,194.55,233.52,193,234.44Z"/><path class="cls-78" d="M189,220.44l-2,4a3.45,3.45,0,0,1-2-2c.12-3-.43-6,0-9q0-6,0-12c2.18-1.36,5.12-1,7-3,3.12,1.18,2.93,6.64,7.58,5.86.19,1.27-.77,1.67-1.62,2.16-1.8,1.43-4.24-1.07-5.94.95l-2,2.06a2.3,2.3,0,0,1,.62,1.87c-.45,2.82-1.12,5.59-1.5,8.43Z"/><path class="cls-49" d="M185,213.46c1,3,1.55,6,0,9A9.17,9.17,0,0,1,185,213.46Z"/><path class="cls-79" d="M210,190.5l-7.09-2.58c2.3-.88,6.71,0,3.71-5-.9-1.48,1.56-1.53,2.66-1.14,2,.71,3.86,1.72,5.77,2.6l4,.06a6.23,6.23,0,0,1,6.06,4.94l6,1.86c-1.84,1.69-3.57,1-5.07,1.27-2-.35-4.27.78-6.06-1-2.15-2.88-5.3-3.3-8.77-1.16Z"/><path class="cls-80" d="M211,213.45c-2.43.39-4.69-.45-7-1l-4.83-2.62c4.88-2.6,6-2.36,12.86,2.63h0C211.6,212.74,211.6,213.42,211,213.45Z"/><path class="cls-81" d="M190.06,211.45c0-.65,0-1.3,0-1.95,3.51.64,5,3.27,5.82,6.29.36,1.28.35,2.59,2.09,2.7-1.66,2.3-4.15-.49-5.94,1l-.63-.25C187.55,217.2,191.11,213.93,190.06,211.45Z"/><path class="cls-78" d="M192,196.48c-.95-6.87-.33-7.33,8-6-.39.29-.75.74-1.19.84-4.79,1-4.8,1-2.12,5C195.15,197.77,193.47,194.27,192,196.48Z"/><path class="cls-82" d="M211.2,190.37c2.22-2.51,9.14-2.85,10.68-.2,1.11,1.92-1.17,1-1.91,1.36C217,191.51,214.44,188.39,211.2,190.37Z"/><path class="cls-83" d="M192,207.44c1.08-5.9,4-.33,5.94-.95C196.53,210.13,194.2,208.25,192,207.44Z"/><path class="cls-78" d="M201,190.5c2.53,1.66,1.15,3.32,0,5a4.87,4.87,0,0,1-3.51-1.72C197.7,191.68,201.29,193.13,201,190.5Z"/><path class="cls-84" d="M320,151.5c-1.93,0-3.1-1.29-4-2.61-1.82-2.62-3.74-3.67-7.14-2.63-3,.92-13.08-7.2-13.79-10.66-1-4.86-1.8-9.74-2.77-14.6-.39-1.93,0-2.82,2.11-3.61,3.95-1.48,4-3.42.63-5.83h1a29.36,29.36,0,0,1,8-3,1.86,1.86,0,0,1,.37,1.42,13.47,13.47,0,0,1-2.77,5.75c-3.4,3.84-3.46,8.35-3.27,13,.14,3.64,1.92,5.79,5.52,5.37,4.19-.5,7.27,0,9,4.53.73,1.9,3.34,2.59,4.75,4.24C319.39,145.46,320.94,148.12,320,151.5Z"/><path class="cls-85" d="M193,234.44c-.08-2.14,2.57-2.23,3-4,2.21,1.62,5.1,12.55,3.48,14.15-1.83,1.82-4.4.66-6.64.8a11.65,11.65,0,0,1-9.81-3.92c2.57-.36,5.15-.63,7.7-1.09C194.69,239.69,192.3,236.45,193,234.44Z"/><path class="cls-11" d="M211,213.45l1-1c-.69,7.44-5.44,13-9,19.09-.94,1.61-2.4.23-2.92-1.05-1.11-2.75-1-5.3,1.88-7.07C205.81,220.86,210,218.58,211,213.45Z"/><path class="cls-86" d="M189,253.43c.32,0,.65,0,1,0,1.92,0,2.31-4.14,5.19-1.8,5.29,4.29-1.06,4.72-2.19,6.87-2,.23-3.86,1.31-5.94.91-.52-.47-1.27-.39-1.83-.73-1.15-.69-2.49-1.46-2.21-3s1.75-1.74,3.16-1.74C187.13,253.92,188.17,254.2,189,253.43Z"/><path class="cls-87" d="M108,241.39c-4.1-.7-3.53,3.38-5.49,5.23.13-6.82-1.67-13.55.56-20.23,3.8,0,5.1,2.21,5,5.71C108,235.2,108,238.3,108,241.39Z"/><path class="cls-88" d="M344.88,133.68l-3-1.14c-1.67-1.1-6.67-.37-2.57-4.66a10,10,0,0,1,3.08-2.1c3.31-.88,4.74,1,5.49,3.8h.06C348.13,131.86,347.33,133.38,344.88,133.68Z"/><path class="cls-89" d="M320,151.5c-1-2.67-2-5.33-3-8-.32-2.68-2.67-3.79-4.25-5.5,1.29-2.12-.11-2.31-1.7-2.37-1.35-2.41-.42-4.64.52-6.87,3.95-.26,6.75,1.45,8.73,4.84.71,1.21.48,3.82,3,2.91,2-.72,4.22-.82,5.22-3.73,1.57-4.58.47-9.11.83-13.63a6.61,6.61,0,0,1,.27-2.42c1.81-.7,3.4-2.77,5.64-.92-.58,3-.77,6.06-1.66,9.1-1.27,4.34-.2,8.74,2.35,12.62.61,3.89-1.11,7.36-2,11h0c-1.83.81-2.1,2.34-1.9,4.09l-2.07,2-3-.07c-2.65-.25-4.52-2.35-7-3Z"/><path class="cls-90" d="M335.92,137.53c-3.82-1.92-4.26-5.19-4.06-9.05a44.64,44.64,0,0,1,3.07-12.93.77.77,0,0,1-.33-.71c0-.27.1-.41.17-.41a.91.91,0,0,1,1.16.12c1,1.87-1.25,4.83,2,6,0,.35,0,.69,0,1-.28.78-.82,1.43-1.09,2.21-1,3,2.25,3.28,3.32,5-4.57,3.54,2,2.15,1.69,3.83C338.42,132.48,335.42,132.93,335.92,137.53Z"/><path class="cls-91" d="M333.91,148.51c2.51-1.72,2.87-5.45,6.48-6.3,3.22-.76,4.89.21,4.5,3.44-.34,2.78-2.45,4.12-4.7,4.49s-5,2-6.28-1.64Z"/><path class="cls-13" d="M189,253.43a4.54,4.54,0,0,1-.73.66c-1.4.81-3.84-.46-4.42,1.45-.7,2.28,2.3,2.37,3.18,3.84-2.12.47-3.45-.95-4.93-2C182,251.73,186.24,253.91,189,253.43Z"/><path class="cls-92" d="M335.93,114.55h-1c-2.08,0-1-1.41-.87-2.23.22-1.32.5-2.63-.79-3.5s-1.93.55-2.79,1.12a5.56,5.56,0,0,1-3.73.66,6.86,6.86,0,0,1-2.65-1.21c-1.79-1.1-.5-4.72-3.72-4.52a15.78,15.78,0,0,0-8.83,2.78c-2.35,1.38-4.64,2.95-7.59,1.91,0-.34,0-.68,0-1,8.32-9.47,18.71-6.9,29-5C335.71,106.73,338.67,109.86,335.93,114.55Z"/><path class="cls-93" d="M347.85,129.58c-1.47-1.93-2.93-3.88-5.85-3-.63-.86-.12-1.54.35-2.23a2.3,2.3,0,0,1,1.64-.77c2.44-2.11,3.93-2,3.9,1.66C347.88,126.7,347.87,128.14,347.85,129.58Z"/><path class="cls-43" d="M344,123.61l-.94,1.06c-2.55-.07-5-.37-7.08-2.1a2,2,0,0,1,2-1A9.16,9.16,0,0,1,344,123.61Z"/><path class="cls-94" d="M113.05,152.51a2.75,2.75,0,0,0,.83-3.6c-3.47-5.3-.39-9.63,1.49-14.33.85-2.15,3.06-4,2.11-6.84-.36-1.07,1.14-1.44,2-1.86A76.31,76.31,0,0,1,135.2,120c2.28-.54,5.05-1.52,3.72,3-1.08,3.67,1.86,1.81,3.51,1.82-2.42,4.68-7.83,2.82-10.91,5.92,4.53-.19,8.89,3.68,13.4-.05.76-.63,1.91-1,2.58.18s-.15,1.88-1.05,2.43c-2.91,1.77-6.06,1.61-9.16.81a15.26,15.26,0,0,0-7.74-.12c.51,2.32,2.33,1.09,3.48,1.94-3.07,1.56-3.67,5.21-6.37,7.17-.54.39-.52,2.86,0,3.17,3.88,2.39,3.24,7.14,5.66,10.27a6.5,6.5,0,0,1,1.51,4.12c-.6,5.27,3.16,7.83,6.21,10.88-.3,1.24,1.63,2.62.12,3.61s-2.55-.38-3.32-1.4c-2.23-2.93-5.81-2.9-8.78-4.2-7.74-2.76-10.28-10.64-15.55-15.84C112.39,153.58,112.85,152.91,113.05,152.51Z"/><path class="cls-71" d="M178,147.54l-1,0c3.18-3.88,2.22-7.41-.49-11.18-1.51-2.11-1.66-4.68,1.66-5.8s4.92-2.5,3.29-6.54c-1.71-4.25,1.81-8.18,6.27-9.63a21.83,21.83,0,0,1,11.95-.91c8.35,1.83,11.54,8.85,7.77,16.24-2.68,5.26-6.57,9.92-7.61,16.1-.81,4.86-5.57,6.85-9.28,9.06-1.86,1.1-4.26-.76-5.61-2.91C183.36,149.41,181.69,146.84,178,147.54Z"/><path class="cls-6" d="M215,114.56h5c-1.73,3.2-.67,8.84-7,8C214.7,120.14,213.29,117,215,114.56Z"/><path class="cls-10" d="M199,157.51c-1.39.87-2.9,1.58-2.22,3.77.47,1.52.37,3-1.76,3.23l-1,0c-3-5.6,2.68-6.35,5-9Z"/><path class="cls-95" d="M234,122.54c1.83-3.59,3.49-7.29,5.56-10.74,1.15-1.91,3.14-2.2,5.19-.85a10.94,10.94,0,0,0,3,1.53c4.94,1.33,5.65,3.47,2.35,7.44l-2,2.36c6.05.38,6.35.41,5.49,9-.25,2.44.67,6.21-3.42,7.47-1.84.56-.58,1.86.21,2.63,1,1,2.36,1.83,3.28.15a7.53,7.53,0,0,1,5.27-4c3.17,4.69,2.8,10.39,4.46,15.52-.85,1.72-1.13,3.68-2.11,5.35-.94.6-1.52.1-2-.68s-.68-1.87-1.25-2.7c-1.09-1.59-2.53-2.84-4.53-2.45-2.62.52,0,3-1.31,4.13-3.17,2.62-5,1.31-6.16-2.08a66.83,66.83,0,0,0-9.42-17C233.47,133.21,232,128.09,234,122.54Z"/><path class="cls-96" d="M262.92,153.55c-2.58-5-3.12-10.56-3.95-16-.9-1.41-3.89-1.94-2.66-4.13,1.14-2,3-4.31,5.06-5,1.47-.48,3.49,2.65,2.67,4.16-2,3.64.95,4.48,2.76,5.64a19.75,19.75,0,0,1,3.71,2.31c.65.64,1.25,1.81,2.41,1.18s1.16-2,.88-3.09c-.36-1.44-1.21-3.06.82-3.75,2.21-.75,3.28.89,4.16,2.57.38.71.74,1.43,1.11,2.14a2.55,2.55,0,0,1,1.84,1.15,14.23,14.23,0,0,1,1.61,3.47c.65,3.8,2.83,7.83-1.58,10.9a9,9,0,0,1-6.5-3.74c-.67-.67-1.56-2.72-2.09-.19-.63,3,.4,5.88,1.89,8.58,1.65,3-.2,5.05-2.17,7s-3.78,3.51-6.45,1.25a16.61,16.61,0,0,1-2.58-3.74C262,160.8,261,157.3,262.92,153.55Z"/><path class="cls-97" d="M234,122.54c.48,3.18,1,6.36,1.51,9.52.24,1.45.09,3.13,1.27,3.86,5.37,3.34,5,10.46,9.66,14.28.66.54.49,2.17.58,3.31.24,3.38,2,4.14,5,3a3,3,0,0,1,4.44.05c1.3,1.19,1.6,3.21-.4,3.36-3.5.26-4.71,2-5.16,5.07-.11.75-1,1.23-1.85,1.48a3.3,3.3,0,0,0-4,0,3.59,3.59,0,0,1-2-2c.58-1.89,1.31-3.75,1.72-5.68,1.3-6.11-1.32-9.26-7.51-9.33-1.88,0-3.86.4-5.61-.48.15-1.59,1.13-1.36,1.87-1.48,1-.15,2.22,0,2-1.47a1.88,1.88,0,0,0-1.84-1.42,17.57,17.57,0,0,0-3,0c-5.11.48-6.72-1.21-6.68-6.25a18.21,18.21,0,0,1,6-13.8C231.72,124.68,232.59,123.11,234,122.54Z"/><path class="cls-98" d="M280.88,140.57l-1-1c-1.35-4.76-1.1-10.44-7.13-12.54,3.17-3.75,5.88-3.59,9.17.52-2.63,3.05.14,5.4,1,8C283.58,137.77,284.45,140.09,280.88,140.57Z"/><path class="cls-99" d="M281,118.66c-.26,1.62.7,4.3-2.24,4.45-2.14.1-3-1.7-2.86-3.8a2.61,2.61,0,0,0-.37-1.41c-.82-1.38-2.26-2.69-.76-4.38,1.15-1.3,2.61-1.06,4.1-.5,2.18.82,2.2,2.6,2.13,4.47C281,117.82,281,118.15,281,118.66Z"/><path class="cls-84" d="M320,151.49c3-.55,4.49,2.41,7,3l-5,0Z"/><path class="cls-74" d="M224.53,166.53c2.94.9,5.72-1.23,8.58-.38C230.33,168,227.53,169.58,224.53,166.53Z"/><path class="cls-100" d="M243,164.5a1.84,1.84,0,0,1,2,2c0,.33,0,.65,0,1-1.33.06-2.61,0-3.18-1.54C241.36,164.8,242.12,164.61,243,164.5Z"/><path class="cls-101" d="M267,167.47c3.82,2.2,4.7-1.78,6.69-3.27s1.26-3.14-.1-4.73c-2.11-2.48-1.54-5.66-1.95-8.55a2.63,2.63,0,0,1,2.09-3c1.74-.23,2.11,1.2,2.21,2.63-.15,4.61,2.19,8,5.47,10.87,1.17,1,2.77,1.61,3.86-.07,1.3-2-.55-2.43-1.83-3.15s-3-1.56-2.45-3.7c4.32-3.3,1.29-7.27,1-11a5.59,5.59,0,0,1,3,0c1.64,2.79,3.51,5.47,4.87,8.38,1.52,3.26,1.09,6.12-.87,9.64s-3.26,5.62-7.43,5c-1.81-.26-3,.65-2.16,2.66a3.75,3.75,0,0,1-.44,3.27c-2,1.83-4,2-6.61,1.14s-5.56-2.11-8.36-.11C262,170,265.12,169.06,267,167.47Z"/><path class="cls-102" d="M285,143.52a2.67,2.67,0,0,1-3,0c-.36-1-.72-2-1.09-2.94,2.35-1,2.08-3,2.07-5C284.47,138,284.39,140.84,285,143.52Z"/><path class="cls-100" d="M267,167.47c.29,2.66-3.86,3.11-3,6.05-1,2.3-3.09,2-5,2-1.83-4.67-6.15-6.56-10-9v0c-.08-1.59,2.48-2.59.87-4.78-.34-.48,1-3.47,3.54-2.91,1.13.25,2.78,1.55,3-.54.18-1.55-1.66-1.67-3-1.72-.49,0-1,0-1.48,0,1-1.63-3.45-3.56.29-5,4-1.57,6,.93,7.61,3.9.49.92-.05,2.32,1,3.15,1.88,1.74,1.11,4.34,2,6.37,1.18,2.58,1.28-.65,2.05-.41Z"/><path class="cls-103" d="M249,166.5a29.82,29.82,0,0,1,8.22,3.75c2.72,1.76,1.64,3.38,1.77,5.24s-1.44,2.62-2,4c-2,.15-1.78-1.5-1.95-2.66-.31-2.08-1.47-3.58-3.67-5.62,1.5,4.21,5.65,7.07,2.63,11.26h-1c-2.92-3.61-7.61-3.87-11.38-5.89-1.32-.71-3.24-.3-4.32-2.68C242.42,173.27,248.6,174,249,166.5Z"/><path class="cls-100" d="M254,182.48a10.4,10.4,0,0,0-3.32-9c-.82-.82-2-2.27-.41-3.42s2.47.07,3.64,1.26c2.31,2.35,1.87,5.54,3.08,8.18,0,.33,0,.66,0,1,.7,3.24-1.06,2.77-3,2Z"/><path class="cls-103" d="M254,182.49c1.47,0,2.9,0,3-2l2,1c0,.33,0,.66,0,1C257.32,185.14,255.65,185.2,254,182.49Z"/><path class="cls-104" d="M225.05,189.38c-1-2.92-4.83-2.33-6.06-4.94-.21-3.77,4-2.5,4.22-2.3,2.34,2.05,5.31-.48,7.58,1.26a2.09,2.09,0,0,0,1.92-.11c4.45-3.25,8.76-1.07,13.14.14,1.29.36,2.32.75,1.84,2.27-.42,1.31-1.48,1.22-2.75,1.38A26,26,0,0,1,234.78,186C230.86,184.89,227.83,186.92,225.05,189.38Z"/><path class="cls-81" d="M192,219.46c.66,1.18,2,.91,3.11,1.15-2.26,2.6-4.17,1.26-6.08-.17h0c.32-2.39,1.66-1.67,3-1Z"/><path class="cls-11" d="M192,219.46c-1.09,0-2.27-.19-3,1-1.93-3.26-.05-6.08,1-9,1.48,1.63,1.46,1.62.31,3.76S192.42,217.67,192,219.46Z"/><path class="cls-105" d="M304,109.56c2.27-1.15,5.05-1.1,7-3,6.57-2.42,11.22.15,14.74,5.66,1.53,4.61.73,6-3.64,6a20,20,0,0,0-5.39.69c-5.11,1.35-6.66-.08-6.06-5.54-2,2.09-3.6,4.38-5.51,6.39-1.76,1.86-1.53,3.2,1.32,3.54,3.1.36,6.11.92,5.52,5.22.71,2.33-1.34,4.66,0,7a2.06,2.06,0,0,1,1,2c2.81,1,5.64,2,4,6-2.95-1.86-6.1-3.51-7-7.33-.3-1.27-1.1-1.3-2.27-1.07-3.63.7-8,1.66-9.73-2.45a17.34,17.34,0,0,1,.3-14.45C299.72,115.13,302,112.43,304,109.56Z"/><path class="cls-106" d="M336,122.57c2.59-.07,5.07.24,7.08,2.1L342,126.61l-1.84,2.1C336.06,128.51,333.64,127.16,336,122.57Z"/><path class="cls-107" d="M311.94,128.54c-1-3.63-3.62-4.26-6.95-4.06s-3.89-1.78-2.19-4.08c2.26-3.06,4.93-5.82,7.48-8.64.78-.86,1.92-1.78,3-.64.93,1-.27,1.77-.89,2.46-1.07,1.19-2,2.45-.73,3.93s3,1.13,4.58.36,3.22-1.64,5.21-1c4.45,1.33,5.23-.49,3.48-4.28a1.78,1.78,0,0,1,1.91-.4,8.23,8.23,0,0,1,3.1,4.4c1.79,6.57.56,13-.62,19.52a1,1,0,0,1-1.49.82c-2.62-.95-4.28,1.22-6.9,2.27C320.45,133.39,316.45,130.72,311.94,128.54Z"/><path class="cls-105" d="M329.93,116.55c-1.6-.88-2.92-2-3-4a6,6,0,0,1,0-3c1-.09,2.64.1,2.79-.3.87-2.27,1.83-3.83,4.38-2s2.15,4.09.51,6.38c-.1.12.21.54.33.82s0,.66,0,1C333.13,115.2,332,118,329.93,116.55Z"/><path class="cls-107" d="M312.94,137.53a2.1,2.1,0,0,1-1-2c.55-1,1.16-2.08,2.54-1.55a2,2,0,0,1,1.09,1.4C315.58,137.06,314.29,137.39,312.94,137.53Z"/><path class="cls-108" d="M326.91,109.6a2.51,2.51,0,0,1,0,3h-2c-3.47-4.75-8.34-6.24-14-6,2.47-2.21,5.59-2.77,8.67-2.94,2-.12,5.54-1.5,4.23,3.35C323.5,108.32,325.21,109.49,326.91,109.6Z"/><path class="cls-109" d="M265,164.5c0,1,0,2,0,2.94,0,.65-.12,1.36-.91,1.52a1.54,1.54,0,0,1-1.8-1.28,27.25,27.25,0,0,1-1.36-9.14c.59-1.7-1.14-4.35,2-5C262.53,157.4,263.68,161,265,164.5Z"/><path class="cls-110" d="M281,154.5a4.85,4.85,0,0,0,3.67,3c2,.27,3.81.74,2.57,3.38-.83,1.78-1.58,3.61-4.36,2.77-3.63-1.09-9.17-8.63-8.54-12.22.06-.37,1.05-.58,1.61-.86C276.85,152.82,279.68,152.68,281,154.5Z"/><path class="cls-111" d="M305.56,133.42c-2.41,1.63-4.36,1.29-5.94-.85-.4-.53-.6-1.44.16-1.66C302.38,130.18,303.37,133,305.56,133.42Z"/></svg>