<svg id="Layer_1" data-name="Layer 1" xmlns="http://www.w3.org/2000/svg" viewBox="0 0 400 275"><defs><style>.cls-1{fill:#e4c68c;}.cls-2{fill:#dbbc81;}.cls-3{fill:#d8b579;}.cls-4{fill:#ecd29f;}.cls-5{fill:#e5cc99;}.cls-6{fill:#f5dfac;}.cls-7{fill:#d9b77b;}.cls-8{fill:#ebce99;}.cls-9{fill:#e0d1ac;}.cls-10{fill:#c9ac7b;}.cls-11{fill:#dcb97e;}.cls-12{fill:#e7cb97;}.cls-13{fill:#b89d69;}.cls-14{fill:#d1b178;}.cls-15{fill:#e3c389;}.cls-16{fill:#a57a43;}.cls-17{fill:#e7d6b3;}.cls-18{fill:#b49865;}.cls-19{fill:#debf8a;}.cls-20{fill:#e0c595;}.cls-21{fill:#c1a371;}.cls-22{fill:#c4a573;}.cls-23{fill:#e2c490;}.cls-24{fill:#a48758;}.cls-25{fill:#c1a477;}.cls-26{fill:#b29564;}.cls-27{fill:#d8c29a;}.cls-28{fill:#a58759;}.cls-29{fill:#beab86;}.cls-30{fill:#cfab75;}.cls-31{fill:#dbc092;}.cls-32{fill:#d4b988;}.cls-33{fill:#dbc398;}.cls-34{fill:#e5cc9f;}.cls-35{fill:#8f6a3d;}.cls-36{fill:#c5ab7f;}.cls-37{fill:#ceaa73;}.cls-38{fill:#e5d0a7;}.cls-39{fill:#b1956a;}.cls-40{fill:#d2b887;}.cls-41{fill:#d6bb8c;}.cls-42{fill:#c4a77b;}.cls-43{fill:#d3bd92;}.cls-44{fill:#cdb485;}.cls-45{fill:#eed7ad;}.cls-46{fill:#d0b17b;}.cls-47{fill:#d0b586;}.cls-48{fill:#b39567;}.cls-49{fill:#dabf93;}.cls-50{fill:#d0ae78;}.cls-51{fill:#bb9662;}.cls-52{fill:#cdbc9e;}.cls-53{fill:#b8a27a;}.cls-54{fill:#d0b585;}.cls-55{fill:#ab8c5f;}.cls-56{fill:#f1dfbd;}.cls-57{fill:#dec8a0;}.cls-58{fill:#443a2b;}.cls-59{fill:#baa986;}.cls-60{fill:#a49475;}.cls-61{fill:#e3d2ad;}.cls-62{fill:#94805a;}.cls-63{fill:#6e5535;}.cls-64{fill:#dfbc7d;}.cls-65{fill:#d9b472;}.cls-66{fill:#cea765;}.cls-67{fill:#d7b16e;}.cls-68{fill:#d9b272;}.cls-69{fill:#c39b5e;}.cls-70{fill:#dabe88;}.cls-71{fill:#efd49f;}.cls-72{fill:#dbbc84;}.cls-73{fill:#cea564;}.cls-74{fill:#e2c589;}.cls-75{fill:#d9b375;}.cls-76{fill:#c9a265;}.cls-77{fill:#d3b178;}.cls-78{fill:#cea666;}.cls-79{fill:#d5b071;}.cls-80{fill:#decb9f;}.cls-81{fill:#dec696;}.cls-82{fill:#d8c194;}.cls-83{fill:#c4b189;}.cls-84{fill:#e3d1aa;}.cls-85{fill:#c7a974;}.cls-86{fill:#caa96d;}.cls-87{fill:#b99a67;}.cls-88{fill:#d1b680;}.cls-89{fill:#b39255;}.cls-90{fill:#b79558;}.cls-91{fill:#b49254;}.cls-92{fill:#c09e6c;}.cls-93{fill:#d5b88b;}.cls-94{fill:#4a2d0f;}.cls-95{fill:#b68d52;}.cls-96{fill:#c7ad7f;}.cls-97{fill:#a28d69;}.cls-98{fill:#b89f71;}.cls-99{fill:#ddbc7f;}.cls-100{fill:#dfbd80;}.cls-101{fill:#ebcd92;}.cls-102{fill:#d4b171;}.cls-103{fill:#e2c68d;}.cls-104{fill:#bc9a5f;}.cls-105{fill:#cfb47e;}.cls-106{fill:#c6a975;}.cls-107{fill:#b58749;}.cls-108{fill:#cfa96d;}.cls-109{fill:#e4c68f;}.cls-110{fill:#af8448;}.cls-111{fill:#c79a59;}.cls-112{fill:#a67940;}.cls-113{fill:#7c571f;}.cls-114{fill:#b2955f;}.cls-115{fill:#b59763;}</style></defs><path class="cls-1" d="M115.06,107.59c10.09.16,19.77-2.48,29.44-4.73,16.28-3.79,32.61-4,49-1.8,6.83.9,13.62.4,20.43.65.13.77-.24,1.48-.9,1.51-5.72.24-11.2,3.07-17.08,1.5-4.38-1.18-8.9-1-13.36-1-5.77,0-11.45,1.64-16.68.63-.85.76-.93,1.12-.64,1.34,6.55,4.8,6.73,5.17.17,9.52-3.06,2-2.86,4.4-2.64,7.19-1,2.35-2.84,2.42-4.43,1.1-3.15-2.62-7.29-2.18-10.51-3.58-7.47-3.25-13.59-1.76-20.3,1.67-4.37,2.24-6,5.32-2.74,9.08,2.15,2.47,2.12,4.8,1.86,7.78-.37,4.17-1.25,8.42-.08,12.63a9.94,9.94,0,0,1-.14,5.05,1.84,1.84,0,0,1-1,1c-1.41.29-2.5,0-3-1.54-4.24-5.63-6.6-13.13-14.88-14.73a13.6,13.6,0,0,1-5-2.28c-1.46-1-2.93-2.54-2-4.12,3.52-5.72,0-11-1-16.21A93.28,93.28,0,0,0,96,104.86c-1.43-4.06-2.31-8.23-6.33-10.91-2.08-1.39-2-4.12-1.52-6.47,1.89-9.2,1.48-19,6.91-27.32,1.18-1.8.59-4.25,1.3-6.31,1.28-3.77,4.22-5.79,7.72-7.2,6.35-4,13.15-3.87,20.11-2.13-2.91,2.11-6.91,1.55-9.7,3.95-8.48,1.12-12.75,6.08-16.15,14s-3.24,16-4.51,24a2.25,2.25,0,0,0,.62,2.27c4.34,3.43,5.2,9.23,8.93,13.07a7.92,7.92,0,0,1,2,5.51c.06,2,0,4,.13,6,.16,1.67.35,3.42,2.15,4.19s3.1-.53,4.25-1.76a24.93,24.93,0,0,1,2.73-2.89C116.66,111.18,117.16,109.54,115.06,107.59Z"/><path class="cls-2" d="M162,122.59c-4.44-8.2,4.69-7.79,7.28-11.77-1-2.21-3.17-3.39-5.58-4.16-1-.3-2.18-.49-2-1.73s1.38-1.3,2.39-1.34c10.11-.37,20.33-2.49,30.31-.46,6.89,1.41,13-1,19.51-1.42,4.4-.67,8.86-1.06,13.18-2.06,8-1.87,15.67,1.14,23.53,1.42,5.08.18,10.19.42,15.3.56-.68,3.35-4.4,1.76-6,3.68a9.62,9.62,0,0,1-3.05.56,35.15,35.15,0,0,1-6.85-1,24.57,24.57,0,0,1-4.28-1.3c-3.13-1.14-6,.43-8.91,1-1.58.52-3.19,1-4.75,1.54-1.09.39-2.42.7-2.08,2.3,1.13,5.29-2.23,4.11-5,3.37a25.65,25.65,0,0,0-11.87-.43c-5.58,1.14-8.1,6.64-5.59,11.79s2.54,5.26-3,7.73a4.36,4.36,0,0,0-3,3.65c-.12,1.76,1.79,1.65,3,2,4.62,1.6.66,5.79,2.49,8.5.67,1-2.38,1.61-4,1.82-1,.12-2,.21-3,.33-5,.66-6.38-3.33-8.15-6.56-1.14-2.09-.18-2.63,4.65-2.52-1.23-1.85-3.12-1.8-4.82-1.61-4.68.52-6.51-2.14-7.42-6.12-.83-3.58-8.33-8.95-11.92-8.66a2.77,2.77,0,0,0-2.33,1.6c-.8,1.42-1.84,2.34-3.61,1.92A24.25,24.25,0,0,0,162,122.59Z"/><path class="cls-3" d="M39.12,233.57c.2-2.41,1.56-4.34,2.81-6.25,2.62-4,4.9-8.07,5.82-12.89C49,208.12,53,204,58.72,201.32c1.78-.85,3.48-1.88,5.21-2.82,3.38-3.88,12.58-5.5,16.4-2.88.55.38,1.33,1.27,1,1.52-3.17,2.7-.09,8.35-4.88,10.21-1.84.71-2.82,1.75-1.46,3.73.39.55.78,1.39.38,1.85-2.6,3-2.2,5.78,0,8.81.77,1-.49,2.1-1.3,2.93-3.71,1.82-6.3,4.92-9,7.87-6.72,1.28-9.77,5.85-10.88,12.15-1,3.29-2.22,6.57-.23,9.92-.18,2.73-2.35,3.46-4.36,4.35-1.69-.08-3.69-.2-4.59-1.55-1.79-2.68-4.17-2.72-6.95-2.74-4.36,0-5.16-1.21-4.71-5.54A12.07,12.07,0,0,1,36,242.26C38.23,239.72,37.81,236.36,39.12,233.57Z"/><path class="cls-4" d="M123,155.58c.71,1.15,1.87,1,3,1a3.86,3.86,0,0,1,1.43,3.94c-1.11,2-2.89,1.67-5.74.55,3.58,4.7,3.44,10.42,9.55,12,2.51.66,1,2.49-.57,3.55-3.54,2.41-7.1,4.82-9.65,9.54,4.31-1.18,7.54-.62,10.08,2.21,3.16,1.58,7.41,2,7.58,6.84-.46,1.19-.82,2.48-2.53,2.26.18-2.63-.22-5.54-3.17-5.74-3.74-.26-7.56-4.34-11.35-.19-.88,1-1.72,2-2.57,2.94-5.49,1.33-6.54,7.52-11,10-3.5,2-6.68,4.6-10.93,5.2-2.32.33-4,2.19-5.67,3.81-1.26,1.21-2.2,3-4.37,2.88,1-5.74,5.4-8.8,10-11.11,3.07-1.54,5.31-2.77,4-6.52-1.08-3.18-.61-7.88-6.34-6.78-1.75.33-2.77-.93-3.65-2.13-1.45-2-3.64-2.14-5.63-3-6.09-2.73-10.33,1.67-15.39,2.68-2-2.5-1.25-4.07,1.67-4.9,1.39-.39,2.78-.75,4.17-1.13,1.24-.86.47-2.09.65-3.16A4.67,4.67,0,0,1,83.4,177c1.18.58,2.18,1.84,3.43,1.93,3,.2,5.1,5.89,7.9,2.43,1.87-2.31,5.71-3.07,5.85-6.81a1.78,1.78,0,0,1,1.62-1.68c4.31-.22,5.23-4.1,7.85-7.19-2,1.34-3.62,2-5,.31-1.24-1.56-.82-3.14.29-4.55,2.26-2.91,5.59-3.47,8.91-3.55,1.94-.05,3.19-.44,3.65-2.42C119.67,153.41,121.36,154.13,123,155.58Z"/><path class="cls-5" d="M229.88,223.59a62.57,62.57,0,0,1-3.95-14c-1.27-4-2-8-4.25-11.89-5.63-9.86-15-13.4-24.71-16.75-3.72-1.29-7,.7-8.28,4.52-1,2.89-3.08,3.35-5.5,2.92a18.28,18.28,0,0,0-8.26.3c-1.39-1.75-1.77-4-2.93-5.87a19.21,19.21,0,0,0-1.45-3.16c-5-8.52-2.94-15.44,5.95-19.54a8.35,8.35,0,0,1,3.87-.76c1.33,0,3,0,3.52,1.33s-.81,2.36-1.9,3.09c-3.06,2.07-4.5,5.26-5.73,8.51-.54,1.4-.5,3.21,1.2,3.87,1.46.56,1.82-1.08,2.37-2,1.63-2.82,4.12-4.75,6.71-6.57s5-3.39,6.55,1c.54,1.5,2,1.75,3.35,1.58,4.48-.56,9.52,1.37,12.95-3.84,1.26-1.91,4.31-1.41,6.13.66.87,1,1.43,2.25,2.79,2.73a28.5,28.5,0,0,0,13.21-.32c1.24-.34,2.78-1,3.57.44.93,1.75-.59,3-1.85,3.5-4.94,2.13-6.8,7.53-11.23,10.21-2.6,1.57.59,3.44.18,5.21a16.31,16.31,0,0,0,2.83,5.12c3.39,3.69,4,8.06,3.46,12.77a9.76,9.76,0,0,0,.45,4.82c.94,3.94,3.09,7.64,2.3,11.91A.9.9,0,0,1,229.88,223.59Z"/><path class="cls-6" d="M118.06,155.57c1.44,2.89,1.29,4.43-2.65,3.69a9.66,9.66,0,0,0-9.52,3.09,2.19,2.19,0,0,0,.2,3.49c1.27,1,2.11,0,2.81-1s1.23-2.58,2.49-1.63c1.46,1.12.06,2.44-.79,3.36-2.42,2.59-2.49,7.86-7.93,7.08a1.82,1.82,0,0,0-.49.09c1.81,5.25-5.25,4.07-5.7,7.89-.27,2.25-2.26,3.93-4.23,2.22-2.46-2.12-5.32-3.26-8-4.85-4.28-2.54-5.59-2.08-6.67,2.84A2.07,2.07,0,0,1,76,183.49c-3.51-6.72,1-10.69,4.78-15.31A34.69,34.69,0,0,0,88,150.12a21.08,21.08,0,0,1,6-12.59c3.07,1.71,1.76,3.78.41,5.76-1.23,1.8-2.48,3.53-1.29,5.84,1.74,0,2.61-1.44,3.89-2.1,3-1.57,5.81-1.6,7.71,1.63,2.92,4.93,7.24,6.87,12.8,6.44Z"/><path class="cls-7" d="M260,104.59c1-3,4.46-1,6-3a1.55,1.55,0,0,1,.88-.11,53.62,53.62,0,0,1,20.71,1c6.84,1.56,14.07,1.08,20.57,3.58,6.9,2.65,12.67,3,18.38-2.64,2.13-2.12,5.95-1.54,9.11-1.3,1.69,3.83,1.15,5.06-2.52,5.56-1.75.24-3.61-.18-5.13,1.09a17.28,17.28,0,0,0-2.28,1.6c-1.61,1.65-2.7,3.82-4.89,4.89a6.81,6.81,0,0,1-1.4.41c-4.8-.43-9.5-1.7-14.35-1.77l-.65-.34a5.79,5.79,0,0,1-1.12-.91c-1-.83-1.42-3.1-3.32-2.1-1.38.72-1.59,2.34-1.24,3.94.55,2.47-.2,4.78-.62,7.22-.67,3.82,1.66,7.33,2.92,10.88.85,2.42,1.68,4.64.14,7-1.3.44-1.81-.5-2.18-1.39-.92-2.23-1.92-2.45-4.07-1.07-2.81,1.79-6.12-.36-8.58-4.92-1.43-2.66-1-4.38,1.48-4.94-2.39-4.77-6.08,0-9.37-.85-2.32-3.16-1.61-5.58,2-7a37.06,37.06,0,0,0,4.27-2.42c1-.55,2.25-.49,3.47-1.92-2.87-.64-5.11,0-7.43.71-5.09,1.49-7-.06-6.44-5.18.23-2-.44-3.19-2.32-3.77-3-.93-6-2.22-9.23-1.3A3.19,3.19,0,0,1,260,104.59Z"/><path class="cls-8" d="M123,155.58c-1.66.31-3.31-1.11-5,0h0a37.69,37.69,0,0,0-14.54-12.38c-3.18-1.58-7-2.42-7-7.12,1.74-2.69,4.7-4.75,4.49-8.47h0c-3.17-3.88-3.92-8.9-6.12-13.27-2.53-5.06-5.23-10.2-6.82-15.73a53.91,53.91,0,0,1-2.93-31.72c1.45-7.19,12.54-19.11,18.88-20.24-4,3.12-7.5,6.28-7.17,12.2.21,3.64-3,6.4-4.26,9.88-2.34,6.68-1.09,13.8-3.48,20.37-.49,1.34-.31,3.29,1.14,4.08,7.31,4,6.22,12,8.87,18.23,2.28,5.35,2,11.31,4.47,16.56a3.6,3.6,0,0,1-.61,4.16c-2.89,3.34-1.41,5.25,2.13,6.5a14.9,14.9,0,0,0,2.31.9,14.74,14.74,0,0,1,12.18,10.14,3.07,3.07,0,0,0,2.44,2.28C126.7,152.14,123.51,154.18,123,155.58Z"/><path class="cls-9" d="M362,174.42c-.67,0-1.45.28-2,0-9.33-4.72-19.23-1.6-28.75-1.45-4.81.08-9.3.09-13.93-1.08-3.79-1-6.49,2.31-8.55,4.16-4.52,4.07-9.48,8.16-11.15,14.69-.85,3.3-.72,6.13,1.24,8.87-1.63,1.09-2.62-.2-3.76-1-3.29-1-6.86,0-9.32,1.26-3.56,1.75-6.32,1-9.48.12-4.57-2.1-3.29-6.68-4.38-10.25a9.55,9.55,0,0,1-.05-3,3.58,3.58,0,0,1,2.58-3.32c2-.55,3.17.65,4,2.14,1.23,2.16,2.07,4.77,5.37,4.12,3.13-.62,4.83-2.47,6.4-5.45,2.52-4.78,6.28-8.86,12.06-10a8.69,8.69,0,0,0,3.71-1.33c5.09-4,11.22-5.41,17.22-7.3,4.67-1.48,8.83-1.3,12.55,2,3,2.68,6.43,3.13,10.18,2.2a12.69,12.69,0,0,0,3-1.77c3.55-1.78,6,1.28,9,2C359.57,171.25,361.66,172,362,174.42Z"/><path class="cls-10" d="M168.17,213.59c-2.7,3.25-3,7.14-2.48,11a28.08,28.08,0,0,1,.13,6.85c-.37,1-1.62-2-1.62.33,0,2.11.31,4.24-1,6.13-1.45,1.21-3,1.83-4.89,1.1-1.87-1.43-1.42-3.85-2.41-5.68a11.43,11.43,0,0,0-6.23-5.11,3,3,0,0,1-1.35-1.77c.58-4.9-.1-9.93,1.56-14.73.85-2.46-.67-4.05-2.26-5.6s-3.56-2.65-2.92-5.3a1.43,1.43,0,0,1,1.73-.56c4.21,1.94,7.46.8,10.34-2.71,3-3.69,4.29-7.57,3.07-12.32-.67-2.58-2.7-5.81,1.81-7.23a6.86,6.86,0,0,1,3.12,2,16,16,0,0,0,5.65,3.78c2,.87,3.85,2.1,2.83,4.85-.14.08-.31.27-.42.24-4.64-1.31-6.84-.46-5.09,5,.62,2-1,3.73-2.74,4.91a11.52,11.52,0,0,0-3.44,3.51c-3.41,5.6-2.37,8.26,4,10C166.53,212.6,167.54,212.68,168.17,213.59Z"/><path class="cls-11" d="M115.06,107.59c3.64,1.2,4.07,2.92,1.06,5.5a36.54,36.54,0,0,0-4,4.38,4.75,4.75,0,0,1-4.78,2c-2.15-.44-2.53-2.42-3.12-4.12a3.52,3.52,0,0,1-.1-1.48c1.37-10.28-5.11-17-10.83-24.12-.82-1-1.62-2.1-1-3,2.33-3.26.77-6.67.81-10,.11-8.71,4.6-16.13,8.43-23.36,1.9-3.59,7.16-6.34,12.52-5.66,1.19,4.71-.07,6.84-5,9.36-.85.44-4.13-.4-2.2,2.62-4.82,6.91-8.37,14.25-7.74,23-3.08-.4-1.76-3-2.13-4.58-.49-2.11.4-4.22.41-6.36C95.7,76.2,97.06,81,96,85.71c-.6,2.73,1.65,3.16,5.07.87,1.62,3.78,3.49,7.47,4.82,11.36C107.51,102.65,110.23,106.06,115.06,107.59Z"/><path class="cls-12" d="M70.1,189.52c2.21-1.43,4.46-2.81,6.63-4.3a5.57,5.57,0,0,1,6.08-.2c.58.29,1.36,1.18,1.61,1,4.94-2.84,6.29,1.58,8.5,4.17.58.68,1.19,1.4,2,.72,3.63-3.05,4.16.46,5.69,2.42,1.9,2.41,1.66,5.33,2.26,8,.44,2-.56,3.77-3.11,4.25-6.24,1.18-9.08,6.47-12.68,10.81-2.48,3.3-8,1-9.9,5.29-2.79-1.13-3.76-3.22-1.49-5.3,2.9-2.64,4.57-7.18,9.75-6.81,1.94.14,2.06-1.5,1.28-2.82-2.32-3.9-1.14-8-.61-12,.26-2,.2-2.93-1.83-2.93-4.15,0-8.34-2.56-12.48.18-.53.35-1.28,0-1.79-.53Z"/><path class="cls-13" d="M302,203.52c1.26.14,1.57,1.16,2,2.1.69.9.62,2,.91,3,.23,4.16-2.77,4.9-5.83,5.11-4.21.29-5.94,2.26-5.29,6.42.29,1.86.12,3.63-1.63,4.85-2.48,1.3-4.28-.13-6.1-1.5l-4-2.08a16.41,16.41,0,0,1-12-5.82c-2.72-3.09-7.11-4-9.83-7.23a3.93,3.93,0,0,1,.45-3.05c3.79-3,8-4.67,12.84-3.51,1.8.43,3.17-.53,4.73-.91,2.33-.55,4.11.65,5.74,2.13.71,2.11-.95,2.18-2.19,2.29a6.82,6.82,0,0,0-5,2.87c-1,1.32-1.42,2.73,0,4s3.71,2.37,4.79.44c3.6-6.52,10-6.33,15.93-7.23A8.09,8.09,0,0,0,302,203.52Z"/><path class="cls-14" d="M231,223.53q-1.52-6-3-12c-.94-2-.63-4.26,1.22-5.06,3.27-1.41,4,2.3,6,3.72,2,2.1,5.25.52,7.28,2.5,1.17,1.21.53,2.62.42,4a12.24,12.24,0,0,0,1.16,2.06c.56,1,.88,2.05,0,3.07-4.1.79-3.68-4.18-6.36-4.91,0,2.09-.71,4.68,2.53,5.43a2,2,0,0,1-.81,2.87c-2.18,1.33-2.26,3.28-1.83,5.44A13.23,13.23,0,0,1,237,233c-1.13,3.84.3,5.56,4.26,5.25,1,.74,2,1.41,2,2.85-.79,1.71-2.86,1.34-4.63,2.93,4.52.2,8.48,0,12.43.14,2.07.06,4.31-.44,6,1.35l2.18,7.82-.57.4c-3-1.17-5.67-1.5-8.84.41-3.37,2-6.5-.78-9.61-2.37.06,1.6.33,3.11-.67,4.4l-.56.43c-4.55-4.11-4.39-9.8-5-15.18-.34-2.95.22-6-1.06-8.84C232.2,229.61,230.34,226.83,231,223.53Z"/><path class="cls-15" d="M70,191.52c5.19-4.08,10.82-.81,16.23-.84,2.27,0,3.52,1.4,1.55,3.56-1.27,1.39-.54,2.82-.72,4.17-.51,3.76.35,6.75,1.72,10.15.89,2.21-1.32,3.1-3.87,2.48-5.25-1.26-5.25,5.09-9,6.58-2,.82.9,2.61,1.22,4.08-.9,1.11-1.24,2.79-3,3,.23-.62.83-1.48.61-1.83-2.06-3.35-5.47-6.59-.2-10.08-5.14-5.18-.07-5.91,3.21-7.51.48-.24,1.08-1.36.93-1.58-2-2.79-2.86-5,1.81-5.83.46-.08,0-1.65-1-1.65-5.29,0-10.83-1.53-15.56,2.31C61.44,192.22,66.35,192.42,70,191.52Z"/><path class="cls-16" d="M375.69,145.67l6,5.94a11.93,11.93,0,0,0-.79,4.78c.52,5.23-.46,6.35-6.84,7.74,3.55.37,6.13.86,8.82.87,2,0,3.27.82,1.88,3.09-4.93,3.25-9.66,1.25-14.4-.52a22.64,22.64,0,0,1-2.82-1.22c-4.38-1.66-5.13-4.63-3.12-8.63,1.43-2.86,1.09-6.16,2.13-9.1s-2.92-3.35-2.93-5.74c2.31-1.87,3-3.57-.51-4.83-1.13-1.36-.08-2.32.66-3.28s1.65-1.58.67-2.82-1.74-2.75.11-3.81a3.35,3.35,0,0,1,4.43,1,6,6,0,0,1,1.17,4.69A11.9,11.9,0,0,0,375.69,145.67Z"/><path class="cls-17" d="M175,188.55c2.46-.91,4.83-1.8,7.63-1.32,5,.87,5.92-.38,3.94-5.25a46.21,46.21,0,0,0,6.29-2.39c4.13-1.58,8.27.83,11.94,2.67,2.3,1.16,4.55,2.57,6.86,3.83,9.21,5.06,14,13,14.23,23.55a3.84,3.84,0,0,1-1.86-2.76c-1.88-10.12-7.7-15.39-17.93-16.36-4.23-.41-8.35-1.16-12.71-.11a20,20,0,0,1-11.23-.93c-4.52-1.6-6.44.13-7.08,4.37-.15,1-.07,2-1.18,2.55C172.05,193.47,172.9,190.92,175,188.55Z"/><path class="cls-18" d="M257,245.56c-6.12,0-12.24,0-18.36-.06-1.06,0-2.63.59-3-.84-.51-1.76,1.36-1.91,2.37-2.6,1.54-1.05,3.72.13,5.09-1.49,1.88-1.93,4.35-1,6.57-1.36,1-.14,2.06-.16,2.45-1.3s-.21-2.24-1.05-3.09a5,5,0,0,0-7.76.49c-.82,1-1.09,2.43-2.33,3.14-1.74,1-4.45,2.18-5.21.35a7.46,7.46,0,0,1,1.25-8.28c1.34-4.23,5-4.79,8.58-5.28,2.1-.29,4.22-.82,6.35-.16a9.08,9.08,0,0,1,6,5.44C259,235.62,260.83,240.76,257,245.56Z"/><path class="cls-19" d="M267,271.54c-2.86,3.45-6.86,2.17-10.13,1.73-14.36-1.93-12.2,2.19-15.92-11.59a49,49,0,0,0-2-5l.18-.37c4.06.72,7.94,2.41,12.15,2.34,2.64,1.65,5.19,3.61,8.64,2.47,2.13,1.91,5.51,1.43,7.4,3.81C267.62,267.14,269.56,269.46,267,271.54Z"/><path class="cls-20" d="M335.94,102.6c-6.41.18-11.56,3.22-16.3,7.17-1.71,1.42-3.23,2.21-5.05,0s-4.74-2.28-7.34-2.57c-13.53-1.47-26.59-6.23-40.4-5.73,8.33-1.57,16.7-.5,25.07-.52,10.42,0,20.51,3.21,30.93,2.56,7.07-3.5,14.4-5.14,22.23-3a12.42,12.42,0,0,0,5.84,2.1.91.91,0,0,1-.19,1.38C345.61,105.52,340.84,103.33,335.94,102.6Z"/><path class="cls-21" d="M168.17,213.59c-2.08-.3-4.25.43-6.27-.79-5.13-3.09-4.54-10.54,1.48-14.31,3-1.9,4.26-3.85,2.73-7.25-.74-1.64-1.52-3.66.35-4.94,1.69-1.16,2.92.68,4.3,1.41a17,17,0,0,0,2.26.85c1.4,2.68.44,5.39.06,8.09Q170.64,205.11,168.17,213.59Z"/><path class="cls-22" d="M375.69,145.67c-4.58-2.1-7.42-5.29-6.75-10.73a19.79,19.79,0,0,0,0-3c0-1.4-.37-2.72-1.92-3.08-.73-.16-2-.13-2.26.27-.79,1.41,1.53,2,1.21,3.43a2.75,2.75,0,0,1-2.17.94c-5.09.16-5.09.17-2.61,4.56a2.27,2.27,0,0,1-2.5,1.26c-4.08-1-4.72-4.11-3.38-7.22,1.42-3.3,1.59-6.58,1.69-10,1.48-3.92-.15-5.83-4.05-6.31-3.4-.41-4.49-2.23-3.22-5.44,3-2.73,5.83-1.79,8.45.5,1.88,1.63,3.47,3.59,5.74,4.74,1.58.88,2,2.63,2.91,4,3.19,5.52,5.61,11.29,4.9,17.84C371.31,141.14,374.16,143,375.69,145.67Z"/><path class="cls-23" d="M39.12,233.57a17.8,17.8,0,0,1-2.37,9,20.39,20.39,0,0,0-2.46,7.83c-.19,1.4-.07,3.42,1.51,2.94,6.22-1.91,9.66,3.11,14.27,5.19,3.17,2.16,4.18,5.28,4,8.94-12.75,2.43-22.59-5.58-21.87-17.88.09-1.61.2-3.63,1.15-4.72C36.23,241.51,37.18,237.31,39.12,233.57Z"/><path class="cls-4" d="M97.08,135.61c.38,3.49,2.85,5.1,5.79,6,3.56,1.09,6.71,2.47,8.75,5.89a6.37,6.37,0,0,0,3.55,2.52c3.26.83,3.78,2.74,2.89,5.55-6.53,1.31-10.51-.28-14-6.06-2.47-4.11-5.07-2.4-7.8-.6-1.41.93-3,3.79-4.27,2.08a5.61,5.61,0,0,1,.36-7.13c1.79-1.86,3.7-3.53,1.66-6.33l2-1.95C96.41,135.16,96.75,135.17,97.08,135.61Z"/><path class="cls-24" d="M302,203.52c.1,2-.65,3-2.86,3.07-2.95.12-5.89.68-8.84,1-3.53.34-5.65,2.37-7.08,5.46-2.14,4.66-5,1.59-7.34.35-2.76-1.47-2.06-3.51-.49-5.79,2.16-3.12,5.33-3.57,8.6-4,.17-2.94,1.05-5.25,4.62-3.8,1.77.71,2.31-.3,3.14-1.29,1.16-1.38,2.49-2,4.19-.83.75,1,1.55,1.95,3,2Z"/><path class="cls-25" d="M145,200.54c.1.48,0,1.22.31,1.41,10.36,6.86,3.63,16.24,3.67,24.61a1.82,1.82,0,0,1-2,.37c-1.83-1.21-1.35-2.94-1.05-4.64a8.84,8.84,0,0,1,1.08-2.6c1.2-2.67.92-5.35.41-8-3.58-.38-4.44,3.9-7.59,3.81a10.69,10.69,0,0,1,.43-2.93c1.62-3.62,1.68-5.83-3.42-5.25-2.13.25-2.59-1.73-2.25-3.53.4-2.11,1-4.18,1.51-6.26.62-.68,1.25-1.35,1.87-2C142.15,194.64,144.42,196.45,145,200.54Z"/><path class="cls-26" d="M150,227.55c5.57,1.12,7.82,4.19,8,11,2.58,4.16,1.57,8.64,1,13-.19,1.55-1.09,2.88-3.11,2.05l-5-6.08a8.83,8.83,0,0,1-1.27-6.1,11.71,11.71,0,0,0-2.91-9C146.64,230,148.44,228.84,150,227.55Z"/><path class="cls-27" d="M185.16,262.34c-6.42-.11-12.83-.37-19.13-1.83-.89-2.08-4.77-3.32-1.83-6.48a2.88,2.88,0,0,1,2.24.89c5.65,7.54,12.63,2,19,1.91,1.47,0,2.13-1.46,1.92-3-.23-1.66-.67-3.37-2.22-4.22-1.8-1-1.72.77-2,1.75-1.08,3.21-3,4.58-6.37,3.11-.33-3.53,1.87-6.14,3.29-9,5.65-1,9.29,3.82,14.22,5,1.51.38,3.52.58,4.83,1.92a2.27,2.27,0,0,1-2,1.85c-3.36.15-4.7,2.48-5.86,5.08S187,261,185.16,262.34Z"/><path class="cls-28" d="M150,227.55c-.07,2-1.4,3.1-3,4-3.48,1.58-7,3.79-9.86-1a14.4,14.4,0,0,1,.1-9.06c.75-1.63,2.16-2.78,3-4.37,1.25-2.27,3.29-3.76,6.08-2.7,3.21,1.22,2.29,3.74,1.63,6.09a2.23,2.23,0,0,0-1,2c-1.09,1.93-2.56,3-4.33,2.32a7.2,7.2,0,0,1,4.35,1.67l2,0Z"/><path class="cls-29" d="M303.88,241.54c1.16,1.75-.41,2.75-1.08,4-.41.67-.41,2.14-1.11,2-4.32-1-9.18-.31-12.63-4-4.64-4.07-5-8.51-1.16-15a1,1,0,0,1,1.24,0c1,2.5-.81,6,2.65,7.65,1.94,1.93,4.46,2.52,7,3C300.7,239.5,302.68,239.7,303.88,241.54Z"/><path class="cls-30" d="M106.83,59.61c-1.14-.12-2.74,1.46-3.32-.57-.5-1.72,1-2.23,2.35-2.36,5.52-.52,7.94-3.79,8.19-9,2.74-3.11,6.41-3.18,10.12-3.11a24.53,24.53,0,0,1,4.32.53c1.26.38,3.27-.08,3.5,1.92s-.64,3.46-2.92,3.61c-3.64-2.53-8.11-1.46-10.47,2.52a1.45,1.45,0,0,1,.66.68C115.2,55.9,110.31,56.24,106.83,59.61Z"/><path class="cls-31" d="M180,245.48c1.13,3.71-2.15,6-3,9-4.27,1.43-7.28.05-8.75-4a15.44,15.44,0,0,1-.61-5.81c.12-2.11.06-4.29,2.53-5.27A53.52,53.52,0,0,0,180,245.48Z"/><path class="cls-32" d="M164.05,254.5c-.74,2.46,3.06,3.43,2,6-4.82-.16-6.52-4.84-10-6.9,2.31-.39,2-2.17,2-3.79q0-5.64,0-11.28l4.91-1c2.1,2.24,1.37,5,1.46,7.64C164.05,248.28,165.54,251.45,164.05,254.5Z"/><path class="cls-33" d="M303.88,241.54c-3-.67-5.92-1.43-8.92-2a5.5,5.5,0,0,1-4-3.1.93.93,0,0,1,0-1.25c4.29.3,6.65-3.7,10.41-4.74,1.74-.48.34-2.69.77-4a21.15,21.15,0,0,0,1.64-7.65,4.55,4.55,0,0,1,.78-2.1,1,1,0,0,1,1.36-.15C305.71,224.91,306.7,233.38,303.88,241.54Z"/><path class="cls-34" d="M54.05,267.43q-2-4.47-4-8.94c.72-1.9,2.7-2.51,3.93-3.88,2.88,2.36,5.86,4.61,8.6,7.12,2.43,2.22,1.76,3.88-1.3,4.91A18,18,0,0,1,54.05,267.43Z"/><path class="cls-35" d="M384.86,167.54c-2.41-2.7-5.91-.49-8.64-1.93-.65-.34-1.63,0-2.46-.07s-2.24.2-2.3-1.18a1.78,1.78,0,0,1,2-1.7c5.7.19,8.15-1.8,5.73-7.72-.81-2,.49-3.09,2.5-3.33a11.66,11.66,0,0,1,3.89,4,12.64,12.64,0,0,0-.46,5c0,2.23,1.88,3.88,1.84,6.12l-.84,1.09A.93.93,0,0,1,384.86,167.54Z"/><path class="cls-36" d="M190.09,258.61c.41-5.83,5.64-4.63,9-6.17,1.5,1.3,4.19,2,3.25,4.72-.85,2.46-2,4.61-5.54,4.62-2.18,0-4.47.6-6.76.5C189.7,261.05,191.73,259.86,190.09,258.61Z"/><path class="cls-37" d="M101.09,86.58c0,1.89-.2,4.13-2.69,3.77-2-.3-4.92-1.69-4.08-4,1.84-5.11-.15-10.45,1.68-15.45.44-1.19.31-3.07,2.09-2.65s1,2.27.87,3.42c-.56,3.67-2.07,7.31.13,10.93C99.75,83.94,100.42,85.26,101.09,86.58Z"/><path class="cls-38" d="M267,265.45c-1.69-2.42-5.81-.51-7-3.89,1-1.6.82-3.7,2.09-5.2,3.42,2.22,8.05,1.77,11,4.78,2.47,2.51,6.83,4.47,3.8,9.3-1.38-1.2-2-3.06-3.5-4.14-.86-.61-1.73-1.8-2.78-.08C268.81,269.3,268,266.92,267,265.45Z"/><path class="cls-39" d="M163.08,245.46c0-2.63-.07-5.27-.1-7.91V226.44c2.88,1.52,1.26,4,2.85,5q2.17,4,4.37,7.92A7.87,7.87,0,0,0,169,244.5C167.28,246.35,165.41,247.31,163.08,245.46Z"/><path class="cls-40" d="M305,218.53c.14,2.89.16,5.74-2,8-3.51,1.9-7.62-.07-11.14,1.74-.92.31-1.82.75-2.8.23l-1.09-.05-1.9-4.95c2,.31,3.85,1.38,6,1C295.74,221.34,298.72,216.41,305,218.53Z"/><path class="cls-41" d="M379.12,174.69a12,12,0,0,1-6.2,1.85c-4.12-1.75-9-2.16-11.69-6.46-.69-2.24-2.75-4-2.46-6.58a2.48,2.48,0,0,1,2.06-.54,7.15,7.15,0,0,1,2.65,1.23C368.17,168.46,374.07,170.94,379.12,174.69Z"/><path class="cls-42" d="M137.18,230.55c3,3.53,6.61.31,9.86,1,4.22,2.22,4.31,6.06,4,10.11-.14,2,0,3.92,0,5.89-2.17-1.58-4.21-3.28-5.22-5.89,3.1-1.19,1.41-2.89.42-4.42-1.5-2.32-2.87-1.19-4.18.27C140.51,235.11,137.68,233.64,137.18,230.55Z"/><path class="cls-43" d="M289.06,243.52c3.88,1.87,8.44,1.21,12.31,3.22.21.11.94-.78,1.43-1.2a24.86,24.86,0,0,1-3,8.77c-.86-.2-1.86-.05-2.42-1-2.68-4.83-3.08-4.95-5.52-1.64C287,250.3,289.77,246.31,289.06,243.52Z"/><path class="cls-44" d="M267,265.45c.77-.84,2.73,4.51,2.73-.54,0-2.39,1.94-1.51,2.7-1,2.22,1.58,4.81,3.1,4.51,6.5-3.25,1.22-6.43,3-10,1.1C268.08,269.52,266.29,267.47,267,265.45Z"/><path class="cls-45" d="M88.11,98.61c3.91,8.24,9.84,15.56,11.16,25,.21,1.45,1.91,2.36,1.78,4-4-3.76-6.29-8.91-8.2-13.58C90.88,109.21,88.49,104.1,88.11,98.61Z"/><path class="cls-46" d="M262.13,256.36c0,2,1.36,4.57-2.09,5.2-3.3,1.79-6.18,1.86-8.07-2a18.6,18.6,0,0,1,6.86-6l.35-.2Z"/><path class="cls-26" d="M148,220.51c-.25-1.95,1-4.54-2.3-5.18-2.61-.51-4.12.56-4.76,3-.49,1.9-2.33,2.22-3.68,3.11a10.55,10.55,0,0,1,2.57-6c2.09-2.89,6-6.94,7.89-5.71,2.86,1.84,1.55,6.75.63,10.39C148.34,220.31,148.14,220.4,148,220.51Z"/><path class="cls-47" d="M173.08,196.65l-.06-8.09c-.16-2.07-1.32-3.58-3.25-3.82-2.81-.35-4.38-2-5.75-4.17,4.88-3.37,5.07-3.33,9,2,1.33,1.79,2.39,3.66,2,6-.36,2.62-.73,5.23-1.1,7.85A3.15,3.15,0,0,1,173.08,196.65Z"/><path class="cls-48" d="M384.86,167.54l1.3.26c-.85,2.07-1.42,4.39-4.14,4.87-8,.78-10.69-.58-12-6.14C374.88,167.57,379.72,169.75,384.86,167.54Z"/><path class="cls-49" d="M54.23,244.69C52.47,238,58,231.83,65.11,232.54,60.29,235.52,58.72,241.41,54.23,244.69Z"/><path class="cls-50" d="M370,166.53c1.94,6.13,7.94,4.28,12,6.14a3.25,3.25,0,0,1-2.9,2,31.67,31.67,0,0,1-16.22-10.1c2-1.09,3.35.63,5,1Z"/><path class="cls-51" d="M119.26,53.78a2.7,2.7,0,0,1-.47-.12c-2.67-1.32,0-2,.46-2.64,2.12-3.11,5.3-4.11,8.84-3.54,1.43.23,1.84,1.68,1,3.1A32.28,32.28,0,0,1,119.26,53.78Z"/><path class="cls-52" d="M261,208.54c4.47,3.29,9.68,5.55,13.52,9.72,2,2.17,5.16,1.73,7.49,3.19-5.13.53-9.07-1.33-12.82-5-2.89-2.81-5.67-7.4-11.16-4.91a2.11,2.11,0,0,1-.6-1.24,3,3,0,0,1,.47-1.32C258.81,208.13,259.78,207.5,261,208.54Z"/><path class="cls-53" d="M361.92,169.61c2.68,3.88,7.92,3.69,11,6.93-3.89.56-7.33-1.23-10.94-2.12-1.36-1.3-3.28-2-4.13-3.83a1.1,1.1,0,0,1,.31-1.44A3,3,0,0,1,361.92,169.61Z"/><path class="cls-54" d="M257.91,210.51l.09,1.05-.09,19c-2.23-1-3.08-3.9-5.88-4,2.46-3.39,2.64-7.4,3.28-11.33C255.6,213.45,255.24,211,257.91,210.51Z"/><path class="cls-55" d="M142,237.49c.25-1.33-.73-3.2,1.26-3.75,1.69-.46,2.67,1,3.53,2.14a13.49,13.49,0,0,1,2,3.82c.28.86.37,2.32-.13,2.78-1,1-1.79-.95-2.93-.84Q143.93,239.56,142,237.49Z"/><path class="cls-56" d="M108.06,204.52c1.35-2,3.09-3.93,4-6.15,1.36-3.45,3.77-4.2,7-3.84C116.76,199.38,113.33,203,108.06,204.52Z"/><path class="cls-57" d="M366.8,119.63l-2.92-3c-4.16-3.26-7.6-7.35-11.94-10.42a2.07,2.07,0,0,1-1-2.54c0-.33,0-.66,0-1C358.15,106.49,363.65,112,366.8,119.63Z"/><path class="cls-58" d="M387,166.71c-1.59-1.77-3.32-3.45-3.08-6.14,1.17-.81.53-3.42,3-3C391.27,161.16,391.28,162,387,166.71Z"/><path class="cls-57" d="M345.08,100.54c-7.57-.2-15.08.1-22.23,3C328,98.71,339.44,97.16,345.08,100.54Z"/><path class="cls-59" d="M291.88,251.67c-.19-1.31-1.78-2.83.11-3.87,1.43-.79,2.68.32,4,1.06,1.91,1.09,2.06,2.72,2,4.55-2,1.94-4.1,1.53-6.17.05C291.87,252.86,291.87,252.27,291.88,251.67Z"/><path class="cls-60" d="M291.86,253.46l6.17-.05,1.79.9C296.66,257.46,293.34,257.11,291.86,253.46Z"/><path class="cls-61" d="M231,223.53c1.31,2.89,2.51,5.81,1.87,9.1-2.39-2.55-4.23-5.28-3-9Z"/><path class="cls-40" d="M305.93,216.53l-.95,0c-2.81-2.36.58-5.49-1-8,0-1,0-1.95-.05-2.92C306.57,208.9,308,212.4,305.93,216.53Z"/><path class="cls-62" d="M190.09,258.61c4.13,1.29.81,2.46-.06,3.67l-4.87.06C185.72,259.66,189.73,261.55,190.09,258.61Z"/><path class="cls-45" d="M97.08,135.61l-1,0a28.05,28.05,0,0,0,5-8C102.28,131.54,99.53,133.5,97.08,135.61Z"/><path class="cls-63" d="M386.89,157.6c-1.21.78-1.39,2.58-3,3,.43-1.7-1.19-4.1,1.7-4.95C386.32,156.11,387.11,156.54,386.89,157.6Z"/><path class="cls-64" d="M162,122.59c2.32-1.32,3.71-.76,4,2-.25,2.18-.31,4.3,1.64,5.89,1.37,1.1,3.26,2,2.08,4.33-1,2-2.33,3.7-4.65,4.07-2.76.44-5.88-1-7.61,3.09-.64,1.55-4.18,1.47-6.49,1.55-3.89.14-5.31,1.95-4.51,5.78.32,1.53.86,3.28-.72,4.61-3.28.3-6.25,0-7.55-3.74-1-4-1.13-7.66,1.73-11.19,1.39-1.73,2.21-4.25-1-5.76-2.92-1.39-4.24.44-5.57,2.46-.95,1.45-.74,3.21-1.24,4.73-1.35,4.07-2.88,8.13-6.15,11.18-1.59-1.66-.82-3.94-1.26-5.51-1.48-5.18,4.5-11.08-2.18-15.82-3.24-2.3-.26-9,3.8-9.66,4.56-.77,8.12-5.81,13.13-3.95,6.29,2.34,13.95.2,19.17,5.91C159.73,123.69,160.91,124,162,122.59Z"/><path class="cls-65" d="M126,151.59c.24-1,2.33-1.14,1.27-2.77a14.49,14.49,0,0,1-.82-1.68c6.4-3,3.31-10.75,7.65-15,3.14-3.11,4.72.42,7,.6,2.81.23,1.52,2.23,1.11,3.74-.26.95-.11,2.33-.72,2.81-3.51,2.87-2.76,6.63-2.47,10.32-2.48.52-4.35,1.3-5.37,4.2-1.36,3.83-4.75,2.53-7.63,1.8C125,154.25,126.54,152.92,126,151.59Z"/><path class="cls-66" d="M126.05,155.57c1.19-.54,2.31-1.23,3.75-.64,2.25.93,3.11-.41,3.2-2.34.22-4.72,2.75-4.58,6.05-3,.86,3.94,4.78,2.45,7,4a1.7,1.7,0,0,1,2.24,1.29,12.67,12.67,0,0,0-6.38,10c-.2,1.79-1.42,2.55-3.21,2.12-2.88-.7-6-.22-8.74-1.52a5.73,5.73,0,0,1-2.88-4.87,6.85,6.85,0,0,1-1.12-3.95C126,156.26,126,155.92,126.05,155.57Z"/><path class="cls-1" d="M127.09,160.56c2.06.57,1.53,3,2.93,4,2.27,5.52,3.78,6.05,9.4,3.86,2.56-1,4.93-1.41,6.49-4.47,1.33-2.61,3.74-.72,5.1,1.15,1.52,2.08,2.64,4.51,5.69,5.15-3.1-5.17-9.06-8.73-8.73-15.69l-1.91-1.06c-1-1.9-.89-4.11-1.27-6.1-.59-3.11,1.77-5.2,4.91-5,2.44.17,4.48-1.23,6.84-1a2,2,0,0,0,1.59-.92c1.23-3,1.23-3.34,5-2.71,3.28.54,4.66-1.33,5.71-3.61,1.22-2.66-2.11-1.81-2.61-2.91-1-2.11-4.23-4.43-.17-6.73.79-.17,2.18-.18,2.28-.53,1.63-6.09,5.1-4,8.59-2.07.72.39,1.73.33,2.31.83,2.58,2.24,7.46,2.1,6.62,7.89-.46,3.19,2.51,5.61,6.21,4.64,4.19-1.09,5.88,1.44,8.33,4.91L192.68,139c2.78,2.33,2.31,7.74,7.37,7.52.14-.09.29-.27.42-.26,2.32.16,6.25-.66,6.22,1.91,0,3.39-3.9,2.41-6.86,2.43,6.25,1,11.31,4.16,16.79,6.22,5.75,2.15,6,1.66,9.71-3.39,3.51-4.83,4.66-9.6,4.47-15.65a22.34,22.34,0,0,1,4-13.71,3.14,3.14,0,0,1,1.46.15c2.63,1.47,4.27,3.14,1.9,6.24a6.13,6.13,0,0,0-1.18,5.2c2.13,7.57-1.13,13.88-4.29,20.27-2.8,3.64-3.45,8.5-6.93,11.82-2.27,2.17-4.54,3.61-7.76,2.8-1.92.93-2.85.12-3-1.8-.21-2.5-2-2.18-3.67-2.19-1.92,0-2.14.9-1.69,2.57.3,1.12-.42,1.76-1.7,1.81-3.95.14-7.88.51-11.82.55-2.31,0-5.47.82-4.54-3.64.28-1.36-1.38-1.55-2.1-.88-3.16,2.94-8,4.3-9,9.33a2.37,2.37,0,0,1-2.37,2.17,3,3,0,0,1-3-2.11,6.33,6.33,0,0,1,.53-6.61c2.23-3,3.07-7.34,8.35-8-5.82-1.92-9.89-.49-13.71,5.32a8.59,8.59,0,0,0,.73,11,7.8,7.8,0,0,1,2,4.46c-2.48-3.05-5.57-3.33-9-2-.67-.66-1.33-1.33-2-2-.36-.37-1.15-.73-1.26-.51-1.89,3.9-4.59,2.52-7.55,1.48-3.51-1.23-7-1.56-10.1,1.55a11.13,11.13,0,0,1-6.19,3,7.81,7.81,0,0,0-6.88,5.37c-2-2.62-4.22-4.27-7.46-2a2,2,0,0,1-2.69-.25c-1.06-.92-.1-1.7.39-2.54,2.69-4.48,6.73-7.43,11.55-10.21C123,173,123.73,165,119.89,159,123.18,159.21,124.51,162.87,127.09,160.56Z"/><path class="cls-67" d="M235,124.58c-1.64,3.66-.46,7.93-3.3,11.59-1.41,1.83,1,5.31.54,8.45-.78,5.58-5.39,8.78-7.16,13.65-.73,2-3.26,1.6-4.92,1.1-8.27-2.45-15.62-7.38-24.36-8.84,3.38-1.74,7.14-.08,11.33-2-2.85-1.17-4.82-2-7.06-2,.67-.94,1.69-.85,2.67-1,1.34-.21,3.42.87,3.79-1.18.32-1.81-2.44-1.3-3-2.64.13-1.81,2.72-1.31,2.75-3.06-.65-1.1-1.68-1-2.67-1.08-1.78,0-4.33-1.3-3.59-2.28,1.4-1.85-.39-6.08,3.95-5.72,2,.17,3.75-.44,4.54-2.33s-1.59-2.14-2.25-3.26c-2.08-3.58-.31-7.47.3-10.89.44-2.39,4.78-3.06,7.57-3.36,3.9-.42,7.93-.65,11.78.9,1.13.45,2.34,1.45,3.66.31-2.66-5.51-2.44-5.73,7.47-7.36a46.19,46.19,0,0,1,9-1l4,1c1.21,3.48-3.09,3.71-3.63,6.16-2,1.36-4.27,1.53-6.31,1.86.91.26,2.27.43,2.35,2,.05,1.1-.64,2.24-1.55,2.24-4.86,0-5.11,2.95-4.6,6.62C236.35,123.38,235.56,124,235,124.58Z"/><path class="cls-68" d="M260,104.59l3,0c.88,2.26-.71,3.83-1.72,5.41-4.15,6.5-1.09,17.3,3.22,21.67a31.49,31.49,0,0,1,7.19,10.54c1,2.19,3.08,4.36.1,6.6a3,3,0,0,1-2.71-1.89c-2.91-5.46-7.75-6.18-13.21-5.51-5.71.7-5.39.36-6-5.42A53.13,53.13,0,0,1,251.53,118c.95-4.8,1.22-9.88,5.45-13.34Z"/><path class="cls-7" d="M257,104.61c-1.89,4.5-4.09,8.92-4,14a2.18,2.18,0,0,1-2.49-2.72c1.26-4.28-1.9-5-4.51-6.29-1.12-3.63,3.67-3.31,4-6Z"/><path class="cls-7" d="M246,102.61c-2.82,2-6,.55-9,1C239.92,102.64,242.74,100.66,246,102.61Z"/><path class="cls-69" d="M64.48,208c.61,4.52-3.38,5.18-5.85,7-.6.44-1.64-.4-1.33-.84,2.21-3.08-.65-6.35.45-9.3a3.92,3.92,0,0,1,4.6-2.19C65.2,203.42,64,206.14,64.48,208Z"/><path class="cls-47" d="M130,189.51c-.45-3.94.57-6.28,5.29-6.15a9.07,9.07,0,0,0,5.81-2.48c5.15-4.87,10.32-4.49,15.91-1,1.71,1.06,1.62-.61,2.07-1.65,1.25-2.85,2-.75,2.9.36-3.35,1-2,3.35-1.34,5.21,2.27,6,.46,10.63-3.53,15.35s-7.7,4.17-12.11,1.41a9.87,9.87,0,0,0-7-5C137.41,190.76,133.12,190.94,130,189.51Z"/><path class="cls-70" d="M117.38,177.27c-.14,1.28,1.5,3.45-.84,3.54a3.28,3.28,0,0,1-3.05-3.76c.25-1.52,1.06-3.56,3.06-3.28C119,174.12,117.56,176,117.38,177.27Z"/><path class="cls-71" d="M218,170.58c7.3-1.12,9.57-7,11.88-12.74.46-1.16.65-2.18,2.09-2.26a4.54,4.54,0,0,0,2.61-3.86c.37-2.77,2.49-4.16,5.09-4.82,2.23-.57,4.3-.39,5.93,1.46s1.38,4,.34,6c-1.62,3.13-3,6.31-2.86,9.92-.58,4.45-1.5,8.84-2.48,13.22a7.14,7.14,0,0,1-4.73,3.38c-2.88,1.05-5.31,3.19-8.33,3.8-2.67.54-1.66,3.22-3,4.42a3.09,3.09,0,0,1-3.51-.56c-.64-1.63-.26-4.16-3.9-3.49,8.18-2.71,9.89-12,17.68-14.38C229,171.44,223.51,172.76,218,170.58Z"/><path class="cls-72" d="M221,188.57l3.95,0c1.66-2.14,3.51-3.33,6.27-1.71,1.79,1.05,2.94.46,2.51-1.73a6.67,6.67,0,0,1,1.26-5.51c2.09.38,3.4-1.11,4.95-2,1.19-2.19,3.28-3.2,5.45-4.07,1.6-.64,3.4-1.09,4.36.8s-.54,3.08-2,3.9c-.76.42-1.65.9-2.17.74,2.41-.12,5.59-1.9,7.93,1.25a3,3,0,0,1-.08,2.19c-3.11,2.74-6.69.13-10.25,1.17.75,1.67,4.14,3.81-.39,5.56,2,.11,3.7.16,5.13,1.16.15,2.48-1.32,4.72-.35,7.45s-1.4,3.8-3.68,4.24c-2.44.48-3.85-1.57-5.68-2.6-1.64-.93-4.18-1.49-1.68-4.13,0,0-.35,0-.42,0-.9.77-2.28.21-3.16,1.1.56,1.21,1.83,1.38,2.73,2s2,.44,2.28,1.43c.06,2.34-4.43,1-3,4.21,1.15,2.85,5.2,1.45,6.31,4.32A2.55,2.55,0,0,1,240.1,210c-1.61.78-3.67.06-5.07,1.55-.83-.1-1.62-.29-1.92-1.22-.51-1.61-1.27-3.57-3.06-3.23-2.05.39-2,2.66-2.07,4.45-1.67-1.9-.58-4-.57-6.06,0-4-.2-8.06-3.79-11.15A8.89,8.89,0,0,1,221,188.57Z"/><path class="cls-73" d="M271,142.58c-1.91-5.7-8.06-8.41-10.3-13.42-3.41-7.6-4.68-15.89,1.61-23.22a6.4,6.4,0,0,0,.68-1.33c4.36-2.71,8.13.71,11.69,1.91,2.71.91,1.56,4.84-.28,7.07,3.79,4.22,7.24-1,10.74.07,1.59.51,4.26-2.7,4.73,1,.5,4-2.86,2.55-4.88,2.9a7,7,0,0,1-3.7,1.21c-3.48.26-5.23,1.8-4,5.5.91,2.77,0,5.22-1.56,7.43-1.76,2.49-.52,3.21,1.79,3.33s4.71-.91,6.19,1.77a23.11,23.11,0,0,0,3.87,9.54c2.18,2.92,1.88,6.58,2,10-3.08,3.91-4,.22-4.92-1.64-1.52-3.17-2.93-6.62-6.57-7.44C274.9,146.64,272.93,144.78,271,142.58Z"/><path class="cls-74" d="M289,156.53c.45-7.4-6.86-12.44-6.08-19.94a49.85,49.85,0,0,0-4.48-5.25c-1.5-1.65-2.65-3.49.49-4.76a8.74,8.74,0,0,0,3.8-3c.78-1,2.45-1.4,2.85,0,1.49,5.12,3.67,1,5.68.26a2.77,2.77,0,0,1-2,3.59c-4.77,1.67-2.4,4.33-.6,6.1,1.65,1.62,3.16,7,6.76,1.5,1.45-2.21,2.76-.63,3.9.65s.12,3.05,1.64,4a4.26,4.26,0,0,1,1.86,2.39c.88,3.47,2.51,7.15-2.36,9.15-1.65.37-2.6-1.24-4.42-1.54.06,4.56,5.73,8.55,1.37,13.32-5.72,3-5.68-2.65-7.71-5.19A5.71,5.71,0,0,0,289,156.53Z"/><path class="cls-75" d="M304.93,112.61c5.14-.27,10,1.57,15,2,2.09,1.83,2.35,3.92.87,6.24-4.71,7.21-4.89,15.09-.58,21.38,2.35,3.43,6.38,4.58,9.48,7s6.7,4.83,10.06,7.25c2.14,1.23,5,1.89,4.34,5.37-2,2.38-4,1.2-5.51-.41a33.91,33.91,0,0,0-15.81-9.61c-6.73-1.93-7.74-8.9-9-14.91-.44-2.08-.46-4.26-.86-6.39-1.36-7.41-1.32-7.42-8.21-8.76C303.09,118.67,304,115.64,304.93,112.61Z"/><path class="cls-76" d="M304.93,112.61c1.41,3-.37,6,0,9,.14,4.35-1.55,8.8.67,13,.2,1.79-.33,3.59,0,5.39-.56,2.07-1.1,4.23-3.69,1.58a2.17,2.17,0,0,1-1-2c.17-5.5-2-10.21-5-14.61-.84-1.25-.78-2.12.19-3,2.32-2.12,2.18-4.66,1.33-7.31-.92-2.87.35-5.47,2.63-6.13,2.1-.61,3.52,1.78,3.82,4.11-3,.58-3.8,2.12-2.17,4.91,1.61-1.34.58-3.7,2.17-4.89Z"/><path class="cls-77" d="M350.91,103.63c4.43,4.22,9.3,8,13,13a7.65,7.65,0,0,1-5.1-3.39c-2.32-3.22-5.22-4.06-8.86-2.58a2,2,0,0,1-1.55.38c-5.92-2-12.16-.5-18.16-1.64-1.11-.21-2.33.12-3.27-.78,1-2.14,2.47-2.61,4.76-2.07,3,.72,4.73-.55,4.24-3.91,3.33-2.22,6.43.68,9.71.46A28.78,28.78,0,0,1,350.91,103.63Z"/><path class="cls-78" d="M326.94,108.58c7.41-.16,14.92-1.47,22,2-2.36,2-5.18-.48-7.61.79a13.22,13.22,0,0,0-5.72,2.25c-2.07,1.59-4.62,2.09-7,3.09-1.93,1-3.21,2.74-4.82,4.1-1.17,1-2.15,2.63-4.14,1.76a1.56,1.56,0,0,1,.25-2c1.65-2,.34-4,0-6h1c.92-.62,1.77-1.57,2.79-1.73,2.63-.41.9-2.16,1.19-3.26A2.1,2.1,0,0,1,326.94,108.58Z"/><path class="cls-79" d="M279,126.58c-1.27,1.27-1.63,3.07.06,3.68,3.24,1.15,3.19,3.88,3.93,6.33-1.89-1.56-3.79.17-5.69,0s-3.79-.62-4.66-2.33,1.32-1.94,2.08-2.85a8.3,8.3,0,0,0,1.79-6.44c-.9-6.87-.6-7.36,6.52-7.35h2c-.59,1.2-1.44,2.54-2.67,2.63C277.59,120.6,277.72,123.24,279,126.58Z"/><path class="cls-75" d="M324.93,109.61c.73,1.37,2.49.61,3.63,1.83-1.77,2.93-5.17,2-7.61,3.16Z"/><path class="cls-80" d="M346.94,170.57c-3.88,1.64-7.56,1.88-10.89-1.29-4.25-4.06-8.78-2.88-14.12-2.06-8.1,1.26-13.86,7.1-21.65,9-3.3.81-8.81,4.26-9.39,10.14-.43,4.44-4.81,3.89-7.61,5-2.19.88-4.31-.42-5.07-2.79-.6-1.86-.5-4.54-3.09-4.28-3.13.32-1.88,3.28-2.15,5.24-2.14,1.73-3.55-.12-5.15-1.05a10.42,10.42,0,0,0-3.89-1.73c-1.83-.92-5-1.46-1.25-4.08,3.28,1.21,5.11-2.68,8.15-2.34,3.06-.27,6.43,1.77,9.05-1.86,1-1.38,2.72-.06,3.8,1.1,1.59,2.56,3.27,2.69,5.59.66,2-1.75,3.53-4,5.8-5.4a21.75,21.75,0,0,1,4.24-1.41c3.8-.13,6.3-2.75,9-4.83,8.18-6.28,23.69-9.53,32-1.21C342.15,169.22,345.08,168.78,346.94,170.57Z"/><path class="cls-81" d="M346.94,170.57a11.3,11.3,0,0,1-8.23-2.6c-5.47-4.24-11.14-5-18.39-3.2-6.32,1.61-10.9,4.84-15.72,8.4a7.91,7.91,0,0,1-5.66,1.38c.5-3.3,3.35-4.67,5.51-6.55a55.79,55.79,0,0,0,4.78-4.32c1.85-2,3.86-3.57,6.89-3.16,2.39.32,3.65-1.29,4.44-3.25,1.18-2.93,3.07-3.18,6-2.45,5.57,1.4,9.62,5.09,14,8.37s4.29,3.28,7.89-.93a5.28,5.28,0,0,1,2.49-1.57,7.06,7.06,0,0,1,3-.08c1.92.58,3.84,1.17,5.05,2.95,1.12,2,2.91,3.58,3,6.05h-4c-4.1-4.76-5.45-4.91-9-1A1.82,1.82,0,0,1,346.94,170.57Z"/><path class="cls-82" d="M267.94,187.55c1.92,0,2.82,2.66,5,2,2.12,3-.64,8,4,10-.84,4.18-4.06,2.21-6.4,2.47-1.81-.41-3.36-1.63-3.2-3.34.54-5.84-3-5.68-7-5.12-1.71-.2-3.19-.61-2.76-2.87C260.74,188.54,263.83,186.37,267.94,187.55Z"/><path class="cls-83" d="M270,201.51c2.51,0,5.12.35,7-2,5.6.82,10.69-.93,15.69-3.12,1.5-.65,2.46,0,3.25,1.2-1.35,0-2.89-.14-3.47,1.35-1.06,2.74-1.68,4.65-5,1.53-1.39-1.32-2.34,1.91-3.51,3-7.92-2.33-15.5-.84-23,2C262.31,200.5,264.52,199.51,270,201.51Z"/><path class="cls-84" d="M348.92,168.57c-.81-.13-1.79-.25-1-1.4a5.85,5.85,0,0,1,6.4-2.54c2.68.54,3.73,2.37,3.65,5,0,.33-.06.65-.11,1C354.43,171.91,352.42,167,348.92,168.57Z"/><path class="cls-54" d="M270,201.51c-3.74-.27-7.17.12-9,4.06,0,1,0,2,0,3l-3,1c-3.22-6.4-1.94-12,3-17,2-1.62,4-.49,6,0,3.55.95,1.36,3.26,1.12,5.09S269.45,200.2,270,201.51Z"/><path class="cls-85" d="M304,208.54c1.92,2.47.54,5.36,1,8,0,.66,0,1.32,0,2-5.44-.4-8.37,4.65-13,6,.93-1.5.75-2.94.35-4.67-1.12-4.82.83-7.1,5.7-7.31C300.81,212.42,303.92,212.74,304,208.54Z"/><path class="cls-86" d="M261,192.56a9.8,9.8,0,0,1,.62,2.23c-6.74,3.6-2.91,9.74-3.62,14.75a7.77,7.77,0,0,1-.07,1c-1.43,2.45-1.69,5.26-1.83,7.94-.17,3.41.44,6.93-4,8.05-5.61-.88-10.76,0-15.05,4-2.29-2.57-1.46-4.6,1.28-6,1-.49,1.61-.9,1.72-2,1-1.53,2.89.16,4-1-.33-1-.67-2-1-3,2.4-1.79,4.14,1.12,6.15.92-1.49-3-4.81-1.7-7.14-2.92-.6-1,1.16-2,0-3.06,1.67-1.55,3.7-1.06,5.64-.95s3.94.53,5.94-.93c-3.06-.26-5.77-1.17-8.73-.38a4.78,4.78,0,0,1-4.89-1.69l1-1c.39-2-.45-2.78-2.37-2.48s-3.17-.68-4.6-1.48c-4.32-4.87.51-3.7,3.17-4.25a41.46,41.46,0,0,0-5-2.53c-2.73-.95-1.16-3-.32-3.16a35.27,35.27,0,0,1,7.77-.34c.22,0,.79,1.38.58,1.67-1,1.38-2.43-.71-3.89.44,1.43,2.88,4.7,3.28,7,4.53,1.33.71,5-2.6,3.25-4-4.82-3.82.67-4.31,1.37-6.26a4.7,4.7,0,0,1,2.26-2.69c2-.76,3.82.07,5.66.72a4.21,4.21,0,0,1,2.22,1.85C258.06,192.66,259.57,192.54,261,192.56Z"/><path class="cls-87" d="M258.83,253.58a14.19,14.19,0,0,1-6.86,6c-4.58.08-9.24.45-12.86-3.26.08-1,.12-2,.26-3,.18-1.22-3.45-.75-1.27-2.55,1.27-1,2.6-.47,4.23.78,2.38,1.82,5.4,3.88,8.73.6C254,249.24,256.48,251.73,258.83,253.58Z"/><path class="cls-88" d="M240.94,238.45c.05-3.08,1.22-5.41,4.31-6.52s5.18.58,7.22,2.18a4.22,4.22,0,0,1,1.29,5c-1.17,2.64-3.78,1.1-5.75,1.39a37.1,37.1,0,0,1-4.95.08A2,2,0,0,1,240.94,238.45Z"/><path class="cls-89" d="M240,209.53c4,1.46,8.27-1.05,12.38.65.89.38,2.94-1.06,2.88,1a3.14,3.14,0,0,1-3.45,2.78c-3.25-.16-6.51-.3-9.77-.45-1.83-2.43-5.29,1-7-1.94C234.88,206.44,238.47,210.54,240,209.53Z"/><path class="cls-90" d="M244,221.53c-1,1.49-2.64.84-4,1-2.61.17-4.23-1.16-5.43-3.6l2.83.17c-.41-1.9-2.61-2.34-2.64-4.56a7.59,7.59,0,0,1,6.29,4.06C241.71,219.89,242.06,221.54,244,221.53Z"/><path class="cls-91" d="M242,216.54c2.39,0,5.36-3.16,6.9,1.56.43,1.35,2.36-1,3.55.18-2.67,2.49-2.67,2.49-9.46.26A2.09,2.09,0,0,1,242,216.54Z"/><path class="cls-92" d="M367.91,165.57l-5-1a2.13,2.13,0,0,1-2-1c-2.35-1.7-.69-3.21.35-4.57a15.93,15.93,0,0,0,2.94-6.76c.44-2.15-.22-3.18-2.6-2.73-1.83.35-3.83,1.71-5.42-.58-1-5.85-.48-6.9,4.11-8.36a4.32,4.32,0,0,1,3.64,2c4.55,3.67,5.2,7.51,1.79,15.15C364.14,161.35,364.28,163.78,367.91,165.57Z"/><path class="cls-93" d="M361.05,137.65c-2.64-.3-4.18-2.24-3.6-4.39.68-2.54,3.1-1.54,5.05-1a17.75,17.75,0,0,0,3.44.32c.59,2.64-2.4,3-3.1,4.79A1.13,1.13,0,0,1,361.05,137.65Z"/><path class="cls-94" d="M361.05,137.65l1.79-.28c2.27,0,4.78-.26,4.91,3,.12,2.92-2.27,1.95-3.82,2.24l-2.85-1.15c-.83-.81-3.74-.15-2-2.79A1.83,1.83,0,0,0,361.05,137.65Z"/><path class="cls-95" d="M359.11,138.7c-.3,1.6,1.41,1.79,2,2.79-6.25.23-3.54,5-4.12,8.11a2.89,2.89,0,0,1,.25,3.7c-1.65,2.52-2.11,5.49-3.38,8.14l-2.92-.07a38.85,38.85,0,0,1-5.29-6.54c-2.47-4.2-1.61-6.59,3-8.24,1.5-.55,2.36-1,1.9-2.72a4.16,4.16,0,0,1,.12-1.45,12.35,12.35,0,0,0,2.05-7.89c-.37-5,1.43-9.24,4.53-13l.76.12c0,3.69.72,7.31-1.65,10.91C354.75,134.88,355.9,137.66,359.11,138.7Z"/><path class="cls-95" d="M340.93,110.58c2.67-2.56,5.35.49,8,0l1,.05c0,2.89,1.13,4,4.35,4.17,4.36.22,5.24,2.37,3.68,6.82l0,0c-1.38-1.25-2.31-.24-3.29.64-1.55,1.37-2.92,1.07-4.11-.52-.46-3.3-4.18-5-4.2-8.6,0-.85-1.66-.66-2.55-1S341,112.75,340.93,110.58Z"/><path class="cls-26" d="M147.05,226.52c-2-.33-4-1.41-6.11-.21a1.51,1.51,0,0,1-2.2-1.22,1.59,1.59,0,0,1,2.08-1.47c2.29.55,4.41.81,6.21-1.09C147,223.86,146.05,225.19,147.05,226.52Z"/><path class="cls-96" d="M163.08,245.46c2.1.45,4-.61,5.93-1,.12,8,1.37,9.59,8,10,3.31-.39,5.7-1.55,5.05-5.59-.16-.94,0-2.21,1.49-1.91,3.74.77,4.67,3.86,5.32,7s-1.23,4.15-3.87,4.5c-4.71.63-9.49,1-14.1,2-2.71.63-1.35-1.67-2.29-2.28a50.54,50.54,0,0,1-4.58-3.74A21.81,21.81,0,0,1,163.08,245.46Z"/><path class="cls-97" d="M289,228.53l1.95-1.05a3.46,3.46,0,0,1,4.13,3.18c.39,2.79-2.23,3.64-4.11,4.84l0,1C286.14,234.83,288.41,231.48,289,228.53Z"/><path class="cls-98" d="M291,235.5c2.08-2.68,5.7-5.36,0-8,3.84-2.32,7.94-1.37,12-.92.44,2.9,3.16,7.33-3.62,5.38-.2-.06-.61.19-.76.41C296.34,235.53,296.35,235.54,291,235.5Z"/><path class="cls-50" d="M353.83,161.44a6.08,6.08,0,0,1,1.09-6.39,7.74,7.74,0,0,0,2-5.45c.17,0,.33-.06.49-.07,2.75-.21,6.16-3.85,7.92-.79s-.32,6.91-2.24,10c-.93,1.52-3.61,2.22-2.22,4.8l-2,0C357,163.47,355.5,162.23,353.83,161.44Z"/><path class="cls-99" d="M148,154.6c2.66,4.32,3.62,9.74,8.81,12.44,1.55.8,2.74,3.6,1.21,5.07s-3.33-.34-4.58-1.7a31.74,31.74,0,0,1-2.46-3.09c-.93-1.3-1.1-3.5-3.13-3.5-2.68,0-1.34,2.5-2,3.81a3.42,3.42,0,0,1-.49.85c-1.86,2.05-12.35,2.55-14.74.88-2.07-1.46-1.5-3-.6-4.76,3.4.91,7.07-.09,10.57,1.83C141.47,161.27,140.66,155.25,148,154.6Z"/><path class="cls-100" d="M246,109.59c3.79,0,8.34-.88,5.38,5.67-.52,1.17.52,2.48,1.62,3.34-.94,5.24-3.53,10.32-1.56,15.86.22.61.58,1.41.36,1.89-3.12,6.89,2,4,4.43,3.58,6.42-1.16,10.91,1,14.05,7a7.8,7.8,0,0,0,1.71,1.68c3.39,3.09,6.16,6.76,9.54,9.88,1.42,1.29,3.12,3.25,1.23,5.61a5,5,0,0,1-4.47.21c-2.16-1.67-4.33-2.09-6.91-.65a7.48,7.48,0,0,1-8.09,0c-3.14-2.08-6.49,1.07-9.52-.38,0,.07.25.19.63.28,2,.45,5.2-1,5.68,1.64.56,3.08-3.15,3.56-5.16,4.4-2.57,1.08-5.37,1.61-7.75,3.23a2.42,2.42,0,0,1-2.82,0,2.47,2.47,0,0,1-.86-3.12c1-2.79,2.3-5.42,2.34-8.56,0-1.71,2.23-1.84,3.68-1.76,4.57.25,8.91-.94,13.31-1.8,1.05-.2,2.83.21,2.29-1.62-.44-1.48.57-4.07-2.41-4.14-3.17-.08-6.23-1.2-9.42-.95-3,0-5.16-.9-5.29-4.41a4.81,4.81,0,0,0-1.54-3.05c-2.09-2.19-2-4.44-1.13-7.27,2-6.67-.42-13.44.49-20.29-2.6,2.4-5.24,4.17-6.07,7.4-.52,2-1.82,2.69-3.71,1.36l-1,0c.17-1.43.05-2.9.1-4.26.09-2-1.83-6.55,3.66-5,1.24.36,2.57,0,2.71-1.36.19-1.82-1.5-1.22-2.51-1.38a11,11,0,0,1-3.16-.77C239,110.32,242.51,109.94,246,109.59Z"/><path class="cls-101" d="M236,124.61c1-.08,2.77-.13,2.55-.85-1.39-4.61,4.38-5.07,4.78-8.61a2.87,2.87,0,0,1,2.08-1.82c1.5-.1,1.25,1.59,1.81,2.51,1.51,2.49,0,4.81-.23,7.2-.4,5.43,2.09,11.1-1.6,16.28-.7,1,.89,2,1.63,2.8,1.39,1.6,2.87,3,2.51,5.57-.42,3,2.17,1.44,3.44,1.89.84.93,1.81,1.82,1,3.26-1.57,1.22-3.63,1.18-5.31,2.1-1.93,2.06-2.58,4.77-3.68,7.24-.61,1.36-1,2.81-3,2.39-.58-4,1-7.38,2.85-10.71.91-1.6,1.7-3.22,0-4.91a4.06,4.06,0,0,0-4.94-.83c-1.84.81-4.61.77-4.15,3.81.48,3.2-1.33,3.64-3.74,3.65.88-4,3.6-7.38,4-11.56.23-2.35,1.17-4.45-.4-7.05-.92-1.51-.46-5.28.82-6.43C239.4,127.89,236.92,126.49,236,124.61Z"/><path class="cls-102" d="M283,163.55a13,13,0,0,0-5.53-7.18c-2.71-1.65-4.47-4.6-5.46-7.79,1.27-2.26-.73-4-1-6a60.71,60.71,0,0,0,8.65,3.75c3.13,1,5.22,4.31,6.17,7.89.38,1.44.27,4.19,3.23,2.31l.93.05a22.11,22.11,0,0,1,1.07,6.27c0,2.4-1,4.36-3.6,4.55S282.79,166.76,283,163.55Z"/><path class="cls-103" d="M254,152.54l-1-3,11.36,1c.87.08,2.39-.26,1.61,1.41-1.31,2.79,2.1,4.4,1.5,7.33-6.44-1.62-12.43,2.47-18.89,1.28-.8-.14-2.28.35-1.94.93,2.08,3.63-1.18,5.68-2.2,8.37-.32.84-.51,1.71.32,2.2.47.27,1.57.29,1.8,0,3.24-4.24,9.36-2.85,13-6.82-2.31-1.65-5.81.55-7.71-2.45,2.72-.35,5.77-1.51,7.83-1,5.51,1.31,10.57,1.93,15.8-.81.74-.39,2.45.88,2.49,2.55,0,.58.18,1.14.23,1.72a5.72,5.72,0,0,1,.09,2.47c-1,2.11-1.39,4,1.06,5.54,1.25.78,2.48,2,1.93,3.65s-2.33,1.65-3.72,2c-3.85.9-7.69-1.31-11.8-.24,1.93,1,4.79-.23,5.23,2.9-3-.78-4.71,3.87-8,2a33.73,33.73,0,0,0-10-3c-2.74-2.16-6-.19-9-1.25,1.49-1.91,6.41-2,4.9-4.6s-4.33,1.2-6.7,1.81a12,12,0,0,0-2.21,1.05c-.27-4.48,1.3-8.66,2-13,2.73-2,3.14-5.25,3.92-8.2.35-1.33.27-2.67,2.08-2.79,3.49.41,7-.3,10.48-.06C256.91,153.43,255.22,154,254,152.54Z"/><path class="cls-5" d="M235,179.58c-.14,2.1-.75,4.2.16,6.29.37.86,1,2-.35,2.47-1,.37-2.61,1.54-3.17.58-2.18-3.82-4.47-.48-6.68-.39-1.78-2.14-2.36-3.86,1.26-4.61C229.52,183.24,232.29,181.42,235,179.58Z"/><path class="cls-104" d="M258,190.58a2.17,2.17,0,0,1-2-1.05,2.33,2.33,0,0,1,1.8-1c-2.09.66-4.93-2.41-7.79-.13a2.11,2.11,0,0,1-2.11,2.27c-2.08-.28-4.34.24-6.34-1.68,3.27-1.33,3.37-2.92.3-4.7a2.39,2.39,0,0,1-1-2c.43-1.19,1.61-.58,2.53-.5l9.6.77a13,13,0,0,1,6.52,2.11c1.69,1,3.41,2.11,5.49.9l2.95,2C264.43,187.9,261.62,190.52,258,190.58Z"/><path class="cls-105" d="M265,185.58a4.15,4.15,0,0,1-5.33.5c-2-1.75-5.12-1.17-6.68-3.51,0-.68,0-1.35,0-2,4.14-1.74,7.24,0,10,3-.58.09-1.5.23-1.21.91C262.33,185.85,263.81,185.45,265,185.58Z"/><path class="cls-14" d="M234,204.56c1.88-.44,3.71,1.36,5.85-.54,1.46-1.3,2.18,0,1.12,4.5C238.83,206.86,235.09,208,234,204.56Z"/><path class="cls-79" d="M274.92,139.7c1.91-1.5,3.19-1.17,5.1-.25C278.11,141,276.83,140.64,274.92,139.7Z"/><path class="cls-72" d="M348.91,162.52c-2.48,5.76-3.87,6-8.29,2.35s-8.9-7.7-15-9.1c-2.23-.51-3.23-.67-3.89,1.81-.85,3.24-2.8,5.19-6.55,4-2.74-.85-3.41,2.13-5.26,2.94-2.38-2.79,2.16-5.56,0-8.34-1.67-2.51-2.78-5.79-7-3.15-1.31.82-3.27-.06-3-2.47,4.94-2,1.52-6,2-9,2.13,1,2.88,0,2.95-2,3.3.34,2.47,3.39,3.43,5.25.44.86.42,2.17,1.66,2.23a2.29,2.29,0,0,0,2.27-2.26,43.88,43.88,0,0,0-1.48-16.71,1.86,1.86,0,0,0-1.82-1.47c-1.17,0-1.61,1-2,1.92-.9,1.94-.21,4.4-2,6.05-3.15-4.34-1.88-8.69,0-13,6-1.54,8,.08,9.06,6.51.93,5.76,1,11.59,3.67,17.19,1.55,3.31,3.95,5.77,6.52,5.93,6.58.38,10.4,4.44,14.46,8.56,1.46,1.48,2.75,3.61,5.33,1.77C346,160.14,347.54,160.84,348.91,162.52Z"/><path class="cls-105" d="M277,164.61l.95-1.08,5,0c1.12,2,2.62,3.67,5.08,2.74,2.67-1,2.21-3.42,1.47-5.43-.6-1.63.53-2.84.45-4.28a24.39,24.39,0,0,1,2.47,4c.89,2.41,2.42,2.67,4.52,1.91-2.71,4.17-1.64,10-5.86,13.48a19.3,19.3,0,0,0-3,3.73c-1.38,2.34-3.09,2.55-5.1.79-.72-1.2-2.59-2.59-2.89-1.19-1.18,5.58-4.6,2.16-7.13,2.22-.66,0-1.32,0-2,0-2.12-1.67-4.75-1.55-7.59-1.72,2.66-5,6.67-2.11,9.9-2.3.91-.05,2,.94,3.16.3s3.51.55,3.92-1.17-1.58-2.37-3-3.23c-4.17-2.51-.34-4.59.58-6.82C279,166,279,166,277,164.61Z"/><path class="cls-106" d="M291,175.55c2.9-3.92,1.15-10,6-13,1.66-2.72,1.12-5.3-.49-7.83-.52-.82-1.35-1.7-1.33-2.53,0-1.66-2.18-3.67.05-4.89s2.13,1.92,3.53,2.51a8.54,8.54,0,0,1,1.23.79c.8,1.34,2.33,2.9,3.35,1.38,3.37-5.06,4.35-.69,6,1.23.63.74,1.13,1.58,1.69,2.37,1.22,2.94.29,5-2.55,6.32-2.27-2-3.87-4.91-7.08-5.82-1.37,4.65.33,7,4.75,6.52.79-.08,1.57-.56,2.28.19.65,1.65.1,3.37-1.31,3.78-5.71,1.66-7.95,8.29-13.92,9.44A2.12,2.12,0,0,1,291,175.55Z"/><path class="cls-107" d="M348.91,162.52l-4.93-1c-.68-2.57-3.05-3-5-4-.56-3.34-1.9-6.18-4.83-8.16-2-1.37-2.65-3.64-3.28-5.86-.6-2-.66-4.21-2-6.17,1,3.11-.06,4.36-3.11,3.9-8.68-1.31-8.34-3.45-6.12-13.42,1.11-5,5.08-8.46,8.28-12.25,2.26-1.17,5-1.11,7-2.93,5.66-1.13,9.92.71,12.73,5.87a8.8,8.8,0,0,0,3.21,3c1.54,1,2.54.8,3.57-1,2-3.47,2.86-1.49,3.43,1-2.73,5-5,10.17-4,16.09.45,2.73-2,3.93-3,5.91-2.83-.46-1.27-2.16-.73-3.21a10.6,10.6,0,0,0,1.48-5.7c-.2-2.77,1.28-6.91-1-7.95-2.72-1.24-6.72-.75-9.84.47-2.56,1-4.6,1.67-6.77-.5-2.36-2.34-1.16-4.52.38-7a51.27,51.27,0,0,0-6.31,6.13c-1.49,1.64-1.25,2.72,1,3.6,5.82,2.23,10.84,5.47,13.62,11.45,1.67,3.6,5.08,2.85,8.14,2.76,1.2,1.62,3.66,3.4-.79,4-5.24.74-6.24,3.52-2.89,7.75,1.47,1.86,4.05,3,3.66,6Z"/><path class="cls-108" d="M331.94,143.58a11.36,11.36,0,0,0,4.38,6.11c2.49,1.73,4.73,4.26,2.66,7.87a128.84,128.84,0,0,0-17.21-11.86c-4.44-2.56-7.35-12.32-5.26-17.84.93-2.45.18-5.88,3.44-7.26,0,.66,0,1.32,0,2,1,3.87-1.24,7.36-1.26,11.2,0,5.51,2.88,8.73,8.37,7.66C329.43,141,331.27,140.64,331.94,143.58Z"/><path class="cls-109" d="M304.94,134.61a19,19,0,0,1,.93-7.36c.62-1.57,1.37-2.62,3.17-2.59a2.82,2.82,0,0,1,2.87,2.28c1.73,5.91,2,12,1.87,18.08a4.49,4.49,0,0,1-4.2,4.28c-2.2.13-1.92-2.39-2.41-3.8-.69-2-.64-4.26-2.27-5.9C302.8,137.92,305.24,136.28,304.94,134.61Z"/><path class="cls-110" d="M303.91,112.65c0,.5,0,1,0,1.49,0,2.24.42,5.85-2.09,5.72-3.27-.18-2.48-4.55-2.42-6.56.08-3,2.77-1.34,4.49-.67Z"/><path class="cls-111" d="M331.94,143.58c-1.27-1.4-2.43-2.18-4.67-1.39-1.5.52-3.11,3-4.77,1.22-1.85-2-4.25-4-4.47-6.9-.34-4.73-.27-9.5,1.91-13.93l8-7c-1.49,4-5.3,6.51-6.42,10.83-.53,2-1.54,3.82-1.54,6.11,0,7.08.61,7.71,8.44,7.31.09-1.91-2.54-.79-2.57-2.8a2.69,2.69,0,0,1,.64-.67c1.66-1,3.36-1.13,4.1.93A43.66,43.66,0,0,1,331.94,143.58Z"/><path class="cls-112" d="M350.92,121.59c-1.78,1.09-2.84,0-3.61-1.36-2.59-4.57-5.64-8.19-11.71-6.39-.09,0-.41-.76-.62-1.17,1.71-1.48,3.57-2.51,5.95-2.09l7,1.22C345.36,116.16,352.78,117.44,350.92,121.59Z"/><path class="cls-105" d="M293,175.55c3.23-2.4,7.45-3.76,8.65-8.36.11-.42,1.76-.6,2.69-.6,2.78,0,3.81-1.43,3.65-4a.63.63,0,0,1-.21-.67c.09-.21.17-.31.24-.31,2.56-1.23,3.26-3.38,3-6,3.21,3.39-1.65,5.88-1,9l-11,10a6.88,6.88,0,0,1-4,1A1.34,1.34,0,0,1,293,175.55Z"/><path class="cls-81" d="M293,175.55l2,0c-1.23,2.37-3.38,3.88-5.17,5.76-2.81,3-4.91,2.7-6.81-.79,2.17.82,3.72.42,4.54-2,.53-1.59,1.45-3,3.45-3Z"/><path class="cls-113" d="M250,188.43c-.4-1.08-.42-1.7,1.12-1.87,3.12-.35,5.85,1.2,9.12,1.17-1.27,1.83-2.83,1.63-4.25,1.81Z"/><path class="cls-100" d="M254,152.54c2.7,1,5.5-1.83,9.09.49-5.53,1.82-10.23,2.5-15.07.55C250,153.23,251.86,152.22,254,152.54Z"/><path class="cls-114" d="M277,164.61c2.42-.28,3.93.77,4.75,3.07-1.9,1.37-2.52-1-3.81-1.07A2,2,0,0,1,277,164.61Z"/><path class="cls-115" d="M308,161.59c0,.32,0,.65,0,1-2.07,2.85-4.67,2.43-6.71.41a8.77,8.77,0,0,1-2.07-8.21c.19-.92,1.46-1.44,1.89-.9C303.22,156.59,308.49,156.54,308,161.59Z"/><path class="cls-112" d="M350.93,143.58c-2.7,2.31-7.83,1.27-9.11-1.7a18.7,18.7,0,0,0-13.71-11.28c-3.18-.73-4.12-2.2-1.86-4.73,2.44-2.72,5.11-5.22,7.73-7.77.65-.64,1.42-1.78,2.45-.79s.26,1.87-.42,2.63c-1,1.12-2.21,2.15-2.41,3.7-.28,2.19,3.58,4.74,5.2,3.27,2.33-2.12,4.38-2.62,7.06-1,.85.51,1.5-.35,2.13-.86,3.91-3.17,4.88.12,4.79,2.73-.16,4.76,2,10-2.4,14.15-.5.47-.06,1.24.55,1.66Z"/></svg>