<svg id="Layer_1" data-name="Layer 1" xmlns="http://www.w3.org/2000/svg" viewBox="0 0 400 275"><defs><style>.cls-1{fill:#c7ab79;}.cls-2{fill:#f4ddaa;}.cls-3{fill:#eacf9d;}.cls-4{fill:#d7b984;}.cls-5{fill:#e4ca96;}.cls-6{fill:#e2d2ad;}.cls-7{fill:#d6b275;}.cls-8{fill:#ddbd82;}.cls-9{fill:#e8ca95;}.cls-10{fill:#e0c48f;}.cls-11{fill:#dcc99f;}.cls-12{fill:#e5c992;}.cls-13{fill:#d8b47a;}.cls-14{fill:#e2c695;}.cls-15{fill:#d2b887;}.cls-16{fill:#e3c99a;}.cls-17{fill:#ccab6e;}.cls-18{fill:#dfc18d;}.cls-19{fill:#c1a878;}.cls-20{fill:#ddbf8b;}.cls-21{fill:#e0bf84;}.cls-22{fill:#dec391;}.cls-23{fill:#a4783f;}.cls-24{fill:#c5a366;}.cls-25{fill:#b39764;}.cls-26{fill:#e7d5b1;}.cls-27{fill:#d3b47b;}.cls-28{fill:#ae9262;}.cls-29{fill:#cfb07a;}.cls-30{fill:#c4aa7c;}.cls-31{fill:#a48151;}.cls-32{fill:#c7a97c;}.cls-33{fill:#b89969;}.cls-34{fill:#a88b59;}.cls-35{fill:#ba935c;}.cls-36{fill:#d8bd8d;}.cls-37{fill:#b29665;}.cls-38{fill:#dcc59e;}.cls-39{fill:#dbbe8f;}.cls-40{fill:#c09f71;}.cls-41{fill:#c8b696;}.cls-42{fill:#8d693b;}.cls-43{fill:#cfbc95;}.cls-44{fill:#d2ba92;}.cls-45{fill:#d1b887;}.cls-46{fill:#a59575;}.cls-47{fill:#ccb287;}.cls-48{fill:#d1b581;}.cls-49{fill:#c2a779;}.cls-50{fill:#b2976c;}.cls-51{fill:#efddb9;}.cls-52{fill:#ae9160;}.cls-53{fill:#4a4031;}.cls-54{fill:#e7cfa3;}.cls-55{fill:#ddd3c3;}.cls-56{fill:#b49f77;}.cls-57{fill:#ddbd8c;}.cls-58{fill:#ceae77;}.cls-59{fill:#cfb586;}.cls-60{fill:#635131;}.cls-61{fill:#a4916d;}.cls-62{fill:#d9ba81;}.cls-63{fill:#9b8863;}.cls-64{fill:#ede2cf;}.cls-65{fill:#ddb878;}.cls-66{fill:#d4af6f;}.cls-67{fill:#e6c789;}.cls-68{fill:#d7b06f;}.cls-69{fill:#d8b577;}.cls-70{fill:#cda565;}.cls-71{fill:#debd81;}.cls-72{fill:#eacc92;}.cls-73{fill:#d7b170;}.cls-74{fill:#efd49f;}.cls-75{fill:#dec595;}.cls-76{fill:#c39a5c;}.cls-77{fill:#e8c98e;}.cls-78{fill:#cfac6f;}.cls-79{fill:#e1c58e;}.cls-80{fill:#c7ac76;}.cls-81{fill:#d1b681;}.cls-82{fill:#d6bb89;}.cls-83{fill:#cfb584;}.cls-84{fill:#c0a77c;}.cls-85{fill:#be9c62;}.cls-86{fill:#88642c;}.cls-87{fill:#ba9a66;}.cls-88{fill:#c09e6b;}.cls-89{fill:#d3b687;}.cls-90{fill:#513517;}.cls-91{fill:#af8c4d;}.cls-92{fill:#af8c50;}.cls-93{fill:#ae884b;}.cls-94{fill:#d4b782;}.cls-95{fill:#cca566;}.cls-96{fill:#b8894a;}.cls-97{fill:#a97b43;}.cls-98{fill:#af854a;}.cls-99{fill:#ddba7c;}.cls-100{fill:#e4c68c;}.cls-101{fill:#d9b981;}.cls-102{fill:#cda76e;}.cls-103{fill:#c7a366;}.cls-104{fill:#b2894c;}.cls-105{fill:#bf9c5d;}.cls-106{fill:#ae9462;}.cls-107{fill:#b89b67;}.cls-108{fill:#ae925c;}.cls-109{fill:#9f7237;}.cls-110{fill:#c49a5c;}</style></defs><path class="cls-1" d="M154,260.38a30.16,30.16,0,0,1-9.2-8.83c1.54-9.38,3.21-18.8-7-24.9,1.39-5,3.9-9.64,4.69-14.88.34-2.28.76-4.09-1.73-5.45-3.31-1.81-2.93-4.35-.95-7,1.7-.65,3.22.32,4.82.57,5.91.94,9.17-1,11.27-6.69a4.5,4.5,0,0,1,1.48-2.5c3.09-2,3.38-5.06,3.34-8.29.58-3.89,2.78-4.55,5.28-1.94s7.11,4.13,6.07,9.17a74.78,74.78,0,0,1-12.45,27.5c-3.37,4.67-2.22,10.08-2.51,15.26-2.57.5-1.68-2.37-3.56-3.39a119.59,119.59,0,0,0-.1,18.14c.23,3.58,2.91-.35,4.17.8,1.63.7,2.09,2.5,3.34,3.57,3.85,3.28,8.07,1.71,9-3.38a3,3,0,0,1,.94-1.7l1,0c1,.67,2.23.58,3.23,1.17,3,1.72,3.69,4.58,3.61,7.66s-2.58,3.78-4.84,4.11c-5.95.88-11.95,2.93-17.91-.21C155.51,258.89,154.76,260,154,260.38Z"/><path class="cls-2" d="M79.07,183.47c-2.16-5.62,2.09-8.81,5-12.3,4.76-5.78,6.59-12.45,7-19.69a16.74,16.74,0,0,1,5.91-12.09c5.69,3.38,12.81,4.29,16.8,10.7,1.66,2.67,6.05,2.65,8.06,5.55a5.69,5.69,0,0,1,1.21,1.81c.84,2.3.23,4.13-2.24,4.52-2.73.43-3.21,2-3.67,4.36-.78,4-2.46,7.64-2.47,11.94,0,3.82-2,4.18-6,1.63a1.33,1.33,0,0,0-.63.73c-1,2.72-.74,6.67-4.36,7.15-4,.54-8.61,1-11.88-2-3.73-3.41-7.23-5.11-11.81-1.92C79.74,184,79.34,183.7,79.07,183.47Z"/><path class="cls-3" d="M79.07,183.47c5.38-4.17,7.51-4,12.62.93,3.52,3.36,8.14,2,12.28,2.3,1.45.09,1.9-2.3,2.19-4,.32-2,0-5,2.12-5.56s2.23,2.77,4.09,4.28c.92-2.47,2.68-4.54.89-7-1.15-1.6-.11-2.36.74-3.37a7.82,7.82,0,0,0,2-5.46c-.12-3-.54-5.78,4.32-4.49,2.24.59,2-1.93,1.7-3.57,2-1.65,4.07-1.45,6.14-.09,1.49,2.35,3.57,4.35,4.24,7.18-2.66,3.75-3.55,3.66-5.43.54,3,2.73,3.46,9.44,10.15,10.86,2,.41,1.76,2.41-.06,3.25a36.09,36.09,0,0,0-7,4.78c-2.18,1.71-4.42,3.52.48,4.64,1.39.32,2.49,1.16,1.39,2.88-4.12-1.22-6.31,1.88-8.94,4a4.18,4.18,0,0,1-3.18,2.09c-2.38.2-3.78,1.6-5,3.55a17.49,17.49,0,0,1-8.87,7.36h0c-2.65,2-6.08,1.77-9,3h0a3.42,3.42,0,0,1-2.81.3c.49-4.94,4.68-5.54,8.37-7.21-2.78.41-4.4-.56-4.43-3.47-1.78.55-2.52,2.2-3.9,3s-2.78,1.32-4-.05-.6-2.75.59-3.88c1.48-1.4,2.67-2.84,2.46-5.14-.41-4.57-2.35-6.35-7.09-6.79-4.11-.39-8.32-1.65-11.34,2.59a1.78,1.78,0,0,1-2-.51C72.58,185.93,74.68,183.68,79.07,183.47Z"/><path class="cls-4" d="M204,103.54c9.84.34,19.45-1.86,29.17-2.68,8.44-.71,16.78,1.69,25.22,2,2.48.11,5,.37,7.43.55a4.16,4.16,0,0,1,3-.26c.94,1,.24,1.85-.39,2.66a8.7,8.7,0,0,1-3.27,1.64,11,11,0,0,0-8.21,5.27c-3-2-6.76-.43-9.88-1.94-1.12-2,1.33-2.79,1.49-4.52-5.07-1.72-9.72.5-14.47,1.51-2.17.47-1.72,1.9-.63,2.89,2.19,2,4.48,4.24,7.87,2.18,4.17.71,5.13,2.23,2.66,5.1-2,2.32-3.37,5.16-5.8,7.13a2.74,2.74,0,0,1-2.19-.42c-1.64-6.26-4.75-11-11.67-12.55-4.94-1.08-9.5.06-14.09,1.56a2.76,2.76,0,0,0-1.82,2.71c-.17,2.31-1,4.6-.68,6.9.8,6.23-2.8,9.22-7.89,11.24-1.19-1.56-.85-3.17,0-4.68,1.25-2.3,1.33-4.71,1.26-7.25s-.05-3.32-3.73-3.14c-7.3.35-14.95-.13-21.84-3.31-3.43-1.59-3.06-8,.3-11.35a8.76,8.76,0,0,1,3.84-2.26c4.47.4,8.94-1,13.42-.06h0C196.73,102.36,200.15,105.17,204,103.54Z"/><path class="cls-5" d="M181,188.52c-2.69-.11-5.41-.56-7.93.83a30.9,30.9,0,0,0-4.77-17.47c-1.39-2.95-1.09-5.23,2.58-5.95a8.67,8.67,0,0,0,4.95-3.13,5.62,5.62,0,0,1,6.3-1.78c3.66,1,4.08,2,1.9,5.08-2,2.83-4.31,5.56-2.58,9.76,2.37-3.51,4.79-6.67,8.4-8.42,2.48-1.2,5.3-2.1,6,2.17.36,2.27,2.18,2.24,3.8,2.4,2,.2,3.94-.52,6.55-.92-1.45-1.1-3.61-1.49-3.06-3.29.43-1.45,2.13-1.46,3.44-1.49,4.53-.11,8.85-1.57,13.31-2.06,1.77-.19,3.59-1,5.35.1,1.32,3.15-1.13,4.32-3.13,5.78,2.67.94,4.95-.26,7.3-1,1-.29,2.09-.41,2.71.58.79,1.26,0,2.37-1,2.95C226,175.62,222,180,217,182.94c-3.11,1.82-6.54,1.68-10.14.77-3.88-1-7.82-3.17-12-.92-1.13,1-2.57,1.53-3.43,2.83C188,190.92,186.72,191.25,181,188.52Z"/><path class="cls-6" d="M364,172.44a11.37,11.37,0,0,1-3.46-.08c-10.36-3.67-20.52-.74-30.73.73-1,.14-2.1.54-2.89.19-9.53-4.23-15,.86-19.66,8.26a12.77,12.77,0,0,1-3.1,3.21c-2.75,2.06-3.53,4.57-2.21,7.74-.54.86-1.2,1.84-2.17,1.93a9.2,9.2,0,0,0-7.78,4.64c-1.41,2.16-6,1.5-9.21,2a23.17,23.17,0,0,1-3-.13c-8.5.2-12.43-4.16-11.32-12.55a4,4,0,0,1,2.69-3.31,3.31,3.31,0,0,1,4,1.13c1.41,1.69,2.06,5,4.91,4.06,3.49-1.22,8.57-2.08,9.57-5.42,2-6.72,7.26-8.48,12.47-9.93,7.71-2.14,14.67-6,22.1-8.76,5.68-2.1,10.52-2.47,15.45,1.19,1.34,1,2.79,1.83,4.59,1.2,2.91-.19,6-.13,6.37-4.18,5.29-4.55,8.45-3.42,11.26,4C362.75,169.61,364.49,170.45,364,172.44Z"/><path class="cls-7" d="M58.09,199.51,61,198.39c3.14-.24,5.6-1.93,8-3.8,3.64-1,7.29-.05,10.93.1,3,.11,3.31,2,1.52,4a12.69,12.69,0,0,1-6.73,4.07c-2.17.52-2.85,1.68-1.17,3.51,4.34,4.7-.43,9-.63,13.54,0,.9-1.44,1.25-2.52,1.14s-1.82-.17-2.48,1c-3.76,6.72-9.85,8.89-17.13,8.25-3.23-.28-4.93,1.23-6.21,3.87-1.41,2.91-3.24,5.48-6.57,6.45-1.43.42-3,1-4.15-.44a3.45,3.45,0,0,1,0-4.22,43.18,43.18,0,0,0,4.6-8.24,14.6,14.6,0,0,1,5.09-6.88c6.31-5.54,12.55-11.13,13.63-20.2A6.87,6.87,0,0,1,58.09,199.51Z"/><path class="cls-8" d="M39.09,227.45c-.44,3.23-2.1,5.89-4,8.44-.84,1.14-1.53,2.46-.62,3.63,1.1,1.41,2.49,0,3.62-.29,3.22-.89,4.67-3.7,5.67-6.49,1.35-3.74,3.76-4.89,7.33-3.76,6,1.92,9.82-2.82,14.54-4.75a2.06,2.06,0,0,0,1-2.56c-1.06-4,.7-3.63,3.18-2,1,.65,2.67.28,2.4-.31-2-4.41,5.89-9.25-1-13.68-3-1.89.19-3.92,2.28-4,4-.18,5.78-3,8.51-4.77l-.37-1.43H69.08c-1.46-2.51.25-3.76,2-5l1.86-.1,2.14.12c2.46.42,4.66,1.68,7.19,2,4.71.55,3.32,5.16,4.87,7.82,1.27,2.16-.8,3.26-2.08,4.48a13.49,13.49,0,0,1-3.65,2.6c-.59.27-1.67.74-1.39,1.21,3,5-3.31,7.58-3,11.84-4.33,4-10,5.94-14.51,9.8C55.81,236,48.87,241.52,46,250.43c-1.63,2.86-3.86,3.14-5.92.8a12.28,12.28,0,0,0-7.63-4c-3.37-.59-4.86-2.52-3.44-6,1.81-5.39,6.74-8.76,9-13.86C38.38,227,38.74,227,39.09,227.45Z"/><path class="cls-9" d="M121.09,156.47c-1.83-1.26-4.63-2.36-5.47-3.58-4.72-6.81-13.23-8-18.68-13.5a3,3,0,0,1,.28-.41c6.47-7.27,6.28-8.53.17-15.78-11-13-17.5-28-15.09-45.13,1.37-9.71,4.58-19.51,13.67-25.6,2.54,5.06-1.68,7.57-4,10.78a5.73,5.73,0,0,0-1.55,4.06c-.8,9.39-.75,18.86-2.6,28.18-.64,3.2.37,6.34,3.75,7.89,8.27,3.78,11.3,11,13,19.24.81,3.94,2.32,7.64,6.76,9.14a3.07,3.07,0,0,1,2.26,3.89c-.45,1.71-1.88,2.14-3.48,2.24-.93.06-2-.49-2.81.47.63,1.47,2.09,1.57,3.32,1.79a11.31,11.31,0,0,1,8.43,6.32,12.72,12.72,0,0,0,4.74,5c1.5.91,3.45,1.72,2.49,4.17C124.72,157.11,122.78,156,121.09,156.47Z"/><path class="cls-10" d="M169,171.49c3.78,5.41,6.82,11,4,17.87a3.06,3.06,0,0,1-.89.27c-1.2-4.3-4.94-6.54-8-9.18-2.23-2-1.9.78-2.14,2-3.19,2.89-5.77-.64-8.43-1.22s-4.54-.54-6.77.94a51.83,51.83,0,0,1-7.68,4.4,8.19,8.19,0,0,0-5.37,7.49,3.17,3.17,0,0,1-1.43,1.57,1.46,1.46,0,0,1-1.35-.24l1-3.92c-.24-2.56-2.24-1.85-3.78-2.05-3.09-.41-4-1.82-1.5-4.1,3.23-3,6.39-6.12,10.73-7.56-.11-.33-.21-.87-.3-.87-3.41.05-5.53-1.17-7-4.62-1.59-3.66-4.35-6.81-6.69-10.32,2.51-.84,4-.27,4.51,2,.9,3.66,2.35,3,4.07.56,5.46,2.45,10.58,5.94,17,5.35,1.87.06,3.71.39,5.58.47,2,.34,3.85,1.2,5.92.81,2,1.42,3.86,2.92,5.94,0C167,170.39,168.25,170.7,169,171.49Z"/><path class="cls-11" d="M344.94,169.49c-1.73,1.06-3.29,1.16-5-.33-5.15-4.57-10.24-3.89-16.48-1.26-9.27,3.9-18.42,8.35-28.31,10.74-2.29.56-2.81,2.67-3.18,4.64-.57,3-1.57,5.43-5.32,5.26-1.67-.07-2.51,1.47-3.72,2.3-3.73,2.56-6.46,1.76-7.95-2.53-.63-1.81-1.33-3.31-3.39-2.47s-3.24,2.35-1.35,4.65a4.78,4.78,0,0,1,.68,2.33c.88,7.05,1.54,7.54,9,6.65.18,3.35-2.07,3.69-4.53,3.52a42.74,42.74,0,0,0-5.42-.24c-4.72.25-5.36,1.6-2.75,5.69,1.28,1.88,4,2.23,4.89,4.55l-.42.54c-4.62.25-7-3.14-8.73-6.36-2.44-4.64-4.6-5.67-8.13-1.31-.36.44-1.2.49-1.81.72-.68-1-.1-1.79.39-2.61a26.52,26.52,0,0,1,8.13-6.32c3.48-1.74,4.39-4.13,3-7.61,1-1.55-1.27-1.81-1.21-3,0-2.57,1.56-3.93,3.62-5a15.73,15.73,0,0,1,5.93.5c2.27.61,2.9-.86,3.75-2.26a3.89,3.89,0,0,1,2.77-.8,5.19,5.19,0,0,1,1.45.34,7.29,7.29,0,0,1,1.8,1.21c.77.39,2,2,2.32.73,1.49-6.11,7.08-5.74,11.24-7.57a15.91,15.91,0,0,1,4.86-1c3.94-.35,6.15-3.68,9.31-5.34,9.12-4.82,18.34-9.54,28.86-3.91C341.66,165.2,344.56,166.12,344.94,169.49Z"/><path class="cls-12" d="M77.05,220.41c-.91-1.85-1.94-4.12.25-5.34,4.21-2.35,2.41-4.61.26-6.89,1.11-1.3,2.51-1.38,3.68-1.94,4.21-2,5.81-7.81,3.3-11.49-.88-1.3-2.23-1.25-3.56-1.28-2.44-.06-4.58-.72-5.91-3-.25-2.59,1.36-3.54,3.53-3.93,3.91-.71,7.8,1.41,11.76.05.79-.27,1.25.74,1.74,1.46,3.28,4.9,3.13,8.51-.87,13.32-.62.74-1,1.29-.39,2.09a1.53,1.53,0,0,0,2.56,0c1.73-2,3.33-4.13,4.91-6.11,2.42,1.81,1.07,2.77,1,3.76-.2,2,.17,3.58,2.59,1.91,1.25-.86,2.29-1.75,3,.33.45,1.38.21,3.1-1.57,2.92-4.39-.43-6.31,3.13-9.2,5.14a11.42,11.42,0,0,1-9.26,6.47c-1.57.22-3.25-.5-4.73.52Z"/><path class="cls-13" d="M91.06,62.58c2.34-3,5.35-5.73,4.91-10.11a3.05,3.05,0,0,1,.14-.8c2-2,4.54-2.93,7-4,1.62-.66,2.93-2.1,4.87-2,1.63,5.4-2.12,9.27-4,13.67-.43,1-1.42,1.81-1.22,3.09-6.54,12.23-9,24.54-.8,37.09,1,1.66,2.72,3.38.27,5.11-2.06,1.45-3.9.43-5.26-1.2a32.43,32.43,0,0,0-5.61-5.62C89,96,89.72,93.4,89.68,91,88.28,81.4,89.88,72,91.06,62.58Z"/><path class="cls-14" d="M193,102.51c-4.69.17-9.29,1.58-14,1-4.73,2-10.16.91-15,3.4,2,3.19,1.7,5.9-2,7.65-3,1-5.89.19-8.84-.15a173,173,0,0,0-20.74-.67,18.91,18.91,0,0,0-7.62,2.08c-1.9.84-3.84,1.07-5.55-.52,1.59-4.09-3-4.36-4.19-6.7a159.45,159.45,0,0,0,25-3.65c16.92-3.6,33.92-5.67,51.21-3.26A6.83,6.83,0,0,1,193,102.51Z"/><path class="cls-15" d="M319,210.36a3.18,3.18,0,0,1,2,2.88c.3,1.45,2.37,2.71.75,4.34-1.29,1.3-3,.79-4.61.44-2-.43-3.83-1.82-6-1.49-3.63.74-5.86,2.59-6.06,6.63a20.5,20.5,0,0,0,1.9,9.6,2.08,2.08,0,0,1-.09,2.71c-4.63-5.15-10.89-8.05-17-10.32-7.06-2.62-11.9-8.08-18.13-11.62l.43-.13c1.47-1.33,3.15-.63,4.74-.44,3.09.36,5.93-.09,8.35-2.22,3.88-3.41,8.26-3.39,12.45-1.05,4.42,2.47,8.51,3.88,13.49,1.26C313.43,209.77,316.42,210.89,319,210.36Z"/><path class="cls-16" d="M326,222.33c2.73,1.73,3.48,5,4.22,7.51,2.47,8.28,8.08,12.77,15.69,15.55-.37,1.27-1.27,2.32-1.57,3.61-.8,3.48-3.09,4.83-6.5,4.75-2.47-.05-4.94.11-7.41-.15a9.21,9.21,0,0,1-1.56-.33c-1.46-.55-3.11-.67-4.38-1.72-1.56-2.14-3.09-4.3-1.9-7.17A10.3,10.3,0,0,0,328.31,233c-.16-.84-.35-1.75-1.37-1.78s-1.65.92-2.06,1.84c-1.25,2.73.12,6-1.78,8.62-5.13,1.15-8.58-.88-12.66-7.45-.05-2.89,2.26-2.73,4.12-3.15.93-.21,2.14-.19,2.28-1.43s-1-1.45-1.95-1.78c-6.39-2.31-6.89-3.4-4.59-10.07,2.19-1.9,3.33-.26,4.12,1.43,1,2,2.65,3.17,4.24,4.62C322.15,227,324.21,226,326,222.33Z"/><path class="cls-17" d="M264,187.44c.61.55,2.19.61,1,2-.81,1-2,1.1-3.11,1.42-2.16.62-4.07.53-3.6,4.38.36,2.92-3.28,5.84-4.26,9.19-.31.71-.63,1.41-.94,2.11-.14,1.41.28,2.94-.95,4.08-3.44-5.68-8.93-1.12-13.24-2.58-.85-.29-2,.19-2.93-.14-1.6-.9-3.54-1-5-2.07a11.27,11.27,0,0,1-3.22-3.08c-1.07-1.8-2.74-3.88.82-5-.54-1.42-3.12-2.48-1.61-4.18,2-2.23,5.15-1.94,7.81-1.73,2.09.16,2.15,1.73,1.18,3.71s1.51,2,2.47,2.5,2-1,1.7-1.88c-1.87-4.84,1.77-5.51,4.81-6.7a9.28,9.28,0,0,1,2.23-1.55c2.35-.46,4.5,1,6.69.85,1.95-.13-.67-1-.12-1.58a2.31,2.31,0,0,1,1.65-2.16C258.36,185.29,261.34,185.74,264,187.44Z"/><path class="cls-18" d="M269,103.59l-3.16-.13c5.76-1.8,11.83-1.37,17.69-1.62,10.87-.47,21.9-1.78,32.67,1.49a8.85,8.85,0,0,0,7.21-1.21c5.76-3.63,12.43-2.92,18.64-4.34,3.43-.79,6.51,1.27,9.44,2.63a36.52,36.52,0,0,1,16.44,15.1c-3.91-.09-6-3.11-8.51-5.38-2.83-2.59-5.46-5.38-9.15-6.77-6.56-1.62-13-.08-19.34,1.09-3.28.6-4.93,3.74-7,6.11-3.1,3.6-4.53,3.92-8.34,1.22-4.1-2.91-9.36-2.1-13.64-4.39-9-.56-17.9-2.88-27-2.38C272.86,105,270.71,105.2,269,103.59Z"/><path class="cls-19" d="M319,210.36c-3.14,2.74-15,4.1-18.41,2.26-3-1.62-5.89-3.74-9.67-3.19-1.16.16-2.48,0-3.26.93-4.35,5.39-9.88,4.41-15.52,3-1.51-1.6-4.17-1.69-5.21-3.94-1.21-1.78-2.66-3.5-.95-5.79,2.15-2.9,5.45-1.75,7.82-1.37,2.68.44,4.81-.59,6.92-.67,4.13-.15,8.37-3.49,12.54-.37,5.34,7.37,13.36,9.05,20.62,4.32A16.13,16.13,0,0,1,319,210.36Z"/><path class="cls-20" d="M258.06,272.24a55.56,55.56,0,0,1-18.6.39c-6.48-.8-8-1.86-8.48-8.4a23.36,23.36,0,0,0-1.19-5.73c.9-.78,2-.5,3-.48,2.77.17,5.57-.24,8.31.49,2.22,2.14,4.68,3.52,7.9,2.49,3.1,1.33,6.32,3.89,8.74-1,.13-.27.91,0,1.28.37h0c1.69,1.78,3.32,3.65,6,4,2.08,2,2.6,4,0,6A12.18,12.18,0,0,0,258.06,272.24Z"/><path class="cls-21" d="M115.07,108.64a2.81,2.81,0,0,0,2.64.89c1.75-.1,3.23.24,3.84,2.14.75,2.34-2.14,1.5-2.5,2.87,0,1.52-1,2.86-.94,4.37,0,4.19-2.51,6-6.18,6.43-4.13.53-7.05-1.48-8.35-5.37a13.07,13.07,0,0,1-.74-2.89c-.76-8.24-6.65-12.23-13-15.75a4.56,4.56,0,0,1-2.54-5c.37-2.09.43-4.89,3.81-4.81-.44,2.7-.65,5.12,2.66,6.51,1.38.57,2.35,2.26,3.35,3.56s2,3.39,4.25,2.61c2.79-1,.63-3.07.74-4.67C105.7,103.58,109.42,107.5,115.07,108.64Z"/><path class="cls-22" d="M29,241.27c-.54,4.2,2.4,4.94,5.45,5.07,2.53.11,4.51.71,5.61,3.09,1.51,3.26,3.65,2.45,5.93,1,.25,5.06-.57,10.29,2.41,14.92.53.83.24,1.42-.69,1.92-4.8,2.59-12.82.52-14.84-4.49-2.26-5.61-4.5-11.31-5.08-17.47A4.39,4.39,0,0,1,29,241.27Z"/><path class="cls-23" d="M378.69,144.56l5.49,4.81a7.12,7.12,0,0,0-.26,4.31c.7,4.72-.58,6.63-5.33,8.33,2,1.19,4.87,1.19,5.52,4.11-3.81,3.67-7.34.39-11-.42a22,22,0,0,1-3.59-1.47c-3-1.46-3.9-3.8-2.74-6.9.75-2,.41-4.34,1.29-6.22,1.92-4.13,1.11-7.36-2.41-10.07,2.31-2.17,3.64-4.34,0-6.54-.16-1.46.74-2.26,1.82-3,3-1.41,4.4,0,4.55,2.84C372.33,139.1,375.06,142.09,378.69,144.56Z"/><path class="cls-24" d="M236,207.44c4.65-1,9.68.47,14.11-2.32.9-.56,1.85.56,1,1.73-1.39,1.84.86,2.51,1.09,3.81-.38,1.27-.76,2.53-1.13,3.79-1.08,2-.52,4.14-.89,6.21-.87,4.86-2.67,6.41-7.62,5.68-1.45-.22-2.89-.63-4.34-.76s-.13.79-.32,1.19c-1.36,4.13-1.51,4.14-6,.43-1.34-1.77-2.82-3.56.17-5.2-1.7-.79-3.77-1.05-4.35-3.33a2.71,2.71,0,0,1,1.46-3.31c1.54-1,3.24.93,4.77-.28.32-.63,2.23-1.11.26-1.9-1.12-.45-2.73.34-3.36-1.36.32-1.86,2.55-2.34,3-4.13C234.37,206.89,235.11,206.66,236,207.44Z"/><path class="cls-25" d="M232,226.42a3.19,3.19,0,0,1,2.5,1.15c2.46,3.27,2.39.83,2.54-1.12,7.6-2.5,13.21,2.64,12,11-.38,2.64.52,5.47-1.12,7.94-4.62,2.66-9.49,1.5-14.32.92-1.35-.51-2.54-1.37-4.08-1.53s-3.7-.23-3.78-2.31,2-2.24,3.51-2.76c2.72-.78,5.53-.45,8.31-.61,1.56-.08,3.63.23,3.63-2.21a3.78,3.78,0,0,0-3.22-3.83c-2.66-.54-4.91.19-6.06,2.92-.51,1.21-.85,2.51-2.32,3-3.36-.08-3.6-2.58-3.93-5C225.62,228,227.4,225.88,232,226.42Z"/><path class="cls-26" d="M181,188.52c1.94.3,3.87.68,5.81.89,1.22.13,3.09-.66,2.77-1.44-1.9-4.7,3.4-4.11,4.49-6.5,8.46-1.38,15.21,2.26,21.5,7.27,2.06,3.71,6.3,6.6,4.44,11.78-5.65-8.19-12.66-12-23.15-9.46C191.73,192.31,185.72,192.5,181,188.52Z"/><path class="cls-27" d="M232,226.42c-3.78.82-5.82,2.89-5,7-.7.87-1.27,2.07-2.7,1-.6-7.3-2.54-14.45-2.39-21.83.25-3-1.4-6,.37-8.91a3,3,0,0,1,1.15-.86c3.55-.46,4.86,2.66,7.05,4.39a4.79,4.79,0,0,1,.54,4.21c.39.24.87.78,1.14.69,1.77-.61,3.8-1.17,4.67.85.94,2.17-2.23,1.93-2.76,3.44-1.53.44-2.2-2.72-4.05-1-.51,1-2.88,2.06-1.34,3C232,220.45,232.13,223.25,232,226.42Z"/><path class="cls-28" d="M313.91,205.58c-1.42,5.84-6.18,3.67-9.71,3.78-5,.15-10.41-4-11.3-8-1.92-6.89,1.63-7.77,10.21-6.08Z"/><path class="cls-29" d="M233.06,245.36l14.85.06c.86,4.34,1.19,8.91,5.14,11.92.77,3.4-.51,4.83-4,4.13-2.84.93-6.11,3.31-7.06-2.11-.35-1.88,1.42-2.36,2.29-3.42.61-.75,1.55-1.43.89-2.49s-1.86-1.15-3-.65c-1.44.6-2.41,2.36-4.34,1.74-3.32-3.46-6.6,0-9.9.06-5.05-3.29-3.63-8.42-3.77-13.12.52-.11,1.06,0,1.19.49,1,3.58,1.59,7.8,6.45,3C232,244.67,232.68,245,233.06,245.36Z"/><path class="cls-30" d="M311,217.47a16.84,16.84,0,0,1-.36,3.43c-1.27,3.89,0,5.74,4.14,5.57,2.27-.09,4.32-.15,4.2,3.19-.11,3.15-2.21,2.66-4.15,2.77-1.54.09-3.51-.53-3.82,2,.89,1.69,1.56,3.37,0,5a9.77,9.77,0,0,1-4.06-4c0-.33.07-.84-.1-.95-5.52-3.56-4.36-8.35-2.93-13.55,1.07-3.91,3.68-5,7.06-5.5A1.4,1.4,0,0,1,311,217.47Z"/><path class="cls-31" d="M130.15,231.39c-3.78-4-1.62-8.3-.7-12.51a17.57,17.57,0,0,1,3.2-6.59c1.54-1.24,3.11-2.23,5.26-2.08,3.87.27,5,2,4.22,5.85s-4.13,6.59-4.69,10.54c.22,2,0,3.9-1.61,5.37A5,5,0,0,1,130.15,231.39Z"/><path class="cls-32" d="M350.94,102.52c6.56,2.11,9.71,8.62,15.36,11.91.56.32,1.08.72,1.62,1.08,4.92,6.9,6.48,14.69,6.05,23-2.8.06-1.85-2.15-2-3.53-.79-6.38-1.54-7.2-7.7-6.68-3.51.3-4.65-1.66-5.3-4.46a6.63,6.63,0,0,1,.6-4.38,5.28,5.28,0,0,0,1-3.8c-.28-4.61-4.72-4.86-7.34-7-1-1.51-3.11-1.85-4-3.37C348.17,103.55,347.68,101.74,350.94,102.52Z"/><path class="cls-33" d="M137,226.47c-1.9-1.69-.49-2.9.62-4.12s2.24-2,2.45-3.62c.29-2.14,3.25-4.12,1-6.3-1.92-1.89-4.64-1-7-.5-.49.11-1,.24-1.44.36.42-1.3.85-2.6,1.27-3.89.49-1.11,2.86-3,.23-3.21-6.11-.47-4.27-3.93-3.62-7.31a3.57,3.57,0,0,1,1.5-2.43l1-1c3.5-2.13,6.46,0,7,5-.26,2.73-2,6,3.1,6.4,1.11.07,2,1.85,1.46,3.27-2.11,5.79-1.85,12.47-6.53,17.27A.7.7,0,0,1,137,226.47Z"/><path class="cls-34" d="M137,226.47l1-.07c6.28,2.14,9.4,6.37,9,13.14-.2,3.32-.11,6.66,0,10,.06,1.72-.4,2.53-2.23,2-1.22-2.59-4.17-3.94-4.92-6.87-1.89-4.23-.66-9.39-3.87-13.24A8.35,8.35,0,0,1,137,226.47Z"/><path class="cls-35" d="M359.94,123.53c.92,2.56,1.71,4.71,5.44,3.17,4.26-1.75,6.92-.72,6.95,4.87,0,2.11-.46,5,1.64,6.93l4.72,6.06c-5.15-1-7-4.91-7.68-9.42-.33-2.21-.15-4.14-3.23-2.78a6.11,6.11,0,0,0-1.37-.51c-1.69-.46-3.55-1.8-5.08-.29-1.89,1.87,1,3.08,1.12,4.72.3.61-.73,1.77,1,1.84a1.89,1.89,0,0,1,1.66,2.43c-2.69.58-4.75,2.35-7,3.72-3.08,0-4.14-1.68-3.78-4.48.22-1.66.22-3.31.32-5a13.81,13.81,0,0,1,.37-2.39c.7-1.86.43-3.94,1.19-5.77C356.89,125,357.5,123.15,359.94,123.53Z"/><path class="cls-36" d="M171,246.43c-.32,3,2.11,7.11-3.46,8-5,.76-7.8-.9-9.54-6-2.28-3.94-1.5-7.58,1.09-11A55.92,55.92,0,0,0,171,246.43Z"/><path class="cls-37" d="M159.1,237.36c-.23,3.7-1.56,7.28-1.09,11a6.83,6.83,0,0,1-1,.17c-2,.08-1.84,4-3.91,2.88s-.94-4-1-6c-.15-4.65-.18-9.31,0-14,.06-1.72-1.22-4.56,1.91-4.76,3-.19,1.6,2.61,2.14,4.12a8,8,0,0,0,1,1.58Q158.14,234.88,159.1,237.36Z"/><path class="cls-38" d="M154,260.38c1-1.81,1.63-6.22,3.89-.73.38.93.91.88,1.36.71,4.58-1.74,9.62-.18,14.17-2,1.6-.64,4.3-.36,4.3-2.56,0-2.48,0-5.37-2.43-7.18-1-.79-2.19-1.43-3.29-2.14,4.9-.53,7.49,4.64,12.24,5a8.12,8.12,0,0,1,4.8,1.92,16.39,16.39,0,0,0-9.54,7.06c-1.19,1.25-3.07.81-4.36,1.8A101.93,101.93,0,0,1,154,260.38Z"/><path class="cls-39" d="M311,217.47c0-.67,0-1.34-.05-2,2.48-1.86,4.21.69,6.12,1.29,3.89,1.23,5.19.55,4-3.51,2.92,2.33,3.35,6,4.95,9.08,0,2.19,0,4.37-2.29,5.6-2.55,1.38-2.77-2.06-4.17-2.21C314.42,225.14,314.68,219.29,311,217.47Z"/><path class="cls-40" d="M102.86,62.47c-2.24-2.57.68-4.41,1.44-6A70.17,70.17,0,0,0,108,45.71c3-1.21,7-3.75,9-1s-2.31,5.16-4.17,7.37C109.8,55.73,106.23,59,102.86,62.47Z"/><path class="cls-41" d="M328.94,252.43c2,0,3.95,0,5.93,0,4,0,8.77,1.23,8.3-5.6-.1-1.46,1.64-1.28,2.74-1.42,4.34,3.05,6,11.24,3,15-.79-.48-1.59,0-2.38,0-1.58-.1-3.71.67-4.41-1.19-.64-1.7,2-1.85,2.65-3.56a81,81,0,0,1-12-.45C331,254.94,329,255.05,328.94,252.43Z"/><path class="cls-42" d="M383.89,165.49c-2.42-.4-4.25-2.57-7-2.23a1.49,1.49,0,0,1-1.5-1.64c.1-1.11,1.11-1,1.9-1.11,5.58-1,7-3,4.79-8.06-1.23-2.87.52-2.65,2.07-3.08a21,21,0,0,1,5.67,6.12c-3.46,3.14-1.68,6.16.19,9.18l-1.39,1.76C386.74,167.77,385.3,166.74,383.89,165.49Z"/><path class="cls-43" d="M303.11,195.33a23.72,23.72,0,0,1-3.94.12c-4.63-.61-7,1.05-6.27,6-2.78-.65-5.72,1.47-7.46,1.27-4.64-.54-8.73,2-13.55.77-5.49-1.41-6.36.29-4.92,6-2-1.13-3.6-2.63-2.74-5.14s3.31-2.52,5.64-3c3.36-.68,7.61,3.21,10.1-1.86,3.7,1.86,7.15-2.18,10.85-.44a.61.61,0,0,0,.45-.11c.5-7.16,7-4.42,10.63-6.43C302.3,193.44,302.7,194.38,303.11,195.33Z"/><path class="cls-44" d="M311,239.44l0-5c3.89,2.45,6.06,7.82,11.88,7a2.1,2.1,0,0,1,.07,3c-.38,2.63,1.81,4.5,2.06,6.95-.46,1-1.39,1.17-2.29,1.45-4.89-.5-5.73-5-7.6-8.2-.9-1.58-1.49-3.24-3.1-4.25Z"/><path class="cls-45" d="M383.13,172.6c-3.37,1.11-6.43,3.78-10.36,2-2.52-2.91-7.43-2.43-9.16-6.46-.83-1.85-2.52-3.56-.93-5.81a3.06,3.06,0,0,1,2.06-.65,5,5,0,0,1,2.67,1.21C372.55,166.29,377.87,169.39,383.13,172.6Z"/><path class="cls-46" d="M328.94,252.43c5,2.47,10.3,2.07,15.59,1.57,1-.09,1.85-.71,3,0-.18,2.86-2.77,3.61-4.65,5,2,.94,4.39-.61,6,1.33-6,2.64-11.07.72-15.79-3.07,2-1.86,4.55.12,6.55-.82-2.48.26-5.11-.27-7.74-.05a6.61,6.61,0,0,1-5.11-1.81c-.46-.62-1.36-1.28-.83-2,.76-1.06,1.91-.85,2.94-.18Z"/><path class="cls-47" d="M178.94,260.23c1.46-5.11,4.67-7.65,10.13-6.86,1.53,1,3.47,1.93,2.09,4.19-1,1.71-1,4.65-4.75,3.68-1.41-.37-3.51.34-5.32.28C180.18,261.42,181.12,258.24,178.94,260.23Z"/><path class="cls-48" d="M249,237.48c-.44-7.72-3.93-10.93-12-11l-3-2.08a60.64,60.64,0,0,1,7.28.37c6.35,1.17,6.59,1,8.24-5.27.44-1.67-.28-3.72,1.44-5C250.76,222.16,251.6,230,249,237.48Z"/><path class="cls-49" d="M233.06,245.36a3,3,0,0,0-2.94,2.18c-.32,1.18,0,2.94-2,2.67-1.76-.24-2.43-1.87-2.66-3.22-.31-1.88.22-3.91-1.29-5.51a21.07,21.07,0,0,1,.15-7l2.7-1c.1,2.16-.48,4.73,2.93,4.94a1.43,1.43,0,0,1,.08,2.09c-.64,1.51-3,.22-3.46,2.13C228.18,244.83,232.12,241.59,233.06,245.36Z"/><path class="cls-50" d="M136,231.44c3.87,1.35,4.19,4.49,4,7.9-.09,1.78-.09,3.56-.14,5.34a40.28,40.28,0,0,1-9.76-13.29Z"/><path class="cls-51" d="M106.07,208.48c3.38-3,7.09-5.76,9.1-10.11,1.6-3.45,5.65-.85,7.91-2.89C119.8,202.94,113.73,206.76,106.07,208.48Z"/><path class="cls-5" d="M220,200.52c-.25-4.32-3.37-7.34-5-11.06-1.23-2.45-.41-3.62,2.28-3.62,3.13,5.47,9.51,9.89,5.72,17.61h0c-1.1.78-1.13,2.26-2.08,3.14C219.26,204.78,220.25,202.55,220,200.52Z"/><path class="cls-52" d="M383.89,165.49l4.76.94c-.77,2.45-2.69,3.86-4.74,5.14-2.22-.61-4.6-.9-6.63-1.86s-5.49-1.37-4.34-5.22C376.62,164.49,379.92,168.67,383.89,165.49Z"/><path class="cls-53" d="M390,164.67c-5.32-4.32-5.36-6.34-.19-9.18C394.32,158.46,393.57,161.54,390,164.67Z"/><path class="cls-49" d="M227.9,254.6c.44-1.5.51-3.82,3-2.18,1.35.9,2,.44,3-.31,3.07-2.35,4-.71,4.17,2.29-2.2,1.37-3.78,3.49-5.94,4.91l-2.26-.81A7.24,7.24,0,0,1,227.9,254.6Z"/><path class="cls-54" d="M249.05,261.47a4.52,4.52,0,0,0,4-4.13c2.25.49,4.94.13,6,3-3.24.46-1.43,3-1.92,5C254.59,263.44,250.77,264.88,249.05,261.47Z"/><path class="cls-55" d="M312,240.38c4,.92,4.53,5,6.22,7.71,1.3,2.08,2.35,3.69,4.65,4.41.26.2.35.42.28.63s-.17.33-.25.33c-7.51-1.68-8.37-2.69-9.32-10.12C313.46,242.31,312.56,241.37,312,240.38Z"/><path class="cls-56" d="M363.88,167.56a18.47,18.47,0,0,0,8.39,4.73c.82.18,3.78.83.5,2.32-3-.37-6.06-.73-8.82-2.17a7,7,0,0,0-3-3C360.19,166.22,361.89,166.67,363.88,167.56Z"/><path class="cls-57" d="M58.09,199.51c0,.32,0,.64,0,1-2.67,3.73-3.2,8.61-6.52,12-1.23,1.26-2,3.08-4.07,3.22l-.59-.4c2.08-4.24,3.32-8.93,6.44-12.61C54.59,201.23,55.85,199.57,58.09,199.51Z"/><path class="cls-58" d="M372.94,164.49c1.14,3.58,3.85,4.84,7.33,5,1.56.07,3.41-.35,3.64,2.07l-.78,1c-6.68-.76-11-5.65-16.21-9.11a2.43,2.43,0,0,1,3,0Z"/><path class="cls-59" d="M132,195.45c-1.52,1.65.27,3.92-1.35,5.88-1,1.18.57,2.87,2.58,3.11,4.59.54,3.06,2.19.66,4-.31-.94,1.49-2-.31-2.89-5.58-2.7-5.78-3.56-2.61-10.09Z"/><path class="cls-60" d="M331.93,256.44c3.61-2.28,7.35-.85,11.85-.76-3.75,3.33-7.29,1.81-10.66,1.63Z"/><path class="cls-51" d="M80.07,218.45c5.16-1.33,10.62-2.07,14-7l3,0C92,215.31,87.32,220,80.07,218.45Z"/><path class="cls-12" d="M71.07,190.47c-.66,1.67-1.33,3.33-2,5-2.43,1.69-4.81,3.53-8.07,2.93,2.57-1.64,6.37-1.81,6.44-6.3C67.48,190.47,69.52,190.31,71.07,190.47Z"/><path class="cls-57" d="M39.09,227.45l-1.09,0c1.54-5.09,5.5-8.4,8.9-12.11l.23.19c1,3-1.38,4.3-3,5.95C41.52,222.69,40.7,225.4,39.09,227.45Z"/><path class="cls-14" d="M204,103.54c-.12,1.44-1.23,2.52-2.27,1.83-2.7-1.78-6.08-1.12-8.7-2.87A43.54,43.54,0,0,1,204,103.54Z"/><path class="cls-54" d="M265,264.39c-4.13,1.84-5.05-1.09-6-4C261.59,260.82,263.77,261.88,265,264.39Z"/><path class="cls-61" d="M258.06,272.24c1.55-3.31,4.12-2.95,6.88-1.89C262.87,271.8,260.36,271.65,258.06,272.24Z"/><path class="cls-62" d="M220.91,206.59c.16-1.39,0-3,2.08-3.14-1.87,2.88.42,6.25-1.1,9.16C220.36,210.8,221.21,208.6,220.91,206.59Z"/><path class="cls-63" d="M178.94,260.23c2.14-1.93,2.16-.35,2.15,1.29-1.86,1.15-3.9.88-5.92.71C175.81,260.4,177.42,260.39,178.94,260.23Z"/><path class="cls-51" d="M97.09,211.51c2.59-2.22,6-2,9-3C103.77,211.53,100.4,211.43,97.09,211.51Z"/><path class="cls-41" d="M322.91,253.46a7.7,7.7,0,0,0,0-1,2.21,2.21,0,0,1,2.11-1.12c1.36.18,2.93-.42,3.94,1.05-1.58-.11-2.93,0-2.11,2.2A6.66,6.66,0,0,1,322.91,253.46Z"/><path class="cls-64" d="M103.16,47.69c-1.79,2.31-4.68,2.68-7,4A6.94,6.94,0,0,1,103.16,47.69Z"/><path class="cls-59" d="M140,199.46c-2.5-1.45-2.12-6.93-7-5-.76-4.46,1.12-7,5.3-8.76,3.62-1.52,6.87-4,10.16-6.17a3.29,3.29,0,0,1,4-.1,24.4,24.4,0,0,0,9.52,3.07c.16,3.7.29,7.38-4,9.17a1.51,1.51,0,0,0-.81,1.14c.39,4.4-2.07,6.63-5.84,8A12.63,12.63,0,0,1,140,199.46Z"/><path class="cls-65" d="M121.09,156.47c1.39-1.64,3.29-.7,5-1,1.3-1,.73-2.51,1.08-3.78-.39-7.38,3.89-13.57,5.36-20.51.9-4.26,11.67-9.34,16.18-8.76a4,4,0,0,0,2,0c8.47-3.51,12.14,2.17,15.57,8.17a2.87,2.87,0,0,0,2.3,1.57c1.53.4,3.08.78,3,2.86-1.19,2.3-2.7,4.29-5.27,5.2-1.83.3-4.56-1.51-4.78,2.5-.06,1.07-2.48,1.53-3.89,1.53-4.5,0-7.73,2.16-10.37,5.52-1.46.62-2.47-.19-3.6-1-4.06-2.79-7.52-1.4-7.84,3.42-.21,3.14-.68,5.39-4.46,4.63-1.63-.33-.94,3.52-3.2,1.59-1.75-1.83-4-.68-6-1Z"/><path class="cls-66" d="M128.09,158.51c2-.38,2.19-4.43,5.41-2.47.48.29,1.57-1.15,1.11-2.29-1.76-4.29,1.38-6.29,4.17-7.86,3-1.67,4.8.77,6.43,3,.31.43,1.21.42,1.84.6,3.57,1.33,3.64,5.09,5.34,7.72,2.07,3.2,1,5.85-1.63,8.26-1.42,1.27-.26,3.63-1.72,5-4.84,1.6-13.11-1.3-17-6C130.76,162.49,128.33,161.21,128.09,158.51Z"/><path class="cls-2" d="M127.89,172.21c0,1.86-.56,3.24-2.17,2.89-2.11-.46-4.06-1.59-4.56-4a2.46,2.46,0,0,1,2.37-3.13C126.5,167.79,126.85,170.58,127.89,172.21Z"/><path class="cls-67" d="M149,170.49c-.79-3-.94-5.88,2.35-7.62,1.61-.85,1.43-1.9.71-3.27-1.74-3.34-3.37-6.73-5-10.11,1.23-3.8,3.56-6,7.83-6a35.49,35.49,0,0,0,6.16-1.1c.59-2.3-2.58-1.22-2.43-3.17,2.52-1.65,4.95,0,7.41.34,3.1.45,3.53-2.43,5-4-.08-2-1.54-2-3-2-2.12-3.22-.86-5.22,2.37-6.5,6.81-2.7,8.89-2.17,14.88,5.19,2.22,2.71,4.08,4.43,7.84,3.23,2.46-.78,4.89.83,4.09,3.31-1.71,5.28,1.36,6.49,5.2,7.52,1.62.48,3.31.81,4.62,2-.7,4.12-4.66,1.73-6.34,3.64,1.4,1.3,2.7,2.68-.95,3.66-2.65.71-5.61-.39-8,1.49a11.39,11.39,0,0,1-8.71-.26,12.92,12.92,0,0,0-5.32-1.17c-4.12.15-7.51-.56-8.88-5.31-.65-2.27-2.76-2.22-4.46-.87a6.3,6.3,0,0,1-4.72,1.58c2.54-.11,3.48.78.13,4.26,5-2.74,7.46-1.16,9.19,2.57,1.35,2.93,3.09,2.92,5.27.56s5.73-3.14,8.16-1.42c1.69,1.2,2.77,2.54,5.13,2.56a29,29,0,0,1,7.81,1.58c.38.4.32-1,0-.4-2.75-2.06.35-3.06.83-4.53,3.47-.41,7.12-2.29,10.16,1.17.2.23.73.36.92.19,4.11-3.94,8.1-.15,12.11.23,1.92.18,3.77.25,5.08-1.28,3.26-3.82,6.89-8.4,6.68-13-.31-6.89,2.16-12.51,4.45-18.46l.48-.53h2a4.11,4.11,0,0,1,.65,5.42c-1.86,3.3-2.08,6.75-1.89,10.52.26,5.13-2.82,9.37-4.92,13.83-1.58,1.68-2.27,4-3.78,5.69-1.56,1.15-1.09,3.14-1.88,4.6a.88.88,0,0,1-1.17-.09c-7,1.28-14,3.05-21.35,3.29,1.38,2.91,4.38.62,5.76,2.52-3.7,3.17-11.24,4.16-14.6,2-.76-.48-1.2-.78-.75-1.88,1.82-4.44-1.43-3.14-3.07-2.27a17.79,17.79,0,0,0-9,10c-4.4-5.08-3.81-8.39,2.79-14.79-3.54-1.49-6.69-3.18-9.06,1.58a4,4,0,0,1-4.14,2.24c-4.38-.53-3,2.15-2.55,4.34-.79.17-2.13.12-2.29.54-2.9,7.47-4.57.9-6.67-.54a3.86,3.86,0,0,1-1.54-1.17c-2.18-2.68-3-1.27-3.46,1.15C153,171.51,150.91,171.69,149,170.49Z"/><path class="cls-21" d="M202,147.49c-2.87-.67-5.92-1-6.45-4.93-.1-.75-2-1.25-3-1.85.21-1.33,1.19-1.06,1.93-1.19.91-.16,2.29.09,2-1.4-.2-1.14-1.3-2.53-2.41-1.9-8.4,4.8-10.39-3.95-13.42-7.43-3.82-4.38-6.45-.63-9.46-.72-3.46-.09-3.39,2.86-3.2,5.43-1.51-.19-3.07.39-3.43-2.31a9.61,9.61,0,0,0-12.76-7.55c-1.26.47-2.4,1.16-3.74.3-4-2.57-6,.38-8,3-.6.79-1.06,2-2,2-4.74.18-5,3.74-5.76,7.1s-.93,6.8-3.55,9.56c-1.82,1.9,1.46,4.8-.73,6.95-5.46-1.41-7.22-4.13-5.83-9.11a21.26,21.26,0,0,1,1.49-4.74c1.52-2.75,1-4.63-1.44-6.82-6.28-5.49-5.11-9.86,2.35-13.2a56.47,56.47,0,0,1,24-5.17c3,0,5.78,1.29,8.81,1.19,1.69-.06,3.28.1,4.62-1.12,4.61-2.59,1.45-5-.53-7.35A40,40,0,0,1,179,103.55c-1.19,1.12-2.74,2-3.52,3.39-3.16,5.53-1.55,8.12,4.69,9.69,5,1.25,10.28-.19,15,2.39,1.72.93,2.56-1,3.73-1.79a2.84,2.84,0,0,1,3.25-.28c1,.66.19,1.82.35,2.67,1,5.32-1.65,9.94-2.53,14.89,2.71,2.17,5.82,3.64,6.68,7.82.92,4.48,1.32,4.58-3.34,4.59A1.89,1.89,0,0,0,202,147.49Z"/><path class="cls-68" d="M202,147.49c6.2-1,2.79-5.23,2.56-8.23-.12-1.59-1.84-1.51-3.11-1.85s-3.24-.8-1.48-2.9c1.4-1.4,1.47-3.79,4.32-4.22,2.6-.39,2.06-3.41,2.18-5.36.07-1.22-.88-2.66-.18-3.84,1.58-2.66-1-7.18,1.86-8.22,4.92-1.78,10.19-3.64,15.73-2.23A21.31,21.31,0,0,1,234.71,117c2.15,2.35.89,5,1.28,7.57h0c-2.75,3.35-2.87,8-6,11.37-1.38,1.46-1.69,5-1.23,7.88.82,5.24-1.26,6.93-6.14,9.09-6.81,3-10.85-1.31-15.57-4.35Z"/><path class="cls-69" d="M350.94,102.52c-3,1-1.78,2.15,0,2.83s2.92,1.24,3,3.19c-4,2-8.06-.17-12.09-.1-1.95,0-3.92-.58-5.91-.69-2.64-.16-5.52-.91-5.88,3.16a1.47,1.47,0,0,1-.87,1.17c-4,1.15-4.6,5.08-6.55,7.91-2,1-2.9,2.17-2.93,4.78,0,2.94.21,6.23-1.74,8.93-2.15-.09-2-1.87-2.24-3.23a23.41,23.41,0,0,0-1.35-5.25c-1.15-2.8-2.87-4-5.64-1.69-.85.72-1.7,1.66-3,1-1.43-2.37.35-4.78-.1-7.16a7.59,7.59,0,0,0-.65-2.81c-.37-.74-.88-1.53-1.76-1.4-1.29.19-1.14,1.36-1.16,2.31,0,2.09,1,4.09.6,6.23-1.25,1.57-3.22,2.53-.56,5.17,1.67,1.67.74,5.3,1.42,8a1.62,1.62,0,0,1-.88,1c-1.83,0-3.64-.14-4.54,2.08-1.17,2.85-3.3,2.48-5.27,1.08-3-2.15-5.81-4.52-5.3-8.87.14-1.15,0-2.48-1.18-3s-1.73.67-2.4,1.32c-1,.93-2.09,2-1,3.4,1.51,1.92,2.85,3.76,1.08,6.2-2.21,1.66-4.52,2.15-6.85.36s-1.26-4.19-.69-6.41a23.43,23.43,0,0,0,.82-4.39c.44-7.16,1.76-8.57,8.74-9.34a5.33,5.33,0,0,0,2.86-.79,39.54,39.54,0,0,0-7.4,1.52c-4.1,1.07-6.21-1.07-5.24-5.16.7-3,0-4.75-3.12-5.55-1.88-.48-3.87-1-5.17-2.75l1-1.92,6,0c8.07,3.89,16.59,3.31,25.13,2.54a3.69,3.69,0,0,1,2.87.44c3.36.72,6.5,2.42,10.12,2.12a3.49,3.49,0,0,1,2.56,1.22c3,3.87,4.8,3.34,7.77-.62,2.38-3.17,4.72-8.66,10.9-5.89.92.42,1.82-.56,2.55-1.25s1.94-2,3-1.46C343.39,102.41,347.42,100.91,350.94,102.52Z"/><path class="cls-70" d="M268,105.51c2.87.74,5.89,1.12,8.56,2.31s1,4.11,1.32,6.25c.17,1.18-2.73,2.08-.59,3.14,1.3.64,3.28,1.86,4.68.59,2-1.84,4.94-.6,6.91-2.48,1.07-1,2.24-.44,2.76.85a2.11,2.11,0,0,1-1.58,3.08,32.5,32.5,0,0,1-4.95.29c-5.1.27-6.48,2-6.32,7.08.07,2.09-.64,4.21-1.09,6.3-.32,1.49-2.08,2.84-.26,4.49,1.62,1.48,3.31,1.19,5.09.39a5.81,5.81,0,0,1,1.46-.28c2-.13,1.83,1.47,2.2,2.66-.22,2.85,1,5.47,1.39,8.21-.23,1.74-.18,3.56-1.28,5.08-1.27.72-2.25,0-3.14-.74-1.53-1.24-2.39-2.65-4.57-.07-1.69,2-4.62.66-5.25-2.15-1.32-5.94-5.28-10.19-9.08-14.43-6.28-7-7.41-14.8-2.73-23,1.23-2.15,1.58-4.76,3.48-6.55Z"/><path class="cls-71" d="M247,110.53c3.31.8,7.54-3,10,2-.24,5.28-.81,10.56-3.67,15.11-2.36,3.75-.67,7.47-.6,11.17,0,1.78,2,1.58,3.22,1.41,5.89-.77,10,3,14.6,5.52,2.08,1.14,2.62,3.45,2.92,5.57a9.18,9.18,0,0,0,4.87,7.07c.6,3.14,1.57,6.38-2.25,8.32-1.18-1.12-2.11-2.28-4.22-1.64-9,2.71-18.5,3.6-26.91,8.21-1.3.71-2.9,1.46-4.09,0s-.53-3,.67-4c3-2.49,2.25-5.85,2.4-9a3.52,3.52,0,0,1,2-.56c6.05-.4,12.2,1,18.17-.95-2.06-1.93-2.06-1.93-7.29-1.89-3-.13-6,.26-8.94-.34-1-.21-2-.61-2.15-1.76-.19-1.51,1-2,2.16-2.24,2.43-.62,4.95-.16,7.5-.51-6-1.2-11.52-9.35-10-15.22,1.64-6.17.71-12.6,2.3-18.7.89-3.4-2.79-4.7-2.91-7.52A1.55,1.55,0,0,1,247,110.53Z"/><path class="cls-72" d="M246,160.5h-2c-1.13,1.29,0,4.33-3.14,4.07-1.43-3.51-.34-6.67,1.25-9.82,1-1.95,4.16-4.44.58-6-2.56-1.14-5.78.14-7,3.6-.8,2.31-2,3.86-4.7,2.17.67-1.83,1.3-3.67,2-5.49,1.4-3.58,3.5-6.87,2.18-11.17a8.37,8.37,0,0,1,1.76-7.4c1.79-2.06,1-3.92,1.06-5.91,1.15-2.33,1.47-5.1,4.44-6.37.84-.36,2.45-2,1.69-3.69-.54-1.18-2-.93-3.13-.94-1.34,0-1.27-.82-.75-1.52a3.77,3.77,0,0,1,4.72-1.44c5.88,2.47,4.59,7.21,3.58,11.73-1.21,5.47.34,11.3-2.4,16.6-.74,1.44.57,2.74,1.6,3.9,1.34,1.52,3.31,2.66,2.25,5.47-.73,1.92,1.67,1.43,2.61,1.88,2,1,4.71-.35,6.64,2-3.87,2.88-8.67.26-13.8,2.4,4.51,1.6,8.08.72,11.51,1,1.27,2.5-.92,2.76-2.3,3.32A24.36,24.36,0,0,1,246,160.5Z"/><path class="cls-73" d="M278,158.52c-3.35.18-4.76-1.84-5.31-4.76-1.19-6.39-7.71-12-14.18-12.24-.84,0-1.67,0-2.5,0-2.77-.22-4.58,1-5-4.48-.65-9.3,4.89-16.18,6-24.49.11-5.42,4.33-5.33,8-6-.86,3.39-1.63,6.56-4,9.59-1.71,2.16-2,5.76-.66,9.55,2.9,8.22,8.95,13.94,13.83,20.62a2.31,2.31,0,0,1,.42,1.8c-.81,2.31-.55,4.16,2.24,4.25,3.78.12.82-3.07,2-4.57,3.17.93,4.39,4.36,7.16,5.73,3,1.3,1.93,4.68,3.52,6.71.07,6.15-4.24,2.1-6.51,2.8C280.21,162.7,279.21,160.47,278,158.52Z"/><path class="cls-68" d="M245,110.57c-.92,1.53-4.33-.29-4,3-2.11,2.28-6.36,1.36-8.92-2.1-.84-1.14-2-2.51-1.5-4s2.32-.64,3.53-.91c4.29-.94,8.44-2.75,13-2,1.41.23,3.41-.52,4,1.11.72,2-1.9,1.8-2.66,3-.45.68-1,1.3-1.49,2Z"/><path class="cls-74" d="M231,154.5c1.32,0,3.58-.1,3.33-1.27-1.06-5.06,3.45-4.46,5.7-6.06,1.72-1.22,3.46-.75,4.85.79s1.67,3.42.15,4.86c-3.39,3.25-3.52,7.5-4,11.67-.37,6.58-2.09,12.43-8.4,15.86a7.43,7.43,0,0,1-4.16,1.25c-4-.25-6.38,1.66-7.61,5.31a2.41,2.41,0,0,1-2.8-.43c-2.23-.23-3.23.77-3,3-6.4-4.22-12.67-8.77-21-8,3.71-2.64,7.75-.78,10.93.4,6.52,2.43,11.63,1.15,16.17-3.51,3.1-3.17,7.31-4.81,10.45-8.31-4.33,1.74-8.58,2.85-13.37.54,2.29-2.16,6.88-1.77,6.8-6.09h1c1.78-1.38-.46-3.55,1-5C229.17,158.51,228,154.84,231,154.5Z"/><path class="cls-75" d="M344.94,169.49c-5.14-4.79-11.28-8.5-18.18-6.69s-14.39,3.24-19.66,9a7.57,7.57,0,0,1-6.15,2.66,2.84,2.84,0,0,1-.67-1.27,2.65,2.65,0,0,1,1.24-2.45c3.29-2.9,8.2-3.92,9.94-8.61,1.84-2.43,3.71-4.67,7.36-3.66,2.61.73,3.46-1.14,4-3.21.93-3.42,2.89-3.61,6-2.54,5.5,1.86,9.67,5.64,14.15,8.94a11,11,0,0,0,7.27,2.48l.63.34C352.76,170.76,348,169.12,344.94,169.49Z"/><path class="cls-75" d="M363.88,167.56c-1.45-.08-2.87-.1-2.95,1.92a2.83,2.83,0,0,1-1-2.12c-.93-5.18-3-5.83-9-2.86l0,0c-1.26-1.59-.68-3,.51-4.27a7.68,7.68,0,0,1,3.58-1.64c3.3,0,6.18.83,7.92,3.95C362.43,164.34,363.71,165.84,363.88,167.56Z"/><path class="cls-76" d="M58.64,212c.67-3.34,1.17-5.7,3.89-6.11.26-2.25-3.67-.44-2.28-2.7.94-1.54,1.21-4.5,4.57-3.75,2.4.53,2.05,2.07,2.28,3.69C68,209.29,62.78,209.47,58.64,212Z"/><path class="cls-8" d="M44.09,221.44l3-5.95a25,25,0,0,0,7.2-10.11,8.54,8.54,0,0,1,3.75-4.91c.38,9-6.8,13.63-11.36,19.78A3.22,3.22,0,0,1,44.09,221.44Z"/><path class="cls-77" d="M162,113.54c-1.9,3.26-5.17,2.35-7.63,1.76-12-2.9-22.47,1.68-33,6.14-3.13,1.33-2.59,7.07,1.27,9.21,4.18,2.31,4.62,4.22,2.27,8.5-4,7.28-3.43,8.13,3.07,13.36,0,1.45.06,2.91-2,3A70.17,70.17,0,0,1,114.73,143c-1.23-1.8-4-1.2-6-1.86-1.75-.56-4.42-1.19-3.8-3.66.56-2.24,2.67-1.88,4.5-.88a2.2,2.2,0,0,0,3.32-1.09,2,2,0,0,0-1.9-2.85c-5.74-.44-6.71-5.38-7.36-9.14-.75-4.31-2.76-8.06-3.91-12.13-1.08-3.82-5.88-5-9.18-7a8,8,0,0,1-3.92-9.22c2-9.07,1.67-18.3,2.57-27.44.19-2-.32-4.08,2-5.15,1,9.66-2.21,19.31,0,29-4.69,4.93-4.22,7,2.2,9,2.28.7,1.57,3.65,3.08,4.11,7.45,2.29,6.53,8.82,7.82,14.34,1.16,5,6.51,6.78,10.94,4,1.22-.77,2.22-1.44,1.61-3.12-.89-2.48.38-4.09,2.34-5.36,2.06,1.18,3.79.9,6-.21,4.12-2.08,8.6-2.49,13.37-2C146.25,113.13,154.15,113.17,162,113.54Z"/><path class="cls-78" d="M155.07,171.47c-.61-1.6-2.36-4,.14-4.56s4.21,2,4.86,4.58C158.39,175,156.74,170.83,155.07,171.47Z"/><path class="cls-79" d="M232,179.47c5.25-2.44,6.13-7.7,7.9-12.35.33-.9.12-2,1.1-2.63l3-4c3.29,3.7,1.66,6.62-1.5,9.24-1,.8-1.93,1.74-1.12,2.88.94,1.34,2.19.15,3-.38,7.72-4.88,16.81-5.21,25.22-7.76a8,8,0,0,0,2.33-.67c3.8-2.71,4.08-.31,4,2.68.43,5.83-4.31,3.19-6.47,4.16,5.57.07,10.9,4.91,10.46,9.83h-3a6.22,6.22,0,0,1-2.54-.18,8.46,8.46,0,0,0-4.35-.36c-2.21,1.28-4.73-1.24-6.94.57-.62-.06.1,1-.13.39,1.77-.61,3.15-.25,3.94,1.58-.69,1.83-3.08,2.65-3,5-3.22.34-6.14-.71-9-1.94-.88.26-1.28-.26-1.57-1-.26-1.87.63-2.62,2-2.47-1.93.05-4.43-.49-6.56,1.2a3.52,3.52,0,0,1-2.71-.39c-.5-.45-.76-1.09-1.22-1.54-1.11-1.1-3.93-.51-3.73-2.53s2.78-2.25,4.86-3.11a20.08,20.08,0,0,0-9,3.52c-1.48,1.06-3,2-5,1.45a.73.73,0,0,1-.26-.8C231.8,179.61,231.89,179.47,232,179.47Z"/><path class="cls-80" d="M302,171.48a2.12,2.12,0,0,0-1,2c-1.7,1-3.22-.08-4.73-.49-8-2.19-8.05-2.23-9.79,6.08-.57,2.76-1.79,3.85-4.5,2.45l-1-1c-1.19-3.17-.36-6.8-2.24-9.82a3.43,3.43,0,0,1,2.13-1.76c1-.33,2,0,3.16-.25-.88-2-2.4-3.9-1-6.19,1.06-1.44,2.16-1,3.38-.17,2.25,1.48,2.35-.35,2.64-1.81.05-1,.23-1.95,1.39-2.27,1.49.41,1.79,1.83,2.48,2.93s1.37,2.06,2.74,1.49a2.73,2.73,0,0,0,1.52-3.33c-.38-2.12-1.54-4-1.92-6.15s-.65-4.45,1.57-5.8c2-1.23,3.36.38,4.7,1.63.69.65,1.36,1.73,2.45,1s.68-1.79.55-2.76a29,29,0,0,0-1.76-5.68c-.71-2-1.49-4.12.24-6.08H303c2.42,0,2.36,3.25,4.62,3.43,3.29,5.08,3.62,11.45,7.24,16.38.73,2.58-.5,4.42-2.29,6-1.32,3-2.62,5.84-6.6,6.13C303.75,167.67,303.88,170.72,302,171.48Z"/><path class="cls-81" d="M282.94,162.51c1.44,1.48-.47,4.56,3,5.35,1.7.4.35,1.85-.65,2.33-1.5.72-2.75-.76-4.2-.72-1.22-.79-1.69,0-2.05,1,4.39,2.65,1.9,6.61,1.93,10.09-.33,0-.65,0-1-.05-1.83-5.44-5.77-8.18-11.58-8.06-1.2,0-2.66-.08-2.78-1.42-.21-2.21,1.75-1.28,2.84-1.48,2.72-.5,6.45,1.55,7.53-3,2.55-2.19.92-5.41,2-8Z"/><path class="cls-82" d="M254,204.47c0-2.95-.21-5.48,2.81-7.85,3.43-2.69-1.35-2.65-2.62-4.35,3.68-1.22,6.84-3.31,10.78-2.79,2.9,4.59,2.48,6.67-2.2,8.86C259.47,199.88,257,202.54,254,204.47Z"/><path class="cls-81" d="M281.93,181.52c2.35-.12,4.27-.27,3.37-3.73-1-3.95,3.17-5.75,4.43-8.83a2.12,2.12,0,0,1,1.7.14c2.38,3.26,6.61,2.37,9.52,4.38,0,.33,0,.67,0,1-4.42-.09-8.09,2.52-12.25,3.48-2.86.66-1.37,4.79-3.32,6.8C283.73,184.27,282.83,182.89,281.93,181.52Z"/><path class="cls-83" d="M274.91,179.52a2.12,2.12,0,0,1,2.08,1c.08,2.65-.06,4.78-3.8,3.28-1.93-.78-4.31,0-6.22-1.28s-4-.77-5.78-1.18c1.66-5.13,6.13-1,8.9-2.74C271.63,179.23,273,180.86,274.91,179.52Z"/><path class="cls-84" d="M322.94,244.43c0-1,0-2-.07-3,.46-3.39-.78-7,1.21-10.18.77-1.23,1.6-2.88,3.36-2.32a3.38,3.38,0,0,1,2.41,3.89c-.55,3.25-.55,6.58-1.09,9.78S325,244,322.94,244.43Z"/><path class="cls-62" d="M232,180.48c3.8-1.13,6.42-4.52,10.45-5.34,2-.39,3.76-1.19,6.23.56l-6.81,3c.85,2.17,6.27-1.54,4.13,3.78a2.36,2.36,0,0,1-2.26.61c-2.45-.48-3.43.17-2.35,2.75.56,1.32-.88,1.88-1.36,2.75,2,.55,4.31.26,6,1.93-1.08,1.48-2.84.59-4.14,1.21-1.07.51-2.39,1.41-.91,2.53,3.47,2.61-.17,3.44-1.1,4.84-1.81,2.73-2.38-.35-3.39-.92-1.38-.77-3.18-1-3.95-2.46-.05-2.64,4.07.65,3.07-2.19-.69-2-2.71-.92-4.18,0a2.26,2.26,0,0,1-1.75.4c-.86-.42-1.64-1.49-2.25.12-.45,1.2.57,1.74,1.38,2.32,1.17.82,2.33,1.66,3.55,2.54-1.69,1.39-4.41-2-4.74.69-.38,3,2.92,4.46,5.12,6.12,1,.74,3.28-1,3.27,1.73a2.17,2.17,0,0,0-2,1c-1.73,1.34-2.84.08-4-1-2.87-.39-3.7-4.31-7-4,2.35-6.83-5.11-10.79-5-17l3,0c2.79-3,5.89-2.85,9-.63C231.66,184.19,229.46,181.47,232,180.48Z"/><path class="cls-85" d="M246,190.5l-10.5-1.4c3.51-1.59,7.1-2.47,3.13-6-1-.84.52-1.7,1.55-1.6,2,.2,3.89.62,5.83.94l3,.07c1.65.64,3.65.43,4.93,2l1.05,1-1,1.91c-2.08,2.06-5-1.26-7,1.08Z"/><path class="cls-86" d="M247,188.49c-.27-.9-.89-2.07.85-1.93,2.07.16,4.11.56,6.17.85l4,.93C254,192,250.48,188.75,247,188.49Z"/><path class="cls-4" d="M303,106.53c-6,2.65-12.43.17-18.61,1.59-3.8.87-6.33-2.83-9.39-4.57C284.43,103.3,293.69,105,303,106.53Z"/><path class="cls-87" d="M232.05,259.31c1.6-2.11,1.86-5.81,5.94-4.91,1.26-1.07,2.45-2.25,3.8-3.18,2-1.39,3.43.28,4.77,1.37,2,1.59.13,2.58-.83,3.54-1.17,1.16-2.49,2.16-3.74,3.23Z"/><path class="cls-88" d="M369.94,163.47l-3,0-2-1c-2.89-.87-3.17-2.57-1.36-4.72,2.47-2.94,3.26-6.42,3.86-10.48-2.77-.09-4.64,1.12-6.47,2.46-1,.69-1.87,1.64-2.82,0-.76-2.2-.79-4.31.77-6.21.87-3.45,3.17-4.09,6.26-3.17a.47.47,0,0,1,.79.17c5.29,2,5.57,5.51,3.5,10.29-1.13,2.6-.74,5.79-2,8.51C366.33,161.87,369.13,162.09,369.94,163.47Z"/><path class="cls-89" d="M362,136.63c-1.66-1.82-5.09-3.69-1.89-6.23,2.5-2,5.78-1.25,7.71,2L366,134.55C365.24,136.36,364.2,137.67,362,136.63Z"/><path class="cls-90" d="M362,136.63c1.73.05,2.65-1.5,4.06-2.08,2.69-.21,4,1,3.93,3.73-.09,3-2.32,2.09-4,2.24a1.43,1.43,0,0,0-.79-.17C364.93,138.39,360.87,139.74,362,136.63Z"/><path class="cls-91" d="M250.12,211.22c-4.26,3.92-8.22,1.78-11.93.51-1.48-.51-.8-1.51.59-2.31C243.05,207,245.89,211.12,250.12,211.22Z"/><path class="cls-92" d="M230,207.45l4,1c1.45,3.39-2.46,1.56-3,3A6.14,6.14,0,0,1,230,207.45Z"/><path class="cls-93" d="M230,215.45c-.25-.57-.78-1.2-.69-1.71.26-1.46,1.2-.44,1.74-.22a6.53,6.53,0,0,1,3,2.9C232.1,218.61,231.41,215.52,230,215.45Z"/><path class="cls-94" d="M230,240.46c0-.69-.05-1.39-.08-2.09.8-2.88,1-6.1,5-6.8s6.5.47,7.73,4.23c.94,2.85.53,4.84-3.24,4.65C236.25,240.29,233.12,240.45,230,240.46Z"/><path class="cls-95" d="M321.94,119.53c.37-.55,1.17-1.25,1-1.63-1.6-4.63,2.17-4.74,4.78-5.92.69-.32,1.74-1.3,1.63-1.73-1.44-6,2.82-3.89,5.33-3.69,6.42.51,12.82,1.3,19.22,2,4.1.68,7.4,2.29,8,7-1.43.76-2.47-.59-3.75-.67q-1-.14-2-.3c-2-.51-4.21-.69-5.85-2.24-4.32-4-8.51-1.5-12.72.24-2.25,1.16-4.65,2-7,3.06-1.92,1-3.21,2.75-4.81,4.12-1.18,1-2.15,2.63-4.14,1.75A1.56,1.56,0,0,1,321.94,119.53Z"/><path class="cls-96" d="M356.94,113.55h2c.68,2,3.2,3.35,2,6-1.43,1.08-.81,2.65-1,4-4,1.83-2,6.3-4,9a1.44,1.44,0,0,1-1.79-1.71c1.19-4.37-1.55-7.89-2.33-11.82a4.32,4.32,0,0,1,.57-2.1C354.8,117,356.56,116.23,356.94,113.55Z"/><path class="cls-35" d="M360.91,119.5c0-2.2-2.59-3.55-2-6l3,2C361.79,116.9,362.42,118.48,360.91,119.5Z"/><path class="cls-97" d="M352.93,118.53c.1.81-.1,1.94.36,2.39,2.89,2.79,3.09,5.93,1.73,9.47a1.9,1.9,0,0,0,.91,2.13c0,.67,0,1.33,0,2a21.65,21.65,0,0,0-1.77,5.53c-.59,4.3-3.18,4.69-6.57,4.91-3.7.24-5.12-2-5.77-4.9-.77-3.48-3.06-5.33-6.09-6.61-1.91-1.7-4.28-2.32-6.66-3.08-3.7-1.19-4.27-3.35-1.75-6.29a78.93,78.93,0,0,1,7.71-7.7c1.27-1.12,2.75-2.12,4.41-.76s1,2.9-.1,4.33c-.8,1-1.9,2.2-.92,3.52,1.3,1.74,2.66.11,3.95-.31.79-.26,1.61-.76,2.38-.58,3.83.9,4.66-1.72,5.44-4.46A2.3,2.3,0,0,1,352.93,118.53Z"/><path class="cls-98" d="M335.94,132.52c4.15.78,6.55,3.06,7.13,7.43.23,1.69.61,4.64,3.35,3.67,2-.72,6.52,2.59,6-3.43-.14-1.79,2.23-3.78,3.46-5.67-.09,1.78.17,3.67-.33,5.34-1,3.36,1,3.58,3.33,3.66l0,7c-.15,3.52-1.8,6.35-4.06,8.9l-2.91,1.3c-4.44,2.63-7.05-1.53-10.44-2.8,0-2.45-1.23-4.47-2.29-6.55-.46-1.36-.53-3.05-2.22-3.54-2.77-.82-3.42-3.26-4.45-5.44a7.13,7.13,0,0,1-.45-1.35,4.47,4.47,0,0,1,.52-3.44C335.57,137.12,335,134.33,335.94,132.52Z"/><path class="cls-58" d="M354.83,159.39c.14-3.52,2.5-6,4.06-8.9,1.41-3.91,5.59-3.61,8.41-5.33,1.61-1,1.77,1.16,1.53,2.1-.95,3.79-.81,8.08-4.13,10.91-2,1.71-1.44,3,.24,4.31l-2,0C360.26,161.37,357.92,159.4,354.83,159.39Z"/><path class="cls-21" d="M157.29,136.2c-1.83-1.47-5.28,2.1-5.48-.86s3.76-1.17,5.68-2.1c1.18-.56,2.5-1.18,3.74-.25.87.66.25,1.5-.12,2.19C160.16,136.93,158.67,136.46,157.29,136.2Z"/><path class="cls-21" d="M171,135.51c-.07,3.33-1.29,5.22-5,4C168.29,138.93,168.47,135.74,171,135.51Z"/><path class="cls-99" d="M207,148.51c1.29.08,2.86-.41,3.74.79,3.49,4.75,8,3.31,12.43,2.17,2.64-.67,5.48-2.76,4.54-4.9-1.55-3.52,1.5-7.15-1.08-10.28-.21-.24.05-1.27.11-1.27,6.9-.15,3.9-9,9.24-10.5,1.31,4.2-2.63,6.86-3.14,10.56-.15,1-1.2,2.21-.77,3.26,2.91,6.95-2.28,11.56-5,16.7s-6.08,5.74-12.68,3c-2.15-.89-4.16-3.57-5.4,1-.26,1-3,.88-3.55-.06-2.37-4.4-6.28-1.81-9.44-2.43a2.75,2.75,0,0,1-4-.06c-.69-1.54-.08-2.47,1.44-1.85,2.72,1.12,5.13.2,7.74-.42-.52-2.89-3.69-.71-4.81-3C199.8,149.65,203.85,150.59,207,148.51Z"/><path class="cls-5" d="M192,156.49l4,.06c1.11,1.37-3.07,4.87,2.54,4.44-6.3,1.59-11.73-1.3-17.37-.36-.16-1.71,2.14-1,1.91-2.84-3.45-.42-6.87-1.28-9.22,2.86-1.52,2.69-3.39,2.27-4.88-.24-2-3.41-3.36-8.17-8.93-4.16-.8.58-2.06,0-2.44-1.09-.55-1.53.76-1.5,1.69-1.67a2.35,2.35,0,0,0,2-1.22c-1.15-1.53-2.93-.15-4.46-1.4,3-.48,5.67-.63,7.55-3.44,1.32-2,6.48.23,6.09,2.68-.47,3,1.65,4.14,3.18,4C180,153.39,185.64,157.9,192,156.49Z"/><path class="cls-5" d="M227,159.5a7.37,7.37,0,0,0,.67,2.63c2,2.73-.23,2.21-1.67,2.36C225.7,162.7,224.91,160.81,227,159.5Z"/><path class="cls-100" d="M302.92,135.52a13.65,13.65,0,0,0,1.32,6.74,18.17,18.17,0,0,1,1.63,5.67c.17,1.48.88,3.57-1.26,4.33-1.92.68-3-.68-3.95-2.18-.76-1.17-1.59-2.9-3.44-2-1.6.82-1.45,2.57-1.11,4a22.51,22.51,0,0,0,1.81,5.13c1.57,3,1.42,5.55-1.82,7.07-3.74,1.75-3.77-1.9-5-3.77-.43-.67-.76-1.4-1.14-2.11a2.34,2.34,0,0,1-.73-1.9,14.39,14.39,0,0,0-2.39-10.2c-1.36-1.88-1-4-1.89-5.87-.07-1.08.12-2.26-1-3-.11-1.28.49-2.93-.82-3.69-4.57-2.66-2.39-4.56.42-6.78,1.08-.85,1.74-3.2,3.27-2.11a5.8,5.8,0,0,1,2.27,5.36c-.43,3.26,2.84,8.06,5.88,8.7,1.33.29,1.78-.2,2-1.4C297.63,133.2,300.07,133.75,302.92,135.52Z"/><path class="cls-101" d="M342,157.48c3.79-.39,5.87,4.48,9.94,3.21a6,6,0,0,0-1,3.78c-2.77,1.54-5,1.13-7.6-.94-4.71-3.72-9.27-7.66-15.19-9.76-3-1.06-3.82-.9-4.17,2.06-.42,3.62-2,5.65-5.9,3.72-3.32-1.64-3.81,2.48-6.09,2.94-.27-.22-.37-.44-.28-.67s.18-.34.27-.34c1.36-1.76,2.43-3.62,2-6,0-7.61,2.69-15.16.47-22.81-.53-1.85-.41-4.42-2.72-4.9-2.57-.54-2.94,2.12-3.91,3.75a2.52,2.52,0,0,1-1.45,1.25c-3.48-2.95-3.57-4.9-.38-8.26.5-.4,1.21-.69,1.48-1.21,1-1.92,2.32-3.17,4.63-2.73s3,2.38,3.73,4.12c1.18,2.8.52,6.09,2.15,8.81a3.76,3.76,0,0,1,1.22,2.69c1,9.26,3.82,12.17,13.82,14.09C337.25,151.1,339.8,154.06,342,157.48Z"/><path class="cls-102" d="M318,136.51c0-1,0-2,0-3-1-4.37,2.81-8.93-1-13.23,1.92-.68,3.68.54,5-.76,0,.67,0,1.34,0,2a1.63,1.63,0,0,1,.4,1.3c-1,4.52-4,9-.52,13.65a8.86,8.86,0,0,1,1.89,2.26c1.36,2.66,2.91,4.35,6.07,2.14a2.46,2.46,0,0,1,3.14.64h0c.33,4.73,4.28,6.93,7,10,1.71,1.64,3,3.43,2,6-3.47-1.31-4.84-5.78-9.05-6C325.46,149,320.19,144.26,318,136.51Z"/><path class="cls-103" d="M306,124.53c-1.07,2.67-2.05,5.35.06,8,2.31,2.05,2.82,4.35,1,7-3.44.78-2.55-2.78-4-4-.43-2.43-2.52-4.27-1.38-7.39.79-2.19-3-1.89-4.18-3.44.61-2.4,3.51-1.53,4.58-3.2,2.25-1.06,2.19-4.42,4.95-5C307.49,119.3,306,121.82,306,124.53Z"/><path class="cls-104" d="M307,116.53c-1.58,1.72-.8,5.81-5,5a20.38,20.38,0,0,1-.94-3.83c-.11-2.31-1.8-5.77,1.4-6.48S306.22,114,307,116.53Z"/><path class="cls-105" d="M289.94,156.48l.06,2a2.24,2.24,0,0,1-1,2.07c-3.14-1.42-1.23-5-3-7,.3-1.68-.65-3.6,1-5C290.59,150.18,289.51,153.62,289.94,156.48Z"/><path class="cls-73" d="M289.94,156.48c-1.35-2.52-.6-5.83-3-7.95a12.34,12.34,0,0,1-1.95-8c1.53,4.63,5.55,8.19,5.71,13.44C290.73,155,290.92,155.84,289.94,156.48Z"/><path class="cls-79" d="M246,160.5c3.65-1.69,8.15-1.47,11-5,2.15,0,4.29.05,6.43,0,2.39-.1,2.52,1.57,2.76,3.25.36,2.41-1.48,1.56-2.58,1.73A55.73,55.73,0,0,1,246,160.5Z"/><path class="cls-79" d="M250.58,163.88c2.75-.68,5.25-.16,7.54-1.18.79-.36,2.16-.47,2.31.93.13,1.2-.95,1.64-2,1.76A11.66,11.66,0,0,1,250.58,163.88Z"/><path class="cls-5" d="M232,180.48c-.11.31-.22.62-.35.92-.78,2,2.39,4.3.15,5.76-2,1.31-3.68-.68-5.46-2-1.51-1.1-3.22,2-5.36,1.26-1.45-4.15,1.06-5.47,4.42-5.91,2.22-.28,4.55.27,6.59-1.06C232,179.81,232,180.15,232,180.48Z"/><path class="cls-81" d="M311.94,161.48v1c-.72,5.9-6.54,6.13-10,9,.82-3.16,1.45-6.07,6.14-5.35C310.41,166.48,310.5,163,311.94,161.48Z"/><path class="cls-17" d="M253.91,184.51c-1.89,0-3.92.26-4.93-2,.55-1.46,1.36-2.58,3.15-1.85,2.46,1,5.38.85,7.47,2.58C258.08,186.89,255.11,179.78,253.91,184.51Z"/><path class="cls-106" d="M274.91,179.52c.32.9.87,1.91-.82,1.92-2,0-3.21-1.17-4-2.88A6.59,6.59,0,0,1,274.91,179.52Z"/><path class="cls-75" d="M307,139.52c.35-2.43-.48-4.68-1-7,1.56-2.63,1.62-7.32,5.88-6.63,4.08.66,3.3,5.19,4,8.2,1,4.45,2.06,9-.68,13.38-.94,1.5.34,3.21.83,4.73.68,2.1.18,3.17-2.08,3.29C309.72,151,309.45,144.78,307,139.52Z"/><path class="cls-107" d="M308.24,164.41c-4.91.1-7.92-3.78-7.94-8.32,0-1.68.77-2.45,2.34-2.44s7.26,5.61,7.3,7.22C310,163,309.21,164.38,308.24,164.41Z"/><path class="cls-108" d="M279,170.44c-.44-1.19-2-2.73,0-3.47,1.44-.54,1.85,1.24,2.07,2.5A2.13,2.13,0,0,1,279,170.44Z"/><path class="cls-96" d="M335.94,132.52c1.59,6,1.5,6.17-3,5-.86.44-2.06-.6-2.27-.3-3.86,5.55-6.83,1-10-.81a5.79,5.79,0,0,1-.35-2.14c-.17-8.25,4.12-14.3,9.68-19.73l7-3c7.64-1.5,11.23.42,13,7,1.6,5,1.28,5.52-3.49,5.06a5.9,5.9,0,0,0-4.67,1.17c-1.46,1.3-2.73,2.65-4.43.44-1.38-1.8-1.55-3.61.2-5.29,1-1,3.13-1.66,1.52-3.38-1.83-2-2.88.38-3.94,1.36-2.42,2.24-4.64,4.7-7.05,7-2.88,2.71-1.24,4.07,1.52,4.56C332.11,129.84,334.52,130.06,335.94,132.52Z"/><path class="cls-109" d="M350,118.52c-2.78-5.21-7.37-7-13-7,3.94-2.39,8.07-3.44,12.62-1.91a1.89,1.89,0,0,1,1.3,1.86c-1,2.36,2.15,3,2,5,0,.66,0,1.33,0,2Z"/><path class="cls-35" d="M352.92,116.54c-.95-1.57-5.33-1.75-2-5,1.75,1.47,4.05,1.29,6.05,2l.6,2.32c.41,1.61-.68,2.55-1.8,3C353.44,119.94,354.33,116.81,352.92,116.54Z"/><path class="cls-110" d="M330,114.54c-.33,3.32-3.56,4.55-5.12,7-2.53,4-2.25,8.76-3.88,13-2.18-4.21-.41-8.09,1-12,0-.34,0-.67,0-1Z"/><path class="cls-110" d="M321,136.48c2.16.13,3.5,2.49,5.87,2.15.66-.09,1.33.68,1.81-.64,1.35-3.68,1.45-3.64,4.27-.47v4a4,4,0,0,0-.49,0c-6.68,1-6.68,1-11.49-4-.27-.23-.35-.46-.26-.69S320.88,136.48,321,136.48Z"/><path class="cls-110" d="M339.94,151.5c-4.88-1.54-7.32-4.8-7-10,2,1.83,2.05,5.45,6.09,5.52C340.51,147.07,339.72,149.93,339.94,151.5Z"/><path class="cls-69" d="M318,136.51a39.08,39.08,0,0,0,15,15C322.15,149.78,318.62,146.25,318,136.51Z"/><path class="cls-95" d="M321,136.48l0,1c-4-5.27-1.69-10.14,1-15a42.81,42.81,0,0,0-1,12Z"/></svg>