<svg id="Layer_1" data-name="Layer 1" xmlns="http://www.w3.org/2000/svg" viewBox="0 0 400 275"><defs><style>.cls-1{fill:#e0c084;}.cls-2{fill:#d9b67a;}.cls-3{fill:#f3dba8;}.cls-4{fill:#e8c98d;}.cls-5{fill:#ead09d;}.cls-6{fill:#d5b277;}.cls-7{fill:#decca3;}.cls-8{fill:#e4c58d;}.cls-9{fill:#e8d8b2;}.cls-10{fill:#c3a874;}.cls-11{fill:#dbbd88;}.cls-12{fill:#dbb97f;}.cls-13{fill:#ebcc94;}.cls-14{fill:#dfc390;}.cls-15{fill:#a67a3f;}.cls-16{fill:#ad8c58;}.cls-17{fill:#e8cb99;}.cls-18{fill:#c3a97b;}.cls-19{fill:#f0d6aa;}.cls-20{fill:#d6b57d;}.cls-21{fill:#dbbe8c;}.cls-22{fill:#ba9d6a;}.cls-23{fill:#b5986b;}.cls-24{fill:#c5a674;}.cls-25{fill:#c3a470;}.cls-26{fill:#b1935f;}.cls-27{fill:#e6cc99;}.cls-28{fill:#e1cca6;}.cls-29{fill:#896d48;}.cls-30{fill:#baa379;}.cls-31{fill:#9e8051;}.cls-32{fill:#906a3c;}.cls-33{fill:#caac77;}.cls-34{fill:#cdb17e;}.cls-35{fill:#d7bd8d;}.cls-36{fill:#e8d1a7;}.cls-37{fill:#eedcb5;}.cls-38{fill:#dfc498;}.cls-39{fill:#a58657;}.cls-40{fill:#e1d1b1;}.cls-41{fill:#ceaf77;}.cls-42{fill:#d3b884;}.cls-43{fill:#b09060;}.cls-44{fill:#493f33;}.cls-45{fill:#b69e74;}.cls-46{fill:#664b30;}.cls-47{fill:#d4c09b;}.cls-48{fill:#725c3a;}.cls-49{fill:#e3d7bd;}.cls-50{fill:#bda77f;}.cls-51{fill:#a08d68;}.cls-52{fill:#f2dfbb;}.cls-53{fill:#6e563a;}.cls-54{fill:#e7c98c;}.cls-55{fill:#d6ae6c;}.cls-56{fill:#e1ba7a;}.cls-57{fill:#d0a866;}.cls-58{fill:#b58b4f;}.cls-59{fill:#e1c387;}.cls-60{fill:#dcc18f;}.cls-61{fill:#cfb57f;}.cls-62{fill:#cba265;}.cls-63{fill:#e3c48b;}.cls-64{fill:#c69f62;}.cls-65{fill:#cea767;}.cls-66{fill:#d6af6e;}.cls-67{fill:#e1c286;}.cls-68{fill:#c29a5c;}.cls-69{fill:#cdac70;}.cls-70{fill:#ba9d6b;}.cls-71{fill:#c5a76d;}.cls-72{fill:#dcbd85;}.cls-73{fill:#e5c98f;}.cls-74{fill:#d2b88a;}.cls-75{fill:#d0b88c;}.cls-76{fill:#c1a06b;}.cls-77{fill:#4c3116;}.cls-78{fill:#8c673a;}.cls-79{fill:#d3b788;}.cls-80{fill:#c5ad84;}.cls-81{fill:#dcbd88;}.cls-82{fill:#dfc186;}.cls-83{fill:#d8b473;}.cls-84{fill:#dfbc7e;}.cls-85{fill:#a67a41;}.cls-86{fill:#b88847;}.cls-87{fill:#bb9c68;}.cls-88{fill:#ae8549;}.cls-89{fill:#b59557;}.cls-90{fill:#68430c;}.cls-91{fill:#b49254;}.cls-92{fill:#ac8b50;}.cls-93{fill:#cfb47d;}.cls-94{fill:#b29564;}.cls-95{fill:#e2bf81;}</style></defs><path class="cls-1" d="M150,96.51c10.87-1.08,21.53,1,31.94,3.34,11.45,2.59,22.68,1.32,34,.62-2,3.45-10.9,7.22-15,5.62-6-2.35-11.78,1.15-17.66-.11-1.27-.27-2.08.88-1.95,2.3a6.3,6.3,0,0,1-.81,4.32c-1.34,1.89-.17,2.53,1.35,3.28,2.22,1.11,4.53,2.18,6.21,4.09,1.37,1.56,2.33,3.43,1.14,5.45s-3.14,1.09-4.66.72c4.31,2.13,4.25,3.18-.64,7.23.15,1.82,2,2,3,2.93,2.26,2.1,4.25,4.16,3.53,7.69-.32,1.56-.45,3.42,1.74,4.1,1.41.44,3.29.67,3,2.61s-2.08,1.86-3.55,2c-1.94.23-4-.28-5.71,1.14-1.86.74-3.27.28-4-1.65-.82-2.14,1.32-2.29,2.55-3.44-2-1.21-4.28-2-4.68-4.67a4.22,4.22,0,0,0-2.55-2.93c-6-2.76-7.61-8.44-9.37-14-.74-2.32-1.71-4.28-3.78-5.64-3-2-9.55.32-10.43,3.8-.49,1.92.94,3,2.18,4.13,3.46,3.18,3.15,4.26-1.26,5.87-6,2.19-11.73,1-17.87-.73,1.63.65,3.63.9,2,3-3.18,4.13-7.81,4.66-12.31,1.51-.55-.38.18,0-.36-.34-.94-4.18,2.23-7.08,3.36-10.61.41-1.27,1.66-.69,2.57-.3,2.47,1.05,5,0,7.33-.34,1.79-.25,1.74-3.86,3.52-5.58-3.94.29-7.71,2.79-11.43,0-1.48,2.37-4.11,2.34-6.35,3.24a21.58,21.58,0,0,1-9.16,1.45c.65,7.51-2.35,14.14-3.92,21-4.56-1-6.2-3.11-5.22-7,.48-1.92.58-4,1.52-5.75,1.84-3.36,2-5.77-1.62-8.37-2.86-2-2.24-8,.84-10.67s5.14-5.69,5.43-10.09c.26-4,3.45-5.13,6.19-2.22a8.66,8.66,0,0,0,8.38,3c3.85-.58,6.49,2.09,9.38,4s6.13,3.49,9.71,1.31c2-1.25,2.84-2.52.71-4.66C142,101.7,142.74,99,150,96.51Z"/><path class="cls-2" d="M191,149.48c-2.15-.9-2.37-2.85-1.94-4.62,1.33-5.49-2-7.77-6.22-9.35-2.15-.8-2.23-1.61-.6-3.08,1.46-1.32,5-1,4.21-3.85-.33-1.18-3.29-1.61-5-2.43-.26-.12-.4-.49-.84-1.08,1.81-.93,3.37-.53,5,.23.84.39,1.77,1.15,2.71.16s.52-2.1.06-3.22c-1.37-3.31-4.78-4-7.43-5.44-2.37-1.26-4.49-1.57-1.5-4.4a3.19,3.19,0,0,0,.75-3.67c-1.48-3.54.36-4.8,3.46-4.13,6.37,1.38,12.56-2.1,19.33.47,3.8,1.44,8.93-2.13,13-4.6a6.84,6.84,0,0,1,4.83-.73c11.87,3.43,24,1.53,36,1.7,2.82-.74,5.4-.11,8.19.7,4.68,1.35,9.69.65,14.53,2.19,6.76,2.15,14.57.61,20.48,6.09,1.74,1.62,2.75-1.07,4.17-1.59,1.83-.76,3.57-1.85,5.68-1.67,1.58,1.24,4.53.93,4.52,4a2.33,2.33,0,0,1-.88,1.08c-3.8,1.13-7.48,2.39-7.79,7.27a9.37,9.37,0,0,1-.73,1.22c-3.51,5-3.23,10.52-2.11,16.14,1.94,3.68,4.22,6.8,9.11,6.33,1.51-.14,2.27,1.09,2.91,2.34,2.34,4.57,6.39,7.43,10.46,10.26,2.14.95,4.29,1.9,3.83,4.88-3.68,2.31-6,2-9.52-2.41-2.62-3.26-5.86-4.69-9.68-5.54-1.95-.43-3.45-.15-3.64,2.08-.42,4.81-3.52,5.47-7.43,5.06a5.57,5.57,0,0,1-2.39-6.09c2.89-3,1.54-6.93,1.64-10.23a39.68,39.68,0,0,0-1.83-14.2c-.52-1.5-.45-3.62-2.57-3.8s-2.6,1.72-3.36,3.17a9.45,9.45,0,0,1-1.05,1.68c-2.79.53-2.77-1.57-2.73-3.23A22,22,0,0,1,288,120a7.13,7.13,0,0,0-.47-6.54c-.24-.39-.45-.8-.66-1.2-1.23-2.16-2.93-2.34-2.87.3.15,6.78-2.64,13.9,2.12,20.26a4.42,4.42,0,0,1,0,5.53c-2.59-.57-4.81-2-7.56-2.48-3.3-.57-4.48-4.18-5.13-7.35-1.18-5.76-1.11-5.77-6.78-3.89a4.63,4.63,0,0,1-2.94.21c-2.73-1.66-3.31-4-2.06-6.83s3.52-3.17,6.25-2.48c2.25.57,4.2-.11,6.29-2-4.46-.23-8.23,1.38-12.11,1.19-2.28-.12-5.85.28-3-4,1.08-1.65.69-3.52-1.28-4-3.54-.9-7-3.24-10.92-.78-1.69,1.06-3.82,1-5.82,1-7.09-.54-14.14-1.91-21.17,1-4.24,1.73-4.6,2.19-1.53,5.45,1,1.06,3.66,1.55,2.32,3.67-1.46,2.32-3.6,1-5.27-.05-4.36-2.66-8.86-4.64-14.12-3.89-4.46.63-5.17,1.86-4.63,6.23s1,8.39,6.25,10.13c2.53.83,2.23,3.22-.56,4.11-1.9.61-3,1.18-2,3.41.54,1.17-.15,2.25-.78,3.26-1.46,2.35-4.58,3.49-4.39,7.17C195.22,148.88,192.1,148.05,191,149.48Z"/><path class="cls-3" d="M71.05,182.46c-4.34-5.43-4.31-7.09.35-12.8,2.85-3.49,1.71-7.85,2.57-11.77a27.12,27.12,0,0,0,.11-7.9,47.58,47.58,0,0,1,2.26-18.32c3.63,3.34,8.27,2.16,12.51,2.79,4.56,2,9.94,3,11.07,9.24.23,1.3,1.55,1.71,2.69,1.82,4.49.45,6,3.39,6.34,7.36.23,3-.34,5.34-4.07,5.11-1.84-.12-1.74,1.08-1.68,2.24a9,9,0,0,1-2,6.35c1.4.43,2.57-.21,3.63.38a3.21,3.21,0,0,1,1,1c2.05,6.37.9,9-4.95,11.33-.47.18-1.23.17-1.38.5-2.32,5.19-6.58,5-11.33,4.75-1.84-.08-3.92.8-5.71-.17A17.82,17.82,0,0,0,71.05,182.46Z"/><path class="cls-4" d="M108.06,153.49c-.4-4.93-3.19-7.12-8-7-1.16,0-2.08-.73-1.85-1.84,1-4.8-2.48-5.8-5.72-7.15a30.65,30.65,0,0,1-3.42-2,2.46,2.46,0,0,0-1.34-.52c-3.06-.37-6.22-.93-7-4.45-.77-3.34,2.52-4.24,4.36-6,3.07-1.19,4.09-3,3.25-6.54-1.44-6.1-2.59-12.37-4.14-18.37-1.34-5.2-2.37-11.78-8.92-14.53-2.44-1-3-3.66-2.77-6.42a58.87,58.87,0,0,0-.37-14.4c-.41-2.7-.74-5.78,2.92-7,2.27,4.77,2.3,9.93,2.34,15,0,4.28,1.42,7.35,4,11.05,4.23,6.07,10.56,11.85,9.12,20.68a9.75,9.75,0,0,0,.44,4c1.12,4.27,3.94,5.11,7.31,2.1,1.36-1.22,2.23-3,3.67-4.06,2.65-1.88,2.07-3.56.23-5.46,14.83-.09,29.41-2.76,44.09-4.41,1.36-.15,2.6-.42,3.84.28-.54,1.42-1.89,1.64-3.05,2.27-2.62,1.43-2.7,4.64-.34,6.52,1.82,1.44,5.87,1.52,3.5,5.5-1.8,3-7.16,4.61-10.14,3a36.24,36.24,0,0,1-5.84-3.74c-2.49-2-4.92-3-8.23-2.08-2.83.76-5.62.2-6.93-3a2.81,2.81,0,0,0-3.09-2c-1.94.33-2,2.09-1.82,3.57.35,4-1.13,6.77-4.52,9.19-4.76,3.41-4.35,8,.4,11.38,1.61,1.16,2.75,2.66,1.42,4.64-1.62,2.4-1.6,5.45-2.75,7.74-2.35,4.69.33,6.2,3.42,8q2.47,1.27.86,3.56c0,.05-1,2.73-1,2.75A3,3,0,0,1,108.06,153.49Z"/><path class="cls-5" d="M108.06,153.49l4,0a1.75,1.75,0,0,1,2.1-.22,8.23,8.23,0,0,1,1.82,4c.3,3.56,0,7.33,2.49,10.31,3,3.57,1.8,6.37-1,9.4-1.64,1.8-5,3.73-1.34,6.75a2.53,2.53,0,0,1,1,.79c.26,2.91-2.49,4.45-3.14,6.94-.42.5-.91,1.46-1.39,1.31-5.07-1.61-5.1,2.13-5.83,5.28-.84,3.64-2.68,6.32-6.91,6.31-1-1.37-1.24-4.19-4-1.34-2.21,2.31-3.31,0-4.27-1.77-1.34.72-.92,2.11-1.45,3.06-1.12,2-2.77,2.37-4.62,1.26s-3.11-2.94-1.6-4.52c3.13-3.25.54-6.62.86-9.89,0-.31-5.17-2.73-5.54-2.67-4.55.72-9.13,1.31-13.51,2.9a13.61,13.61,0,0,0-1.3-2.62c-2.34-3-.91-4.13,2.1-4.3,1.8-.11,3-1.25,4.38-2,2.88-2.49,5.77-2.34,9.08-.57,2.7,1.45,5.33,1.58,8.87,1,3.88-.59,7.36,1.1,8.46-4.27,0-.07.31-.06.46-.12,8.39-3.09,8.39-3.09,7.14-11.06,2.91-1.14,2.91-1.14,6.93-.84-.82-2.34-3.15-3.28-4-5.85-1.13,2.65-.83,5.23-3,6.7-.81.09-1.64.15-2.44.28-1.23.21-2.56,2-3.53.78-1.29-1.67,1-2.36,1.82-3.39,2.09-2.71.87-5.66.71-8.85C104,155.76,108.44,159.46,108.06,153.49Z"/><path class="cls-6" d="M71.06,226.37l-2,4.08c-2.12,3.35-4.92,6.05-8.92,6.49-4.63.52-5.54,3.44-5.73,7.19-.15,2.79.17,5.69-1.6,8.14-1.2,1.68-2.9,3.36-4.93,2.37-2.25-1.09-.89-3.33-.07-4.74,2.39-4.12-1.87-6.86-1.87-10.43-1.29-2.38-.6-4.83-.3-7.27.61-4.93,2-9.83,1.29-14.83-1-7,2.73-11.23,8-14.74,1.1-.73,2.23-1.42,3.35-2.13,2.13-2.9,4.93-4,8.57-4a47.08,47.08,0,0,0,7.45-.66c1.45-.2,3.13-.68,4,1C79,198.42,77,199.29,77,200.3c-.21,4-5.55,7.34-1.55,11.83-2.78,3.67.45,6.91.74,10.36l0,0C74.06,223.31,71.93,224,71.06,226.37Z"/><path class="cls-1" d="M102.1,100.64a5.65,5.65,0,0,0,.77.62c1.45.81,3.95-.64,4.52,1.1.77,2.37-2.3,1.7-3.27,2.83-1.72,2-3.4,4.06-5,6.17s-3.91,2.31-6.3,2.11c-2.79-.24-2.58-2.59-3-4.46-.12-.48-.57-1-.47-1.4,2.07-8.51-3.77-14.45-6.88-21.27-.47-1-1.13-2.52-2-2.75-5.27-1.36-4.59-5.46-4.3-9.17.45-5.69-1.58-11.19-1.06-16.86-5.06-8-3.56-16,0-24a23.51,23.51,0,0,1,7.51-12.06c.84-.76,1.58-2,2.92-1.46,1.52.58,1.42,2.05,1.5,3.39a20.62,20.62,0,0,1-1.11,8.32C81.59,43.68,80.39,56,81,68.53c.06,1.31,0,2.83.57,3.89,4.28,7.44,6.68,15.84,11.79,22.86C95.57,98.35,99,99.21,102.1,100.64Z"/><path class="cls-7" d="M347.9,173.49c-4.86-.08-9.09-3.31-14-3-6.42.45-13.15-.07-19.18,1.07-4.75.9-8.29.08-12.35-1a8.38,8.38,0,0,0-8.19,2.5c-4.85,4.72-10.94,8.16-14.66,14.05-.26.41-.61,1-1,1.08-5.59.8-7.4,6.63-11.85,8.84-4.15,2.05-5.4,5.72-5.68,9.77-.46,6.62-.32,13.25,1.85,19.65a2.37,2.37,0,0,1-1.47.66,2.34,2.34,0,0,1-2.07-1.09c-1.24-2.78-.19-5.89-1.3-8.68a29.06,29.06,0,0,1-.38-6.18c.48-4.89-.09-9.93,2-14.6.87-2-.27-2.07-1.77-2.33-2.68-.47-2.22-2-.77-3.42,1.79-1.78,4.14-2.62,6.57-3.38-.61-1-2.05-.72-2.18-1.95a8.24,8.24,0,0,1,.82-4.42,3,3,0,0,1,2.57-1.47c4,1.28,7.74-1.17,11.67-1,.66.06,1.58.47,1.94.11,4.55-4.53,11.68-5.61,15.28-11.4.52-.85,1.06-1.86,2-2.19,5.37-2,10.86-3.69,16-6.25a2.4,2.4,0,0,1,2.73.79c2.6,3.2,6.59,3.64,10,5.21,3.19,1.47,5.81,1,7.58-2.23a6,6,0,0,1,2.74-2.79,5.7,5.7,0,0,1,1.46-.43,9.7,9.7,0,0,1,8,2.29c1.41,2.17,3.55,4.1,2.41,7.13C344.43,171.1,349.12,171.49,347.9,173.49Z"/><path class="cls-8" d="M76.16,222.49c-.17-1.06-1-1.51-1.69-2.2-1.84-1.86-3.65-4-.86-6.61.61-.55,1.55-1.45.42-1.84-6.25-2.14-1.66-4,.06-6,.69-.79,1.32-1.82.69-2.68-1.71-2.34-1.11-3.46,1.59-4a1.41,1.41,0,0,0,1.18-1.85c-.38-1.05-1.31-.68-2.1-.54-4,.69-8,1.42-12.11,1-2.14-.21-2.85,2.77-5.08,2.68.27-.76,1-1.7.74-2.26-1.46-3.54.14-4.69,3.41-5.1,1.21-.16,2.32-1.14,3.47-1.74,3.35-2.33,6.39-5,11.18-3.14,2.24.89,2.54-3.29,5-3.41,2.09,1.53-1.86,2.62-.29,4.14,1.56.53,2.58-1.21,4.43-1.09.11,3.06-.79,6.29,1.43,9.19,1.25,1.65-1.06,2.38-2,3.36-.82.83-1.8,1.69-.91,3,.75,1.09,1.68,2.17,3.24,1.88s1.61-1.22,1.34-2.6a3.13,3.13,0,0,1,2.84-3.94c3-.22.78,2,1.09,3.13.56,2,1.56,1.26,2.39.25,1-1.24,1.72-3.71,3.38-3,2.16.89.68,3.53,1.07,5.36-.15.16-.3.33-.44.5-1.48.91-3.48.93-4.49,2.64C90,211.08,87.28,217.91,79.69,218,77.71,218,77.85,221.33,76.16,222.49Z"/><path class="cls-9" d="M214.84,216.62c-3.45-3.08-3.36-7.63-3.85-11.49-1-7.82-7.13-10-12.59-12.43-9.81-4.28-20.46-3.55-30.87-3.15-5.47.21-5.74,5.77-7.66,9.33-1.33,2.48-2,5.29-4.87,6.54-1.27-3.06,1.4-5,2.12-7.5a23.47,23.47,0,0,0,3.21-9.65c1.3-3.05,3.3-5,6.92-4.35,1.65.29,2.47-.33,3.53-1.81,3-4.12,8.35-5.26,13.37-3.89,6.74,1.85,12.44,6.35,19.49,7.38a6.42,6.42,0,0,1,3.79,2.3c1.88,2.2,4,2.89,7,2.74,3.31-.16,7.2,0,8.06,4.68-1.59,2.73-.6,7-4.83,8.14-3.39.11-4.14,1.7-3.08,4.85a16.45,16.45,0,0,1,1.11,7.24A2.07,2.07,0,0,1,214.84,216.62Z"/><path class="cls-10" d="M158,198.45l-3,7v0c-1.27,1.87.58,4.62-1.76,6.18-3.32-2.71-6.89-4.56-11.43-4.23-1.94.14-3.13-1.54-4.17-3.13-2.87-4.38-2.9-4.36-5.45.05a6.39,6.39,0,0,1-.87,1.21,1,1,0,0,1-1.28-.08,3.91,3.91,0,0,1,0-1.48c2.38-6-.07-9.24-5.88-10.67-1-1.16-.47-2.48-.42-3.76,2.37-5.48,4.94-6.55,9.29-2.76s8,4.61,12.72,1.15c1.7-1.24,4-1.5,6-2.31,2.31-.93,4.44-1.09,6.4.86a6.06,6.06,0,0,1,1.5,6.86C159,195,158.81,196.83,158,198.45Z"/><path class="cls-11" d="M290,270.46c-10.83,3.88-21.91,2.86-33,1.71-1.12-.11-2.56-.63-2.7-1.87-.4-3.8-3.83-6.18-4.37-9.87-1.26-1.69-2.07-3.39-.14-5.17,4.43,1.3,8.52,3.93,13.53,2.89,4.09-.85,5-1.91,4.39-6.3l.46-.53c3.13.83,3.82,4.05,5.83,6,1.61,2,1.17,5.63,5,5.94a7.5,7.5,0,0,0,3.27,0C287.07,261.78,290.68,265.27,290,270.46Z"/><path class="cls-12" d="M45.94,239.47c1.48,1.64,1.67,4.12,3.9,5.36,1.75,1,.85,2.64.06,3.92-1,1.63-2.4,3.09-1.9,5.37,3.58-.71,4.9-3.1,5.07-6.37.12-2.14-.2-4.37.31-6.41.67-2.73,1-5.44,5.55-5.3,3.79.12,7.21-2.84,10.13-5.59a33.06,33.06,0,0,0-4,16.55c0,2.61.68,4.92,3,6.47.62,1.78-.69,2.66-1.68,3.7-1.36,1.09-2.92,1.15-4.6,1.16-4.39,0-5.05,1.37-2.79,5.33,1.23,2.16,1.23,2.16,0,3.88-4.13-.52-9,.85-11-4.79-1.51-4.19-3.51-8.05-2.36-12.9C46.41,246.55,45.88,242.94,45.94,239.47Z"/><path class="cls-13" d="M75.07,33.59c-.49,4.69-2,9.23-2,14,0,3.46,2.88,6.34,2,10-2.32,2-2.39,4.72-1.69,7.36a33.5,33.5,0,0,1,.33,13.84c-.57,3.66,1,5.23,3.85,6.47,1.17.51,3.29,0,3.42,1.52.4,4.75,4.79,8.17,4.84,12.48.08,6.49,2,12.54,3.78,18.41,1.68,5.5-.22,6.86-4.53,7.87-.58-1.94,1.66-2.58,1.9-4.14v-1.65c-.62-.94-2-1.38-2-2.71,0-6.37-3.73-11.19-6.64-16.36C73.15,91.47,69,82,68.68,71.2a4.94,4.94,0,0,0-.14-1.49c-2.91-8.92-1.13-17.56,1.52-26.16A29,29,0,0,1,75.07,33.59Z"/><path class="cls-14" d="M305,109.53a3.77,3.77,0,0,0-2,2.11c-1.23,2.84-2.83,2.75-4,.12a6.24,6.24,0,0,0-4.91-3.65c-7.21-1.39-14.65-3.77-21.57-3.81-5.75,0-10.21-3.81-15.66-2.86,4.66-1.8,9.57-1.44,14.23-.66,9.5,1.6,19.24,0,28.67,2.61,3,.83,5.94-.57,9-1.8,7.06-2.84,14.51-4.68,22.2-2,.85,1.64,4.18.2,3.95,3.19-2,1.4-4.25.91-6.28.59C319.77,102,312.15,104.84,305,109.53Z"/><path class="cls-15" d="M363.14,147.4l3.55,3.14c-.51,1.55-1.19,3-1,4.78.7,5.62-.78,7.41-6.22,8.05,2.49,1.07,5.19,1.31,7.69,2.18,1.11.39,3,.82,1.11,2.63a15.51,15.51,0,0,1-12.4-1.37,41.4,41.4,0,0,1-4.13-1.73c-3.16-1.54-4.34-3.88-3.13-7.34.93-2.66,1.58-5.41,2.29-8.14a7.1,7.1,0,0,0-1.25-6.47c.32-1.9,1.87-2.79,3.2-3.85C357.19,140.85,358.7,146,363.14,147.4Z"/><path class="cls-16" d="M130,205.44h1c3.33-2.58,5.24-2.32,7,1,.64,1.18.86,2.53,1.4,3.74,1.32,2.91,2.66,5.07,6.78,3.6s5.59.15,5.24,4.61c-3,1.27-5.84,2.68-5.73,6.65a3.29,3.29,0,0,1-.95,1.18c-2.65,1.67-5.05,1-7.28-.83-1-.82-1.87-2.07-3.29-2-4.68.13-5.17-3.35-5.59-6.62-.23-1.72-.52-3.61.37-5.33C128.32,209.23,129.73,207.43,130,205.44Z"/><path class="cls-17" d="M59,267.54c1.15-1.85-.35-2.56-1.46-3.44-1.87-1.47-1.86-3.44-1-5.27s2.56-2.9,4.84-1.8c1.64.79,3.17.18,4.64-.61,2.67-1.68,5.34-1.4,8,0a72,72,0,0,1,5.78,4.45c1.79,1.67,1.91,3.4-.83,4.41-3.93.68-7.89,1.21-11.82,1.93-.64.21.24.76,0,.13-.08-.25,0-.39.3-.38.93,0,2-.39,2.68.6A17,17,0,0,1,59,267.54Z"/><path class="cls-18" d="M173,255.36l-2,.09c-2-.75-3.95-2.09-6-.17l-1-.1c-1.43-1.53-1.14-3.33-.81-5.13a17,17,0,0,0,.17-5.38c-.74-5.47-3.65-7.28-8.9-5.5-1.17.4-1.11,1.47-1.5,2.33-.47,1.05-.58,2.9-2.56,1.52a11.88,11.88,0,0,1,.58-10.18c1.78-3.08,6.21-1.37,8-4.42,3.48,3.43,7.11,6.65,11.9,8.16,1.82,2.22,1.35,4.9,1.5,7.46.16,2.71-.58,5.55,1.05,8.08A3.28,3.28,0,0,1,173,255.36Z"/><path class="cls-19" d="M70.06,43.55c-1.19,4.56-.17,9.47-2.66,13.9-1.36,2.41,1.08,4.69,1.75,7,1.32,4.52,1,9.18,1.49,13.74,1,9.14,5.7,16.3,10.15,23.88,2.54,4.3,6.54,8.56,4.93,14.55-.23.86.8,2.06,1.25,3.1a3.5,3.5,0,0,1-2.88-3,10.05,10.05,0,0,0-1.33-3.67c-8.56-13-12.93-27.61-16-42.55C64.84,61.4,65.34,52.08,70.06,43.55Z"/><path class="cls-20" d="M305,109.53a37.38,37.38,0,0,1,10.51-6.45c6.85-2.66,13,0,19.44-.54,5.27,1.31,7.76,6.32,12,9,2.27,3.17,5.82,5.56,6.08,9.95a2.25,2.25,0,0,1-3.06-.72c-1.93-3.28-5.51-4.55-8.12-7-1.82-2.16-4.35-3.08-6.95-3.63-6.47-1.36-13-2.6-19.66-1.81-1.8.21-3.66.53-5.23-.82Z"/><path class="cls-21" d="M151.08,243.47c2-1.79,0-4.57,1.82-6.77,3.44,2.26,6.95,2.75,10.34-1.6,1.58,7.24,2.07,13.61.83,20.08-5.74-1.71-9.37-6.84-14.79-9.15a3.86,3.86,0,0,1-2.09-4.56C149,241.1,149.44,243.45,151.08,243.47Z"/><path class="cls-22" d="M151,218.51c.67-4-1.7-4.86-4.69-3.83-4.32,1.5-6.9.36-8.26-4.35-.22-.8-.51-1.58-.68-2.38-.84-4-3.26-4-6.31-2.52a30.27,30.27,0,0,1,1-3.8,4.14,4.14,0,0,1,3.12-2.94c2.27-.31,2,1.9,2.51,3.08,1.33,2.87,2.71,5.47,6.55,4.68,4.44-.93,7.16,1.21,9.05,4.92,2.34,2.56-.77,5.53.62,8.16-.16,2.88,2.69,4.31,3.29,6.82-2.19,1.51-3.2-.21-4.17-1.64a35.12,35.12,0,0,1-2.25-4.76A1.58,1.58,0,0,1,151,218.51Z"/><path class="cls-23" d="M151.08,243.47c-.13,1.43-.75,1.79-1.78.69-.78-.82-1.42-1.79-2.12-2.69-5.27-4.29-9.26-9.79-13.91-14.67-4.11-4.32-7.14-9.09-4.26-15.41,0,1.82-.29,3.76.2,5.46.73,2.51.39,6.68,5.35,4.71,1.2-.47,2.2.36,2.78,1.54,1.72,3.43,4.58,3.22,7.63,2.36a2,2,0,0,1,1,1.63c-.4,4.58,2.45,5.41,6.08,5.39C150.71,236.05,151,239.77,151.08,243.47Z"/><path class="cls-24" d="M342.94,113.48c4.47,1.26,6.49,5.6,10,8,3.9,5.76,2.63,12.63,4.07,18.91-4,.11-4-2.94-4.35-5.61-.3-2.19.37-4.7-2.43-6.07-.39,1.13.05,2.59-1.32,3.21a27.92,27.92,0,0,1-8.06-.21c-1-3.94.66-7.72.78-11.61.06-1.76.3-3.6.49-5.4A2.68,2.68,0,0,1,342.94,113.48Z"/><path class="cls-25" d="M227,240.44c-3.92,1.46-8.27,1.55-11.8,4.48-1.13.94-4.19,1.79-5.31-1.3a3.68,3.68,0,0,1-.53-3.69c1.58-2,6.55-.37,5.46-5.18a3.79,3.79,0,0,1,2.17-3.16,8.86,8.86,0,0,1,2.38-.5c5.71-.63,10.86-.22,12.6,6.66a2.06,2.06,0,0,1,.28,1.57C230.8,241.07,228.58,239.27,227,240.44Z"/><path class="cls-26" d="M231.94,238.41c-1-.06-2.57.12-2.55-.89.14-6.9-4.84-4.86-8.53-5.07-1.31-.08-2.63,0-3.94-.07-1.47-1.75-1.53-4-2-6.07l1-1c.63-.4.8-1.12,1.16-1.7,1.5-1.73,3.17-2.56,4.77-.26,1.35,2,3.31,1.81,5.24,2a6.43,6.43,0,0,1,2.18.63,13.24,13.24,0,0,1,4.94,5.85C235.49,234.56,235.48,237.14,231.94,238.41Z"/><path class="cls-27" d="M124.12,189.5v3.79c-1.94-1.74-.78-4-1-6-.18-1.61.24-3.44-1.58-4.35s-2.93.92-4.32,1.63l-1.16-.05c-.59-2,.78-3.35,2.06-4.15,4.48-2.82,7.43-6.91,10.1-11.29,3.71-.1,6.63,1,7.61,5.05-1.84,4.17-5.32,7-8.44,10.08A11.42,11.42,0,0,0,124.12,189.5Z"/><path class="cls-28" d="M227,240.44c1.3-1.84,3.34-.54,4.92-1.14a5.17,5.17,0,0,0,2.59-4.87c-.08-2.82,1.62-3.17,3.86-2.7,1.56,3.59,4.56,6.65,3.51,11.21-.37,1.62.48,3.54,1.7,5s4.13-.29,4.68,2.45c-.41,1.58-2.8,3.4.58,4.48a2.22,2.22,0,0,1,1.13.57,9.47,9.47,0,0,0,0,5c-7-2.63-10.21-8.8-11.67-15.15-1.06-4.6-2.79-5.53-6.49-4.55C230,241.19,228.59,240.54,227,240.44Z"/><path class="cls-29" d="M214.88,226.31c2.74,1.34,2.07,3.81,2,6.08-1.15.7-.92,1.88-1,3-5.14,1.23-10,4.24-15.64,2.09a4.65,4.65,0,0,1-2.26-1.94c-.64-2.63.86-4,3-4.89,1.95-.82,3.94-1.53,5.92-2.29.91,1,1.13,2.91,3.1,2.41,1.76-.45,2.09-1.78,1.81-3.38C212.65,226.37,213.79,226.41,214.88,226.31Z"/><path class="cls-30" d="M173,255.36c0-1,0-2-.05-3-.43-4.6,1.79-8.54,3.12-12.7l5.92,1.8c.93,3.05,5.9,2,6,5.95-2.61,2.55-4.33,6.43-9,5.94-.53-1.24,1.16-1.85.83-3.21-2.71-.26-1.82,2.42-2.81,3.48C176.05,255,174.23,254.49,173,255.36Z"/><path class="cls-31" d="M152.06,232.48c-6.85,2.58-6.87,2.56-7.09-7l.14,0c5.15,1.14,4.27-3.68,5.92-6,3.18,1.29,1.49,6.92,6.13,6.9l1.91,2.07c.1,1.47,1,3.2-1.89,3.09C155.49,231.45,153.77,232.13,152.06,232.48Z"/><path class="cls-32" d="M368.91,167.39c-3.94-1.92-8.87-1.16-12.34-4.46.71-1.7,2.08-1.43,3.41-1.29,3.93.39,5.87-1.95,4.6-5.79-.83-2.5-1.32-4.62,2.11-5.31a8.75,8.75,0,0,1,3.44,3.81c.46,2.86-1.87,5.69-.06,8.56a4.35,4.35,0,0,1,.31,3.51C370.21,167.23,369.9,167.82,368.91,167.39Z"/><path class="cls-33" d="M266,247.41l2.19,3.91-.37.17c-3.47,3.34-7.58,4.25-11.25,2.48a5.92,5.92,0,0,1-3.59-6.48c.38-3.05,2.84-3.32,5.23-3.46a14.24,14.24,0,0,1,5.91.54C265.55,245,265.21,246.57,266,247.41Z"/><path class="cls-34" d="M261.93,226.54l.93,0,1.05,1.08c1.9,4.06,0,8.31.64,12.44-2.75,2.75-6,1.89-9.23,1.25-1.67-.34-2.29-1.77-2.34-3.37a6.58,6.58,0,0,1,3.28-6.23C258.54,230.33,260.92,229.22,261.93,226.54Z"/><path class="cls-35" d="M345.92,168.49c.31-2.33-1.51-3.94-2-6a2.2,2.2,0,0,1,2-.57,7.08,7.08,0,0,1,2.6,1.23c5.08,4.11,10.78,7.24,16.47,10.39a14.82,14.82,0,0,1-8.11,1.88c-3.11-1.41-6.55-2.09-9.28-4.31C346.77,170.42,345.5,170,345.92,168.49Z"/><path class="cls-36" d="M290,270.46c.24-3.34-2.29-4.87-4.42-6.6-.78-.62-2.61-.69-2.69-.13-.48,3.9-2.32,1.06-3.59.85-4.15-.69-6.87-2.43-5.29-7.29,4.14,1.4,8.3,2.74,12.41,4.23C290.28,262.9,292.06,267.49,290,270.46Z"/><path class="cls-37" d="M100.07,204.46c3.72-1.19,5.3-4,6-7.63.68-3.74.5-8.74,6.73-4.83.24.15.88-.34,1.33-.53-2.43,7.58-7.86,12.16-15,15-.59-1.12.37-1.5,1-2Z"/><path class="cls-38" d="M176.09,239.64c.88,4.71-1.29,8.66-3.12,12.7-2.57-.31-1.89-2.32-1.92-3.84-.09-4-.06-7.95-.08-11.92Z"/><path class="cls-19" d="M87,121.37c.37,1.84-1.34,2.73-1.9,4.14-5.15,4.14-4.95,5.78,1,8.48,1,.47,2.36.34,3,1.52a49.62,49.62,0,0,0-7.32.07c-3.3.48-4.71-1.09-5.39-3.92C78.64,127,83.85,125.24,87,121.37Z"/><path class="cls-39" d="M349,131.48c2.2-.78-2.45-3.66,1.18-3.95,3.19-.25,3.75,1.74,3.85,4.41.11,3.09-1.29,6.86,3.06,8.46h0c1.26,2.62,3.64,4.22,5.63,6.17a1.08,1.08,0,0,1,.48.83c-5.83.52-6.84-5.21-10.22-7.87a2.47,2.47,0,0,1-.81-1.05c-.44-1.49-.32-3.17-1.47-4.42A8.83,8.83,0,0,1,349,131.48Z"/><path class="cls-40" d="M346.9,111.54c-5.5-1-7.7-6.39-12-9-1-1.45-3.41-.91-4-2.91a28.83,28.83,0,0,1,13.81,7.18C346.09,108.09,347.27,109.47,346.9,111.54Z"/><path class="cls-41" d="M365,173.54c-7.14-.89-12.11-5.48-17.11-10,3.91-.2,6.47,2.94,9.9,4a10.74,10.74,0,0,0,5.52,1.74c1.76.11,3.71.09,4.5,2.24A3.14,3.14,0,0,1,365,173.54Z"/><path class="cls-42" d="M198,235.49l1.92,1.1c2.82,1.25,5.26,2.68,8.64.29,2.14-1.5,2.47.71,1.46,2.52l-.15,4.22C203.79,244,200.59,240.23,198,235.49Z"/><path class="cls-43" d="M367.81,171.46c-3.41-1.8-7.79,0-10.89-3-.47-.92-1.54-1.64-1-2.92,4.09,2.37,8.56,2,13,1.83l1-1.07c.38-.33.69-.3.93.16A7.63,7.63,0,0,1,367.81,171.46Z"/><path class="cls-44" d="M370.84,166.48a5,5,0,0,1-.93-.16c.09-1.09.09-2.15-1-2.87-1.32-3.18-.09-5.35,2.75-6.87C376.11,160.29,375.94,162.18,370.84,166.48Z"/><path class="cls-45" d="M345.92,168.49l11,6.93c-3.19.26-6.07-.91-9-1.93-1.14-.91-2.28-1.83-3.43-2.73-.6-.47-1.66-.93-.84-1.79C344.07,168.5,345.13,168.63,345.92,168.49Z"/><path class="cls-46" d="M211.85,227.34c1.74.29,2.31,1.11,1.3,2.72a4.5,4.5,0,0,1-5.1,2.2c-2.44-.58-1.73-2.35-1.11-3.95C208.4,227.07,210.17,227.44,211.85,227.34Z"/><path class="cls-7" d="M264,240.42l-.06-12.85c.3.13.87.29.86.39-.66,6.55,3.78,12.78,1.23,19.45-.9-.37-1.05-1.15-1.09-2A38.63,38.63,0,0,1,264,240.42Z"/><path class="cls-47" d="M188,247.39a2.78,2.78,0,0,0-2.65-1.9c-3.14.24-3.52-1.63-3.32-4.05C189.2,241.56,190.08,242.43,188,247.39Z"/><path class="cls-48" d="M177,253.6c-.82-1.64-1.77-3.42.36-4.67,1.44-.84,3.7-1.11,4.49.29,1.46,2.6-2.06,2.58-2.87,4.11Z"/><path class="cls-49" d="M217.07,224.46l-1.17.82c.14-2.95.34-5.9-1.06-8.66l.23-.27a4,4,0,0,1,5,2.16C222,221.91,217.52,222.19,217.07,224.46Z"/><path class="cls-9" d="M153.87,219.53c-2.08-2.58-.05-5.47-.62-8.16,1.23-1.79-.09-4.32,1.74-5.93C155.16,210.18,155.22,214.91,153.87,219.53Z"/><path class="cls-50" d="M70.19,267.58c-1-.37-2.29.25-3.3-.85,4-1.09,8-2,12.11-1.43C76.26,266.81,73.23,267.21,70.19,267.58Z"/><path class="cls-51" d="M165.05,255.28c1.22-3.27,3.09-3.22,6,.17C169,256.65,167.05,255.57,165.05,255.28Z"/><path class="cls-52" d="M74.05,256.44l-8,0,2-3C70.24,254,72.75,254,74.05,256.44Z"/><path class="cls-53" d="M371.71,156.58c-1,2.25-3.45,3.93-2.75,6.87-2.27-3.38-.32-6.21,1.17-9.1A2.52,2.52,0,0,1,371.71,156.58Z"/><path class="cls-5" d="M100.06,204.47c-.32.68-.65,1.36-1,2-1,1.36-2.58.9-3.94,1.08C95.21,204.08,97.78,204.5,100.06,204.47Z"/><path class="cls-8" d="M71.06,226.37c-.19-3.75,2.16-4.17,5.07-3.84C74.94,224.48,72.75,225.09,71.06,226.37Z"/><path class="cls-24" d="M362.66,146.57c-2.77-1.24-5.12-2.86-5.63-6.17C358.91,142.46,360.78,144.52,362.66,146.57Z"/><path class="cls-54" d="M135,174.47c-.78-3.83-4.23-3.91-7-5-1.26-1.54-.2-3,.06-4.56.11-.44.25-.87.4-1.31.55-2.51,1.67-3.93,4.69-4.08,3.94-.19,4.3-1.38,1.94-4.6a16.74,16.74,0,0,0-4.86-4.95c-5.54-3.26-5.9-4.12-4.86-11.17l.63-.32c1.16,0,2.4-.08,3.26.87,1.88,2.08,3.45,2.47,4.67-.58.81-2,3.42-.62,4.55-2-.52-1.63-1.7-1.08-2.58-1.27s-2.09.31-2.38-1.61c4.07.64,8,.62,12,1.43,4.15.84,8.07-.85,12-2.29-.36-2.27-2.46-2.18-3.62-3.19-3-2.61-2.61-5.91,1-7.34.45-.18,1.33-.27,1.34-.43.24-4.32,3.38-4.36,5.91-3.17,3.13,1.47,6.09,3.18,7.08,7.56,1.14,5,2.3,10.52,8.15,13.22,1.81.83,4.84,1.83,4.31,5.77-.2,1.44,4.66,1.4,5.81,3.91-1,2.38-4.47-.41-4.58,2.49-.06,1.66,1.75,1.64,3.12,1.56a2.28,2.28,0,0,1,2.81-.24c.06,3.93-3.19,1.44-4.35,2.33a5.29,5.29,0,0,1,1.45,0c2,.28,5.17-1.17,5.78,1.27.7,2.76-2.69,3.77-4.64,5-2.36,1.55-5.12.65-7.76.48-2.8-.18-5.09.35-2.36,3.8-.85,2.91-5,5.66-7.65,5.06-2.33-.54-3.3-4.49-2.21-9.28-4.48-.76-7.25,2.9-10.88,4.2-1.37.49-.8,1.94-.32,3,.87,2,2.08,4.3-.55,5.66-2.48,1.29-3.19-1.6-4.68-2.8-.43,1.26.4,2.6-.38,3.76-2,1.75-3.59,5.95-6.54,1,3.47-1.22-.52-3.53.73-5.07a4.76,4.76,0,0,0-.15-5.09c-1.6-2.44-3.26-3.23-5-.11-1.29.51-3.09.51-2.14,2.85.54,1.35,1.41,2.69,1,4.3C137.34,174.5,136.36,175.11,135,174.47Z"/><path class="cls-55" d="M189,153.51l-2.94-.09c-.79-1.59-.1-2,1.44-1.95,2.26.07,4.52,0,7.09,0-.59-2.74-2.43-1.65-3.58-2,.3-.56.51-1.54.89-1.62,4.62-.86,2.85-2.57.16-4.71,2.86-.55,5.22-1.38,6.62-3.79.59-1,1.5-1.68.18-2.9-3.48-3.2-.69-3.55,1.89-4,1-.16,2.72.47,2.72-1.25,0-1.49-1.68-1-2.56-1.44-2.63-1.34-5.81-2.56-5-6.72a9.18,9.18,0,0,0-.52-3.87c-1.39-5-.66-6.45,4.46-7.45,5.68-1.11,10.8.5,15.55,3.62,1.42.93,2.72,2.61,4.82,1.3.06-1.79-1.74-1.11-2.42-1.93-1.55-1.89-4.11-3.85-3.84-6s3.7-1.3,5.61-2.18c7-3.21,14.25-1.72,21.45-1.06,3.37,1.46,4.92,3.92,4.91,7.71,0,6.64.62,13.11,6.22,17.91a3.87,3.87,0,0,1,.95,4.55c-4.87,1.51-8.5.16-9.72-4.38-.7-2.62-2.28-4.27-3.83-6.13-.7-2.16-2.4-4.06-1.8-6.57.79-3.3-.29-5.16-3.9-5-2.82.11-5.08-1.11-7,3.59-1.83,4.54-1.85,9.55-4.29,13.64-1.3,2.17.27,2.85.87,4.15-.45,5.42,1.26,10.62,1.71,15.89.57,6.61-3.23,12.14-7.62,17-1.16,1-2.63,1.35-3.5.05-3-4.54-7.42-6.27-12.49-7.52C196.87,159.26,193.29,155.64,189,153.51Z"/><path class="cls-56" d="M114.05,153.5l-2,0c1-1-4.69-.55-.5-2.34,1.9-.81,1.14-2.3.48-3.62.09-5.15.47-10.26,3-14.9,1-1.76.93-3.08-.93-4.17a1.7,1.7,0,0,1-.57-2.57,1.83,1.83,0,0,1,2.55-.81c4.49,2.16,8-2,12.36-1.73,2.93.22,0-3.28,2.28-4.37,2.82,4,6.42,4.09,10.39,1.46a2.7,2.7,0,0,1,4.21,1.09c1.22,2.19-1.11,1.83-2,2.44-2.34,1.62-3,3.22.49,5.41-4.87-1.9-9.27,1.94-13.56-.76-.46,3.63-2.78,6.58-4.21,9.91h0c-1,.63-1.8,1.27-1,2.65,1.06,1.74.38,3-1.37,3.78-2.86-.18-5.27.06-5.71,3.78C117.74,151,116.05,152.47,114.05,153.5Z"/><path class="cls-57" d="M253,135.51a18,18,0,0,0-4.12-5.67c-3.37-3.23-4.37-8.48-4.24-13s-.43-8.17-3.62-11.33c1.63-.17,3.82.27,4.81-.61,4.51-4,8.84.09,13.2.07,2.55,0,2.49,5.52-.31,8.29,5,.8,9.56-.74,14.18-1.46,1.11-.18,2.13-1.26,2.78.39.51,1.31.56,2.77-1.18,3.21-2,.51-3.69,2.63-6,1.72-2.07-.82-3.91-1.93-5.6.64s-.38,4.68,1.13,6.73c.09,2.47-.78,5.4,3.78,4.64,2.12-.35,2.75,2.19,3,3.94.47,3.25,1.13,6.51.84,9.84a9.53,9.53,0,0,1-13.75-.22C256,140.59,253.83,138.43,253,135.51Z"/><path class="cls-58" d="M342.93,114.5c.83,5.85-.42,11.45-2,17a9.5,9.5,0,0,0,5.9,4.71,1,1,0,0,1,.09,1.31c-.9.93-2.26,1.64-1.06,3.24-2.49,1-4.08,2.42-3.36,5.52.59,2.53-1,4.71-1.72,7-2.16,2-1.32,6.1-4.92,7.11a8.62,8.62,0,0,0-1,.27c-2,.35-4,1.7-5.93-.23-.6-2.1-2.52-2.83-4.09-3.92-.76-4.9-5.14-8-6.37-12.63,2.49-1.53,5-2.92,8-1.2,4.9,1.77,10.08-2.38,10-8.06-.11-7.29-.65-14.42-5.53-20.49a4.43,4.43,0,0,1-.71-5.05C334.8,110.13,338.87,112.3,342.93,114.5Z"/><path class="cls-59" d="M271,142.49c-1.55-3.22-.36-6.89-1.63-10.14-.4-1-.16-3.16-2.31-2.17-1.47.68-2.64,2.14-4.17.06-1.77-2.41,0-4,1.12-5.72,1.37-.57,2.77-1.09,4.1-1.75s2.51-3.07,3.55-1.52,3.72,2.44,2.92,5.59c-1,4.07,3,8.42,7,7.83,3.33-.49,2.84,2.67,4.37,3.83l.5.47c.92,2.28,1.15,4.69-1.13,6.09-3.13,1.92-2.23,3.78-.51,5.91a16.13,16.13,0,0,1,3,5.12c.33,2.1.93,4.55-1.4,5.67-2.15,1-4-.58-5.71-1.9a17.77,17.77,0,0,1-2.26-2.56,11.91,11.91,0,0,1-2.86-5.67C275.12,148.06,273.21,145.19,271,142.49Z"/><path class="cls-60" d="M329,160.45l5.93.23c-1.26.71-1.38,2.07-1.93,3.22-1.12,2.32-3.45,3.82-5.6,3.3-4-1-8.77-1.89-11.25-4.62-3.62-4-6.35-2.27-9.11-.33a11,11,0,0,1-6.79,2.31,5.83,5.83,0,0,0-5.57,3.49,12,12,0,0,1-8.22,6.48c-2.29.58-3.35,2.61-5,3.95-1.32,1.08-2.44,3.15-4.49,1,2-2.73,4.79-4.91,2.8-9.22-1.19-2.57,1.87-4.62,4.7-2.86,3.7,2.3,5.77,1,7.84-2a22.6,22.6,0,0,1,6.65-5.92c3.35-1,7.18-1.39,6.17-6.59-.23-1.17,1.12-2.6,2.15-2.14,4,1.79,9.14.43,12.15,5.26C321.36,159.11,324,162.93,329,160.45Z"/><path class="cls-61" d="M299,159.48c-3.07,3.5-6,7.17-9.28,10.42-1.46,1.44-3.39.44-4.81-1-1.1-1.12-2.36-2-3.87-.72s-.23,2.19.44,3.32c1.68,2.87-.12,6-4.47,8-4-.21-7.72,3.86-12,.95-1.19-1.57-.34-2.84.58-4.11,2.47-1.76,5.12-.68,7.86-.62-2.37-.87-5.33-1.06-5.7-4.35-.28-2.47-1.87-5.16,1.06-7.16,5,3.39,7,2.56,8.61-3.62.37-1.41.27-3,1.56-4.08a6.4,6.4,0,0,1,1.5,1.19c1.35,2,3.49,3.77,5.55,3.1s.61-3.46.93-5.28c2.28-.11,1.8,1.8,2.22,3,.48,1.43.22,3.95,2.53,3.28s3.91-2.47,3.22-5.27c-.41-1.66-2.16-3-1.18-5,1.48-.77,2.27.19,3,1.21.06.24.13.48.19.72Z"/><path class="cls-62" d="M318.89,143.51c.05,1.47,1,2.24,2.06,3.13,3,2.58,4.77,5.74,3.94,9.89-4.68-2.05-8-5.69-10.85-9.73-.66-.94-.26-3-2.11-2.6-5.87,1.39-7.76-2.83-10-6.7-.76-6.28-.68-12.43,3-18h0a23,23,0,0,1,8-8h1a3.17,3.17,0,0,1,3.55-.56c1.63,2.56-.82,2.9-2.11,3.85-6.18,4.53-10.74,9.88-10.07,18.25.17,2.15.87,3.47,2.91,4,1.09.31,1.77,1,2-1.25.29-2.54,4.2-2.9,5.92-.58S319.6,140.22,318.89,143.51Z"/><path class="cls-63" d="M288.93,130.53a7.59,7.59,0,0,1,1.69-5,3.88,3.88,0,0,1,3.77-1.89c1.79.24,2.27,1.48,2.61,3.08,1.48,6.94,3.54,13.73,1.78,21-.49,2,2.89,5-1.83,5.76-3.92-4.79-7.69-9.65-8.27-16.15C288.54,135.07,286.29,132.7,288.93,130.53Z"/><path class="cls-64" d="M288.93,130.53c-1.19,2.24.78,3.95,1,5.95-1.09,1.13-.58,5.37-4,2h0c.87-3.62-1.28-6.47-3-9.07-3.83-5.83,1.47-11.66-.51-17.45a2.91,2.91,0,0,1,2.52-3.19c2.51-.19,2.55,2,3,3.71-2.32,1.09-2.16,2.88-1.44,5,1.21-1.6-.22-3.76,1.44-5,2.29,2.23,2.13,4.67,1.29,7.6C288.32,123.45,286.21,127,288.93,130.53Z"/><path class="cls-65" d="M318,111.55l-4.07,0c.24-2.87-4.21-1.08-4-4,9-1.47,17.89-.55,26.74,1.67a9.23,9.23,0,0,1,6.24,4.27c0,.34,0,.68,0,1-3.33-1.65-8.35.37-10.18-4.73-.13-.36-1.85-.16-2.83-.22-2.82,2.44-6.8.32-9.69,2.48A2.36,2.36,0,0,1,318,111.55Z"/><path class="cls-65" d="M304.94,119.51a59.55,59.55,0,0,0-3,18C299.57,131.05,300.9,123,304.94,119.51Z"/><path class="cls-65" d="M312.94,111.52a37,37,0,0,1-8,8C304.22,113.46,308.23,112.14,312.94,111.52Z"/><path class="cls-55" d="M192.42,139.42c-1.18-.38-2.91-.61-2.7-1.8a4.15,4.15,0,0,1,3.4-3.65c1.38-.14,1.8,1.23,1.83,2.48A2.64,2.64,0,0,1,192.42,139.42Z"/><path class="cls-1" d="M142.32,107.17c.31,1.15-.25,2.14-1,2-3.29-.77-3.1-4.23-4.59-6.42-.44-.65,0-1.63.6-1.49C140.42,102,141.12,104.94,142.32,107.17Z"/><path class="cls-66" d="M114.05,153.5c1-2.82,2.9-5.13,3.62-8.29s4-1.71,6.37-.71c2.39,1.73,2.74,4.28,3.07,7,.54,4.35,2.45,8.5,1.93,13h0c-7.1,2.92-11.29.83-14-7A6.8,6.8,0,0,1,114.05,153.5Z"/><path class="cls-67" d="M115.05,157.5c3.16,5.33,7.48,8.34,14,7l-1,5c-1.07,4.14-2.35,7.88-7,9.8-2,.85-3.38,3.4-5,5.19-3.1,1.67-2.71-.92-3-2.51-.33-2.06,1-3.7,2.33-4.71,3.55-2.74,4.92-5.95,1.91-9.48C114.59,164.56,115.15,161.06,115.05,157.5Z"/><path class="cls-3" d="M105.06,167.49c.35-2.1.72-4.2,1-6.3.19-1.24.69-2.31,2-2.48,1.93-.24,1.4,1,1.37,2.22-.07,2.16,2.42,2.4,3.41,3.87.8,1.17,1.59,2.38.85,3.62-1,1.61-1.93.07-2.84-.39-1.89-1-3.9-.38-5.85-.55Z"/><path class="cls-68" d="M56.54,216.85c-.68-1.53-.49-2.64.42-3.53,1.16-1.15,3.21-2.43,1.54-4s-1,2.72-3.48,1.71c-.28-2.47-.21-4.84,2.91-6,2.64-1,3.7,1.2,4.65,2.74C64.24,210.49,62.92,212.34,56.54,216.85Z"/><path class="cls-8" d="M68.09,207a6.06,6.06,0,0,1,4.4-2.83C71.27,206.22,71.27,206.22,68.09,207Z"/><path class="cls-69" d="M262,185.46c.55.58,1.17.32,1.83.23,1.11-.17,2.55-.55,2.88,1,.36,1.71-1.19,1.62-2.28,1.86a19.28,19.28,0,0,0-7.93,4.05c2,2,3.8-.6,6,.45-3,5.39-3.37,11.37-3.46,17.41-2.16,1.39-5.12-.39-7.08,1.8-3.12.88-5.73,4.26-9.5,2-2.61-2-5.81-3.08-8.4-5.16s-2.73-2.33-.34-5a1,1,0,0,0-.8-.13c-1.5.12-2.77-.36-3-1.92-.3-1.84.69-3.68,2.35-3.9,2.72-.36,7.08-4.92,7.76,2.39.06.73,2.83,2.23,4.35,1.05,1.31-1-1-2-.91-2.75.48-5.11-5.19-3.36-6.65-6.18a3.41,3.41,0,0,1,.77-1.17c.91-.85,1.61-1.67.44-2.89-3.11-3.23-.38-4.54,2.1-5,4.31-.75,8.7-2.28,13.1-.13a9.56,9.56,0,0,0,4.39.61C259.15,184.16,260.74,184.22,262,185.46Z"/><path class="cls-70" d="M264,240.42c2.43,1.27,2.11,3.05.94,5-2.15,0-4.3-.09-6.43,0-1.79.1-4.33-.9-4.46,2.32a5,5,0,0,0,4,5.49c3.55,1,6.61-.75,9.8-1.78.59,1.46,3.21,2.13,2.32,3.94a7.33,7.33,0,0,1-6,3.94c-5.21.5-10.27.29-14.18-4q-.48-.06-1-.09c-1.51-1.39-2.19-3-1-4.92-1.23-2.25-3.51.49-4.89-1-.05-3,3.69-2.73,4.4-5.09,2.08-1.44,1.36-2.8-.12-4.14a6.35,6.35,0,0,1-.51-3.52c2-4.36,3.12-9.5,8.7-11.1a5,5,0,0,1,4.53.82l1.84.19c1,2.77,1.69,5.1-2.79,5.13a5.17,5.17,0,0,0-4.51,3.47c-1.62,3.74-.79,5.17,3.35,5.28C260,240.48,262,240.42,264,240.42Z"/><path class="cls-71" d="M255,226.45c-4.12,2.11-4.86,6.58-7,10a6.07,6.07,0,0,1-3.48,1.49c-2.09.35-4,.44-3.42-2.72.2-1.07-.86-1.65-1.34-2.46-2.86-1.13-4.23-3-3.22-6.18,2-1.8-.21-4.68,1.66-6.52,2.94.35,6,.56,6.49,4.17-.75-3.38-3.93-3.74-6.68-4.64-.54-1.44.65-2.11,1.34-3a4.62,4.62,0,0,1,4.29-1.49c3.52.33,7.19.46,10.75-1.08-.24-1.43-3.1-.53-2.34-2.64,1.88-3.55,4.59-1.2,7-1,0,2.32,0,4.63,0,7C260.35,221.61,259.54,224.86,255,226.45Z"/><path class="cls-72" d="M257,185.44c-5-.64-9.76-2.73-15-1.05-1.53.49-3.26.33-4.91,2.11,2.25,1.59,7.87,3.37.83,5.94-2.6-.21-5.23-.18-6.29-3.42s-2.51-6.29.66-9.12a28.65,28.65,0,0,1,5.42-3.39c1.49-.81,3.27-1.56,4.62-.28,1.79,1.68-.73,2.69-1,3.93,6.67,1.54,12.13-3.16,18.46-3.69,2.06-.17,4.13-1.42,6.19,0-.33,1.32-.65,2.64-1,4a2.23,2.23,0,0,0-2,1c-2.07,1.85-3.8.07-5.57-.47C259.57,182.61,257.82,184,257,185.44Z"/><path class="cls-41" d="M335.87,160.41c2.5-1.64,1.38-5.39,4-6.93,1.34-3.45,2.89-6.7,7-7.66,3.57-.84,5.13.46,4.38,4.08-.94,4.54-2.24,9-5.38,12.61l-2,0A13.23,13.23,0,0,0,335.87,160.41Z"/><path class="cls-73" d="M257,185.44c-1.26-1.3,3.38-5.09-4-3.84,4.75-2,7.24,0,9.92-.14a6.47,6.47,0,0,1-1,4Z"/><path class="cls-69" d="M255,226.45c0-.41-.16-1.17-.13-1.18,4.62-.93,4.3-4.45,4.15-7.87,2,2.79.53,6,1.09,8.95Z"/><path class="cls-27" d="M233,180.48c-2.85,4.71-.86,9.51,5,12-.3,0-.6.06-.9.06A29.72,29.72,0,0,1,222.5,196l-.53-.51c-1.63-3.77-5.2-4.25-8.26-3.54-3.22.76-5,.18-6.53-2.55a4.55,4.55,0,0,0-2.7-2c-8.09-1.63-15-6.24-22.77-8.68-3.39-1.06-8.56,2.24-9.33,5.51-.59,2.54-3,1.56-4,1.18-3.61-1.25-5.54.52-7.29,3.14a4.09,4.09,0,0,1-1.29-3.13c-.27-3.29-2.06-5-5.27-5.64-2.29-.43-4.68-1-4.46-4.2,0-.17,0-.33,0-.5-.1-2-2.71-4.39-.51-5.62,1.41-.78,3,1.93,3.69,3.84a1.32,1.32,0,0,0,1.93.92,1.69,1.69,0,0,0,.83-2.11,6.52,6.52,0,0,0-1-2.19c-2.15-3-2.16-4.45,2.13-5.7s7.92-5.34,13.2-3.12c-.14,1.93-4.22,1.92-2.53,4.5,1,1.55-.1,4.65,1.62,4.57,2.76-.13,5.84-.93,7.73-3.58a2,2,0,0,1,3.08,0c5.6,5.72,8.91,6.25,15.22,2.36,7-4.3,7-4.33,11.86,2.52.88,1.25,1.9,1.06,3.06,1s2.36-.61,3,.83c.27.57-.1,1-2.31,2.72,3.57,0,5.63-2.8,8.36-4.38a5.13,5.13,0,0,1,.86-.48c2.22-.92,4.79-2.84,6.73-.4,1.71,2.15-1.33,3.67-2,5.56a1.92,1.92,0,0,0-.23.91C230,173.66,232.25,174.57,233,180.48Z"/><path class="cls-74" d="M150,175.49a5.41,5.41,0,0,0,3.22,2.89c7.77,2.34,7.77,2.34,7.8,10.08.51,3.79-.85,7-3,10-.17-2.19.46-4.25.84-6.37.8-4.35-2.43-6.89-6.45-5.32-3.54,1.38-7.33,2.18-10.39,4.67-1.84,1.49-3.79,1-5.52-.3-1.07-.77-2-1.79-3-2.64-4.93-4-5.55-4-9.4,1-.24-6.51,6.18-8.46,8.89-13a12.79,12.79,0,0,1,2-2.07l3-1a20.57,20.57,0,0,1,6,3C146.9,181.29,147.86,174.75,150,175.49Z"/><path class="cls-75" d="M217.07,224.46c0-.32-.06-.78.12-.94,4.24-3.87,1.93-5.77-2.12-7.17-.63-2.9-.95-5.91-1.95-8.68-1.48-4-.39-5.67,3.87-5.18,2.94,2.11,4.29,5.8,7.56,7.6a3,3,0,0,1,.74,2.6c-.77,1.56-1.13,2.95.51,4.38,3.09,2.67,3.16,5.89,1.22,9.3-2.49-.16-5.28,1.19-6.51-2.91C219.94,221.54,218.35,224.33,217.07,224.46Z"/><path class="cls-27" d="M224,210.48c-4-1.24-5.45-4.65-7-8,1.87-.16,3-1.13,3-3,0-1.68.26-3.2,2-4l0,0c1.88,3.12,4.17,5.93,6.31,8.86,1.17,1.6,1.74,3.73.48,5.6S225.75,211.6,224,210.48Z"/><path class="cls-76" d="M345.9,162.51c-1.17-3.6,3.29-4.94,3.29-8.2,0-1.39.89-2.78,1.36-4.17.37-1.12.67-2.35-.4-3.17s-2.14-.23-3.27,0c-3.57.87-5,3.91-7,6.47.57-3.46,1.81-6.71,1.19-10.47-.58-3.52,2.76-2.14,4.62-2.44,2.16-1,3.15.58,4.22,2,2.47,1.22,3.72,2.84,2.6,5.82-.8,2.12-1,4.48-1.64,6.66-2.27,7.39-2.31,7.38,5,10.55l1,2.92c-3-1.73-5.64-4-9-5A2.14,2.14,0,0,1,345.9,162.51Z"/><path class="cls-77" d="M349.94,142.53c-1.8.19-2.65-1.66-4.22-2-2.92-2.39.34-2.82,1.27-4a2.57,2.57,0,0,1,1.25-.93c2.61-.65,4,.49,4.56,3a1.65,1.65,0,0,0,.12.88C352.81,141.41,351.7,142.29,349.94,142.53Z"/><path class="cls-78" d="M151,219.45v2.48c0,6.45,0,6.45-5.92,3.51-.19-7.06-.19-7.06,5.87-6.93C151,218.83,151,219.14,151,219.45Z"/><path class="cls-79" d="M347.87,136.33a2.29,2.29,0,0,1-.88.26c-3.59.18-6.81-.08-6.05-5.08,2.66-1.82,5.34-.58,8,0,1.25.06,2,.62,1.82,2C350.65,135.26,349.17,135.7,347.87,136.33Z"/><path class="cls-80" d="M237,226.45c-.06,2.52.27,4.84,3,6a.67.67,0,0,1-1.07.08c-2.92-.44-4.29.68-3.94,3.74.25,2.21-.64,3.45-3.06,3.08a6.61,6.61,0,0,0,0-.89c5-5.47-1.07-8.21-2.95-12-1.64-2.29-.88-4.85-.81-7.33a2.76,2.76,0,0,1,2.2-1.94c1.6,1,3.19,3.47,4.86.05C239,219.7,235.85,223.48,237,226.45Z"/><path class="cls-26" d="M210,239.4c-.41-.77.64-3.63-1.79-1.59-3.43,2.86-5.85,1.29-8.31-1.22,5.5,1.76,10.54-2.33,16-1.25C215.89,241,215.89,241,210,239.4Z"/><path class="cls-27" d="M229.05,218.47l-.06,8-2-.06c-.23-3.52,1-7.23-3.5-9.62-2.44-1.3-.3-3.25,1.47-4.32,3-2.26,4.43-1.13,4.7,2.25A5.59,5.59,0,0,1,229.05,218.47Z"/><path class="cls-81" d="M238.93,232.48l1.07-.08c2,1,5.81,1.36,1,4.88l7-.79,0,3.94c-.74.82-1.84.26-2.77.74,1,1.08,4.38.13,2.83,3.27.59,3.88-3.88,2.71-4.94,4.94-2.32-2.67-3.49-5.61-1.94-9.08.31-.68.52-1.46-.16-1.6C236.52,237.81,239.32,234.63,238.93,232.48Z"/><path class="cls-11" d="M248,250.41c.34,1.64.69,3.28,1,4.92-1.42,1.6-2.2,1.18-3.12-.64C244.6,252.13,246,251.22,248,250.41Z"/><path class="cls-15" d="M347.87,136.33l2.91-2.89c3.34.7,1.78,3.3,2,5.21C351.69,136.74,349.94,136.19,347.87,136.33Z"/><path class="cls-82" d="M220,172.48c-3.54,3.23-7.39,5.54-12.89,4.47,1.44-2.32,4.57-1,5.46-3.43-1.33-.71-2.49.08-3.6.51-2.21.84-3.07-.23-3.42-2.17-.88-4.85-4.1-6.42-7.77-3.11-5.17,4.65-10.69,4.2-16.59,2.59-1.49-.41-2.09-1.31-1.67-3,.59-2.31-1.33-1.65-2.49-1.85-1.62-.11-4,0-3.52-2.23s2-4.6,4.9-3.64c5,1.69,9.24.87,13.12-4H179.67c2.69-3.51,6.65-.63,9.34-3.08,1.18-1,1.87-.58,3.44-.06,5.19,1.74,8,8.43,15,6.66,2.09-.53,4.12,3.27,5.91,5.33,1,1.17,1.21,3.38,3.58,2C220.59,167.57,221.71,169.17,220,172.48Z"/><path class="cls-67" d="M129,164.48c-3.06-6.31-2-13.65-5-20,.38-1,1.24-1.91.35-3.08-1.74-2.25-.15-2.65,1.66-2.91.69,4.13-1.43,9.22,5.59,10.79,2.61.59,4.89,4.72,6.38,7.7,1.4,2.78-2.21,4.33-3.52,3.94C130.77,159.85,130.14,162.26,129,164.48Z"/><path class="cls-27" d="M144.05,176.48c-2.64.28-4.81-.41-6-3-.88-1.53-2.17-2.84-2.13-4.82,0-1.21-1.59-2.6-.2-3.56s2.12,1.11,3.34,1.38c3.39,0,4.74,2.45,6,5C143.87,173,149.42,175.81,144.05,176.48Z"/><path class="cls-67" d="M145,171.49l-6-5c.22-1.34-.61-3.11,1.3-3.78a3.34,3.34,0,0,1,4.11,1.83C145.55,166.66,149,168.86,145,171.49Z"/><path class="cls-1" d="M141.22,138.23c2.25-1.07,3.76-.78,6.22,0C144.8,139.9,143.3,139.64,141.22,138.23Z"/><path class="cls-73" d="M220,172.48c.77-2.74-1.18-3.84-3-5,.34-3.41,3.91-4.73,5-7.65,1.49-4.19,2.81-8.82,1.29-12.88A17.69,17.69,0,0,1,223,135.5c.3-6.14,1.32-12,5.57-16.9,1.09-1.26,2-2.91,3.94-2.43,2.14.51,2.66,2.4,2.71,4.27.16,7.12.19,14.23-.25,21.34-.25,4,2.28,6.45,6.24,5.53,2.57-.6,5.19-1,7.73-1.74,5.81-1.71,10,1.4,10.08,7.48a18.89,18.89,0,0,1-.17,2c-.19,2.07-2,4.8-.1,6.05,2.35,1.57,3.22-2,4.93-3,2.32-1.34,4.08-1.34,5,1.58.38,1.28,1.21,2.35,1.61,3.62,0,.83-.26,1.4-1.26,1.14-.55,4.22-2.68,9.15,4.73,9.59a3.52,3.52,0,0,1,2.8,2.88c-3.61,1.44-7.05-1.46-10.53-.46-4.39,1.73-9.5.71-13.58,3.59s-9.15.05-13.78,1.88c1.16-1.64,2.31-3.29,3.66-5.22-3.94-.44-6.13,2.92-9.28,3.75-3-8.6-6.78-2.18-11-.78.92-2,1.73-4,2.82-5.95.51-.89,2.41-1.33,1.47-2.63s-2.41-.53-3.63,0Z"/><path class="cls-83" d="M269,164.47l1-1c.41-2.11,0-4.55-1.67-5.35-3.26-1.53-2.93-3.82-1.95-7-4.19,1-6.17-1.37-8.21-3.89-2.6-3.2-5.42-5.07-10.21-3.85-4.11,1.05-8.64,2.68-13,.31,1.47-3.05,2-5.9.58-9.4-1.16-2.87.15-6.13,1.77-8.9.61-1,1.41-1.89,2.75-.88,2,1.78,4.28,2.65,4.5,6.51.2,3.5,4.41,5.23,8.49,4.49a15.4,15.4,0,0,1,5,5.26c2.52,4.32,9,5.09,13,1.72,4.15.67,4.73,4.27,5.48,7.32a31.61,31.61,0,0,0,2.5,6.69,14.46,14.46,0,0,1-1.41,8.11,8,8,0,0,1-5,4C270.78,169,270.21,165.92,269,164.47Z"/><path class="cls-84" d="M240,124.51c-3.87,2.89-5,7.72-3,10.93,2.69,4.34,1,5.95-2,8.06-.84.18-1.31,0-1-1,0-7.3,0-14.59,0-21.89,0-1.48.17-3.26-1.77-3.63-1.72-.34-2,1.41-2.68,2.47-2.78,4.22-5.78,8.33-4.72,13.91.19,1-.87,1.7-1.82,2.14-1.44-1.64-4.83-2.86-1-5.56a2.86,2.86,0,0,0,.8-3.62c-.87-1.75.39-3.25.18-4.79-.32-2.42,5.86-3.15,1.59-6.42,2.4-1.17,4.08-4,7.35-3.16a15.58,15.58,0,0,0,3.88.54c3.37-.09,4.81,1.29,3.25,4.47C237.59,119.83,240.84,121.86,240,124.51Z"/><path class="cls-85" d="M319.87,111.46c2.77-3.69,6.7-1.29,10.05-1.91,3.28,4.72,6.52,9.84,7.3,15.3s2.29,11.94-2.29,17.22c-2.5,2.88-7.27,3.86-9,1.43-.79-1.47-1.57-2.31-3.49-1.2-3,1.71-3.93,0-3.87-2.78.12-6.79-.25-7.35-6.62-9.51-4.37-1.49-4.94-3.29-1.83-6.77a53.38,53.38,0,0,1,7.87-7.6c1.11-.82,2.45-1.29,3.68-.31,1.39,1.12.56,2.37-.09,3.55s-2,2.14-.68,3.47c1,1,2.19.17,3.27-.17a18.7,18.7,0,0,1,1.93-.47c1.56-.33,3.81,1.24,4.58-.59.87-2-1.33-3.52-2.46-5.09a7.2,7.2,0,0,0-5.6-2.78C321.48,113.15,319.75,113.62,319.87,111.46Z"/><path class="cls-86" d="M319.87,111.46c5.37.2,9.43,2.46,11.95,7.36.63,1.22,1.53,2.36.77,3.66-1,1.64-2.71,1.25-4,.7a4.7,4.7,0,0,0-5.13.66c-1.66,1.35-2.74,1.09-4.16-.39-1.6-1.68-1-2.8.33-4.18.84-.86,2.77-1.81,1.63-3.1-1.39-1.57-2.6.27-3.65,1.21a31.52,31.52,0,0,0-3.16,3.17c-1.78,2.13-5.48,3.56-5.08,6.33s4.36,1.86,6.65,2.82c3.1,1.29,5.08,6,3.77,9.42-.4,1-.81,1.82.11,2.63s1.82.35,2.61-.36c3.49-3.09,3.21-.11,3.42,2.11-2.35-2.31-4.69,1.74-7,0a59.3,59.3,0,0,1-2.83-6.19c-1.07-3.22-2.78-3.31-5.25-1.54.61,1.29,3.43.94,2.57,2.9-.75,1.74-2.28.14-3.47,0-3.88-.46-6-1-5.91-6.54.1-10,5.43-15.16,13.06-19.42.4-.22.61-.77.91-1.17Z"/><path class="cls-87" d="M294,151.5c0,1.27.82,2.09,1.42,3.07,2,3.26-.11,8.44-3.77,9.43-2.11.57-2.33-1.27-3.1-2.45-1.2-1.85.4-4.41-1.57-6l-3-4c1.09-1.33,2.72-1.85,4.11-2.7C291.23,146.87,293.33,147.68,294,151.5Z"/><path class="cls-2" d="M294,151.5c-1.61-2.39-3.17-4.59-5.84-.92-1,1.35-2.73.83-4.18.91-2.61-2.88-4.8-5.45,1-7.49,2-.72.65-3.62,1-5.5,2.47,1.57,2.69-1.25,4-2,1.58,4.52.69,10.21,6.44,12.8,1.25.57.45,2.77.59,4.21Z"/><path class="cls-88" d="M288,112.5c-.26,2.08,1.34,4.1,0,6.25-.54.9-1.12,2.16-2,1.33-2.15-2-1.27-5-1.43-7.39-.14-2.08,2.17-.5,3.42-.19Z"/><path class="cls-72" d="M229.05,218.47c-.27-1.11-1-2.36-.71-3.29,1.32-4.09-1.28-3-3.35-2.75l-1-2c1.53-.23,3.86.66,4.21-1.45a5.7,5.7,0,0,0-1.71-5.36c-2.4-2.16-5.07-4.34-4.5-8.2,5.1-.57,9.79-3.22,15.05-3,2.39,2.15,5.47.11,8.35,1.48-.87,1.7-4.18,4.07.64,5,.13,0,1.22,2.81.17,3.94a2.71,2.71,0,0,1-3.6.55,15,15,0,0,0-6-2.43c-.11-2.33,3-.86,2.43-2.58-.57-1.57-2.17-1.08-3.33-.18a3.07,3.07,0,0,1-2.31.48c-2-.12-2.62,1.47-2.67,2.92-.07,1.91,1.68,1.67,2.94,1.74,1.48.07,2.95,0,4.85,0-1.65,3.29-4,1.12-6.55,1.69,2.11,3.57,5.63,4.68,8.67,6.22,1,.53,2.22.51,2.34,2-1.11,1.3-4.51.93-3,4.13l-1.93,2c.33.18.44.38.34.58s-.21.32-.32.32c.91,1.2-.11,2.7.8,4.05,1.74,2.6-.86,1.66-1.85,2-1.58-.74-1.95-1.77-1.38-3.53s.93-3.8-.51-5.52c-1.38-.28-2.75.15-4.13,0Z"/><path class="cls-89" d="M240,217.48c-1.52-.75-2.52-2.09-1.81-3.61,1.14-2.42,3.26.35,4.81-.52,3.61,2.2,5.72-2.66,9-1.93.23.23.45.48.7.69,1.4,1.16,4.27-2.08,4.5.86.19,2.51-3.06,2.83-5,3.14a23.94,23.94,0,0,1-8.4-.05C241.83,215.66,241.05,216.55,240,217.48Z"/><path class="cls-90" d="M246.92,189c4.21-2.26,7.83-.23,11.27-1.22C254.84,190.08,251.31,190.53,246.92,189Z"/><path class="cls-71" d="M248,244.44c-.76-4-3.43-.41-5-1.25,1.43-4.44,1.43-4.44,4.92-2.76,1.09.12,2.57-.29,2.79,1.29C251,243.61,249.65,244.25,248,244.44Z"/><path class="cls-91" d="M245.65,221.21c2.39-2.78,4.36-3.34,6.47-2.28.47.24.71,2.37.31,2.69C250.35,223.29,248.58,220.92,245.65,221.21Z"/><path class="cls-92" d="M238.05,220.39a4.59,4.59,0,0,1,0-.91c4.3.25,4.3.25,9.16,5.87-1,1.24-2.09,0-3.15.07-1.93.15-2.21.43-.91-1.84C244,222.07,240.05,221.2,238.05,220.39Z"/><path class="cls-93" d="M218.69,187.77c-.77,1.73-2.46,2.31-4.22,2.53-1,.13-2.32-.69-2-1.58.79-1.94,3-2,4.78-2.63C218.07,185.83,218.71,186.64,218.69,187.77Z"/><path class="cls-82" d="M206.31,182c.72-2.22,2.25-2.24,4.33-2.59C209.56,181.77,208.51,182.72,206.31,182Z"/><path class="cls-94" d="M231,217.44c1.37-.76,2.72-3.55,4.13,0-.13,1.46-.25,2.91-.41,4.66C232.23,221.21,230.89,219.91,231,217.44Z"/><path class="cls-95" d="M234,142.5c.34.33.68.66,1,1a56.09,56.09,0,0,0,16.42-2.37c3.36-1,5.55,2.88,7.55,5.15,2.16,2.45,3.45,5,7.53,3.42,1.95-.77,2.73.67,1.3,2.5-1.68,2.16-2.05,3.55,1.1,5.15,1.65.84,5.6,3.3,1.05,6.14-2.14-1.9-6.22-2.14-9.14-.54a3.4,3.4,0,0,1-3.34.13c-1.6-.84-.92-2.1-.73-3.44.56-4.12,2.67-8.38-1.12-12.21-1.13-1.13-2.16-2.58-3.66-1.67-3.12,1.88-6.79,1.31-10,2.71-2.71,1.18-8.48-1.43-9.36-4.2C232.31,143.36,233.21,142.86,234,142.5Z"/><path class="cls-95" d="M248.83,150.94c-3.35,2.74-7.5.53-11.07,2C241,149.93,244.94,150.57,248.83,150.94Z"/></svg>