<svg id="Layer_1" data-name="Layer 1" xmlns="http://www.w3.org/2000/svg" viewBox="0 0 400 275"><defs><style>.cls-1{fill:#edd8a4;}.cls-2{fill:#e9cc95;}.cls-3{fill:#ddc38f;}.cls-4{fill:#ddc18d;}.cls-5{fill:#ebd098;}.cls-6{fill:#d9b77e;}.cls-7{fill:#d1b37e;}.cls-8{fill:#d1ae75;}.cls-9{fill:#e2c48c;}.cls-10{fill:#ceae77;}.cls-11{fill:#ceac71;}.cls-12{fill:#d3b682;}.cls-13{fill:#d5c39f;}.cls-14{fill:#dfbe84;}.cls-15{fill:#d8b983;}.cls-16{fill:#d7b279;}.cls-17{fill:#b69a6a;}.cls-18{fill:#e3d1a5;}.cls-19{fill:#d8bd8c;}.cls-20{fill:#e2c38c;}.cls-21{fill:#ac7f45;}.cls-22{fill:#caae7f;}.cls-23{fill:#e2ca9e;}.cls-24{fill:#e1ca9b;}.cls-25{fill:#d5b174;}.cls-26{fill:#b0925e;}.cls-27{fill:#e8cc9a;}.cls-28{fill:#c7af83;}.cls-29{fill:#c5a677;}.cls-30{fill:#d1b380;}.cls-31{fill:#9d8254;}.cls-32{fill:#d6bb8b;}.cls-33{fill:#e6cfa5;}.cls-34{fill:#d5c093;}.cls-35{fill:#c7af82;}.cls-36{fill:#bca174;}.cls-37{fill:#946e42;}.cls-38{fill:#dec69a;}.cls-39{fill:#ddcaa4;}.cls-40{fill:#dbbc89;}.cls-41{fill:#e7dbc1;}.cls-42{fill:#e3d6b9;}.cls-43{fill:#d0b481;}.cls-44{fill:#bba788;}.cls-45{fill:#b49160;}.cls-46{fill:#decca9;}.cls-47{fill:#c6b89c;}.cls-48{fill:#cfba97;}.cls-49{fill:#a68e66;}.cls-50{fill:#c6aa7c;}.cls-51{fill:#403325;}.cls-52{fill:#d3c09e;}.cls-53{fill:#96866a;}.cls-54{fill:#bca06f;}.cls-55{fill:#a89570;}.cls-56{fill:#8e7653;}.cls-57{fill:#675130;}.cls-58{fill:#d6c299;}.cls-59{fill:#e6dbc7;}.cls-60{fill:#e6cf9b;}.cls-61{fill:#dab374;}.cls-62{fill:#e0c38b;}.cls-63{fill:#caaa6d;}.cls-64{fill:#e1c792;}.cls-65{fill:#d9b980;}.cls-66{fill:#c2a168;}.cls-67{fill:#c5a367;}.cls-68{fill:#dbcaa5;}.cls-69{fill:#e0bf83;}.cls-70{fill:#ddbd80;}.cls-71{fill:#e4c891;}.cls-72{fill:#cea667;}.cls-73{fill:#d7b475;}.cls-74{fill:#c1975d;}.cls-75{fill:#e0c594;}.cls-76{fill:#bfa270;}.cls-77{fill:#dab779;}.cls-78{fill:#b19461;}.cls-79{fill:#ae8c50;}.cls-80{fill:#c19b60;}.cls-81{fill:#ceb888;}.cls-82{fill:#ae8b53;}.cls-83{fill:#d0b78b;}.cls-84{fill:#c0a67a;}.cls-85{fill:#d0a96d;}.cls-86{fill:#c8a774;}.cls-87{fill:#bc9053;}.cls-88{fill:#462b16;}.cls-89{fill:#b6884c;}.cls-90{fill:#d3b78a;}.cls-91{fill:#a88858;}.cls-92{fill:#b3894e;}.cls-93{fill:#a48e6c;}.cls-94{fill:#d8bf8e;}.cls-95{fill:#cbac74;}.cls-96{fill:#dbbf89;}.cls-97{fill:#d4b985;}.cls-98{fill:#e2c487;}.cls-99{fill:#ceb17e;}.cls-100{fill:#d4b070;}.cls-101{fill:#c59f60;}.cls-102{fill:#e0c38a;}.cls-103{fill:#d9ba83;}.cls-104{fill:#bf9559;}.cls-105{fill:#b98746;}.cls-106{fill:#be995c;}.cls-107{fill:#a97b42;}.cls-108{fill:#a97d43;}.cls-109{fill:#b99d6c;}.cls-110{fill:#d6b681;}.cls-111{fill:#886942;}.cls-112{fill:#98672b;}</style></defs><path class="cls-1" d="M111,204.44c.19-3-1.28-4.3-4.16-4-2.59.24-5.16.62-7.75.94-.43-1.45.63-2.17,1.45-3s2.17-1.5,1-2.81c-9-9.69-15-21.25-20.66-33-.65-1.34-1.1-2.9-2.35-3.76-3-2.07-4.23-4.94-4.41-8.56.77,4.43-.8,8.59-.83,12.87-.39,1.13-.3,2.72-2.24,2.39a128,128,0,0,1,3.11-33c.14-.63.15-1.48.57-1.85,6.91-6.22,2-11.17-1.53-16.49A117.38,117.38,0,0,1,63,96.56c2.17-.58,2.86,1.22,3.82,2.46C72.1,105.85,75.43,114,81,120.6a5.4,5.4,0,0,1,.27,6.56c-1.94,3-1.6,5.88-.33,9,1.93,4.74,3.26,9.79,8,12.74a3.12,3.12,0,0,1,1.57,3.42c-.81,3.4,1.39,5.73,3,8.1s5.22,1.88,5.72-.71c.92-4.74,4.39-4.24,7.65-4.34,3.84-.12,4.65,2.37,4.62,5.54,0,.3.3.58.54.82,1,1.11,2.2,2,3.24,3.09,1.22,1.25,2.47,3.17,1.6,4.41-2.74,3.9-2.26,9.5-6.69,12.42-.7.46-1.86,1.18-1.57,1.72,2.09,3.95-.18,7.6-.42,11.39-.19,2.89,3.43,3.82,4.56,6.24C112.89,202.48,113.59,204.33,111,204.44Z"/><path class="cls-2" d="M225,232.31c-3.29-2.23-3.5-6.36-5.63-9.43-4-5.68-10.27-9.14-13.43-15.36a5.73,5.73,0,0,1-.79-2c-.35-3.82-.46-7.27,2.24-10.8,2.1-2.75,0-6.64-.48-10-.15-1-1.82-2.07-3-.15-3.31,5.6-4.71,6.11-10.92,4-.21-.26-.52-.72-.39-.85,3-3,4.08-8,7.53-10,6.29-3.64,10.63-7.66,9.23-15.52,1.58-5.32.59-10.58-.28-15.87-1.06-6.43,2-11.93,4.37-17.52a12,12,0,0,0,1.31-4.19c5.34-2.72,8.53-1.54,9.47,3.87s2.7,10.94.46,16.69c-1.05,2.7.44,5.58,2.07,7.94,2.34,3.38,2.43,6.33-.84,9.24a29.24,29.24,0,0,0-4.92,6.28c-2.27,3.56-1.3,6,2.71,7.08.64.17-.14-.11.49.11,2.1.73,6.25-.59,5.7,2.83-.47,3-4.36,1.89-6.93,1.81-.67,0,.17,0-.58-.11,3.05,1.62,6.37.88,9.47,1.47,2.17.41,5.34,0,5,3.87-1.67,1.18-3.52,1-5.36.68-3.26-.93-6.38-1-9.22,1.29a4.1,4.1,0,0,1-3.27.58c-.6,0-1.14-.41-1.76-.37.25.73,1,.35,1.42.59a2.6,2.6,0,0,1,1.61,1.17c-1.15,3.34-3.22,6.28-4,9.84-.4,1.83-2.44,2.56-4.28,3.05-1.15.3-2.27.75-2.37,2.18a3,3,0,0,0,2.15,3c1.82.8,3.74,1.38,5.55,2.21a4.6,4.6,0,0,1,1.79,1.1c-1.54,5.76,1.27,9.8,5.2,13.48C226.77,226.94,227.72,229.51,225,232.31Z"/><path class="cls-3" d="M111,204.44c1.58-1,.9-2.6,1.06-4-1.29-2.06-.18-4.57-1.31-6.7a2.24,2.24,0,0,1,.86-3c1.31-.86,2.3-.06,3,.88,1.62,2.33,3.77,2.21,6.18,1.82a8.28,8.28,0,0,1,6.57,1.47,7.75,7.75,0,0,0,10.34-1.48c1.18-1.5,0-2.82-.26-4.2-.42-1.9-.42-3.74,1.51-4.78s3.06.54,4,1.9c1.71,2.59,4.41,3.94,6.79,5.7a5.65,5.65,0,0,1,2.19,5.73c-2,5.27-3.38,10.63-2.84,16.34a6.71,6.71,0,0,1-2,5.86,4.7,4.7,0,0,0-1.51,4l-.25.42c-3.41-2.45-8-3.35-10.51-6.78a19,19,0,0,0-5.6-5.24c-1.15-.94-1.16-3.3-3.48-2.77-2.73,1.38-6.11-.19-8.65,2a14.27,14.27,0,0,0-3.27-.95C107.48,210.32,107.44,210.28,111,204.44Z"/><path class="cls-4" d="M98,106.45c12.86-3.09,26-4.38,39.08-6,15.69-1.9,30.86,1.81,46.21,4.13,7.08,1.08,14.5,0,21.76-.11-1,5.18-5.66,5-8.9,4.84-4.75-.26-9.47,2.12-14.17,0a2,2,0,0,0-1.92.24c-4,3.32-7.95,3.69-11.85-.24a1.17,1.17,0,0,0-1.77.17c-2.77,5.37-7.51,2.64-11.53,2.92-.48.12-1,.2-1.46.28a26.81,26.81,0,0,1-16.07-.88,10.77,10.77,0,0,0-5.37-.3,15.09,15.09,0,0,1-7.83-.54c-4-1.5-7.84-3.66-12-.22-1.26,1-2.85-.1-4-1a7.9,7.9,0,0,0-5.5-1.89C100.89,107.84,99.17,107.91,98,106.45Z"/><path class="cls-5" d="M111.06,162.49c-.48-.43-1.17-.78-1.38-1.32-.53-1.39,2.25-3.31-.26-4.27a10.28,10.28,0,0,0-7.32.16c-.91.35-1.83.78-1.62,2.13s1.87,3.8-1,3.74c-2.52-.06-6.47,2.18-7.44-2.39-.65-3-5.82-4.91-2.36-9,.14-.16-.46-1.33-.93-1.54-7.19-3.29-7.37-10.85-10.25-16.73-1.12-2.28.12-4.22,1.4-6,1.42-2,1.88-4.14.27-6-6.19-7-9.75-15.75-15.33-23.14A10.88,10.88,0,0,0,63,96.56c-6.69-13.74-8.08-27.72-2-42.06,1.88,1.91.94,4.12.44,6.13-2.65,10.82-1.74,21,4.37,30.66,3.55,5.59,5,12.37,9.56,17.43A39.25,39.25,0,0,0,78,112.37a38.35,38.35,0,0,0,4.08,6.2,9.1,9.1,0,0,1,2,6.48c-.06,5.63,1.88,10.88,3.49,16.16.88,2.87,2.59,3.76,5.7,2.67,5.73-2,11.49-.16,17.17.71,2.77.43,3.62,2.84,3.35,5.34-.32,3,.8,5.49,2.46,7.85.15,1.64-.85,2.71-1.89,3.76S111.36,159.26,111.06,162.49Z"/><path class="cls-6" d="M320,91.48l16.9,8c-1.92,1.81-4.16,1.37-6.41.94a8.34,8.34,0,0,1-2.14-1.1c-.68-.44-1.33-1.27-2.13-1.18-8.95,1-18.37-.35-26.48,5.07a4.92,4.92,0,0,0-2.29,2.4c-1.84,4.76-10.9,9.47-15.83,8.45-1.77-.36-2.8-1.67-3.85-3-1.4-1.75-2.93-3.24-5.46-2.54-5.45,2.43-8.61,5.08-11.61,9.77-3.12,1.66-6.19,3.58-9.86,1.45a3.2,3.2,0,0,1-.52-2.35c.67-5.52-1.37-8.1-7.26-8.46-4.62-.28-9.16-1.31-13.82-1.21-1.59,0-3.84.46-4.25-2.18l17-.09a200.87,200.87,0,0,1,25.12-1.71c7.45,0,14.68-2.43,22.19-1.85,1.74.14,2.92-1.33,4.21-2.38C301.21,93.27,310,90.19,320,91.48Z"/><path class="cls-7" d="M159.11,271.86c-5.1,1.07-9.73,1.3-12.11-4.84-.82-2.12-3.13-3.27-5.07-4.5,1-6,.49-12.15.66-18.22.07-2.43-.27-5,2-6.82,2.22-1,2.78.88,3.68,2.17,3.8,5.42,7.7,10.79,9,17.48,1.23,4.46,3.08,5.13,6.35,2.27.87-.76,1.42-1.84,2.4-2.51a5.85,5.85,0,0,1,1.38-.55c3.45-.51,6.73-2.34,10.37-1.3,2.31,4.39,3.63,8.84.93,13.58-1.9-1.1-3.51-1.12-4.45,1.24a3.21,3.21,0,0,1-3.21.83c-1.21-2.47.54-4.29,1.77-6.41-2.84.11-5.27.58-8.11.21,1,2.35,4.07,3.23,3.46,6.05C165.28,271.77,161.88,269.68,159.11,271.86Z"/><path class="cls-8" d="M225,105.6c5.72,1.61,11.68,1.67,17.48,1.71,4.19,0,6.5,3.78,10.51,3.64,1.12,0,.31,1.6,0,2.48-.68,2-1.35,4.06-2,6.08-2.48,1.14-2.23-.91-2.64-2.23a9.66,9.66,0,0,0-10.87-6.35A2.67,2.67,0,0,0,235,114c.23,6.88-1,13.91,2.76,20.37.78,1.33,1.24,2.79,2.8,3.21,3.91,1,6.6,3.67,9.22,6.53s6.31,3.94,10.31,4.22c5.46.39,7.39,2.69,7.34,7.81-2.78.89-5.72,0-8.57,1-1.87.63-3.48-.94-4.37-2.61-2.69-5-8.07-7.21-11.75-11.19a4.13,4.13,0,0,0-2.76-.92c-6.23-.62-9-3.23-10-9.19-.69-4.08-1.38-8.15-.95-12.31.15-1.39,0-2.66-1.46-3.36a10.3,10.3,0,0,1-1.16-.79c-1.52-1.6-3.19-1.76-5.3-1-3,1-6.19,2-9.52,1.61-2.61-.79-4.34-2.42-4.37-5.23,0-2.66,2-4,4-5.13a16.78,16.78,0,0,1,7.81-2.68C221.08,104.58,223.16,104.55,225,105.6Z"/><path class="cls-9" d="M42,247.45c0-11.68,1.52-23.28,2.37-34.91.13-1.69.17-3.68,1.7-5,1.74,1.29.42,3.51,1.54,5.15a27.58,27.58,0,0,1,13.54-5.41c1.26,1.31,1.06,3.49,2.75,4.54s3.55,1.78,5.12,3,3.35,2.37,2.11,4.82c0,1.11.14,2.25-.91,3-2-3.79-4.83-4.11-8.65-2.59s-4.58,3.89-3.77,7.43a4.41,4.41,0,0,1-.29,2.92,15.6,15.6,0,0,1-1.31,1.72c-1.81,2.93.13,6.55-1.74,9.46C50.26,243.37,46.32,245.78,42,247.45Z"/><path class="cls-10" d="M117,211.54c.28-2,1.3-3.66,3.46-2.71s3.74-.22,5.58-.38c-1.24,4.16-3.26,8-4.8,12.06-1,2.73-1.38,5.14,1.94,6.51,2.13,0,4,2.29,6.32.64,1.52-2.84,5.1-1.84,7.32-3.58-1.33-1.83-2.91-1.23-4.3-1.05-2.4.31-4.76.62-6.1-2s-1.41-5.43.89-7.82a7.61,7.61,0,0,1,1.74-1.75c3,1,5.94,1.84,6.53,5.7a2.68,2.68,0,0,0,2.55,2.09c4-.37,5.42,2.38,6.86,5.23a1.66,1.66,0,0,1,.52,1.27c0,1.43.08,2.86-1,4-2.68.86-3.74,2.7-3.3,5.47-2.62,5.2-1.34,10.79-1.69,16.21-.18,2.75.73,5.72-1.49,8.09-3.38-3-6.73-6-9.1-9.91l.3-.62c4.63-7.19,1-16.08-7.24-17.54a30.53,30.53,0,0,1-3.44-.6l-.56-.42c.06-3.4,1.21-7-1.93-9.81-1.29-1.16-.22-2.51.3-3.67A11,11,0,0,0,117,211.54Z"/><path class="cls-11" d="M98,106.45l5.1.1c2.28,3.73-.1,10.92-4.07,12.1-5.17,1.55-10.1,1.4-14.4-2.39-1.74-1.53-3.71-2.74-5.58-4.1-1.72-3.16-4.3-5.76-6-9-.91-4.35-1.55-8.77-3.87-12.71-.68-1.13-1.39-2.51-1.09-3.75,1.26-5.18-1-9.69-2.54-14.31-1.78-5.2,1.51-8.85,3.94-12.6.87-1.34,3.13-2.07,3.75.9-5.51,14,2.23,24.54,8.92,35.48,3.13,5.11,8.12,7.55,13,10.26-2.24,2-4.31.51-6.42-.32s-3.56-3-6.28-3c3.57,1.81,5.74,4.89,8,7.92,1,1.39,2.45,3.09,4.55,1.55s1.18-3.14,0-4.75a1.15,1.15,0,0,1,.08-1.37Z"/><path class="cls-12" d="M254,211.43c3.3,2.37,5.5,5.77,7.73,9,3.78,5.43,4.17,11.31.25,17.06a5.11,5.11,0,0,1-2.9-1.81c-5.52-5.48-11.33-5.6-17.07-.34a2.44,2.44,0,0,1-3.17.36c-.77-2.89-2.69-4.67-5.32-6-3.07-1.53-6.3-2.76-9-5-4.89-4.06-5.55-6.41-3-12.36,4.39-2.22,5.38-2.07,6.71,2.38.65,2.17,1.93,1.26,3,1.51,1.4.34,3.53,0,3.68,1.76.17,2-1.91,2.36-3.58,2.65a3.57,3.57,0,0,0-2.27.94,13.75,13.75,0,0,1,9.2,4.87c1.52,1.85,4.27,2.62,5.94,0s4-3.33,6.54-4c3.06-.81,3.59-2.53,1.94-5.17-1.41-2.25-2.83-4.48-4.4-6.62-4-5.47-4-6,1.18-10.58,1-.65,1.59-1.18-.12-1.76s-4.1-.35-4.88-2.76a2.43,2.43,0,0,1,.46-1.38,6.34,6.34,0,0,1,2.85-1.14c6.09-1,8.82.65,10.14,6a6.07,6.07,0,0,1-2.35,3.78C251.37,205.61,251.21,206.47,254,211.43Z"/><path class="cls-13" d="M254.94,202.42l2.05-3a2.54,2.54,0,0,0,.28-2.82c-1.13-2.32-.06-3.75,2-4.06,3.31-.49,5.67-2.66,8.46-4.06,4.76-1.54,5-5.95,5.72-9.71.64-3.39,1.53-5.17,5.48-5.53,5.4-.5,9.22-4.4,12.49-8.38,1.57-1.92,3-3.46,5.5-3.78,3.75-.46,6.7-2.82,10-4.35,7.56-5.14,14.72-.43,22,.9a2.28,2.28,0,0,1,1.12,1,16.7,16.7,0,0,1-7.73,3.21c-3.7.69-7.34,1.17-10,4.55-1.69,2.13-4.8,1.28-7.13,1-7.08-1-11.68,3-16.72,7-11.4,9-20,21.17-32.26,29.19a19.49,19.49,0,0,1-2.2,1.08C253.3,203.46,254.34,203,254.94,202.42Z"/><path class="cls-14" d="M74.08,103.54c2.31,2.26,4.77,4.43,5,8-2.34,1.36-2.88-.91-4-2-2.78-1.57-4-4.37-5.39-7-2-3.83-3.23-8.09-5.55-11.68C57.56,80.73,57.78,70,60.51,58.92A13.3,13.3,0,0,0,61,54.5c.86-4.32,3.63-7.33,7-9.85,4.63-3.49,9.24-7,14.57-9.48,2.62-1.24,4.69-3.64,7-5.53.79-.65,1.65-1.32,2.68-.76a1.93,1.93,0,0,1,.6,2.64c-.77,1.77-.65,4.05-2.77,5.09a4.45,4.45,0,0,0-4.71.19C77,41.94,70.16,48.16,69.07,58.69c-.14,1.34-.26,3.08-1.37,3.62-4.81,2.38-2.86,6.09-2,9.43,1.29,4.92,2.69,9.6,2.9,14.92C68.84,92.35,72,98,74.08,103.54Z"/><path class="cls-15" d="M219.06,104.35c-2.3,1.2-4.6,2.38-6.89,3.6-5.4,2.86-5.44,5.22-.17,8.58.25.92-.3,1.34-1,1.63-2.27.39-3.66-1.27-5.3-2.32-6-3.89-10.49-3.09-14.73,2.62-1.14,1.53-1.76,3.75-4.33,3.56-1.89-1.6-1-5.32-4.44-5.75-7.15.89-14.4-1.15-21.51.86-3-.79-7.43,0-5.62-5.6a25.48,25.48,0,0,1,5.25.1c2.62.58,4.2-.06,4.71-2.75.7-3.71,2.63-2.41,4-.76,3.2,3.81,6.25,4.67,9.67.37.37-.46,1.39-1,1.7-.8,4.28,2.59,8.7,0,13,.44s8.54.13,11.6-3.63C209.68,103.66,214.35,102.49,219.06,104.35Z"/><path class="cls-16" d="M74.08,103.54A27,27,0,0,1,68,87.69c-.34-7.11-2.84-13.42-4.36-20.08-.56-2.43-2-5.46,2.73-5.46,1.3,0,1.66-1.43,1.68-2.68.17-13,9.31-19.24,18.89-25.1,2.34-1.43,2.8.51,3.16,2.24h0c-1,2.58-3.12,4.48-3.94,7.13-4,5.92-9.65,10.56-13,17-.81-1.18-2.57-1.56-2.85-.54-1.09,3.92-5.58,6.6-3.75,11.65,1.7,4.68,3.68,9.14,2.84,14.74-.64,4.27,4.15,8.14,4.19,13A35,35,0,0,0,74.08,103.54Z"/><path class="cls-17" d="M239,235.53c.5-.06,1.36,0,1.43-.2,2.7-7.59,9.1-4.65,14.14-4.64,3.94,0,5.14,4.25,7.41,6.78l-2.13,1.86a2.59,2.59,0,0,1-2.75.75c-2.64-1.22-4.87-3.68-8.2-2.87-1.49.36-3,.95-3.16,2.71-.17,2,1.45,1.85,2.77,1.84,2.37,0,5-.13,5.91,2.54.86,2.49-.67,4.5-2.58,6-2.39,1.88-4.61,1-6.61-.81-.38,2.83.71,5.29,1.47,7.83-.25,3-2,4.56-4.72,5.37a10.9,10.9,0,0,1-4.5-4.62c-1.78-6.29-.63-12.7-.82-19C236.92,237.48,237.37,236.09,239,235.53Z"/><path class="cls-18" d="M193,188.47a51.6,51.6,0,0,0,6.47-.14c1.73-.25,3.84-.7,3.18-3.39-.3-1.24-1.27-2.61.69-3.29s3.05.93,4.45,1.72c1.18.67,2.71,1.55,1.53,3-1.52,1.87-.78,3.33.07,5,.65,1.25,1.12,3.17.06,3.7-4.82,2.41-3,6.77-3.47,10.43-3.57-1.59-4.81-6.21-9-7-1.08-.06-2.25.17-3-.91-2.11-1.63-4.66-2.47-6.88-3.92-3.49-2.3-7-3.9-10.76-.25a1.91,1.91,0,0,1-2.72-.07c-1-4.49.89-7.51,4.87-9.45,2.33-.22,4.23,1.08,6.29,1.79,2.41,1.25,4.19,4.21,7.6,2.8Z"/><path class="cls-19" d="M239,235.53c-.36,1-.71,1.93-1.07,2.89-1.14,4.68-.31,9.43-.46,14.15-.1,3.09-1,4.43-4.15,2.84a4.71,4.71,0,0,1-1.55-4c.23-3.17-1.58-4.82-4.06-6.09,1.32-4.8-1.87-8.65-2.74-13,1.14-3.38.26-6-2.71-8.08s-3.54-5.5-5.47-8.15c-2.07-2.84,2.73-2.42,2.12-4.55,1.37-.89,2.6-1.3,3.06.9-2.29,9.27.65,9.62,8.09,14.13a57.36,57.36,0,0,0,7.87,4C241,231.76,238.88,233.83,239,235.53Z"/><path class="cls-20" d="M71,165.46c1.32-.63,1.05-1.85,1.11-3,2.21-4.72,4.5-4.87,7.83-1,7,8.21,4.65,14.74-1.91,20.68a10.08,10.08,0,0,0-2.69,4.11,8.8,8.8,0,0,1-1.91,3.19,1.77,1.77,0,0,1-1.37.15c-1.22-1.76-.38-5.28-4.15-4.88-3,.14-4.14,2.33-5.27,4.61-.59,1.2-.36,3.14-2.53,3.05-.48-4,.46-7.8,4.12-9.34,6.19-2.59,4.18-7.62,4.13-11.86C68.32,168.6,68.64,166.74,71,165.46Z"/><path class="cls-21" d="M351.78,121.58c2.93,2.77,6.9,3.75,10.18,5.9.49,1.73,2.41,2.07,3.31,3.39,1.4,2,2.88,4.09-.21,6-5.38-1.28-6.1-.83-5.65,3.57.53,1.78,2.11,1.72,3.51,2.06,2,.48,3.86,1.11,3.21,3.84-2.92,2.63-6.14,0-9.18.55a9.45,9.45,0,0,1-4-.7c-2.49-1.61-3.24-4.13-3.28-6.85,0-3-1-5.85-1.15-8.83-.07-1.81-.76-3.21-2.77-3.55-1.21-.34-2.51-.54-3-1.93,1.32-2,4-2.55,5.09-4.76C349.57,119.4,350.59,120.75,351.78,121.58Z"/><path class="cls-22" d="M246,257.38c-3-3.43-2-7.35-1.68-11.27,2.16-.05,1.45,1.61,1.89,2.48a2.91,2.91,0,0,0,4.19,1.45,5.49,5.49,0,0,0,3.33-5.17c-.06-1.89-2.28-1.5-3.54-2.11-.25-.12-.65,0-1,.11-2.41.52-5.28,1.84-5.17-2.54.1-4.14,3.53-4.67,6.37-4.67,2.53,0,5.29.91,6.58,3.74.47,1.65,2.27,3,1,5-.27.77-.33,1.74-.84,2.26-3.88,3.88-2.53,7.36.68,10.74-1.77,1.16-3.93.13-5.75,1C249.93,258.76,247.78,259,246,257.38Z"/><path class="cls-23" d="M320,91.48c-10.54.67-20.51,2.82-28.28,10.75a4.58,4.58,0,0,1-3.12,1.32c-15.54,1-31.05,2.73-46.66,2a174.44,174.44,0,0,1,43.18-5c3.76.08,6.61-1,9.9-3.25C302.39,92.27,310.46,88,320,91.48Z"/><path class="cls-24" d="M71.16,219.59c-.58-4.76-5.74-4.35-8.07-7.13,8.57-3.23,15.81-8.35,22.61-14.5,3.67-3.32,8.45-5.9,14.08-3.47,2.76,1.19,3,2.74,1.28,4.94l-2,1.91-1,.2a11.5,11.5,0,0,0-13.61,2.91c-2.09,2.49-2.71,4.85.44,7C79.17,212.18,76.64,218.39,71.16,219.59Z"/><path class="cls-25" d="M61.08,207.46c-3.66,3.34-10.34,1.55-12.6,7.37-.07.16-1.19.06-1.73-.14a1.74,1.74,0,0,1-1.14-2.32,45.78,45.78,0,0,0,.49-4.85c2-4,4.67-7.25,8.79-9.17,5-3.21,6.49-2.79,10.79,3.1C65.29,204.33,64,206.49,61.08,207.46Z"/><path class="cls-26" d="M138,259.48c0-5.56.22-11.12,0-16.67-.14-3.6.43-6.76,3-9.39.24-2.49,1.92-2.66,3.87-2.4,1.49.89,1,2.73,1.82,3.93,0,.88,1.88,2.23-.62,2.5-2.34,1-2,3.12-2,5.06,0,5.25,0,10.49,0,15.73,0,1.75.45,3.77-2.1,4.28C139.82,262.54,138.92,261,138,259.48Z"/><path class="cls-27" d="M42,247.45c2.73-4.59,7.34-5.42,12.06-6,2.47,4.83,1.83,10,.75,14.85-.79,3.54-4.71,4.07-10.69,2.1C43.89,254.65,41.42,251.35,42,247.45Z"/><path class="cls-28" d="M44.15,258.38a4.19,4.19,0,0,1,1.36-.55c8.6.05,8.6.06,8.6-8.52q0-3.93,0-7.88c.54-3.63-1.15-7.46,1-10.94,2.37,4.36,1,9.33,2.21,13.89.42,1.56.17,3.27,1.07,5.41.7-1.77.37-3.6,1.79-4.53,1.14,1.54.65,3.4,1,5.1,4,9.9-1,14.25-10.44,14a5,5,0,0,1-3.75-2C46.29,260.88,43.17,261.07,44.15,258.38Z"/><path class="cls-29" d="M351.78,121.58l-4.06-.84a1.66,1.66,0,0,1-1.48-1.3c.4-7.3-.68-8.78-6.16-8.5,1.92.82,3.29,1.87,1.55,4.15a4.83,4.83,0,0,1-4.23.09c-4.19-1.94-5.9-5.45-6.26-9.83a22.35,22.35,0,0,1-1.28-3.17,3.15,3.15,0,0,1,.08-2.65l7,0c5.86,4.5,10.9,9.56,12.59,17.18C349.89,118.41,351,120,351.78,121.58Z"/><path class="cls-30" d="M57.06,230.41a11.41,11.41,0,0,0-.15-1.95c-1.65-7,2.9-11.84,10.19-11,3.42.39,2.81,3,3.15,5.15-4.34,2.65-6.53,6.86-8.16,11.41-.4,1.15-.56,2.25-1.92,2.58C59.41,234.4,59.73,231.66,57.06,230.41Z"/><path class="cls-31" d="M246,257.38l7,0c3.71-.24,4.76,1.58,3.82,4.94a4.89,4.89,0,0,1-1,1c-5.5,2.28-5.5,2.28-2.57,8.09-2.9,2.07-6.34-1.7-9.2.84-2.79.12-3.14-2.72-4.8-4-.26-2.53.52-4.55,2.88-5.78C243,260.5,245.53,259.73,246,257.38Z"/><path class="cls-32" d="M367.08,152.63l-4.18,2.82c-5.76.48-11.18-2.31-17.51-1.82-.11,0,.61.73.47.08,2.18-.34,4-.08,4.06,2.7l-4,.13c-3.2-4.14-7.75-7-10.79-11.3,6.75-2.34,13.16-.14,19.61,1.4C358,150.48,362.86,150.85,367.08,152.63Z"/><path class="cls-33" d="M50.16,263.44c10.38-.93,10.55-1.13,11-13.08a55.59,55.59,0,0,0,5.44,3.23c4.29,2,6,5.25,5.49,9.82-6.29,1.24-12.6,2.47-19.06,1.8C52,265.1,50.11,265.63,50.16,263.44Z"/><path class="cls-34" d="M84.92,211.44c-2.57.27-4.25-.37-3.79-3.49.73-5,9.92-10.82,14.76-9.37a3,3,0,0,1,2.2,3Z"/><path class="cls-35" d="M261.14,259.35l3.79.18c.37,4.34,4.67,4,7.07,5.87,1.88,5.34.47,7-6,6.92-2.18-2.88-5,1.28-7.24-.62-2.65-2.58-2.6-4.77,1.07-6.3-1.15-1.31-5.07,1.2-3.83-3h0C257.85,261.65,258.31,258.51,261.14,259.35Z"/><path class="cls-36" d="M57.06,230.41c5.76-.3,4,3.16,3.11,6.2,0,2.88,0,5.77,0,8.65a17.25,17.25,0,0,1-.15,3c-.35,1.59,1.19,4.36-1.32,4.51-2,.12-2.26-2.86-2.38-4.43-.42-5.94-1.86-11.82-1.22-17.83Z"/><path class="cls-37" d="M365.9,145.52c-1-2.39-3.19-2-5.15-2-2.43.06-3.05-.85-1.79-3,.43-.53,1.08-1,1.65-.73,2.59,1.08,3.17-.09,3-2.42-.05-.68.46-1.13,1.26-.92,1.95-1.87.78-3.35-.45-5-.92-1.25-3.24-1.69-2.47-4,3.19,1.25,6.45,2.36,8.74,5.14-.84,3.73.74,6.58,3.31,9.06l-1.26,2.81A11.56,11.56,0,0,1,365.9,145.52Z"/><path class="cls-38" d="M146,237.45c1.11-.71-.21-1.35,0-2,.35-.37.47-1,1.1-1.06,1.62,4.69,2.95,9.57,7.94,12,4.38,2.12,7.66,5.94,12.65,7.31,3.17.87.79,2.6-.63,3.67l-1.08.12c-3,2.05-6,.39-9-.13a2,2,0,0,1-2.14-2.26C154.77,247.79,148.78,243.43,146,237.45Z"/><path class="cls-39" d="M334.93,146.51c3.9,1.28,8.41,1.71,9,7.27.1,1,1.32,1.84,2,2.76l-12,1c.35-2.92-2.64,0-3-1.73-1.26-2.68,1.41-4.66,1.26-7.14a3.37,3.37,0,0,1,1.45-2.32A1.19,1.19,0,0,1,334.93,146.51Z"/><path class="cls-40" d="M65.11,201.49c-3-2.38-5.58-6.09-10.22-3.13,2.07-1.67,2.53-4.76,5.21-5.9,1.95-3.63,2.08-8.88,8-9,.42.89-.09,1.53-.56,2.21-4,5.81-3.76,6.57,2.88,7.92.8,2.42-.43,4.4-1.4,6.45C68,201.29,67,202.68,65.11,201.49Z"/><path class="cls-41" d="M174,193.42c7.45-4.82,14-3.44,19.93,4.17-8.58-1.9-17.14-3.74-26-3.27-3.08.16-5.14-2.81-7.94-3.78l.56-.57C165.47,189.36,169.54,192.17,174,193.42Z"/><path class="cls-42" d="M167.05,257.39c-.21-1,2.87-2.42.25-2.8-5.57-.79-8.88-4.42-12.27-8.18,5.82,2,11.79,3.68,17.4,6.17,2.2,1,4.77,1.15,6.68,2.8a.67.67,0,0,1-1.14.09C174,254.38,171,258.49,167.05,257.39Z"/><path class="cls-43" d="M128.88,249.57a13.05,13.05,0,0,1-10.47-10.72c-.39-2.73-2.69-5.54-.47-8.46l.35.14c1.18,1.79,2.35,3.44,4.54,4.35,2.8,1.16,5.23,3.81,4.1,6.59-1.52,3.73.77,5.46,2.28,7.83Z"/><path class="cls-44" d="M227.75,245.3c4-1,5.75.61,5.26,4.75a37.12,37.12,0,0,0,0,4.35l-.6.34c-4.1.06-4.46,1.79-2.11,4.74a1.56,1.56,0,0,1-.42,1.28,3,3,0,0,1-2.08-.2c-2.09-1.24-3.16-2.85-1.94-5.32C227.39,252.1,226.84,248.56,227.75,245.3Z"/><path class="cls-45" d="M365.9,145.52c2.17-1.1,4.39-1.86,6.85-1a5.42,5.42,0,0,1-2,5c-4.78,3.71-8.89.73-13.09-1.31a2.36,2.36,0,0,1-.77-2.57C359.87,144.3,362.91,148,365.9,145.52Z"/><path class="cls-46" d="M178,255.47l1.14-.09c.58.56,1.06,1.34,1.76,1.67,5.4,2.55,5.5,2.92,1.32,6.89a8.62,8.62,0,0,0-2.11,3.83c-.63,2-1.67,3.6-4.14,3.42-.2-1.62.7-2.41,2.11-2.82.87-2.39,3.09-4.53,0-7.3C177.15,260.21,180,257.4,178,255.47Z"/><path class="cls-41" d="M145.09,225.39c0-.31-.05-.61-.1-.92,4.08-8.54,2.16-18.42,6-27,1.52-1.44-.92-4,1.44-5.17l.67.26c-.5,8.08-4.17,15.65-3.48,24,.25,3.1-4.58,4.95-3.59,8.86C145.73,225.9,145.4,225.89,145.09,225.39Z"/><path class="cls-47" d="M50.16,263.44c3.18,2,6.92,1.46,10,.68,4.08-1.06,8-.36,12-.71-4.25,3.54-9.49,2.53-14.33,2.81-3.91.22-8.35.67-10.79-3.82Z"/><path class="cls-48" d="M227.79,260.56l2.22-.16c3.23.46,6.1-.69,9-1.95l3.09,4-2.88,5.78C236.5,264,231.55,263.18,227.79,260.56Z"/><path class="cls-49" d="M349.92,156.41c-.66-2-3.26-1.44-4.58-3.64,6.41-1.17,12,1,17.56,2.68C358.7,157.41,354.27,156.36,349.92,156.41Z"/><path class="cls-50" d="M358,147.48c4.06,2,8.2,3.44,12.79,2a5.71,5.71,0,0,1-3.66,3.16,10,10,0,0,0-2.43-.09c-4.63,1-7.69-1-9.72-5A2.23,2.23,0,0,1,358,147.48Z"/><path class="cls-51" d="M374,141.68c-5.57-2.58-5.83-3.29-3.31-9.06C376.29,135,376.57,135.73,374,141.68Z"/><path class="cls-52" d="M272,265.4a6.38,6.38,0,0,0-2.37-.4c-5.21,1.24-5.23-1.86-4.7-5.47C268.91,259.53,271.71,261,272,265.4Z"/><path class="cls-53" d="M259,271.39a7.25,7.25,0,0,0,4.46-1.26c1.83-1.19,3.58-.75,2.54,2.19-5.07.19-10.09,2.53-15.2.27.94-1,2.66-.54,3.49-1.79A4.17,4.17,0,0,1,259,271.39Z"/><path class="cls-54" d="M261.14,259.35c-1.95.64-2.79,3.15-5.17,3.07,1-2.88-.18-4.46-3-5.08,1.67-2,3.25.21,4.87.1C258.89,258.17,260.55,257.83,261.14,259.35Z"/><path class="cls-55" d="M178.05,268.37l-2.11,2.82-1.93.06a3.83,3.83,0,0,1-.06-1.93c0-1.7.11-3.48,2.28-3.7S177.88,267.15,178.05,268.37Z"/><path class="cls-56" d="M174,269.32c1.15.6.26,1.28.06,1.93l-14.9.61c-.07-2.65,2-1.21,3-1.37a43.45,43.45,0,0,1,5.94-.26,2.21,2.21,0,0,1,3,0Z"/><path class="cls-41" d="M160,190.54a7.21,7.21,0,0,0-6.82,2l-.15-.12c-1.18-3.28.38-5.24,3.41-5.65,2.11-.29,4.48.32,3.71,3.59Z"/><path class="cls-57" d="M254,271.44c-.77,1.21-2.15.7-3.18,1.15L244,272.2c-.62-1.37-2-3,1.33-2.25,2.53.58,5,1.79,7.68,1.39A.65.65,0,0,1,254,271.44Z"/><path class="cls-41" d="M197,198.5c4.86-.08,6.21,4.4,9,7,0,.68,0,1.36,0,2C203.05,204.41,200.65,200.81,197,198.5Z"/><path class="cls-3" d="M145.09,225.39a8,8,0,0,0,1,0c-.59,3.08,1.11,5.91,1,8.94l-1.1,1.06a6.14,6.14,0,0,1-1-3.91c-.45-.63-1.58-.95-1-2.08A7.18,7.18,0,0,0,145.09,225.39Z"/><path class="cls-58" d="M254.94,202.42l-.93,2.21c-1.84,2.28-.55,4.54,0,6.8C250.11,207.19,250.34,205,254.94,202.42Z"/><path class="cls-13" d="M330.94,155.49l5.34-.46c.44,2-2.11,1.15-2.34,2.46l-3.87,1.17-.2-.25A2.31,2.31,0,0,1,330.94,155.49Z"/><path class="cls-59" d="M258,244.44c.62-1.87-3.23-2.84-1-5l2.91-.07A5.6,5.6,0,0,1,258,244.44Z"/><path class="cls-14" d="M86.15,43.73c-.49-3.37,2.35-4.9,3.94-7.13C90.08,39.7,88,41.67,86.15,43.73Z"/><path class="cls-60" d="M111.06,162.49c-.27-4.12,1.72-1.51,3-1,4.56-3.15,6.27-2.63,8.14,2.55.25.69.53,1.15,1.32,1.17.49.16.82.66,1.24.76.86.19.45-.48.35-.78-1-2.8-3.15-5-4-7.82-.46-1.47-2.13-3-.53-4.45s3.3-.15,4.8.81a7.74,7.74,0,0,1,1.43,1.54c1.66,5.86,5.87,8.1,11.61,8.15a45.65,45.65,0,0,1,8.56,3.68c-.89,2.19.11,5.34-3.78,6.47,3.09,1,6.16,1.48,6.69,5,.39,1.41.7,2.83,1.09,4.24a10.29,10.29,0,0,1,.13,3.83c-.58,2-.39,4.23-2,5.84-3-1-5.71-2.51-7.28-5.52-.47-.92-.76-2.58-2.36-1.9s-1.53,2.11-1.13,3.45c.23.77,1,1.38,1.21,2.14a9.88,9.88,0,0,1,.51,2.9c0,1.21-.61,1.64-1.91,1.55-3.71-.28-6.46,7-10.6,1.77-2.31-2.91-4.88-2.71-7.51-2.09-2.9.68-5.25,1.36-6.14-2.49-.19-.84-.88-1.54-1.83-1a1.33,1.33,0,0,0-.27,2.15c2.33,2.27.75,4.64.33,7-5.65-2.52-6.59-4.83-4-10,.79-1.56,1.49-3.07-.07-4.52-2.89-2.69-1.51-4.89,1.4-5.28,5.8-.77,1-6.48,5.13-9.16C119.59,168.23,113.35,165.23,111.06,162.49Z"/><path class="cls-60" d="M65.11,201.49a3.08,3.08,0,0,0,3-2,1.7,1.7,0,0,1,2-.28c2,3.2-2.64,4.73-1.77,8.43,5.24-3.76,10.83-6.4,15.64-10.29a46.78,46.78,0,0,1,4.58-3.84c1.72-1.07,3.68-2.18,2.73-4.65a5.09,5.09,0,0,0-5.91-3.51c-3.74.62-7.52.74-11.27,1.16a8.34,8.34,0,0,1,3.47-5.73c7.32-5.59,7.26-14.56,0-20.28-3-2.39-3.87.68-5.42,2-.35-4.1,1.78-8.16.07-12.32a1.69,1.69,0,0,1,1.59-2.47c1.13,0,2.21.85,2.06,1.76-1.22,7.44,6.5,10.24,8.24,16.29,2.87,9.91,10.61,17.25,15.12,26.35,1.07,2.15,3.09,2.21,5.39,2.55-1.12,1.88-1.49,3.87-3.51,4.76.25-3.9-2.79-5.59-7.08-4.46-6.26,1.64-10.37,6.32-14.94,10.24s-9.74,6.8-16,7.25c-3.21-.65-1.58-3.24-2-5Z"/><path class="cls-61" d="M186,121.52c3.6.12,2.7-4.08,5.15-5.36,1.51-.79,1.57-4.58,3.6-4.1,3.46.8,7.2-.55,10.49,1.88,1.77,1.31,3.16,3.51,5.75,3.59a7.46,7.46,0,0,1,3.44,6.23,3.85,3.85,0,0,0,.57,1.75c.76.38,1.82,1.34,1.32,1.74-2.87,2.22-2.37,6.09-4.37,8.56-3,3.64-2,8.19-1.37,11.58.41,2.23-1,6.15,2.49,7.9.86.43.23,1.62-.6,1.91-3.1,1.08-1.88,3.28-1.49,5.29a13.83,13.83,0,0,0-2.16,1.72c-1,.63-1.9,1.26-1.93,2.66,0,1.81-.66,3.31-2.79,3.46-2,.14-3.91-.49-4.61-2.3-1.47-3.76-4.54-5.6-7.78-7.33-3.72-2-5.63-5.63-7.49-9-.8-1.45-2-2.86-2.48-4.56,2.05-1.5,2.15-1.89.7-4.53-2.82-5.15-5.11-10.19.29-15.26C184.35,125.84,183.34,122.61,186,121.52Z"/><path class="cls-62" d="M215,125.51l-1-1c2.69-5,9.35-9,13-8h1c-1.34,9.38,1.31,18.67.73,28-.32,5.13,5.26,8.24,10.72,6,6.14-2.52,9.85-1.74,13.65,2.84a6.74,6.74,0,0,1,1.94,3.95c.11,3.5,1.32,5.23,5.29,5.47,3.41.21,1.76,4.46,3.41,6.37,0,1.56-1,2.76-1.6,4.08-1.62,3.11-5.11,1.75-7.17,3.17,2.82-.84,6-1.89,6.64,3,.23,1.85,2,1.47,3.14,1.85s2.77.76,2.63,2.47a3.56,3.56,0,0,1-3.27,3.26,14.52,14.52,0,0,1-4.95-.41,21.71,21.71,0,0,0-9.39-.16c-1.29.32-3.15.61-3.84-.31-2.51-3.38-5-1.47-7.63-.45a1.5,1.5,0,0,1-1.32-.31c-.83-1.85-2.48-2-4.19-2-5.21,0-10.21-1.15-15.71-2.76,4.07-2.63,8.63.1,12.78-2.14-2.09-1.63-4.12-.81-5.93-1.07-5.72-.84-7.44-4.87-4-9.44,2.09-2.73,3.64-5.87,6.6-7.92,2.41-1.66.85-4-.16-5.22-3.47-4.17-3.82-8.2-2.12-13.38s-.61-10.45-2-15.37C221.53,123.4,217.66,124,215,125.51Z"/><path class="cls-63" d="M222,212.43c-.77-1.13-1.93-1-3-.9l-1.94-.11c-1.08-1.46-.37-3.82-2.59-4.81a2,2,0,0,1-.68-2.64c.64-1.35,1.87-1.11,3-.93,1.3.21,2.56.62,3.87.77,6.76.77,7.32.5,10-5A128.37,128.37,0,0,1,250,200.5c-4.55,3.45-3.57,6.91,0,10.4a13.24,13.24,0,0,1,1.63,1.89c5.5,8.15,5.5,8.18-3.55,11.62a3.74,3.74,0,0,0-2.14,1.77c-2.49,4.11-6.3,4.56-9.34.63-1.81-2.34-3.41-3.73-6.44-3.45-1.44.14-3.51-.29-3.52-2,0-2.37,2.28-1.79,3.84-1.93,1.28-.12,2.67.24,4-1.36-1.74-1.08-3.52-.52-5.14-.63-2.32-.16-1.83-.13-1.87-2.7C227.36,210.8,224.41,211.9,222,212.43Z"/><path class="cls-64" d="M209,163.48a2,2,0,0,1,2-1c-.26.6-.86,1.29-.73,1.79,2.12,7.73-3,10.92-8.57,13.87-.73.38-2.13.86-2.09,1.12.81,5.28-4.77,5.9-6.59,9.2h0c-3.3,1.85-5.51-.63-8-2-2.3.25-4.06-1.15-6-2-2.87-.65-5.25,2.37-8.21,1.1-1.14-1.18-1.7-2.75-2.9-4-2.86-2.84-2.24-5,1.82-5.93,3.71-.8,7.4-.84,11,1.11,3.41,1.84,5,.77,5.86-3.32-.41-3,1.9-3,3.78-3.38s3.7-.5,4.89,1.36c1.08,1.68.75,5.19,4.46,3.21,3.42-1.83,8.62-2.24,7.26-8.09C206.46,164.36,207.79,164.16,209,163.48Z"/><path class="cls-65" d="M230,199.48c1.91,4.64,1.15,5.74-4.25,5.94a30.56,30.56,0,0,1-5.82-.21,42,42,0,0,1-5.57-1.67c.44,3.14,4.32,4.67,2.7,7.88a32.69,32.69,0,0,0-6-2.21c-2.41-.53-3.08-2.57-3.08-5,0-2.67,1.63-2.84,3.59-2.8s4.14-1.11,4.05-2.84c-.21-4,2.16-6.44,4.36-9.12l.56-.41c4.38-.07,3.85,4.33,5.51,6.56A15.86,15.86,0,0,0,230,199.48Z"/><path class="cls-65" d="M218,187.47c1.63-.06,3.29.21,4.59-1.28,2.54-2.92,5.47-2.09,8.41-.69,1.15,1.38,5-1,4.23,3.06a4.7,4.7,0,0,1-2.9,1.26c-4.14,1.89-8.12-.79-12.21-.42l-.13.08-2,0A1.39,1.39,0,0,1,218,187.47Z"/><path class="cls-66" d="M235,188.52c.06-2.85-3.14-1.39-4-3l6-.1,1,.1c2.79.81,2.79.81,1.83,2.83,0,.13.21.29.6.22,2-.4,4.57-2.18,5.63.35s-2.51,2.72-3.74,4.22C236.94,192.6,235.59,191.75,235,188.52Z"/><path class="cls-62" d="M218,187.47c0,.66,0,1.33,0,2-1.29,0-2.8.23-3.34-1.29-.16-.46.6-1.52,1.2-1.89C217,185.53,217.52,186.61,218,187.47Z"/><path class="cls-67" d="M123.06,228.43c-4.38-.76-5.09-4.37-3.56-7.08,2.37-4.22,2.32-9.68,6.54-12.9,3.37-1.37,2.82,1.19,3,3,1.12,3-3.67,3.88-2.25,7.4,1.06,2.64,1.65,4.09,4.75,3a15.18,15.18,0,0,1,4.4-.37c1.6-.07,3.11.16,3,2.29a2.63,2.63,0,0,1-3,2.63c-2.58-.07-5-.07-5.92,3.06C127.71,229.11,125.89,225.3,123.06,228.43Z"/><path class="cls-68" d="M171,185.46c2.64-.5,5-3.37,8-1-3.53,1.94-4.74,5.17-5,8.94-5.16,1.38-9.08-2.89-13.91-3a3.25,3.25,0,0,0-4.09-2.62c-2.2.52-2.57,2.74-3,4.68-1.81,1.23-.11,3.81-2,5,.4-2.1-1.09-3.44-2-5,0-2.05-.19-4.13,1-6,4.43-2.72,8.76-3.41,13,.43C166.25,189.8,168.23,185.24,171,185.46Z"/><path class="cls-69" d="M126,155.52l-1-1c-.13-.31-.22-.76-.47-.86-8.26-3.42-13.81-12.34-24.27-11.51-2.76.21-5.77-1.22-8.67-1.89s-4.9-2.26-3.71-5.74c.27-.79.68-1.82.2-2.41-4.86-5.87-4.07-14.9-11-19.57a3.08,3.08,0,0,1-2-3c1.4.54,2.27,2.14,4,2a8,8,0,0,1,5.16,2.68c4.23,4.66,9.43,4.72,15,3.24,1.7-.45,4.41-8.25,3.86-10.9,1.15.11,2.84-.24,3.36.39,3.13,3.75,6,3.31,9.42.32,1.54-1.37,3.12.29,4.55,1,4.15,2,8.42,3.35,12.94,1.62,2.73-1,4.3,1.27,6.5,1.65a35.6,35.6,0,0,0,14.21,0c.54,1.18-.42,2.22-.32,3.37.16,1.68.31,3.51,1.93,4.32,2,1,1.56-1.61,2.63-2.14.89-.45,1.71-1,2.75-.55,3.43-2.09,7-2.88,10.83-1.15,2.11,1,3.71-.29,5.57-.66s4-.91,5.6.81c1.73,2.49.08,4.1-1.65,5.39-3.18,2.36-6.67,3.62-10.67,2-1.65-.65-2.85-2.08-4.39-2.6.21,5,3.14,9.64,2.12,14.86-1.93,1.68-3,.2-3.87-1.21a28.66,28.66,0,0,1-4-8.39,3.74,3.74,0,0,1-3.31,3.41,3.27,3.27,0,0,1-1.39-.16c-2.55-2.57-2.91-6.87-6.73-8.42-4.38-2.56-9-1.39-13.48-.68-.94.15-1.77.91-2.74,1.18-1.76.49-3.77,1.22-5-.73-1.3-2.12,1.89-2.11,2.31-4-5,1.28-10.35,1.3-11.82,7.6-.41,1.77-.57,3.44,1.67,4s4.76.8,4.82,4c0,3.32-2.44,4.39-4.92,5.47-.11.05-.16.27-.28.49,2.12,4.18,3.72,8.71,8.29,11.24,1.63.9,2,3,2.71,4.67a3.29,3.29,0,0,1-.45,2.87C128.58,157.44,127.37,156.2,126,155.52Z"/><path class="cls-70" d="M161,116.53c-1,.7-2.39.8-2.72,2.52-.55,2.8-2,3.32-3.82,1.28-2.33-2.69-3.39-5.71-.45-8.8h1C154.27,116.5,159.17,114.69,161,116.53Z"/><path class="cls-71" d="M77.08,112.53c4.38,3.36,9.17,6.48,8.43,13.1-.1.9-.16,1.76.55,2.25,3,2.15,5.24,4,2.61,8.42-1.11,1.87,2.5,2.83,4.59,3.17,7,1.15,14.13,1.64,20.61,5,.88.45,1.94.49,2.17,1.67.58,3,3,3.71,5.45,4.32,2.15.54,4.22,1.08,3.53,4.07-1.33-.42-2.37-1.83-4.47-1.11,1.65,3.11,2.44,6.49,4.85,9.18.71.79.86,2.08,1.24,3.15s.87,2.61-.28,3.1c-1.77.76-2-1-2.43-2.21a4.67,4.67,0,0,0-.89-1.12c-.61-4.05-3.33-6-7-7-3.28-1.62-4.21-4.52-3.52-7.73.81-3.81-.5-5-4.23-5.33-6-.46-11.89-2.47-17.76.89-1.56.89-2.65-.89-3.18-2.36-2.33-6.38-5-12.68-4.34-19.74a6.21,6.21,0,0,0-2.23-5.35C78.79,117.13,78,114.81,77.08,112.53Z"/><path class="cls-1" d="M116.06,158.49c5.46.14,7.19,1.88,7,7-.12.9.31,2.26-1,2.38-1,.1-.88-1.12-1-1.89-.91-6.1-.91-6.1-7-4.5A3,3,0,0,1,116.06,158.49Z"/><path class="cls-72" d="M267,156.5c-.14-5-2.95-7.24-7.73-7s-8.15-1.89-11.13-5.3c-2-2.34-4.09-4.55-7.59-5.19-2.27-.42-5.6-1.29-3.92-5.32.2-.48-.59-1.43-1-2.11-1.9-3-3.08-6.08-1.92-9.77.48-1.54,0-3.34.38-4.94.56-2.57-3.77-7,2.77-7.38,6-.32,12.93,1.71,13.07,7.48,0,1-1,2.44,1.11,2.5,3.68,1.09,6.56-1.81,10-2a4,4,0,0,0,1.49-1.29c.75-1.39,1.61-2.68,3.46-1.89,1.57.67,2,2.1,2,3.7s-.67,3-2.38,3.35c-2.59.58-5.24.85-7.85,1.34-3,.57-4.75,2-3,5.14,1.51,2.68.27,5.17.11,7.74-.07,1.08-1.13,2.38.28,3.15s2.53-.07,3.23-1.38c.82-1.55,1.67-3,3.82-2.08,3.25,8.94,10.11,16.08,12.62,25.39.14,1.7-.08,3.18-2.23,3.36C269.08,162.7,267.36,160.08,267,156.5Z"/><path class="cls-72" d="M271.94,107.53c2.9-2.44,5-.25,6.06,1.79,2.13,4.06,4.76,4.12,8.51,2.59,3-1.22,7.33-.59,8.75-3.84,4.56-10.4,13.72-10,22.64-10.52a24.07,24.07,0,0,0,5.89-.74c2-.61,4-.59,5.14,1.73-2.7,2.26-5.92,1.2-8.94,1.38-2.11.13-4.26-.28-6.31.46-3.19.44-5.37,2.37-7.13,4.91a17.55,17.55,0,0,0-8.11,8.94c-5.49,6.33-6.3,15.55-.15,21.1,3.82,3.44,8.48,8.77,15.39,5.4a4.87,4.87,0,0,1,3.43-.07c2.75,2.85,6.66,4.62,8.1,8.69a2.89,2.89,0,0,1-3.28.44c-5.44-3-11.65-2.8-17.25-2.66-6.42.15-7.86-3.34-10.05-7.65-2-4-3.5-8.26-5.49-12.28a12.51,12.51,0,0,1-1-2.22c-1.85-5.82-1.85-5.82-7.45-4.43-1.3-1.43-.66-3.52-1.74-5-1-.81-1.44-3.4-3.43-1.1.2,1.84,1,3.72-.54,5.37-3.57.75-4.21-1.93-4.64-4.32C269.88,112.72,269.89,109.87,271.94,107.53Z"/><path class="cls-73" d="M271.94,107.53c-.2,2.53-.78,5.1-.5,7.57.21,1.87.56,4.4,3.52,4.43,1.68-.48,1.86.89,2.33,1.89a2.59,2.59,0,0,1-.28,1.34c-1.28,1.37-.75,2.49-.23,4.22,1.15,3.84,5.36,6.84,3.44,11.56a2.45,2.45,0,0,1-1.37.52c-2.57,0-3.88,4.7-6.29,2.69-3.06-2.54-6.05-5.58-7.41-9.67-.63-1.9-.69-4.85-4-3.33-1.41.65-3.2,1.67-3.14,3.52s2.09,1.14,3.18,1.7c.64.34,1,.79.76,1.56-1.44.13-2.25.5-2.44,2.35-.24,2.27-4.84,3.64-6.64,2.27-1-.77-.7-1.63-.29-2.62,1.46-3.5,2.76-6.7,0-10.59-1.44-2,.26-4.8,3.32-5.36,2.42-.45,4.89-.72,7.33-1,1.39-.18,3.21.47,3.63-1.66.25-1.31.37-2.83-1-3.6-2-1.17-2.08,1.66-3.45,1.94l-1.45.3c.84-1.24,0-2.51.08-3.75.07-2,.6-4.32,3.09-4.09C267.14,109.94,269.36,108.27,271.94,107.53Z"/><path class="cls-74" d="M312,99.57c5.54-2.28,11.33-.45,17-1l1,1c.32.68.64,1.36.95,2-2.23,1.89-4.93,1.18-7.47,1.33C319.58,101.86,315.72,100.9,312,99.57Z"/><path class="cls-75" d="M171,270.27l-3,0c-1.69-2.42-4-4.25-7.38-6.48,5.68-.56,10.23.06,14.82-1.08C173.68,265.26,171.71,267.39,171,270.27Z"/><path class="cls-76" d="M157,257.38c3-2.31,6,1.06,9,.13-.63,2.93-2.38,4.69-5.41,4.87C156.83,262.6,155,261.3,157,257.38Z"/><path class="cls-77" d="M267,156.5l5,7c1.13,1.63-.07,2.51-1.21,3.14-2.43,1.36-4.79,3-7.77,2.85.66-2.08-5.55-2-1.67-5.3.18-.15-1.68-.78-2.51-.44-4.05,1.66-4.52-1-4.81-3.87-.82-8.15-6.76-11.65-14-8.23a9.92,9.92,0,0,1-13.19-4.42c-.21-.41-.45-1-.29-1.35,3-6.33,0-12.51-.43-18.74a24.57,24.57,0,0,1,1.92-10.6c2.28.25,3.44,1.41,2.61,3.71-1.89,5.18.57,10.21,1,15.2.18,2,2.63,7.84,8.14,5.66.82-.33,1.79-.57,2.36.07,3.92,4.39,10,6.51,12.84,12,1.35,2.59,2.85,4.32,5.74,2.43C263.22,153.92,265.06,155,267,156.5Z"/><path class="cls-77" d="M227,116.52c-5.65.54-8.3,5.94-13,8l-3-7c.33-.33.66-.67,1-1,3.23-.61,6.54-.82,9.59-2.26C224.15,113.05,226.09,113.63,227,116.52Z"/><path class="cls-78" d="M129.21,249.3c-1.41-1.11-3.48-1.15-4.56-2.78-.48-.73-1.16-1-.1-2.26,2.83-3.42,1.61-7.49-2.75-8.57-3.26-.8-4-2.28-3.51-5.16,6.64-1.5,11.63,1,13.3,7.25a35.19,35.19,0,0,1,.74,8.78C132.35,248.35,131.45,249.76,129.21,249.3Z"/><path class="cls-79" d="M123.06,228.43c3.61-4.19,4.12-4.11,7,1C127.38,231.34,125.57,227.51,123.06,228.43Z"/><path class="cls-7" d="M144,229.43l1,2.08a5.57,5.57,0,0,0-4,1.91c-.77-.15-1.87-.26-1.51-1.32C140.17,230,141.89,229.3,144,229.43Z"/><path class="cls-80" d="M95.1,106.47c-.28,2.19,5.53,1.67,2.18,5.52-3.16,3.64-4.7,4-7.82.12-2.2-2.75-3.27-6.49-7.64-7.12a2.48,2.48,0,0,1-1.21-3.72c1-1.44,2.53-.32,3.52.37,3.37,2.33,6.39,5.36,11,4.84Z"/><path class="cls-81" d="M242.93,192.51c-1.37-2.88,2.33-1.44,2.56-3.06-.77-1.52-1.86-.56-2.9-.33-2,.43-1.82.36-2.37-2-.15-.67-1.46-1.09-2.24-1.62,1.39-3.33,5.18-1.88,7.38-3.62,0,0,.84.58.91,1,.49,2.66.73,3.19,2.6,2.52,4.7-1.69,9.18-.19,13.68.55,2.12.34,3.58-.27,3.83-2,.3-2.16-1.82-1.24-2.94-1.43s-2.66-.21-2.63-1c.29-7.25-4.76-3.75-7.9-4.07a2.11,2.11,0,0,1-2.16-1.43c3.23-1.66,7.8.2,10.22-3.54,2.31-.5,3.47.46,3.5,2.79,0,1.05-.71,2.54,1.34,2.35a2.29,2.29,0,0,0,2.22-2.2c1.1-7,3.76-8.41,9.86-5.39,1.71.85,3.3,1.07,4.38-.55,1.72-2.59,4.52-3.77,6.71-5.73a17.09,17.09,0,0,1,1.56-1.51c4.66-3.67,9.68-6.26,15.88-5.29l.54.55a17.75,17.75,0,0,1-10.53,5,4,4,0,0,0-3.28,1.77c-3.88,5.64-8.42,10.34-16,10.31a2,2,0,0,0-2.15,2.59c.56,3.36-1.72,6-2.22,9.05-.4,2.44-2.36,3.43-4.83,3.28a1.65,1.65,0,0,0-2.21.38c-3.5,3.49-7.33,3-11.43,1.27-5-2.12-5-2-6.32,3.32l-2.92,0C243.86,194.36,242.71,194.19,242.93,192.51Z"/><path class="cls-66" d="M220.11,189.4a4.21,4.21,0,0,1,4.92-.67c2.52,1.13,4.69.12,7-.2,1.43,3.55,1.43,3.55-3.28,3.95,5,.8,8.16,6.43,13.28,5-.61-.27-2.39.36-3.16-1.69a4.33,4.33,0,0,1,6.06-.33c1.47,1.55,3.65,1.09,5.4,1.91,1.06.49,3.16-.47,3.13,1.37s-2,1.72-3.47,1.8c-6.77,1.6-13.37-.32-20-1-5.38,1.07-4.56-4.09-6.32-6.53C222.61,191.52,222.31,189.61,220.11,189.4Z"/><path class="cls-82" d="M244.93,195.42H240l-.08.6,6.58,2.06-.2,1-14.12-1.81c1.12-5.42-6-1.53-6-5.58,1.32-2,6.54,2.88,5.88-3.17h3c1.94,2.74,5,3.26,7.94,4l2.15,2C245,194.78,245,195.1,244.93,195.42Z"/><path class="cls-58" d="M248,194.44a9.47,9.47,0,0,1-.63-2.37c0-1.41-.24-3.3.54-4.12,1.13-1.2,2.6.16,4,.75,4.43,1.89,8.9,5.14,13.53.2.71-.77,1.87-.4,2.55.57-2.62,1.85-4.88,4.34-8.57,4.13-1.25-.07-2.11.77-1.7,2.3.35,1.28.6,2.58-.7,3.55Q255.34,192,248,194.44Z"/><path class="cls-83" d="M330.94,155.49c-.36,1-.71,1.95-1.07,2.92-4.29,1.12-7.95-1.5-11.9-2.26-2.81-.54-5-1.8-7.21,1.06-.53.68-2.5.23-3.8.3l0,0c-.33-.58,0,.18-.24-.43-1-2.47-4-4.8-1.73-7.64s5,.69,7.17.25c6.08-1.25,12.23,3.65,18.11-.45.78-.6,1.58-1.17,2.65-.76C334.73,151.5,331,153,330.94,155.49Z"/><path class="cls-70" d="M168,135.51c-1.23-5.88-1.85-11.9-4.36-18.15,7.2,4.52,14.42,10.23,19.36-1.83,3.28.86,4.45,2.76,3,6-1.09,3.56-2,7-4.68,10-3.66,4.13,1.27,7.71,2.76,11,1.62,3.54.26,4-2.07,5-2.8,1.44-4.45-.32-5.61-2.36-1.07-1.88-2.58-3.42-3.6-5.3.09-3.37,3-1.58,4.77-2.59-3-2.4-6.63,2-9.19-1.14Z"/><path class="cls-84" d="M239,258.45c-3,4.45-3,4.45-9,1.95,0-.29,0-.58,0-.87a12,12,0,0,1,2.94-5.06l.08-.07c3,1.7,3.95.74,4.06-2.57.16-4.47-1.17-9.07.91-13.41C238.48,245.09,236.92,251.86,239,258.45Z"/><path class="cls-68" d="M185,186.48l8,2C189.08,192.86,187.26,188.8,185,186.48Z"/><path class="cls-1" d="M74.08,186.48c4.07-3.28,9.1-1.83,13.63-2.39,2.28-.28,4.74,2.21,5.31,5.17s-2,3.59-3.6,5.2c-5.08,5.09-11.85,7.72-17.19,12.36a5.56,5.56,0,0,1-3,1.7c-.91.11-1.86,1.15-2.73.14-.71-.83-.35-1.85-.11-2.84.58-2.49,3.5-3.62,3.66-6.35,1.47-3.19,1.09-6.93,3-10Z"/><path class="cls-85" d="M70.05,193.43c-2.13,1-4.6,2.34-6-.5-1.27-2.48-.37-5.15,1.62-7.12.79-.79,2-1.19,2.47-2.33,4.74-.28,4.51,2.8,4,6C72.38,191.31,72,192.76,70.05,193.43Z"/><path class="cls-24" d="M70.05,193.43l2.09-3.94h.94c-.19,3.57.92,7.53-3,10h-2C68.74,197.45,69.4,195.44,70.05,193.43Z"/><path class="cls-86" d="M358,147.48l-3,0c-6.65-.63-13.19-3.43-20-1-.31,0-.62.06-.93.07-1.74-2.49-.72-4.44,1.19-6.22,1.82.67,3.32,2,5.51,1.93a5.79,5.79,0,0,0,5.4-7.64c-.49-1.57-1.46-1.67-2.67-1.22a10,10,0,0,0-4.78,4.15c-.74,1.12-.6,3.13-2.75,2.95-1.45-1.17-1.6-2.77-1.38-4.45a9.46,9.46,0,0,0-1.52-6.52c-.26-5.54,1.5-6.75,8.63-6a2.71,2.71,0,0,1,1.3,1c.73,1,1.88.9,2.94,1,2.77.66,3.58,2.68,3.52,5.22-.07,3.16.81,6.26.54,9.43a4.7,4.7,0,0,0,3,5.2l4,.1C357.23,146.22,357.59,146.85,358,147.48Z"/><path class="cls-87" d="M364.88,136.49c-1,.68-.28,1.59-.15,2.28.71,3.72-.24,4.42-3.36,2.13-.57-.43-1.6-.25-2.41-.34-3.57-1-1.8-3.16-.6-4.33C360.36,134.27,362.85,133.25,364.88,136.49Z"/><path class="cls-88" d="M342.93,124.61a1.27,1.27,0,0,0-.87-.17,4,4,0,0,0-1.83-.45c-1.16-.19-2.88.75-3.33-.93-.38-1.39,1.07-2.17,2-3a17.76,17.76,0,0,1,2.94-2.08,4,4,0,0,1,4.05.61,5.8,5.8,0,0,1,.85,1.12l1,1C348.33,124.76,345.51,124.53,342.93,124.61Z"/><path class="cls-45" d="M352.91,145.49c-2.87.36-4.25-.66-4-3.79s-.08-6.21.07-9.3a7.17,7.17,0,0,0-3.07-6.76c3.65-.39,3.61,2.24,4.07,4.72C350.88,135.41,350.07,140.81,352.91,145.49Z"/><path class="cls-89" d="M322.92,101.56h8c.35,1,.7,2,1,3,.4,3.73.18,7.54,1.64,11.12a3.69,3.69,0,0,1-.45,1.28c-1.53,1.34-1.71,3.65-3.43,4.87-3-.49-2.76-2.9-2.95-5-.27-3-.72-4.58-4.58-3.12-3.44,1.3-7.44,1-11,2.33-1.51.57-2.9-.24-3.85-1.6s-.14-2.43.36-3.68,3.29-1.86.92-3.72a1.91,1.91,0,0,1-1.11-1.53c2.07-4.74,6.09-3.67,9.14-2.17,3.71,1.81,7.09,2.27,10.82.94-1.43-.82-3.24-.35-4.52-1.49A1,1,0,0,1,322.92,101.56Z"/><path class="cls-90" d="M341.94,118.54l-2.08,2c-.64.53-1.53.51-2.21.94-1.52.94-3.06,1.25-4.45-.11a3.29,3.29,0,0,1-.26-4.8h0c1-1.25,1.56-3.51,4-2l5,0a2.63,2.63,0,0,1,.81,2.73A4.07,4.07,0,0,1,341.94,118.54Z"/><path class="cls-91" d="M342,117.53c0-1,0-2,0-3,0-2.09-1.44-3-4.13-3.41,3-1.21,4.56-3.59,7.06-1.2,3,2.86,3.71,6,1.93,9.79a2.27,2.27,0,0,1-.77-.33C345.29,117.38,343.73,117.21,342,117.53Z"/><path class="cls-74" d="M336.92,114.52c-1.73-.12-2.63,1.4-4,2a16.27,16.27,0,0,1-1-12C332.79,108.27,334,111.83,336.92,114.52Z"/><path class="cls-54" d="M254,271.44a6.25,6.25,0,0,1-1-.1c-.89-1.2-2.59-1.18-3.16-3.27-1.76-6.44,3.81-4.15,6.14-5.65.16,1,.44,2,1.83,1.53,1.57-.52,3.12-1.06,4.57.71-1.11,2.23-6.56,2.46-3.4,6.73Z"/><path class="cls-92" d="M333.93,129.51c2.57,1.21,2.07,3.56,2,5.64-.09,1.8-.55,3.58.05,5.36v0a8.37,8.37,0,0,0-1.94,6.05c-.36.63-.73,1.25-1.1,1.88l-2,1.09c-2,1.3-4,1.74-6-.05-3.31-2-5.57-5.1-8-8-1.45-2-5.35-1.52-5.19-5.14,2.62-3.06,5-3,7.78.07,2.5,2.79,5.67,5,7.69,8.33a48.56,48.56,0,0,0-2.82-4.36c-3.08-5-1.7-8.1,4-8.9a4,4,0,0,0,1.85-.62C331.41,130.2,332.32,128.89,333.93,129.51Z"/><path class="cls-93" d="M232.92,254.47c.38,2.48-1,3.91-2.94,5.06-2.44-.45-3.57-1.69-2.42-4.18C228.89,252.47,230.91,253.4,232.92,254.47Z"/><path class="cls-94" d="M171,185.46c-3.32,4.39-6.75,5.09-10.9.85a4.62,4.62,0,0,0-6-.43c-1.26.79-2.59,1.56-4.14.6,0-1.33,0-2.66,0-4a2,2,0,0,1,.9-.42c8.57-1.44,8.56-1.44,4.62-9.39-.56-1.14-1.51-2.33-.2-3.6a4.72,4.72,0,0,1,3.41.14,10.38,10.38,0,0,0,9.84-1.59c3.88-2.72,6.36-1.71,7.13,2.54.27,1.5,1.38,1.1,2.16,1.43,2.92,1.23,6.24.54,9.15,1.87.89.17,2.42-.36,2.42,1,0,2.49-6.77,5.88-8.54,4.14-3-3-6.48-2-9.84-2-1.65,0-3.64.49-4.2,2.11-.65,1.87,1.72,1.45,2.56,2.27A5.62,5.62,0,0,1,171,185.46Z"/><path class="cls-95" d="M155,169.49c.76,1.25,1.44,2.57,2.29,3.75,1.76,2.42,4,5.26,1.6,7.84-2.14,2.33-5.62,2.86-8.91,1.42-1.4-1.08-.83-2.64-1-4a54.72,54.72,0,0,1-2-11c-3.38.17-5.94-2.12-9-3-2.62-1.2-6.09-1.64-5.29-5.9,4.59-.08,9,.29,12.54,3.82,1.43,1.44,3.46,1.73,5.3,2.33,1.28.56,2,1.74,3,2.66A4,4,0,0,1,155,169.49Z"/><path class="cls-71" d="M133,158.53c.38,3.1,3.24,4.09,5.08,5.94-4.74,1-7.87-2.19-11.3-4.43-1.61-1,.55-3.16-.73-4.52a7.25,7.25,0,0,1,4.07.94C131.86,156.05,132.58,157.07,133,158.53Z"/><path class="cls-96" d="M147,167.48c4.12,3.05,1.32,7.34,2,11-1.46-3.71-5.76-2.73-8.25-5,.44-1.56,1.88-.64,2.75-1s2.67,0,.76-2.29C142.13,167.54,147,169.45,147,167.48Z"/><path class="cls-97" d="M138.56,175c-2.05,1.22-.07,5.36-3.25,4.64-1.7-.38-1.11-3.58-1.65-5.48-.38-1.33.45-1.88,1.63-1C136.27,173.83,138.4,172.84,138.56,175Z"/><path class="cls-97" d="M144.74,183.4l-5.46-4.81C142.88,177.75,142.88,177.75,144.74,183.4Z"/><path class="cls-98" d="M155,169.49l-2-1c-.75-1.23-1-2.78.05-3.61,3.62-2.89-1.71-.89-1.06-2.06-.27-2.8-1.42-4.84-4.23-6a5.25,5.25,0,0,1-3.13-4.27c-.16-1.28.9-2.45-1.52-3.22-1.63-.51-.46-3.09.69-4.25a13.64,13.64,0,0,0,3.62-6.41,4.44,4.44,0,0,1,.87-1.06,8.21,8.21,0,0,1,4.29-2.11c2.44-.19,3.15-1.9,3.84-3.74,2.87-.6-.72-2.35.57-3.23-.23-1.3,3.22-.19,1.58-2.48-.91-1.26-.42-2.2,1.09-2.42s2,.5,2.33,1.88c1,3.9,2.31,7.68,6,10h0c1.6,1.42,3.75,2.14,5,4,1.86,1.29,3.82,2.24,4.29,5,.37,2.14,2.71,2.64,4.71,3,1,1.39,6.31-.15,2.87,4.23,3.15,1.69,3.52,5.79,6.63,7.56,3.65,2.06,8,3.28,9,8.44.24,1.31,2.28,1.91,3.85,1.63,2-.35,1.34-1.74,1.11-3.08-.49-2.89,1.72-2.64,3.52-2.8-.33.37-1,.86-.94,1.08,2.87,8.3-4.16,9.45-8.89,11.95-1.48.79-4.2.76-4.45-2-.13-1.47.59-3.37-1.5-3.37s-5.13-1-6.2,2.37c-4.71,2-8.9-1.12-13.39-1.4-.4,0-1.07-.92-1.06-1.41,0-1.79,2.45-.6,2.93-2.51-2.38-.66-4.34-1.62-6.7,1-2.12,2.32-5.38,2.83-8.58,1.91C158.48,170.55,156.76,170,155,169.49Z"/><path class="cls-99" d="M289.94,164.48c-2.35,2.4-5.69,3.57-7.51,6.78-1.12,2-3.62,1.75-5.13,0-2.05-2.45-3.64-2-6.3-.61s-2.37,2.9-1.51,5c.48,1.17.65,2.53-1,2.71-1.92.22-3.78,2-5.69.72-1.32-.9,0-2.13.42-3.06,1.2-2.54-1-2.64-2.28-3.47l2-3c2.26-3.09,7.4-1.87,9-6,2-.09,2-1.54,2-3,2.06-1.08,3.39,2.68,5.15,1,1.52-1.4-.28-3.73.44-5.58a1.49,1.49,0,0,1,.62-.7,2.52,2.52,0,0,1,2.6,1.89C283.77,161,286.45,163.12,289.94,164.48Z"/><path class="cls-77" d="M233.86,155.83h7.45c-3,2.56-5.21,1.44-7.37,1.23Z"/><path class="cls-100" d="M157,128.54c-.32,1,3.09,2,0,3-1.12,2.14-2.74,3.87-5.22,3.83s-3.34.8-2.79,3.16h-1a11,11,0,0,1-2.71,1.11c-3.56,1.23-5.86,3-3.7,7.25a2.44,2.44,0,0,1-.44,2.75c-4.07-.15-5.87-2.91-7.15-6.39-1.74,1.56-.76,3.45-1,5.13-.27,2.13.36,4.87-3.06,5.15-1.5-2.94-4.1-4.67-6.69-6.56-3.08-2.25-3-6.59-5.53-9.47-1.43-1.64.87-2,2.12-1.93,2.82.11,4-1.5,4-3.94s-1.85-2.35-3.89-2.34c-2.75,0-4.13-1.35-3.21-4.57,1.65-5.81,7.35-10.48,13-10,1.42.12,3.4.61,3.48,2.26s-1.85,1.4-3.11,1.57c-.63.09-1.34,0-1.58,1.27,1.84,1.47,3.89.38,5.22-.56,4.24-3,8.88-.83,13.28-1.46.88-.13,1.95,1.11,2.93,1.72,3,2.33,3.43,6.38,6,9Z"/><path class="cls-101" d="M130,153.51a5.48,5.48,0,0,0,1.75-6.29c-.74-2.18.12-3.89,1-5.64a1.77,1.77,0,0,1,2.15-.82,1.27,1.27,0,0,1,1,1.48c-1.3,4.56,3.06,5.09,5.08,7.29,2.37.63.92,3.1,2.11,4.3,2.8,3.2,3.19,8.34,8.08,9.89.5.15.26,1.18-.18,1.75-1,0-2.3.32-2.91-.18-4.45-3.64-9.9-4.93-15.12-6.76l-2.88-2.07C130.07,155.47,130,154.49,130,153.51Z"/><path class="cls-70" d="M156,128.52c-4.15-1.56-3.72-6.19-6-9C153.76,121.37,155,124.87,156,128.52Z"/><path class="cls-102" d="M279.94,155.52a4,4,0,0,0,.07.48c.66,2.62,2.44,5.85-.25,7.65s-3.52-2.6-5.8-3.16c-2.8-7.71-8.71-13.8-11.31-21.62a28.69,28.69,0,0,1-.7-3.34c-1.32-2.3-5.39,1.21-5.89-2.74-.39-3.08,2.69-3.46,4.22-5,2.44-2.43,6.28-.78,6.16,3.14-.16,5.07,5.3,5.92,6.3,10,.29,1.18,2,0,2.5-1.11,1.05-2.49,2.64-2.65,4.71-1.32a3.81,3.81,0,0,1,2.71,2.13c2,6,2,5.93-3.51,10.06-.82.61-.1,1.47.2,2.19A4.24,4.24,0,0,1,279.94,155.52Z"/><path class="cls-99" d="M279,153.5c-1.52-.68-2.64-2.08-2.32-3.49.53-2.34,2.38-.62,3.68-.67,2.22-.08,2.76-1.65,2.59-3.45s-.64-3.55-1-5.32a8,8,0,0,1,3.76-1.35c2.68.69,2.36,4.27,5.16,5.26,1.34-2.46.53-4.71-.08-7.1-.89-3.54-2.89-7.07-.8-10.86,2.68,5.82,5.4,11.61,8,17.46.5,1.12,1.29,2.79,2.17,2.08,3-2.35,5.16-.8,7.54.76.39.25,1.17.53,1.38.34,6.23-5.38,10.35,3.35,15.9,2.34l6,.05c-1,3.13-3.46,3.18-6,2.75-3.58-.61-6.92-2.83-10.82-.52-1.07.63-3.06-.65-4.39-1.75s-2.65-1.54-4-.26-.44,2.89.47,3.9c1.14,1.25,1.78,2.3.71,3.82a25.51,25.51,0,0,0-16,6c-1.61-1.9-.18-3.31.72-4.86a6.37,6.37,0,0,0-2.16-8.09c-.87-.5-1.6-.56-1.94.47C285.88,156,282.22,154.06,279,153.5Z"/><path class="cls-103" d="M290,126.52c.61,3.84.46,7.82,2.48,11.4.59,1.05.41,2.55.5,3.86.13,2,.08,4.42-2.22,4.94-1.94.45-2.09-2.16-3.13-3.31s-.71-3.3-2.68-3.88c-3.84-3.45-6.78-14.89-4.85-19,.12-.24.55-.19.89,0,1.42-.86,1.77-3.63,4.07-2.73a5.74,5.74,0,0,1,4,5A21.24,21.24,0,0,0,290,126.52Z"/><path class="cls-104" d="M311.93,136.53c.73,2.6,5.21,1.42,5,5a4.17,4.17,0,0,0-.5,0c-2.52.27-14.12-1.5-16.5-2.52-4.51-1.93-8.14-10.9-6.83-17.34.65-3.2,1.34-6.53,4.81-8.12,2,2.24,1.22,4.65.19,6.9-1.67,3.65-.34,7.11.43,10.58a2.29,2.29,0,0,0,3,1.85c.77-.35,2-.24,1.69-1.68a2.06,2.06,0,0,1,1.2-3.13,3.07,3.07,0,0,1,3.53.83c1.33,1.27,1.78,3,2.57,4.6A8.54,8.54,0,0,1,311.93,136.53Z"/><path class="cls-105" d="M309.94,134.51a56.78,56.78,0,0,0-2.86-5.12,1.91,1.91,0,0,0-3.06-.21c-1.16,1.2.74,1.45,1,2.27a2.56,2.56,0,0,1-2.58.94c-2.09-.18-.18.87-.4,1.25-3.93,2.89-4.44-1-4.89-2.95-.92-4-2.39-8.22.57-12.32.8-1.1.22-3.21.26-4.85.91-4.57,3.92-7.26,8-9a2.42,2.42,0,0,1,2,1l1,1a56.94,56.94,0,0,1-6.71,12c-1.77,2.47-1.11,3.3,1.73,3.79C311.73,123.63,313.6,127.59,309.94,134.51Z"/><path class="cls-106" d="M281,120.52c-.31,4-.82,7.93,1.62,11.72,1.33,2.08,1.59,4.84,2.34,7.29-.18,2.7-1.75,1.41-3,1l-2-2a25.3,25.3,0,0,0-5.68-12.18c-2.47-2.88,1.91-3.13,2.71-4.85,1.06-2.28,1.47-4.83,2.94-6.94C281.8,116.28,280.61,118.53,281,120.52Z"/><path class="cls-107" d="M307.94,105.52a2,2,0,0,1-2-1c1.54-2.2,2.9-4.65,6-5,4-1.1,7.3,1.35,11,2l0,.9c1.45,2.32,4.49,0,6,2.07.85.73.61,2.46.4,2.3-3.68-2.75-8.23,1.65-12.11-1.91A6.15,6.15,0,0,0,307.94,105.52Z"/><path class="cls-108" d="M279.92,114.55c.18,2.81.22,5.55-2.94,6.94v0c-1.62-2.43-1-5.7-3-8C276.88,108.48,278.1,113.27,279.92,114.55Z"/><path class="cls-106" d="M274,113.53c2.9,1.94,2.25,5.23,3,8l-2-2C275.32,117.41,274.28,115.53,274,113.53Z"/><path class="cls-109" d="M279,153.5c1.2-.54,2.33-1.27,3.77-.62,2.74,1.24,3.46-.12,3.63-2.67.24-3.51,2-3,3.73-1a41.22,41.22,0,0,1,4,5.68c1.84,3-1.72,3.79-2.54,5.71a14.16,14.16,0,0,0-.61,2.88l-1,1c-4.36.72-6.85-1.2-7.71-5.46-.3-1.44-.66-2.9-2.29-3.5A2.23,2.23,0,0,1,279,153.5Z"/><path class="cls-69" d="M173,139.51c-2.54-.24-3.75-2.14-5-4,1.85.06,3.45,1.53,5.6.05,3.77-2.59,5.25-.28,5.75,3.41C177.31,140.23,174.88,137,173,139.51Z"/><path class="cls-110" d="M336,140.51c1.34-2.17,1.63-4.9,4-6.57,2.09-1.5,4.17-3.11,6.76-2.16s0,3.16.69,4.84c1.19,3-1.11,5.31-3.24,6.41a8.71,8.71,0,0,1-7.64-.21c-.45-.22-.39-1.5-.56-2.29Z"/><path class="cls-74" d="M333.93,129.51l-3,2c-1.56.48-2.09-.54-2.53-1.71-.07-2,1.65-3.69.75-5.76a2.69,2.69,0,0,1,.77-2.51c.19-2.17.15-4.47,3-5-.67,6.53,3.58,4.46,6.93,4-.71.77-1.41,1.55-2.17,2.4,1.46.83,3.31.08,4.36,1.54-1.94.06-3.95-.19-5.78.26C333.9,125.29,332.91,127,333.93,129.51Z"/><path class="cls-111" d="M342,117.53c1.28-.55,1.32-3.17,3.05-2.45s.65,2.85,1,4.31a5.8,5.8,0,0,0-4.06-.85C341.94,118.2,342,117.86,342,117.53Z"/><path class="cls-107" d="M328.92,129.52c.67.67,1.33,1.34,2,2-.15,1.57-.89,1.95-2.36,1.36s-3.12-.63-4,.86a4.68,4.68,0,0,0,.29,5.16,22.07,22.07,0,0,0,6.48,6.83c-3.66,1.15-5.86,1.4-6.93-2.21-1.16-3.9-5.55-5-7.66-8.26-1.15-1.8-2.89,1.68-4.78,1.27l-2-2c.1-1.14.09-2.3.3-3.42.92-4.84-1.11-7.33-6.07-7.61-1.68-.09-3.91,1-4.9-1.14-1.06-2.29,1-3.53,2.31-5,2.92-3.29,3.33-8.3,7.36-10.84,1.05-.27,1.92-1.48,3.3-.5a14.41,14.41,0,0,1-3.45,5.18c-.77.77-2,1.53-.75,2.86.83.92,1.9,1.76,3,.86,3.74-3.06,8.77-.63,12.84-3.36,2.23-1.49,4,1,4.07,3.8.06,2.21-.82,4.79,2,6.16,0,1,0,2,0,3C329.83,126.24,327.73,127.55,328.92,129.52Z"/><path class="cls-74" d="M328.93,104.53c-2.16,0-4.45.39-6.44-.19-2.22-.64-.93-1.47.4-1.88C324.87,103.24,327.92,100.92,328.93,104.53Z"/><path class="cls-100" d="M151,165.47c-.08-.31-.11-.87-.25-.9-6-1.25-6.22-7.07-8.72-11.08,3.21,0,5.07,2.28,6.33,4.55a17.07,17.07,0,0,0,3.66,4.44h4.55c-1.86,2.05-4.13,3.35-3.56,6Z"/><path class="cls-70" d="M152,162.48c-1.79.17-4.1-.35-4.1-1.92,0-4.27-3.77-4.88-5.89-7.07-.9-1.17.27-2.89-1-4a6.38,6.38,0,0,0-.32-2.41c-1.09-1.87-2.8-3.88-.75-5.75s4.57-4.27,8.09-2.86c-.18,2,.71,4.43-1.67,5.78-1.69,1-3.35,2.47-2.78,4.19.85,2.53,3.17-.89,4.89.72.46,2-4.79.72-2.63,4a8.08,8.08,0,0,0,4.42,3.58C153.28,157.76,154.14,159.74,152,162.48Z"/><path class="cls-70" d="M149,138.51a1.94,1.94,0,0,0-1.27-1.91c-1.07-.35-2.62-.66-2.17-2.11.5-1.65,1.9-.63,2.89-.29,3.52,1.19,6-1,8.56-2.68.24,3-.41,5.27-4.14,5C151.24,136.44,150.38,138,149,138.51Z"/><path class="cls-112" d="M302,133.64a3.87,3.87,0,0,1-3.5-2.84l6.48.65C305.82,134.69,303.06,133,302,133.64Z"/><path class="cls-92" d="M328.92,129.52c-3.8-2.5-.67-3.6,1-5C332.35,126.75,329.39,127.88,328.92,129.52Z"/></svg>