<svg id="Layer_1" data-name="Layer 1" xmlns="http://www.w3.org/2000/svg" viewBox="0 0 400 275"><defs><style>.cls-1{fill:#eed8a4;}.cls-2{fill:#edd09a;}.cls-3{fill:#e5d09c;}.cls-4{fill:#d4b277;}.cls-5{fill:#e1c798;}.cls-6{fill:#e1d2ad;}.cls-7{fill:#d9bc8b;}.cls-8{fill:#e2c996;}.cls-9{fill:#dac9a1;}.cls-10{fill:#cdab6f;}.cls-11{fill:#dec290;}.cls-12{fill:#ccb282;}.cls-13{fill:#b79866;}.cls-14{fill:#bf9d60;}.cls-15{fill:#ddc08d;}.cls-16{fill:#aa7e44;}.cls-17{fill:#e5c790;}.cls-18{fill:#dbbb80;}.cls-19{fill:#dabe8c;}.cls-20{fill:#dcc494;}.cls-21{fill:#ceaf78;}.cls-22{fill:#e2d1ac;}.cls-23{fill:#e3c99a;}.cls-24{fill:#e0c493;}.cls-25{fill:#d6be8e;}.cls-26{fill:#bca376;}.cls-27{fill:#cda769;}.cls-28{fill:#c3ab7f;}.cls-29{fill:#bca479;}.cls-30{fill:#cbaf7b;}.cls-31{fill:#d1ac72;}.cls-32{fill:#e4cda2;}.cls-33{fill:#af9062;}.cls-34{fill:#d8bd8c;}.cls-35{fill:#c7aa7d;}.cls-36{fill:#c9b186;}.cls-37{fill:#e5d4b0;}.cls-38{fill:#b69c6e;}.cls-39{fill:#c2aa7f;}.cls-40{fill:#c7aa79;}.cls-41{fill:#d9ba88;}.cls-42{fill:#e5d0a9;}.cls-43{fill:#e5ddd1;}.cls-44{fill:#946f3c;}.cls-45{fill:#ab8c5e;}.cls-46{fill:#dac49d;}.cls-47{fill:#ab9369;}.cls-48{fill:#d2be99;}.cls-49{fill:#dcc394;}.cls-50{fill:#e3cdaa;}.cls-51{fill:#ccba95;}.cls-52{fill:#a89166;}.cls-53{fill:#b39e77;}.cls-54{fill:#c3ac83;}.cls-55{fill:#463e2d;}.cls-56{fill:#795c36;}.cls-57{fill:#d4ae6d;}.cls-58{fill:#e3c486;}.cls-59{fill:#ddbd80;}.cls-60{fill:#dfc48d;}.cls-61{fill:#bb9c69;}.cls-62{fill:#be9658;}.cls-63{fill:#d7c091;}.cls-64{fill:#c8b48c;}.cls-65{fill:#d9c393;}.cls-66{fill:#d8b374;}.cls-67{fill:#d6af71;}.cls-68{fill:#e2c38a;}.cls-69{fill:#cda76a;}.cls-70{fill:#c8a264;}.cls-71{fill:#cfb380;}.cls-72{fill:#dbbc84;}.cls-73{fill:#c09c62;}.cls-74{fill:#a5814c;}.cls-75{fill:#8b6838;}.cls-76{fill:#9e8152;}.cls-77{fill:#be9f6c;}.cls-78{fill:#c0a16b;}.cls-79{fill:#dabc85;}.cls-80{fill:#c2a16c;}.cls-81{fill:#482d17;}.cls-82{fill:#e1c58e;}.cls-83{fill:#d3b782;}.cls-84{fill:#dec796;}.cls-85{fill:#d3b885;}.cls-86{fill:#cfb079;}.cls-87{fill:#d2b686;}.cls-88{fill:#b48b50;}.cls-89{fill:#d3b276;}.cls-90{fill:#c9a464;}.cls-91{fill:#e3c68c;}.cls-92{fill:#cda464;}.cls-93{fill:#dcba80;}.cls-94{fill:#d2b070;}.cls-95{fill:#d4b47c;}.cls-96{fill:#ddbf87;}.cls-97{fill:#b4894c;}.cls-98{fill:#ebce95;}.cls-99{fill:#b68848;}.cls-100{fill:#a5783e;}.cls-101{fill:#e4c891;}.cls-102{fill:#c4a874;}.cls-103{fill:#c09f69;}.cls-104{fill:#8d652e;}.cls-105{fill:#efd4a0;}.cls-106{fill:#a07d41;}.cls-107{fill:#c1995d;}.cls-108{fill:#a67940;}.cls-109{fill:#966528;}</style></defs><path class="cls-1" d="M64.86,173.46c-.33-2.58-1.57-5.15-.07-7.76.15-.26.26-.78.12-.95-3.32-4-.89-9.23-2.67-13.46-2.67-6.33-.88-12.51.48-18.5a48.88,48.88,0,0,1,4.47-11.34c1.69-3.28-.86-5.91-3.77-8C54.08,106.6,42.89,103.7,32.8,98.5c-1-.53-1.95-1.23-2.92-1.84,1.36-2.8,3.75-2.3,6-1.78,11.93,2.72,22,9,31.38,16.58,4.14,3.35,5.62,7.86,3.43,13-2,4.57-1.74,8.59,1.53,12.5,2,2.36,2.23,5.5,3,8.39.32,1.26.51,2.83,2.08,3.1s2.2-1.25,2.9-2.32c1.68-2.59,3.38-5.09,7.1-4.17,2,.49,4,1.35,4.48,3.5,1,4.07,3.94,5.91,7.5,7.3,2.14.83,4.53,1.62,4.28,4.72-1.32,5.21-1.11,9.86,3,14.16s3.11,8.73-2.4,11.58a24.38,24.38,0,0,0-2.25,1.06c-8.32,5.51-18.65-1-18.35-10.68-1.38-.59-2,.76-3,1.18-3.67,1.57-7.28,3.53-11,.09C68.29,173.66,66.28,174.43,64.86,173.46Z"/><path class="cls-2" d="M103,157.51c-.27-3.74-3.81-3.28-6-4.32-3.16-1.52-5.86-3-6.08-6.93-.16-2.74-2.62-2.68-4.36-3.36-2.23-.88-3.42.73-4.39,2.31-1.35,2.19-2.12,5.82-5,5.42-3.23-.44-3.06-4.2-3.64-6.92a16.33,16.33,0,0,0-3.67-8c-2.55-2.83-2.43-6.32-1.06-9.83,3-7.67,1.64-9.78-4.46-15-4.5-3.85-9.56-6.68-14.5-9.45-6-3.33-12.48-6.77-20-4.77C22.24,94.6,15.29,91.17,10.27,85c-3.52-4.37-2.94-8.82.69-12,2.56-2.22,8.32-2,11.52.87,2,1.73,4.18,3.32,5.32,5.83a3.27,3.27,0,0,0,2.06,3.13c3.84,2.17,7.87,3.91,10.39,7.93.92,1.47,3.06.69,4.68.8,4.17.29,8.48.44,9.53,5.87A2.14,2.14,0,0,0,55.52,99c5.6,2.18,8.7,8.2,14.79,9.6,5.56,4.22,4.11,10.41,3.08,15.48-1.72,8.41.64,11.82,9.39,10.8,5.8-.68,13.18,3,15.5,8,1,2.13,2.4,3,4.65,2.8a3.81,3.81,0,0,1,2,.4c2,1.31.74,4.39,3.09,5.49a2.8,2.8,0,0,1,1.59,1.39,3.5,3.5,0,0,1-2,4.65C106.07,158.25,104.49,158.87,103,157.51Z"/><path class="cls-3" d="M103,157.51a6.8,6.8,0,0,0,4-1c7.88,2.75,12.57,9.18,16.87,15.61,1.76,2.64,4,4.18,6.16,6.07.55,1.38-.57,1.72-1.4,2.15a16.22,16.22,0,0,0-7.65,8.12c-2.41,6-7.48,9.93-11.4,14.72-2,2.48-3.59,5.58-6.57,7.27-1.49-4.37.47-7.61,3.37-10.63,2-2.06,4.42-3.93,4.27-7.15-.9-.45-1.37-.3-1.77,0-6,4.77-13.63,3.47-18.3-2.54a34.7,34.7,0,0,0-16.43-11.4c-3.39.6-6.65-2.33-10.1-.4-3.32-2.24-2.88-3.85.83-4.9,1.7-.65,3.61-1.81,5.13-.23,4.56,4.74,8.17,1.37,11.9-1.16.94-.64,1.71-1.87,3-1.26,1.83.86.54,2.23.33,3.43-1,6.09,5.2,11.8,11.3,10.59a32.92,32.92,0,0,0,8.65-3.56c4.18-2.16,3.65-7-.88-10.5C101.27,168.43,100.48,160.52,103,157.51Z"/><path class="cls-4" d="M43.05,220.43c-1.18-9.14-.16-18.34-.84-27.53-.42-5.7,5.17-9.22,12.77-9.39-1.81,2.84-4.7,5.33-3,9.3.5,4.53,3.54,4.92,7.15,4.4,4.21.15,6.89-3.1,10.22-4.82,2.24-1.16-.62-4.58,1.64-6.28,3,0,8.78,6,8.34,8.54-.19,1.12-1.11,1.57-1.93,2.13-4.56,3.11-5.43,6.53-2.93,11.56.37.75.91,1.38.6,2.28-1.53,2-6.56-.31-5.65,4.64-.16,2.17.34,4.49-1.48,6.25-1.45-1.72-.69-3.83-1-5.74-.31-1.69,1-4-1.05-5-2.2-1.14-4.15.09-5.76,1.72a1,1,0,0,0-.54.76c0,5.2.44,10.49-3.34,14.84-2.87,2.37-3.75.29-4.33-2-.43-1.78-.16-3.64-.3-5.47-.09-1.13,0-2.61-1.38-2.9-1.68-.34-1.6,1.31-1.92,2.34a8.17,8.17,0,0,1-.88,2.32C44.94,224,44.08,222,43.05,220.43Z"/><path class="cls-5" d="M266.78,254.53a13.82,13.82,0,0,0-2-2.71,34.16,34.16,0,0,1-11.93-18.3,64.69,64.69,0,0,0,9.07-1.37c1-.17,2.13-.41,2.16-1.58,0-1.52-1.3-1.66-2.45-1.78-1.77-.19-3.61.1-5.29-.75-1.47-1.3-.33-2.43.39-3.4,1.29-1.74,1.34-3.23-.26-4.8s-2.76-3.23-.46-5,3.53.34,4.82,1.8c.32.37.6.78.9,1.17.63.77,1.16,1.62,1.83,2.35,1.53,1.68,3.14,4.18,5.68,2.38,2.27-1.6,5.27-3.25,4.41-7-.33-1.43-1.05-2.87.34-4.15,3.52,4.29,3.59,10,6.1,14.79,1.26,2.39,3.38,4.35,3.92,7.12-4.42,8.51-4.22,16.74,1.51,24.63.21,2.21-1.13,3.6-2.6,4.92-2.25,1.46-.43,3.67-1,5.43-3.86-.24-5.36-3.44-6.93-6.09a9.61,9.61,0,0,0-4.12-3.7c1.67-3.31,4.33-6.27,3.74-10.4-.2-1.38.4-3.46-1.5-3.67-2.14-.23-1.65,2-1.95,3.29C270.54,250.55,270.71,253.85,266.78,254.53Z"/><path class="cls-6" d="M245.89,226.51a24.86,24.86,0,0,1-5.74-9.64c-1.84-5.7-10.12-11.1-15.94-11.49-6.17-.42-12.15,1.17-18.26,1.1-.19-2.93,2.13-2.89,4-3.28,2.61-.54,5.35-.76,7.59-2.3,2.45-1.68,5.07-3.31,3.31-7.23-1.28-2.85,1-3.91,3.28-4.26a32,32,0,0,1,8.47,0c1.47.17,3,.69,3.49-1.55.74-3.12,3-3.15,5.49-2.31s4.4,2.88,6.05,5c2.56,1.92,5.56.28,5.39-1.53-.48-5.11,3.25-6.72,6-9.3a6.44,6.44,0,0,1,1-.93c1.87-1.34,4.41-1.2,6.17-2.79a6.87,6.87,0,0,1,1.18-.74c4.12.23,5,1.18,3.37,4.47-1.14,2.34-1.62,5.48-5.53,5.37-2-.06-1.7,2.06-2,3.44-.68,3.34-.06,6.93-1.92,10-2.59.89-5.15,1.55-7.16,3.86-1.52,1.75-4.14,1.9-6.49,1.6-3.06-.41-5.87.72-8.64,1.59-2,.62-3.8,2.14-.53,3.9a9.42,9.42,0,0,1,3.26,2.95c1.43,3,2.91,5.9,4.11,9C246.5,223.12,247.49,224.82,245.89,226.51Z"/><path class="cls-7" d="M154.09,101.5c9.2,2.22,18.23,5.32,27.88,5.13,3.28,2.49,6.61,0,9.92.11,9.94-2.67,19.46.65,29.12,2,3.65.44,7.29.75,10.92-.17l1.88-.08a268.6,268.6,0,0,1,29.73-1.77,29.78,29.78,0,0,0,6.4-.84c2-.46,4.12-1.2,5.89-.39,4.25,2,7.21.11,10.15-2.57,8-7.31,17.48-9.39,28-7.38,5.24,2.57,10.45,5.18,14.93,9-2.71,1.39-5-.11-7.29-1.13a10.05,10.05,0,0,1-1.73-1.16c-3.89-3-7.44-5.53-13-2.51-2.61,1.43-6.38.76-9.8,1.8-6.39,1.94-9.53,6.14-12.29,11.36a3.88,3.88,0,0,1-3.27.6c-2.84-.89-5.56-1.43-8.53-.28-1.79.7-3.39-.82-5.06-1.37a13.43,13.43,0,0,1-1.4-.45c-2.19-.92-4.34-.38-6.48.22-5.75.34-11.35,1-17.24-.25-5.05-1.08-10.51.43-15.74,1.26-4.53-.59-6.42,3.85-9.92,5.21a6.7,6.7,0,0,1-3.53-3.4c1.14-2.73.29-4.21-2.71-4.51a53.29,53.29,0,0,0-5.79-.06c-8.17.05-16,3.94-24,3.07-7.57-.82-15.16,1.17-22.6-.78-4.39-1.16-8.67-1.71-13.19-.38-2.46.73-5.14,1.55-7.8.41-1.22-.79-.74-1.69,0-2.43,2.13-2.22,6-3,5.69-7.23,0-.44,1.07-.87,1.7-.71C148,102.61,151,100.8,154.09,101.5Z"/><path class="cls-8" d="M74,177.51c5.18-.6,7.52,4.22,11.4,6.14a14.65,14.65,0,0,1,7.37,7.62c1.24,3,5.48,1.56,8,3.11,3.67,2.28,5.48-.18,7.14-2.76.86-1.35,1.65-1.91,3.18-1.09s2.09,2,1.09,3.61-1.62,3.45-3,4.5c-3.9,3.08-5.67,7.07-6.18,11.82L98,213.53c-2.83-2.25-6.2-1.63-9.43-1.77s-6.34.4-9.4-.55c-4.92-1.54-6-5-3-9.1.39-.54-.1.14.31-.39,2-2.6,6.42-5.58,5.41-7.77-1.74-3.79-3.56-8.18-7.23-10.89C72.38,181.34,71.57,179.73,74,177.51Z"/><path class="cls-9" d="M260.92,198.47c.34-3.25.33-6.58,1.13-9.7.53-2.08-1.67-7.2,4.64-5,1.36.48,3.41-4.12,3.69-6.62.22-2-2.05-1.35-3.45-.68a2.14,2.14,0,0,1-.56-1.43,4.6,4.6,0,0,1,3.47-3.89c3.8-3.35,9.69-3.64,12.44-8.55a2.32,2.32,0,0,1,1.7-1c10.11-1.4,20.12-5.83,30.46-1,1.93.92,4.33.15,6.26,1.38a1,1,0,0,1,.21,1.38c-4.5,1-8.67,3.43-13.47,3.19-.32,0-.8,0-.94.24-4,5.68-9.86,3.6-15.24,3.77-3.53.11-6.21,2.73-8.37,4.84-6.93,6.77-11.56,15-12,25-2.8-1.11-5.48-3-8.72-1.39A2.24,2.24,0,0,1,260.92,198.47Z"/><path class="cls-10" d="M205.05,206.61c-2.33,2-3.16,5.34-6.11,6.76-.61-2.36-1.11-4.49-4.59-3.36-1.83.59-3.75-.51-5.54-1.53-3.12-1.77-6.5-2.23-9.88-.47-.22.39-.47.77-.72,1.14-1.2,3.1-3.37,6.19,0,9.31a1.06,1.06,0,0,1,.15.95c-.13.72-.64,1.44-1.26,1.18-4.12-1.65-3.84,7.14-8.66,3.57-.12-.09-.17-.27-.26-.42-1.27-3.94,0-7.73.68-11.55a23.23,23.23,0,0,0,1.12-4.83c.5-6.72,1.37-7.52,7.57-7.13.64-1.26.15-2.61.27-3.92.47-4.93,3.61-7.16,8.27-5.81,1.57.45,2.93,1.05,1.82,3.11-1.26,2.35.38,3.62,2.13,3.91,2.06.34,2-1.33,2-3,0-3.54,3.32-3,5.45-3.93a64.57,64.57,0,0,1,13.93,3.33c-.36,3.43-2.24,6.26-3.94,9.09A41,41,0,0,0,205.05,206.61Z"/><path class="cls-11" d="M154.09,101.5c-3.25.68-6.25,3.46-10.25.6,2.51,7.28-5.06,6-6.87,9.45a2.31,2.31,0,0,1-2.24.79c-6.87-2-14-2.19-21-3.21-1.63-.24-3.62-.54-4.54-1.79-5-6.75-12.8-4.49-19.3-6.37-1.82-.32-4.14.4-4.89-2.25,18,.07,36.09-1.06,54.13,0C144.17,99,149.38,99.09,154.09,101.5Z"/><path class="cls-12" d="M240.91,212.48l-2.95-2c-1.67-2.27-.43-4.38,1.49-4.7,2.43-.4,4.85-2.18,7-1.64,4,1,6.6-.5,9.17-3,.3-.3,1,0,1.4.22.69,4.41,2.78,6.79,7.73,6.23,2.92-.33,6.58,2.71,8.28-2.18,1.36,1.87.55,4.08,1,6.09.78,3.83,2.48,7.46-2,10.74-4.15,3-5.94,3.35-9.08-.85-.69-.93-1.31-1.9-2-2.85s-.42-1.92-1-2.73c-1-1.36-1.23-3.61-3.77-3.16-2.36.43-3.9,1.55-4,4.19-.1,3.39-1.54,5.31-5.28,4.57C243.18,219.54,244,214.7,240.91,212.48Z"/><path class="cls-13" d="M67.94,221.51l.09-7c1.24-2.68,3.58-3.28,6.18-3,4.74.51,9.49.51,14.24.73,3,.14,5.46,1.32,6,4.71,0,2.27.3,4.64-1.82,6.35-1.3,1.05-1.39,2.6-1.2,4.09.81,6.29-3,10-7.47,13.23-1.36-1.27-1.27-2.91-1.21-4.55a7.63,7.63,0,0,1,.28-1.5c.56-1.93,1.85-3.41,3-5A8.73,8.73,0,0,0,85.7,219c-1-1.19-2.12-2.13-3.79-1.84a4.1,4.1,0,0,0-3.31,3.28,15.06,15.06,0,0,0,.44,7.79,43.16,43.16,0,0,1,.32,8c-.19,2.93.44,5.83.34,8.75-.33,1.12-.76,2.38-2.09,2.41-1.59,0-1.4-1.51-1.68-2.55a10.91,10.91,0,0,0-1.69-3.54A27,27,0,0,1,69,226.48Z"/><path class="cls-14" d="M168.94,224.44c3,1.21,2.64-2.08,3.15-3,1.42-2.6,2.94-2.95,5.43-1.34.1-3-5.47-3.55-2.94-6,1.84-1.78-.08-5.33,3.38-5.62,2.07,1.75,3.52,3.83,3.48,6.58,3.7-4.66-1.22-4.92-3.49-6.57.22-2.51.33-5.21,4-2.68a3.67,3.67,0,0,0,3.31.45c2-.58,3-1.26,4.89,1.52s6.61.86,10.28-.16c.38,2.43-2.19,3.71-1.45,5.77l-3,5.09c-2.75,6-6.48,9.57-13.62,6.16-2.08-1-4.25-.13-5.79,1.74a4.87,4.87,0,0,1-5.83,1.51,6.71,6.71,0,0,1-2.18-.79C167.59,226,166.62,225,168.94,224.44Z"/><path class="cls-15" d="M189.94,272.17c-4.8,1.31-9.74,1.14-14.62,1.25-9.9.22-13.71-2.93-14.5-12.69-.38-4.67-.44-9.54.9-14.21a1.81,1.81,0,0,1,1.17-.64,2.24,2.24,0,0,1,1.26.49c0,2.64,2.68,4.68,1.66,7.55-1.17,1.1-3.08,2.07-2,4s2.9.87,4.45.46a10.53,10.53,0,0,1,2.41-.55c4.24,3.63,4.24,3.63,9.58,3.52,1.31,1.69,1.86,4,5.26,2.61,2.31-1,4.06,1.8,5.3,3.71C191.78,269.21,192.5,271.11,189.94,272.17Z"/><path class="cls-16" d="M346.79,132.59c2.57,1.85,5.81,2.61,8.07,5-.06,1.3.92,2.31,1,3.57-.46,7.27-1.17,8.09-7.24,8.47,2.87.48,5.87.87,6.43,4.66-1.51,1.81-3.42,1.51-5.26.84-1.5-.55-2.92-1.29-4.58-1.19-6.13-.72-7.55-2.16-7.68-8a56.41,56.41,0,0,1,.16-7.91c.91-2.86,1.4-5.47-3-5.34a6.34,6.34,0,0,1-3.88-1.81,1.76,1.76,0,0,1-.08-1.37c2-1.69,5.8.74,7-3,2.12-.77,2.73,1.2,3.79,2.2C343.11,130.23,344.61,131.86,346.79,132.59Z"/><path class="cls-17" d="M70,109.55a12.11,12.11,0,0,1-8-4.49,11.68,11.68,0,0,0-6.06-4.1c-1.26-.34-2.68-1.07-2.75-2.58-.31-6.75-5.5-5.6-9.42-5.4-2.49.13-4.45-.11-5.5-2.13-1.53-2.95-3.23-5-6.76-5.88-1.65-.43-4.73-2-3.68-5.29A18.87,18.87,0,0,0,39.44,85.6c7.76,1.06,15.11,3.87,22.31,6.67,7,2.72,14.25,4.11,21.35,6.2-1.53,1.71-3.5,1.36-5.44,1.13-1.71-.49-3.48-.76-5.23-1.1-3.16-.81-6.28-1.81-9.48-2.44C66.68,97.26,70.43,104.45,70,109.55Z"/><path class="cls-18" d="M74,177.51c-2.71,4.41,2.65,4.74,4,6.74,1.8,2.62,1.51,7.39,6.36,7.89,1.09.12.31,2-.47,2.9-2,2.39-4.08,4.77-6.11,7.16-1.25,1.48-3.19,2.93-2.13,5.1A6.12,6.12,0,0,0,81,210.41c2.65.17,5.31.06,8,.07-3.16,3.58-9.15,3.57-14,0-5.06-4.51-4.36-11.77,1.61-14.65,1.91-.92,2.62-1.74.66-2.87-2.76-1.59-1.32-7.14-6.29-6.43-1.73,1.59-4,1.33-6,1.54-1,.1-2.52-.37-2.16-1.34,1-2.57-.76-1.31-1.62-1.4-1.64-.17-3.28-.39-4.32-1.92,1.78-1.71,3.57-3.2,6.36-2.94,1.49.14,2.16-.72.85-2.08.29-2.43,1.5-3.24,3.7-2C69.69,177.54,71.81,177.57,74,177.51Z"/><path class="cls-19" d="M56,227.45c-1.66-.28-2.71-2.08-1.18-2.4,5.88-1.23,3.76-5.59,4.16-9,.15-1.27-.27-2.69,1.12-3.57-.64,8.79.28,17.31,4.16,25.38,1,2,2.52,3.46,3.67,5.23,1.37,2.09,3.33,4.62,1,7.12s-5.27,3.1-8.38.92c-2.79-2-5.67-3.82-8.51-5.72a23.26,23.26,0,0,1-.39-5.13c-.08-3.92,0-7.55,4.77-9.21C59.48,230,56.67,228.63,56,227.45Z"/><path class="cls-20" d="M205.05,206.61c2.16-4.12,1.6-9.79,6.92-12.11l.42-.49c.79-.89,2.55.13,2.94-1.5-2.29-1.32-3.28-2.45-.64-4.74,3.11-2.72,6.24-2.56,9.71-1.4,2.34.78,4.66,1.95,7.31-.09-1.08-1.41-3-1.32-4.2-2.23-.39-3.33.11-3.78,4.82-4.41a10.27,10.27,0,0,0,3.42.19c5.83-1.19,6.32-.76,6.71,5.37a2.24,2.24,0,0,1-.52,1.29c-2.42-.08-5.72-1.56-4.86,3.3.45,2.53-1.52,1.72-2.53,1.37-3.57-1.23-7.21-.58-10.81-.56-1.42,0-3.57,1-1.72,2.64,3,2.67.87,4.27-.55,6.18-2.71,3.66-6.82,4.4-10.91,5-1.81.25-3.71,0-4.61,2.08C205.65,206.53,205.35,206.58,205.05,206.61Z"/><path class="cls-21" d="M170.92,226.51c1.33.41,2.84,1.81,3.94-.09,3.38-5.83,8.19-3.46,12.44-1.9,2.74,1,4.09.92,4.62-2,.42-2.31,2.5-2.88,4-4.06-2.51,5.46-4.1,11.36-7.8,16.26-1.81-1.52-.15-3.38-.48-5-5.05,2.37-5.48,3.35-5.43,12.58.92-.38,1.65-1.5,2.78-.78-.11,1.62-.32,3.19-2,4-3.35.82-1.67,4.27-3.19,6.05a1.9,1.9,0,0,1-1.35,0c-1.78-1.43-4.92-.14-6-3a3.37,3.37,0,0,1,1.05-2.59c.25-.94,2.95-.38,1.32-2.67s-1.11-5.87-3.88-8.23c-1.28-1.08.33-4.37-.74-6.55A2.68,2.68,0,0,1,170.92,226.51Z"/><path class="cls-22" d="M121,188.47c-1-3.92,2.4-5.05,4.53-6.91A43.51,43.51,0,0,1,130,178.5a2.74,2.74,0,0,1,2.11-.83,23.6,23.6,0,0,1,7.41,2.12,39.43,39.43,0,0,1,8.37,6.15c2.13,2.07,4.16,2.14,6.49,0,3.54-3.21,10.49-3.73,14.23-1.36s5.09,7.66,3.39,12.84a20,20,0,0,0-.74,3.38,27.6,27.6,0,0,0-.91,6.39.92.92,0,0,1-1.39.23c.12-10.6-6-14.6-15.71-14.93-2.67-.08-4.69-1.7-6.26-3.66-3.49-4.36-8.34-6.34-13.38-8-4-1.34-6.7.93-9,3.68C123.41,185.88,122.78,187.7,121,188.47Z"/><path class="cls-23" d="M305,269.66a25,25,0,0,1-13.22-.07c2.32-1.43,4.81-.3,6.71-.62-3.56.18-7.58-.59-11.65-.59-2.62,0-4.09-1.11-3.79-3.93,1.95-3.83,4.7-6.07,9.39-5.4a11.67,11.67,0,0,0,9.18-2.85,9,9,0,0,1,2.28-1.68c3.93,1.41,8.57,1.81,9.91,6.91-3.39,1.87-3.39,1.87-4.72,5.71C307.84,268.14,305.82,267.91,305,269.66Z"/><path class="cls-24" d="M314,95.54c-4.77.41-9.67-.83-14.33.95-6.09,2.31-12.46,4.35-16.16,10.28-1.41,2.25-2.7,2.82-4.64,1.09s-4.1-1.63-6.14-1.19c-12.87,2.81-25.91,1.59-38.89,1.82A144.79,144.79,0,0,1,276,103.56c5,.16,8.87-1.43,13.18-4.32C296.45,94.35,305,92,314,95.54Z"/><path class="cls-25" d="M355.6,160.38a10.78,10.78,0,0,1-5.71,3,117.43,117.43,0,0,1-13.72-4.13c1.37,1.51,3,2.3,1.8,4.11-1.78.16-3.6.63-5.19-.67-1.82-4.86-6.27-7.7-9.1-11.79,2-2.51,4.51-1.21,6.86-.79,1.8.31,3.46,1.12,5.23,1.51,5,.22,9.4,2,13.65,4.41A7.93,7.93,0,0,1,355.6,160.38Z"/><path class="cls-26" d="M273,205.33c.54,4.77-1.44,5.88-5.59,3.84a8,8,0,0,0-4.82-.49c-4.28.61-6.94-2.84-5.66-7.2.53-2.93,3.34-2,5-3,3.63-2.34,6.76-2.47,8.88,2Z"/><path class="cls-27" d="M56.82,183.38c3.39,1.67,7.18-.41,10.75.68-.75,2.44-3.4.48-4.18,2.78L71,186.5c.11,2.08-.55,4.34,3.24,6.67-6.94-.17-9.66,5.76-15.23,5.3.27-2.51,3.2-4.64.89-7.55-.79-1-1-2.58-2.7-2.36-1.42.18-1.65,1.37-1.85,2.56-.42,2.61-1.53,4.06-4.33,2.37-1.5-4.46-1.31-8.23,4-10Z"/><path class="cls-28" d="M111.82,261.26c-7.9,2.61-15.77,4.93-22.95-1.77,2.8-.5.74-3.42,2.27-4.56,3.44-.91,5.4-2.72,4.75-6.7-.21-1.32-.63-3.49,1.94-3.71l5.18,4.89c3.61,7.45,2,10.5-5.93,11.52,2.9-.56,5.81-.91,8.69-1.74C108.09,258.52,110.62,258.21,111.82,261.26Z"/><path class="cls-29" d="M285,258.41c-7.66-6.88-4.93-15.49-3.92-23.79.22-1.84,1.55-1.82,3-1.29,1.74,3.47,2.07,7.33,3,11,1.58,2.72,1.06,6,2.45,8.8.47,2.26-.65,4-2,5.63C286.56,260,285.65,259.67,285,258.41Z"/><path class="cls-30" d="M84,240.47a13,13,0,0,1,3.84-5.21c2.2-1.7,3.94-4.21,3-7.31-1.21-4.21,4.1-6.41,3-10.5a.55.55,0,0,1,.9,0,9.45,9.45,0,0,1-2,6.8c-2.11,2.59-.45,6.05-.76,9.11a36.64,36.64,0,0,1,1.26,10.6c-.2,4.11-.79,8.21-4.89,10.6-2.76.46-3.8-1.37-4.44-3.52-.46-1.56-.45-3.24-1-4.81C82.72,244.19,82.31,242.14,84,240.47Z"/><path class="cls-31" d="M77,98.55l6.12-.08,1.89.25c1.44,1.44,3.3.63,5,.93.74.39,1.48.84,1.65,1.72.4,2.08-3.17,8.35-5.49,9.53-3,1.53-5.43.09-7.72-1.71a10.51,10.51,0,0,1-4.18-8.13C74.15,99.37,74.3,97.44,77,98.55Z"/><path class="cls-32" d="M111.82,261.26c-4.1-3.27-8,.64-12,.53a20.42,20.42,0,0,1-5.09-.64c2.93-1.18,5.88-1.74,8-3.37,3-2.32-.57-5.56.29-8.37a26.84,26.84,0,0,1,10.32,5.19c1.77,1.54,1.89,3.36,1.6,5.31S113.1,261.35,111.82,261.26Z"/><path class="cls-33" d="M346.79,132.59c-4.46.23-5.48-4.75-9-5.94-1.84-.42-3.63-1.4-5.59-.12-.82.53-1.52-.08-1.77-1,.18-2,1.66-4.49-2.11-4.64a12,12,0,0,1-3.53-.56c-1.27-.74-1.78-1.67-.7-3a3.7,3.7,0,0,1,1.32-.49,6.68,6.68,0,0,0,3.26-1c6.4-3.53,6.41-3.5,10.24,2.73C340.26,123.94,341.18,129.59,346.79,132.59Z"/><path class="cls-34" d="M88,254.45c5.57-6.22,3.65-13.89,4.08-21.11,2.21,3.58,1.77,8.53,5.79,11.18a3.89,3.89,0,0,0-.76,4.15c1.67,5.75-1.53,6.84-6.13,6.8C89.59,256.18,88.33,256.61,88,254.45Z"/><path class="cls-35" d="M338.9,118.55c-3.34-5.36-7-4.55-10.94-.67-.69.68-1.47.48-2-.32a3.39,3.39,0,0,1-.59-2.78c1.25-4.07-.06-7.23-3-10a1.81,1.81,0,0,1-.39-2.22c2.32.7,4.47,2,7,2C333.89,108,336.9,112.93,338.9,118.55Z"/><path class="cls-36" d="M266.78,254.53c2.67-2.23,3.28-5.23,3.14-8.5-.09-2,.14-3.56,2.82-3.63,2.86-.07,3.21,1.46,3.23,3.76,0,4.87.21,9.72-5.1,12.36Z"/><path class="cls-37" d="M323.92,151.53a5.72,5.72,0,0,0,1.63,1.05c5.41,1.25,6.55,5.5,7.23,10.1-4-.71-7.91.63-11.87.78v-1c-1.37-1.69-3.14-3.3-.44-5.4,1.7-1.32,1.42-3.58,2.21-5.34A1.07,1.07,0,0,1,323.92,151.53Z"/><path class="cls-38" d="M185,241.48l-3.22,2.22c-2.53-8.07.13-15.27,7.16-16,.88,2.47-1,4.65-.81,7C187.05,237,186.91,239.63,185,241.48Z"/><path class="cls-39" d="M256,227.41c2.31,0,4.63.11,6.94.05,2.05,0,3,.74,3,2.89,0,2-.62,3.41-2.79,3-3.47-.63-6.84,3.15-10.3.14l-.83-2.25a1.67,1.67,0,0,1-.44-2C252.67,227.82,253.94,226.73,256,227.41Z"/><path class="cls-40" d="M94.84,217.43l-.9,0c-.62-1.36-1.21-3.25-2.76-3.25-7.72,0-15.5-3.77-23.15.31-.57-6.31,4.28-3.32,7-4.06,4.66,2.3,9.31,3.25,14,0,2.27.05,4.54.25,6.8.13s2.08,1.51,2.27,2.92C98.41,216,96.74,216.81,94.84,217.43Z"/><path class="cls-41" d="M170.92,226.51l0,1.94c-3.67,1.48-4.35,3.31-1.76,6.81,2.23,3,1.08,5.8-2.52,7.31-1.94.82-2.49,2.5-3.64,3.81l-1.31.14c-.44-6.77,0-13.34,4.19-19.1.76-1.1,2.12-.32,3-.95Z"/><path class="cls-42" d="M179,251.48c1.93-1.59-.48-6.06,4-6-4.24,6.86-2.36,13.43,4.77,17.55a9.37,9.37,0,0,1,4.65,6.08c.54,2.3-.4,3-2.46,3.05.83-2.92-1.45-7.31-3.95-7.61a1.93,1.93,0,0,0-1,.07c-3.86,1.67-4.07,1.54-5-3.18C179.36,258.16,176.27,255.11,179,251.48Z"/><path class="cls-43" d="M69,226.48c2.92,1.52.42,4.2,1.36,6.25,2.13,4.64,6.43,8.18,6.94,13.63l1.62-.78A2.89,2.89,0,0,1,81,247.45c.56,2.28,2.43,4.38,1,7-3.47,1.28-5.07-.85-5.7-3.61a47.38,47.38,0,0,0-6-14.61C68.41,233.1,69.09,229.75,69,226.48Z"/><path class="cls-44" d="M354.89,153.52c-2.65-2.08-5.37-3.9-9.6-1.58.63-2.21,1.59-3.35,2.8-3.24,6.44.62,6.85-3.56,6.84-8.19,2.24-.33,2.64,1.34,3,2.89s.21,3.22,1.52,4.42c.78,1.19,2.31,2.1,1.46,3.89,0,.6-.06,1.19-.08,1.79C358.86,154.25,356.88,155.06,354.89,153.52Z"/><path class="cls-45" d="M354.89,153.52c2,.33,4-1.62,6,0,.59,4.07-2.76,5.15-5.25,6.88-2.84.47-3.41-4.29-6.66-2.89,0-2.27-4.26-1.89-3.07-4.91C349,151.81,351.52,156.75,354.89,153.52Z"/><path class="cls-46" d="M288.9,253.46c-3.5-2.45-1.46-6-1.88-9.11,2.05,1.42,3.3,3.55,4.9,5.39,2.09,2.39,4,5.31,8.07,2.38,2-1.42,3,.86,3.93,2.4a2,2,0,0,1-1,1.91,85.56,85.56,0,0,0-8.9-.68C292,255.78,290,255.52,288.9,253.46Z"/><path class="cls-47" d="M82,254.4c-.66-2.32-1.31-4.65-2-7,1.29-.43,2.76-.13,3.94-1,1.92,2.39-.12,6.72,4,8,.71,1.17,1.9.94,3,1l1.42,4.19c-1.21,1.19-2.32-.69-3.49-.16C86.06,258.5,83.46,257.24,82,254.4Z"/><path class="cls-48" d="M252,229.47c0,.6,0,1.2,0,1.8-4.52,1.61-4.92-2.09-6.12-4.76-.12-5.22-4.23-9-5-14a5.41,5.41,0,0,1,4,4.93,3.31,3.31,0,0,0,2,3.05C249.7,222.86,250.8,226.18,252,229.47Z"/><path class="cls-49" d="M168.94,226.47c-.74,1.18-1.92,1-3,.95-1.6-7,1.34-13.41,3-20h1a3.92,3.92,0,0,1,0,4c-.43,4.32-1.44,8.59-1,13C167.94,225.12,168,225.79,168.94,226.47Z"/><path class="cls-50" d="M43.05,220.43c1.32.64,2.2,2.11,3.87,2.09,1.57,1.42,1.47,3.32,1.5,5.19-.62,4.2,1.2,8.66-1.38,12.64a10.21,10.21,0,0,1-3-7.61A73.46,73.46,0,0,0,43.05,220.43Z"/><path class="cls-51" d="M308.88,266.45c1.24-1.88-.91-2.77-1.27-4.32l6.22-.7c2.1,1.11,2.81,3,1.9,5-1.3,2.82-4.24,2.62-6.82,2.88A5.55,5.55,0,0,1,308.88,266.45Z"/><path class="cls-52" d="M338,163.35c.13-2.9-3.34-2.25-4.47-4.56a11.51,11.51,0,0,1,6.8.42c2.9,1.06,5.59,2.82,9,2.4,1.3-.17.84,1,.63,1.76C345.92,164.15,342,163.48,338,163.35Z"/><path class="cls-53" d="M284.22,263.47c-.66,2.62,0,3.89,3.07,4a61,61,0,0,1,11.59,1.72l-7.08.41c-3.33-.15-6.7.05-9.88-1.28-1.22-2-3.68-4,0-5.94A2.51,2.51,0,0,1,284.22,263.47Z"/><path class="cls-54" d="M47,240.35v-12.9c1.92-.07,2.11,1.53,2,2.67-.23,4.06,1.94,7.11,3.88,10.29-.18,1.69.63,3.57-.91,5C49.8,244.29,48.73,242,47,240.35Z"/><path class="cls-55" d="M360.93,151.71l-2.09-3.15c-2.66-2.73-.81-4.84,1-7C365.62,144.37,366,147.87,360.93,151.71Z"/><path class="cls-56" d="M359.79,141.59c-.2,2.34-2.34,4.42-1,7-2.12-.29-2-1.89-1.93-3.39,0-1.85.12-3.71-2-4.66.31-1-3.07-1.89-.07-2.95C356.63,138.74,358.86,139.37,359.79,141.59Z"/><path class="cls-11" d="M191.89,106.74c-3.31-.13-6.68,5.66-9.92-.12Z"/><path class="cls-53" d="M308.88,266.45a2.34,2.34,0,0,1,0,2.86l-3.88.35c-.28-.4-2.14-.32-.65-1.2S306.77,265.7,308.88,266.45Z"/><path class="cls-24" d="M231.93,108.57a14.21,14.21,0,0,1-10.92.17Z"/><path class="cls-57" d="M109,152.54l-1.95,0c-.48-1,.1-1.78.56-2.57,1.1-1.26,1.55-2.86.49-4.1-3.78-4.4-2.06-9-.41-13.38,1.34-3.51-.09-4.52-3-5a4.34,4.34,0,0,1-1.26-.75c-2.4-4.44,1.3-5.28,4-6,7.17-1.88,14.62-2.19,22-3.1,4.33-.53,8.58,2.75,9.61,6.92.16.64.16,1.32.34,2q2.84,10.32-7.39,7.87c-1.54-.37-2.07-1-3.58,1.36-2,3.2-4.38,6.49-6.7,9.66-3.46,1.38-2.8-2.2-4.35-3.69a24.9,24.9,0,0,0-1.63,11.1c.35,4.22,9.1,7,12.76,4.5,1.82.59,1.83,2.66,3.09,3.73s2.84,2.16,1.36,4.07c-1.31,1.7-3.18,1.69-5,.95-5.06-2.07-10.1-4.21-14.11-8.11C111.55,156.62,110.39,154.46,109,152.54Z"/><path class="cls-58" d="M104,126.53h1c2,3.12.37,4.94-2.4,6.07-2.36,1-2.53,2.18-1,4,1.35,1.66,1.52,4.06,3.18,5.5,3.75,3.25.5,3.59-1.76,4.38-3.41,1.63-5.52.1-5.86-3.18a4.73,4.73,0,0,0-4.31-4.64c-3.94-.71-7-4.81-12-1.92-3,1.68-9.67-3.95-10.43-7.47a4.23,4.23,0,0,1,1-3.62c2.46-3.58,2.15-12.16-.45-15.63-.18-.25-.56-.35-.84-.52-.26-4-4.89-6.25-4.17-11.12.29-2-4.77-.55-7-3.63,5,.8,9.32.46,13.19,2.76a20.29,20.29,0,0,0,3.87,10.62,8.58,8.58,0,0,1,1.68,7.95c-1,3.62,1,4.39,3.77,3.16,3.53-1.61,7.2-1,10.8-1.35a7.17,7.17,0,0,1,7.33,4.19A9.65,9.65,0,0,0,104,126.53Z"/><path class="cls-59" d="M103,146.53c1.36-1.12,4.37-1.48.32-3.82-2.39-1.38-2.52-5.59-4.89-8.1-1.36-1.45,1.34-2.77,2.86-2.89,3.5-.29,3.9-2.43,3.71-5.18,5.19.45,5.94,1.74,4,6.08-1.8,4-3.37,8.06.34,12.28,1.25,1.43,2,4.44-1.34,5.64a19,19,0,0,0-3-4Z"/><path class="cls-60" d="M109,152.54c2.6.15,2.73,3.41,5,4a26.2,26.2,0,0,0,9.21,8.64,16.82,16.82,0,0,1,6.49,6.5c-.32,2.63,3.34,3.93,2.3,6.81l-2,0c-3.94-.54-5.27-3.35-7.5-6.39-3.9-5.3-7.74-11.42-14.6-14-.43-.16-.59-1.06-.88-1.62C109.64,156.18,108.8,154.11,109,152.54Z"/><path class="cls-58" d="M105,146.53c2.19.45,4.18,1.05,3,4-.32.65-.64,1.3-1,2C104.5,151.13,105.58,148.54,105,146.53Z"/><path class="cls-1" d="M112.43,169.44c-1.42-.81-4-.21-4.2-2.5a2.72,2.72,0,0,1,3.07-3c1.86.29,4,1.26,4.19,3.51C115.59,168.92,113.73,169,112.43,169.44Z"/><path class="cls-61" d="M53,240.41c-3.48-2.12-5.67-4.9-5-9.3.18-1.25.29-2.67-.91-3.66l-.12-4.93c1.09-2.35-2.32-7.17,3.29-6.93,5.07.21,2,4.53,2.71,6.92.36,1.21-.05,2.63.13,3.92.28,2.09,1.31,2.53,2.94,1,1.67.15,3.78-.57,3.94,2.3.13,2.3-1.22,2.58-3,2.77C51.48,233.06,53.34,237.31,53,240.41Z"/><path class="cls-62" d="M51,193.49c1.78-.26,4.51.58,2.75-3.12-.73-1.54,1.33-2.39,2.38-3.29s2.06-.46,3.14.23c2.23,1.43,1.48,4.17,2.9,6,2.49,3.27-1.86,2.77-2.67,4.28-.15.29-.34.56-.51.84H57.53C53.07,198.51,53.07,198.51,51,193.49Z"/><path class="cls-63" d="M252,229.47c-3.5-2-3.44-5.95-5-9,2,0,4.52.18,3.91-2.8-1.18-5.79,3.18-7,6.63-6.79,3.75.28,3.12,4.61,3.44,7.59-.72-.89-1.44-1.79-2.18-2.66a1.5,1.5,0,0,0-2.52-.11c-.91.89-1,1.9,0,2.49,5.87,3.31,2.26,6.23-.28,9.23Z"/><path class="cls-64" d="M284.22,263.47c-.88-.12-1.81-.13-2.29-1.09a10.54,10.54,0,0,0,3-4c3.13-.22,3-3,3.94-5,2.87,1.57,6,.85,9,.95,1.94.06,4-.23,5,2a9.53,9.53,0,0,1-8,3.92C290.93,260.23,287,259.84,284.22,263.47Z"/><path class="cls-65" d="M241.94,186.49v-1c1.9-.41,4.1.09,3.42-3.55-.74-4,1.24-5.46,5.54-5.35,1,0,2.34,1.11,2.86-.72,1.72-6,5.69-4,9.48-2.73a6.77,6.77,0,0,1,3.68,2.34v1h0c-2.12,1.49-5.17.8-7,3h0c-2.33,2.89-5.58,3.87-9.48,4.47.68,2.34,3.11,4.66.92,7.15a3.08,3.08,0,0,1-4.44.37Z"/><path class="cls-48" d="M262,198.51l-5,3c-2.37.28-3,2.89-5,3.73-1.25.52-2.17,1.27-3.58.46-3.1-1.78-5.57,2.48-8.92,1-.76-.33-1.59,2.18-1.45,3.75-1.69-.09-3-.79-2.85-2.64a3.45,3.45,0,0,1,2.72-3.18c3.27-.62,6.32-2.34,9.83-1.8,2.43.37,5.07.41,6.53-2,1.69-2.79,4-2.87,6.73-2.36Z"/><path class="cls-9" d="M246.93,191.49c5.26-.55,5.26-.55,1.57-8.66a21.39,21.39,0,0,0,11.43-3.33,3.14,3.14,0,0,1-2.15,3c-2.52,1-4.17,2.2-3,5.52.84,2.43-1.6,3.27-3.35,4.2S248,194,246.93,191.49Z"/><path class="cls-9" d="M259.94,179.49c1.3-3.38,4.32-2.78,7-3C265.43,179.44,262.19,178.32,259.94,179.49Z"/><path class="cls-59" d="M104,126.53c-2.84.35-4.48-.6-5.49-3.58s-3.68-4.26-7.14-3.72c-3.82.59-7.67,0-11.45,2-2.71,1.46-5.37-1.52-4-4.32,1.75-3.48.33-5.85-1.46-8.63-2-3.19-5.09-6.36-2.5-10.71,1.68.25,3.59-.61,5,1-1.07.16-2,.55-1.83,1.83.64,4.08,2.31,7.49,6.27,9.39a4.91,4.91,0,0,0,3.32.66c2.49-.6,6.05-8,5.21-10.78,4.51-.42,8.7,3,13.41,1,1.06-.43,2.29.71,2.82,1.72,2.86,5.49,8.09,6.11,13.25,6,6.11-.09,11.69,2.14,17.54,3.1a43,43,0,0,0,12.15-2c4.09-1.27,7.64,1.2,11.44,1.91,2.64.49,5,1.53,7.35-.75a3.11,3.11,0,0,1,3.71-.72c8.42,4.78,16.72.65,25-.59a76.08,76.08,0,0,1,9.37-.79c0,2.62-2.42,2.25-3.9,3-1.3.61-3.37.59-3.07,2.59s2.25,2.07,4,1.91a4.68,4.68,0,0,1,2.93.25c2.39,5,.59,7.58-6.16,8.68-1.69-.53-1.86-2.21-2.6-3.45-3.92-6.57-8.44-7-15.59-4.89-5.42,1.64-7.46,4.66-8.8,9.27a3.27,3.27,0,0,1-1.33,2.06c-5.18,2.64-4.66,6.24-2.42,10.72a6.1,6.1,0,0,1-1.88,8c-2.67,1-4-.85-5.34-2.54a26.18,26.18,0,0,0-4.5-4.61c-8.24-6.64-8.22-6.66-17.62-1.63,1.85-.27,3.44-1.4,5.33-1.3,2.87.16,5.28,2.72,4.81,5.24-.59,3.09-2.9,2.7-5.09,2.32a34.72,34.72,0,0,1-5.88-1.13c-3.72-1.31-4.5,3.67-7.66,3.35,0,.85.79.43,1.17.69.75.52,1.47,1.4.8,2-2,1.81-.32,1.6.84,2.43,3.06,2.17.83,3.87-1,5.46-2.4,1-4.27-.42-6.25-1.36-3.27-2.61-2.58-7.47-5.77-10.12,1.1-4.51,2.88-8.55,7.39-10.75.18-1.81-2.13-.58-2.37-2a10.66,10.66,0,0,1,5.77.21,8.68,8.68,0,0,0,5.84.13c.91-.32,2.5-1.17,2-1.78-2.07-2.82-1-6.83-3-9.13s-4.87-4.79-9.16-3.15c-2.74,1-6,.8-9.12.85-4.13.08-8.37,1.68-12.58,2.56C104.2,122.8,102.31,124.19,104,126.53Z"/><path class="cls-66" d="M225.93,111.56c7.39-.52,14.47-3.35,22.32-.53,3.43,1.24,8.39-.51,12.68-.47,1.24,3.63-.6,6.94-1.46,10.23-.55,2.13-2.77,1.95-4.17,0-.82-1.15-.42-3-2.54-3.82-.87,6.23-5.51,6.81-10.47,6.88a14.73,14.73,0,0,1-1.49.06c-1.93-.15-4.08,2.35-5.53.55s1.43-2.89,2.1-4.45c1.16-2.69-.59-4-2.6-5-2.18-1.1-4.8-1.84-6,1-2.41,5.83-5.87,11.42-4.34,18.3.43,1.89.79,3.57,2.4,4.62,2.51,1.64,3.8,4.07,4.82,6.74.55,1.35.64,2.9,1.74,4a10.59,10.59,0,0,1,3,8.53c-.13,1.77.26,3.19,1.94,4.15,3.57,2,2,3.79-.4,5.45a5.5,5.5,0,0,1-1.4.57,5.66,5.66,0,0,1-3.8-.36,3.9,3.9,0,0,1-1.49-1.7c-.8-2.17.27-4.27.25-6.4,0-2.52,1.09-5.42-1.89-7.19a19.15,19.15,0,0,1-2.41-1.67c-3.51-4.35-8.65-4.09-13.46-4.74a3.18,3.18,0,0,1-1.58-1.61c-1.1-3.5.32-7-.07-10.53,2.18-5,5.22-9.69,6.59-15.18A10.34,10.34,0,0,1,225.93,111.56Z"/><path class="cls-67" d="M241.92,122.56a16.46,16.46,0,0,0,5.85-.76c1.53-.55,3.23-.21,2.58-3a3.24,3.24,0,0,1,2.79-4c2.41-.11,2.47,2.19,2.77,4,.19,1.09-.11,2.5,1.62,2.53a1.38,1.38,0,0,0,1.4-1.67c-1.26-3.5,1.61-6,2-9.08a4.56,4.56,0,0,1,6,0c-4.68,3.43-5.08,6.48-1.58,11.93,3.36.29,3.38.25,3.22-5.19.19-2.28-2.67-4.25-.67-6.71,2.66.87,4.86,2.44,8.16.37,2.46-1.53,5.5,2.71,8.84,1.59l.69.28c2.37,2.89,1.36,5.06-1.58,6.61a10.79,10.79,0,0,0-3.63,3.1c-.53.44-1.28.85-1.82.53-4.59-2.75-6.11,0-7,3.85a2.31,2.31,0,0,1-1.78,1.12c-2.92-.52-5.87.64-8.78-.13-1.35-3.55-3.69-4-6.94-2.44a20.67,20.67,0,0,1-6,2.16c-2.51.33-3.71,1.64-4,4.14-.16,1.29-.08,3.22-2.43,2.78C238.12,130.45,238.54,126.47,241.92,122.56Z"/><path class="cls-68" d="M200,124.55c3.3-1.69,7.18-2.94,6-8,2.43-1.58,4.73-3.72,8-2,1.28.72,3,1,3,3,.61,3.09-.42,6-1.75,8.54-2.38,4.63-3.18,9.64-4.34,14.59-.64,2.75,1.13,4.72,1.88,7,1.34,4.12.9,4.68-3.77,4.26-2.86-4.75-3.91-9.63-2.13-15.18a27,27,0,0,0,1.3-11.44c-3.91,1.35-4,7.33-8.92,6.5-1.38-1.14-1.13-2.51-.59-3.93A10.08,10.08,0,0,0,200,124.55Z"/><path class="cls-59" d="M208.94,151.52c2.84.13,5-.05,2.33-3.6-3.87-5.16-.92-10.6.12-15.65s3.64-9.83,5.55-14.72c2.78-2.33,4.34-6.47,9-6a20.16,20.16,0,0,0-7.61,12.68,18.29,18.29,0,0,1-5.38,9.3c-.19,3.66-1.08,7.32,0,11l1,1c3.81,4.07,9.21,3.68,14,5l2,1c.66,1.23,0,2.16-.7,3.07-2.36.25-2.86,3.3-5.25,3.51a2.71,2.71,0,0,1-1.27-.4,6.85,6.85,0,0,1-1.05-1.66c-1.36-2.23-3.47-.76-5.22-1a72.35,72.35,0,0,0-7.54-1.77C208.32,152.66,206.87,152.05,208.94,151.52Z"/><path class="cls-69" d="M321.91,102.56c.26.41.42,1,.79,1.21,5.25,3.64,5.3,8.46,3.21,13.79h-1a7.65,7.65,0,0,1-2.62-4.16c.66-6.73.3-7-8.6-7.17-4.61-3.4-9.18-3.08-14.17,1-1.8,1.65-3.76,2.8-6.33,2a4.89,4.89,0,0,1-1.42-.81c-2.8-2-2.36-3.56.57-5,6.2-3,12.85-3.73,19.57-4.29,3.3-.28,6.08,1.24,9,2.37Z"/><path class="cls-66" d="M213.94,114.55c-2.93-.4-4.93,2.92-8,2-1.11.3-2.2.69-3.32.88-2.58.44-4.78-.31-5.45-3-.75-3,1.67-3.41,3.83-3.91,1.74-.4,3.56-.63,4.94-2a44.16,44.16,0,0,1,6.73.49c1.42.3,3.52.25,3.87,2.32C216.86,113.24,214.56,113.28,213.94,114.55Z"/><path class="cls-67" d="M320.89,101.56c-10.44-2.35-20.39-.76-30.15,3.93-.27,1.56,2.81,1.17,2.17,3.06-2,2.69-4.76,3.77-8,4l0,0c.94-5.93,3.74-10.15,10.16-11,1.46-.19,2.26-1.65,3.36-1.88,5.31-1.09,10.69-2.35,16.06-2.45C316.6,97.19,318.76,100,320.89,101.56Z"/><path class="cls-70" d="M264.9,123.56c-4.07-2.77-3.12-7-2.74-10.77.27-2.66,2.85-2.16,4.78-2.24l1,0c-.57,2.68,2.63,4.29,2,7-3.17-1-4.81-.33-4,3.42A2.51,2.51,0,0,1,264.9,123.56Z"/><path class="cls-71" d="M266.92,175.48a50.62,50.62,0,0,1-5.17-1.58c-3.78-1.57-6.77-2-6.87,3.55,0,1.53-.83,2.14-2.24,1.17-1.77-1.22-3.67-1.88-5.4-.29s-1.34,3.54-.21,5.41c.64,1,1.12,2.29-.15,3.06-2,1.18-3.28-.88-4.94-1.31-1-.65-.82-1.53-.78-2.57.11-2.92-1.2-3.91-3.86-2.31-1.52.92-3,1.42-4.36-.12-1.2-3-4.47-1.23-6.33-2.72-1.31-1.31-1.17-2.54.2-3.7,4.47-.49,8.53-1.61,10.12-6.56l0,0c5.55-1.35,8.48,4,13.06,5.1,1.11,1,2.19,1.81,2.81-.44a4.42,4.42,0,0,0,1.44-5.05,2.15,2.15,0,0,1,.76-1.81,2.43,2.43,0,0,1,1.86.53c1.25,1,2.49,1.73,3.93.31a3.47,3.47,0,0,0,.6-4.53,11.33,11.33,0,0,1-1.53-7.63c.2-1.23.22-2.81,2.23-2.55,1.78,2.25,2.56,5,3.85,7.52,2.61,5.09,5.09,6,10.37,3.74a1.88,1.88,0,0,1,1.86-.12c1.23,2.69-.16,4.43-2.53,4.74-3.35.44-4.75,2.46-5.73,5.2C268,172.54,267.66,174.23,266.92,175.48Z"/><path class="cls-25" d="M269.93,172.5c-1-4.06.19-6.31,4.8-6.05,2.64.15,3.28-1.69,3.19-3.94a13.58,13.58,0,0,1,3.12-5.4c1.72-.65,3.28.15,4.89.53,5.8,1,5.85,1,5.77-4.58,0-2.2.88-3.79,3-3.79,5.28,0,10.79-1.17,15.35,3.17,2.52,2.4,5.59,2.72,8.35-.08a5.5,5.5,0,0,1,4.07-1.11l.54.48c1.65,3.85-1.14,5.92-3.49,7.91.95,1.64,3.26-.2,3.48,1.94,0,.23-1.34.61-2.07.92a42.62,42.62,0,0,1-10.55-1.65c-6.47-1.68-13.45-2.31-19.61,1.85-1.26.84-2.19-.08-3.28-.12-2.5-.09-5.21-.57-5.59,3.13a1.71,1.71,0,0,1-1.5,1.73C276.15,167.64,273.57,171.14,269.93,172.5Z"/><path class="cls-72" d="M170,211.46l0-4,0-7c2.42-4.65,5-9.12,2.14-14.73-1-1.89-.56-4.74,2.87-5,2.74.31,5.54.09,7.69,2.59,1.38,1.6,2.78,1,3.84-1,3-5.54,12.15-8.37,18-5.77,2.13,1,1.77,2.1.34,3.31a6.83,6.83,0,0,1-3.63,1.4c1.86.92,3.17,2,1.35,4.08a2.91,2.91,0,0,1-3.25,0c-2.3-1.2-3.58-.85-5,1.62-1.93,3.29,2.15,2,2.25,3.6,0,.27.3.56.37.88-.34,1.83-7.62-.23-2.64,4.94.82.86-2.86,2.1-4.35,3.29s-1.79-.49-2.19-1.55a3.7,3.7,0,0,0-.93-1.74c-2.45-1.77-3.17-3.22,2.08-3.82-8.72-2.18-10.38-.88-9.87,6.27.1,1.3.77,2.56-.64,3.6s-2-.45-2.91-1c-3.72-2-3.64,1.45-4.36,3.28C170.29,206.91,171.88,209.49,170,211.46Z"/><path class="cls-73" d="M196.92,191.5c-.43-.22-.87-.45-1.31-.66-1.48-.74-4.86-.7-3.18-3.12,1.2-1.72,1.27-8,6.48-3.79a13.63,13.63,0,0,0,3.12,1.41,4.24,4.24,0,0,1,3.71-.5c4.65,1,6.23,6.09,10.42,7.69-.4,2.78-3.19.49-4.2,2h0C206.72,194.66,202,192,196.92,191.5Z"/><path class="cls-74" d="M78,227.45c-2-2.55-1.31-5.52-.65-8.09A4.85,4.85,0,0,1,83,215.55c3.8.73,5.07,3.93,5.89,7.18C90.2,227.8,86.63,231,84,234.45c-2.42-2.86,0-5.83.08-8.82C81.72,225.79,80.79,229.72,78,227.45Z"/><path class="cls-75" d="M78,227.45c2.46.6,2.73-1.79,4-2.85,1-.84,2.31-1.6,3.61-.7,1.65,1.15-.37,1.86-.52,2.81-.39,2.58-1.5,5-1.09,7.74,0,.31-.07.62-.08.93-1.75,1.6-3.59,2.69-5.91,1Z"/><path class="cls-76" d="M78,236.42l5.91-1c0,1.7.08,3.4.11,5.09,0,2,0,4,0,5.94-.11,5-2.37,1.68-3.94,1l-1.18-1.85A27.73,27.73,0,0,1,78,236.42Z"/><path class="cls-10" d="M178,208.47c2.21.18,4.68-.7,6.09,2.14s-2.84,4.44-1.52,7.21c-.44.15-.93.47-1.32.37s-.91-.73-.84-.94c1.23-3.51-1.86-5.8-2.4-8.79Z"/><path class="cls-77" d="M163,246.38c.11-2.13-1-4.68,2.87-5,3.34-.29,4.22-3.57,2-6.41-1.14-1.44-3.77-2.12-2.61-4.71s3.67-1.58,5.7-1.78c.65,1.65,3.21,2.9,1,5.14-.79.79-.44,1.61.62,1.74,3.05.38,2.25,2.69,2.44,4.55.1,1,0,2.14.55,2.84,2,2.76,2.11,2.7-1.66,3.8-3.32,1.58-6.63,2.12-9.92-.08Z"/><path class="cls-21" d="M179,251.48c-1.53,3.51,3,6.42,1,10-6.21,2.76-7.65,2.27-9-3,1-3.22-.8-4.92-3.32-6.26a3.18,3.18,0,0,1,1.59-3.2,74.85,74.85,0,0,1,9.68,2.42Z"/><path class="cls-78" d="M168,252.44c2-.1,4.24-.21,5.19,1.95.85,1.92-1.89,2.43-2.19,4a13.76,13.76,0,0,1-3.55,1.62c-1.89.28-4.54,1.63-5.27-1.47-.66-2.81,0-5.34,3.8-5.17A2.22,2.22,0,0,1,168,252.44Z"/><path class="cls-79" d="M168,252.44a2,2,0,0,1-2,1c-1.06-2.21-3.95-3.89-2-7l9.92.08c-.3.63-.61,1.26-.92,1.89-1.06,1.33-2.44.35-3.66.49-.66.08.16-.22-.46,0s-.41.49.09.61Z"/><path class="cls-80" d="M345.87,152.58c.1,2.21,4.51,1.73,3.07,4.91-4-2.29-7.58-6.15-13-4-1.8-1.86-2.53-4-1.06-6.3,1.94-3.09.81-6.41,1.51-10.1-3.65.93-6.65,1.86-9.79,1.65-3-3.72-5.68-7.57-5.8-12.61a8.2,8.2,0,0,1,.29-1.46c.73-2.09,1.35-4.28,3.79-5.1l4,0c-1.95,2.72-2.57,5.21,1.22,6.92a1.57,1.57,0,0,1-.83,1.66c-.87,1.77,1.46,1.33,1.65,2.36l3.9,1.1c1.77,1.31,5.38,1.1,4.07,4.94,0,2.94,0,5.89,0,8.83C338.92,151.8,339.41,152.3,345.87,152.58Z"/><path class="cls-81" d="M328.8,127.51l1-1c0-.81.21-1.24,1.1-.87,2.45-.75,5.18-3.34,6.89,1,.51,7.69-4.47,2.06-6.83,2.81C329.79,129.3,328.49,129.29,328.8,127.51Z"/><path class="cls-33" d="M338.93,136.54c.14-2.87-3.22-2.88-4.07-4.94C338.32,131.52,341.39,131.75,338.93,136.54Z"/><path class="cls-33" d="M328.8,127.51l2.15,2c0,.34,0,.69,0,1l-5.61-1.37C325.87,126.78,327.63,127.82,328.8,127.51Z"/><path class="cls-82" d="M205.94,185.47l-3.91-.13c2.11-5.13-3.94-1.27-4.05-4.59.64-.81,2.41.15,3.49-.59s3.08-.2,3.8-2.63c-3.94,0-7.74-.46-11.36.14-2.84.48-6,1.36-6.2,5.67-.12,3.14-3,4.08-4.86,2-2.3-2.56-5.13-2.92-7.9-3.89,1.81-2.19,4.12-3.22,6.85-2.26,2.16.75,3.37-.09,4.43-1.74,8.43-4.27,12.65-12.19,17.2-19.83a2.77,2.77,0,0,1,3.29-1.58c5.75,2.57,12.05,1.89,18,3.15,1.82.38,4.46-.25,4.4,2.75s-2,4.81-4.84,4.58c-4.25-.34-8.58,1.41-12.74-.55-1.62-.76-2.15-.39-2,1.55.07.73-1.57,1-2.54,1.17a5.23,5.23,0,0,0-4.36,3.32c3.41-.93,6.45-.67,9.47-1.49.19-1-1-1.13-1.08-1.88a1.65,1.65,0,0,1,2.52-1.79c2.68,1.53,6.3-2.63,8.37,1.53-3.83,6,2.79,6.33,5,9.07a17.84,17.84,0,0,1,3.89-.33c1.81.24,3.72.76,2.11,3.32-2,.42-4.76-.38-5,3,.24,1.91-1.19,1.77-2.25,1.61C219.08,184.14,212.53,185.52,205.94,185.47Z"/><path class="cls-83" d="M205.94,185.47c-.95-2.33.75-2,2-1.95,2.9.2,6.2,1.5,8.6.53,4-1.6,7.6-.47,11.37-.56a7,7,0,0,1,6.33,3.18c-3.46,2.51-6.91,3-10.66.8s-6.81-.15-9.62,2.79c.25,1.16,2.39.84,3,2.21a.71.71,0,0,1-1.05,0C211.32,192,209.48,187.51,205.94,185.47Z"/><path class="cls-10" d="M215.91,192.51l1.05,0c1.34.35,2.64,1.05.44,1.82-1.64.57-3.62.17-5.44.21C212.79,192.87,215.06,194.1,215.91,192.51Z"/><path class="cls-78" d="M168.92,249.48l-1.87-.19-.08-.88h6c1.28,2.4,5.35-.78,6,3C175.3,252.19,172.21,250.3,168.92,249.48Z"/><path class="cls-84" d="M187,178.49c-1.15,2-2.5,3.71-5,2-2.7-1.86-4.57,1.15-7,1.05-3.27.87-2.54,4.1-1.58,5.11,3.23,3.41,1.59,6-.25,9.07-1,1.66-1.16,3.8-3.16,4.8.33-3.93,3.17-7.5.66-11.87-2.72-4.76-11.48-6.06-15-1.81-2.27,2.78-5,4.06-7.91.88-2.58-2.86-5.95-4.67-8.78-7.18,2.15-1.91,4.31-.88,6.47,0,4.65,1.85,4.66,1.85,5-2.91a3.82,3.82,0,0,1,1.64-2.92c6.72-.87,13.31-3,20.21-1.91,1.07,1.81.3,3.41-.56,5.18,2.54-3.27,5.73-1.69,8.76-1.38C182.6,177.4,185.16,176.7,187,178.49Z"/><path class="cls-85" d="M152,175.5c-.26.88-1.26,1.81-.29,2.67,1.66,1.47,1.36,2.76-.06,4.11s-3.23,1.69-4.86.38A10.32,10.32,0,0,0,139,180.5l-7-2c-1.26-2.21-4.21-3.68-3-7,2.67-1.12,3.2,4.34,5.43,2.19,1.46-1.4-1.41-3.67-1.35-5.85.1-3.49,2.66-5,5-6.79,3.33-.15,3.53,1.54,2.55,4.14-1.48,3.92-.67,5,3.54,4.61,2.16-.2,4.32-.72,6.36.32C152.9,171.35,154.43,172.91,152,175.5Z"/><path class="cls-86" d="M326.86,138.5c2.55-2.33,6.48-.77,9.06-3.24.61-.6,1.9.46,1.69,1.11-1,3.23,1.26,6.83-.89,9.77a6.83,6.83,0,0,0-.76,7.32c-3.91-1.3-7.55-4.26-12-1.93a3.29,3.29,0,0,0-.93.2l-.12-.31C321.64,146.32,324.11,142.37,326.86,138.5Z"/><path class="cls-87" d="M330.89,125.64l-1.1.87c-2.42.14-4.28-.82-4.69-3.26-.48-2.78,2.77-2.2,3.82-3.69C334,120.15,333.11,122.68,330.89,125.64Z"/><path class="cls-88" d="M324.9,119.54c-1,1.68-2,3.35-3,5-2.86-3.58-2.37-8.93,1-11a5.56,5.56,0,0,1,2,4Q323.39,118.55,324.9,119.54Z"/><path class="cls-89" d="M138,161.53c-3,3.44-6,6.79-1.5,11.31,1,1,.27,2.1-.93,2.84a2.88,2.88,0,0,1-4-.72c-.93-1.07-.87-2.91-2.57-3.45-4.07-5-11.09-6.64-14.15-12.72a21.33,21.33,0,0,1-.84-2.28c3.89,4,9,5.9,13.84,8.27,1.64.81,3.43,1.29,4.37-.41,1.18-2.16-1.29-1.58-2.19-2.12-1.87-1.1-.19-3.66-2-4.73-1.33-.67-2-1.54-1-3,2,.84,3.69,2.26,6,2,4.52-.07,4.83.29,3.92,4.22C136.79,161.16,137.71,161.09,138,161.53Z"/><path class="cls-90" d="M127,154.52l1,3c-.56,3.34-2.12,4-5.23,2.47-2.89-1.4-5.24-3.48-7.84-5.22-1.73-1.16-.12-13.84,1.86-14.81,1.17-.58,2.8-1.06,2.35,1.44-.33,1.79,0,3.31,1.88,4.11,2.92.49,4,2.73,4.26,5.18A5.39,5.39,0,0,0,127,154.52Z"/><path class="cls-91" d="M138,161.53h-3.2c4.59-4,.2-4-1.79-5,4.56-6.45-3.87-3-4.3-5.59.4-2.15,3.25-.53,3.78-2.47-.91-1.18-1.83,0-2.72-.1-1.28-.07-1.7-.82-1.67-2s.9-2.1,1.89-1.62c2.22,1.08,2.61.35,3.53-1.74.69-1.57,3.37-1.81,5.46-1.34,1.92.43,3.88.77,5.78,1.27,1.29.35,2.64,1,3.7-.15a2.5,2.5,0,0,0-.1-3.22,3.85,3.85,0,0,0-4.24-1.91c-1.92.44-3.48,2-5.61,1.82-.78-.06-1.78.12-2-1a1.55,1.55,0,0,1,1.35-1.78,17,17,0,0,0,8.13-4.46c1.34-1.36,2.81.12,4,.87,4.93,3.11,10.3,5.68,13.36,11.11a4.11,4.11,0,0,0,3.66,2.25l.4.57c.29,2-1.14,2.83-3,3.38,6.29,5.28,12.68,8.54,20.74,5.86a1.77,1.77,0,0,1,2.22.49c.26,2.51-1.94,4.33-1.79,7,.09,1.74-1.89,2.62-3.72,2.53-2.77-.13-5.17.94-8.69,2.39,3.08.6,5.25.29,7.33.6,1.59.25,4-.16,3.43,2.81-3.73,2.6-7.62,3.84-11.92,1.38-2.92-2.55-4.92,1.22-7.64,1.11-4.1-.16-8.23.54-12.35.88,1.26-4.22-1.66-4.75-4.58-4.91-1.43-.08-2.88.6-4.34.86-2.53.44-4.12-1.1-5.36-2.91s.78-2.42,1.68-3.46C141.06,163.12,140.74,161.79,138,161.53Z"/><path class="cls-66" d="M200,124.55a2.64,2.64,0,0,1,0,3c-2.47,5-6.61,9-7.61,14.87-.65,3.87-3,7.38-5.65,10.4-3.44,3.84-8.05,4-11.76.4a48.08,48.08,0,0,0-8-6.69h0c1.74-3.9,2.33-7.46-1.15-11.08-1.46-1.52-.25-5.38,1-5.72,5.87-1.63,5-7.61,7.81-11.15,1.52-1.92,2.12-3.57,4.82-2.38a2.34,2.34,0,0,0,1.85-.14c7.45-4.59,15-1.68,17.73,6.84A8.65,8.65,0,0,0,200,124.55Z"/><path class="cls-58" d="M99.86,109.93c-.18,1.48-.87,2.38-2.21,2.45A2.34,2.34,0,0,1,95.07,110c-.12-1.29.25-2.44,1.88-2.16C98.26,108,99.48,108.57,99.86,109.93Z"/><path class="cls-92" d="M241.92,122.56c-1.42,4-1.89,8,0,12,.13,2.63.05,5.2-3.41,7.48,3.55.08,4.35-1.8,5.67-2.77,2.24-1.62,4.16-1.88,5.61.95.4,6.05,1,12,4.1,17.47a6.55,6.55,0,0,1,.44,4.33,1.43,1.43,0,0,1-1,.95c-.46,1-2.5-2.38-2.26.84.11,1.4.06,2.88-1.21,3.93-3.33-1.31-2.1-4.48-2.61-6.82-1.3-5.95-1.2-5.64-7.3-6.6-4.72-.74-7.49-4.31-9-8.76a26.94,26.94,0,0,0-6.31-7c-3.47-2.75-1.15-7-1.64-10.52-.64-4.63,3.85-8.35,4.53-13.14.26-1.83,2.48-2.78,4.44-2.27,3,.77,6,1.38,7.25,5.09.79,2.43-.21,3.34-2,4.24a3.5,3.5,0,0,0-1.82,1.76C237.76,123.53,239.63,122,241.92,122.56Z"/><path class="cls-93" d="M226.94,177.5c-2.53.32-4.39-1.54-6.18-2.61-3.23-1.92-2.14-4.68.9-6.77-3.7-1.67-6.83,1.32-10.21-1.15.63,3.09,2.84,2.05,4,3.24-3.9,3.7-9.51,1-13.58,3.85-.65.45-2.07-.81-1.08-2.33,1.93-3,4.34-5.06,8.45-4.27-1-1.55-3-.41-3.53-2.82,2.09,0,4.57-.75,6.05.14,4.23,2.56,8.43.21,12.59.69,2.55.29,3.82-1.33,3.77-3.58-.06-2.5-2.25-1.17-3.44-1.33-5.72-.79-11.47-1.38-17.2-2.11-1.36-.18-.63-1.21-.52-1.93a4,4,0,0,1,3-1.25c4.34.74,8.74,1.2,13,2.24h1c3.09,1.37,3.57-1.6,5-3l1-3c5.53,1.85,2.31,6.36,2.8,9.67.24,1.69-.51,3.53-.81,5.3-2.08.36-1.64,2.68-2.87,3.7a7.13,7.13,0,0,1-5.13,2.21c1.12,1,2.42,1,3,2.11A2.62,2.62,0,0,0,226.94,177.5Z"/><path class="cls-94" d="M230.94,145.53c1.51,3,4.53,4.53,6.65,6.94,1.13,1.27,2.58,1.23,4.07.6,4.08-1.74,5.5.67,6.27,4.05s.4,7.1,2,10.38c.73.31,1.26.93,2,1.27,1.47.66,2-.84,3-1.27,1.77,2.65,1.21,4.35-2,5a5.1,5.1,0,0,1-3,1c-4.81-1-8.25-4.88-13-6,1-1.48,5.76-3.13-.26-4.3-1.48-.28-1.94-1.83-1.7-3.21.7-4,.13-7.46-3.17-10.23C230.55,148.69,231,147,230.94,145.53Z"/><path class="cls-82" d="M227,174.51a11,11,0,0,1-2.85-.51c-.81-.37-2.33-.07-2.31-1.26s1.35-2.37,2.35-1.87c2.26,1.16,3.08-1.49,4.82-1.38a16.51,16.51,0,0,1,4-2l4,0C236.31,174.41,236.18,174.5,227,174.51Z"/><path class="cls-93" d="M227.94,150.52c-5.59,1.63-12-.65-14-5C219.29,145.3,224.62,145.1,227.94,150.52Z"/><path class="cls-93" d="M212.94,144.52a13.08,13.08,0,0,1,0-11C214,137.2,212.66,140.86,212.94,144.52Z"/><path class="cls-94" d="M233,167.53c-.35,2.65-2.43,1.78-4,2,.62-1.37.33-3.64,3-3Z"/><path class="cls-66" d="M248.88,139.56c-3.29-2.18-4.61,1-5.87,2.64-1.62,2.15-3.07,2.42-4.82.79-2.4-2.24.37-2.87,1.53-3.32,2.69-1-.78-4.44,2.2-5.14,0-7.36,5.6-8.53,10.93-9.93a8.7,8.7,0,0,0,3.1-1.43c1.68-1.22,3.25-.07,4.68.53,2.24.94-.11,2.57.31,3.85,4.68,1.67,6.17,6.07,8.36,9.84a3.53,3.53,0,0,1-.17,4.19c-2.12-.41-5-3.55-5.51,1.71-.2,1.82-1.85,1.47-3.12.75C256,141.49,251.42,139,252,131.7,249.21,134.55,251.14,137.83,248.88,139.56Z"/><path class="cls-95" d="M318.94,152.59c-1.6,4.76-5.89,3.84-7.91,2-4.83-4.34-10.29-4.48-16-4.44-2.13,0-3,1.13-2.12,3.21.77,1.83,2,4-.09,5.33a5.82,5.82,0,0,1-6.87-.2c-1.25-4.86-3.26-9.54-3.59-14.62S279.74,134,278.7,129c-.32-1.53-1.56-2-3.09-1.68s-3.3.59-4.66-.77c.14-1,.24-1.91.42-2.86.75-4,2.63-4.9,6-2.28a10.55,10.55,0,0,0,2.61,1.12c2.56.06,2,2.23,2.32,3.63,1.39,5.8,3.86,11.2,5.88,16.77.22.62.57,1.67,1.08,1.4,4.69-2.47,8.28,4,13.15,1.41,2-1,3.95,1.1,5.71,2.31,2,1.38,3.71,3.41,6.53,3.09C316.17,151.29,317.8,151.21,318.94,152.59Z"/><path class="cls-96" d="M271,126.56c1,0,2.18.32,2.95-.1,6.13-3.39,5.72,1.67,7.07,5.07,2.45,6.16,1.65,13,4.63,19.12,1.06,2.16.27,5.21.33,7.86l-5-1c-3.95-4.16-5.61-9.58-8-14.59-1.48-3.29-1.8-6.95-3.36-10.24a4.7,4.7,0,0,1,.4-5.12Z"/><path class="cls-69" d="M314,152.49a4.73,4.73,0,0,1-3.69-1.11c-1.36-1.21-3.1-2-4.28-3.38-3-3.41-6,.84-8.68-.06-2.56-.83-4-5.59-7.79-1.64-1.55,1.62-2.11,0-2.55-1.4-2.31-7.46-4.68-14.91-7-22.36-.08-1.94.28-3.61,2.61-3.94,4.36-.62,3.68-3.21,2.39-6,2.33-2,5.21-2.88,8-4l.06.06c2,4-1.3,6-3.32,8.4-3.8,5-4.06,14.18-.4,19,1.31,1.73,3,3.46,5.29,3.33,2.57-.13,4,.31,4.43,3.13.29,1.66,1.93,1.62,3.24.85s2.67-2.07,4.54-1.44A29.73,29.73,0,0,1,314,152.49Z"/><path class="cls-70" d="M270,127.56c.42,5.23,3,9.88,4,15,1.13,2.64-.61,2.7-2.42,2.7a3.54,3.54,0,0,1-2.55-3.73c-1-4.57-2.13-9-6.75-11.44a2.71,2.71,0,0,1-1.27-2.5C264,127,267,125.24,270,127.56Z"/><path class="cls-97" d="M264.9,123.56c0-1.15,0-2.31,0-3.46-.13-1.66-2-3.62.25-4.87s3.39,1.15,4.81,2.34c0,1.44.3,3-.14,4.31C269,124.29,267.8,126.74,264.9,123.56Z"/><path class="cls-98" d="M209.92,156.49l-3,0c-.74.31-2.11.58-2.13.93-.35,5.1-5.62,7.06-7.12,11.44-1.75,5.12-7,6.59-10.74,9.6-2.37-.07-4.82.39-7-1-.3-1.72,1.13-1.89,2.15-2.11,7.62-1.64,12.23-7,16.13-13.13,1.51-2.37,2.69-4.93,4.62-7,1.16-1.27,2-2.82.75-4.48s-2.93-1.2-4.55-.66c-.79.27-1.78.5-2.17,1.16-3.33,5.65-9.32,9.88-9.15,17.41.05,2.38-.46,4.63-3.78,2.86-2.84-2-6.1-.48-9.1-1.05-1.22-.23-3-.18-3-1.81,0-1.16,1.28-2,2.48-2,2.68-.08,4.74-3.24,7.89-1.35a1.8,1.8,0,0,0,2.44-1.72c-.65-2.93,1.7-4.66,2.29-7-.29-.84.19-1.37.75-1.88,4.11-4.35,7.69-8.93,8.22-15.29.22-2.57.64-5.27,2.42-7.42l.62-.38c2.6-.36,4.06-2.09,4.92-4.34.43-1.15.89-2.18,2.06-2.61s1.95-2.28,3.41-1.35c1.06.68.67,2.15.56,3.25a36.16,36.16,0,0,1-1,6.32c-1.75,6.26-2.15,12.47,0,18.71-.68.33-.68.67,0,1C210.59,153.52,211.27,154.75,209.92,156.49Z"/><path class="cls-59" d="M188,155.51l-1,1c-10.37,5.69-17.71-.94-25.62-6.37,1.44-2,5.92.63,5.64-3.62,4.61-.91,6,3.4,8.58,5.58,3.73,3.2,7.76,3.73,10.38-.28s6.94-7.63,4.74-13.41a1.24,1.24,0,0,1,.1-.89c5.49-1.11,4.16-8.48,9.19-10a6.71,6.71,0,0,0-1,4h0A23.2,23.2,0,0,0,195.14,142C194.74,147.56,190.49,151.09,188,155.51Z"/><path class="cls-68" d="M209.92,156.49a6.33,6.33,0,0,0-1-4c2.88-.15,5.72-.18,8,2,2.06,0,4.18-.42,6,1v2C218.43,159.33,214.27,156.73,209.92,156.49Z"/><path class="cls-68" d="M228.94,154.51c.06,3.87-1.15,5.63-5,3C226.11,157.35,225.61,152.74,228.94,154.51Z"/><path class="cls-93" d="M222.94,155.52c-2.06,0-4.14.2-6-1C219.18,153.43,221.48,152,222.94,155.52Z"/><path class="cls-99" d="M288.9,116.54c1.64-2.5,4.31-4.47,4.07-7.93,2.34.33,4.19-.69,5.9-2.1,4.8-2.63,9.23-2.78,13,1.85,1.52,1.84,3.21,2.08,4.9.23-.29-1.82-2.46-.59-3.05-1.88a.92.92,0,0,1,.17-1.18c3-1.64,6.22-.38,8.73.72,3.83,1.68.11,4.79.3,7.28-2.5,3.48-1.79,7.26-1,11,0,.33,0,.65,0,1a1.19,1.19,0,0,1-1.3.19c-2.1-1.5-1.75-3.77-1.85-5.9-.1-1.85-.86-3.78-2.88-3.12-3.59,1.17-7.32-.52-10.81,1-1.73.77-3.63,1-5.05-.67-1.62-1.94-.69-3.71,1.3-6.25-4.07,3.09-5.34,7-7.95,9.91-1.52,1.68-.22,2.43,1.73,2.68,7.81,1,9.87,4.41,7.61,12.35a2.44,2.44,0,0,1-1,1c-2.26-.49-2.2-2.67-3-4.2-1.09-2-2.38-2-3.89-.5a10.17,10.17,0,0,1-2.77.6c2,1.7,4.06-1.11,6,.16.87,4.53-2.8,4-5.25,4.5-2.95.61-4.83-1.14-5.43-3.8C286.19,127.75,285.15,121.92,288.9,116.54Z"/><path class="cls-100" d="M317.89,108.6c-1.95,3.69-4.08,4.19-6.84.65s-6.29-5-10.54-2.1c-.6.41-1.24,0-1.64-.64,3.4-4.55,8.35-3.84,13.12-4,2.66-.08-1,3.53,1.92,3v1C314.82,108,317,107,317.89,108.6Z"/><path class="cls-101" d="M269,141.49c.67,1,1.34,2,2,3a5.48,5.48,0,0,1,2.71,4c.55,2.77,1.4,5.9-1.25,7.85-2.82,2.06-4.81-.82-7-2.13-1.28-.77-2.12-2.1-3.53-2.71-1.64,3.16-1.69,6.27.52,9.15,3,3.88.32,6.25-2.44,8-3.17,2-2.77-3-5.09-3.13-2.2-.39-1.73-1.67-1-3-2.3-7.51-6.37-14.64-5-22.95,0-2.15,0-4.31.16-6.44.12-1.25.42-3,2-2.94.78,0,2.27,1.65,2.16,2.35-1.12,7.17,5.23,8.11,9,11.4,1.66-1.9-.58-5.52,2.89-6.19C268,137.18,267.39,140.51,269,141.49Z"/><path class="cls-102" d="M261.92,151.5c3.08-1.75,3.42,2.08,5.36,2.64,1.52.44,2.48,2.69,4.27,1.83,2-1,1.55-3.2,1.29-4.88a46.7,46.7,0,0,0-1.88-6.57c1.46,0,2.88,0,3-2,2.21,5.06,5.38,9.67,7,15,.2,2.4-1,4-3,5-4.13,4.64-10.06,3.73-12.48-2C264.18,157.56,261.85,155,261.92,151.5Z"/><path class="cls-103" d="M253.9,162.51c.13,1.08-.08,2.27,1,3,0,.66,0,1.31,0,2,0,3.25-1.36,4-4,2,2-1.94.13-4.95,1.89-7Z"/><path class="cls-103" d="M249.93,173.5c.58-1.61,1.64-1.78,3-1,.32,1,1.58,2.27.16,3.06C251.18,176.62,250.79,174.52,249.93,173.5Z"/><path class="cls-88" d="M320.93,125.55h1c-.52,5.14,3.87,8.41,4.94,13l-4,12.92a6.16,6.16,0,0,1-3.93,1.17l-5-.1c-3.5-2.5-5-6.45-7-10-1.84-1.84-6.36-1.47-5-6l0,0c6.61-3,6.61-3,9.52,2.61C314.92,134.92,320,131.59,320.93,125.55Z"/><path class="cls-104" d="M200.52,189.39a13.52,13.52,0,0,1,8.94,2.62C205.43,193.67,203.12,191,200.52,189.39Z"/><path class="cls-105" d="M184,171.5c1.27-.11,3.49-.07,2.7-1.79-1.72-3.7,2.12-6.1,1.59-9.42-.16-1,8.58-10.79,9.54-11.16,2.51-1,5.16-2,7.19.67s.64,5.09-1.68,6.81c-2.74,2-3,5.41-4.82,8-4.61,6.64-10.57,11.14-18.52,12.9-2.59.52-6.25-2.58-7.6,2.37-.24.87-1.78.82-2.61.19a1.35,1.35,0,0,1,.19-2.41,4.08,4.08,0,0,0,2-4.14A26.47,26.47,0,0,0,184,171.5Z"/><path class="cls-59" d="M163.89,155.06c-2.7.18-5.57,1.25-9-1C158.59,153.43,161.31,152.93,163.89,155.06Z"/><path class="cls-106" d="M252.82,162.55a39.7,39.7,0,0,0,.74,4.25c.73,2.56-.89,2.66-2.63,2.71a2.21,2.21,0,0,1-1-2v-8.22C252.45,159.48,251.49,161.89,252.82,162.55Z"/><path class="cls-107" d="M301.92,136.54c.06,3.34,4.27,3.21,5,6-1.15,0-2.3,0-3.05,1.17-1.3,2.09-3.08,2.09-5.16,1.2-2.39-1-1.56-2.82-.78-4.83-5.49,2.33-8.26-.87-10.29-4.34-4.06-6.95-3.29-15.26,1.27-19.19-.87,5.25-2.83,10.38-1,15.88.61,1.88,1.37,4,3.21,3.76,2.22-.25,5,.37,6.61-2,.17-.25-.5-1.06-.78-1.61-1.1.48-1.6-.14-2-1,.93-3.53,2.35-3.74,4.14-.55C300.1,132.78,301,134.68,301.92,136.54Z"/><path class="cls-68" d="M188,155.51c3.9-6.75,5.71-14.35,8.75-21.45a4.28,4.28,0,0,1,2.25-2.52c-.63,3.39-1.59,6.69-2.16,10.11A21.1,21.1,0,0,1,188,155.51Z"/><path class="cls-108" d="M320.93,125.55c.84,3.18-1.54,5.84-1.44,8.91,0,.85-.81,1-1.45,1-4.57,0-5.53,2.75-4.88,6.64-.5-.08-1,0-1.09-.18-1.95-4.49-4.82-7.21-10.13-5.43a14.79,14.79,0,0,1,0-2c1.23-7.78-.51-10-8.2-9.71-3,.13-3.58-2.09-2.54-3.2,3.71-3.92,5-9.85,10.36-12.34.58-.27,1.19-.67,1.87,0,.23,2-1.7,2.57-2.61,3.83-.74,1-1.18,2-.38,3.19s2.11,1.64,3,.81c3.76-3.43,8.64.54,12.77-2.2,1.45-1,4.23,1.37,3.83,4.33C319.8,121.46,319.74,123.57,320.93,125.55Z"/><path class="cls-109" d="M294.94,131.51l2,1c-2.92,3.16-5,2.86-7.78-1.46Z"/><path class="cls-69" d="M317.89,108.6c-1.59-.16-3.49.25-4-2,1.55.14,3.29-.12,4.6.52C320.17,107.88,318.81,108.34,317.89,108.6Z"/></svg>