<svg id="Layer_1" data-name="Layer 1" xmlns="http://www.w3.org/2000/svg" viewBox="0 0 400 275"><defs><style>.cls-1{fill:#d8b475;}.cls-2{fill:#debe81;}.cls-3{fill:#eccf98;}.cls-4{fill:#f0dba7;}.cls-5{fill:#e1c184;}.cls-6{fill:#e0d1ab;}.cls-7{fill:#cead71;}.cls-8{fill:#d9bb82;}.cls-9{fill:#d4b57e;}.cls-10{fill:#d9c69d;}.cls-11{fill:#ddc292;}.cls-12{fill:#e2c793;}.cls-13{fill:#e5cc9d;}.cls-14{fill:#e0c797;}.cls-15{fill:#e2c797;}.cls-16{fill:#c3ab7b;}.cls-17{fill:#c7a568;}.cls-18{fill:#d3b987;}.cls-19{fill:#e0c799;}.cls-20{fill:#dbc495;}.cls-21{fill:#c9a86b;}.cls-22{fill:#ab7e44;}.cls-23{fill:#dbba83;}.cls-24{fill:#d2b580;}.cls-25{fill:#d5bd8f;}.cls-26{fill:#d1af74;}.cls-27{fill:#e3d1ac;}.cls-28{fill:#bca476;}.cls-29{fill:#dfc494;}.cls-30{fill:#dbc699;}.cls-31{fill:#c3aa7b;}.cls-32{fill:#bca378;}.cls-33{fill:#e4d2b3;}.cls-34{fill:#b49a6c;}.cls-35{fill:#b29663;}.cls-36{fill:#c7ae83;}.cls-37{fill:#d5bd94;}.cls-38{fill:#c6ae83;}.cls-39{fill:#936d3e;}.cls-40{fill:#cfbc95;}.cls-41{fill:#dec490;}.cls-42{fill:#ab8c61;}.cls-43{fill:#c5a778;}.cls-44{fill:#dac399;}.cls-45{fill:#ae9365;}.cls-46{fill:#e3d2af;}.cls-47{fill:#a99267;}.cls-48{fill:#cbb892;}.cls-49{fill:#cfbfa2;}.cls-50{fill:#463728;}.cls-51{fill:#b29d76;}.cls-52{fill:#a2906d;}.cls-53{fill:#ead39f;}.cls-54{fill:#867857;}.cls-55{fill:#e1c386;}.cls-56{fill:#e2c38c;}.cls-57{fill:#cea564;}.cls-58{fill:#ccb17d;}.cls-59{fill:#e5c88e;}.cls-60{fill:#c8a164;}.cls-61{fill:#aa874b;}.cls-62{fill:#c09b60;}.cls-63{fill:#bd9b5e;}.cls-64{fill:#d6b273;}.cls-65{fill:#dac493;}.cls-66{fill:#c69f60;}.cls-67{fill:#d5b57c;}.cls-68{fill:#c1a46f;}.cls-69{fill:#b79e75;}.cls-70{fill:#d5b986;}.cls-71{fill:#b38a4f;}.cls-72{fill:#ecd099;}.cls-73{fill:#dbbb81;}.cls-74{fill:#c6ad81;}.cls-75{fill:#baa275;}.cls-76{fill:#bb985b;}.cls-77{fill:#d4b884;}.cls-78{fill:#c29e61;}.cls-79{fill:#c4a36e;}.cls-80{fill:#4b3019;}.cls-81{fill:#ba8b51;}.cls-82{fill:#cda568;}.cls-83{fill:#d8b173;}.cls-84{fill:#c39a5e;}.cls-85{fill:#b3874c;}.cls-86{fill:#ceb079;}.cls-87{fill:#d2b585;}.cls-88{fill:#caa665;}.cls-89{fill:#e1c28a;}.cls-90{fill:#bda16d;}.cls-91{fill:#e1c48e;}.cls-92{fill:#cba770;}.cls-93{fill:#a77a41;}.cls-94{fill:#b78949;}.cls-95{fill:#c29a5f;}.cls-96{fill:#9e773d;}.cls-97{fill:#a77a3e;}.cls-98{fill:#926224;}</style></defs><path class="cls-1" d="M215.11,105.43l17.78,2c12.68-1.6,25.42-.9,38.13-.83a2.46,2.46,0,0,1,1.17,1c-2.7,2.57-6,5.92-4.26,9.33,2,4.06-.54,9.16,3.55,12.45.62.5.26,1.91.8,2.79,1.34,2.19,3.69,4.09,2.05,7.13-1.83.52-4.16-.83-5.49,1.74a2.18,2.18,0,0,1-3.11.65c-3.32-2.08-7.12-3.77-7.71-8.41-.2-1.6-.25-4-2.21-3.87s-3.9,1.74-5.43,3.15.29,2.62,1,3.85c.45,5.07-2.19,7.48-6.54,5.81-2.5-1-4-2.58-2.1-5.35a11.43,11.43,0,0,0,1.74-9.89c-.85-3.31.81-5.58,4.59-6.28,2.92-.55,6,.09,8.77-1.32-4-.08-7.75,1.54-11.72,1.39-3.19-.12-6.27,0-4.77-4.88.85-2.74-1.94-2.56-3.45-3.19-1.75-.72-3.34-.47-4.1,1.53-2.21,5.87-4.15,11.78-3.16,18.23.21,1.35.21,2.86,1.33,3.63,4.37,3.05,6.05,8.33,9.92,11.73,2.13,1.86,1.26,4.27,1.75,6.53-.56-2.82.64-4.62,3.19-5.33,3.59-1,6.07.73,7.93,3.66.74,1.92.47,4,1.2,5.95a21.48,21.48,0,0,1,.36,5.36c-.32,2.44-.91,5.07-4.13,3.44-3.49-1.76-6-1.75-7.92,2-.18.36-.88.31-1.37.2a3.6,3.6,0,0,0-4.53-.77,7.63,7.63,0,0,1-3.89.73c-1.49-.08-3.19-.06-3.76-1.79-.51-1.52.7-2.43,1.76-3.26,3.6-2.82,4.07-6.59,3.42-10.78-.35-2.31-1.27-3.43-3.84-3.54-16.31-.69-18.39-6.54-13.64-21.46a49.31,49.31,0,0,0,2.55-11.15c.16-2.2-.76-2.91-2.9-2.92-6.65,0-10.06,3.06-10.46,9.74-2.43,3.35-3.95,7.26-6.45,10.54-1,1.36-1,2.74-1,4.2,0,6.75-3.09,12-7.85,16.49-1.58,1.5-3.41,2.38-5.39,1.77-4.38-1.36-10.39-.89-10.12-8.16.1-2.95-3.19-3.53-4.3-5.68.23-2.61,1-5.28-.69-7.69-2.67-3.82-1-6.92,1.72-9.7a17.1,17.1,0,0,0,3.79-5.11c3.57-8.2,10.33-12,19.11-10.56,2.81.47,5,.57,7.09-1.78,1.81-2,4.67-2.34,7.22-3C212.2,105.7,213.63,105.11,215.11,105.43Z"/><path class="cls-2" d="M211,106.56c-3.12,1.8-7.43,1.68-8.94,6.09-.46,1.31-2,.25-3.08-.11-9.16-3.11-17.43.74-20.73,9.63-.11.31-.07.77-.28.94-5.8,4.75-7.81,10.14-3.35,17,.8,1.23-1.23,2.17-1.6,3.42-5,1.36-4.81-4-7.31-5.82-1.76-1.3-.2-2.56,1-4-3.9,1.68-6.14-.32-8.14-3s-3.89-2.65-5.55.47c-2.23,4.23-5.91,5.44-10.43,4.71-3-3.83-2.81-4.87,1.89-5.51,4-.55,4.29-1.81,2.86-5.5-2.07-5.35-5.19-8.11-11-8.21a16.43,16.43,0,0,1-9.69-3.38c-3.32-2.45-10.24-.15-12,3.6-1.09,2.29-1.27,4.49,1.11,6.19,1.8,1.3,3.77,2.69,2.39,5.24-1.58,2.92-4.17,2.84-6.88,1.67-1.6-4-1.76-8.42-4.1-12.13a1.22,1.22,0,0,0-1.53-.44c-.48.24-.48.92-.58,1.57-.74,4.75-2.53,5.7-5.93,2.61A9.7,9.7,0,0,0,90,119c-1.78.34-3.65-.09-5.47-.22-3-.22-5-1.12-3.1-4.67,1-1.93.05-3.56-1.2-5-4.11-4.69-6-11.12-11.71-14.6a2.53,2.53,0,0,1-.75-3.56,2.75,2.75,0,0,1,3.52-1.06,32.44,32.44,0,0,1,5.91,2.62c1.43.84,3.21,1.2,4,2.91,1,4.21,2,8.43,6.45,10.6,3.41,1.64,6.17,1.61,8.8-1.61,1.74-2.12,2.61-5,5.36-6.32,4.62,1.36,9.51-.9,14.09,1,3.67,4.49,8,7.38,14.16,5.68a5.43,5.43,0,0,1,1.39.27c.47.16.92.38,1.37.58,3.92,1.78,7.87,6,11.25,5.58s7.34-3.73,11.33-5.2a8.55,8.55,0,0,1,9-.32c1.5.74,3.22,1.6,4.78,1,5.29-2.09,10.37-.65,15.61.26,5,.87,9.85-.75,14.76-1.42C203.4,105,207.42,103.68,211,106.56Z"/><path class="cls-3" d="M52,95.59c-9.47-5.25-17.44-12.51-25.66-19.41-4.13-3.48-8.64-6.68-10.91-12-1.52-3.53-2.89-7.18.74-9.91s7.47-1.46,10.37,1.31C32.92,61.68,39,68.1,45.13,74.37,49,79.72,52.54,85.49,59.91,86.73a4,4,0,0,1,3,3.12c1.82,6,6.52,9.45,11.19,12.9,4.43,3.27,7,7.14,6.68,13-.16,3.12.71,6.49,1.44,9.59,1.23,5.18,6.22,5.58,10.45,6,7,.64,12.8,3,17,8.7,1.2,1.61,3,1.93,4.77,2.43,2.41.69,4.27,1.92,4.21,4.8A5.55,5.55,0,0,1,117.3,150c-6.33,4.38-11.19,3.11-14.64-3.86a9.63,9.63,0,0,0-4.8-4.82c-2.13-.94-3.86-1-4.67,1.68a8,8,0,0,1-2.69,4.09c-3,2.38-5.59,1.61-6.71-2.06-1.25-4.1-2.53-8-5.92-11.13-2.68-2.52-3.34-6.37-2.66-10.21.53-3.07,1.28-6.16,0-9.24A49.74,49.74,0,0,0,52,95.59Z"/><path class="cls-4" d="M52,95.59C59.16,96.76,65.1,100,69.28,106c2,2.81,5.6,4.07,6.78,7.55,1.25,3.1.69,6.28-.25,9.18-1.47,4.57.22,8.41,2.78,11.52,2.74,3.34,4,7.17,5.36,11,1.57,4.35,3.08,5.24,7.33,3.07,3.37-1.72,6.78-3.33,10.22-.63s5.9,11.55,4.39,15.12a7.57,7.57,0,0,1-7,4.77c-2.59.13-4.39.53-4.93,3.58-.5,2.78-2.74,4.08-5.46,4.28s-4-1.79-4.94-4.08a17,17,0,0,0-3.78-5.8c-2.32-2.91-4.27-6.09-7.17-10,.5,4.41-.29,7.83,1.89,10.93a3,3,0,0,1-.46,4,15.33,15.33,0,0,1-4-9.72c-.5-5.38-2.2-10.65-2.79-16-1-8.81,2.21-17,4.91-25.16,1.52-4.57,1.29-7.69-3-10.65C63.25,104.83,57.73,100.08,52,95.59Z"/><path class="cls-5" d="M118,147.51c-.29-.76-.43-2.07-.89-2.2-8-2.22-12.28-10.45-20.21-12.55-3.17-.84-6.57.05-10-1.08-4.12-1.37-6.3-4.85-6.52-9.31-.38-7.51-.38-15.15-8.76-19.86-4-2.27-8.57-5.64-9.62-11.26-.39-2-1.24-3.58-3.86-3.74-5.76-.36-12-7.83-13.1-13.14,7.86,3.73,15.57,7.75,23,12.24,3.09,1.86,6.52,3.21,9.08,5.88-2.06-.59-4.11-1.23-6.19-1.75-1-.24-2.08-.35-2.62.76A1.71,1.71,0,0,0,69.34,94c5.72,1.25,5.89,7.23,9.17,10.54,1,1,1.61,2.53,2.65,3.56,2.75,2.74,3.73,5.45-.29,8.66,3.63,1.16,6.9,1.57,9.68.86,4.17-1.06,6.92,0,9.35,3.22.79,1,1.95,2.17,3.38,1.27,1.14-.73.86-2.09.4-3.19a2.84,2.84,0,0,1,1.14-3.88,2.51,2.51,0,0,1,3,1.14c1.78,4.26,4.79,8.29,3.19,13.36,4.25,3.58,5.51,9.28,9.37,13.24C121.59,144,122.69,147.86,118,147.51Z"/><path class="cls-6" d="M278,182.5c-3.46,6.31-8.72,11.66-10.16,19a1.37,1.37,0,0,1-1.33,0c-2.94-2.81-6.25-2.2-9.07-.26-5.73,3.94-12.08,4.65-18.7,4.43-3.29-.11-6.32.16-7.75,3.79-6-5.6-13-4.37-20-3.11-.18-2.65,1.92-2.77,3.64-3.06a38.54,38.54,0,0,0,7.53-2.45c3.23-1.26,5.43-3,4.38-7.08-.68-2.67,1.11-4,3.54-4.35,4.43-.67,8.6-.12,12.66,3.93-.89-4.65-.86-8,4.26-7.78a4.85,4.85,0,0,1,1.34.47,11.52,11.52,0,0,1,2.29,1.89c2.42,2.42,4.3,2,5.8-1,3.28-6.51,8.25-10.94,15.5-12.58,3.12-.85,5.61-.62,4.34,3.55C275.58,180.14,276.68,181.25,278,182.5Z"/><path class="cls-7" d="M92.07,215.47c-2.34,1-1.69,3.22-2.13,5-1.76,3.3-4,5.66-8.24,4.73a2.19,2.19,0,0,0-1,.07c-3.45.91-7.3,3.08-10.06-.66-3.57-4.84-6.23-10.39-4.71-16.6a16.77,16.77,0,0,0,.33-8.22c-1.24-5.18-.09-9.49,4.43-12.64a3.22,3.22,0,0,1,2.94-.19c1.39,3.46-2.58,5.74-2,9.14.24,1.35-.85,3,.54,4.16,1.58,1.32,3.13.36,4.63-.33.45-.21.9-.43,1.34-.67,5.81-3.21,5.88-4.63.44-8-1.73-1.08-4.3-1.45-3.93-4.42,2.62-3.36,6.11-3.07,9.47-1.84,4.26,1.56,7.56,4.74,11.12,7.44,1.19.89,1.86,2.35.88,3.47-4.18,4.77-1.45,10.53-2.43,15.75C93.42,213.14,93.54,214.57,92.07,215.47Z"/><path class="cls-8" d="M71.09,187.51c-3.92,3.86-4.87,8.27-3.21,13.61a8.42,8.42,0,0,1-.73,7.35c-1.82,3.11.28,7.27,1.81,10.72,3.18,7.15,3.09,6.51,10.64,4.9,3.74-.8,7.64-.14,10.34-3.62-.84,2.82-1.57,5.62,1.14,7.93a12.8,12.8,0,0,0-1.42,9.11c1,5.16.48,10.19-.48,15.25-3,4.56-6.19,5.16-12.48,2.35-2.54-1.86-3-4.57-3.07-7.47-.06-4.29.05-8.59-.06-12.88,0-1.7.5-3.67-1.71-5-1.82,1.71-1.13,3.95-1.34,5.94-.28,2.71.75,5.68-1.61,8-3-9.4-6.68-18.69-7.13-28.66-.26-5.88,0-11.78-.27-17.69-.2-4.42,3.95-7.34,7.58-9.78a1.47,1.47,0,0,1,1.6-.42C70.83,187.21,71,187.36,71.09,187.51Z"/><path class="cls-9" d="M164.77,272.51l-.91-1c-.63-1.63,1.24-2.07,1.6-3.31.66-2.22,2.12-4.4-1.68-5.11-.6-.11.14.08-.46-.14-1.84-.69-1.16-3.59-1.55-3.47-2,.6-3.75,1-5.63-.1-1.94-2.11-.6-3.79,1-4.95,3.38-2.42,4.56-5.76,5.29-9.66.64-3.45,1.08-7,4.64-9.41,2-1.37.25-4.86,1.95-6.93,3.36-3.8,1.4-8.8,2.92-13,.7-2,.74-4.15,1.58-6.11,1.57-2.44-1.21-6.14,2.3-8,2.4,3.16,2.32,6.65,1.17,10.16a23.41,23.41,0,0,0-1.31,11c.14.54-1.18,1.18-.2,1.47,1.56.46,2.94-.42,4-1.53,3.26-3.38,6.84-1.16,10.32-.68.48.07,1.18.49,1.1.88-1.12,5.44,3.42,2.89,5.44,3.88a2.94,2.94,0,0,1,.21,2.77c-3.09,2.79-5,6-4.1,10.4-.63,1.51-2,1.9-3.41,2.16a3.64,3.64,0,0,0-.47-.14c-2.13-.63-4.52-2.49-6.4-.38s-.89,4.69.21,7a1.48,1.48,0,0,1-.31,1.28l-3.92,4.05c-3.06-4.35-1.21-9.25-1.57-13.89.08-4.73,2.4-7.4,7.18-7.87,1.39-.14,2.83-.49,2.47-2.34s-1.87-1.59-3.2-1.53c-5.4.27-9,3.61-9.58,9a34.46,34.46,0,0,0-.06,5c.57,5.84-1.33,11.89,1.48,17.53,1.48,2.69-.95,5.76.89,8.41.46-1.38,0-3.65,2.12-3.75,2.44-.11,3.5,2.25,4.71,3.87,1.45,1.94,0,3.29-1.59,4.39-3,.09-6,1.38-9.07.88C169.63,272.2,167.19,272.41,164.77,272.51Z"/><path class="cls-10" d="M278,182.5c-2.89.07-5.24-.32-3.3-4.1.5-1,1.72-1.91.87-3-1.08-1.42-2.37.44-3.6.13a1.49,1.49,0,0,1-.28-1.36c2.57-3.86,5.21-7.65,10.09-8.89.32-.08.74-.07.94-.28,6.08-6.51,14.91-6.54,22.55-9.18a17.61,17.61,0,0,1,12.59.86c5.49,2.44,5.75,2.32,7.75-3.14.28-.78.43-1.6.72-2.38a7.55,7.55,0,0,1,4-3.44A11.14,11.14,0,0,1,340.49,150a14.88,14.88,0,0,0,5.2,2.64c1.67.51,3.63.89,3.69,3.28-1.79,2.88-4.43.4-6.63,1.06-.43.93.93,1.7.32,2.67-3.72.86-6.84.56-8.05-3.87A1.92,1.92,0,0,0,332,154.5c-1.77,1-.45,1.56.33,2.46,3.25,3.77-1.48,2.41-2.36,3.55-4.75,1.2-9,3.86-14.07,4.28-2.51.21-5.14.83-7,3.13-2.25,2.74-5.57,1.57-8.42,1.57-7.79,0-13.77,3.23-18.43,9.35A29.09,29.09,0,0,1,278,182.5Z"/><path class="cls-11" d="M211,106.56c-4.69-.59-9.06-1-14,.67-5.81,2-12.13,1.18-18.54,0-6.23-1.11-13,1.69-19.45-1.44-.85-.42-2.65,1.11-4,1.73-8.33,3.29-16.25,1.71-24-2h0c-.7-.67-1.5-.46-2.3-.25-5.34,1.39-9.14-1.34-12.69-4.74-4.81-2.12-10.15-.22-15-2-1.6.89-3.15,1.58-4-.91,15.38-.56,30.75-1.85,46.16-.31A148.1,148.1,0,0,1,169.05,102c12.28,3.5,24.87,3.44,37.46,1.92a15.58,15.58,0,0,1,8.6,1.56A6.69,6.69,0,0,1,211,106.56Z"/><path class="cls-12" d="M124,198.43c-7.36,5.42-16.64,6.54-24.52,10.9-2.44,1.35-4.28,2.66-5.48,5-1.55-5,.4-9.45,2.57-13.66,2.78-5.38,2.85-6.91-1-11.62a68.79,68.79,0,0,0-6.17-6.49c-1.2-1.14-2.59-2.28-1.43-4.24a4.34,4.34,0,0,1,4.7-.78c5.81,2.72,12.13,4.74,16.14,10.3,2.78,3.86,10.18,4.24,13.21.61,1.18-1.41,2.19-3.36,4.36-2.33s1.74,3.33,1.35,5.29a14.18,14.18,0,0,1-2.79,5.79A12.56,12.56,0,0,1,124,198.43Z"/><path class="cls-13" d="M124,197.47c1-2.42,2.07-4.8,2.82-7.29.35-1.14.72-2.82-1-3.39-1.51-.5-1.83,1-2.44,1.92-1,1.45-1.12,3.72-3.49,3.71-3.37,0-6.83.19-10.08-.48-2-.41-1.24-3.82-2.9-4.91-5.84-3.82-11.2-8.82-18.9-8.53,0-.23-.1-.46-.14-.69,4.58-4.13,7-4.24,10.84-.14,3.25,3.5,7.53,4.78,11.87,5.92a5.72,5.72,0,0,0,5.87-2c2.15-2.47,4.53-2.43,7.33-1-2.58-2.1-3.77-4.65-2.37-7.77,1.29-2.87,4-2.21,6.42-2a47.11,47.11,0,0,0-6-.54c-1.61,0-3-.76-3.23-2.51-.23-2.08,1.3-2.91,3-3.3a8.08,8.08,0,0,1,5.41.23c3,1.53,6.33,2,9.34,3.42.52.39,1.21.83,1.33,1.39,1,4.82,2,9.46,8.09,10.36.71.11,1,1.61.16,2.54-6.94-1.28-11,2.48-14,8C129.58,193.09,127.88,196.49,124,197.47Z"/><path class="cls-14" d="M176,201.44c-2.33,2.27.36,5.77-2,8-.67-5.23-1.24-10.42.67-15.59a5.62,5.62,0,0,0-2.13-7.07c-2.68-1.75-4.18.3-5.65,2.26-2.8,3.76-6.39,2.52-9.93,1.41-3.37-2.59-6.21-5.87-10-8-.1-2.33,1.53-1.57,2.62-1.31,1.82.43,3.1,1.82,4.48,3,2,1.69,4.08,2.4,6,0,1.58-1.91,3.17-3.69.4-6.3-2.19-2.06-1.1-4.29,2.16-5.27,2.56-.77,5.26-.27,7.87-.71,2-.35,2.54-1.23,1-2.85-.26-1.56.5-2.95,1.79-3.16,6.25-1,12.18-4.43,18.82-2.72a4.07,4.07,0,0,1,0,5.14c-3.64.17-7.14.8-10,3.2.73,3.69,3.8,2.14,5.91,2.61,2.75.61,6-1.21,8.21,1.89-1.92,3-5,5.06-7.21,7.8-1.64.73-2.85.11-3.93-1.17-1.34-1.59-3-1.39-4.46-.32s-.69,2.43.05,3.55c1.51,2.27,1.13,4.3-.25,6.5a48.42,48.42,0,0,0-3.21,7.29A3.29,3.29,0,0,1,176,201.44Z"/><path class="cls-15" d="M271.8,267.56c-3-.84-4.49-3.59-5.42-5.9s-2.59-3-4.14-4.27a13.11,13.11,0,0,0,3.33-10.61c-.15-1.19-.36-2.46-1.83-2.58-1.77-.15-2.12,1.22-2.36,2.6-.45,2.55.68,5.4-1.47,7.61-.3-4-4.88-5.86-5.06-9.94,2.1,0,2.52-1.29,2.76-3.06.38-2.88-.87-5.35-1.62-7.95-.11-2.43-.62-4.64-3.15-5.76,0-6.06,3.2-8.07,8.27-5.19,3.79,2.15,7.65,3,11.8,1.16,2.24,2.1,2.51,5.23,4,7.71-4.47,2.73-4.83,7.24-4.59,11.69.17,3.26.36,6.54.81,9.79a5.71,5.71,0,0,0,2.23,3.67c2.47,2.06,2.34,4.06,0,6.07C272.21,262.85,274.13,266.73,271.8,267.56Z"/><path class="cls-16" d="M267,201.46a8.08,8.08,0,0,0,.86.08c.07.6.14,1.2.22,1.8.54,3.67,2,7.52-3.76,8.73-2.23.47-2.85,3-3.12,5.24-.16,1.27-.15,2.92-1.81,3.14-1.23.15-2.11-1-2.63-2-1.89-3.84-3.82-2.65-5.85-.14a19.41,19.41,0,0,0-2.07,3.37c-2.78,5.45-4.63,5.53-8.13.46a38.68,38.68,0,0,1-2.78-5.81,10.15,10.15,0,0,0-2.07-2.75c-1.09-1-1.27-2.7-2.8-3.3-1.58-2.18-.14-3.29,1.56-4.25a5,5,0,0,1,3.37-.52c7.92,1.5,14.76-1.11,21.24-5.35C262.11,198.26,264.79,198.54,267,201.46Z"/><path class="cls-17" d="M196,226.41c-.75.3-1.71.39-2.22.91-3.2,3.33-3.15.1-4.32-1.77-.77-1.22,2.05-3.11-.29-2.89-2.85.27-6-3.3-8.57.56a4.53,4.53,0,0,1-6,1.83c-1.55-.7-.79-1.4.48-1.65.36-5,.36-10.19,4.05-14.28,2.27.95,2.27.95,2.94,5.06,2.24-3.58-1.16-4.81-2.33-6.82,2.15-5.17,3.55-5.87,6.73-3.38.65,2.75,3.34,3.44,5.13,5,1.18,1.07,3.08,1.72,2.74,3.73-.29,1.79-2.33,1.25-3.86,1.93,1.82.9,3,0,4.18-.29,7.3-1.7,7.37-1.9,3-7.37,1-3,2.76-5.19,6.16-3.46,3.09,1.58,3.44,4.11,1.25,6.93a8.48,8.48,0,0,0-.94,2.27c-2.59,3.61-4.3,7.68-6.06,11.73C197.32,225.09,197.15,226.31,196,226.41Z"/><path class="cls-18" d="M238.05,215.43c2.81,2,2.74,5.81,5.27,8.2,2.18,2.06,2.8,1.63,3.67-.72a22.35,22.35,0,0,1,4.34-7c3-3.47,4.38-2.48,5.84,1a41.11,41.11,0,0,0,2.35,4c.22-2.42.41-3.76.45-5.09.07-2.72,2.22-5.18,3.87-5.27,5.63-.3,3.84-4.18,4.21-7.11,2.05,5.88,2.58,12.09,4,18.11a16.74,16.74,0,0,0,.87,2.22c0,1.36,0,3.09-2,2.54-3.66-1.05-7.57-.08-11.11-3-4.71-3.87-5.25,1.57-6.83,4.2-.19.28-.44.63-.72.63-4.81,0-5.46,2.64-4.18,6.53a.84.84,0,0,1-1.21-.08,3.31,3.31,0,0,1-2.92-2.06c-1.93-4.64-5.4-8.59-6.13-13.78C237.67,217.52,237.11,216.45,238.05,215.43Z"/><path class="cls-19" d="M296.05,269.64a24.79,24.79,0,0,1-13.21-.08c2.53-1.12,5.05-.73,7.6-.4-3.73-.42-7.54-.15-11.27-.71-1.81-.27-3.65-.12-4.48-2.21,2-6.51,2.95-7.3,8.95-7.27a10.77,10.77,0,0,0,7.32-2.36c-4.72-2.14-11.21,1-14-5.15-.4-4.1-1.56-8.27,1.1-12.08,1.1,5.27,5.45,8.41,8.22,12.59.47.71,1.23,1.49,2,1.12,6.3-3,8.83,5.45,14.48,4.77.85-.1,2.17,1.89,2.07,3.59a2.15,2.15,0,0,1-1.5,1.08c-2.47.06-2.93,1.63-2.91,3.63C299.28,267.73,296.87,267.69,296.05,269.64Z"/><path class="cls-20" d="M248,186.48c-5.5.48-5.89,1.16-3.14,5.53.44.71,1.21,1.42.23,2.06a3,3,0,0,1-3.7-.49,12.58,12.58,0,0,0-10-3.16c-3,.27-5.16.61-3.23,4.36,1.39,2.69,0,4.56-2.26,5.68-3.52,1.78-7,3.76-11.12,4-1.61.08-2.95.38-3.73,1.94a4.35,4.35,0,0,1-1,.11c-.48.16-1.07.18-1.16-.38-.58-3.75,3.83-10.88,7.55-12.32a10.15,10.15,0,0,1,2.12-.39c.48,0,1,.07,1.45.06.12,0,.74.37.44-.27s.18.08-.44-.24a3.13,3.13,0,0,1-.85-.93c.13-4.84,5.27-7.61,10.85-6,2.57.76,4.91,3,8.17,1.31-1.21-3.14-5.36-1.64-6.65-4.33,0-3.25,2.26-3.63,4.68-3.29a36.93,36.93,0,0,0,9.16-.13C249.41,180.68,249.18,183.39,248,186.48Z"/><path class="cls-21" d="M217,194.5c-5.05,2.41-6.08,7.16-7,12-2.6,1.51-3.86,4.27-5.92,6.29,0-.66-.27-1.49,0-1.95,1.66-2.52,2.2-4.95-1-6.5-3-1.47-3.72,1.61-5.17,3.14-3.42,2.27-6,1.13-8.11-2-1.52-2.53-4.57-3.59-5.75-6.62-1.73-4.45-.83-7.73,3.59-10.24a6.84,6.84,0,0,1,5.21.78c1.23.77,2.21,2,1,3.2s-1.51,1.59-.27,3c1.43,1.67,2.44,1.06,3.75.24a24.94,24.94,0,0,1,2.46-1.63c2.7.05,2.07,3,3.74,4.24,3-1.63,4.25-5.85,8.37-5.87a7.89,7.89,0,0,1,1.36.23C214.62,193.32,216.1,193.3,217,194.5Z"/><path class="cls-22" d="M348.08,126.45l10.09,5.91c1.92,3,5.48,5.52,2.79,9.84-.44.71-.87,1.38-1.78,1.51-2.66-3.28-2.66-3.28-5.23-1.36,1.38,1.93,4-.26,5.34,1.59-.61,1.18-.18,2.41,1.18,3.68a2.28,2.28,0,0,1,.71,2.61c-3.16,3.12-6.73-.09-10.05.68a11.84,11.84,0,0,1-4-.61c-3.25-1.62-3.73-4.25-3.84-7.75-.14-4.52,1.27-9.59-2.68-13.42a11.6,11.6,0,0,1,2-5.54C345.56,122.4,346,126.05,348.08,126.45Z"/><path class="cls-8" d="M88.05,178.5c2.34,4.58,6.85,7.22,9.94,11.2,2.84,3.66,2.84,7.12.56,10.4-3.06,4.38-3.6,9.33-4.51,14.27a1.82,1.82,0,0,1-2,1.1,25.59,25.59,0,0,0,.61-9.49c-.32-4-1.15-7.4,2.46-10.21a1.22,1.22,0,0,0,0-2.09c-4.29-2.42-7.59-6.49-12.35-8-2.59-.8-5.61-.74-7.76,1.77-.33.41-.66.41-1,0l-3,0,0,0c2.49-4.88,4.58-10.18,11.23-10.71,2,.44,4.15.17,5.78,1.73Z"/><path class="cls-23" d="M272,108.54v-1c1.77-3.55,5.3-3.84,8.15-3,6.24,1.81,9.67-1.31,12.73-5.82,8.15-5,16.74-7.33,26.21-4.28,7.36,3.71,15.69,6,20,14-2.44.83-3.54-1.18-4.77-2.49a7.53,7.53,0,0,0-6.48-2.65,8.78,8.78,0,0,1-3.6-2.18c-3.75-2.72-7.37-4.26-12.3-2.11-3.11,1.36-6.93,1.14-10.44,1.88-5.61,1.19-8.08,4.49-10,9a5.31,5.31,0,0,1-1.42,2,4.78,4.78,0,0,1-2,.7c-4.22-.28-8.53-1.4-12.38,1.46a3.77,3.77,0,0,1-1.46,0,3.34,3.34,0,0,1-1.67-1.36A6.36,6.36,0,0,1,272,108.54Z"/><path class="cls-24" d="M346.93,149.49l4,.07c4,1.84,8.9,2.37,11.12,7.06l-4.17,2.73c-3-.76-6.92,1.13-8.94-2.84,0-.16,0-.44-.09-.47-6.29-2.46-11.2-8.4-18.82-7.49-2-2.56.35-4.43,1-6.56,1.25-3.94,3.15-7.37,7.36-8.8,2.71-.92,4.93-1.06,5.09,2.89.11,3,.84,5.79-.57,8.76C341,148.91,345.54,148,346.93,149.49Z"/><path class="cls-25" d="M172,169.49c1.19.27,3.06-.7,3.42,1s-1.58,1.7-2.72,2.22c-2.87,1.31-5.91.47-8.84.82-1.48.18-3.17.46-3.56,2.18s1.43,1.33,2.25,1.94C165.63,180,163,182,162,184c-1.52,3-3.68,4.84-7.11,2.72-1.25-.77-2.08-2.18-3.3-3s-2.54-2.95-4.6-1.13h-.49l-.49-.07c-.24-3.05-2.45-3.05-4.66-3-3.42.11-5.34-1.39-3.81-4.74,1.3-2.82-1.09-4.17-1.52-6.25,1.23-.91,2.75-1.4,3.76-2.64,2.69-.28,2.85,1.39,2.85,3.44A9.48,9.48,0,0,0,153.53,179c2.07-.26,1.7-1.53,1.53-2.88-.37-3.06-.6-6.08,3.34-7.16C162.93,169.41,167.52,168.53,172,169.49Z"/><path class="cls-26" d="M97.06,97.68c1.1,1.3,2.61.75,4,.91-1.27,6.11-6.27,10.72-10.67,9.86-6.52-1.29-10.47-6.94-9.12-13C86.69,94.93,91.69,97.58,97.06,97.68Z"/><path class="cls-27" d="M157,190.49c4.11-.18,8.63,1.28,10.46-4.83.73-2.43,4.22-1.53,6.1-.24,2.79,1.93,4.53,5.78,3,8.18-3.38,5.17-2.13,10.54-2.49,15.88-.92,4.43-2.13,8.82-2,13.39.07,2.52-.61,4.46-3,5.58.79-8.83,4-17.31,4-26.25,0-5.5-2.8-8.2-8.33-8.8C161.89,193.1,159.1,192.64,157,190.49Z"/><path class="cls-13" d="M82.05,177.51c-5.81,1-7.68,6.25-11,10l-2,0a21.9,21.9,0,0,1,2.46-3c4.61-4,3.34-9,2.47-13.92-.16-1.3.16-3.19-.57-3.78-3.68-3-.77-7.21-2.28-10.54a1.62,1.62,0,0,1,1.08-2c1-.32,1.58.42,2,1.08,2,3,3.87,6.12,5.8,9.19C81.81,168.67,85,172.61,82.05,177.51Z"/><path class="cls-28" d="M68.91,243.62c.06-4.32.19-8.63.15-13,0-2.33.88-3.28,3.23-3.24s2.8,1.2,2.79,3.16c0,5.64.08,11.29-.07,16.93-.06,2.6.3,4.93,2,6.92,1.39,2,.78,3.64-1,5C70.53,255.59,69.59,249.66,68.91,243.62Z"/><path class="cls-29" d="M293,99.61c-2.75,5.77-5.55,7.21-11.11,6.11a12.85,12.85,0,0,0-9.91,1.83c-13,1.36-26-.36-39.07-.07,4.26-1.29,8.7-1.43,13.08-1.93,10.41-2.1,20.87-3.52,31.55-2.51C283,103.56,288.35,103.1,293,99.61Z"/><path class="cls-30" d="M95.05,234.45c7.33,4.24,9,11.45,9.94,19-2.17,3.7-4,4.15-9.9,2.38a3.85,3.85,0,0,1-1-1.48C93.75,247.69,91.52,240.93,95.05,234.45Z"/><path class="cls-31" d="M95.05,234.45l-.09,20a22.08,22.08,0,0,0-6.89-2c1.59-6.72,0-13.43,0-20.15,0-2.2.12-4.07,3-3.89C93.92,229.41,94,232.22,95.05,234.45Z"/><path class="cls-32" d="M278,239.38l0,13c-1.54,3.08-3.27,5.06-6,1-.56-6.66-2.23-13.29.68-19.91,1-2.25,1.77-3.51,4.26-2.13C278.63,233.86,277.58,236.73,278,239.38Z"/><path class="cls-33" d="M293,99.61c-3.4,3.79-7.75,4.3-12.55,4-11.55-.71-23,1.21-34.46,1.94,9.6-3.54,19.52-4.18,29.63-3.33,5.94.49,11.52.87,16.6-4.09,6.5-6.37,19.95-7.65,26.85-3.7-7.48-.59-14.89-1.1-21.85,2.82C295.81,98,294.38,98.81,293,99.61Z"/><path class="cls-34" d="M88.07,252.44c3-1.67,5.43-1.56,6.89,2,.05.32.1.63.14.95,1.52,2.53-.08,3.68-2.11,4.48-2.32.91-4.87,1.77-7.25,1.35-1.66-.29-1.85.88-2.74,1.27-2.73-.06-5.49-.05-7-3l1-5C80.94,254.88,85.25,257.77,88.07,252.44Z"/><path class="cls-35" d="M178,238.47q.09,7.58.2,15.14a2.66,2.66,0,0,1-.16.83c-1.56,1.71-.1,4.94-3,6-2.66-.21-3-2-3-4.19.05-4.92,0-9.84.06-14.76C173.47,239.36,174.86,237.23,178,238.47Z"/><path class="cls-36" d="M83,262.48c1.12-.28-1.28-2.21,1.18-2.18a30.92,30.92,0,0,0,7.27-1.19c1.9-.46,4-.93,3.65-3.73,3.33-.49,7.14,1.56,9.89-1.92,2.92,2.26,4,4.75.91,7.73-5,.24-10,.25-14.81,2.07C88.36,263.33,85.58,264,83,262.48Z"/><path class="cls-37" d="M246.88,234.49l1.11-.1c2.66-3.33,5.74-2.77,9-1,2.82,4.2,2.4,8.6.51,13.17-1.52.41-1.32-1.91-2.61-2.12C251.12,242,248.78,238.42,246.88,234.49Z"/><path class="cls-38" d="M259.91,254.41c0-2.79.18-5.59,0-8.38s1.09-3.67,3.79-3.66,3.42,1.32,3.24,3.67c-.32,4.31,1.38,9.45-4.72,11.35C261.47,256.39,260.69,255.4,259.91,254.41Z"/><path class="cls-39" d="M358.93,143.53c2.32-3.28,2.95-6.41-.73-9.24-.7-.54-1-1.27,0-1.93,2.74,1.47,5.75,2.53,7.87,5-1.47,3.76-.19,7,1.82,10.17v1c-2,2.33-4.47,1.84-7,1-1.48-3.51-5.15-1.07-7.55-2.77,1-2.63,5.32.31,5.58-3.25Z"/><path class="cls-40" d="M267,201.46c-5.78-4.52-9.08,1.82-13.53,3.12-3.88,1.12-7.17,3.71-11.9,2.22-2.78-.88-7.56-2.16-8.51,3.48l-2.05-.82c-1.23-4.32,1.86-4.73,4.73-4.94,4.84-.35,9.73-.25,14.56-.72,1.47-.15,2.85-1.5,4.22-2.37,2.68-1.7,5.34-3.25,8.74-3C265.3,198.58,266.79,199.12,267,201.46Z"/><path class="cls-41" d="M156.14,259.4c3.3.68,5.75-2,8.74-2.53,1,2-.94,1.92-1.5,2.63-1.23,1.54-.84,2.4.87,2.8,1.53.36,4.28-.18,4.15,1.59a11.11,11.11,0,0,1-3.46,6.67c-.34.34-.72.65-1.08,1C160.09,268.24,159.51,262.94,156.14,259.4Z"/><path class="cls-42" d="M348.08,126.45c-2.48.41-3.27-2.44-5.36-2.77-2.21-.77-4.59-.25-6.81-.93-.83-1.77.9-3.23.57-4.94-.11-2-3.61-2.25-2.52-4.87,2.55-1.83,5.09-3.92,7.91-.4Z"/><path class="cls-43" d="M341.87,112.54c-2.92-1.89-5.34.12-7.91,1-.57,1.29-.83,3-2.87,2.54s-1.92-2.31-1.54-3.58c1-3.32.09-6.05-1.9-8.63a1.41,1.41,0,0,1,.26-1.32c2.64-1.24,4.55-.34,6.39,1.76,1.37,1.58,2.65,3.4,4.78,4.15C340.33,109.61,341.87,110.55,341.87,112.54Z"/><path class="cls-44" d="M175,260.41c1.73-1.62.71-4.63,3-6-1.28,4.4.34,7.51,3.7,10.54s3,5.26-.69,7.39c3.29-4.28-1.6-5.12-2.82-7.65-.52.48-.83.64-1,.9-.95,1.73,1.11,5.28-1.69,5.22-1.59,0-1.73-4-1.95-6.3C173.46,263.22,174.49,261.79,175,260.41Z"/><path class="cls-45" d="M360.9,149.55c2.19-1.2,4.69-.36,7-1,.19,4.24-2.5,6.4-5.84,8.09-3.4-2.83-7.92-3.91-11.12-7.06C354.23,148.39,357.57,152.19,360.9,149.55Z"/><path class="cls-46" d="M329.93,160.51l2.57-1.86c-.69-2.26-4.41.07-4-2.54a4.57,4.57,0,0,1,4.76-3.57c2.32,0,3.14.65,3.24,3.5.11,3.43,3.51,3.67,6.44,3.44,1.09-.69,1.81-.49,2.06.86Z"/><path class="cls-47" d="M345,160.34l-2.06-.86c-.53-1.81-2.75-1.56-3.8-3.13,3.37-2.33,6.56.23,9.76.16,2.66,2,6.43.42,8.94,2.84C353.71,161.51,349.3,160.16,345,160.34Z"/><path class="cls-48" d="M299.94,266.51c.38-1.71-.74-3-1.42-4.86,2.33,1,4.24-.33,6.29-.2a3.61,3.61,0,0,1,1.93,4.95c-1.27,2.94-4.43,2.14-6.81,2.88A4.06,4.06,0,0,1,299.94,266.51Z"/><path class="cls-49" d="M196,226.41a3.35,3.35,0,0,1,2.09-1.92c1.44,12.66-7.25,18.88-16,25.07l-.09-1.14a14.48,14.48,0,0,1,7-7l3-2a37.15,37.15,0,0,1,4-10C196,228.42,196,227.42,196,226.41Z"/><path class="cls-50" d="M367.86,147.53c-5-4.34-5.2-5.27-1.82-10.17C371.56,140.79,371.85,142.38,367.86,147.53Z"/><path class="cls-51" d="M274.94,265.39c2.82,3.31,6.94,2.1,10.46,2.93,1.69.4,3.57.07,5.39.84l-8,.4c-3.77-.16-7.64.22-11-2,0-1.09.88-2,.41-3.26-1.55-4,1.06-2.38,2.74-2A2.22,2.22,0,0,1,274.94,265.39Z"/><path class="cls-52" d="M91.09,263.26c4.48-3.94,9.57-3.54,14.81-2.07A32.4,32.4,0,0,1,91.09,263.26Z"/><path class="cls-6" d="M238.05,215.43c.38,4.12,1.15,8.21,4.21,11.2,1.82,1.77,1,3.92,1.7,5.8-3.59-3.13-5.23-7.24-6.14-11.79-.47-2.39-1.31-4.71-2-7.06C237,213.66,237.51,214.57,238.05,215.43Z"/><path class="cls-53" d="M124,197.47l8-7a13,13,0,0,1-8,7.94Q124,198,124,197.47Z"/><path class="cls-51" d="M299.94,266.51a2.27,2.27,0,0,1,0,2.77l-3.88.36-1.22-.68C296.91,268.94,296.9,264.54,299.94,266.51Z"/><path class="cls-54" d="M164.77,272.51c2.61-2,4.95-1.15,7.17.74C169.52,273.25,167,274.27,164.77,272.51Z"/><path class="cls-55" d="M172,169.49a21.52,21.52,0,0,1-14,0c-2.95,1.46-5.65.5-8.39-.74-3.45-1.54-.79-5.13-2.57-7.19-2.46-4.95-9.43-6.5-9.85-13,0-.27-1.12-.55-1.57-1.07-.78-1.55-.2-2.85.72-4.1a3.35,3.35,0,0,0,1-2.66c-1-5.69,0-6.57,5.72-5.18,4.59-.68,8.23-2.18,10.27-7.1,1.58-3.82,4.15-1.25,5.66.67,2,2.58,3.35,6,7.66,3.08.63-.43,2.57.38,2.67,1.65.18,2.41-2.69,1.06-3.92,2.76,4.23.7,3,6.69,7.65,6.94,4.83,1.19,6,4.71,5.56,9.07-.1,1,0,1.44.93,1.84,7.64,3.33,14.83.54,18-7.31a19.92,19.92,0,0,0,1.39-7.25c0-6.59,4.32-10.8,8.08-15.34,1.56,2.7-.55,4.66-1.51,6.77-1.55,3.4-3.52,6.55-2.4,10.65.92,3.35-2.5,5.54-3,8.61-2,4.76-5.09,8.82-8.11,12.94-5.75,1-11.49,2.06-17.24,3A2.89,2.89,0,0,0,172,169.49Z"/><path class="cls-56" d="M199,150.51c3.2-8.49,2.87-18.07,8-26-1.54-5.84.16-8.66,6.31-10.18a43.7,43.7,0,0,1,6.81-1.18c1.63-.13,3.07.6,2.6,2.65-1.11,4.89-1.24,10-3.65,14.6-1.9,3.63-1.32,7.78-1.75,11.65-.28,2.5,2.57,4.51,5.17,5.39a28.91,28.91,0,0,0,7.69,1.78c2.62.13,5.72-1.93,6.77,2.4,1.49,6.18,0,11.52-3.85,14-.84.52-2,.84-1.52,2.11.33,1,1.36.75,2.15.78,1.83.05,3.55,0,5.17-1.25,2.84-2.21,4.18-1.12,4.1,2.26-2,4.21-2,4.21-7.36,5.35,5.62-.56,8.28.9,10.34,5.64-3.44,1-6.86,1.59-10.42.36-2.2-.76-3.34.46-3.57,2.64a2.29,2.29,0,0,1-1.36.5c-1.41.13-3.64-3.76-4.22.91-.08.65-1.82.75-2.77.53-7.17-1.68-14.52-.73-21.75-1.51-.73,0-1.47,0-2.2-.08a11.15,11.15,0,0,0-6.16,1.6c-2.07,1.14-4.26,1.56-4.52-2a10.59,10.59,0,0,1,7-7c4.65-2.73,9.76-.36,14.6-1.51a11.3,11.3,0,0,1-5-.57c-3.56-1.34-4.69-4-2.37-7,3.09-4,4.79-8.73,7.85-12.63,2-2.55,2.43-5.06,1.12-7.84a11.36,11.36,0,0,1,0-10.06c1.49-3.28.64-6.75.8-11-4.71,3.63-7.59,7.33-7.72,12.7a19,19,0,0,1-2,8.65C202.43,149,201.57,150.94,199,150.51Z"/><path class="cls-57" d="M254,152.51c-1.41-.86-2.77-1.81-4.24-2.56-1.78-.92-3.27.16-4.55,1.14-1.75,1.34-.3,2.18.72,3,.69.58,1.05,1.39.25,2.1a2.15,2.15,0,0,1-2.28.6c-1-.39-1.87-.93-1.81-2.11.38-7.84-5.79-11.73-10.31-16.36-3.92-4-1.65-8.66-2.61-12.91-1-4.64,3.59-7.72,3.28-12.28-.1-1.45,1.83-2.66,3.76-2.58,6.2.26,7.81,2.69,5.58,8.59a22.38,22.38,0,0,0,14.77-1.77c1.26-.58,2.14-.69,3.07.31.56.59,1.25,1.19,1,2.14-.41,1.34-1.56,1.62-2.76,1.64-2.82,0-5.66-.14-8.47.08-3.36.26-5.18,3-3.72,5.45,2.33,3.92-.22,6.61-1,9.75-.3,1.16-3.13,1.37-1.34,3.42,1.41,1.62,3.29,1.37,5.1,1.23,2.28-.17,2.52-1.66,2.21-3.54-.07-.44.26-1,.4-1.42,2.94-2.34,3.39-2,4.39,3,.29,4-1.62,8.31,2,11.7a2.53,2.53,0,0,1-.11,2.18C255.8,154.41,254.92,153.32,254,152.51Z"/><path class="cls-58" d="M246,180.48c-3.12-2.58-5.68-6.5-10.77-4.11a1.77,1.77,0,0,1-2.43-1.1c-.33-1.33.9-1.8,1.81-1.67,3.79.55,6.08-1.77,8.41-4.11.4-.28,1-.47,1.16-.85,1.94-5,2.66-5.46,7.77-2.45,2.64,1.55,3.09.77,3.06-1.7,1.77-.62,2.27,1.76,3.82,1.67.71-1,0-2,.22-2.95a2.89,2.89,0,0,1,.86-1.86c1.72-.23,2.17,1.21,2.93,2.24s1.34,3,3.34,2a3.9,3.9,0,0,0,2.06-4.21c-.26-2.16-1.27-4.12-1.78-6.22s-1.32-4.44.92-5.92c1.86-1.23,3.43.26,4.91,1.34.91.66,1.86,1.88,3,1.11,1.34-.87.61-2.41.54-3.7-.14-2.47-2.31-4.52-1.46-7.19,1.75-1.52,1.34-4.27,3.22-5.73a2.22,2.22,0,0,1,2.36,2.1c.69,3.79,2.62,7.16,3.63,10.83a4.43,4.43,0,0,1-.11,1.45c-.17.46-.48.87-.64,1.34-2.78,8.14-2.78,8.14-10.75,5.59.66,4.17,2.38,6.9,6.95,6.91a6.05,6.05,0,0,1,3.82.89c.82,1.21-.14,1.73-.9,2.33-5,.54-6.3,5.78-10,8-1.2.54-2.25-.1-3.34-.43-2.9-.89-5.76-2.28-6.28,2.81-.24,2.4-2.49,2.57-4.72,2.06-5.24-1.2-5.69-.77-4.36,4.06.48,1.74.69,3.28-.88,4.48-1.8,1.37-3-.22-4.41-1h0C246.11,184.88,249.31,181.59,246,180.48Z"/><path class="cls-59" d="M274.91,140.59c.3,3.12,2.46,5.68,2.59,8.91.08,1.77,0,3.66-1.38,4.43s-2.68-.74-3.87-1.63c-1.37-1-2.43-3.62-4.41-2.27s-.39,3.57-.07,5.47c.58,3.46,4.19,6.74.26,10.54-2.62,2.54-4.2,2.88-5.74-.78a26.23,26.23,0,0,0-2.33-3.75c-1.71-2.4-3.18-4.89-3-8l0-2c-2.41-3.29-2.39-7.23-2.94-11-.15-4.93-.15-4.93-3.08-4-2.07-.11-3-1.25-2.88-3.26.12-1.82,1.33-2.48,3-2.73a4.82,4.82,0,0,0,2.21-1c1.13-.92,1.58-3.82,3.55-2.16a6.51,6.51,0,0,1,2.57,5.44c-.2,2.51,4.81,8.09,7.22,8.4a2,2,0,0,0,2.19-1.6c1.7-5.44,3.41-1.82,5.13,0A1.1,1.1,0,0,1,274.91,140.59Z"/><path class="cls-60" d="M272,108.54c1.45,1,.86,2.6,1,4-3.57,2.49-3.22,5.4,1.14,9.52A5.1,5.1,0,0,1,276,124.9a8.68,8.68,0,0,1-1.11,7,5.45,5.45,0,0,1-3.91.63c-.61-2.1-.33-4.83-3.6-5.11-.35,0-.65-.6-1-.92,5.33-4.21-2.06-8.58.24-13.44C268,110.16,268.47,108.16,272,108.54Z"/><path class="cls-61" d="M259.93,163.52c-.14,1.56,2.14,3.59.22,4.49-2.94,1.38-3.4-2.34-5.17-3.52q0-3,0-6c-.54-1.38-1.18-3.3.36-3.86s2.15,1.37,2.75,2.74C258.92,159.38,258.94,161.59,259.93,163.52Z"/><path class="cls-62" d="M270.94,132.54c1-1.47,2.59-.88,4-1,2.51.36,3.34,1.61,2.1,4,1.16,2.47.82,4.31-2.1,5.09l-1-1C274.72,136.45,272.4,134.68,270.94,132.54Z"/><path class="cls-63" d="M259.93,163.52c-2.46-2.16-2-5.76-4.09-8.45-1.28,1-.69,2.36-.9,3.45-1.77-1.77-.67-4-1-6l3,1a14.7,14.7,0,0,1,3,8Z"/><path class="cls-64" d="M143,135.52l-7.65,1.62c5.38,2.61,4.92,5,1.26,7.61-.56.4-.41,1.81-.58,2.75-1.59,1.08-2.45-.09-3.26-1.13-3-3.9-5-8.17-3.82-13.25.59-2.56.16-4.32-2.77-4.56s-3.14,1.79-3.07,3.93c.12,3.54-.79,7,.88,10.62a8.4,8.4,0,0,1-.55,7.22c-1.1,1.06-2.39.52-3.63.47a4,4,0,0,1-2.77-1.3,2,2,0,0,1,1-2c3.67-1.53,2.49-4.48.57-5.62-4.88-2.91-5.07-8.26-7.56-12.36,1.32,0,2.65,0,4,0,1.65,0,2.35-1.24,2.63-2.55s-.8-2-2-2.38c-3.38-1.11-4.09-3.2-3-6.59A10.2,10.2,0,0,1,129,113.25c2.42,1.92,5.46,2.06,8.37,2.25,6.62.45,8.77,2,10.71,8.19a9.68,9.68,0,0,0,.66,1.85c2.43,4.57,1.74,6-3.68,5.92C140.84,131.43,140.84,132.77,143,135.52Z"/><path class="cls-5" d="M131,105.55c1.15,0,2.47-.32,3.42.12,6.65,3.12,13.57,2.85,20.57,1.88-3.17,1.84-8.07.94-9.24,6-.23,1-1.41.83-2,.13C140.4,109.58,134.88,108.89,131,105.55Z"/><path class="cls-5" d="M116,100.56c4.25,3.92,9.86,3.74,15,5C124.76,107.7,119.69,106.26,116,100.56Z"/><path class="cls-5" d="M106.35,108.25c-1.06,0-1.8-.48-1.67-1.42.19-1.32.7-2.71,2.27-2.91,1.15-.14,1.84.76,1.91,1.85C109,107.55,107.47,107.76,106.35,108.25Z"/><path class="cls-53" d="M117.06,149.5l3,0c-.63,4.89,3.08,6.77,6.28,9,1.63,1.14,3.33,2.23,4.35,4a5.21,5.21,0,0,0,5,2.69c1.26.12,2.52.21,3.4,1.3,1,3.7-2,1.28-3,2a13.29,13.29,0,0,1-8-2.08c-1.87-1.33-3.82-.8-5.75-.87-1.39-.06-2.93.35-2.81,2s1.52,1.77,3,1.7a57.21,57.21,0,0,1,6.41.22c.85.06,2.27-.49,2.29,1s-1.09,2-2.42,1.92a5.83,5.83,0,0,1-2-.21c-1.86-.75-3.79-1.21-4.49,1.22-.58,2-.92,4.35,1.77,5.54a8.93,8.93,0,0,1,2.13,1.26c.71.6,1.79,1.23.9,2.4a1.49,1.49,0,0,1-2.23.18c-3.38-2.7-6.1-3.22-8.85,1.16-.68,1.07-3.76,2-6,1-4.75-2.1-9.94-3-13.43-7.85-2.57-3.6-5.8-.22-8.51,1.37-2-.31-4.25.81-6-1,1-4.59-2.22-8.54-2-13,2.66,1.43,4,4,4.86,6.62.6,2,1.18,3.61,3.48,3.25s4.82-1.2,4.58-4.23c-.28-3.53.64-4.33,4.37-3.81,6.16.85,9.54-3.89,7.13-9.85-3.28-8.13-3.11-12.45-14-6.16-2.69,1.56-4.64,1.78-6.13-1.81-2.62-6.31-5.58-12.5-8.69-18.58a8.88,8.88,0,0,1-.55-7.56,22.92,22.92,0,0,0,1-8.83c3,2.68,1.13,6.12.65,8.78-1,5.51-.06,9.62,4.51,13.06,2.66,2,2.27,5.7,3.67,8.48.66,1.32-.26,3.67,2.36,3.55,2.25-.1,3.53-1.79,4.46-3.56s-.35-5.33,2.71-5a11.26,11.26,0,0,1,8.39,4.54c1.6,2.21,1.19,5.35,4.44,7C111.08,152.25,113.89,150.74,117.06,149.5Z"/><path class="cls-65" d="M248,186.48c1.5-.17,3.18,1.84,4.5-.28,1.05-1.67-.12-2.8-1.16-3.9-1.52-1.6-.57-3.25.26-4.54,1.18-1.84,3.33-1.73,4.93-.82,3.6,2.08,5.61,2.56,4.71-2.87-.34-2.08,1.62-2.87,3.44-2.41,2.53.63,5.25.92,7.31,2.83v1c-6.71,2.12-11.84,5.79-14.59,12.72C255.48,193,252.56,192.3,248,186.48Z"/><path class="cls-66" d="M74.07,187.49h1c2.66,1.66,5.13,3.87,8,4.84,3.43,1.15,2.33,2.07.77,3.92a22.42,22.42,0,0,1-8.39,5.84c-3.25,1.46-6.74-1-5.66-4.18C71,194.38,70.49,190.05,74.07,187.49Z"/><path class="cls-67" d="M188,189.47a5.28,5.28,0,0,0-3.56,6.59c.7,2.22,1,5.93,4.67,6.38,1.65.21,1.23,1.08.89,2a2.66,2.66,0,0,1-3.95-.06c-4-2.88-4.18,1.72-6,3.08a1.33,1.33,0,0,1,0,2c-3,3-2.28,7.38-3.93,10.9-.44.93.09,2.29-1.06,3-1.12-3.19-1.57-6.45,0-9.55,2-4,1-8.25,1-12.41,0-.66,0-1.31,0-2,2.79-3.17,7-5.31,6.69-10.63-.09-1.65,2-2.48,3.84-2.11C188,187,189.05,187.75,188,189.47Z"/><path class="cls-68" d="M178,238.47c-2.38.18-3.77,2.32-5.89,3-1.07-12.06,4.55-14,12.49-15,2.58-.32,3.57.88,3.5,3.46-.05,2.4-.47,3.75-3.41,3.34C180.87,232.75,178.1,234.06,178,238.47Z"/><path class="cls-68" d="M189,241.42a27.56,27.56,0,0,1-7,7c-3.53-2.48-2.84-6.19-.7-8.27A4.87,4.87,0,0,1,189,241.42Z"/><path class="cls-69" d="M196,229.42a13.31,13.31,0,0,1-4,10C190.1,234.14,191.08,231.69,196,229.42Z"/><path class="cls-70" d="M282,166.5l1-2c-.5-.49-.86-1.27-.49-1.74,3.33-4.32,1.78-8.78.51-13.25v-1a7.28,7.28,0,0,0,1.9-7.21c-1.13-4.6-.24-9.47-1.88-14a3.81,3.81,0,0,1,.74-3.71c3.88.57,2.34,4.49,4,6.42,1.71,5.11,4.8,9.7,5.9,15.52,2.79-1.3,5.52-1.4,7.93.83.45.42-.07.36.42.16,6.58-2.71,11.51,2.11,17.16,3.63a10.24,10.24,0,0,0,2.48,0c1.82.1,3.73-.21,5.23,1.23.78,3.2-1.22,5.58-2.62,8-.91,1.59-2.46,1-3.88.08-5.44-3.58-11.11-4.2-17.13-1.31a16.13,16.13,0,0,1-6.23,1.11C290.76,159.48,287.12,164.47,282,166.5Z"/><path class="cls-71" d="M326.86,151.39l-5.88.07c-5.17-1-6.62-5.61-9.15-9.2-1.21-2.07-5.31-2.09-4.18-5.83,6.59-4.43,7-4.36,10.05,1.8.52-1.61.81-3.19,2.26-4.31,4.28-3.33,5.13-6.32,3.4-11.68a7,7,0,0,1,.47-6.2c2.73-3.08,2-6.65,1.47-10.2.34-1.5,1.16-2.13,2.68-1.53,3.74,4.83,1.65,10.3,1,15.26-.57,4.55-1.05,8.5,2.27,12.07s1,7.22.65,10.88c-.08,2.18-2.65,3.58-1.92,6Z"/><path class="cls-53" d="M132.25,180.34c-2.12-.52-2.79-2.53-3.48-4.22-.43-1.05,1-1.67,1.92-1.48a3.8,3.8,0,0,1,3.26,3.71A1.62,1.62,0,0,1,132.25,180.34Z"/><path class="cls-72" d="M199,150.51c4-2.51,5.15-6.64,4.87-10.8-.43-6.48,3.64-10.38,7.18-14.69.6-.72,1.45-1.68,2.51-.78a3.1,3.1,0,0,1,1.24,3.1c-1.23,4,.5,8.59-2.31,12.38a3.82,3.82,0,0,0-.1,4.31c4.57,6.13.67,10.77-2.6,15.46-2.12,3-3.43,6.54-6.15,9.34-2.06,2.11.78,5.09,4.94,5.1,2,0,5.63-1.41,5.55.64-.12,3.31-3.94,1.7-6.15,1.84-4,.26-8,.07-12,.07-2.33-1.94-5.07-.77-7.61-.93a26.54,26.54,0,0,1-6.79-1c-3.21-1.05-2.38-2.42-.59-4.06a99.74,99.74,0,0,1,10-2c1.67-1.4.76-3.32,1-5C192.53,158.2,197.12,155.09,199,150.51Z"/><path class="cls-73" d="M188,189.47c-1.27-3.11-4.53-2.26-4.31-.45.78,6.41-2.75,8.73-7.67,10.45,1.5-2.85,1.76-6.24,4.1-8.74,1.75-1.86.25-3.24-1-4.66-1.48-1.74-1.95-4.23.32-4.92,1.84-.56,4.9-3.31,6.48.55.68,1.66,1.7,1.75,3,1.78.95,1.6,2.39,3,3.8,1,2-2.82,4.71-1.76,7.21-2,.86,4,1.36,8,0,12-.59,3.32-4.38,2.55-6,5.1.62-4.15-3.51-4.6-4.71-6.95.62-1,1.25-.83,1.82-.44.87.59,1.83,1.22,2.41-.14s-.72-1.77-1.58-2A28.09,28.09,0,0,0,188,189.47Z"/><path class="cls-55" d="M191,168.5c-2.84,3.12-6.6,1.65-10,2,2.45-1.2,4.87-2.48,7.38-3.57C189.76,166.34,190.45,167.44,191,168.5Z"/><path class="cls-74" d="M274.94,265.39v-3.06c1.34-2,1.92-3.7-.72-5.26a4,4,0,0,1-2.23-3.65c2.6,3.23,4.08-.23,6-1,3.36,2.47,7.24,2,11.05,2,1.63,0,3.81-.43,4.34,1.52.66,2.39-1.86,2.25-3.24,2.87s-3,1.75-4.14,1.43C280.72,258.82,277.55,261.37,274.94,265.39Z"/><path class="cls-75" d="M257,233.42c-3,.25-6.11-.58-9,1-.38-.54-.79-1.06-1.14-1.62-2.56-4.05-2-5.13,2.66-5.32,1.16,0,2.32,0,3.48,0C258.18,226.86,256.82,230.63,257,233.42Z"/><path class="cls-76" d="M186.05,204.41l3.95.06a7.78,7.78,0,0,0,8,3c1.57,1.25,4.89.56,4.8,3.51-.1,3.16-3.17,3.42-5.44,4.21-1.38.47-3,.35-4.27,1-1.44.73-2.64,1.68-3.73-.2-.47-.82-1.15-2.13-.82-2.68.95-1.6,2.31-.07,3.52,0a10,10,0,0,0,1.84-.37c-2.35-3-5.3-4.64-8.16-6.32C183.42,205.23,184.31,204.89,186.05,204.41Z"/><path class="cls-76" d="M180,209.46l0-2c2.55.84,4.31,2.43,4.36,5.24a4.82,4.82,0,0,1-1,3.12c-.75.82-1.79-.17-2.63-.56-1.39-.64-1.27-1.67-.71-2.86C180.46,211.47,181.46,210.44,180,209.46Z"/><path class="cls-77" d="M202,182.51c5.5-.46,10.92,2.06,16.51.14,2.62-.9,4.75,3.42,7.86,1.25.47-2.1-2-.84-2.48-2,3.59-3.82,5.27,1.83,8.12,1.56a12.35,12.35,0,0,1,5.3.93c1.62.56,3.51,1.31,3.11,3.16s-2.48,1.81-4.15,1.91a6.47,6.47,0,0,1-4.15-1.24c-4.16-2.84-7.9-1.64-11.65,1.18-1.51,1.13-.11,2.05-.42,3-5.69-2.35-11.3-4.9-16.9-7.45A2,2,0,0,1,202,182.51Z"/><path class="cls-78" d="M202,182.51c1.88,2.71,5.07,2.88,7.79,3.89a28.58,28.58,0,0,1,10.26,6l0,.06c.63,1.14-.41,1.42-1,1.94l-1.95.08c-1.38-.21-3,.47-4-1.05-.09-.71,2-.43.85-1.27-1.87-1.42-4.31-1.3-6.54-1.53,1.68,1.33,5-.65,5.69,2.8-3.61-.3-5.46,2.49-7,4.77-2.52,3.68-3.51,3.13-4.53-.72-.28-1.05-.3-2.35-1.47-3l-1.6-.84c2.4-3.44-.24-7.62,1.62-11.14Z"/><path class="cls-21" d="M219,194.42l1-1.94c1.43.06,3-.32,4.49,1.25C222.62,195,220.71,194.25,219,194.42Z"/><path class="cls-79" d="M331.92,142.52a4.41,4.41,0,0,1-.29-3.75,6.36,6.36,0,0,0-2-7.11c-3.38-3-3.38-7-2.18-11a31.79,31.79,0,0,0,.45-16.14c-.25-.23-.33-.46-.24-.68s.17-.34.26-.34c2.94,2,4.53,4.34,2.76,8.06-.46,1-.38,3,.27,3.52,1.46,1.14,1.89-1.17,3-1.58.93,1.72,3.93,1.39,4,4a3.41,3.41,0,0,1-2.63,1.1c-4.81-.22-4.5,2.26-2.93,5.44.31,4.12,4,1.32,5.62,2.71a5.32,5.32,0,0,1,3,1.74c2.45,1.19,3.44,2.27,3.63,5.82.26,4.93-2.22,10.77,2.35,15.13-1.16,0-2.33,0-3.49,0-3.68.21-4.29-1.64-2.32-4.15,2.22-2.84,1.76-5.93,1.76-9s-1.59-3.06-4-2.17C334.92,135.63,333.55,139.14,331.92,142.52Z"/><path class="cls-80" d="M341,128.54c-1.06-.32-2.35.13-3.16-1s-2.1-.48-3.16-.52c-1.77-.07-2.33-.78-1.54-2.42a3.8,3.8,0,0,1,2.91-2c2.45-1.09,4.93-2.28,6.72,1C343.18,125.68,343.27,127.55,341,128.54Z"/><path class="cls-81" d="M358.93,143.53a6.23,6.23,0,0,1-1.36.59c-2.07.37-5.1,1.43-5.72-.86-.56-2.08,2.12-4.27,4.36-4.45,3.24-.26,2.54,2.69,2.72,4.72Z"/><path class="cls-82" d="M288,111.56l2,0c1.5-2.25,4-3.86,4.1-7,0-1,1.11-1.78,2-2,5.27-1.26,10.09-5,16-3.09.26,2.14-1.59,2.16-2.82,2.82-5.27,1.24-7.78,6-11.48,9.2-1.18,1-2,2.57-3.11,3.75-4.14,4.91-4.75,14.51-.94,19.51,2,2.67,4.51,5,8.5,3.1,2.13-1,3.91-.59,2.83,2.3-.62,1.69.73,3.28-.25,4.81-6.92.36-12.57-2.18-14.76-8.12-1.24-3.38-2.38-6.79-3.77-10.1a21.68,21.68,0,0,0-1.7-4.61c-.79-1.53-1-3.83.48-4.5C288,116.26,287.37,113.73,288,111.56Z"/><path class="cls-83" d="M288,111.56c.57,2.34,5,5.6-1.63,6.21-1.74.16-1.44,1.9-1.09,3.18.52,1.87,1.13,3.72,1.7,5.58a3.84,3.84,0,0,1,0,4c-2.09-1.86-1.18-5-3-7-3.19-.24-5.45,3.5-8.91,2l-1.11-3.08-.06-.66c.69-2.73.54-5.56,1.07-8.31C278.78,109.56,283.42,110.87,288,111.56Z"/><path class="cls-83" d="M311.94,99.57c-5.54-.57-10.31,2.08-15.32,3.71a4.77,4.77,0,0,0-1.87,1.36c2.74,5.38-3,4.79-4.81,6.89,2.83-9.81,8.19-13.62,18.23-13.29A13.87,13.87,0,0,0,314,97c4-1.64,7.89.39,10.9,3.57C320.41,102.9,316.19,101.05,311.94,99.57Z"/><path class="cls-84" d="M311.94,99.57c4.41-.66,8.63,1.12,13,1l3,2c0,.33,0,.66,0,1s0,.68,0,1a1.8,1.8,0,0,0-2,2c-1.81,1.73-4,1.36-6.15,1.11-2-4.53-6.27-4.93-10.38-5.62l-.45-.53Z"/><path class="cls-85" d="M273.94,122.52c-5.84-.06-3.62-5.49-5-8.27-1-2.11,2.5-1.3,4-1.74l1,1c1.65,3,.75,6-.06,9Z"/><path class="cls-60" d="M273.94,122.53q0-4.52.05-9l1,0C276.74,116.78,275.93,119.72,273.94,122.53Z"/><path class="cls-86" d="M139,166.52l-4-.05a11.54,11.54,0,0,0-4.66-6c-2.6-1.89-6.34-3.53-5.57-8,6.24-.28,11,3,15,7.09,2.86,3,5.12,3.63,8.22.94.9.46,2.18,1.23,1.64,2.14-3.36,5.6,1.31,5.45,4.42,6.33a25.48,25.48,0,0,0,3.92.52,5.3,5.3,0,0,0-1.5,7.09c2.41,4-.22,3.93-2.62,3.82-3.6-.16-7.13-1.48-10.39-2.66s-2.94-5.32-2.17-8.39C142,166.87,141.14,166.38,139,166.52Z"/><path class="cls-87" d="M336,122.66l-1.9,2a1.7,1.7,0,0,1-2.16-.21c-.53-1.88-4-2.7-2.21-5.34,2.1-3.1,5.45-1,8.18-1.61C338.48,119.7,336.6,121,336,122.66Z"/><path class="cls-88" d="M148,160.51c-2.78,5-4.61,5.2-8.08.78-3.84-4.89-9.59-6.45-14.92-8.77-1.61.29-2.24-.41-2-2-.83-3.59,1.08-7.18-2.11-11.1-1.7-2.1.54-8.32,2.35-12,1.09-2.22,4.65,0,6.84.64,1.65.46.92,2.84.43,4.46-1.9,6.36.94,11,5.52,15,.82.23,2.12-.5,2.31,1,.4,3.28,2,5.71,5.12,6.91C145.9,156.37,145,160.15,148,160.51Z"/><path class="cls-1" d="M254,140.5c.12,3.9,3.51,6.93,2.94,11C251.07,149.15,255,144.18,254,140.5Z"/><path class="cls-89" d="M275.05,125.6c3.21.37,5.06-5.15,8.91-2,.84,6.36,1.62,12.74,2.58,19.09.46,3.09.57,5.69-3.57,5.86-1.92-3.34-3.8-6.7-4-10.67-.07-1.33-.54-2.17-1.93-2.34.3-1.84-.95-2.87-2.1-4C273.69,129.53,276.42,127.61,275.05,125.6Z"/><path class="cls-90" d="M283,149.5c5.26,5,2.53,10,0,15-9.49,0-10.26-.44-12.24-7.39-.31-1.06-1.32-2.31.06-3,.62-.32,1.85.35,2.71.77s1.62,1.15,2.48,1.64c3,1.71,4.23-.09,4.93-2.65C281.32,152.24,280.13,149.93,283,149.5Z"/><path class="cls-91" d="M123,150.53l2,2a12.71,12.71,0,0,0,7.47,7.84c3.3,1.38,3.51,3.32,2.57,6.11-2.49.05-4.36-.58-5.36-3.3-.9-2.46-3.61-3.25-5.63-4.6-3.31-2.21-6.28-4.41-4-9Z"/><path class="cls-92" d="M287,130.53v-4c1.36,1.37,1.54,3.21,2,4.94,2.2,8.52,7,12.44,16,13,2.05-2.63,4.54-4.09,8-3,2.13,3.77,4.23,7.55,8.06,9.93-4,.51-6.91-2-10.08-3.64-1.18-.63-2.44-1.88-3.58-1.13-3.47,2.28-6.23,2.2-9-1.13-1.3-1.55-2.27.52-3.12,1.29-1.49,1.36-3.13,1.52-3-.68C292.36,140.22,287.6,136.08,287,130.53Z"/><path class="cls-93" d="M324.92,116.54c-1.28,1-1.5,2.89-.87,3.55,3.8,4-.35,8.56,1.23,12.64a1,1,0,0,1-1.06,1.26c-5.5-.4-5.81,2.83-4.67,6.79a1.65,1.65,0,0,1-2.36-.59c-2.77-3.64-5-4.55-9.26-3.66-2.13.35-2.57-1.17-3-2.7a25.05,25.05,0,0,1,.16-3.47c-.1-3.85-2.57-5.15-6.62-3.53-3.46,1.38-4.29.8-4.24-2.92a5.1,5.1,0,0,1,.41-2.44,79.77,79.77,0,0,1,8.78-13.16c1-1.17,2.73-2.61,4.34-1.54,1.8,1.19.52,3-.12,4.48a3.74,3.74,0,0,0-.22,3.16c3.73-1.57,7.82-.33,11.79-1.65C322.52,111.66,324.74,112.66,324.92,116.54Z"/><path class="cls-94" d="M324.92,116.54c-1.6-2.54-2.86-4.17-6.62-2.22-3.37,1.75-7.85-.11-11.77,1.67-1.12.51-1.66-1.88-1.08-3.51s2.51-2.73,2.34-4.8c-6.12,1.88-12.83,12.68-11.9,19.73,2.3-3,5-3.8,8.16-2.13,3.83,2,2.21,5.28,1.89,8.25-1.42.49-1.94-.7-2.64-1.47-1.64-1.77-.8.82-1.43.79a3,3,0,0,1-2.68.65c-3.22-1-.41,1.6-1.25,2-3.88,2-5.26-.92-6-3.53-1.63-6-1.89-12,2-17.42,1.84-5.42,7.94-7.17,10.43-12.13.83-1.64,3-.57,4.56-.92l0,.14a1.17,1.17,0,0,1-.35,1.28c3.73.6,6.2,3.71,9.67,4.79.3.09.47-.74.7-1.14l7,0C328.24,110.13,327.22,113.4,324.92,116.54Z"/><path class="cls-95" d="M294,114.55c-1.52,5-2.71,10.11-1.64,15.36.58,2.91,1,6.53,5.65,4.65.93-1.44,2.9-.83,4-2-.22-1.1-2.82-1.45-1.17-3.05,1.28-1.25,2,.4,2.69,1.08a29.38,29.38,0,0,1,2.5,2.94,3.12,3.12,0,0,0,2,3c-.22,3.55,4.31,2.36,5,5l-8,3c-3.75-1.77-1.67-4-.2-6.35-3.31,1.51-6.15,3.15-9.43.13a13.75,13.75,0,0,1-4.73-8.38C289.74,124.33,288.6,118.75,294,114.55Z"/><path class="cls-96" d="M213,193.45c-2.83-1.69-6.44-.72-9.19-2.68,4.44-2.25,7.1-1.84,13.39,2.08-1.29,1.13-2.82.34-4.2.6Z"/><path class="cls-22" d="M331.94,124.5l2.15.21c-.79,3.57,3.59.44,3.7,2.85a36.19,36.19,0,0,1-5.32-.14C330.09,127,329.65,125.92,331.94,124.5Z"/><path class="cls-97" d="M318.93,106.57c.32.88,2.27,1.23.75,2.72-1.24,1.23-2,.41-2.91-.37-3.19-2.6-6.31-5.43-11-4.38,0-2.51,2.57-1.48,3.13-2.9,2.76.44,5.38-.63,8.44,1.42C319.44,104.45,317.14,106.2,318.93,106.57Z"/><path class="cls-98" d="M301.92,132.56c-.69,1.9-2.28,2.05-4,2-1.9-.26-3.18-1.22-4-3.67C296.92,131.56,299.26,133.08,301.92,132.56Z"/></svg>