<svg id="Layer_1" data-name="Layer 1" xmlns="http://www.w3.org/2000/svg" viewBox="0 0 400 275"><defs><style>.cls-1{fill:#ead39f;}.cls-2{fill:#dcbc80;}.cls-3{fill:#dfc38f;}.cls-4{fill:#dbb77b;}.cls-5{fill:#dec28e;}.cls-6{fill:#d2be98;}.cls-7{fill:#e4cc9d;}.cls-8{fill:#d1b27d;}.cls-9{fill:#e3c48d;}.cls-10{fill:#c8a873;}.cls-11{fill:#dbc294;}.cls-12{fill:#c39f63;}.cls-13{fill:#d5b177;}.cls-14{fill:#d5b47d;}.cls-15{fill:#d1ad70;}.cls-16{fill:#ad8048;}.cls-17{fill:#d0b78d;}.cls-18{fill:#dfca9b;}.cls-19{fill:#e7d7b6;}.cls-20{fill:#e1c493;}.cls-21{fill:#c6ab80;}.cls-22{fill:#e0c697;}.cls-23{fill:#ddbc83;}.cls-24{fill:#d2b27c;}.cls-25{fill:#b59763;}.cls-26{fill:#d9c396;}.cls-27{fill:#ddcca5;}.cls-28{fill:#e6ce9f;}.cls-29{fill:#d2af76;}.cls-30{fill:#c3a170;}.cls-31{fill:#d1b689;}.cls-32{fill:#e3cba1;}.cls-33{fill:#e8cd9b;}.cls-34{fill:#d3b47f;}.cls-35{fill:#d5bb8b;}.cls-36{fill:#a58861;}.cls-37{fill:#d5b680;}.cls-38{fill:#d8c7a6;}.cls-39{fill:#c4a36b;}.cls-40{fill:#916b40;}.cls-41{fill:#cba86d;}.cls-42{fill:#dec496;}.cls-43{fill:#b59b70;}.cls-44{fill:#c6ab7f;}.cls-45{fill:#ad8e62;}.cls-46{fill:#b29361;}.cls-47{fill:#9b8059;}.cls-48{fill:#ab9b7e;}.cls-49{fill:#3d3021;}.cls-50{fill:#9f865e;}.cls-51{fill:#97805a;}.cls-52{fill:#af9163;}.cls-53{fill:#bea981;}.cls-54{fill:#645333;}.cls-55{fill:#e4c386;}.cls-56{fill:#d4bf95;}.cls-57{fill:#e1c48f;}.cls-58{fill:#d8c38f;}.cls-59{fill:#dcc28e;}.cls-60{fill:#dab77a;}.cls-61{fill:#e1c38a;}.cls-62{fill:#d9b273;}.cls-63{fill:#d4ad6e;}.cls-64{fill:#cdb183;}.cls-65{fill:#cdb381;}.cls-66{fill:#d1b682;}.cls-67{fill:#bd9c63;}.cls-68{fill:#ebd6ad;}.cls-69{fill:#bba076;}.cls-70{fill:#caaa6d;}.cls-71{fill:#c4a673;}.cls-72{fill:#b4986c;}.cls-73{fill:#b1925f;}.cls-74{fill:#d8b880;}.cls-75{fill:#d4b684;}.cls-76{fill:#cea567;}.cls-77{fill:#d8b67b;}.cls-78{fill:#482d17;}.cls-79{fill:#e9cf9c;}.cls-80{fill:#b38f54;}.cls-81{fill:#e2c794;}.cls-82{fill:#b7894d;}.cls-83{fill:#d3b688;}.cls-84{fill:#ad8c5f;}.cls-85{fill:#93744b;}.cls-86{fill:#d8bc8c;}.cls-87{fill:#cba666;}.cls-88{fill:#cfb077;}.cls-89{fill:#e9cc95;}.cls-90{fill:#a7834c;}.cls-91{fill:#e1c084;}.cls-92{fill:#c8aa73;}.cls-93{fill:#e2c38b;}.cls-94{fill:#b59867;}.cls-95{fill:#d8b476;}.cls-96{fill:#bd9558;}.cls-97{fill:#d6b67d;}.cls-98{fill:#bc965a;}.cls-99{fill:#a7793f;}.cls-100{fill:#ae8449;}.cls-101{fill:#cfae7a;}.cls-102{fill:#aa7b43;}.cls-103{fill:#b69354;}</style></defs><path class="cls-1" d="M63.94,179.39c-.64-5.34-.65-10.34,2.41-15.38,1.62-2.66,2.32-6.61,2.46-9.82.26-6.19,3.5-11.88,2.46-18.21-.29-1.78,1.69-2.73,2.79-3.92,2.84-3.07,3.37-6.17-.17-9-1.91-1.49-2.27-3.56-3-5.53,1.69-.86,2.79.47,4.09,1.09,8.73,5.09,8.91,13.57,8.32,22.07-.32,4.6.46,6.39,5.17,5.95,6.63-.63,13.28-1.52,19.32,2,4.64,2.68,10.09,3.63,14.3,7.09,1,1.4-1.25,2.54-.28,3.94a47.55,47.55,0,0,0,16.67,14.06c.76.36,1.9,1.21,1.68,1.61-2.67,5,4.37,6.58,3.74,10.79,1,3,3.28,5.33,4.4,8.27.76,2.61,0,4.07-3,3.71-2.18-.95-5.15-2.71-5.18-4.25-.06-3.92-3-3.07-4.84-4.06a9.88,9.88,0,0,1-2.09-1.33c-2.54-2.3-2.22-3.77,1.22-5.66a5.79,5.79,0,0,1,3.39,2.26c-.36-.9-1.19-1.33-1.9-1.89a16.43,16.43,0,0,0-2.73-1.86c-1.05-.41-2.24-1.65-3.15-.86-1.33,1.18.67,2.21.77,3.42-.27,4,0,7.12,4.75,8.88,3.48,1.3,3.06,4.67-.3,6.59-.15.08-.33.19-.47.15-3.22-.77-1.54,8-6.23,3.44-2.26-2.19-5.68-.59-7.58-3.7-1.2-2-7.93-.22-10.27,2.13-.77.77-1,2.21-2.5,2-1.18-4.75-5-2.95-7.79-2.8-2.08.12-4.15,1.08-6.35.81-.31-2.17,1.68-2.51,2.82-3.53.47-.42,1.27-.26,1.57-.94a1.86,1.86,0,0,1-1.79-.51c-.49-4.85-3.65-8.39-6.41-11.91a145.06,145.06,0,0,1-9.2-13.84c-1.94-1.2-4.07-2.07-5.22-4.31s-2.73-1.92-4.33-.31a17.7,17.7,0,0,0-4.78,11.05C66.56,178.82,66.55,180.75,63.94,179.39Z"/><path class="cls-2" d="M202,104.45c7.1-2.41,14-1.37,20.87,1.12-4.2,2.61-9.33,2.6-13.64,4.87-3.09-.73-5.7.54-8.46,1.72a25.8,25.8,0,0,1-8.16,1.68c-.47,0-1,.06-1.43.07-6.68,1-9.55,7.32-5.75,13,2.09,3.14.95,5.15-2,6.19-2.41.85-4.52,1.88-5.87,4.29,4.6.48,5.06,5.13,6.67,8.53,1.15,2.41-2,3.36-3.34,4.91-3.64.53-5.88-1.55-7.65-4.27a10.7,10.7,0,0,0-2.89-3.29c-8.2-5.64-10.41-8.9-12.66-18.56-3.61,1.22-1.3,8.33-7.05,7.18-2.69-.09-3.31-2.29-4.37-4.16-3.25-5.68-4.39-5.94-10.48-4-4.88,1.58-9.86,2.93-15.08,1.32-1.8-.55-4-1.89-5,1-.76,2.17-1.35,4.62,1.73,5.83a2.67,2.67,0,0,1,1.48,1.91c-.5,5.28-1.35,6.17-6.08,6.4-.72-4.23-3.34-7.45-5.78-10.76-.59-.79-1.23-1.75-2.38-1.35s-.92,1.57-.94,2.54c-.14,6.43-1.48,7.39-6.66,4-2.71-1.81-5.15,0-7.62-.65-1.14-3.3-1.54,1.11-2.45.24-3.26-.13-3.8-2.6-4.12-5-.27-2-.81-4.11-.3-6.2,1.26-1.8,2.59-.49,3.94-.11,6.18,1.73,8.91.48,11.66-5.29.29-.6.61-1.17.92-1.76,2.51-4.85,2.51-4.85-2.21-7.39L109,106.5c3.33-1.31,5.8.23,7.93,2.53a8.74,8.74,0,0,0,10,2.51,9.55,9.55,0,0,1,6.31,0c9.42,3.08,17.92,1.62,25.27-5.3,1-1,2.45-1.86,3.59-1.2,5.44,3.14,11,0,16.53.65,7.06.87,14.14-.41,21.22-.21A2.84,2.84,0,0,0,202,104.45Z"/><path class="cls-3" d="M134,180.49l2,2a1.21,1.21,0,0,1-1,1c-1.23.05-2.48.43-2.61,1.73-.16,1.7,1.28,2.6,2.61,3.19,1.91.84,3.94,1.41,5.93,2.09-2.4,4.53,4.05,3.86,4.08,7,3.19,2.7,1.68,5.94,1.05,9.08a10.26,10.26,0,0,0-1.14,4.77c-.38,5.46-1.63,10.64-5,15.12-4.36-2.34-10.15-2.59-12-8.59-.67-2.2-4.27-1-4.87-3.61a3,3,0,0,0-2.73-2.75c-2-.27-3.31-2.07-5.26-2.23-2.17,1.56.75,5.57-3.14,6.18-.18-1.46.72-3.17-1.76-3.88-5.86-1.68-5.82-1.8-2.78-6.85l.75-1.27c1.16-6,6.81-5,10.67-6.63a3.52,3.52,0,0,1,4.25,2.52c.19.77.93,2,1.59,1.42,4.61-4.14,4,1.15,5.62,3.74.91-3.44.93-7.13,5.41-6.4,1,.17,1.23-.85,1.22-1.74,0-1.31-.63-2.55-1.79-2.71-6.65-.95-6.26-5.34-5.16-10.15C130.71,181.63,132.34,181,134,180.49Z"/><path class="cls-4" d="M96.87,108.44c6.53.33,7.08,1.43,3.64,7.33-.41.71-.78,1.46-1.17,2.18-1.54,2.89-1,7.41-6.69,6.76-3.35-.39-6.74.2-9.58-2.17-5.35-.62-8.34-4.88-12.18-7.85A115.51,115.51,0,0,1,59.28,95.57c-6-12.06-1.87-22.88,4.71-33.27,1.73-2.74,4.86-2.76,7.47-3.51,5.42-1.56,11-2.37,16.65-1.24a17.38,17.38,0,0,1,9.94,4c-3,2-6,.54-8.92,0-1.59-.32-2.3-.51-2.56,1.38-.23,1.62-1.72,2.26-3,2.94-1.63.83-.6,1.88-.21,2.87-3.91,2-8.15,3.51-11.26,6.85-.76-.24-.7-2.12-1.12-1.47-1.3,2-4.81-.09-5.27,3.52a28.44,28.44,0,0,0,1.17,11.77c.61,2.07,1.33,4.1,2.07,6.13.51,1.58,1.52,3.11,1.63,4.69.55,7.49,6,10.9,11.54,14.19,2,1.2,3.68,2.83,5.57,4.17,2.28,1.64,4.3,2,5.29-1.41a3.72,3.72,0,0,1,.74-1.83c3-2.53,1.86-4.63-.59-6.64Z"/><path class="cls-5" d="M202,104.45c-.39.52-.91,1.55-1.14,1.49-5.54-1.49-10.53,2.55-16.32,1.19-4.35-1-9.38-1.77-13.86,1-2,1.23-3.81-.18-5.59-1-3-1.36-4.69-.85-7.51,1.67A22,22,0,0,1,139,114.3c-4.89-.85-9.5-2.91-14.71-.89-2.92,1.14-5.74-.33-7.85-2.92-1.88-2.32-4-4.55-7.47-4,19.71-4.85,39.46-8.59,59.79-3.62C179.69,105.57,190.86,104.63,202,104.45Z"/><path class="cls-6" d="M293,168.53c-4.16,3.94-7.63,8.55-12.34,12a12.16,12.16,0,0,0-4.79,7.27c-1,4-4.1,6.73-7.08,9.3-3.14,2.7-3.56,5.32-.76,8.39-2.76,1.29-3.85-.69-4.8-2.6a14.6,14.6,0,0,1-1.27-5.18c-1.78-2.27-4.81-3.22-6.24-5.86-2.3-3.45-.21-4.77,2.77-5.39,2.4-.5,4.91,0,7.35-.33,1.53-.18,3.67-.06,2.56-2.79a3.89,3.89,0,0,1,.05-2.81c.33-.58.69-1.28,1.29-1.44,4.22-1.12,6.18-4.41,7.85-8,5.91-1.79,11.29-4.33,14.92-9.72.91-1.36,2.79-1.73,4.44-2,4.57-.79,8.32-3.47,11.72-6.18,2.43-1.93,4.39-2.53,7.14-1.74,1.58.46,3.37.38,4.84,1a8.86,8.86,0,0,0,9.54-1.37c1.85.53,4.84-.15,3.79,3.51-2.48,1.39-5.58,1.15-7.86,3a6.63,6.63,0,0,1-3.37.53c-5.88-.26-11.81-1-15.71,5.19-1,1.65-3.59,2.13-5.46,1.58C297.5,163.7,295,165.39,293,168.53Z"/><path class="cls-7" d="M82.05,169.5c3.54,7.33,8.47,13.73,13.59,20,1.85,2.25,1.21,4.62,1.42,7-8.25-.77-14.28,4.3-20.06,8.72-3.45,2.63-7.63,5.89-8,11.22a13,13,0,0,0-6.63,5.27l-.63-.31a6.87,6.87,0,0,1-.77-1.16c-1.69-2.43-3.45-4.94-6-6.34-4-2.15-4-4.7-1.67-8,3.69-4.24,7.67-8.24,10.47-13.19.72-1.29,1.53-2.63,3.38-2.45,2.86,3.18,1,5.86-1.07,8.35s-4.72,4.68-6.92,7.17c-.77.87-1.69,1.91-.9,3.09s2.1.56,3.15.11a19.69,19.69,0,0,0,6-3.56c3.61-3.53,8.24-5.53,12.19-8.53a28.19,28.19,0,0,1,6.12-3.4c2.08-.78,3-2.3,1.72-4.17-1.43-2.13-1.73-5.59-5.48-5.42-1.34.06-2.45.84-3.7,1.2a4.52,4.52,0,0,1-2.07,0c-2.3-1.91-5.29.7-7.6-1.14-.84-3.37,1.89-4.48,3.84-6.11C75.62,175.14,79.67,173.28,82.05,169.5Z"/><path class="cls-8" d="M263,196.52c1,3.37-.15,7.91,5,8.93,1.47.76,3.19,1.16,4,2.83,2.62,2.76,5.21,5.55,7.64,8.48,3.85,4.63,5.35,9.78,3.71,15.69-2.78,1.27-4.94,4.7-8.73,2.59-.72-1.67,1-2.67,1.19-4.14-4.62-.88-6.18,4.07-9.8,5-3,0-5.58-1.51-8.38-2.17-2.59-.62-6-2.34-4.76-6.54,4.58.18,6.52-2,6-6.54.32-2.58,2-2.42,4-2.28,2.35.18,5-.19,6.06-2.54s-1-4-2.42-5.55A39.55,39.55,0,0,0,261.7,206c-4-3.26-4.08-4.09-1.31-8.71C261.12,196.61,261.88,196,263,196.52Z"/><path class="cls-9" d="M54.08,206.46c-2,3-1.77,4.7,1.82,6.68,2.61,1.43,5.65,3.6,6.14,7.32-1.86.11-3.73-.33-5.59.09-6.27-.38-6.29-.38-7.23,6.15-.25,1.71-.74,3.18-2.6,3.76-3.94.32-5.5,2.27-4.57,6.25a29,29,0,0,1,.37,8.32c-.1,1.73.17,3.72-2,4.61-2.85-2.78-1.31-6.19-1.48-9.41-3.67,0-4.22,4.73-7.61,5.3-1.15-1.44-.77-2.88-.39-4.32,1.59-9.8,3-19.65,7.06-28.86,2,1,3.18.11,4.45-1.63C45.3,206.81,49.4,205.68,54.08,206.46Z"/><path class="cls-10" d="M158.1,256.33a2.39,2.39,0,0,1,1,.17c1.27,1,3.33,1.61,3,3.5-.31,1.68-2.32,2.15-3.78,2.85a12.87,12.87,0,0,1-4.31.81c-1.16.14-3.05-.58-3.09,1.4,0,1.63,1.42,2.41,3,2.83,3.83,1.05,3.83,1.08,4.16,3.27-3.8,0-7.61.07-11.41,0-4-.05-7.54-.53-10-4.7-1.69-2.82-5-4.7-7.54-7a42.53,42.53,0,0,1,.13-12.94c3.09-2.2,1.63-4.7.44-7.18a2.71,2.71,0,0,1,2-3.37c5.39.2,7.11,1.78,7.23,7,.07,3.09.31,6.2-.81,9.25-.76,2.08.32,3.9,1.84,5.25.91.8,1.32-.46,1.88-1,1.6-2.26,3.84-2.18,6.25-1.91A73.41,73.41,0,0,1,158.1,256.33Z"/><path class="cls-11" d="M253.06,227.36c1.45,3.12,2.18,6.79,7.4,5.07,1.37-.45,3.68,1.95,5.56,3a1.91,1.91,0,0,1,.43,1.28c-.33,1.83-.17,3.72-.65,5.53a2.55,2.55,0,0,1-.84,1.11c-3.47-8.32-14.93-14.26-24.72-12.81a10.35,10.35,0,0,1-1.48-.38c-8.65-.92-13.14,3.05-13.46,11.55-.16,4.22,1,8.59-1.08,12.65-3.06-.15-2.39-2.64-2.49-4.35-.25-3.87.24-7.42-3.7-10.52-2.52-2-1.94-6.77-3.2-10.17,1.26-2.47,2.62-1.16,3.66.07,2.89,3.41,4.68.26,6.53-1.14,2.48-1.87.23-3-1-4.2s-2.17-2.15-1-3.82c1.57-1.09,3.14-.49,5,.08-2.34-3.2-8.41-3-7.39-8.67a1.55,1.55,0,0,1,1.21-.59c2.9,1.47,5.53,3.4,8.44,4.86,1.32.19,2.58,3.27,4,0a7,7,0,0,1,5.77-.25,3.35,3.35,0,0,1,2.41,3.4c-.06,2.08-1.68,2.07-3.44,2.12,4.14,2.08,8.15,3.71,12.73,1.76a1.62,1.62,0,0,1,1.75.67A3.2,3.2,0,0,1,253.06,227.36Z"/><path class="cls-12" d="M93.1,108.69c1.38,2,5-.56,5.33,2.11.16,1.33-2.3,3-3.51,4.5a5.45,5.45,0,0,0-.79,1.77c-1.46,5.08-3.65,5.81-7.69,2.26a51.68,51.68,0,0,0-12.65-8.47,3.91,3.91,0,0,1-2.24-2.52c-1.22-4.24-2.33-8.51-3.48-12.78-.69-2.91-1.53-5.8-.93-8.84,2.44-3.19,2.71.06,3.19,1.27,1.49,3.73,3.22,7.21,6.84,9.35C81.11,103.05,85.9,107.56,93.1,108.69Z"/><path class="cls-13" d="M54.08,206.46c-4.44,1.74-9.88,1.26-12.18,7.32-1,2.59-3.21,1-3.89-1.43.05-7.84,4.66-12.5,11.1-15.88,3.3-2.59,6.7-4.82,7.69-9.61.82-4,5.05-6.07,8.76-5.53,1.82.27,3.15.92,3,3.07.16,2.18.11,4.31-1.53,6C62.74,195.79,59.46,202,54.08,206.46Z"/><path class="cls-14" d="M319,88.52c6.14,3,12.74,5,18.26,9.21,1,.79,2.17,1.48,2.6,2.82-4.66.22-8.61-2-12.65-3.78-1.46-.64-2.61-2-4.4-1.81-5.36.85-10.83.82-16.13,2.34-4.67,1.34-9.25,2.15-10.87,7.89-.61,2.16-3.19,3.21-5.52,3.83s-4.89.91-7.21,1.83-4.71.6-6.24-1.52c-1.68-2.32-3.6-2.59-6-1.47-2.07-.91-3.56-2.15-2.65-4.73a28.27,28.27,0,0,1,13.13-1.76c4.51.61,7.29-1.21,10.45-4A34.38,34.38,0,0,1,319,88.52Z"/><path class="cls-15" d="M209,109.55a28,28,0,0,1,13.85-4c.81.93,1.92.83,3,.84,4.95-.82,10,.12,14.93-.76,2.66.51,4.19,2.38,5.43,4.57,0,2.35-1.62,2.1-3.11,1.89-1.3-.19-2.49-1-3.82-1-1.79,0-4-.5-5.18.92-1.32,1.62.18,3.48,1,5,1.11,2,1.72,3.78.88,6.06-1.2,3.27,1.68,6.31.8,9.62-5.82,1.56-8.68-1.36-7.62-8.55.45-3.05,1.53-5.77-1.77-7.78-3.54-2.15-6.57-.87-9.7,1.11-4.9,3.08-8.7,2.16-10.67-2.31C205.94,112.7,206.13,110.67,209,109.55Z"/><path class="cls-16" d="M349.1,117.42c3.59,3.91,8.66,5.36,13.07,7.91,2.47,3.49,3.12,7.34,2.89,11.6-.15,2.84-1.47,3.2-3.26,3,1.42.52,3.48.81,3.18,3.52-3.25,2.76-6.76-.24-10.11.46-6.2-.5-7-1.22-7.3-7.38-.15-3-1.18-5.79-1.07-8.77.14-3.7-3.46-3.38-5.34-4.9-.61-.83-.5-1.72.49-1.89,2.7-.46,2.82-2.74,3.54-4.63C346.84,115.44,347.92,116.62,349.1,117.42Z"/><path class="cls-17" d="M265,243.39l.11-1a6,6,0,0,1,3-1.48,3.79,3.79,0,0,1,1.38.09c2.26,1.49,4.12,3.26,4.58,6.14a5.82,5.82,0,0,0,2.16,3.26c.93.85,1.71,2.33,3.27,1.67,1.24-.53,1-2,1.22-3.06,1.29-5.44,0-11.22,2.27-16.52,1.53-8.08-2.78-13.82-7.79-19.23a12.75,12.75,0,0,1-3.14-4.93c8,4.84,13.46,11.25,12.83,21.23-.67,10.42,2.43,20.47,2.82,30.78.08,2.31,1.86,5.66-1.44,6.44a6.67,6.67,0,0,1-7.63-3.44C275.08,255.94,269.42,250.08,265,243.39Z"/><path class="cls-18" d="M221,211.46a5.85,5.85,0,0,0,4.74,5.47c1.89.49,3.6,1.62,3.43,4.12-2.21,1.13-4.07-1.07-6.17-.6l-.7,0c-6.47-1.43-6.88-1-7.19,7.34,0,.23-.07.46-.11.69q1.48,4.41,3,8.82c.26.76.49,2.13.84,2.16,7.51.78,3.05,6.53,4.12,9.91.52,1.63-.57,3.64,1.07,5.08a4.58,4.58,0,0,1,2,3.19c-.13,3,.55,6-1,8.81a90.36,90.36,0,0,1-9-27.68,41.1,41.1,0,0,0-3-11.27c-.46-4.94-2.89-9.29-4.2-14-1.59-5.74-1.85-5.73,4.3-6.47,2.17.18,3.52-1.26,5-2.46,2-1.6,4.2-3.07,7-2.13C225.31,206.14,222.15,208.34,221,211.46Z"/><path class="cls-19" d="M214,208.45h-3c-2.85,0-3.4.91-2,3.63,2.42,4.79,4.44,9.79,4,15.38-2.26-5.87-5.52-11.34-6.12-17.86-.42-4.54-2.87-8-7.71-9.27-5.73-1.53-11-4.41-17.05-5.13a22.51,22.51,0,0,0-6.81-.12c-3.51.61-7.28,1.35-10.35-1.57,3.55-.75,6.55-2.05,8.71-5.4,1.53-2.37,4.47-1.94,6.87-.94,4.59,1.93,9.28,3.59,13.76,5.82a43.71,43.71,0,0,0,16.65,4.5C217,199.16,218.18,203.5,214,208.45Z"/><path class="cls-20" d="M158,271.16c-.13-2-1.12-2.43-3-1.92-1.23.33-2.74.53-3.67-.67-1.19-1.53-3.22-3.14-2.69-5,.62-2.16,3.13-.78,4.78-1.09,1.44-.27,3-.12,4.34-.57,3.12-1,4.41-2.73,1.32-5.39,4.79,2,9.57,3.95,14.87,4.48,2.64.26,5.26,1.56,5,5-.26,3.66-2.9,4.36-6,4.33-1.31-1.25-2.36-3.32-4.48-.77-1,1.25-3.11.72-4.45,1.73Z"/><path class="cls-21" d="M40.12,249.46c1.91-4.07,1.19-8.37.55-12.47-1.09-7.05-.88-7.54,6.39-7.51,2.41,3,1.34,6.49,1.34,9.83-1,5.62.48,11.21.11,16.82-.31,4.66-1.2,5.34-6.73,5.33.93,1.09,3.2-.34,3.14,1.59-.05,1.68-1.32,2.06-2.84,1.42-4.46.19-7.6-1.71-9.29-5.89-.06-.5,0-1.21.39-1.3C37.39,256.32,38.74,252.89,40.12,249.46Z"/><path class="cls-22" d="M242,106.55l-16.15-.14c3.72-2,7.79-.53,11.69-1.12,10.82-1.63,21.24-5.28,32.18-6.12,5-.38,10-.31,14.91-.82,7.38-.76,12.35-6.7,19-9.24A22,22,0,0,1,319,88.52c-8.51.84-18,1.59-23.79,7.47s-11.46,7.18-18.88,6.87c-2.64-.11-5.54.67-8.35.72-2.15,2-5,1.56-7.47,1.79C254.35,105.93,248.23,107.34,242,106.55Z"/><path class="cls-23" d="M68.09,184.51c-3.49-3.78-9.07-2.28-10.51,3.4-1.23,4.86-4.35,7-8.47,8.56,2.43-3.52,6-6,6.46-11.15.32-3.46,4.65-5.17,8.37-5.93,3-2,1.22-5.63,2.86-8.27.89-1.43,1.4-3.16,2.64-4.54,4.33-4.82,4.35-4.88,7.94.4,1.18,1.73,3.25,1.44,4.67,2.52.14,6.68-6.77,6.46-9.94,9.94-1.45,1.59-3.22,2.6-3,5A.65.65,0,0,1,68.09,184.51Z"/><path class="cls-24" d="M124,213.45c.15.81.34,2,1.27,1.78,3.47-.8,4.27,1.45,4.68,4,.25,1.53,1.08,2.8,2.33,2.73,3.68-.2,5.22,2.83,7.65,4.51,0,1.37,1.57,2.67.17,4.09-8.74-1.95-14.55,2.7-14.83,11.55-.11,3.53,1.27,7.34-1.41,10.55-2.14-2.75-5.32-4.11-8.09-6a26.74,26.74,0,0,0,1-6.78c.08-1.82.34-3.62,2.27-4.55,1.22-.33,1.74.57,2.35,1.47a23.18,23.18,0,0,1,1-5.6c.62-2,1.72-3.48,4.11-3.59,1.87-.09,3.33-1.36,5-2.27a25.48,25.48,0,0,0-6.28,1.16,2.71,2.71,0,0,1-3.44-1.11C120.65,223.69,122.31,215.22,124,213.45Z"/><path class="cls-25" d="M123.89,252.63c0-4.83.08-9.65.16-14.48.09-5.16,4.13-6.89,7.92-8.5,2.68-1.14,5.89-3.33,8.16.88a1.9,1.9,0,0,1-.17.94c-.23,5.54-5.17,3.51-8,4.94a3.07,3.07,0,0,0-1.93,3.05,5.07,5.07,0,0,1,0,6c-.64,4.66,1.13,9.52-1.11,14.06C126.63,257.68,124.1,256,123.89,252.63Z"/><path class="cls-26" d="M69,216.4c-1.61-1.75-.89-3.3.45-4.76,4.7-5.11,8.27-11.61,16.06-12.93a5.06,5.06,0,0,0,2.63-1.31c2.77-2.87,5.63-3.86,9-.94.59.51,3.55-1,1.55,1.59-1.12,1.44-3,2.29-4.54,3.4-5,2.38-10,4.91-14.15,8.74a4.48,4.48,0,0,1-3.09,1.31C73.18,211.48,70.8,213.52,69,216.4Z"/><path class="cls-27" d="M210,198.47a37.11,37.11,0,0,1-16.26-4.23c-4.75-2.41-9.76-4.09-14.6-6.22-2.38-1-4.86-.56-5.5,1.7-1.48,5.17-4.83,4.77-8.69,3.8l-2-1.93c0-.23.11-.45.15-.68,1.92-2.33,3-5.24,5.14-7.43,7.54-3.67,13.81.85,20.4,3.18,6.4,2.27,11.3,7.72,18.32,8.7C208.31,196,210.17,196.26,210,198.47Z"/><path class="cls-28" d="M88.11,57.55c-6.26.19-12.39.62-18.51,2.5-3.51,1.08-5.12,3-6.49,5.91-2.48,5.35-5.72,10.29-6.1,16.53-.43,7.15,3.12,12.91,6.58,18.26,2.92,4.54,4.49,9.94,8.48,13.8.48,1.73,3.46,2.47,2,5l-3.22-2c-5.6-8-12.5-15.27-14.19-25.6-1.59-9.71-.54-18.83,4.45-27.33a12.29,12.29,0,0,1,8.08-6.11C75.47,57.1,81.66,55.16,88.11,57.55Z"/><path class="cls-29" d="M83.33,68.72c-1.18-.31-3,.22-3-1.73,0-1.61,1.2-2.22,2.66-2.39,2.23-.26,3.29-1.14,2.44-3.64-.55-1.62.52-3.08,2-1.82,3.25,2.77,7.15,1.53,10.66,2.44a19.21,19.21,0,0,1,7.39,2.8c1.16.71,3.49.63,3,2.6s-2.63,1.67-4.23,1.68C97.27,68.72,90.3,68.71,83.33,68.72Z"/><path class="cls-30" d="M349.1,117.42l-4.07-.9-.48-.43c-.49-1.87-.18-3.86-.89-5.7-.37-1.27-.77-2.55-2.29-2.84a5.78,5.78,0,0,0-2.8.64c.51.43,1.22.57,1.57,1.25a2.24,2.24,0,0,1,0,2.29c-2.27,1.43-4.85,1.83-7.42,2.25a2.17,2.17,0,0,1-1.28-.54c-1.8-1.86-1.51-4.35-1.58-6.55a12.49,12.49,0,0,0-5.58-10.33c-.79-.84-1.89-1.55-1.33-3l16.93,7C345.45,104.81,347.64,110.91,349.1,117.42Z"/><path class="cls-31" d="M225,266.42c-.85-3-.08-6.05.09-9.07,4.55,3.69,9.76,4.34,15.33,3.34a4.16,4.16,0,0,0,3.56-3.93c3.24.57,7.12-.39,8.93,3.67-.79,1-2,1-3.06,1.29-3.24.89-6.81,1.59-3.33,6.21a2.23,2.23,0,0,1-.76,3c-5,1.38-9.63-.77-14.45-1.17-1.44-.11-2.82-.86-4.32-.37Z"/><path class="cls-32" d="M42.08,264.47c.72-.35,2.07-.75,2.05-1.05-.15-2-2.24-.28-3.19-1.74,5.31-.14,6.64-3.07,6.22-7.87s-.07-9.57-.06-14.36c.85-.8,1.64-1.79,3-1-2.07,6-1.78,11.35,3.93,15.43a11.33,11.33,0,0,1,2.88,3.41c2.6,4.34,1.26,7.17-3.67,7.07C49.52,264.28,45.81,266.69,42.08,264.47Z"/><path class="cls-33" d="M40.12,249.46c1.73,6.39-2.7,7.84-7.33,9.12-3.95-5.43-3.94-11.29-1.84-17.36.12,1.13.24,2.27.48,4.51,2-4.07,4-7,8.69-7.25Z"/><path class="cls-34" d="M132,236.41a2.91,2.91,0,0,1,3.14-1.89c2.65.47,3.77-1.17,4.82-3.05-.05,3-.13,6,1.15,8.84a21.63,21.63,0,0,0,4.34,7.57c2.16,2.55,1.87,4.94-1.24,6.32-2.06.91-2.76,2.08-2.22,4.15-.79,1.4-1.78,3-3.06.62-1.46-2.66-4.05-4.79-1.7-8.88,1.43-2.49.48-6.53.11-9.82C137,237.4,134.28,237,132,236.41Z"/><path class="cls-35" d="M50.11,238.45l-3,1q0-5,0-10c.94-.67,1-1.65,1-2.67.45-8.32.74-8.56,9-7.35-.23,2.78-1.08,5.5-1,8.32l0,.66Z"/><path class="cls-36" d="M239.83,229.46c.13.37.27.75.41,1.12l-.53,1c-1.53,6.21-1.09,12.52-.92,18.82l1.31,3.74c.47,1.12-.25,1.53-1.09,1.87-6.18-.83-7.3-2.05-7.41-8.11a20.58,20.58,0,0,1,1-7.78,7.42,7.42,0,0,0,.41-4.33C231.62,229.14,232.59,228.27,239.83,229.46Z"/><path class="cls-37" d="M112,215.44c1.83-1.59,1-3.71,1-5.6.06-2.68.46-3.93,3.31-1.89,1.42,1,2.72,2.52,4.73,2.51.2,3.78-2.56,6.36-4.1,9.34-2.22,4.3-2.85,8,.64,11.78.31,2.36-.11,3.86-2.84,2.19a5.08,5.08,0,0,1-2.73-3.36c-.15-3.26,1.28-6.58-2.08-9.53C108.39,219.52,111,217.21,112,215.44Z"/><path class="cls-38" d="M333.94,154.55c0-2.84-3.19-1.36-4-3.05-.66-1.81.44-3,1.52-4.14,5.12-4.55,8.77-4,12.1,2.07,1.28,2.33,3.11,2.73,5.39,2.58,3.37.52,7.08-1,10.09,1.67-5.15,1.78-10.45.29-15.67.7C340.23,154.62,337.08,154.5,333.94,154.55Z"/><path class="cls-38" d="M293,168.53c1.35-3.85,3.16-6,8-4.37,3.56,1.22,6.16-1.71,7.89-4.62a5.79,5.79,0,0,1,6.18-3l11,1.08c-8.81,2.49-16.46,9.14-26.32,7.76C296.48,164.89,295.45,168,293,168.53Z"/><path class="cls-39" d="M112,230.41c1.22.84,2.39,1.75,3.67,2.5,2.42,1.42.84-1,1.33-1.45l.51-.63c1.72-1.14,3.28-.82,4,1,.55,1.36,1.26,3.33-1.48,3.58-3,1.47-1.77,4.23-2,6.53-.18,1.85.62,4.13-2.27,4.64C111.37,242.44,109.73,235.4,112,230.41Z"/><path class="cls-40" d="M364.91,142.54c-1.94-2.28-5.08-1.63-8-2.82a14.45,14.45,0,0,1,1.51-1.08c1.86-1,5.32,1.63,5.28,0-.07-3.19,1.53-6.82-1-9.88-.72-.86-2.08-2-.54-3.38a29.29,29.29,0,0,1,8.67,5.15c-3.56,3.58-.17,6.26,1.2,9.19a.76.76,0,0,1-.15.88C370,142.67,367.47,142.7,364.91,142.54Z"/><path class="cls-41" d="M68.07,85.57v10c-4-7-4.56-14.52-3.15-22.64,3.11,2.78,5.38.66,7.2-2.24,1.53,2.24-.35,3.44-.05,4.89-1,2.92-.78,6-1,9-2.49.27-1.47-2.32-2.59-3.17C68.17,82.77,69,84.26,68.07,85.57Z"/><path class="cls-42" d="M142,258.35c-2.73-2.59-1.11-4,1.46-4.89,2.87-1,3-2.44,1.41-4.84-1.63-2.55-4.26-4.76-3.75-8.31,4.52,6.55,9.48,12.64,17,16-3.91,0-7.86.69-11.69-.66C143.84,254.77,142.86,256.47,142,258.35Z"/><path class="cls-43" d="M245.88,270.36a16.28,16.28,0,0,0-.28-2.43c-.45-1.73-4.29-1.9-2.89-3.8a9,9,0,0,1,7.19-3.73l3,0c1.28,1,2.55,2.07,3.83,3.09,2.59,2.05,2.23,3.69-.67,5-2.34-3.83-2.89-3.74-6.48,1.08a3.83,3.83,0,0,1-2.41,1.36A2,2,0,0,1,245.88,270.36Z"/><path class="cls-44" d="M366.05,149.65c-2.05,1.23-3.43,3.57-6.15,3.69-1.49-1.44-3.38-.6-5.08-.87-2-.31-4.28-.23-5.13-2.75,4.25-1.33.49-4.53,1.54-6.61a35.15,35.15,0,0,1,3.7-.07C358.91,144.79,364.5,143.83,366.05,149.65Z"/><path class="cls-27" d="M146.08,206.55c-.78-3,.34-6.18-1.05-9.08,2.49.19,3.31-.72,2-3a8.39,8.39,0,0,0,.12-1.93c.5-3.4.78-7.11,5-8s9.53,2.62,10.9,6.87l-.15.22c-1.48-.71-3-1.36-4.44-2.14-5.16-2.76-8.22-1.1-8.48,4.59C149.8,198.55,149.16,202.94,146.08,206.55Z"/><path class="cls-45" d="M366.05,149.65c-2.52-4.18-7.92-3.16-11.09-6.16-.34-.16-.46-.35-.38-.55s.19-.33.29-.33c3.34-1.23,6.71,2.59,10-.07,2-1.7,4.61-1.46,7-2C372,144.9,369,147.23,366.05,149.65Z"/><path class="cls-46" d="M68.07,85.57a7.75,7.75,0,0,1-.39-.89c-.63-2.32-1.71-5.85.94-6.27s.73,3.33,1.62,5a10.34,10.34,0,0,0,.84,1.16c2.09,4.23,3.42,8.82,6.09,12.78-.52,2.47-1.2,2.18-2.56.37A38.4,38.4,0,0,1,68.07,85.57Z"/><path class="cls-47" d="M239,255.42l1.12-1.32,3.84,2.66c3.59,4.42-1.22,3.58-2.93,4.68a2.73,2.73,0,0,1-1.39.45c-3.29,0-6.76-1.24-6.74-4.42C232.91,253.86,236.91,256.25,239,255.42Z"/><path class="cls-48" d="M245.88,270.36l1.23.08c.62.47,1.69.17,2,1.15-7.58,1.15-15,1-22.18-2.16.35-2.6,2-1.39,3.32-1.12C235.43,269.34,240.51,270.93,245.88,270.36Z"/><path class="cls-49" d="M372,139.67c-6.16-5-6.27-5.79-1.2-9.19C376,132.92,374.24,136.27,372,139.67Z"/><path class="cls-50" d="M349.88,149.54c2.51,1.89,5.43,2,8.4,2,1.3,0,2.41,0,1.62,1.84a2.93,2.93,0,0,1-.88.34l-10.93-.34c-.6-.28.12.15-.45-.19-1.52-.9-4.65-1.14-3.34-3.61C345.35,147.56,348,147.94,349.88,149.54Z"/><path class="cls-51" d="M248.93,269.33c0-1.64,1.2-2.7,2.1-3.8a4,4,0,0,1,4.18-1.13c1.9.7,1.78,2.48.82,4.12-1.51.26.54,3.31-2.1,2.69C252.51,269.91,250.36,270.57,248.93,269.33Z"/><path class="cls-52" d="M238.79,250.36c-.68-6.32-3.26-12.74.92-18.82C240.33,237.86,239.53,244.11,238.79,250.36Z"/><path class="cls-53" d="M164.05,271.28c1.52-2.69,5.82-1.73,6.18-5.71a6.49,6.49,0,0,1,2.75,4.75A20.64,20.64,0,0,1,164.05,271.28Z"/><path class="cls-54" d="M248.93,269.33c2-.41,4.12-.85,5,1.88l-4.8.38-2-1.15Z"/><path class="cls-7" d="M62.33,221.67c-1.36,2.91-3.79,4.84-6.22,6.77l-.27-.25c.15-4,2.41-6.06,6.14-6.81Z"/><path class="cls-55" d="M74.08,119.54l-2-5,11,8a29,29,0,0,1,1.07,6.65c0,2.43.81,4.53,3.92,4.34.33-.4.67-.42,1,0,3.45-1,6.93-2.6,9.87,1.19a2.44,2.44,0,0,0,3.2.43c1.23-.72,1-2,.6-3.1-.9-2.35-1.23-5.07,1.35-5.93,2.18-.73,3.6,1.63,4.64,3.64.68,1.28,1.5,2.8,2.68,3.47,3.39,1.93,2.66,4,.65,6.29,3.35,3.6,5.23,8.51,10.32,10.61,2.47,1,3.07,4.1,4.24,6.43a2.61,2.61,0,0,1-.32,2,2.16,2.16,0,0,1-2,.39c-1.19-.43-1.55-1.64-2.31-2.48-8.19-2.35-15-8.24-23.77-9.22-3.82-.42-7.16,1.36-10.92,1.14s-6.61-3.11-5.84-6.67C83.37,132.93,82.6,124.93,74.08,119.54Z"/><path class="cls-56" d="M163.08,191.37a23.48,23.48,0,0,0-2-2.25c-6.57-5.93-10.78-4.74-13.15,3.66a7.85,7.85,0,0,1-.94,1.66c-1-2.81-3.72-4.78-4-7.95l.47-.52c4.11-3.27,10-3.75,13.23-8.45,2.47-1.08,3.93,1,5.79,1.82,2.12,1.41,4.76,2.26,5.51,5.14C166.9,187.15,166.42,190.29,163.08,191.37Z"/><path class="cls-57" d="M124,158.5h2a1.82,1.82,0,0,1,.34,1.21c.35,3.31,1.68,5.1,5.29,3.46,5.16,2.76,9.09,7.09,12.44,11.57,2.58,3.44,1.35,8-1,11.71l0,0c-1.12-2.51-1.42-5.42-5.28-5.89-2-.24-2.59-2.26.16-3.06,2.5-.72,2.28-2,.37-2.71-7.89-3-13.23-8.93-18.23-15.32A3.48,3.48,0,0,1,124,158.5Z"/><path class="cls-58" d="M112.58,159.18c3.39,5.07,9.78,8.47,8.47,16-.16,1-.09,2.19-1.17,2.51-1.39.4-2.13-.83-2.5-1.85a25.89,25.89,0,0,1-1.68-6.15C115.35,166,113.34,162.81,112.58,159.18Z"/><path class="cls-59" d="M134,180.49c-1.28,1.08-2.07,2.8-4,3-1.52-1.06-3.46-2.56-1.8-4.25C130.17,177.26,132.08,179.94,134,180.49Z"/><path class="cls-59" d="M135,183.5l1-1c2.28,1.09,3.11,3.34,4.67,5.83C137.53,187.65,137,184.65,135,183.5Z"/><path class="cls-60" d="M124,158.5a6.76,6.76,0,0,1-4,1c-2.09-2.78,2.14-1.45,1.95-3A1.8,1.8,0,0,1,124,158.5Z"/><path class="cls-61" d="M162,180.48q-2.49-1.5-5-3c-1.95-1.25-2.72-3.66-4.94-4.75s-3.19-3-1-5.14c1.54-1.51.84-2.28-.51-3.51a82.67,82.67,0,0,0-7.41-5.81c-3.58-2.54-6.28-5.74-4.62-10.49.86-2.45-2.3-3.23-1.68-5.36,2-1.52,4.84-1.91,6.1-4.64.71-1.54,2.52-1.12,4-1,3.79.17,5-1.7,4.09-5.24.14-2.56,2-1.33,3.15-1.22,1.17-2.07-2.73-2.33-1.31-3.62a37.35,37.35,0,0,0,4.86-4.57c.55-.72,1.61.25,1.66,1.53.34,8.86,4,15.58,12.54,19a3.41,3.41,0,0,1,2.06,2.54c1,3.45,3.94,4.51,7,5.33a1.62,1.62,0,0,1,2-.24c.95,4-2.31,2.89-4.35,3.61.36,1.1,2.73,1.82,1.4,3.45-1.74,2.11-4.26.84-6.45,1.24,5.35-1.76,10.44,1,15.3,1.92,4.16.77,10.91,2.95,11.43,10a8.81,8.81,0,0,0,2,4.54c1,1.27,1,3.91,3.81,2.88,2.07-.78,4.12-1.56,4.19-4.3,0-2-.17-4.32,3.09-3.63,3.72,3.66,5.7,3.47,8.37-.9a34,34,0,0,1,2.55-4.24c2.42-2.88,4.84-5.27.18-8.73-2.13-1.58-1.13-4.85.67-7.12,2.37-.91,3.89.41,4.93,2.2,1.8,3.11,4.1,3.44,7.09,1.86a38.82,38.82,0,0,0,4.43-2.2,10.6,10.6,0,0,1,15.92,4.81c1.3,3.47,2.68,5.87,6.77,5.82a3,3,0,0,1,2.89,2.32c1.24,3.19.84,6.45,0,9.6-.74,2.79.8,4.79,1.72,7,0,1,0,2,0,3-2.31,2-5.14,1.08-7.64,1-8.33-.15-16.51,2.5-24.8,1.33,1.3,1.62,5.22-2.41,5.3,2.27-2.26,1.77-5.39,2.07-7.4,4.27-.14.14.27,0,.4.11a3.55,3.55,0,0,1,1.91.5c1.61,2.7-3,1.82-2.31,4a2.12,2.12,0,0,1-.67,1.09c-1,.76-2.59,1.32-2.6,2.73-.06,6.19-4.48,8.5-9.16,10.66h-1c-.88-4,2.44-6.09,4-9-2.06-3.26-.21-7.41-2.67-10.77-1-1.41,1.11-2.75,2.56-3.67,3-1.91,2.43-3.23-.53-4.82-7.77-4.18-14.9-3.52-21.63,2.1a16.36,16.36,0,0,1-2.87,2c-3.5,1.64-5.28.56-5.61-3.36a38.46,38.46,0,0,1,.42-6.43,9,9,0,0,0-2-6,4.65,4.65,0,0,0-2.67,2.06c-4.16,5.63-8.59,8.45-16,4.75A9.74,9.74,0,0,0,162,180.48Z"/><path class="cls-62" d="M183,150.53l-2,0c-.19-.73-.85-1.59.4-2,2.44-.76,1.94-1.31,1-3.67-1.6-4.13-4.66-6.18-8.3-8.36,1.64-1,4,.52,4-2.27,0-1.85,1.76-1.7,3.06-1.67,2,0,3.79-.69,4.35-2.62.49-1.72-1.18-2.58-2.45-3.32-1.91-1.13-2.4-2.21-.27-3.62a2.25,2.25,0,0,0,.79-2.19c-.16-7-.13-7,7.37-8.25,3.52,5.45,8.36,9.7,13.08,14,2.51,2.28,5.88,1.63,9,.55a1.89,1.89,0,0,1,1.25.53,21.08,21.08,0,0,1-5,12c-1.6,1.79-1.82,3,0,4.47,2.31,1.88,2.29,3.73-.15,5.48,1.8,1.51,4.88.09,5.44,3.11a2.5,2.5,0,0,1-.51,1.26c-1.31.85-1.57,1.85-.8,3.31.86,1.64.76,3.2-1.23,4.09-6.68,1.65-13-.78-19.4-1.93C188.07,158.56,186.06,153.67,183,150.53Z"/><path class="cls-63" d="M151.05,131.5c1.33.22,3.31,1,2.35,2.17-1.4,1.7-1.8,5.66-4.84,4.6-3.35-1.16-4.58.11-6.17,2.5-1.15,1.74-3.28,2-5.33,1.76-.63,2.05-.67,4.47-3.31,5.27-3.37-2.22-5.23-4.57-2.63-8.9,1.4-2.33,1-5.38-2.27-7.33,2.16,1.71,2,3.38-.06,4.1-3.95,1.4-4.77,3.94-4,7.74a2.63,2.63,0,0,1-2.69,3.37c-3-2.29-4.81-5-3-8.88a3.27,3.27,0,0,0-1-4.38c-5.7-.49-4.22-4.57-4-8,.21-2.66,2.1-3.65,4.17-2.7,7,3.25,13.37,1.65,19.68-1.94,3-1.68,8,1.58,9.83,6.77C148.46,129.58,149.19,130.85,151.05,131.5Z"/><path class="cls-62" d="M209,109.55c-2.66,2.63-1.54,5.22.47,7.37,2.18,2.33,4.51,1.7,7.09,0,6.16-4.19,9-4.15,12.64-.65,2,2,3.22,3.4,1.43,6.71-2.67,4.95.72,9.49,6.36,9.6l.39.53c-.34,2-1.12,4.16,2,4.72a48.7,48.7,0,0,1,6.9,3.14c2.32,2,4.56,4.09,7.65,4.85,2.49,1.42,5.11.91,7.77.74,4.85-.3,7.22,1.92,7.65,6.76-2.6.91-5.63-.28-8,2.42-1.15,1.3-3.34-.33-4.54-1.88-3.48-4.53-9-6-13.5-9.06-1.81-1.22-4.11-1.12-6.3-.57-5.36,1.35-8,.12-8.64-5.27-.61-5.22-2-10.57-1-15.79.82-4.31-1.24-4.54-4.28-4.21-4.36.48-7.94,3.4-12.27,4-1.44-.13-2.24-1.23-3.26-2-3.33-2.67-6.66-5.23-11.31-5.26-1.82,0-4-.36-4.15-3.06,3.84-.41,7.71-.6,11-3A5,5,0,0,1,209,109.55Z"/><path class="cls-15" d="M192,112.55a4,4,0,0,0,3.31,1.84c7-.55,11.3,3.81,15.68,8.14,2.91-.13,2.24,2.14,2.54,3.77a1.89,1.89,0,0,1-.53,1.2c-4.09,2.72-7.72,2-11.19-1.09-3.26-3-5.39-7-9.34-9.24a3.27,3.27,0,0,1-1.48-4.62Z"/><path class="cls-60" d="M118.05,133.52c2.51-.21,4,1.72,2.79,3.25-3.13,4,.1,6.61,1.19,9.74,5.92,3,6.56,4.63,4,10-2.73-2.31-3.08-7.48-8.25-6.86-.45-4.2-6.34-5.34-5.72-10.14C116.55,140,117.9,137.37,118.05,133.52Z"/><path class="cls-4" d="M89.06,133.53h-1c-.39-1.05-2.66-1.44-1.16-3.15a2,2,0,0,1,2.68-.48C91.85,131.39,89.19,132.3,89.06,133.53Z"/><path class="cls-39" d="M117,231.46c-4.55-2.18-4.34-6-2.5-9.51,2-3.9,3.6-8.09,6.53-11.49,2.25-.26,3.22.77,3,3-1.18,3.23.4,6.88-1.79,10.11-.7,1,.26,2.82,2.61,1.75a28,28,0,0,1,6.63-1.72c1.21-.22,3-.63,3.26,1.22.27,1.66-1.36,1.53-2.44,1.72-2.36.41-4,2.83-6.85,2.15-1.6-.38-1.14,2.16-2.32,2.82-2-2.56-4-4.25-6-.1Z"/><path class="cls-64" d="M331.91,148.5c-.67,1-1.33,2-2,3-1.74,2.77-3.12,5.18-7.33,2.69-2.81-1.66-6.94-2.74-9.93-2-2.62.67-5.14,3.3-7.8,5s-4.95,3.25-8.11,3.39a5.05,5.05,0,0,0-4.28,2.21c-3.21,5.71-8.2,8.27-14.51,8.71,1.07-4.49,4.26-7.25,7.87-9.67,1.83,0,3.58,0,5-1.51,2.56-2.74,5.9-4.3,9.31-5.65,2.11-.83,3.17-1.71,2.5-4.42-1.33-5.33-.18-6.19,5.32-6.42,3.48-.15,6.52,1.06,9.72,1.81a27.54,27.54,0,0,0,10.89.2,4.16,4.16,0,0,1,2.21.18C331.73,146.59,332.33,147.32,331.91,148.5Z"/><path class="cls-65" d="M286,162.5q-4,4.49-8,9c.06,6-4.55,7.44-9,9-5.27-2.38-3.52-7.2-2.51-10.5.77-2.52,1.12-3.19-1.32-4.11-.72-.27-.59-.61,1.8-1.39,2.22-2,6.18-.84,7.67-4.18a9.18,9.18,0,0,1,2.42-2.23,12.89,12.89,0,0,0,7.31-1.86c1.68.53,2.18,1.91,2.54,3.41A3.24,3.24,0,0,1,286,162.5Z"/><path class="cls-66" d="M241,188.43c.39-1.05.59-2-1.05-1.94a32.46,32.46,0,0,1-5.82-.31c11.62-1.15,23.07-4.23,34.86-2.7.93.11,2.2-.28,2.53.94s-.82,1.67-1.69,2.13c-3.29,1.73-6.84.72-10.27.89-2.69.14-4.79.52-3.53,4-2.18,2.08-4.53.36-6.81.33a8.7,8.7,0,0,1-2.24-.58C245.19,189.76,242.58,190.15,241,188.43Z"/><path class="cls-67" d="M248.94,190.52l7.05.93c1.38.24,2.89-.47,4.14.52.19,1.69-2,1-2.12,2,1.28,1.88,4.92-1.74,5,2.59l-2,1c-3.39,2.42-7.6.48-11.07,2-6.09,2.62-11.15.8-15.92-3-1.34-1.67-1.35-1.76-.27-2s2.34.27,3.13-.91c5.47-1.49,11.09.4,16.57-.66C249.66,193.4,249.66,193.4,248.94,190.52Z"/><path class="cls-68" d="M76.07,184.48h2c5.3-1.44,9.17.66,10.4,5.61.55,2.22-.84,3.34-2.4,4.38l-6,3c-3,2-6.17,3.57-9.42.75-2.43-2.11-2.66-9.93-.7-12.61C71.64,183.29,73.76,183.46,76.07,184.48Z"/><path class="cls-1" d="M76.07,184.48c-2,.15-4.62-.74-5.46,2.12-1,3.59-1.18,7.35.73,10.6,1.43,2.43,4.13,1.17,6.34.9a18.11,18.11,0,0,0,2.38-.62c-6.48,4.66-12.48,10-19.83,13.39-1.36.63-2.65.75-3.54-.57a3.34,3.34,0,0,1,.6-4.51c2.44-2.47,4.82-5,7.38-7.37a7.25,7.25,0,0,0,2.38-8c0-2-.17-4.1,1-5.92.32,0,.65,0,1,0C71.4,183.34,73.73,181.45,76.07,184.48Z"/><path class="cls-69" d="M62,221.38c-2.31,2-4.86,3.85-6.14,6.81-1.14-3.13-1.66-6.18,1.25-8.73,1.76-.24,3.75-1.58,4.95,1C62,220.77,62,221.08,62,221.38Z"/><path class="cls-1" d="M86.07,194.47c1-1.76,2.6-3,1-5.68-2.2-3.77-5.1-4.81-9-4.31,5.31-3.45,6-3.14,10.26,3.79C90.23,191.4,89.89,193.53,86.07,194.47Z"/><path class="cls-70" d="M234,196.47c2.42,0,5-.49,6.32,2.48.53,1.19,1.6,1.48,2.89.9,5.68-2.59,11.73-2.47,17.78-2.34-2.23,3.58-1.57,6.2,2.31,8.21,1.55.8,2.76,2.33,4,3.63,2.08,2.12,5,4.6,3,7.58-1.66,2.47-5.13,3.37-8.41,2.47-1.2-.33-1.9-.39-2,1.06-4.52-1.63-4.52-1.63-7.06,3.06a14,14,0,0,1-17.27-3.86c1,0,1.76-.06,2.53,0,1.16.12,2.82,1.66,3.28-.26.43-1.77-1-3-3-2.95-1.48,0-3,0-4.44,0a2.53,2.53,0,0,1-3,.31,12,12,0,0,0-4.86-4.16,2.3,2.3,0,0,1-1.44-2.4c.21-1.29,1.41-1.38,2.33-1.44,6.27-.43,12.2-2.22,18.21-4.35-2.06-1.14-4.35-.3-6.32-1.07-2.7-1-6-1.7-4.94-5.92Z"/><path class="cls-71" d="M283,232.44c.56,6.12-.77,12.13-1.06,18.21-.08,1.5-.58,3.19-1.88,3.86-1.74.89-2.3-1.32-3.48-2-4-2.29-3.86-7.3-6.87-10.22a6.4,6.4,0,0,0-1.69-.86,11.91,11.91,0,0,1,7-7C278.16,236,279.85,231.38,283,232.44Z"/><path class="cls-72" d="M275,234.43a35.07,35.07,0,0,1-7,7h0c-2.95-.76-2.36-2.94-2-5,0-.32.05-.64.08-1,3.28-3.42,6.23-7.51,12.08-5.69C278.08,232,275.51,232.56,275,234.43Z"/><path class="cls-73" d="M252.9,223.52c.62-2-1.23-4.81,1.8-5.93,2.68-1,4.12.79,5.26,2.87v2c0,6.3-.71,6.78-6.9,4.93C253,226.08,253,224.8,252.9,223.52Z"/><path class="cls-34" d="M130.09,245.42c0-2,0-4,0-6,1.89,1.8,1.89,1.8,1.84,7.6Z"/><path class="cls-52" d="M239,255.42c-1.36,2-3.91.17-5.7,2,2.49,1.68,4,4.81,7.73,4.06-6.37,2.29-13.56.44-16-4.09L224,254.42c0-4.81-.05-9.62,0-14.43.08-8.38,7.58-13.35,15.84-10.53a27.35,27.35,0,0,0-4,.06c-2.82.44-4,2.59-2.07,4.43,2.23,2.11,1.4,3.81.52,5.63-1.05,2.15-1.15,4.36-1.43,6.65C232.3,251.19,233.68,254.52,239,255.42Z"/><path class="cls-74" d="M234,197.47c.68,3.63,3.41,4.61,6.55,5a31.07,31.07,0,0,0,4,0c1.74,0,3.72,0,3.73,2.23s-2.1,1.47-3.45,1.78c-6.36,1.46-12.41,4.44-19.77,2.69,1.42,4.07,7.52,2.27,6,7.25a.63.63,0,0,1-1,.05c-3.14-.92-6.23-1.91-8-5,.12-2,1.36-2.63,3.19-3.09,3.05-.77,4.91-3.32,4.45-6.15C229,198.19,231.06,197.7,234,197.47Z"/><path class="cls-75" d="M223,220.45c.3.75.4,1.72.93,2.19,1.57,1.39,5,2.89,4.21,4.22-1.49,2.48-4.57,4-7.07,5.86-1.48,1.09-2-.26-2.54-1.27-.78-1.5-1.48-3-3.53-3h0c.56-7.47,2.72-9.63,8-8Z"/><path class="cls-18" d="M230,216.47l1-.05,3,.08,1.93,1.31C233.9,217.69,231.27,220.2,230,216.47Z"/><path class="cls-71" d="M265.94,236.43c.45,1.76.67,3.61,2,5-.7,1.14-1.81,1-2.89.9C265.3,240.36,264.21,238.19,265.94,236.43Z"/><path class="cls-76" d="M277,158.47a1.88,1.88,0,0,1-2,2c-4.48-.21-5-3.81-6-7-1.86-5.54-3.72-6.8-9.1-5.36-2.79.75-4.83-.09-6.88-1.64-2.33-1.67-4.61-3.39-7-5a22.85,22.85,0,0,1-7-3c-3.1-1.18-.09-4.41-2-6h0c-2-3.57-3.56-6.93-1.68-11.4,1-2.31-2.19-4.65-3-7.31-1-3.16-.06-3.2,2.57-4,4-1.16,7.33,2.32,11.11.7,3.36-1.29,4.18,1.4,4.6,3.48.73,3.56,2.46,3.35,4.92,2,2.16-1.18,4.63-1.81,6.27-3.87.62-.79,1.78-1.57,2.6-1,4.77,3.32,5.08-1.17,6.57-3.62,2-3.63,4.24-2.46,5.93,0,1.82,2.7,3.59,3.32,6.61,1.84,2.15-1.06,4.72-1.33,7.13-1.82s4.92-2.26,4.82-3.66c-.42-5.65,4.19-5.91,7.26-7,6.48-2.29,13.43-2.57,20.24-3.38a3.53,3.53,0,0,0,2,2c-1.49,4-3.32,5-6.17,2.61-1.91-1.6-3.55-1.33-5.49-.87-.43.17-.87.29-1.32.42-6.08,1.11-8.75,6.56-12.81,10.21-1,.92-1.48,2.5-2.46,3.61-3,3.64-5.06,7.53-3.73,12.51a5.61,5.61,0,0,1-.54,4.26,2.06,2.06,0,0,1-1.2.7c-2.12-.15-2.4-2-3-3.42-.74-1.82-1.11-3.78-1.86-5.59-.56-1.34-1.05-3.06-2.78-3.08s-1.57,1.78-1.89,3c-.27,1-.61,1.87-1.78,2.07-2.36-.33-4.78.45-7.12-.33-.87-3.6-3-4.3-6.22-2.77-2.7,1.28-5.69,1.61-8.58,2.3-2.35.56-4.18,1.82-3.06,4.51,1.23,3,.51,5.82.16,8.74-.14,1.15-1.57,2.72.32,3.44,1.69.65,2.75-.54,3.25-2.15a6.69,6.69,0,0,1,1-2.25c2.36-1.26,3.64.51,4.3,2.05,3,6.94,8,12.51,12,18.81C276.74,155.57,277.67,156.84,277,158.47Z"/><path class="cls-77" d="M270.94,107.54c-.13,1.31-.28,2.62-.38,3.94-.26,3.5-2.13,4.2-4.46,1.93-2.12-2.06-2.48-1.31-4.37.51a17.26,17.26,0,0,1-9.88,4.58c-1.7.2-2.72-.14-2.25-2.52.51-2.6-.45-4.93-3.62-5.43a10.19,10.19,0,0,1-4-4c2.71-1.85,6-1.3,8.94-1.78,5.6-.92,11.36-.85,17.06-1.19Z"/><path class="cls-30" d="M354.87,142.61c0,.29.06.59.08.88l-4,.07a2.59,2.59,0,0,1-2,.67C343,143,343,143,345,137.45a16.1,16.1,0,0,0,.63-5.38c.05-2.57-.53-4.38-3.71-3.26a4.05,4.05,0,0,1-4.56-1c-1.46-1.56-2.65-.35-4,.12-4.44-.64-5.44-4-5.53-7.61-.07-2.83,0-6.11,4-6.78l.08.06c1.42,2.13,3.83,2.68,5.94,3.7-1.39,3.16,2.71,2.33,3.06,4.22,9.93,1.27,7,9.56,7.67,15.22C349.18,141.27,350.41,143.13,354.87,142.61Z"/><path class="cls-78" d="M341,121.5c.1-2-7,1.16-2.8-3.84.15-1.83,1.39-2.57,3-3a3.4,3.4,0,0,1,3.8,1.86h.1C347.14,121.55,347.13,121.57,341,121.5Z"/><path class="cls-79" d="M202,184.48c8-6.45,18-7.09,25.63-1.49,2.59,1.89,1.07,4.53-.53,5.42-3.28,1.82-6,2.57-1.54,6.46,1.14,1-.32,5-.58,7.6-4.57.33-6.65,5.22-11,6,2.35-6.95,1.53-9-4-10l-3-2c1.54-5.32,1.56-5.39-3.87-6.91C199.35,188.51,200.49,186.59,202,184.48Z"/><path class="cls-11" d="M223,220.45c-3,.05-6.39-.53-5.4,4.42.4,2-3,1.42-2.6,3.57-1.73-3.28-2-7,.78-9.29A4.78,4.78,0,0,1,223,220.45Z"/><path class="cls-80" d="M117.09,231.4c-.27-2.08-.1-4.28,2.38-4.49,3-.25,3.5,2.2,3.66,4.59a9.85,9.85,0,0,1-.86,4.69c-.32.6-.1,1.92-1.29,1.31-.52-.26-.62-1.35-.91-2.07C122.1,231.85,121,230.59,117.09,231.4Z"/><path class="cls-81" d="M202,184.48c-.77,2.48-1,4.48,2.74,4.06,1.84-.21,4.11-.59,5,1.87,1.06,2.87-.78,4.52-2.77,6.06-7.59,0-12.29-6.35-18.89-8.57s-12.65-6.61-20.08-3.42l-6-4c-.1-2.3.63-4.08,3.27-3.94,4.35.24,8.84-1.1,12.94,1.93,3.44,2.55,6.73-.32,8-2.61,1.73-3.15,5.36-3.83,6.18-6.84,5,4,3.27,9.15,3.32,14,0,1.33-1.4,3.06.64,4,1.61.71,2.76-.62,4-1.37C200.92,185.24,201.45,184.85,202,184.48Z"/><path class="cls-82" d="M331.89,113.52c-4.56,5.37-3.76,10.82,2.05,14,2.58.34,2.16,2.49,2.31,4.11a24.76,24.76,0,0,1-1.18,10.06c-.89,2-1.65,4.19-4.21,4.75l-1.94.16c-6.87,1.84-11.38-1.2-14.53-7-1.11-2.09-4.87-1.82-4.62-5.13,2.73-2.94,4.77-3.82,8.44-.27,2.61,2.52,5.68,4.7,7.91,7.76a26,26,0,0,1-3.57-6,5.38,5.38,0,0,1-.17-4.83c3.87-7.61,4.43-10.4,3.23-17.19-.44-2.53-.89-4.67-4.45-2.79s-7.54.82-11.24.32c-4-.54-1.57-3.86-2.14-7.39-3.93,7.75-10.47,12.89-9.74,21.6.19,2.27-.4,3.92-3.1,3.9-2.64-4.29-2.51-8.77-.87-13.34.67-1.86,1.05-3.82,1.89-5.63,1.18-5.8,8.53-6.69,10-12.52.24-.94,3.88-1,5.95-1.48,0,1.4-1.58,3.42,1.79,3.18,2-.14,3.31,2,5,2.83-2.1-1.86-3-4.9-5.86-6,2.63-1,4.82-2.41,7.15,1.4,1.25,2,3.66-.55,4.89-2.37,5.32,2.83,6.19,7.92,6.19,13.12C331.15,110.44,332,111.88,331.89,113.52Z"/><path class="cls-83" d="M340.74,115.29l-2.57,2.37c-2.74-.35-6.51.87-6.2-4.08a16.82,16.82,0,0,1,8-2.09c.94-.18,1.37.38,1.68,1.13A2.32,2.32,0,0,1,340.74,115.29Z"/><path class="cls-84" d="M341.08,112.57,340,111.49c1.15-1.8-4.25-2.55-.72-4.84,1.64-1.07,3.06-1.56,4.24.28a18.77,18.77,0,0,1,1.4,3.65C343.56,111.14,342.78,112.74,341.08,112.57Z"/><path class="cls-85" d="M341.08,112.57c1.16-.86,1.34-3.6,3.8-2a8.17,8.17,0,0,1,.05,5.94,7,7,0,0,0-4.19-1.23C340.85,114.39,341,113.48,341.08,112.57Z"/><path class="cls-86" d="M330.86,146.42l3.05-3.91a6.83,6.83,0,0,1,7-1,51.52,51.52,0,0,0,8,2l2,.05a8,8,0,0,0,.87,1.18c1.12,1.06,3.52,1.44,2.86,3.49-.75,2.32-3.15.88-4.76,1.31-1.74.13-3.56-.69-5.29.42.52,1.91,2.78,1.86,3.5,3.38a5,5,0,0,1-5.71-3c-2.83-5.88-5.53-6.35-10.47-1.89Z"/><path class="cls-87" d="M126,156.52c1.78-4.57-1.26-7.23-4-10,1.56-.74,2.33-1.91,1.68-3.6-1.74-4.48-.68-7.31,4.42-8,.54-.08,1-.7,1.47-1-.64-2.32-3.31-.36-4.29-3,2.61-.06,4.94.22,6.58,1.85s2.06,5.17.85,6.48c-3.46,3.76.07,5.74,1.29,8.35,2.95,1.95,6,3.86,3.35,8.11-.1.92-2.79-1.56-1.58,1.23.64,1.48,1.39,3.06.46,4.74-2.49,1.38-4.78-1-7.24-.38a3.55,3.55,0,0,1-2.9-1.78c0-.31-.05-.62-.08-.94C126,157.84,126,157.18,126,156.52Z"/><path class="cls-88" d="M128.94,160.58c2.68-2.11,4.69,1,7.12.91,1-.79,2.11.34,3.19,0,.28-2.37-2.73-3.51-2.21-5.95,1.93-3.76-2.1-5.28-3-8,1-1.66,1.38-3.71,3-5,1.62,2,5.36,3,2.2,7-1.31,1.66.57,4.52,2.42,6a114.77,114.77,0,0,0,10.82,8.12c2.43,1.54,3,2.4.23,4s-3,3.1.24,4.26c2.67,1,3.77,2.93,4.06,5.56.14,3.17-.38,5.76-4.55,4.69-1.66-.43-2.6.64-3.18,1.66-1.47,2.56-3.66,2.93-6.23,2.61a17.28,17.28,0,0,1,.71-4.84c.84-4.17.3-8.09-4.17-10-3.92-1.67-4.38-6.83-8.57-8.1C129.59,163.06,128.63,162.27,128.94,160.58Z"/><path class="cls-1" d="M128.94,160.58l2.1,2.92a2.58,2.58,0,0,1,0,1c-1.62,3.29-3.09.31-3.72-.49-.91-1.15-5-2-1.16-4.54Z"/><path class="cls-60" d="M269,153.51c2.62,1.8,2.65,5.82,6,7,1.24,2.43-.58,2.6-2.18,3.23a14.59,14.59,0,0,1-5.84.74c-.81-1.87-2.46-2.23-4.16-1.94-4,.66-5.12-1.56-5.84-4.91-1-4.75-7.29-9.39-11.54-7.71-2.94,1.17-5.6,3.44-8.69,4.87-3.47,1.6-5.68,1.3-7.18-2.24-.86-2-2.14-3.34-4.53-3-2.36-.23-1.27-1.73-1-2.83,1.78-6.85-.8-13.39-1.44-20.06-.18-1.84-1.69-2.06-3-1.09-2.09,1.58-4.31,1.44-6.64,1-1.68-.84.62-3.62-1.95-4,5.05-3.15,10.28-5.78,16.5-4.88,1.77.26,2.9,1.44,1.76,3.15a9,9,0,0,0-.52,8.55c1.61,4-1.34,8.51,1.74,12.3,1.4,1.72,2,4,4.84,1.66a6.33,6.33,0,0,1,6.65-.47c5.34,2.72,11,5,15.13,9.77,1.45,1.68,3,5.2,5.39,0C263.85,149.62,266.76,152.94,269,153.51Z"/><path class="cls-89" d="M213,126.55c2.71-.8,5.43-1.43,7.75-3.27a1.76,1.76,0,0,1,3,1.21c.66,6.79,2.14,13.46,2.42,20.31.08,1.9-3,2.67-1.15,4.71.34,2.87-1.87,6.52,3,8,1.17.34,2.42,3.22.52,4.59-3.29,2.37-4.65,5.9-6.44,9.19-1.4,2.58-3.87,3.13-6.28,2.91-1.63-.14-3-1.56-1.84-3.66.12-.19.24-.39.35-.59,3.4-4.26,3.37-4.38-1.7-5.64-1.1-.8-2.92-1.37-1-3.15,2.73-1,4.81-2.22,2.19-5.42a1.58,1.58,0,0,1,.18-2.19h0c1.62-2.77-1.62-3.82-2.22-5.89-1.86-6.37.22-11.91,2.46-17.51.43-1.08.61-1.77-.23-2.56l-1,0C213,127.18,213,126.87,213,126.55Z"/><path class="cls-2" d="M212,161.5c-1.22,1.43.37,1.48,1,2,.39,1.65-.59,2.15-2,2.3-2.87-1.31-5.93-1.6-9.19-1.92,2,3.87,4.49,4.46,7.69,2,1.37.5,2.82.83,4.15,1.37,1.83.74,2.09,2,.32,3.2h0c-2.1-.1-2.88.36-2.27,2.88,1.08,4.47-2.86,4.82-5.69,6-2.66,1.1-3.2.09-4.17-2.54-1.06-2.88-3.57-5.12-3.09-8.73.24-1.81-1.86-2.1-3.14-2.72-2-1-4.45-1.4-5.68-3.73-.25-.47-1.37-1.07-1.54-.93-5.21,4.27-9.18-3.47-14.29-1.49-.94.37-3.24-.3-4.54-2.2,3.39-1.1,6.76,2,9.9-.25-.57-2.54-3.47-1.63-4.69-3.37,2.11-2.74,6.76,1.51,8.21-2.87,3.53.52,4.76,3.82,6.86,6a5.82,5.82,0,0,0,4.18,2.12,17.46,17.46,0,0,1,8.38,1.91c2,1.05,6.27-.59,9.57,0,.34.22.46.44.34.67S212.1,161.5,212,161.5Z"/><path class="cls-90" d="M248.94,190.52c.52,3.22,3.63,1.16,5.49,2.69a31.81,31.81,0,0,1-17.58.36l-1.85-.11c1.84-3.93,4.47-.82,6.6-1.22-.36-.94-1.84.08-2.64-.66-.48-.45-1.05-.83-1-1.57.15-1.17,1.11-1,1.87-1a15,15,0,0,1,7.14,1.4Z"/><path class="cls-67" d="M247,190.41c-2.8.73-5.38-1.77-8.21-.61-.05,2.32,2.57.94,3.19,2.35-2.23,1.14-5-.77-7,1.31-2.12-.13-4.46.69-6.33-1.65,5.1,2,7.53-4.55,12.29-3.38C243.11,188.69,245.65,187.75,247,190.41Z"/><path class="cls-60" d="M236.14,158c2.38-2,4.28-1.63,6.79-.87C240.73,159.15,238.79,158.48,236.14,158Z"/><path class="cls-91" d="M214,127.54c1.23.24,3.29.54,2,2.11-1.21,1.42-.79,3.08-1.43,4.09-3.93,6.24-2.48,12.13.29,18.15.16.34-.54,1.06-.83,1.61-.16-1.82-1.43-1.92-2.86-2-1.7-.11-4.24.74-4.54-1.73-.25-2,3-.93,3.65-3.21-.1-1.13-1.95-1-2.66-2.1-1.25-1.89-2.59-3.15.46-5.28C211.75,136.57,211.72,131.31,214,127.54Z"/><path class="cls-61" d="M212,161.5v-1c1.21-.89,1.29-2.11.29-3-3.74-3.25-1.51-3.81,1.7-4a13.82,13.82,0,0,0,.31,1.42c.53,1.73,4.11,1.84,3,3.71C216.48,160,214.17,161.28,212,161.5Z"/><path class="cls-15" d="M237,132.53c4.31.78-.58,4.63,2,6C233.61,138.09,234.69,135.51,237,132.53Z"/><path class="cls-15" d="M246,141.53c3.2.45,5.37,2.33,7,5C249.78,146.05,247.61,144.17,246,141.53Z"/><path class="cls-92" d="M314.94,138.52c1.85.79,2.17,2.71,3.12,4.19,2.61,4.08,6.84,3.7,10.86,3.87-3.64,1.66-7.36,1-11.09.4-3.48-.59-6.63-2.62-10.46-1.93-1.3.24-2.9-.85-3.92.79a3.88,3.88,0,0,0,.55,4.65c2.32,2.85.77,4-1.82,4.82-4.3,1.41-8.33,3.26-11.34,6.8-1.52,1.78-3.16,1.42-4.88.39v-3a5.86,5.86,0,0,0,6.74-4.4c.93-3.69-2.26-6-5.19-9.36-.28,4.76-2.94,6.51-5.84,8-2.17-.34-2.65-1.86-2.65-3.73,1.59-3.34,3.88-6.52,2.62-10.58a8.3,8.3,0,0,1,2.49-3.23c3.72.05,3.48,4.49,6.45,5.82,1.63-2.36,1-4.69.23-7-.69-2.17-1.76-4.37.13-6.5h1c1.56.85,1.86,2.65,2.92,3.86,1.79,2,4.09,3.29,6.33,4.74C305.94,140.21,310.26,139.27,314.94,138.52Z"/><path class="cls-93" d="M279.94,149.51c0,1.69.17,3.25,2.05,3.94,2.2.06,2,1.64,1.93,3.1-1.28,4.35-4.26,2.59-6.93,1.92-2.06-3.2-3.94-6.52-6.22-9.55-2.69-3.56-5.35-7-6.9-11.35-.6-1.64-1.5-3.78-3.91-4-1.82,1.21-2.8,0-3.45-1.38-.86-1.89,2.32-6.54,5.19-7.7,2.63-1.07,4.27.55,5.17,2.55,1.23,2.73,2.85,5.23,4.11,7.89,1.6,3.4,3.37,4.08,6.41,2.05a2.61,2.61,0,0,1,1.95-.07,2.46,2.46,0,0,1,1.11.88C281.6,141.72,278.28,145.51,279.94,149.51Z"/><path class="cls-94" d="M283.92,156.55l-1.93-3.1c.13-1-.44-2.7,1.4-2.57,2.67.19,2.58-1.47,2.44-3.2-.07-.94-.78-2,.43-2.64,1.46-.74,2.63.31,3.58,1.1,5.09,4.19,5.21,9.83.57,14.28-2.12,2.05-3.15.25-4.45-.92C285.36,158.47,285.12,157.17,283.92,156.55Z"/><path class="cls-95" d="M280,137.51a2.69,2.69,0,0,1-.49,0c-2.94-.71-5,4.66-6.76,2.42-2.59-3.24-5.44-6.86-6.29-11.16a4.83,4.83,0,0,0-2.81-3.68c-2-.94-2.29,1.24-3.19,2.27-1.69,1.94-7.07,3.59-.47,6.15-.06,1.32.22,2.78-.24,3.94-1.28,3.18-4.3,2.39-6.43,1.74-2.48-.75.05-2.21.14-3.38.27-3.25,2.48-6.37,0-9.9-1.33-1.92-.93-4.55,2.2-5.44,4.39-1.24,8.86-2.12,13.2-3.75,3.64-1.38,4.94.49,4.11,4.82,3.38,2.8,4.92,6.82,6.92,10.52C280.83,133.81,281.63,135.67,280,137.51Z"/><path class="cls-96" d="M314.94,138.52c-1,.06-2.05-.09-2.74.77-2.81,3.48-5.51,4.75-8.23-.12-.36-.64-1.35-1.46-1.91-1.36-7.43,1.25-7.93-4.91-10.11-9.28-.73-6.45-1.66-12.94,4-18-.08,2.29.24,4.6-.81,6.79-2,4.19-.91,8.21.8,12.18,1.48-.79,2.82.69,4.41.23.95-1.21-.47-2.71.35-4.07s1.77-2.8,3.68-2.78,2.56,1.45,2.69,2.94c.29,3.14,3.24,5.35,2.88,8.66C310.64,137.06,314.22,136,314.94,138.52Z"/><path class="cls-97" d="M290.94,128.54a12.83,12.83,0,0,0,1.26,6.68,11.08,11.08,0,0,1,.73,3.81c.19,1.88,0,4-1.95,4.62-2.13.64-3.18-1.5-3.78-3.05-.7-1.79-1.51-3.24-3.27-4.06-2.94-4.58-5.46-9.3-4.8-15,0-.07.24-.15.37-.14a1.6,1.6,0,0,1,.46.17c.22-.23.61-.45.63-.71.22-2.33-.59-5.67,2.62-6,3-.27,3.87,3.06,4.67,5.46C288.81,123.11,289.27,126,290.94,128.54Z"/><path class="cls-98" d="M280,121.54c-.2,5.4,3.12,9.88,4,15,.06,1.47,0,2.89-2,3-1.92.56-1.12-1.54-2-2h0c-.74-5.14-2.48-9.83-6.81-13-1.58-1.16-.43-2-.19-2.94C275.3,120.49,277.63,119.66,280,121.54Z"/><path class="cls-99" d="M312.92,96.55c2.24.15,5.1-.87,4.85,3.3-.09,1.51,1.75,1.59,3.06,1.86.93.2,2,.72,1.22,2-.52.82-1.4,1.85-2.35.9-3.38-3.39-7.62-4.49-12.89-4.31,1.68-2.42,4.6-1.42,5.13-3.78Z"/><path class="cls-100" d="M279,115.16c-.23,1.43.33,3.93-1.58,3.56-4-.76-3-5.36-5-7.89-.59-.78.45-2.08,1.55-1.93C277.55,109.39,278.72,112,279,115.16Z"/><path class="cls-101" d="M348.92,143.51l-15-1c.17-5,2.61-10,0-15,.17-3.44,1.75-4.1,3.66-1.3,1.55,2.27,2.85,2.17,4.88,1.11,3.21-1.66,4.72-.5,4.41,3-.28,3.33,1.17,7-1.95,9.81-1.15,1.05-.86,2.1.84,2.33C346.9,142.62,348.14,142.36,348.92,143.51Z"/><path class="cls-102" d="M310,134.51c-1.69-2.6-3.71-5-4-8.3-.12-1.39-.26-2.93-2.14-2.39a3.54,3.54,0,0,0-2.42,3.86c.07,1.16,4.06,1.24,1.22,3.29-1.89,1.36-4.08.7-5.83-.94a3.89,3.89,0,0,0-.84-.5c.72-1.74.31-3.64.53-5.29,1.08-8.07,5.68-14.55,10.91-20.58.68-.78,1.72-1.4,2.65-.77,1.19.83,0,1.66-.33,2.52-2,4.88-1.78,5.25,3.57,5.09,3.25-.1,6.56,1.23,9.71-1.92,1.37-1.38,4,1.72,3.75,3.77-.5,4,2.62,7.87-.41,12-1.64,2.25,2.58,3.4,2.89,5.94-2.11.3-5.36-1.73-6,1.44-1,4.95,2.8,7.95,6.24,11-4.4,1-4.43,1-6.13-2.35-1-2-2.15-3.77-4.71-3.9a3,3,0,0,1-1.4-.45A8.46,8.46,0,0,0,310,134.51Z"/><path class="cls-103" d="M137,155.5a14.52,14.52,0,0,1,4.54,8.91l-5.52-2.92c-.48-1.58-1-3.15-1.42-4.74-.34-1.26-2.28-2.82,0-3.73C136.39,152.3,135.7,155.13,137,155.5Z"/><path class="cls-61" d="M214,170.49c.52-1.33,1.15-2.8-1.34-2.31-1.51.29-2.09-.62-2.66-1.68-.24-.91.09-1.25,1-1a3.37,3.37,0,0,0,2-2c2,.31,5.18-1,5.38,1.75C218.49,167.19,217.68,170.63,214,170.49Z"/><path class="cls-62" d="M211,165.5l-1,1a2.24,2.24,0,0,0-2.09,1.75c-.94,2.53-2.27,2.63-3.83.41a22.41,22.41,0,0,0-2.23-2.64c-.74-.77-2.59-.84-2.06-2.34s2.49-1.62,3.45-1C205.67,164.15,209.49,161.74,211,165.5Z"/><path class="cls-95" d="M280,137.51l2,2c2.92,4.05.93,7.11-2,10-2.22-1.12-2.14-2.87-1.54-4.95C279.06,142.25,279.46,139.87,280,137.51Z"/></svg>