<svg id="Layer_1" data-name="Layer 1" xmlns="http://www.w3.org/2000/svg" viewBox="0 0 400 275"><defs><style>.cls-1{fill:#e5c58c;}.cls-2{fill:#d6b379;}.cls-3{fill:#e8d2b0;}.cls-4{fill:#edd29f;}.cls-5{fill:#f4ddab;}.cls-6{fill:#d3b075;}.cls-7{fill:#d9b87d;}.cls-8{fill:#e9d8b5;}.cls-9{fill:#e2c693;}.cls-10{fill:#e5c78f;}.cls-11{fill:#cbae7e;}.cls-12{fill:#ddbd85;}.cls-13{fill:#ebcc91;}.cls-14{fill:#debd84;}.cls-15{fill:#d5b57e;}.cls-16{fill:#dcc08e;}.cls-17{fill:#ddc08a;}.cls-18{fill:#aa7e43;}.cls-19{fill:#decba2;}.cls-20{fill:#dcbf8b;}.cls-21{fill:#c0a16e;}.cls-22{fill:#af9564;}.cls-23{fill:#e7cb96;}.cls-24{fill:#ceb68a;}.cls-25{fill:#c8aa71;}.cls-26{fill:#d1b178;}.cls-27{fill:#e9cc94;}.cls-28{fill:#c6a976;}.cls-29{fill:#efd4a6;}.cls-30{fill:#dfcca8;}.cls-31{fill:#c8aa79;}.cls-32{fill:#d9ba88;}.cls-33{fill:#c2a573;}.cls-34{fill:#ddb97f;}.cls-35{fill:#dbc08f;}.cls-36{fill:#ece1c6;}.cls-37{fill:#e6cfa5;}.cls-38{fill:#c0a575;}.cls-39{fill:#916c3e;}.cls-40{fill:#cab68d;}.cls-41{fill:#c8b084;}.cls-42{fill:#e7d7b7;}.cls-43{fill:#b09160;}.cls-44{fill:#e1c796;}.cls-45{fill:#c8b795;}.cls-46{fill:#b99f71;}.cls-47{fill:#caa96c;}.cls-48{fill:#4f4132;}.cls-49{fill:#b8a179;}.cls-50{fill:#d9c192;}.cls-51{fill:#9b8a6d;}.cls-52{fill:#e3cfae;}.cls-53{fill:#d9d1c0;}.cls-54{fill:#ede1c7;}.cls-55{fill:#b19e76;}.cls-56{fill:#e3c184;}.cls-57{fill:#e0b878;}.cls-58{fill:#e0bd85;}.cls-59{fill:#dabd8c;}.cls-60{fill:#c29b5e;}.cls-61{fill:#d4ac6b;}.cls-62{fill:#dcb574;}.cls-63{fill:#e6ce9b;}.cls-64{fill:#eed49f;}.cls-65{fill:#e1c187;}.cls-66{fill:#dbc08d;}.cls-67{fill:#d3b37b;}.cls-68{fill:#e6cb9a;}.cls-69{fill:#e9cd9c;}.cls-70{fill:#b5996f;}.cls-71{fill:#eccc90;}.cls-72{fill:#d2ad6d;}.cls-73{fill:#b99d6a;}.cls-74{fill:#e0be80;}.cls-75{fill:#b98b48;}.cls-76{fill:#d2b379;}.cls-77{fill:#bc9255;}.cls-78{fill:#d7b272;}.cls-79{fill:#debb7a;}.cls-80{fill:#8e7049;}.cls-81{fill:#d4b77e;}.cls-82{fill:#4b3115;}.cls-83{fill:#b19a6c;}.cls-84{fill:#bf9e65;}.cls-85{fill:#a48650;}.cls-86{fill:#9c7f47;}.cls-87{fill:#bc9b5f;}.cls-88{fill:#dbc18b;}.cls-89{fill:#7f5a1f;}.cls-90{fill:#d1ac71;}.cls-91{fill:#d5b788;}.cls-92{fill:#81612d;}.cls-93{fill:#9f7f4a;}.cls-94{fill:#d9b676;}.cls-95{fill:#c8a76f;}.cls-96{fill:#e5c78b;}.cls-97{fill:#e0bc7d;}.cls-98{fill:#be9a5b;}.cls-99{fill:#cbac76;}.cls-100{fill:#a67a42;}.cls-101{fill:#cba362;}.cls-102{fill:#a3763b;}.cls-103{fill:#dcbb7e;}.cls-104{fill:#c3a265;}.cls-105{fill:#b5955c;}.cls-106{fill:#bd9658;}</style></defs><path class="cls-1" d="M16.06,82.72c1,.16,2.2,0,2.84.52,4.51,3.85,10.11,4.81,15.6,6a170.35,170.35,0,0,1,29.63,8.86c2,.83,4.42-.58,6.08,1.41-.31,1.13-1.24,2-1.5,3.12a6,6,0,0,0,2.7,6.46c2.48,1.7,3.8-.58,5.33-2.07,2.13-2.08,3.16-5,5.63-6.84,4.32.29,3.74,3,2.87,5.81-.11.54-.55,1.29.1,1.57s1.06-.44,1.49-.89c2.12-3.8,5.06-4.24,9.28-3.49,9.31,1.64,18.8,2.15,28,4.49,2.34.59,4.05-1,5.5-2.73,5-6.14,5.18-6.17,13-3.88,1.1,2.74-1.19,2.84-2.74,3.31-1.27.39-2.33.6-3.13,2-3.36,5.87-12.26,9.43-18.69,7.54-2.55-.76-5.31-.93-7.67-2.09-6.39-3.18-12.27-1.28-18.09,1.44a5.32,5.32,0,0,0-1.1,9.21c2.45,1.92,3.33,4,2.36,6.9-1.29,3.82,2.11,6.9,1.59,10.58a19.31,19.31,0,0,1,.73,2.1,5.3,5.3,0,0,1-.49,4.33c-3.59-.51-5.25-3.92-8.18-5.46-.68-.36-.43-1.59.1-2.27,1.85-2.41.36-3.22-1.63-4.41-3.06-1.83-2.92-3.47.08-5.53.92-.63,2.48-.69,2.5-2.1,0-1.68-1.66-1.8-2.78-2.4-4.75-2.54-10.05-1.57-15.07-2.37-2.12-.33-4.37-.08-5.85-2.11a5,5,0,0,1-.51-1.4c1.78-5.71-1.37-10.18-3.77-14.83-.22-.44-.46-1.07-.86-1.18-5.9-1.6-10.66-7-17.52-5.32a10.13,10.13,0,0,1-7.65-1,16.46,16.46,0,0,0-16.17-.27,9,9,0,0,1-4.82.82c-4.85-.38-8.12-4-12.19-6v-3a1.72,1.72,0,0,1,1.82-.43C11.2,89.74,11.75,89.56,16.06,82.72Z"/><path class="cls-2" d="M16.06,82.72a5.82,5.82,0,0,1-3.85,6.62c-2.8,1.18-5.83,2.44-8.54-.58C3.1,88.11,2,88,1.1,87.58v-12C6.38,77.35,11.21,80.06,16.06,82.72Z"/><path class="cls-3" d="M1.1,90.58c4.65.11,7.41,4.74,12,5,2.76,1.53,7.47,0,8,5.1A140.35,140.35,0,0,1,1.1,92.58Z"/><path class="cls-4" d="M109.1,194.63C104,202.91,95.22,208,90.43,216.57a5.24,5.24,0,0,1-5.37,2.84c2.24-5.13,6.62-8.74,9.6-13.36,1.32-2.05,2.64-3.81,1.28-6.32-3.91,4.63-4.58,4.47-7-1.73-.32,1.69-.28,3.31-.67,4.87-.47,1.88-1.07,3.73-3.54,3.13-1.95-.48-2.61-2-2-3.88.74-2.25-.49-4.19-.65-6.23-.33-4.52-5.19-3.56-6.87-6.33-.3-.49-1.77.56-2.58,1.1-3,2-6.55,2.3-9.62,4a2.87,2.87,0,0,1-4-.82c-1.18-1.66-.51-3,.71-4.43.93-1.06,3.38-1.67,1.48-3.84-1-.65-2.07-2.31-3.19-1.28-1.54,1.4-.55,3.58-.54,5.43a45.1,45.1,0,0,1,.87,5.65c-.06,3.89,1,7.71.72,11.62a4,4,0,0,1-1.5,2.54,1.24,1.24,0,0,1-1.4,0c-.45-7.37-.94-14.74-1.33-22.12-.2-3.67.25-7.2,3.1-10,3.21-2.11,4.68,1,6.64,2.35,1.77-.73,1.85-2.89,3.44-3.58,2.32-1,3.94,0,4.89,2,1.88,4,4.15,5,8.74,3.42,2.62-.93,4.63-1.51,6.68-3.66s3.54-4.09,2.88-7.28c-.51-2.48.85-4,3.18-4.93,1.13-.42,3-.1,3-1.94s-1.9-2-3.26-2.52a16.81,16.81,0,0,1-2.28-1.45c0,1.74.46,3.31.18,4.88a5.11,5.11,0,0,1-3.29,4.06c-2,.8-3.11-.24-4-1.85a3.69,3.69,0,0,0-1.94-1.47c-3.08-1.31-3.65-3-.37-4.68,3.11-1.57.68-6.1,4.7-7-1.93-1.48-3.67-.87-5.26-1.15-3-.52-5.11-2-5-5.18.19-4.55-1.85-6.55-6.26-7.22-2.41-.37-4.76-1.26-7.24-1.63C59.12,138,57.28,135,58,130.44c1-1.86,1.88-3.89,3.91-5a1,1,0,0,1,1.28-.12c.21,4.77,2.8,6.49,7.44,7.35,5.36,1,11.27,2.24,13,9a3.31,3.31,0,0,0,2,2.13c2.56,1.16,5.11,2.2,6.32,5.15.49,1.19,2.12.45,3.21.72a4,4,0,0,1,1.32.55,48.14,48.14,0,0,1,7.73,10.29c2.09,3.89,4.27,7.89,9.72,8.54-3.95,4.65-6.55,8.79-7.95,13.61-.85,3.4-1.05,6.55,2.44,8.83A2.26,2.26,0,0,1,109.1,194.63Z"/><path class="cls-5" d="M58,130.44c.68,4.34,2.35,7.48,7.59,7.14,3.48-.22,6.4,2.22,9.94,2.5,2.1.16,2.81,2.67,2.5,4.82-.8,5.57,2.07,7.12,7,6.64a6.64,6.64,0,0,1,2.48.1,3.3,3.3,0,0,1,2,1.27c.59,1.25-.62,1.82-1.5,2.08-2.35.68-3.23,1.66-2.22,4.29.7,1.82-.3,3.3-2.68,2.73-.92-.22-1.73-.22-1.8.93-.06,1,.6,1.52,1.59,1.41s2.24-.64,3,.85c.53,1.07-.42,3.57,2.31,2.71A3.88,3.88,0,0,0,91,163.33a20.11,20.11,0,0,0-.37-2.45c-.35-1.4-1.44-3.16.4-3.93,2-.85,1.7,1.31,2.16,2.41s1.48.94,2.52.86c3.12-.25,3.34,2.41,3.68,4.35.52,3-2.09,1.71-3.41,1.93-3.33.57-4.7,2-3.34,5.5.73,1.9.89,4.1-1.34,5.27-2.41,1.27-4.61,2.09-3.64,5.83.42,1.6-1.66,1.55-2.66.2s-1.93-1.82-3.67-.7c-4.11,2.66-6.86,1.79-9-2.58-.7-1.46-.75-3.51-3-3.34s-2.17,2.11-2.5,3.73c-.22,1-.92,1.91-2.07,1.74-.94-.13-2.28-.48-2.32-1.55-.13-3.24-2.5-2.92-4.56-3.18,2.32-4.84,1.76-20.07-.91-24.5C54.18,148.16,54.78,134,58,130.44Z"/><path class="cls-6" d="M57.07,209.47l1-2c3.94-4.31,9.63-5.3,14.58-7.72,5,0,5.14.06,3.36,4.38s-2.31,8,2.75,10.37A2,2,0,0,1,80,216c.12,2.59.48,5,2.34,7.08.71.81-.51,1.73-1.25,2.39h0c-2,1.35-1.61,3.46-1.81,5.41-.45,4.52-2,8.44-6.47,10.43-2.86,1.27-2.57,3-1.7,5.61,1.73,5.29,5.9,9.71,5.47,15.81-.15,2.12,3,2.4,3.71,4.72a21,21,0,0,1-8.46.14,3.94,3.94,0,0,1-4-3.11c-1.82-6.57-5.53-12.16-8.78-18-.86-5.7-4.75-11-2-17.15.54-1.21-.55-1.25-1.25-1.53-.85-.35-1.56-1.19-1.29-1.88C56.48,220.62,52.32,214.32,57.07,209.47Z"/><path class="cls-7" d="M178.1,105.5c4-.26,8-.21,11.86-.85,7.61-1.26,14.8,1.07,22.11,2.2a81.22,81.22,0,0,0,14.86.55c.06.27.13.53.19.8-3.67,2.75-8.26,2.92-12.21,2.46-6.25-.72-12.14-.91-18,1.66a11.81,11.81,0,0,1-4.39.62c-4.94,1.22-9.78,2.56-15,2.61-5,0-5.7,1.56-5.33,6.42.27,3.66.22,7.2-1.86,10.54-1.92,3.08-.37,7.34-3.11,10.26-3.1.78-4-.9-3.62-3.51.32-2.29.32-4.69,1.09-6.86,1.26-3.59.24-5.78-3-7.78a44.83,44.83,0,0,0-11.13-5.37,17.42,17.42,0,0,1-6-2.44c-2.62-2-4.54-4.61-4-8s3-4.9,6.17-5.68a32.79,32.79,0,0,1,6.89-.91,11.05,11.05,0,0,1,3.9.22C164.19,104.72,171.16,105,178.1,105.5Z"/><path class="cls-8" d="M145,188.53a3.21,3.21,0,0,1-3-1.88c-.5-.79-1.9-1.38-.54-2.57,4.21,0,8.18-.56,11.57-3.51,1.76-1.54,4-1.18,6.21-.58a143.06,143.06,0,0,1,14.15,4.86c5.77,2.26,11.77,3.42,17.79,4.58,7.19,4.52,15.52,3.91,23.42,5.08,7.57,1.12,10.75,3.74,12.26,11.22A16.25,16.25,0,0,0,234.44,216c-.42,3.92.88,6.7,5,7.76a2.65,2.65,0,0,1,1.84,2.15c-.06.83-.65,1.18-1.31,1.48-4.46-1.85-6.92-4.65-9.12-9.52-1.91-4.24-5.3-8.36-7.29-13a3.79,3.79,0,0,0-3.54-2.37c-4.32-.05-8.64-.11-13,0-3.8.07-3.82,4.21-6.13,5.92-2.74-4-7.43-1.67-10.88-3.35-5-3.88-11.09-4.72-17-5.91-2.59-.52-3.28,1.3-3.13,3.74.25,4.07,1.48,8.16.14,12.26a28.46,28.46,0,0,0-.78,5.66c-.19,1.47.07,3.34-2.16,3.66q0-9.37-.06-18.74c0-2.13.12-4.29-1.1-6.21-.46-4.66,3.58-5.19,6.34-7.18a45.48,45.48,0,0,1-5.61-1.86c-3.5-1.54-6.9-2.35-10.41,0a2.79,2.79,0,0,1-3.28,0h0C150.4,189.55,147.61,189.29,145,188.53Z"/><path class="cls-9" d="M178.1,105.5c-8.58,2-16.69-1.8-25.1-1.94-1.7-1-3.5-.55-5.24-.25-2,.32-3.57,0-4.74-1.74-1.17,0-2.46.32-3.48-.07-4.62-1.77-6.86.31-8.82,4.35-1.45,3-4.27,4.2-8,3.16-7.16-2-14.43-3.66-22-3.47a7,7,0,0,1-3.42-.44c-4.78-2.64-8.1-1.37-10.29,3.46-.88-.84-2.36-.79-3-2,.19-2.28,2.74-5.36-2-6-2.26,1.28-4.47,2.27-6-1,15.74.22,31.22-3.21,47-3,13.37.13,26.28,2.42,39.15,5.62C167.45,103.47,172.8,104.4,178.1,105.5Z"/><path class="cls-10" d="M81.1,225.49c-.82-3.47-2.11-6.86-3.24-10.19-.55-1.63-6.17-.79-3.67-5.42l-3.24.31c3.69-2.55,3.14-6.54,5.48-9.1-1.11-1-2.3-.52-3.39-.63-.38.35-1.12.65-1.29.38-2.61-4.43-6.47-4.54-10.87-3.46-1.51.37-2.77-.76-3.79-1.89q-.5-3-1-6c2.67-.85,4.1-3.17,6-5,2.88,1.67,2.23,3.09-.12,4.77-1.28.91-4,1.66-2.23,4,1.63,2.14,3.15-.2,4.75-.69a53.86,53.86,0,0,0,12.64-5.91c1.58,1.66-1.14,2.43-.29,3.77.25.15.65.52.79.44,2.8-1.65,4.09-.93,4.6,2.35s4.52,6.08,1.27,10c-.58.7.61,1.77,1.69,2S86.94,205,86.9,204c-.09-2.12,1.41-4.08.41-6.33a1.87,1.87,0,0,1,1.42-2.7c1.33-.22,1.25,1.24,1.62,2.1.19.45.32.94.55,1.38.6,1.16-.78,3.54,1.6,3.46,1.56,0,1.43-1.93,1.6-3.24.08-.58.38-1.4.82-1.6.94-.44,1.49.41,1.92,1.11,1.65,2.68,2,5.56-.37,7.8-4.3,4.09-6.26,10.12-11.41,13.45C81.7,220.11,84.51,224.82,81.1,225.49Z"/><path class="cls-11" d="M196.09,215.48c-1.65,5.86-2.47,12.13-8,16-1.12-1.24-1.92-3.81-4.15-1.11,1.16,1.69,3,0,4.15,1.1-1.57,5.88-4.46,11.61-2.12,18,.14.21.27.43.4.64,0,.24-.1.49-.16.73-3.37,3-5.52,3.13-8.19,0-3.59-4.23-4.18-9.11-2.74-14.36.41-1.47,2-2.85.49-4.54a4.36,4.36,0,0,1-1.37-4.85c.7-1.34,2-1.69,3.32-1.88,7.4-.15,8.23-.61,9-4.94.19-1,.51-2.15-.36-2.81-3.63-2.76-5.57-7.57-10.71-8.52-3.08-.57-5.52-2.5-4.77-5.84s3.85-3.64,6.85-3.35A15.31,15.31,0,0,1,188.46,205a5.23,5.23,0,0,1-.46,2.89c-1.09,3.08.22,4.71,3.21,5.36C193,213.66,194.77,214.07,196.09,215.48Z"/><path class="cls-12" d="M105.05,182.49c.07-5.42,4.43-8.42,6.08-12.94-2.44-.57-5-2.2-6.65-5.84-2.17-4.69-5.56-8.82-8.43-13.19-.1-2,1.28-1.65,2.5-1.54,3.57,3.64,5.7,8.7,10.73,10.89a18.37,18.37,0,0,1,5.66,5.23c.92,1.37,1.86,1.85,2.68-.11,1.22-1.85,2.27-3.87,4.75-4.33a24.26,24.26,0,0,1,3.41.05c5,.08,5.41.39,5,5.26a13.52,13.52,0,0,0,.92,6.19c.82,3.23-1.55,5.13-3.07,7.39-1.22.69-1.82,2.44-3.63,2.1-.72-.78-.61-1.83-.88-2.77-.54-1.83-1.6-3.55-3.48-3.77-2.3-.28-2.15,2.09-2.61,3.52a20.81,20.81,0,0,1-3.81,6.29c-1.71,2.22-2.17,4.38-.08,6.61l-.89,1.07c-2.74,1.27-4.21-.11-4.29-2.63C108.84,186.73,107.06,184.61,105.05,182.49Z"/><path class="cls-13" d="M21.05,100.69c-1.74-3.12-5.64-2.88-8-5.1,4.81.06,8.57-4.53,13.73-3,1.09.32,2.48-.15,3.43.32,4.93,2.45,9.72,4.33,15.42,2,1.28-.51,3.67,1.22,5.31,2.29a14.28,14.28,0,0,0,6.45,2.34c1.38.14,2.87.26,3.36,1.66,2,5.64,7.54,10.44,4.26,17.37a1.62,1.62,0,0,1-2.13-.77c-3.2-8.19-11.48-10.32-18-13.78-4-2.1-9.92-1.54-15-2-1.62-.14-3.31.43-4.87-.43C23.66,101.48,22.14,102,21.05,100.69Z"/><path class="cls-14" d="M71.81,267.6h8.56c-4.49-1.92-5.21-3.78-5.29-7.56-.11-4.54-3-9.31-5.58-13.42-2.13-3.38-1.18-5.08,1.8-6,5.49-1.74,6.5-6,6.73-10.79.1-2.11-.47-4.62,3-4.32a5,5,0,0,1-.15.94,10.14,10.14,0,0,0,.11,9c-.15,4.49,3.67,8.17,2.42,13.1-.33,1.27,2.29,3.3,3.56,5s-.11,2.82-1.31,3.62c-2.8,1.89-3.89,4-1.55,7a2.82,2.82,0,0,1-.13,4.05C79.94,268.21,75.81,269.12,71.81,267.6Z"/><path class="cls-15" d="M262.9,259.47l-1-.83c-3.36-3.31-7-6.5-6-12a7.27,7.27,0,0,1,2.66-4.47c3.13-1.17,2.21,2,3.53,3.46,1.5-4,2.54-8.68,8.39-6.85,1,2,.72,4.21.74,6.34.11,10.14,2.89,12.9,13.09,12.93a14.45,14.45,0,0,1,3.6,0c4.77,1.78,4.77,1.78,1.94,6.13-.18.28-.48.53-.51.85-.39,4.43-1.21,7.68-5.85,2.55-.87-1-1.76.32-2.61.63-4.45,1.6-5.16.79-8.25-2.61a13.66,13.66,0,0,0-4.6-3.19c-3.66-1.06-2.49-3.07-1.91-5.29C265.28,258.45,264.87,260,262.9,259.47Z"/><path class="cls-16" d="M276,173.57l-1.07.94a10.35,10.35,0,0,1-10.15,2c-2.21-.69-4.32-1.36-6.69-.6-1.48.48-2.57-.14-2.69-1.88a3.91,3.91,0,0,1,1.34-2.56c2.21-.62,4.31-1.91,6.76-1.19,4.86,3.73,5,3.75,7.59-1.76,1.26-2.73,3.55-3.23,6.09-3.51,6.78-.76,8.19-2.68,6.91-9.44-.15-.82-.4-1.62-.52-2.44-.62-4.25.57-5.48,4.84-5a12.61,12.61,0,0,1,5.23,1.46c1.8,1,2.52,3.39,4.74,3.92a11.65,11.65,0,0,1,1.29.6c2.86,2.91,6.8,3,10.41,3.95,2,1.62,1.67,3.41.24,5.15-1.62,2-3.49,3.62-6.33,2.92a36.44,36.44,0,0,1-6.53-2.31c-3.17-1.45-5.67-.82-8,1.64-2.57,2.72-5.41,4.74-9.56,3.93C276.65,168.72,277.65,172.48,276,173.57Z"/><path class="cls-17" d="M226.93,107.4c8.27-1.73,16.33-4.84,25-3.89,9,1,18-1.76,27,0a6.86,6.86,0,0,0,5.19-1.29c9.09-6,18.73-6.55,28.75-2.63-3.2,3.42-8.28,4.6-12.11,2.71-.94-.47-2-1-2.72-.25-2.5,2.64-6.28,1.68-9.05,3.44a23.45,23.45,0,0,0-4.61,3.8c-2.26,2.1-4.77,3-7.77,1.78-2.6-2.31-5.64-2.53-8.87-1.85a26.76,26.76,0,0,1-5.43.64,15.77,15.77,0,0,0-3.68.51c-4.4-.54-8.72-1.22-13.16.23-3.32,1.07-5.92-3.08-9.47-1.93-3.07.15-6.23,1.06-9-1Z"/><path class="cls-18" d="M339.08,143.44c2,1.62,4.25,2.92,5.73,5.1-.31,1.52.37,2.94.42,4.41.17,4.69-2.6,7.83-7.19,8,2.73.66,5,1.88,7.48,2.7,1,.34,2.41.91,1,2.43-7,2.35-12.67-.8-18.19-4.31-2.58-1.65-2.79-4.32-1.86-7.13,1.37-4.1,2.48-8.27,2-12.67,0-2.17,1.56-3,3.23-3.78C335.44,138.21,335.94,142.67,339.08,143.44Z"/><path class="cls-19" d="M276,173.57c-.29-4-.08-7,5.6-5.25,4.3,1.3,6.24-3.28,8.78-5.53,2.06-1.83,3.27-2,5.49-.91s5,1.7,7.42,2.85a3.64,3.64,0,0,0,4.86-.91c1.42-1.55,3.59-2.79,1.76-5.38-.14-.93.44-1.38,1.18-1.72a5.3,5.3,0,0,1,3.72.16c2.48,2.48,6,4,6.85,8-.8,2.5,2.62,3.32,2.28,5.65-1.15-.09-2.51.19-3.41-.33-8.23-4.73-16.72-1.16-24.92-.39-4.63.43-9,2.36-13.84.76C279,169.59,278.55,173.75,276,173.57Z"/><path class="cls-20" d="M262.9,259.47c2.66-.77,1.4-3.86,3.15-5.37a4.56,4.56,0,0,1,0,6.32c1.84,1.54,2.45-.78,3.81-.66-1,5.29.14,6.71,4.19,2.06,2.31,2.35-.81,3.86-.71,6,3.29-.55,6.91.87,9.52-2.28l5.28,4.38c-1.07-4.2-.39-7.29,4.11-8.95-1.58-1.37-4.51.34-4.29-2.51a25,25,0,0,1,2.06-4.18l1.9,1.19c1.25,5.43,6.33,6.54,10.19,9,1.2,3.16-3.31,5-1.95,8.16C285.07,275.84,272.13,272.89,262.9,259.47Z"/><path class="cls-21" d="M328.93,141.47c1.5.24,1.77,1,1.37,2.45-1,3.8-1,7.85-2.77,11.47-1.44,2.87-.08,4.75,2.39,6.09,5.27,2.86,10.71,5.08,16.93,3.93a.81.81,0,0,1,1.14.24c-.95,3.6-3.37,5.49-7,6-2.8,0-5-1.75-6.76-3.39a40.65,40.65,0,0,0-11.91-7.43c-1.35-1.51-1.08-3,.05-4.49a21.51,21.51,0,0,0,2.45-3.74c2.33-5,1.57-6.06-3.83-5.82-1.57.08-3.31.91-4.68-.66a18,18,0,0,1-1.32-4.2c-1.39-5.16-.54-6.2,5.12-6.36a13.29,13.29,0,0,1,5.94,3A25.09,25.09,0,0,1,328.93,141.47Z"/><path class="cls-22" d="M284.91,259.39c-4.55,0-9.05.47-12.49-3.81-2.44-3-2.53-6.24-2.48-9.7,0-2.47,0-4.93,0-7.39-1.34-1.41-1-3-.55-4.64,1.08-3.69,2.53-4,5.73-1.5l5,11.92a1.26,1.26,0,0,1-.5,1.68c-3.38,2.51-2.52,4.56.74,6.19C283.37,253.66,285.21,255.82,284.91,259.39Z"/><path class="cls-23" d="M84,268.19c0-1.27.1-2.46-.84-3.66-3-3.84-2.62-5.81,1.67-8.11,1.29-.7,2.1-1.43,2.16-2.9,1.69,2.41,4.45,1.7,6.76,2.33,1.92.52,3.86,1,5.32,2.51,2.37,1.76,6.51,2.53,4,7.05l-1.11-.14c-3.33.21-6.48,1.82-9.9,1.25l0,.12c.52.6,1.61,0,2,.89C90.84,269.19,87.39,268.1,84,268.19Z"/><path class="cls-24" d="M175,227.44c-.09,1.72.19,3.26,2,4a16.09,16.09,0,0,0-2.6,11.72,5.6,5.6,0,0,1-1.3,4.56c-2.58,1.09-5,1.35-6.9-1.27,0-6.7-.9-13.44.72-20.08.06-.64.13-1.28.19-1.92,2.28-3-.64-7,1.86-10,4-2,4.88-1.56,5.31,2.51a53.45,53.45,0,0,1,.08,5.37C174.59,224,174,225.82,175,227.44Z"/><path class="cls-25" d="M275.08,232.35c-4.11-1.45-4.65-.81-5.18,6.14-3.38,1.45-6.9,2.75-6,7.63.18.92-.14,2.37-1.48,1.77s-3.23-1.42-2.67-3.51c.27-1,1.13-1.79-.66-1.91-1.64.79-3.91.89-2.71-1.36a7,7,0,0,0,.89-4.57c2.16-1.62-1.57-1.21-.81-2.34a2.59,2.59,0,0,1,.12-1.35c.73-1.15,1.89-1.07,3-1.11,3.73-.12,4.56-1.91,2.86-5.09.27-3.18,3.79-4.7,4-7.89l.56-.39C269.75,223,271.71,228.09,275.08,232.35Z"/><path class="cls-26" d="M261.93,199.48a70.46,70.46,0,0,1,3.21,13c-2.81.56-5.65,1.6-8.32-.45a3.41,3.41,0,0,1-.56-1.31c-.13-1.8.55-3.59.31-5.35-.31-2.27-.91-5.07-3.82-4.81-4.31.39-4.45-2.12-4.46-5.1,1.45-2.75,4.25-1.53,6.42-2.14,1.59-.46,1.33-.88.23-1.58-.32-.51-.42-1.36-1.22-1.25-2.05.28-4.18.47-4.38-2.28-.18-2.45,1.34-3.85,3.77-4.2,1.91.2,3.85.27,5.38,1.68,1.42,2.57,5.91.46,6.35,3.55.32,2.29-2,4.32-3.19,6.48C261,197,261.46,198.24,261.93,199.48Z"/><path class="cls-27" d="M261.93,199.48c-2.52-1.55-4-3-.65-5.49,1.42-1.08,2-3.28,2.91-4.91-1.77-1.83-5.39,1.29-6.21-2.58,1-3.48,4.29-4.58,7.64-6.54a24.22,24.22,0,0,0-12.74,3.81,1.44,1.44,0,0,1-1.44-1.32c1.17-2.77-.16-5.85,1.07-8.63a2.2,2.2,0,0,1,3.43-.3c.16.44.33.89.49,1.34,6.11-2.51,12.39,3.36,18.48-.35a54.09,54.09,0,0,0-10.61,20.14A14.32,14.32,0,0,1,261.93,199.48Z"/><path class="cls-28" d="M332.83,122.58c2.18,4.79,2,9.89,2,15-2.34.24-2.59-1.54-2.95-3.12-.3-1.27-.31-2.61-.69-3.87-.46-1.53-.42-3.44-2.47-3.87-2.63-.55-1.58,2.47-3,3.17a11.22,11.22,0,0,1-6.59-.84c-2-2.39-.82-5.08-.44-7.55.67-4.31.76-8.43-1.41-12.36a2.88,2.88,0,0,1,.34-1.41c3.85-.72,5.31,3.7,8.69,4C329.91,114.48,330.42,119.1,332.83,122.58Z"/><path class="cls-29" d="M25,101.61c6.29-2.1,12.59.38,18.89.39,3.78,0,7.39,4.39,11.36,6.15,4.87,2.15,7.57,5.95,9.77,10.41l0,1c1.25,2.64,1.64,5-2,6l-1.17-.09c2-5,.59-6.73-4.81-10.56C47.34,108,36.2,104.86,25,101.61Z"/><path class="cls-30" d="M332.83,122.58c-3.57-2.48-3-7.83-6.93-10-4.54-3.46-9.51-6.44-12.88-11.25,0-.23-.09-.45-.14-.68-9.16-4.32-18.16-3.65-26.69,1.46A16.23,16.23,0,0,1,273.41,104a13.35,13.35,0,0,0-10.05,1.16c-3.75,2.07-7.6-.89-11.41-1.63,6.47-.8,12.85-2.33,19.52-1.37a24.91,24.91,0,0,0,16-2.74c8.46-4.41,18.21-4.31,27.29.09C324.58,104.24,329.6,112.72,332.83,122.58Z"/><path class="cls-31" d="M114.11,191.53c-4.18-.17-3.71-2.85-2.27-5.1,2.4-3.74,5.23-7.18,6.16-11.71.22-1.09,1.29-2.55,2.46-1.73,2.21,1.54,4.93,2.92,5.15,6.15a8.79,8.79,0,0,1-.53,2.4c-.1,3.14-3,3.66-4.85,5.08A13.83,13.83,0,0,1,114.11,191.53Z"/><path class="cls-32" d="M57.07,209.47c-.37,3.74-2.72,7.36-.12,11.28.82,1.23-.65,2.72-1.39,4-.61,1.08-.8,2.6,1.12,2.21,2.1-.43,1.75.45,1.47,1.77-1,4.67-1.89,9.3.81,13.84.58,1,.08,2.59.07,3.92-2.66-7.38-5.17-14.82-8-22.13-2.55-6.56,1.87-10.47,5.14-14.89Z"/><path class="cls-33" d="M196.09,215.48l-4.36-.91c-6.37-1.3-7.26-3.48-3.74-9.13a2.28,2.28,0,0,1,2-1c2.42,0,4.84.16,7.24,0,3.07-.24,4,1.2,3.71,4C199.64,211,197,212.61,196.09,215.48Z"/><path class="cls-34" d="M76.06,99.6c1.75,1.77,4,.66,6,1-.52,4.29-4,6.69-6.53,9.52-2.19,2.44-4.59,1.35-6.4-1.4-3-4.54-2.86-6.54,1.12-9.24Z"/><path class="cls-35" d="M322.93,160.51c7.71,1,12,7.43,18.07,11.13-3,1-5.92,2.8-9.23,1-3.2-3-7.84-3.84-10.85-7.14-.31-3.93-5.09-4.5-6-8C318.48,156.1,320.27,159.46,322.93,160.51Z"/><path class="cls-36" d="M153,190.49a4.59,4.59,0,0,0,3.49-1.44,6.58,6.58,0,0,1,7.42-1,109.17,109.17,0,0,0,12.68,4.36c-4.51,1.12-8.57,2.7-10.63,7.13-.94-6.27-4.62-8.8-10.82-8.12C154.48,191.48,153.72,190.81,153,190.49Z"/><path class="cls-37" d="M301.94,265.41c-.8-.55-1.61-1.59-2.38-1.55-6,.27-7-3.86-7.63-8.39,4.39,3.8,10.47,3.06,15.35,5.8,4.35,2.45,5.87,5.18,3.62,9-1.24-1.1-1.42-3-2.86-3.92-.74-.48-1.39-1.35-2.26.12C303.33,270.62,302.78,267.35,301.94,265.41Z"/><path class="cls-38" d="M284.91,259.39c-1.85-2.66-2.53-6.25-6.86-6.72-1.76-.2-2-2.6-2.16-4.51-.31-3.37,3.23-2.16,4.2-3.88,1.76,4.88,5.26,8,9.94,10,1.47,2.46-.23,3.35-2.06,4.18Z"/><path class="cls-39" d="M348,165.65l-1.14-.24c-4.27-.89-7.68-4.08-12.23-4.18.4-1.66,1.38-1.67,2.41-1.53,4.92.68,8.18-3.11,6.59-7.92-.56-1.69-1.11-2.84,1.19-3.24,1.66,1.43,3.71,2.54,4.14,5-.89,3.44-1.82,6.88.85,10Z"/><path class="cls-40" d="M183.06,263.26a38.89,38.89,0,0,1-11.14-.26,7.21,7.21,0,0,1-4.83-3.69c-2.89-3.53-1.2-7.21-.34-10.85a11.21,11.21,0,0,1,6.2.51,6.2,6.2,0,0,1,1.18,6.07c-1.17,4.49,1.22,5.54,4.82,5.92a8.34,8.34,0,0,1,3.8,1,1,1,0,0,1,.42.82C183.17,263.1,183.13,263.26,183.06,263.26Z"/><path class="cls-11" d="M193.11,254.34c.94,2.24,4.53,3.77,1.86,7-1.64-.86-3.18.1-4.72.33-2.1.32-3.9.25-5.05-1.83-1-3.23-1-6.39.79-9.38h0C189.6,249.47,191.28,252,193.11,254.34Z"/><path class="cls-41" d="M301.94,265.41l2,2.36c2.43-.92-.88-4.52,1.9-4s5.88,2.41,5.08,6.51a25.36,25.36,0,0,1-10.73,2.37c-1.47-2.09-1.2-4.09.56-5.36C301.3,266.89,301.55,266.05,301.94,265.41Z"/><path class="cls-42" d="M167,248.42c.45,3.63-.83,7.27.07,10.89-3-1.56-3.89-3.23-2.8-7.06,1.75-6.15.62-12.75.85-19.16.08-2.38-1-5.06,1.79-6.7l.12,21.07c.28.22.36.44.26.65S167.12,248.42,167,248.42Z"/><path class="cls-43" d="M326,129.52c.46-1.52-2.6-3.85.21-4.39,2-.38,5.41-1.1,6,3.47.41,2.92-.74,6.73,2.6,8.94,1.43,2,2.86,3.93,4.28,5.9-3.51,0-4.43-3.73-7.1-4.94-3.18-1-1.29-5.21-4.06-6.47A5.92,5.92,0,0,1,326,129.52Z"/><path class="cls-44" d="M105.05,182.49c4,.37,5.71,2.4,5,6.45-.41,2.36.58,3.74,3.15,3.65-1,1.55-2.48,1.9-4.12,2-.49-.83-.8-2.16-1.5-2.42C102,190.13,103.76,186.27,105.05,182.49Z"/><path class="cls-45" d="M256.94,246.36c-1.22,5.25,3.33,8.17,4.93,12.28-9.14-3.21-10.85-10.73-11.07-19.11l.6-.3C254.12,240.92,253.9,244.91,256.94,246.36Z"/><path class="cls-46" d="M240,227.43l.85-1.07c2.82-2,5.79-1,8.74-.47a24.45,24.45,0,0,1,4.53,3.37c.21,2-1.19,2.1-2.49,2-1.88-.21.18.88-.4,1a2.2,2.2,0,0,1-1,1,4.33,4.33,0,0,1-4.18-.77C243,232,242.2,228.83,240,227.43Z"/><path class="cls-47" d="M257,211.45c2.55,1.66,5.65-1.15,8.15,1a16.68,16.68,0,0,1,1.94,5.94l-.25.15c-3.35-.59-6.78-.31-10.14-.86a5,5,0,0,1-1.52-4A2.53,2.53,0,0,1,257,211.45Z"/><path class="cls-48" d="M349.8,163.56c-5.9-2.87-3.31-6.45-.85-10C354,157.84,354.05,158.72,349.8,163.56Z"/><path class="cls-49" d="M320.92,165.51c4.48.81,7.71,4.09,11.66,6,1.48.71-.43.81-.81,1.17-2.84.08-5.21-1.52-7.85-2.16C323,168.77,319.23,168.79,320.92,165.51Z"/><path class="cls-36" d="M120.23,186.62l4.85-5.08,3-2.07c6.1-2.9,9.15,2.08,13,5,.31.71.61,1.42.92,2.14a11.92,11.92,0,0,1-3.18-1.33c-5.65-4.67-11-6.29-16.18.73C122.21,186.54,121,186.44,120.23,186.62Z"/><path class="cls-50" d="M246,232.43l4.93,0c1.86,2.24,1.79,4.54.23,6.88l-.34.17A12.63,12.63,0,0,1,246,232.43Z"/><path class="cls-51" d="M186.08,260.49c2.82,1.78,6.12-1.59,8.89.83a32.9,32.9,0,0,1-11.91,1.94c0-.27,0-.55,0-.83A2.69,2.69,0,0,1,186.08,260.49Z"/><path class="cls-52" d="M81,235.45c-3.11-3-3-6-.11-9Q81,230.94,81,235.45Z"/><path class="cls-53" d="M193.11,254.34c-2.52-1-4.27-3.49-7.14-3.89,0-.33,0-.66,0-1C189.6,249.23,192.87,249.57,193.11,254.34Z"/><path class="cls-54" d="M103,265.41c1.23-3.78-2.59-4.73-4-7.05C104.89,259.78,106.05,261.86,103,265.41Z"/><path class="cls-55" d="M94.11,267.53l-2-.26c3.26-2.15,3.37-2.17,9.78-2A24,24,0,0,1,94.11,267.53Z"/><path class="cls-36" d="M145,188.53c2.89-.15,5.7,0,8.06,2C150.15,190.57,147.35,190.37,145,188.53Z"/><path class="cls-56" d="M122,161.51l-4,4c-2.77-.32-3.51-2.9-2.46-4.24,2.66-3.42.41-5.71-.93-8.35a17.45,17.45,0,0,1-1.07-2.79c-3-3.87-5.3-7.74-1.12-12.34.95-1.06-.12-2.55-.33-3.83-.41-2.44-.18-5.75,2.07-6,4.94-.65,3.5-4.75,5.41-7.56-4.5-.09-8.63.12-12.66.28-4.66.18-8.57,6.19-8.47,12,.06,3.61-.55,6.62-4.42,7.93C94.41,136,89.8,132,92.85,127c1.07-1.74-1.38-2.66-2.58-3.69s-3.92-.77-2.8-3.67.18-6.08,4.26-8.11c9.14-4.54,17.57-1.91,26.16,1,3.89,1.3,13.87-.89,16.54-3.88.66-.73,1.59-1.41,1.26-2.53-.88-3,.1-3.73,3-2.83,1.77.56,3.18-.42,4.35-1.72,3.11,1.73,6.93,0,10,2a38.2,38.2,0,0,0-5.41.57c-3.33.59-6.26,2.06-6.07,5.39a7.57,7.57,0,0,0,5.78,7.29,46.18,46.18,0,0,1,16.57,7.67c2.18,1.66,4.9,2.63,2.42,6.43-1.72,2.61-.15,6.33-1.83,9.4-.75,1.36,1.13,2.07,2.54,2.22,2.13-.58,3.88.49,5.7,1.28,3.69,1.59,3.63,1.53,1.12,4.79-.56.73,1.08,1.46.69,2.48-.17,5.28,3.32,9.47,8.65,12.11,5.64,2.78,12.12,3,17.52,6.19,2.31,1.36,4.3,2.9,6.86.73a3.39,3.39,0,0,1,2.52,1.11,1.92,1.92,0,0,1-.29,2.22c-2.83,3-1,4.7,1.57,6.27a2.47,2.47,0,0,1,0,1.4c-.1.14-.21.39-.29.38-6.62-.71-10.63,4.58-15.94,6.89-1.36.09-2.84.15-3.35-1.43s.86-2.35,1.92-3.12c2-1.45,4.3-2.53,6.33-4.94-3.13-.25-6.14-.28-7.91-3a1.72,1.72,0,0,0-1.8-.67c-3.57,1.05-7.45-1.22-11,1.82-5.25,4.5-11.2,4.27-15.92-.7-3.62-3.81-8.34-4.13-12.64-5.85.54-3.71,6.2-7.69,9.22-6.48,4.11,1.64,4.11,1.64,8.61.1-1.22-.81-2.66-.32-3.86-.84s-3.63-.47-3.49-2.14c.18-2.16,2.49-1.47,4-1.59-3.55-2.2-3.58-2.73-.13-6-2.94-1.55-5.9-3.05-7-6.5a1.88,1.88,0,0,0-1-1.05c-6.77-2.5-8.54-9-11.71-14.44s-7.3-6.26-13.38-2.94c1.06,2,4.71,2.58,3.43,5.81-.75,1.88-2.18,2.25-10,2.61.73,1.08,2.39,1.52,1.91,2.94s-1.68,1.32-2.85,1.43c-1.89.18-5-1.3-5.35,1.15-.45,3.47-1.65,7.47,2.22,10.48C126,156.57,125.86,157.38,122,161.51Z"/><path class="cls-57" d="M94,140.54a11,11,0,0,0,3.16-9.3c-.54-6.65,6.24-12.47,12.71-11.75a17.32,17.32,0,0,0,7.37-.75c1.38-.46,3.11-.55,4.07,1s-.6,2.21-1.52,3.08c-2.91,2.77.07,3.64,2.14,4.48-2.61,2.94-5.93-1.15-8.07,2-2,2.83-.1,5.27.32,7.88a1.77,1.77,0,0,1-.36,1.42c-5.55,4.32-1.61,7.6,1.17,11-2.86,1.57-4.15-.91-5.82-2.3s-2.57-3-4.07-5.15c.42,5.27.91,9.76,3.4,13.84.81,1.33,1.8,2.9.51,4.59a8,8,0,0,1-6.41-4.76c-.58-1.23-.91-2.58-2.92-2.83-2.42-.31-1.2-2.1-.67-3.41,0-1.6,0-3.19-.08-4.78-.12-2.89-1.69-3.28-3.92-3.19Z"/><path class="cls-13" d="M63.08,125.56c1.93-1.58,2.06-3.76,2-6,4.58,1.35,9.29,1.43,14,1.47a17.12,17.12,0,0,1,10.65,4c2.69,2.2-.1,3.62-2.15,4.35-1.22.43-2.94.25-3.09,1.89-.18,2.08,1.75,1.86,3.11,2.35,2.81,1,4.68,2.37,1,4.88-1,.73-1.63,2.47,0,2.55,3.8.16,4.49,3.4,6.4,5.44,1.1,1.32.42,2.65,0,4-1.86-.26-5.78,3.8-4.89-2.47.13-1-2.15-2.34-3.88-2.47s-3.58-1-3.82-2.63c-1.19-8.13-8-8.12-13.61-9.29S61.71,130.85,63.08,125.56Z"/><path class="cls-56" d="M95.06,150.51c-1-1.32,0-2.65,0-4v-5c1.43,0,1.8-1.1,2.34-2.16a1.25,1.25,0,0,1,2.07-.3c.87.76.51,9.33-.41,10.43-1.1,0-2.27-.17-3,1Z"/><path class="cls-13" d="M84.05,106.56c1.45,0,2.91,0,3,2-1.14.37-2.26,1.62-3.47.4C82.74,108.13,83.18,107.23,84.05,106.56Z"/><path class="cls-58" d="M57.09,195.49c2.34.58,4.55,1.29,7.06.2,3.5-1.52,6.25-.82,7,3.52.17.95,1,1.15,1.86,1.25l-14.93,7Z"/><path class="cls-59" d="M62.06,184.5c-.79,3.09-1.7,6-6,5a18.54,18.54,0,0,1,0-2c.16-1.73-.8-4,.93-5.05C59.1,181.21,60.34,183.82,62.06,184.5Z"/><path class="cls-60" d="M61.76,223.9c-2.17-4.71-6.45-8.24-.66-11.84,1.88-1.16,3.21-.11,4.23,1.29C68.94,218.33,62.67,219.55,61.76,223.9Z"/><path class="cls-61" d="M227,107.71l10-.14c2.06,4.73,4.52,7.75,10.43,4.5,1.62-.89,6.06-1.6,6.7,2s-3.35,3.91-5.68,5.2c-1,.56-2.29.21-3.43.38-1.81.27-2.9,1.35-2,3.1,2.4,4.65.24,9.12,0,13.75,2.12.44,3.1-.85,3.7-2.83.4-1.31.13-3.17,2.3-3.26,1.67,2.64,2.05,5.72,2.92,8.63.34,1.11.73.6,1.26.31A60,60,0,0,1,263.71,152c-.81,3.63,1.36,5.87,3.67,8.12a2.1,2.1,0,0,1,.21,3.12c-.92,1-2.25,1.25-3.1.38-2.74-2.81-6.71-3.95-9.25-7a4.45,4.45,0,0,1,0-1.41c2.15-5.86,1.68-6.63-4.27-6.5a22.82,22.82,0,0,1-7.65-1.21c-5.1-1.82-9-6.06-14.64-6.94a6.46,6.46,0,0,1-4.14-3.41,7.82,7.82,0,0,0-5.95-4.68c-1.64-.29-2.74-1.37-1.42-3.23,3-2.64,1.93-7.4-2.21-9.4l-2-.13c-.66,0-1.78-.08-1.87.32-.78,3.36-4.13,5-5.3,8a21.17,21.17,0,0,0-.12,3.9c-.35,2.86-3.4,5.38-.46,8.78.65.75-1.1,4.16-3.16,5.51-5.23.84.34,3.07-.57,4.46,4.38,1.72,2.33,6.28,3.91,9.33,1.24,2.38-4.34,5.63-6.93,4-1.14-.7-2.06-1.92-3.48-1-3.46,2.13-6.32.41-9.23-1.21-3-2.87-3-6.24-1.5-9.77.9-2.15.4-3.43-1.87-4.18-1.38-.45-4.18-.21-3.2-2.58s-2.67-6.64,2.69-7.39a1.53,1.53,0,0,0,1.14-1.12c-.07-1.63-1.72-1.57-2.81-2.06-2.94-1.34-4.89-3.32-5.06-6.74a12.46,12.46,0,0,0-1.59-4.67c-.94-2-1.94-4.06-.08-6a7.33,7.33,0,0,1,6.67-2.38c4.55.66,9.19.53,13.72,1.74.43-2.33-3.64-2.59-1.85-5.12a12.39,12.39,0,0,0,6.72-1.3,18.31,18.31,0,0,1,13.09-1.41C217.17,110.21,222,108.28,227,107.71Z"/><path class="cls-62" d="M192,111.56c0,2.62,3.52,1.75,4,4,.16.78.71,1.69.47,2.3-.35.86-1.36.51-2.19.36-4.55-.8-9.13-1.42-13.64-2.35a6.84,6.84,0,0,0-6.34,2c-2.16,2,0,3.6.6,5.33.66,2,1.9,3.52,1.65,6-.27,2.71,2.58,3.76,5,4.69,1.52.58,4.31.27,4,2.83-.24,2-2.54,2.34-4.31,2.77-.62.16-1.33.09-1.6.87,3.09,2,3.09,2,0,5.75,2.25.89,5.61-.52,6.56,2.36.82,2.46-.44,4.74-3,6.56l4.66.92c-.92,2.3-3.94-.52-3.87,1.73,0,1.2,2.64,1.78,2.07,3.81-2.08,1.57-4,.63-5.12-1-2.1-3.16-4.66-5.93-6.87-9,.07-2.92-3.58-1.16-4.19-3.36,1.53-1.67,4.2.46,5.91-1.94a36.47,36.47,0,0,1-8.73-3.7c.56-3.18.5-6.65,1.8-9.49,2.39-5.18,2.11-10.17,1.6-15.64-.26-2.91,4.68-3.29,6.86-3.19C182.51,114.47,187.17,112.9,192,111.56Z"/><path class="cls-63" d="M151,170.49c4.24.26,8.95-1.22,11.54,4.18,1.43,3,9.86,4.28,13,2.83a49.72,49.72,0,0,0,11.14-6.41c1.08,2.13-1.2,2.53-1,3.8.12.08.33.26.35.24,6.27-5.85,10.18,7.38,16.55,1.37-1.55,4.72-5.23,6.34-8.46,8.44-.73.47-2.22.67-1.43,2,.28.47,1.48.4,2.27.57-.07,2.69-2.55,2.16-4,3-9-.42-17.08-4-25.36-6.93-5.37-1.91-10.56-4.83-15.72.56-2.66,2.79-5.89,1-8.9.41-2.87-.24-4.6-2.43-6.75-3.9-1.9-1.3-4.09-1.12-6.23-1.14-.28-2.87,3.49-4,3-7,2-2.79,3.73-5.73,6.71-7.69,5.31-3.51,9.14-2.51,11.69,3.28A6.51,6.51,0,0,0,151,170.49Z"/><path class="cls-64" d="M191,190.47c.53-2.07,3-1.54,4-3,1.26-.77,2.8-1.3,3.74-2.36,2.9-3.25,5.87-5.79,10.62-3.76.35.16,1.08-.56,1.64-.87.92-1.88,2.66-2.37,4.17-1.39,6.6,4.22,12,.73,17.45-2.44a13.64,13.64,0,0,1,2.16-1.23c2.77-1,4.27.08,4,2.93-.25,3.06-4.44,7.76-7.61,8.26-2.18.34-4.26.68-6,2.46,1.74-.38,3.2-1.94,5-1.07,2.46,1.21.81,3.25.63,4.86-.32,2.91,1,6-1,8.75-1.48,1.46-2.34,3.41-3.87,4.83-1-8-6.36-10.32-13.59-10.8-4.42-.3-8.77-1.61-13.27-1.17C195.54,194.84,194.16,190.88,191,190.47Z"/><path class="cls-65" d="M226,206.46c-.23-2.4,1-4,3-5,1.08-.77,2.35-1.2,3.44-1.95.68-.47,1.61-1.19.81-1.95-4-3.79-.25-6.06,1.6-8.72a16.36,16.36,0,0,1,6.11-2.5,11,11,0,0,1,2.29-.05c1.83.41,3.85.7,2.23,3.38-1.67,1.7-4.25,1.85-6.28,3.64,1.55,1.76,5.65,1.4,4.68,5.18,4.09-1.08,3.95,2.94,5.81,4.62,2.24,2,1.49,4.16,1.36,6.41-.38,1.34-1.05,3-2.6,2.14-3.13-1.72-6.55-2.29-9.86-3.31-.76-.24-1.75-.59-1.5-1.61.32-1.26,1.67-.46,2.44-.94-1.34.27-2.75.05-4.1.52-.12,1.15,1.3,1.95.72,3.19-1.17,1.16-2.89.15-4.33,1.14,2.3,3.38,6.24-.4,8.62,2,.84,1.32,2.09,2.31,2.85,3.7-.56,3.14-2.13,4.3-5,2.3-1.34-.94-2.87-1.42-4.26-2.21C229.1,214.94,226.9,211.22,226,206.46Z"/><path class="cls-66" d="M190,204.45a2,2,0,0,1-2,1c-4.08-2.54-7.67-6.67-13.33-4.3-1.24.52-3.33.22-3,2.49.26,1.6.56,3.8,2.64,3.66,7-.46,8.6,7,13.78,9.17,1.42.6,1.33,3,.15,3.93-2.12,1.64.35,6.38-4.32,6.06-2-.13-4,0-6,0a1.18,1.18,0,0,1,.36-1.31c1-.92,3.27-.88,2.72-2.93-.47-1.77-2.35-2.27-3.88-2.71-2.53-.74-1.75,1.72-2.38,2.79-.42.73-.72,1.49-1.79,1.21,0-1.95-.17-3.91,0-5.84.34-3.35-.85-4.48-4.06-3.2,1.07-3.92.32-7.88-.5-11.6-.91-4.14,1-5.77,4.16-5.17,5.56,1,11,3,16.38,4.65C189.52,202.47,189.68,203.71,190,204.45Z"/><path class="cls-67" d="M234,216.47c1.7-1.21,3.08-.71,4.25.8,2.09,2.68,3.49,1.49,4.69-.83,2.26-2.43,5.48-3.33,8.21-5,1.85-1.13,3.42-.63,4.19,1.56.6,2.64-.46,4.61-2.42,6.33-1.45,1.29-2.82,2.76-1.47,5a2.76,2.76,0,0,1-.23,2.07,1,1,0,0,1-1.27.1l-9.17-.1c-.56-1.71-2.14-1.55-3.46-2.09C233.86,222.84,231.59,220.57,234,216.47Z"/><path class="cls-68" d="M186.08,260.49,183,262.43a15.73,15.73,0,0,1-2.48-.05c-2.44-.41-5-.58-7.25-1.47-4.14-1.62.88-3.92-.17-6.15-.71-1.5-.18-3.59-.2-5.41a1.31,1.31,0,0,1,.06-1.9c-.1-2.92.7-5.82.06-8.77-.77-3.51.58-6,4-7.22,3,1.19.47,2.68,0,3.74a14.07,14.07,0,0,0,.93,13.69c2.14,3.48,4.66,4.61,8,1.55Z"/><path class="cls-69" d="M173,223.47a2.78,2.78,0,0,0,1-2.66c-.26-3.64.52-5.21,4.11-2.37,1.76,1.39,5,.91,4.94,4.53-.06,3.81-3.93,1.49-5,3.45-1.09.07-2.27-.12-3,1C172.3,227.13,173.2,225,173,223.47Z"/><path class="cls-70" d="M188.07,231.51c-.29.12-.68.17-.87.39-1.72,1.87-3.21.52-4.75-.29-1-.55-.84-1.2-.2-1.89,1.23-1.34,2.49-2.64,4.58-2.16,2.66.61,1,2.58,1.24,4Z"/><path class="cls-71" d="M151,170.49c-1.11-.08-2.78.17-2.77-1.29a5,5,0,0,0-5.22-5.31c-3.25-.06-6,2.31-7.84,5-1.13,1.7-1.89,3.4-4.18,3.59-2.19-2-2.34-4.43-1.46-7.14.8-2.47.75-4.53-2.8-3.2-1.78.67-3.12-.7-4.72-.65,2.62-3.82,1.65-6.29-2.48-8.38-3.16-1.59-2.75-5.38-2-7.85s.35-3.07-3.25-3.09c4.77-2.43,8.27-3.19,12.14-1.49-.08-1.08,0-1.48-.14-1.66-1.06-1.19-4.13.36-3.84-2s3-1.08,4.6-1.43c.64-.13,1.33,0,2,0,2-.22,4.91.94,5.6-1.84s-2.15-2.64-3.95-3.23c-2.31-.77-1-1.9-.16-2.88,3.52-4.09,13.19-2.61,15.48,2.26,1.56,3.33,4.26,5.92,4.63,10.09.21,2.44,4.51,2,6.43,4.06,3.49,3.68,6.13,8.32,11.29,9.93-.93,2.75-5,.33-4.7,2.9.3,3,4.13.79,6.08,2.69-2.46,2-5.31.27-7.78,1.37,3.2,2,6.85,1.4,11,2-4.51,3.64-10,3.15-14.2,6.36.55-1.38,1.1-2.76,2.17-5.47C156.91,166.34,152.15,165.34,151,170.49Z"/><path class="cls-72" d="M109,160.52c-2.16-5.73-5.39-11.12-5.36-17.54,0-1-1.32-2.33.31-2.92,1.28-.47,2,.87,2.63,1.8,2.1,3.35,4.18,6.67,8.4,7.68a6,6,0,0,0,1.43,4.1c1.64,2.28,3.77,4.39.17,7.21-1.56,1.23.07,3.32,1.39,4.67-.09,1.12-.18,2.25-.33,4.22Z"/><path class="cls-73" d="M251.14,239.36q-.1-3.44-.23-6.88l.14-.12c2.2-1.11,4.08-.41,5.84,1l.09,1c-.86,1.27.6,1.43,1,2.11-.63,4.63,2.25-1,2.59,1.15-.13,1.48-1.57,2-2.75,2.88-.56.39-1.8.76-.67,1.71.42.35,1.28.17,1.93.23l-2.14,3.9C251.6,246.85,253.3,241.51,251.14,239.36Z"/><path class="cls-74" d="M213,118.55h2a11.7,11.7,0,0,1,3,11c-1.49,2.38.63,2,1.67,2,2.85,0,4.83,1,5.32,4,.44,2.69,4,4.33,4.67,4.29,6.17-.35,9.18,5.46,14.34,6.76,2.79,2,4.8,4.63,9.43,3.46,5-1.26,2.3,3.31,2.54,5.53v1c.38,3.34,4.73,2.92,5.63,6.23.7,2.59,2.26,4.9,1.37,7.75-1.89,1-3.73,2.26-6,1l-.33-.63c-.22-1.15.1-2.33-.12-3.47-.33-1.8-1.19-2.89-3.06-1.57-3.86,2.72-5.34.06-6.65-2.89a53,53,0,0,1-1.9-5.66c-1.57-5-5-6.34-9.85-4.31a28.79,28.79,0,0,1-8.53,2.66c-6.24.59-8.59-2.52-9.2-8.54s-2.93-11.8-3.87-17.84c-.26-1.62-1.54-1.57-2.63-.61a25.28,25.28,0,0,1-4.5,3.12,1.36,1.36,0,0,1-1.33-.22c-.3-1-1.6-2,0-3C208.46,125.87,209.87,121.53,213,118.55Z"/><path class="cls-75" d="M298.87,154.55c-.3,0-.61,0-.92-.05-1.57-1.65-2.27-3.76-3.05-5.82-3.75-4.17-4.76-10.9-12-11.88-2.52-.34-3.67-3-4-5.74-.77-7.35,2.67-17.57,15.56-23a3.5,3.5,0,0,1,2.1-.06,5.13,5.13,0,0,0,2.86.49,7.22,7.22,0,0,1,8.2,4,10.85,10.85,0,0,0,4.62,4.3c1.92,1.66,6-1.71,6.69,3,.63,4.36-1.92,6.82-5.07,9-2-1.67-.15-5.46-2.38-6.12-2.87-.84-6.16-.35-9.26-.72a6.71,6.71,0,0,0-3.36.8c-2.23,1-4.33,1-5.47-1.52-1.05-2.32,0-4.19,1.91-5.6.92-.67,1.86-1.32,2.81-1.94-3.71,2.12-6.77,5.09-9.94,7.9-1.65,1.47-1.58,2.45.6,3.63,5,2.68,6.93,6.83,6.15,12.12-.08.55-1,1.48,0,1.57,6.46.58,2.91,8.22,7.64,10.59,2,1-.2,4.07-2.45,5.3A1.21,1.21,0,0,1,298.87,154.55Z"/><path class="cls-76" d="M263,170.5c-1.7-4.61-3-9.45-7.52-12.36-.53-.33-.09-1.21.52-1.62a21.61,21.61,0,0,1,8.73,6.12,1.48,1.48,0,0,0,2.19.23c.92-.75.47-1.53-.18-2.06-2.63-2.15-4.57-4.57-3.75-8.26,2.16-3.08,5.33-.9,8-1.56a4.36,4.36,0,0,1,2.62,1.06,7.8,7.8,0,0,1,2.64,5.15c.24,1.72.92,3.19,2.73,3.79a.88.88,0,0,0,1.19-.57c.49-1.78-.38-3.24-1.33-4.58-1.42-2-3.18-3.82-3.84-6.3-.15-2.08-2.23-3.76-1.26-6.06,2.26-1.17,5-1.84,5.24-5.09.16,0,.39-.16.47-.09,4.73,4,9.25,8.23,14.68,11.32.17.1,0,.6-.11.92a2.63,2.63,0,0,1-.49-.07c-9.06-2.55-9.06-2.55-7.6,6.43,1,6.23-1.45,8.89-8,9.28-2.07.12-5.16-.51-5.66,2.71-.39,2.53-.24,5-3.61,5.55S264.35,172.45,263,170.5Z"/><path class="cls-77" d="M298.87,154.55l1.12-.07c2.8-.86,5.62-1.63,4-5.7a2.79,2.79,0,0,1,.79-2.76c5.06-4.79,5.71-11.87,9.16-17.48,1.34-1.78,2-4,3.88-5.46s.51-3.12-.12-4.43c-.82-1.7-1.84-.22-2.74.28-1.64.91-2.36-.18-3-1.39-.74-1.87-2.17-3.21-3.45-4.69-1.11-1.27-2-2.86.56-3.74,3,.74,5.89-.78,8.87-.49,5.37,6.38,1.21,13.25,1,19.91-1.28,3.84,1.72,4.69,4.16,5.94.18,1.71-1.05,1.91-2.27,2.1-5.71.09-5.65.07-4.22,5.54a23.69,23.69,0,0,1,.34,4.4c.58,5.08-2.44,8.18-6,11l-1,1C305.56,159,301.66,158.37,298.87,154.55Z"/><path class="cls-78" d="M293.93,150.54c-.16-.28-.28-.76-.5-.81-6.5-1.58-10.46-6.44-14.49-11.2-4.06-2.41-3.23-6.91-4.49-10.52-.77-2.2.44-6.11-2.41-6.3s-2.49,3.72-3.33,5.94a3.14,3.14,0,0,1-.52.85,1.32,1.32,0,0,1-1.38,0,5.14,5.14,0,0,1-1.3-2.76c-.33-5-.84-10,1.62-14.77,3.21-1.82,6.46-2.43,9.82-.38a7.78,7.78,0,0,0,7.68-3.12c1.1-1.33,2.24-2.88,4.31-2.88.18.19.36.38.55.56a6,6,0,0,1,.25,4.58c-2.25,2.81-5.3,4.77-7.31,8-6.4,10.24-5,17.15,5.27,23.75,3,2,5.21,5,8.2,7.11.91,1.91,2.27,3.67,2.05,6C295.28,154.53,294.91,152.23,293.93,150.54Z"/><path class="cls-74" d="M255.94,173.52c-1.09,0-2.26-.19-3,1-3-1.2-1-2.36,0-3.54a3.41,3.41,0,0,1,4,.53h0A2.1,2.1,0,0,1,255.94,173.52Z"/><path class="cls-79" d="M249,130.54c-.29.39-.77.75-.85,1.18-1.24,6.95-1.41,7.08-8.64,5.39,2.75-2.24,4.42-4.3,2.53-8.17-.44-.89.28-3.93-.76-6.36s.45-5.22,3.89-4.36c3.8,1,5.71-1.92,8.32-3.37.44-.24-.07-1.64-.58-1.58-2.82.3-5.91-1.29-8.42.67-2.06,1.6-4.15,1.76-7.06,1.42,2.82-3-.93-5.12-.41-7.79a1.81,1.81,0,0,1,3-.33c3.1,3.28,6.35,2.62,9.94.93,3.21-1.51,5.88,1.82,9,1.39.56,3.41,3.89,6.17,2.28,10.12-1.31,3.22-2.57,6.44-6,8.1-2.43.24-1.7-2.54-3.52-3.47-1.22,2.18.58,4.43-.09,6.48C250.53,133,249.82,130.88,249,130.54Z"/><path class="cls-78" d="M254.94,127.56c1-2.26,3.48-3.35,4.23-6,.79-2.78,2.91-5.28-.39-7.89-1.51-1.2.36-2.74.17-4.15.72-1.18,1.9-1,3-1a2.26,2.26,0,0,1,.57,1.22c1.53,4.86-.77,9.74.08,14.59.58,1.46.41,3.12,1.25,4.51.61,1,1.39,1.84,2,2.83,2.05,4.84,3.2,9.7.5,14.7-2.52.87-3.15-1-3-2.62.4-3.39-1.52-4.94-3.82-6.86C256.79,134.63,254.54,131.63,254.94,127.56Z"/><path class="cls-78" d="M288.94,104.56c3-2.25,7.56-1.32,10-4.8a.52.52,0,0,1,.47-.07c4.1,6.16,9.07-.58,13.48.91h0a1.69,1.69,0,0,1,.3,1.49c.07,4.38-2.05,5.85-6.24,4.82a40.34,40.34,0,0,0-14.24-.71c-1.58.18-3,0-3.77-1.62Z"/><path class="cls-79" d="M262,109.56c0-.33,0-.66,0-1l9.3-1c2.57-.27,4.54.59,5.7,3-3.42-.38-6.72.47-10,1C264.72,112.2,263.23,111.14,262,109.56Z"/><path class="cls-80" d="M327.93,131.55c1.87-.9,2.86-.21,2.92,1.75s0,3.62,1.13,5.2c-.46,1.56-2.2,1.81-3.05,3a3,3,0,0,1-3-1.91c3.54-2.5,1-3.66-1.09-4.92C324.84,132.61,325.76,131.44,327.93,131.55Z"/><path class="cls-81" d="M310.9,157.48c1.87-3.73,5-6.77,6-11,2.64-1.74,5.78-.68,8.64-1.51,1.84-.54,2.48,1.23,2.08,2.91-.73,3-1.4,6.08-3.67,8.44-1.14,1.18-2.46,2.34-1,4.16-3.26.58-5.1-2.66-8-3Z"/><path class="cls-82" d="M324.81,134.36c.64,0,1.29.12,1.93.14,1.95,0,3.09,1,3.1,3,0,3-2.42,1.78-3.95,2.11l-5.09-3,2.22-1.95A1.27,1.27,0,0,1,324.81,134.36Z"/><path class="cls-83" d="M173,247.45l-.06,1.9c-2,.15-4.08.33-5.9-.93a5.14,5.14,0,0,1,0-1C169,246.28,171,247.92,173,247.45Z"/><path class="cls-84" d="M250.9,226.24l0-1.74c.77-.57,1.52-.1,2.29.05.1,0,.44.07.34,0-3.9-2.3-.3-3.08,1-3.62,1.72-.74.16-3.44,2.46-3.48,3.45-1.13,6.81-1.56,9.85,1.06.57,3.55-1,6.07-3.87,7.93-.86,1.86-2,3.33-4.24,3.63A15.72,15.72,0,0,1,250.9,226.24Z"/><path class="cls-85" d="M258.93,229.47c1.73-.49,1.89-3.07,4-3,2,.92,2.24,2.64,1.87,4.48-.45,2.22-2.75,1.13-4,2s-2.8-1.34-4,.42c-2.09.5-3.91-.55-5.84-1-1.56-3.47,2.86-.91,2.85-2.82C255.55,227.66,257.27,230.88,258.93,229.47Z"/><path class="cls-86" d="M258,236.5c-1.22-.4-2.85,1.55-3.47.07s1.15-1.95,2.47-2.18C257.64,234.94,259.16,235.07,258,236.5Z"/><path class="cls-47" d="M250,209.5c1.91-4.19-4-5.7-3.44-9.76.11-.74-3.79.84-5.87.58-.76-2.48,1.93-2,2.38-3.36-1.42-2.34-5.34-.55-6.44-3.88a30.2,30.2,0,0,1,8.24-3.76c2.72-.3,2.84-2.55,3.35-4.5a4.82,4.82,0,0,1,1.18-1.71c.75-.56,1.5-1.17,2.52-.59l1,1a.64.64,0,0,1-.05.92c-.9.9-2.15,1.65-2.6,2.73-.56,1.33-.47,2.74,1.89,2.05,1.68-.48,3.8-.79,2.77,2.3-.84,2-2.66,1.88-4.39,2-1.09.1-2.38.3-1.57,2,.21,2.89,1.42,3.92,4.59,3.7,4.07-.28,3.49,4,4.49,6.31.53,1.24-.7,3.23-1.13,4.89C254.65,210.07,252.22,210.56,250,209.5Z"/><path class="cls-87" d="M250,209.5c2.4-.36,4.88-1.25,6.92,1,0,.32,0,.64.05,1l-1,2c-.36.45-.69.44-1,0-.93-1.9-2-1.89-3.82-.83-2.59,1.47-4.78,3.95-8.13,3.83-1.21-.74-3-.94-2.94-2.92.94-.81.86-1.15-.27-2s-3.59.45-3.77-2.07c-1.21-1.31-2.41-2.63-3.67-4,1.38-1.92,2.89-.57,4.37-.23a16.05,16.05,0,0,0,2,.09c1.48.16,2.46-4.45,3.74-1,1,2.61-2.8,1.66-4.54,2.51,3.72,1.77,8.24.87,11.16,4.18Z"/><path class="cls-88" d="M252.89,184.46c0-.3.05-.61.05-.92,2.51-5.09,8.06-3.45,12-5.33a2.11,2.11,0,0,1,2.5,1.14c.37,1.17-.67,1.91-1.61,2.13-3.24.76-5.37,3.15-7.87,5C256.79,184.55,254.09,186.38,252.89,184.46Z"/><path class="cls-89" d="M249,195.58c-3.25-1.81-.54-2.44.72-3,1.64-.67,3.68.26,5.24-1.08,1.11,1.1,2.9-2.25,3.43.33.27,1.31-1.16,2.41-2.94,2.54C253.27,194.57,251,194.25,249,195.58Z"/><path class="cls-88" d="M251.94,182.52l-2,1c-1.82.19-1.28-1.19-1-1.89a10.44,10.44,0,0,0,.09-6.74c-.8-3.27.37-4.9,4-3.35-.26,1-1.59,2,0,3C252.7,177.18,254.75,180.16,251.94,182.52Z"/><path class="cls-90" d="M289,104.58c7.08.36,14.24-.48,21.24,1.51,1.78.51,1.8-1,1.35-2.17-.55-1.45-.2-2.2,1.35-2.35,2,1.73,4.74,2.83,5,6,0,.36,0,.71,0,1.07-2.78,2-5.69,3-8.92,1-3.76-3.21-8-1.17-12-1l-2,0c-1.87,1.17-3.77,2.21-6,1C288.94,107.9,289,106.24,289,104.58Z"/><path class="cls-91" d="M324.81,134.36l-1.79.26c-2-.36-4.4.68-5.56-2a2.78,2.78,0,0,1,1.45-4.06c2.38.09,4.83-.33,7,1a1.84,1.84,0,0,1,2,2Z"/><path class="cls-17" d="M317.92,107.55l-5-6c0-.32,0-.65,0-1l13,11.93C322.29,112.4,320.63,109.14,317.92,107.55Z"/><path class="cls-92" d="M258.93,229.47c-1.62,4.28-3.38-1.57-5,.07-1.84-.35-3.64-.74-3.91-3.07a4.86,4.86,0,0,0,.91-.23C254,226.38,256.35,228.15,258.93,229.47Z"/><path class="cls-93" d="M254.93,213.44l1,0c.34,1.33.69,2.66,1,4,1.29,3.81-1,4.91-4.15,5.22.47,1.77,2.56,1.17,3.3,2.48-1.9.73-3.56.12-5.2-.66-1.73-1.38-2.74-2.41-.38-4.54C252.42,218.27,255.38,216.86,254.93,213.44Z"/><path class="cls-27" d="M253,171.5c-2.54,0-4.69.63-2.64,3.55,2.18,3.12-.73,5.62-.39,8.43l-1,1.05c-1.48,2.06-3.88,2.25-6,3l-2,0c-2.76-1.58-4.25.54-6,2-.73,1.47-1.49,2.93-2.18,4.42-.29.64-1.18,1.53.07,1.95s3.49.58,2.75,2.5a5.37,5.37,0,0,1-4.66,3.09c-.66.06-1.32,0-2,0,2.27-3.69-.62-8,1.51-11.85.51-.91-1.21-1.17-2.16-.7-1.82.91-3.21,3-5.68,2a1.42,1.42,0,0,1,0-1.28c1.76-2,3.88-4.28,6.51-4,4.14.48,5.67-2.26,7.54-4.74,1-1.27,2.17-3.17.84-4.5-1.53-1.53-2.87.46-4.19,1.25-5.86,3.51-11.64,7.55-18.61,2.3-1.3-1-2.51,0-3.7.53,0-.33,0-.67,0-1-1.87-2.47.62-5.46-.95-8a2.22,2.22,0,0,1-2.05-1,10,10,0,0,1,1-5.53c2.07-1.49,3.08-2.83,1.46-5.69A39.89,39.89,0,0,1,206,131.53c.84-2.67,3.8-3.23,5.38-5.34,1.16-1.56,3.12-.18,3.47,1.81,1,5.62.66,11.53,4,16.6.39.58-.1,1.68.13,2.45.53,1.78-2.88,3.51.31,5.48,2.93,1.81,6,2.8,8.93,1.59s6-1.44,8.58-3.67c2.36-2,9.28,2.55,9.47,6.64.11,2.64,1.8,4.46,2.19,6.91.24,1.49,2,3.58,4,1.15.86-1,.71-3.05,3.05-1.89a3.92,3.92,0,0,1,2.4,4.43,32.58,32.58,0,0,1-1,3.8Z"/><path class="cls-94" d="M209,165.53a4.45,4.45,0,0,1-1,5c-2.1,1-4,6.73-6.43.26-4.55.26-7.65-3.93-12.15-3.92-2.4,0-8.78-5.67-10.11-5.41-7,1.37-3.78-5.63-6.83-7.5-2.49-1.53.23-2,1.55-2.4,2.75,1.69,6.35,2.21,6.44,6.92,0,1.77,3,3.27,5.55,3.06,3.26-.09,6.75,3.64,9.83-.71.5-.69,2.22-.12,2.51.84,1,3.37,2.32,2.66,4.39.8,1.91-1.71,3.29-2.58,0-4.49-2-1.17.91-3.18.42-5.06-1.55-.81-5.39.33-3.56-3.79a1.3,1.3,0,0,0-.16-.92c-.6-1.17-3.77-.57-2.48-2.69,1.16-1.91,3.3.64,5,0,4.84,4.33,5.81,10.73,8.69,16.11C211.85,163.83,210.18,164.51,209,165.53Z"/><path class="cls-95" d="M210,171.54c.72.17,2.2-2.16,2.1.45A60.6,60.6,0,0,1,211,179.5c-2.35,1.3-3.26-.74-4.31-2-1.18-1.48.36-2.33,1.15-3.29S209.29,172.42,210,171.54Z"/><path class="cls-96" d="M254.94,127.56c2.34,4,3.31,9,8.74,10.55,2,.58.83,3,.89,4.41.07,1.6-.81,3.21,1.4,4,3.28.1,3.89,2.79,5,5-2.42,2.3-5.51-.82-8,1-2.72-4.8-7.63-7.94-9.93-13.07-1.66-2.39-3.08-4.85-2-7.94a41.66,41.66,0,0,1-.92-5.82c0-1.26-1-3.42,1.2-3.62,1.44-.14,2.58,1.44,3.12,2.83C254.67,125.72,253.73,126.88,254.94,127.56Z"/><path class="cls-97" d="M209,165.53c.3-1.2,1.79-1.78.43-3.75-3.11-4.47-2.89-10.81-7.8-14.44-.21-.16.23-1.19.36-1.81,1.67-.73-.07-2.43,1.1-3.49,4.89-4.43-2.19-.9-1.79-2.52l3.69-8h1c3.79,1.84.76,5.49.49,6.83-1.62,7.95,2.09,14.47,5.2,20.68C214,163.7,212.29,164.36,209,165.53Z"/><path class="cls-76" d="M256,155.52c-.19-3.84-.38-6.23-5.6-3.47-3.06,1.62-4.69-3-6.37-5.52a25.94,25.94,0,0,0,7.25,1.05c2,0,4.32-2.1,6,1.22C258.55,151.6,257.44,153.48,256,155.52Z"/><path class="cls-97" d="M218,129.54l-3-11c2.28.53,7.13,8.29,6.16,10C220.5,129.76,219.13,129.52,218,129.54Z"/><path class="cls-97" d="M213,118.55c-2,3.85-2.95,8.57-8,10-.18-1.74-1.77-4,1.86-4.2,1.83-.11,2.19-1.82,2.14-3.42C208.88,117.66,210.9,118.08,213,118.55Z"/><path class="cls-98" d="M251,131.54q1,4,2,7.94c-.22,1.09.31,2.32-1.12,3.8-.82-4.55-3.33-8.24-2.94-12.74C250.29,129.53,250.07,131.64,251,131.54Z"/><path class="cls-79" d="M242.32,141c3.08-2,5-1.23,7.94-1.37C247.67,142.3,245.62,141.46,242.32,141Z"/><path class="cls-99" d="M208.53,191.52c-1.27-.47-4.34.67-3.87-1.18.85-3.35,5-3,7.71-4.28,1.65-.79,1.6,1.09,1.58,2.14C213.89,192,211.1,191.46,208.53,191.52Z"/><path class="cls-67" d="M236,209.48c2.84-.31,4.75,2.54,7.78,1.74-.74,2.32-2.29,2.21-3.75,2.3-2-1.77-3.93.44-6,0-1.65-.32-3.2-.45-4.26-1.91a1.35,1.35,0,0,1,.23-2.1,3.85,3.85,0,0,1,4.56-.34A4.66,4.66,0,0,0,236,209.48Z"/><path class="cls-26" d="M243,187.49c2-1,3.39-3.24,6-3-.34,2.47,1.27,6.6-4.09,4.8C246.24,186.61,243.92,187.77,243,187.49Z"/><path class="cls-64" d="M235,189.48c1.18-3,2.56-5.5,6-2Z"/><path class="cls-100" d="M313.92,128.54c.22,3.08-.26,5.92-2.64,8.17-.88.82-1.67,1.87-1.11,3,1.11,2.34-.36,3.14-2,4.24-3,2.1-4.59,4.67-2.1,8.34,1.23,1.8,1.29,3.22-1.71,2.51a28,28,0,0,0-4.41-.37c2.4-2.92,4-5.6-1.31-7.23-1.66-.51-2-1.94-1.19-3.67,1.65-3.54.08-4.18-3-3-.74.27-1.41,1.15-2.13.18-.56-.76-.11-1.52.3-2.29,2.72-5.08.6-10.67-5.1-12.48-3.34-1.06-3.73-2-1.12-4.43,4.49-4.12,9.06-8.08,15.32-11.4-.54,4.12-3.51,4.74-5.4,6.12s-3.13,2.73-1.89,4.89c1.33,2.31,3,1,4.63,0,1.81-1.1,3.88-.63,5.85-.43.81.08,1.57.64,2.38.71C313.93,122,313.94,122,313.92,128.54Z"/><path class="cls-101" d="M288.94,109.57l6-1c-4.59,2.93-9.13,5.85-12.2,10.6-2.67,4.12-2.94,8.69-2.52,13.2a4.32,4.32,0,0,0,4.92,3.88c1.13-.13,2.6-1,3.12.28,1.86,4.46,6.26,7.26,7.61,12-2.13-.72-4.18-1.15-6-2.94-5.91-5.67-14.09-9.77-11.92-20.19A23.29,23.29,0,0,1,288.94,109.57Z"/><path class="cls-102" d="M296.94,108.56c3.95-3.38,8.34-2,12.53-.83,1.75.5,0,1.31-.49,1.88-2,2.22.45,2.94,1.54,3.61,1.88,1.16,2.75,2.28,1.4,4.32-2.28-.07-3.66-1.68-4.54-3.34-2.12-4-4.92-5.83-9.48-4.14C296,110.78,296.75,109.4,296.94,108.56Z"/><path class="cls-103" d="M267.94,128.55c.08-2.42-.43-4.91,1.69-6.94.83-.79.54-2.85,2.51-2.34a3.67,3.67,0,0,1,2.85,3.57c.6,5.4,1.29,10.8,3.95,15.69,2.64,6-1.72,5-5,5-.84.27-1.25-.23-1.58-.88.8-3.28-1.53-5.21-3.22-7.41C268.45,133.07,266,131.18,267.94,128.55Z"/><path class="cls-104" d="M267.94,128.55c-.54,2.67,2.57,4.31,2,7,1.86,2,2.42,4.48,3,7l1,1c.05,2.21,2.67,3.55,2,6-2.45.42-2.71-2.59-4.73-3-.15,2.22,3.56,3.35,1.73,6l-2-1c-2.44-.91-2.77-3.89-5-5a26,26,0,0,0-1-14.93,4.41,4.41,0,0,1,1.47-2.72l.56-.3Z"/><path class="cls-105" d="M272.94,152.53c0-2.31-2.05-3.25-3.2-4.78-.76-1-1.11-2.14-.14-3.13,1.34-1.36,2,.18,2.76.88,1.28,1.26,2.4,2.68,3.58,4,.82,3.16,4.23,4.63,5.09,7.78.48,1.71,1.59,3.39.22,5.16a1.47,1.47,0,0,1-2.17.43c-1.55-1.31-4.29-1.7-4.05-4.49A8.25,8.25,0,0,0,272.94,152.53Z"/><path class="cls-106" d="M262,109.56l5,2c.76,4.66-1.33,9.31,0,14-2,1.56-3.56.48-5-1-.5-.4-1.49-1-1.42-1.18C262.45,118.9,261.32,114.14,262,109.56Z"/><path class="cls-104" d="M262,124.55l5,1c0,1,0,2,0,3l0,0c-1.25.65-2.69.51-4,1C261.28,128.15,262.2,126.23,262,124.55Z"/><path class="cls-106" d="M263,129.54c.6-3.26,2.43-1.57,4-1a3,3,0,0,1-2,3C264.27,130.89,263.61,130.22,263,129.54Z"/><path class="cls-76" d="M272.94,142.54c-2-1.9-2.29-4.54-3-7C273,137,274.74,139,272.94,142.54Z"/></svg>