<svg id="Layer_1" data-name="Layer 1" xmlns="http://www.w3.org/2000/svg" viewBox="0 0 150 150"><defs><style>.cls-1{fill:#fff;}.cls-1,.cls-2,.cls-3{stroke:#000;stroke-miterlimit:10;stroke-width:2px;}.cls-3{fill:none;}</style></defs><rect class="cls-1" x="46" y="117.98" width="8.52" height="23.42"/><rect class="cls-1" x="94.38" y="117.98" width="8.52" height="23.42"/><rect class="cls-2" x="45.92" y="141.4" width="8.52" height="7.81"/><rect class="cls-2" x="94.47" y="141.4" width="8.52" height="7.81"/><path class="cls-3" d="M75.87,41.33s10.64-5,3.55-16.32S75.16,8,75.16,8"/><path class="cls-1" d="M75.72,10.23a1.5,1.5,0,0,1-2.59.28L70.88,7.45,68.64,4.38a1.51,1.51,0,0,1,1-2.39l3.78-.41,3.78-.41a1.5,1.5,0,0,1,1.54,2.1L77.25,6.75Z"/><circle class="cls-1" cx="75.51" cy="87.81" r="46.49"/><path d="M76.26,88.27c9.65,0,9.67-15,0-15s-9.67,15,0,15Z"/></svg>