<?xml version="1.0" encoding="utf-8"?>
<!-- Generator: Adobe Illustrator 24.2.0, SVG Export Plug-In . SVG Version: 6.00 Build 0)  -->
<svg version="1.1" id="Layer_1" xmlns="http://www.w3.org/2000/svg" xmlns:xlink="http://www.w3.org/1999/xlink" x="0px" y="0px"
	 viewBox="0 0 150 150" style="enable-background:new 0 0 150 150;" xml:space="preserve">
<style type="text/css">
	.st0{fill:#FFFFFF;stroke:#000000;stroke-width:2;stroke-miterlimit:10;}
	.st1{fill:#FFA5E0;stroke:#000000;stroke-width:2;stroke-miterlimit:10;}
	.st2{stroke:#000000;stroke-width:2;stroke-miterlimit:10;}
	.st3{fill:none;stroke:#000000;stroke-width:2;stroke-miterlimit:10;}
	.st4{fill:#FFA5E0;}
	.st5{font-family:'ArialRoundedMTBold';}
	.st6{font-size:50px;}
</style>
<circle class="st0" cx="76.7" cy="87.9" r="46.3"/>
<rect x="47.3" y="117.9" class="st0" width="8.5" height="23.3"/>
<rect x="95.5" y="117.9" class="st0" width="8.5" height="23.3"/>
<circle class="st0" cx="76.3" cy="101.6" r="32.9"/>
<ellipse class="st1" cx="76" cy="124.3" rx="20.8" ry="11"/>
<circle class="st2" cx="60.5" cy="106.2" r="4.6"/>
<circle class="st2" cx="93.7" cy="106.2" r="4.6"/>
<rect x="47.2" y="141.2" class="st2" width="8.5" height="7.8"/>
<rect x="95.6" y="141.2" class="st2" width="8.5" height="7.8"/>
<path class="st2" d="M70,121.4L70,121.4c0.8,0,1.4,0.6,1.4,1.4v4.3c0,0.8-0.6,1.4-1.4,1.4h0c-0.8,0-1.4-0.6-1.4-1.4v-4.3
	C68.6,122.1,69.2,121.4,70,121.4z"/>
<path class="st2" d="M82,121.4L82,121.4c0.8,0,1.4,0.6,1.4,1.4v4.3c0,0.8-0.6,1.4-1.4,1.4h0c-0.8,0-1.4-0.6-1.4-1.4v-4.3
	C80.6,122.1,81.2,121.4,82,121.4z"/>
<path class="st0" d="M54.4,83.6c0,0-8.4-1.4-19.1,9.2s19.1,0,19.1,0L54.4,83.6z"/>
<path class="st0" d="M98.3,82.4c0,0,8.5-1.4,19.1,9.2s-19.1,0-19.1,0L98.3,82.4z"/>
<path class="st3" d="M77.1,41.6c0,0,10.6-4.9,3.5-16.2s-4.2-17-4.2-17"/>
<path class="st0" d="M76.9,10.6c-0.3,0.8-1.2,1.1-2,0.8c-0.2-0.1-0.4-0.3-0.6-0.5l-2.2-3l-2.2-3.1c-0.5-0.7-0.4-1.6,0.3-2.1
	c0.2-0.2,0.4-0.3,0.7-0.3L74.7,2l3.8-0.4C79.2,1.5,80,2,80.1,2.9c0,0.3,0,0.5-0.1,0.8l-1.6,3.5L76.9,10.6z"/>
<path d="M90.3,70.4c4.2-0.6,9.3,4.6,11.3,7.8l-1-3.8v0.7l14-3.8c-4.6-7-11.8-11.9-20-13.8c-9.4-2-13.2,11.4-4,14.5
	c2.7,0.9,4.7,3.1,6.8,5c2.6,2.6,5.4,4.9,8.5,6.9c8.2,5.1,15.8-7.9,7.6-13c-6.8-4.2-10.9-10.8-18.8-13.4l-4,14.5
	c4.4,0.8,8.4,3.2,11,6.9c4.2,6.1,13.6,3.9,14-3.8c0.2-5.9-6.2-11.3-10.5-14.5C99.8,56.5,93,54.8,86.4,56c-4,0.6-6.2,5.7-5.2,9.2
	C82.3,69.5,86.3,71,90.3,70.4L90.3,70.4z"/>
<path d="M41.9,82.5c5.9-1.3,10.4-6.1,11.2-12.1c0.1-0.7,0.6-3.9,0.2-3.1s2.2-1.7,2.7-2.1c2.6-2.3,5.2-4.6,7.9-6.7
	c6.8-5.4-1.9-15.9-9.1-11.8c-2.3,1.3-4.4,2.9-6.3,4.8c-7,6.6,3.6,17.2,10.6,10.6c1-0.9,2.1-1.8,3.3-2.4l-9.1-11.8
	c-4.1,3.3-8.8,6.7-12,11c-1.7,2.1-2.7,4.7-2.8,7.4c0,0.8,0,1.5-0.1,2.2c0.2-0.8,1.7-0.9-0.4-0.4C28.5,70.1,32.5,84.5,41.9,82.5
	L41.9,82.5z"/>
<path d="M41.4,76.6c9.6,0,9.7-15,0-15S31.7,76.6,41.4,76.6z"/>
<path d="M60.2,59.4c9.7,0,9.7-15,0-15S50.5,59.4,60.2,59.4z"/>
<path d="M43.6,58.9c-0.6,1.6-1.3,3.2-2.2,4.6c-0.8,1.5-1.9,2.9-3,4.2c-2.7,3-3,7.6,0,10.6c2.7,2.7,7.9,3.1,10.6,0
	c4-4.5,7-9.7,9-15.4c1.3-3.7-1.5-8.4-5.2-9.2C48.8,52.7,44.8,55,43.6,58.9L43.6,58.9z"/>
<text transform="matrix(1 0 0 1 13.85 44.3599)" class="st4 st5 st6">2</text>
</svg>
