<?xml version="1.0" encoding="utf-8"?>
<!-- Generator: Adobe Illustrator 24.2.0, SVG Export Plug-In . SVG Version: 6.00 Build 0)  -->
<svg version="1.1" id="Layer_1" xmlns="http://www.w3.org/2000/svg" xmlns:xlink="http://www.w3.org/1999/xlink" x="0px" y="0px"
	 viewBox="0 0 150 150" style="enable-background:new 0 0 150 150;" xml:space="preserve">
<style type="text/css">
	.st0{fill:#FFFFFF;stroke:#000000;stroke-width:2;stroke-miterlimit:10;}
	.st1{fill:#FFA5E0;stroke:#000000;stroke-width:2;stroke-miterlimit:10;}
	.st2{stroke:#000000;stroke-width:2;stroke-miterlimit:10;}
	.st3{fill:none;stroke:#000000;stroke-width:2;stroke-miterlimit:10;}
	.st4{fill:#FFA5E0;}
	.st5{font-family:'ArialRoundedMTBold';}
	.st6{font-size:50px;}
</style>
<rect x="22.8" y="117.9" class="st0" width="8.5" height="23.3"/>
<rect x="70.9" y="117.9" class="st0" width="8.5" height="23.3"/>
<circle class="st0" cx="52.1" cy="87.8" r="46.3"/>
<circle class="st0" cx="100.8" cy="91.6" r="32.9"/>
<ellipse class="st1" cx="100.4" cy="114.2" rx="20.8" ry="11"/>
<circle class="st2" cx="84.9" cy="96.2" r="4.6"/>
<circle class="st2" cx="118.1" cy="96.2" r="4.6"/>
<rect x="22.7" y="141.2" class="st2" width="8.5" height="7.8"/>
<rect x="71" y="141.2" class="st2" width="8.5" height="7.8"/>
<path class="st2" d="M94.4,111.4L94.4,111.4c0.8,0,1.4,0.6,1.4,1.4v4.3c0,0.8-0.6,1.4-1.4,1.4h0c-0.8,0-1.4-0.6-1.4-1.4v-4.3
	C93,112,93.6,111.4,94.4,111.4z"/>
<path class="st2" d="M106.4,111.4L106.4,111.4c0.8,0,1.4,0.6,1.4,1.4v4.3c0,0.8-0.6,1.4-1.4,1.4h0c-0.8,0-1.4-0.6-1.4-1.4v-4.3
	C105,112,105.7,111.4,106.4,111.4z"/>
<path class="st0" d="M78.9,73.6c0,0-8.5-1.4-19.1,9.2s19.1,0,19.1,0V73.6z"/>
<path class="st0" d="M122.7,72.3c0,0,8.5-1.4,19.1,9.2s-19.1,0-19.1,0V72.3z"/>
<path class="st3" d="M12.2,63.5c0,0-10.6-5-3.5-16.3s4.2-17,4.2-17"/>
<path class="st0" d="M14.4,29.5c-0.3,0.8-1.2,1.1-2,0.8c-0.2-0.1-0.4-0.3-0.6-0.5l-2.2-3.1l-2.2-3.1c-0.5-0.7-0.4-1.6,0.3-2.1
	c0.2-0.2,0.4-0.2,0.7-0.3l3.8-0.4l3.8-0.4c0.8-0.1,1.6,0.5,1.7,1.3c0,0.3,0,0.5-0.1,0.8l-1.5,3.5L14.4,29.5z"/>
<path d="M16.3,67.4c4.3-2.3,8.6-4.6,13.3-5.9c4.6-1.2,9.4-1.2,14,0.1c4.7,1.1,9.4,2.5,14.2,2c4.4-0.5,8.5-2.4,10.8-6.4
	c2-3.6,2.1-8.2-0.7-11.5s-7.6-3.8-11.7-4.1c-8.1-0.5-16.2,0.9-23.6,4c-8.5,3.4-15.8,9.4-20.8,17.2c-1.7,2.7,2.6,5.3,4.3,2.5
	C23.6,53.3,38,47,52,46.6c3.3-0.1,7.2-0.2,10.2,1.2c2.8,1.3,3.4,4,2.1,6.6c-1.6,3.2-5.1,4.2-8.4,4.3c-4.3,0.1-8.5-1.4-12.6-2.3
	c-5.1-1.2-10.4-1.1-15.5,0.4c-4.9,1.6-9.6,3.7-14.1,6.3C10.9,64.6,13.4,69,16.3,67.4L16.3,67.4z"/>
<path d="M21.3,61.9c8-4.8,16.2-9.8,25.5-11.6c4.5-0.9,9.1-0.9,13.5,0.2c4.3,1.1,8.8,3.5,13,0.9c1.2-0.7,1.6-2.2,0.9-3.4
	c-1.7-2.8-4.9-3.5-7.9-3.8c-1.4,0-2.5,1.1-2.5,2.5c0,1.4,1.1,2.5,2.5,2.5c1.2,0.1,3,0.3,3.6,1.3l0.9-3.4c-1.6,1-3.6,0.3-5.3-0.2
	c-2.1-0.7-4.2-1.3-6.3-1.7c-4.9-0.8-9.8-0.6-14.6,0.5c-9.4,2-17.7,7-25.8,11.9C16,59.3,18.5,63.6,21.3,61.9z"/>
<path d="M63.5,48.8l-2.7,3.6c-0.3,0.5-0.7,1-1.1,1.4c-0.5,0.2-1,0.4-1.5,0.4c-2.7,0.6-5.6,0.8-8.4,0.6c-5.9-0.5-11.8-1.5-17.7-2.2
	c-2.8-0.3-3.4,4.4-0.7,4.9c5.2,1,10-0.7,15-2c2.4-0.6,4.9-0.9,7.4-0.8c2.8,0.1,5.6,0,8.4-0.3c2.5-0.3,2.2-4.3,0-4.8
	C55.9,48,49.7,47,43.3,46.5c-1.4,0-2.5,1.1-2.5,2.5s1.1,2.5,2.5,2.5C49.2,52,55,53,60.8,54.4v-4.8c-2.4,0.2-4.9,0.2-7.3,0.1
	c-2.6,0-5.1,0.2-7.6,0.8c-4.3,1-8.8,3-13.2,2.2L32,57.6l9.9,1.2c3.2,0.4,6.4,1,9.7,1.1c1.6,0,3.2-0.1,4.8-0.4c1.5-0.2,3-0.5,4.4-0.9
	c1.6-0.6,2.9-1.7,3.8-3.1c1.1-1.4,2.1-2.8,3.2-4.2c0.7-1.2,0.3-2.7-0.9-3.4C65.7,47.3,64.2,47.7,63.5,48.8L63.5,48.8z"/>
<path d="M55,53.2l-3.4-0.4c-0.3,0-0.7,0.1-1,0.2c-0.3,0.1-0.6,0.3-0.8,0.5c-0.2,0.2-0.4,0.5-0.5,0.8c-0.2,0.3-0.2,0.7-0.2,1
	c0,0.7,0.3,1.3,0.7,1.8l0.5,0.4c0.4,0.2,0.8,0.3,1.3,0.3l3.4,0.4c0.3,0,0.7,0,1-0.2c0.3-0.1,0.6-0.3,0.8-0.5
	c0.4-0.5,0.7-1.1,0.7-1.8c0-0.7-0.3-1.3-0.7-1.8l-0.5-0.4C55.9,53.3,55.4,53.2,55,53.2z"/>
<path d="M25,57.5c-2.4,2-4.7,4-7.2,6l-1.7,1.4l-0.9,0.7l-0.2,0.1c0.1-0.1,0.1,0-0.1,0L14.6,66c-0.3,0.2-0.6,0.4-0.9,0.6l0.2-0.1
	c-0.2,0.1-0.3,0.1-0.1,0c0.4,0.1,0.3,0,0.8,0.2c0.2,0.1,0.4,0.2,0.5,0.4c0.1,0.2,0.1,0.2,0.1,0c0,0,0.2,0.6,0.1,0.2
	c0.1,0.3,0.1,0.6,0,0.8c0.1-0.3,0-0.2-0.2,0.3c-0.3,0.7-0.9,1.1-1.6,1c1.4,0,2.5-1.1,2.5-2.5c-0.1-1.2-1.1-2.7-2.5-2.5
	c-1.4,0-2.6,1-3,2.4c-0.3,1.1,0,2.3,0.7,3.2c0.9,1.1,2.5,1.6,3.9,1.2c1.2-0.4,2.3-1.1,3.3-2c3.5-2.7,6.9-5.4,10.2-8.3
	c1-1,1-2.6,0-3.5c-1-0.9-2.6-0.9-3.5,0V57.5z"/>
<path d="M73.5,75.4c0.6,4.4,5.3,7.2,9.6,6.2c2.2-0.5,4.2-1.9,5.4-3.8c1.1-1.6,1.4-3.8,2.8-5.1c1.3-1,2.8-1.6,4.5-1.7
	c2.3-0.3,4.7-0.3,6.8-1.6c2-1.1,3.3-3.1,3.4-5.4c0-2.3-1.5-4.3-3.7-5c-3.1-1-4.4,3.8-1.3,4.8c-0.2-0.1,0,0.1,0,0.2
	c-0.1,0.4-0.3,0.7-0.6,0.9c-1.1,0.6-2.4,1-3.6,1c-3.2,0.3-6.5,0.9-8.9,3.3c-1.1,1.2-1.9,2.5-2.5,4c-0.4,1.2-1.2,2.3-2.2,3.1
	c-1.4,0.9-3.2,0.6-4.2-0.8c-0.3-0.4-0.5-1-0.5-1.5c-0.4-1.3-1.7-2.1-3.1-1.8C73.9,72.7,73.2,74.1,73.5,75.4L73.5,75.4z"/>
<path d="M76.5,70.9l-1,0.9l3.9,3c3.5-5.2,8.9-8.8,15-10c1.3-0.2,2.7-0.3,4-0.4c0.5,0,0.2,0.3,0.1,0s-0.2-0.1,0-0.9s0.2-0.4,0.7-0.9
	c0,0-0.4,0-0.2,0.1c-0.3,0-1.3,0-1.8-0.1c-3.7-0.3-7.4,0.7-10.3,3c-3.5,2.5-6,6-8.4,9.5c-0.7,1.2-0.3,2.7,0.9,3.4
	c1.2,0.7,2.7,0.3,3.4-0.9c2.3-3.3,4.7-6.8,8.3-8.7c1.6-1,3.5-1.4,5.4-1.3c1.7,0.1,3.5,0.4,5.1-0.5c1.8-1.2,2.3-3.7,1.1-5.5
	c-0.2-0.2-0.3-0.4-0.5-0.6c-1.6-1.6-4-1.5-6-1.3c-8.6,0.8-16.3,5.5-21,12.7c-1.6,2.5,1.9,4.8,3.9,3l1-0.9c1-1,1-2.5,0.1-3.5
	S77.5,69.9,76.5,70.9C76.5,70.9,76.4,70.9,76.5,70.9L76.5,70.9z"/>
<path d="M38.6,94c-2.6-1.3-4.4-3.7-6.7-5.5c-2.5-2-5.5-3.7-8.8-3.1c-2.9,0.4-5.3,2.4-6.1,5.2c-0.8,3.1,1.5,6.1,1.9,9.2
	c0.4,3,0,6.1-1.1,9c-0.6,1.6-0.3,3.5,0.9,4.8c1.2,1.2,2.7,1.4,4.2,1.6c5.5,0.8,10.7,3.2,14.9,6.9c4.2,3.9,7,9.3,12.6,11.6
	c3.1,1.1,6.5,1.4,9.7,0.8c3.1-0.4,6.2-1.2,9.1-2.4c2.9-1.2,5.1-3.6,6-6.6c0.8-3.2-0.7-6-2.7-8.5c-1.9-2.1-3.6-4.3-4.9-6.8
	c-1.4-2.9-1.9-6.1-2.9-9.1c-2-6.3-7.4-10.9-14-11.9c-3.6-0.5-7,0.4-10.5,1.2c-2.6,0.6-6.1,1.3-8.3-0.7c-2.4-2.1-5.9,1.4-3.5,3.5
	c4.6,4.1,10.5,2.6,15.8,1.3c2.4-0.7,4.9-0.7,7.3-0.1c2,0.6,3.9,1.7,5.4,3.2c1.7,1.8,2.9,4.1,3.5,6.5c0.6,2.8,1.5,5.6,2.7,8.2
	c1.3,2.6,2.9,4.9,4.9,7c1.2,1.3,2.9,3.1,2.3,5.1c-0.7,2.3-3.2,3.3-5.3,3.9c-2.6,0.8-5.2,1.3-7.9,1.5c-2.5,0.2-5-0.5-7-2
	c-1.8-1.6-3.5-3.3-4.9-5.2c-3.3-4.1-7.5-7.4-12.3-9.6c-2.5-1.2-5.2-2-8-2.4c-0.9-0.1-1.8-0.3-2.7-0.5c0.1-0.2,0.4,0.7,0.4,0.7
	s0.4-1.2,0.4-1.3c0.2-0.7,0.4-1.4,0.6-2.1c0.7-3.3,0.7-6.7-0.1-10c-0.4-1.6-1.2-3-1.5-4.6c-0.2-0.8,0.2-1.6,0.9-1.9
	c2.1-1.3,4.6,0.5,6.2,1.9c2.3,2,4.3,4.3,7.1,5.7S41.5,95.5,38.6,94L38.6,94z"/>
<path d="M24.6,94.9c0.5-0.1,0,0.1,0.3,0c0.8-0.4-0.7-2.9-1.4-1.9c-0.4,0.6-0.6,1.3-0.6,2c0.1,1.6,1.3,3,2.9,3.2
	c1.4,0.3,2.9,0.5,4.3,0.9c0.7,0.2,3.1,0.7,3.3,1.3L33,99v-0.1l0.6-1.1c0.8-0.2,0.9-0.3,0.2-0.2h-0.5l-1.3,0.1
	c-0.9,0.1-1.9,0.1-2.9,0.1c-1.1,0-2.2-0.3-2.4-1.4c-0.5-2.8-5-2.1-4.9,0.7c0,2.3,0.1,4.5,0.1,6.8c0,1.3,0.3,3.1-0.8,4.1
	c-1,1-1,2.6,0,3.5c1,0.9,2.3,1.2,3.6,0.8c0.9-0.2,1-0.5,1.8-0.1c2.1,1,4.1,2.3,6.2,3.5c4.2,2.3,8.5,4.4,12.9,6.4
	c1.2,0.7,2.7,0.3,3.4-0.9c0.7-1.2,0.3-2.7-0.9-3.4c-4.3-2-8.5-4.1-12.7-6.3c-2-1.1-4-2.3-6-3.4c-1-0.5-2.1-0.9-3.2-1
	c-0.6-0.1-1.3,0-1.9,0.1l-0.7,0.2c-0.5,0.1-0.4,0.2,0.1,0.2l1.1,0.6l-0.2-0.2v3.5c1.8-1.7,2.2-4,2.2-6.4c0-2.7-0.1-5.3-0.1-8l-5,0.6
	c0.7,2.6,2.8,4.5,5.5,4.9c1.5,0.2,2.9,0.2,4.4,0.1c1.4-0.1,3.1,0,4.4-0.7c1.4-0.7,2.2-2.2,1.8-3.7c-0.5-1.4-1.6-2.4-3-2.9
	c-1.4-0.6-2.8-1.1-4.3-1.5c-0.7-0.2-1.5-0.3-2.2-0.5c-0.3-0.1-0.6-0.1-0.9-0.2c-1.3-0.2-0.6-0.2-0.4,0.1l0.6,1.1l-0.1-0.2v1.3
	c0,0.3,0.1-0.3,0.2-0.4c0.2-0.4,0.4-0.7,0.5-1.1c0.3-1,0.1-2.1-0.6-2.9c-1.1-1.4-3-1.5-4.6-1.1C20.1,90.8,21.4,95.7,24.6,94.9
	L24.6,94.9z"/>
<path d="M29.4,111.9c4.7,0.7,8.1-0.1,12.4-1.8c1.4-0.6,2.8-1,4.3-1.2c1.6-0.2,7.4,0.7,2.7-1.3c-3.7-1.6-1.2,1.1-0.3,3.4
	c0.8,2.1,1.6,4.2,2.6,6.2c0.9,1.9,2.1,3.7,3.5,5.4c0.6,0.8,1.3,1.4,2.1,2c2.1,1.9,2.1,1.5-0.2-1.1l0.8-5.8l-0.4,0.8l4.5-3.4
	c-4.7,1.7-4.8-1.9-8-5.1c-3.4-3.2-7.5-5.8-11.9-7.4c-3.8-1.5-8.2,1.7-9.2,5.2c-1.2,4.3,1.5,7.7,5.2,9.2s6,4.4,8.5,7.5
	c2.8,3.8,7.2,6,11.9,6.1c4.3,0.1,9.6-0.7,12.1-4.5c2.8-4.3,0.9-9-2.5-12.1c-5.8-5.3-5-15.9-12.6-19.6c-3.3-1.6-7.5-0.7-11-0.4
	c-2,0.2-4,0.7-5.8,1.5c-0.9,0.4-3.7,2.1-4.6,1.9c-4-0.6-8,1-9.2,5.2C23.2,106.2,25.4,111.3,29.4,111.9L29.4,111.9z"/>
<text transform="matrix(1 0 0 1 88.9129 46.9)" class="st4 st5 st6">3</text>
</svg>
