<?xml version="1.0" encoding="utf-8"?>
<!-- Generator: Adobe Illustrator 24.2.0, SVG Export Plug-In . SVG Version: 6.00 Build 0)  -->
<svg version="1.1" id="Layer_1" xmlns="http://www.w3.org/2000/svg" xmlns:xlink="http://www.w3.org/1999/xlink" x="0px" y="0px"
	 viewBox="0 0 150 150" style="enable-background:new 0 0 150 150;" xml:space="preserve">
<style type="text/css">
	.st0{fill:#FFFFFF;stroke:#000000;stroke-width:2;stroke-miterlimit:10;}
	.st1{fill:#FFA5E0;stroke:#000000;stroke-width:2;stroke-miterlimit:10;}
	.st2{stroke:#000000;stroke-width:2;stroke-miterlimit:10;}
	.st3{fill:none;stroke:#000000;stroke-width:2;stroke-miterlimit:10;}
	.st4{fill:#FFA5E0;}
	.st5{font-family:'ArialRoundedMTBold';}
	.st6{font-size:50px;}
</style>
<rect x="118.8" y="117.3" class="st0" width="8.5" height="23.3"/>
<rect x="70.6" y="117.3" class="st0" width="8.5" height="23.3"/>
<circle class="st0" cx="97.9" cy="87.2" r="46.3"/>
<circle class="st0" cx="49.3" cy="91" r="32.9"/>
<ellipse class="st1" cx="49.6" cy="113.6" rx="20.9" ry="11"/>
<circle class="st2" cx="65.2" cy="95.6" r="4.6"/>
<circle class="st2" cx="32" cy="95.6" r="4.6"/>
<rect x="118.9" y="140.6" class="st2" width="8.5" height="7.8"/>
<rect x="70.6" y="140.6" class="st2" width="8.5" height="7.8"/>
<path class="st2" d="M55.6,117.9L55.6,117.9c-0.8,0-1.4-0.6-1.4-1.4v-4.3c0-0.8,0.6-1.4,1.4-1.4h0c0.8,0,1.4,0.6,1.4,1.4v4.3
	C57,117.2,56.4,117.9,55.6,117.9z"/>
<path class="st2" d="M43.6,117.9L43.6,117.9c-0.8,0-1.4-0.6-1.4-1.4v-4.3c0-0.8,0.6-1.4,1.4-1.4h0c0.8,0,1.4,0.6,1.4,1.4v4.3
	C45,117.2,44.4,117.9,43.6,117.9z"/>
<path class="st0" d="M71.2,73c0,0,8.5-1.4,19.1,9.2s-19.1,0-19.1,0L71.2,73z"/>
<path class="st0" d="M27.4,71.7c0,0-8.5-1.4-19.1,9.2s19.1,0,19.1,0V71.7z"/>
<path class="st3" d="M137.9,62.9c0,0,10.6-5,3.5-16.3s-4.2-17-4.2-17"/>
<path class="st0" d="M135.7,29c0.3,0.8,1.2,1.1,2,0.8c0.2-0.1,0.4-0.3,0.6-0.5l2.2-3.1l2.2-3c0.5-0.7,0.3-1.6-0.3-2.1
	c-0.2-0.2-0.5-0.3-0.7-0.3l-3.7-0.5l-3.8-0.4c-0.8-0.1-1.6,0.5-1.7,1.3c0,0.3,0,0.5,0.1,0.8l1.5,3.5L135.7,29z"/>
<path d="M23.2,73.1c-1.6,2.4-0.4,5.7,2,7.2s5.5,0.8,7.7-0.8s3.7-3.9,5.5-5.8c0.7-0.8,1.6-1.5,2.6-2c1.2-0.4,2.4-0.6,3.7-0.7
	c2.8-0.3,5.7-1.1,7.4-3.6c1.5-2.2,1.4-5.2-0.3-7.2c-1.8-1.9-5.2-2-7.7-2c-8.5,0-16.5,4.3-21.2,11.4c-1.8,2.7,2.5,5.2,4.3,2.5
	c4.2-6,11.2-9.4,18.5-8.8c0.8,0.1,1.6,0.3,2.4,0.4c0.1,0,0.1,0,0-0.2c0.2,0.1,0.1,0.5,0.1,0.7c-0.1,0.4-0.3,0.7-0.7,0.9
	c-0.8,0.4-1.6,0.7-2.5,0.8c-2.2,0.4-4.4,0.4-6.5,1.4c-1.8,1-3.3,2.3-4.6,3.8c-1.3,1.6-2.6,3.6-4.5,4.6c-0.5,0.3-1,0.4-1.6,0.3
	c-0.2-0.1-0.2-0.3-0.4-0.5c0.1,0.2-0.2,0.6,0.1,0.1C29.3,72.9,25,70.4,23.2,73.1L23.2,73.1z"/>
<path d="M25,76.1c3.2,0,3.2-5,0-5S21.8,76.1,25,76.1z"/>
<path d="M24.3,76.5c3.2,0,3.2-5,0-5S21,76.5,24.3,76.5z"/>
<path d="M22.1,72.3c-1.1,3.8,0.6,8.3,4.8,9.1s7.9-3.1,6.2-7.2c-0.3-0.9-1-1.7-1.9-2.2c-0.1-0.1-0.3-0.2-0.4-0.3
	c0.2,0.3,0.4,0.6,0.4,0.9c-0.2,0.3-0.1,0.3,0.1,0c0.1,0,0.2-0.1,0.3-0.2c1.8-1.2,3.9-2.2,5.8-3.2s3.8-2.2,5.7-3.2
	c1.6-1,3.4-1.4,5.3-1.1v-4.8c-4,0.9-8.1,1.5-11.8,3.5c-3.3,1.7-5.9,4.5-7.2,7.9c-0.4,1.3,0.4,2.7,1.7,3.1c1.3,0.3,2.7-0.4,3.1-1.8
	c2.2-5.9,10.3-6.8,15.5-7.9c2.4-0.5,2.4-4.3,0-4.8c-3.9-0.9-7.5,0.6-10.9,2.5c-1.8,1-3.6,2-5.4,3.1c-1.7,0.9-3.4,1.8-5,2.9
	c-1.6,1.1-2.4,3.1-2,5c0.3,0.9,0.8,1.7,1.6,2.2c-0.1-0.1,0.7,0.5,0.5,0.3s-0.1-0.4-0.1-0.1c0,0.1,0,0.2-0.1,0.3
	c0.1-0.2,0.3,0.1-0.2,0.1c-0.2,0-0.5-0.1-0.7-0.2c-1-0.5-0.9-1.9-0.6-2.8C27.8,70.5,23,69.2,22.1,72.3L22.1,72.3z"/>
<path d="M70.3,54.8c1.1,0.6,2.3,0.9,3.5,1c1.2,0.1,2.4-0.1,3.6,0.1c0.5,0.1,1,0.2,1.4,0.5c0.5,0.4,0.1,0.2,0.1,0.1
	c0,0.6,0,1.1-0.2,1.7c-0.2,2.7,1.5,4.3,4.1,4.7s5,0.5,7.3-0.6c1.9-1.1,3.4-2.8,4.2-4.8c0.9-1.7,1.7-3.4,3.7-4.1
	c3.7-1.5,7.9,1.7,11.5,2.4c2.5,0.6,5.1,0.2,7.3-1.1c2.2-1.5,3.9-3.7,4.8-6.2c0.4-1.3-0.4-2.7-1.7-3.1c-1.3-0.4-2.7,0.4-3.1,1.7
	c-0.5,1.5-1.6,2.8-3.1,3.5c-1.5,0.5-3.2,0.4-4.7-0.2c-3.9-1.2-7.7-3.3-11.9-2c-2.1,0.6-3.9,1.8-5.2,3.5c-1.2,1.5-1.8,3.4-2.9,4.9
	s-2.7,1.4-4.3,1.2c-0.4-0.1-0.7-0.1-1.1-0.1c-1.2,0,0.6,0.6,0.2,0.7c0.1,0-0.4,0.9,0-0.2c0.2-1,0.3-2,0.1-3
	c-0.6-2.2-2.3-3.8-4.5-4.3c-1.1-0.3-2.3-0.4-3.5-0.3c-1,0.1-2,0-3-0.4C70,48.8,67.5,53.1,70.3,54.8L70.3,54.8z"/>
<path d="M133,68.1l-5.4-0.7c-1.6-0.3-3.2-0.5-4.9-0.5c-1.4,0-2.8,0.6-3.8,1.6c-1.2,1.3-1.3,3-1.4,4.6c-0.2,2.4-1.2,4.6-2.8,6.3
	c-1.9,2.1-4.1,3.4-6.4,5c-4.6,3.4-5.9,12.5-0.2,15.6c2.7,1.3,5.8,1.3,8.5,0c2.9-1.2,5.3-3.4,8.2-4.4c0.8-0.3,1.5-0.5,2.4-0.7
	c0.6,0,1.2,0.2,1.6,0.7c1.3,1,2.6,1.9,4.1,2.5c3.3,1.2,7,0.9,10.1-0.8c2.8-1.6,0.3-5.9-2.5-4.3c-1.9,1.1-4.2,1.2-6.2,0.3
	c-2.3-1-3.7-3.2-6.4-3.3s-5.9,1.3-8.2,2.6c-2.2,1.2-4.3,3.1-6.8,3.5c-1.7,0.2-3.2-0.3-3.4-2.1s0.4-4.2,1.8-5.3
	c0.9-0.7,2-1.2,2.9-1.9c1.1-0.8,2.1-1.7,3.1-2.6c1.8-1.8,3.3-3.9,4.3-6.2c0.5-1.2,0.8-2.5,1-3.8c0.1-0.6,0.1-1.2,0.1-1.8
	c0-0.1,0-0.3,0.1-0.4c-0.1,0.4-0.4,0.1-0.1,0.1c0.5,0.1,1.1,0,1.6,0c0.7,0.1,1.4,0.2,2.1,0.3l5.4,0.7c1.3,0.3,2.7-0.4,3.1-1.8
	C135.1,70,134.4,68.3,133,68.1L133,68.1z"/>
<path d="M132.3,73.8c1.3-0.5,2.7-0.8,4.1-1l-0.7,0.1c1-0.1,2-0.2,3-0.2c1.4,0,2.5-1.1,2.5-2.5s-1.1-2.5-2.5-2.5
	c-2.6,0-5.3,0.4-7.7,1.3c-0.6,0.2-1.2,0.6-1.5,1.2c-0.3,0.6-0.4,1.3-0.2,1.9C129.6,73.4,131,74.2,132.3,73.8L132.3,73.8z"/>
<path d="M77.4,124.2c0.6-2.8,3.2-4.3,5.8-4.8c4-0.8,8.2,0.6,12.1,1.4c7.9,1.6,16.2,4.2,24.3,3c4.2-0.6,8.3-2.2,11.8-4.6
	c2.7-1.8,0.2-6.1-2.5-4.3c-3.1,2.2-6.7,3.6-10.4,4.1c-4,0.6-8-0.1-12-0.9c-4.2-0.9-8.5-1.8-12.7-2.6s-8.7-1.8-12.9-0.5
	c-3.9,1.1-7.4,4-8.3,8.1C71.8,126.1,76.7,127.4,77.4,124.2L77.4,124.2z"/>
<path d="M75.2,53.4l9.8-4.3c2.2-1,1.2-5-1.3-4.7L79,45c-1.4,0-2.5,1.2-2.4,2.6c0,1.1,0.7,2,1.8,2.3c3.1,1.3,6.1-0.5,8.9-1.8
	c2.9-1.1,5.9-1.8,9-1.9c3.1-0.2,6.2-0.1,9.2,0.3c1.6,0.2,3.2,0.6,4.8,1.1c0.7,0.2,1.4,0.5,2.1,0.7c0.3,0.1,0.6,0.2,0.9,0.3l0,0
	c-0.7-1.2-0.3-1.8,1.1-1.8c-1.3-0.3-2.7,0.4-3.1,1.8c-0.4,1.3,0.4,2.7,1.8,3.1c2.1,0.5,4.3-0.9,4.8-3c0.6-2.4-1.2-4-3.3-4.8
	c-3.9-1.5-7.9-2.3-12.1-2.6c-4.1-0.3-8.3,0-12.3,0.8c-2.1,0.4-4.1,1.1-6,2c-1.4,0.7-2.9,1.6-4.5,1L79,50l4.7-0.6l-1.3-4.7l-9.8,4.3
	c-1.2,0.7-1.6,2.2-0.9,3.4S74,54.1,75.2,53.4L75.2,53.4z"/>
<path d="M78.7,51.5c1.2,3.2,2.8,6.7,6.4,7.6c1.6,0.4,3.4,0.2,4.8-0.7c0.8-0.5,1.4-1.3,1.8-2.1c0.2-0.6,0.6-1.2,0.9-1.8
	c1.6-2.1,5.2-2.3,7.6-2.7c3.3-0.5,7.2-0.9,10.3,0.6c1.2,0.7,2.7,0.3,3.4-0.9c0.7-1.2,0.3-2.7-0.9-3.4c-3.3-1.5-6.9-2-10.5-1.5
	c-3.2,0.2-6.3,0.7-9.3,1.7c-1.5,0.5-2.8,1.3-3.9,2.4c-0.5,0.6-1,1.2-1.3,1.8c-0.3,0.5-0.4,1.4-0.9,1.7c0,0-0.4,0.1-0.5,0.1
	c-0.4,0-0.9-0.2-1.2-0.5c-0.9-1-1.6-2.3-1.9-3.6c-0.4-1.3-1.8-2.1-3.1-1.8C79.1,48.8,78.4,50.2,78.7,51.5L78.7,51.5z"/>
<path d="M101.2,43.7c-5-0.4-10.1,1.5-14.6,3.5c-2.3,1-4.3,3-4.2,5.6c0.1,3,3.6,5.3,6.3,3.6c1.2-0.7,1.5-2.2,0.9-3.4
	c-0.7-1.2-2.2-1.6-3.4-0.9c0.2-0.1,0.4-0.1,0.5-0.1c0.3,0.1,0.4,0.1,0.2,0s-0.1,0,0,0c0.1,0.1,0.3,0.2,0.4,0.3
	c0,0.1,0.2,0.5,0.1,0.2s0,0.2,0,0.3c0-0.2,0.1-0.3,0-0.1c0.1-0.1,0.1-0.3,0.2-0.4c-0.2,0.3,0.1-0.1,0.2-0.1c0.3-0.3-0.2,0.2,0.1-0.1
	c0.2-0.1,0.4-0.2,0.6-0.3l0.5-0.2c-0.2,0.1,0,0,0.1,0c0.8-0.3,1.6-0.7,2.5-1c1.6-0.6,3.2-1.1,4.8-1.5c1.6-0.4,3.3-0.5,4.9-0.4
	c1.4,0,2.5-1.1,2.5-2.5C103.7,44.8,102.6,43.7,101.2,43.7L101.2,43.7z"/>
<path d="M84.3,48.3c3.2,0,3.2-5,0-5S81.1,48.3,84.3,48.3z"/>
<path d="M131.8,71.9l-3.2-1.2c-1-0.5-2.1-0.9-3.3-1c-2.7,0-3.2,2.6-3.9,4.6c-1,2.9-3.4,5.3-5.6,7.5c-2.5,2.4-5.3,5-6.9,8.1
	c-1.1,2.1-1.3,4.8,0.6,6.5c0.9,0.9,2.3,1.3,3.5,1.1c1-0.3,1.9-0.8,2.7-1.5c1.3-0.9,3.1-0.9,4.8-1.1c2.2-0.1,4.3-0.8,6.2-2
	c0.9-0.6,1.4-1.7,1.2-2.8c-0.3-1.1-1.3-1.8-2.4-1.8l-5.5,0.3c-0.8,0-1.7,0-2.5,0.1c-0.5,0.1-0.2-0.1-0.2,0.1
	c0.2,0.1,0.4,0.3,0.4,0.5c-0.3,1-0.3,1.3,0,0.8l-0.9,0.9l0.2-0.1l-3.7-2.8l-0.5,1.8c-0.3,1.4,0.5,2.7,1.8,3.1c0.4,0.1,0.8,0.1,1.2,0
	c2.5-0.5,4.4-2.4,4.9-4.9l-4.6,0.6c0.6,1.1,1.4,2,2.4,2.7c1.4,1,3.2-0.2,3.7-1.5c0.5-1.4,0.3-2.9-0.5-4.1c-1.7-2.7-6-0.2-4.3,2.5
	c0.3,0.5,0.2-0.4,0,0.2l3.7-1.5c-0.3-0.2-0.5-0.5-0.7-0.9c-1-1.8-4.2-1.6-4.6,0.6c-0.1,0.8-0.6,1.3-1.4,1.4l3.1,3.1l0.4-1.8
	c0.5-1.9-1.8-4.2-3.7-2.8c-1.8,1.2-2.2,3.7-0.9,5.4c0.6,0.8,1.5,1.4,2.5,1.6c1.5,0.2,3,0.2,4.6,0l5-0.3l-1.3-4.7
	c-2.2,1.7-5.2,1.2-7.8,1.8c-0.8,0.2-1.5,0.4-2.2,0.8c-0.8,0.3-1.5,0.7-2,1.3c-0.3,0.6-0.1,0-0.1,0.1l0.8,0.1c0.1,0,0.2,0.3,0.3,0.2
	s0.1-0.3,0.2-0.4c0.2-0.4,0.4-0.8,0.7-1.2c3.1-4.7,8.2-7.7,11-12.7c0.4-0.8,0.8-1.6,1.1-2.4c0.3-0.6,0.5-1.3,0.6-2.1
	c0-0.2,0.5-0.3-0.7,0.3c-1,0.5-0.7,0.3-0.1,0.6l1.4,0.5l3.2,1.2c1.3,0.4,2.7-0.4,3.1-1.7c0,0,0,0,0,0
	C133.9,73.7,133.1,72.3,131.8,71.9z"/>
<path d="M133.9,76.1c0.8,0,1.5,0.1,2.3,0.2l1.1,0.2l0.7,0.2c0.3,0.1,0.3,0.1,0-0.1c-0.4-0.2-0.6-0.6-0.6-1c0,0.3,0,0.3,0,0.1
	c0,0.4-0.1,0.8-0.2,1.2c-0.1,0.8,0,1.6,0.3,2.4c0.6,1.2,1,2.4,1.3,3.7c0.2,1.5,0.2,3.1,0.2,4.7l0.1,2.4c0,0.4,0,0.8,0.1,1.2
	c0,0.4,0,0.4,0.1,0.1c0.1-0.4,0.4-0.7,0.8-0.8c0.2,0,0.2,0-0.1,0h0.1c-0.4-0.1-0.9-0.2-1.4-0.3l-2.2-0.5l-9.9-2.2
	c-1.3-0.3-2.7,0.4-3.1,1.8c-0.4,1.3,0.4,2.7,1.7,3.1l9.4,2c2.8,0.6,7.3,2.4,9.1-0.9c0.8-1.5,0.5-3.2,0.4-4.8s-0.1-3.2-0.2-4.8
	c0-1.6-0.3-3.1-0.9-4.6c-0.2-0.6-0.6-1.2-0.8-1.7c-0.1-0.1-0.1-0.3-0.1-0.5c0,0,0,0.3,0,0s0.1-0.5,0.1-0.7c0.4-2-0.8-4-2.8-4.5
	c-1.9-0.5-3.8-0.8-5.7-0.8c-1.4,0-2.5,1.1-2.5,2.5S132.4,76.1,133.9,76.1L133.9,76.1z"/>
<path d="M138.4,75.8c3.2,0,3.2-5,0-5S135.2,75.8,138.4,75.8z"/>
<path d="M87.7,118.7c-4.8-0.1-9.4,1.6-12.9,4.8c-1,1-1,2.6,0,3.5c0.3,0.3,0.7,0.5,1.1,0.6c3.5,0.8,6.4,3,9.7,4.4
	c3.7,1.6,7.6,2.3,11.6,2.3c7.9,0,15.5-2.7,22.7-5.6c3.8-1.5,7.4-3.2,9.8-6.7c0.7-1.2,0.3-2.7-0.9-3.4c-1.2-0.7-2.7-0.3-3.4,0.9
	c-2.1,3.1-6.7,4.3-10,5.6c-4.3,1.7-8.7,3-13.3,3.8c-4.2,0.7-8.5,0.4-12.6-0.8c-4.2-1.4-7.7-4.4-12.1-5.3l1.1,4.2
	c2.6-2.3,5.9-3.5,9.4-3.3C91,123.9,91,118.9,87.7,118.7L87.7,118.7z"/>
<path d="M116.7,121.8c-3.2,0.6-6.3,1.5-9.3,2.6c-1.3,0.4-2.1,1.7-1.7,3.1c0.4,1.3,1.7,2.1,3.1,1.7l0,0c3-1.1,6.1-1.9,9.3-2.6
	c1.3-0.4,2.1-1.7,1.8-3.1C119.4,122.2,118,121.4,116.7,121.8z"/>
<path d="M86.6,130.9c5.5,0.4,11,0.9,16.5,1.5c4,0.5,7.5-3.8,7.5-7.5c0-4.4-3.5-7-7.5-7.5c-5.5-0.7-11-1.2-16.5-1.5
	c-4-0.3-7.5,3.6-7.5,7.5C79.1,127.7,82.5,130.6,86.6,130.9z"/>
<path d="M129.9,88c-0.6,0.1-1.2,0.1-1.8,0c-0.7-0.2-1-0.7-1.5-1c-0.2-0.3-0.2-0.3,0,0c0.1,0.2,0.2,0.4,0.3,0.6
	c0.1,0.3,0.8,1.7,0.2,0.3l11-8.5c-4.7-2.7-10.3-3.7-15.7-2.7c-3.9,0.6-6.4,5.7-5.2,9.2c1.4,4.2,5.1,5.9,9.2,5.2
	c-1.7,0.3,0.2,0,0.6,0.1s0.9,0,1.3,0.1c-0.8-0.1-1-0.1-0.4,0s1.2,0.4,1.9,0.5l-0.3-0.1c0.4,0.2,0.8,0.4,1.1,0.6
	c2.6,1.5,5.9,1.3,8.3-0.6c2.1-1.7,3.8-5.2,2.7-7.9c-1.3-3.2-2.6-6.1-5.4-8.3c-2.9-2.3-6.7-3.1-10.3-2.2c-3.8,1-6.5,5.4-5.2,9.2
	C121.8,86.7,125.9,89,129.9,88z"/>
<path d="M133.4,114c-1.6-1.4-3.8-1.8-5.8-1.2c-1.8,0.7-3.5,1.7-4.9,3.1l-9.6,8.1c-0.9,0.9-1,2.3-0.2,3.3c0.8,1,2.1,1.2,3.2,0.7
	c3.6-1.6,5.9-4.8,8.4-7.7c1.1-1.4,2.4-2.6,3.9-3.6c0.7-0.4,1.4-0.8,2.2-1c0.3-0.1,0.7-0.2,1.1-0.2c0.4,0,0.7,0,1.1,0.1
	c1.3,0.3,2.7-0.4,3.1-1.7c0.4-1.3-0.4-2.7-1.8-3.1c-4.7-0.9-9,1.6-12.2,4.9c-2.7,2.9-4.8,6.3-8.4,8l3,3.9l7.9-6.7
	c1.1-1,2.2-1.9,3.4-2.8c0.4-0.3,1-0.6,1.6-0.6c-0.4,0,0.5,0,0.1,0c0.2,0,0.7,0.3,0.4,0c1,0.9,2.5,0.9,3.5,0
	C134.3,116.6,134.3,115,133.4,114L133.4,114z"/>
<text transform="matrix(1 0 0 1 28.7798 50.3225)" class="st4 st5 st6">4</text>
</svg>
