<?xml version="1.0" encoding="utf-8"?>
<!-- Generator: Adobe Illustrator 24.2.0, SVG Export Plug-In . SVG Version: 6.00 Build 0)  -->
<svg version="1.1" id="Layer_1" xmlns="http://www.w3.org/2000/svg" xmlns:xlink="http://www.w3.org/1999/xlink" x="0px" y="0px"
	 viewBox="0 0 150 150" style="enable-background:new 0 0 150 150;" xml:space="preserve">
<style type="text/css">
	.st0{fill:#FFFFFF;stroke:#000000;stroke-width:2;stroke-miterlimit:10;}
	.st1{fill:#FFA5E0;stroke:#000000;stroke-width:2;stroke-miterlimit:10;}
	.st2{stroke:#000000;stroke-width:2;stroke-miterlimit:10;}
	.st3{fill:none;stroke:#000000;stroke-width:2;stroke-miterlimit:10;}
	.st4{fill:#FFA5E0;}
	.st5{font-family:'ArialRoundedMTBold';}
	.st6{font-size:50px;}
</style>
<rect x="22.9" y="117.3" class="st0" width="8.5" height="23.3"/>
<rect x="71.1" y="117.3" class="st0" width="8.5" height="23.3"/>
<circle class="st0" cx="52.3" cy="87.2" r="46.3"/>
<circle class="st0" cx="100.9" cy="91" r="32.9"/>
<ellipse class="st1" cx="100.6" cy="113.6" rx="20.8" ry="11"/>
<circle class="st2" cx="85" cy="95.6" r="4.6"/>
<circle class="st2" cx="118.2" cy="95.6" r="4.6"/>
<rect x="22.8" y="140.6" class="st2" width="8.5" height="7.8"/>
<rect x="71.2" y="140.6" class="st2" width="8.5" height="7.8"/>
<path class="st2" d="M94.6,110.8L94.6,110.8c0.8,0,1.4,0.6,1.4,1.4v4.3c0,0.8-0.6,1.4-1.4,1.4h0c-0.8,0-1.4-0.6-1.4-1.4v-4.3
	C93.2,111.4,93.8,110.8,94.6,110.8z"/>
<path class="st2" d="M106.6,110.8L106.6,110.8c0.8,0,1.4,0.6,1.4,1.4v4.3c0,0.8-0.6,1.4-1.4,1.4h0c-0.8,0-1.4-0.6-1.4-1.4v-4.3
	C105.2,111.4,105.8,110.8,106.6,110.8z"/>
<path class="st0" d="M79,73c0,0-8.5-1.4-19.1,9.2s19.1,0,19.1,0V73z"/>
<path class="st0" d="M122.8,71.7c0,0,8.5-1.4,19.1,9.2s-19.1,0-19.1,0V71.7z"/>
<path class="st3" d="M12.3,62.9c0,0-10.6-4.9-3.5-16.3s4.2-17,4.2-17"/>
<path class="st0" d="M14.5,29c-0.3,0.8-1.2,1.1-2,0.8c-0.2-0.1-0.4-0.3-0.6-0.5l-2.2-3.1l-2.2-3.1c-0.5-0.7-0.4-1.6,0.3-2.1
	c0.2-0.2,0.4-0.2,0.7-0.3l3.8-0.4l3.8-0.4c0.8-0.1,1.6,0.5,1.6,1.3c0,0.2,0,0.5-0.1,0.7L16,25.5L14.5,29z"/>
<path d="M25.6,131c1.5-1.1,3.3-2,5.1-2.6c1.8-0.4,3.6-0.7,5.4-0.8c2-0.1,3.9-0.9,5.4-2.2c0.7-0.7,1.3-1.6,1.6-2.5
	c0.2-0.8,0-1.7,0.3-2.4l-0.6,1.1c-0.5,0.6-1,0.1-0.4,0.2c0.3,0,0.6,0,0.9-0.1c0.6-0.1,1.2-0.2,1.7-0.3c1.1-0.3,2.2-0.7,3.2-1.3
	c2.2-1.3,3.2-3.7,1.8-6c-2.6-4.4-8.1-3.2-12.2-2.2c-4.1,0.9-8.3,0.6-12.2-0.9c-0.9-0.3-1.7-0.7-2.4-1.2c-0.6-0.5-0.9-1.3-1-2.1
	c-0.3-1.9-1-3.8-2-5.4c-2.4-4-7-6.2-11.7-5.5c-1.3,0.4-2.1,1.7-1.8,3.1c0.4,1.3,1.8,2.1,3.1,1.7c1.7-0.1,3.4,0.5,4.7,1.7
	c1.5,1.4,2.5,3.3,2.7,5.4c0.4,2.6,2,4.8,4.3,6c2.3,1.2,4.8,2.1,7.4,2.5c2.8,0.4,5.6,0.4,8.4,0c2.2-0.4,4.9-1.7,7.1-1
	c0.3,0.1,0.7,0.3,1,0.4c0.1,0,0.2,0.2,0.3,0.3s0.3-1.1,0.2-1.2s-1,0.6-1.3,0.7c-0.6,0.2-1.2,0.4-1.9,0.5c-1.3,0.2-2.5,0.2-3.5,1.2
	c-0.5,0.5-0.8,1.2-0.9,1.9c-0.1,0.5,0.1,1.3-0.1,1.7c-0.3,0.8-1.6,1-2.3,1.1c-1.5,0.2-3,0.2-4.5,0.4c-3,0.5-5.9,1.8-8.3,3.6
	c-1.2,0.7-1.6,2.2-0.9,3.4C22.9,131.3,24.4,131.7,25.6,131L25.6,131z"/>
<path d="M8.9,103l6.3,9.6l3.4-3.4c-1.1-0.7-2.1-1.7-2.9-2.8l-3.9,3c2.9,2.6,5.3,5.7,7.1,9.1l3.9-3c-1.7-1.3-3.3-2.9-4.6-4.6l-3.9,3
	c3.7,3.6,8.7,5.2,13.8,5.5c5.7,0.3,11.4-1.1,17-1.6c1.2,0,2.3-0.9,2.5-2.2c0.2-1.2-0.6-2.4-1.7-2.7c-2.1-0.4-4.6-0.5-6.3,1.1
	c-0.5,0.5-0.9,1.1-1.1,1.7c-0.1,0.5-0.2,1-0.4,1.4c-0.5,0.6-1.2,1.1-2,1.4c-4.4,2.3-9.1-0.1-13.1-2.1l-1.9,4.6
	c1.4,0.4,2.3,1.7,2.3,3.1c0,1.4,1.2,2.5,2.6,2.5c0.6,0,1.3-0.3,1.7-0.7c1.9-1.6,4-3,6.4-3.9c1.3-0.4,2.1-1.7,1.8-3.1
	c-0.4-1.3-1.7-2.1-3.1-1.8c-3.1,1.2-6,2.9-8.5,5.2l4.3,1.8c0-3.7-2.5-6.9-6-7.9c-2.7-0.8-4.5,3.3-1.9,4.6c4.7,2.4,9.8,4.7,15.2,3.3
	c2.5-0.6,4.7-1.9,6.3-3.8c0.4-0.5,0.7-1,0.9-1.6c0.1-0.3,0.2-0.6,0.3-0.9c0.1-0.6,0.2-0.1,0-0.1s0.3,0,0.2,0c0.4,0.1,0.9,0,1.3,0.1
	l0.7-4.9c-8.6,0.8-20.2,4.5-27.3-2.4c-0.9-0.9-2.3-1-3.3-0.2c-1,0.8-1.3,2.1-0.6,3.2c1.6,2.1,3.4,4,5.4,5.6c2.2,1.7,5.3-0.4,3.9-3
	c-2-3.8-4.6-7.3-7.9-10.2c-0.9-0.9-2.3-1-3.3-0.2c-1,0.8-1.3,2.1-0.6,3.2c1.3,1.8,2.9,3.3,4.7,4.6c2.1,1.4,4.8-1.4,3.4-3.4l-6.3-9.6
	C11.5,97.8,7.1,100.3,8.9,103L8.9,103z"/>
<path d="M23.7,131.9c0.4,0.1,0.8,0.2,1.2,0.2c0.4,0,0.8,0,1.2-0.1c0.7-0.2,1.3-0.5,1.9-1c0.6-0.5,1.1-1,1.5-1.6
	c0.3-0.4,0.5-0.7,0.8-1.1l-0.4,0.5c0.2-0.3,0.5-0.6,0.8-0.9l-0.5,0.4l0.4-0.2c0.6-0.3,1-0.9,1.1-1.5c0.2-0.7,0.1-1.3-0.2-1.9
	c-0.3-0.6-0.9-1-1.5-1.2c-0.6-0.2-1.3-0.1-1.9,0.2c-0.6,0.4-1.2,0.8-1.6,1.4c-0.5,0.6-0.9,1.2-1.3,1.8l0.4-0.5
	c-0.2,0.3-0.5,0.6-0.8,0.8l0.5-0.4c-0.2,0.2-0.5,0.3-0.7,0.4l0.6-0.2c-0.2,0.1-0.4,0.1-0.6,0.2l0.7-0.1c-0.1,0-0.3,0-0.4,0l0.7,0.1
	c-0.1,0-0.3-0.1-0.4-0.1c-0.7-0.2-1.3-0.1-1.9,0.2c-0.6,0.3-1,0.9-1.1,1.5c-0.2,0.7-0.1,1.3,0.2,1.9l0.4,0.5
	C22.9,131.5,23.3,131.8,23.7,131.9L23.7,131.9z"/>
<path d="M117,107.2c4.2-0.4,8.5-2,10.8-5.7c2.1-3.5,2.2-7.8,0.2-11.3c-0.7-1.2-2.2-1.6-3.4-0.9c-1.2,0.7-1.6,2.2-0.9,3.4
	c0.1,0.2,0.2,0.3,0.3,0.5c0.2,0.4-0.1-0.4,0,0.1c0.1,0.3,0.2,0.6,0.3,0.9c0.1,0.2,0.1,0.4,0.1,0.6c0.1,0.6,0-0.5,0,0.1
	c0,0.3,0,0.6,0,0.9v0.6c0,0.6,0.1-0.5,0,0.1c-0.1,0.3-0.1,0.6-0.2,0.9c-0.1,0.2-0.1,0.4-0.2,0.5s-0.1,0.2-0.1,0.3s0,0.1,0.1-0.2
	c-0.1,0.3-0.3,0.6-0.5,0.9l-0.3,0.4c-0.3,0.5,0.3-0.4-0.1,0.1c-0.2,0.3-0.5,0.5-0.8,0.8s-0.4,0.3-0.1,0.1c-0.2,0.1-0.3,0.2-0.5,0.4
	c-0.3,0.2-0.7,0.4-1,0.6c-0.2,0.1-0.4,0.2-0.1,0c-0.2,0.1-0.4,0.2-0.6,0.2c-0.4,0.1-0.8,0.2-1.1,0.3s-0.8,0.2-1.2,0.2l-0.6,0.1
	c0.4-0.1,0,0-0.2,0c-1.4,0-2.5,1.1-2.5,2.5C114.5,106,115.6,107.1,117,107.2L117,107.2z"/>
<path d="M127.4,92.6c0.3-0.4,0.8-0.8,1.3-0.9c0.1,0,0.6,0,0.6,0c-0.1,0.1-0.7-1.1-0.8-1.1c0,0.5,0,1.1,0.1,1.6
	c0.1,2.1-0.2,4.3-0.7,6.3c-0.4,1.5-0.9,3.9-2.2,4.8c-1.6,1.2-3.5,2-5.5,2.3c-1.2,0.3-2,1.5-1.8,2.7c0.2,1.2,1.2,2.1,2.4,2.2
	c-0.1,0-0.2-0.1-0.3-0.2c0-0.1,0-0.2,0.1-0.2c-0.9,1-0.8,2.6,0.2,3.5c0.9,0.8,2.4,0.8,3.3,0c1.6-1.4,2.9-3,3.8-4.9
	c0.7-1.2,0.3-2.7-0.9-3.4c-1.2-0.7-2.7-0.3-3.4,0.9c-0.7,1.5-1.7,2.8-3,3.9l3.5,3.5c1.8-1.9,1.8-5-0.2-6.8c-0.9-0.8-2-1.3-3.2-1.3
	l0.7,4.9c1.6-0.3,3.2-0.9,4.7-1.7c1.3-0.6,2.6-1.4,3.6-2.4c2-2.3,3-5.9,3.5-8.9c0.3-1.6,0.4-3.3,0.4-4.9c0-1.6,0-3.5-1.2-4.8
	c-2.3-2.4-6.7-1-8.6,1.2c-0.9,1-0.9,2.5,0,3.5C124.9,93.6,126.5,93.6,127.4,92.6L127.4,92.6z"/>
<path d="M74.1,74.7c1.7,1.5,4,2,6.2,1.3c2.1-0.7,4-2,5.4-3.7c1.2-1.5,2.9-2.5,4.8-3c1.7-0.3,3.4,0,4.9,0.8c2,1.2,3.7,2.4,6,2.5
	c2.3,0.1,4.5-0.6,6.3-2c1.7-1.4,3-3.4,3.4-5.6c0.5-2.1,0.6-5.2-1.3-6.7c-1-0.9-2.5-0.9-3.5,0c-1,1-1,2.6,0,3.5
	c0.2,0.2,0.1,1.2,0.1,1.5c-0.1,0.7-0.3,1.4-0.6,2c-0.6,1.2-1.8,2.1-3.2,2.3c-1.5,0.2-2.6-0.5-3.8-1.3c-4.5-3.1-10.6-2.8-14.8,0.7
	c-1.3,1.1-2.3,2.5-3.7,3.5c-0.6,0.4-2,1.1-2.6,0.6c-1-0.9-2.6-0.9-3.5,0C73.1,72.2,73.1,73.8,74.1,74.7L74.1,74.7z"/>
<path d="M79.3,72.6c3.9-4.7,9.5-7.1,15.3-8.2c1.6-0.3,3.1-0.5,4.7-0.7c0.9-0.1,1.7-0.2,2.6-0.2l1.2-0.1h0.7c0.7,0,0.5-0.4-0.8-1.2
	c-0.2,0.2-0.2,1.1-0.4,1.4c-0.1,0.1-0.6,0.7-0.6,0.8c1,0,1.3-0.1,0.8-0.2l-0.6-0.2l-5-2.2l-1.9,4.6c0.2,0,0.3,0.1,0.5,0.1l-1.1-0.7
	l0.2,0.2l-0.7-1.8v0.2l0.8-1.8l-0.1,0.2l1.7-0.7h-0.2v5l5.7-0.4c1.4,0,2.5-1.1,2.5-2.5c0-1.4-1.1-2.5-2.5-2.5L96.4,62
	c-3.2,0.2-3.2,4.9,0,5c3.5,0.1,3.7-5,0.4-5.6c-1.2-0.3-2.5,0.3-3,1.5c-0.5,1.1-0.1,2.5,1,3.1l3.7,1.6c1,0.5,2.1,1,3.2,1.4
	c2.5,0.7,4.4-1.2,5.4-3.3c0.9-1.9,1.6-4.7-0.2-6.4s-5.2-0.8-7.3-0.6C90.8,59.4,81.7,62,75.8,69c-0.9,1-0.9,2.5,0,3.5
	C76.8,73.5,78.3,73.5,79.3,72.6L79.3,72.6z"/>
<path d="M12.7,65.4c2.3,1.9,5.5,2.6,8.4,1.9c2.8-0.8,5.4-2.3,7.4-4.5c3.9-3.9,7.4-9.2,13.3-9.9c2.3-0.3,4.7,0.4,6.4,2.1
	c1.7,1.7,2.8,3.9,4.2,5.8c1.6,2.2,3.5,4.3,6.1,5.2c3.5,1.2,6.3-1.4,8.9-3.2c2.8-2,6-3.9,7.8-6.9c1.9-3,1.7-6.8-0.5-9.6
	c-1-1-2.6-1-3.5,0c-0.9,1-0.9,2.6,0,3.5c1.2,1.4-0.2,3.7-1.2,4.7c-2,1.9-4.2,3.5-6.6,5c-0.7,0.5-2,1.9-3,1.8s-1.6-0.9-2.2-1.4
	c-1.4-1.5-2.6-3.2-3.7-4.9c-1.2-2-2.8-3.7-4.7-5.2c-2.2-1.5-4.9-2.3-7.7-2.1c-5.6,0.3-10.1,3.7-13.8,7.7c-1.9,2.1-3.7,4.5-6.1,6
	c-1.6,1-4.3,1.8-6,0.4c-1-0.9-2.5-0.9-3.5,0C11.7,63,11.7,64.5,12.7,65.4L12.7,65.4z"/>
<path d="M10.5,72l6,1.6c2,0.7,4.1,1,6.2,1.1c3.5-0.1,6.8-1.9,8.9-4.7c2-2.8,3.6-5.8,4.6-9.1c1.1-2.9,2.3-5.9,4.8-8.1
	c1-1,1-2.5,0-3.5c-1-1-2.6-1-3.5,0c-4.9,4.3-5.5,10.9-8.7,16.2c-1.3,2.1-3.2,4.1-5.8,4.2c-1.8-0.1-3.6-0.4-5.4-1l-5.7-1.5
	C8.7,66.4,7.4,71.2,10.5,72L10.5,72z"/>
<path d="M65.1,73.9c-2.4-2.2-5.9-2.9-9-1.8c-3.2,0.9-5.7,3-8.2,5.1c-2.2,1.9-4.4,3.5-7.2,3.6s-6.3,0.2-8.1,2.9
	c-2.2,3.2-0.4,7.3,2.6,9.2s6.8,2.2,10.1,3.2c3.1,1,6.2,2.5,8.3,5.1c1.8,2.2,2,5,2.7,7.7c0.8,3.3,2.5,6.6,6.1,7.4
	c4.5,1.1,8.2-2,11.1-4.9c2.3-2.3-1.3-5.8-3.5-3.5c-1.6,1.6-4.2,4.6-6.7,3.5c-1.6-0.7-1.9-3-2.3-4.8c-0.3-2.5-1.2-5-2.4-7.2
	c-1.6-2.5-3.9-4.5-6.5-5.8c-2.9-1.5-6.1-2.6-9.3-3.3c-1.6-0.4-5.8-0.8-6-3c0-0.2,0-0.4,0.1-0.6c0.2-0.3,0.3-0.2,0.6-0.3
	c1.1-0.3,2.2-0.4,3.3-0.3c2.8-0.1,5.5-1,7.7-2.6c2.5-1.7,4.5-4.1,7.1-5.5c1.8-1,4.5-1.9,6.2-0.3C63.9,79.7,67.4,76.1,65.1,73.9
	L65.1,73.9z"/>
<path d="M66.4,86.4c-1.9,0.1-3.8,0-5.7-0.2c-0.2,0-0.4,0-0.7-0.1c0.6,0.1-0.1,0-0.2,0l-1.5-0.3c-0.9-0.2-1.9-0.4-2.8-0.7
	c-1.3-0.4-2.7,0.4-3.1,1.8s0.4,2.7,1.8,3.1c4,1.1,8.1,1.5,12.2,1.4c1.4,0,2.5-1.1,2.5-2.5S67.8,86.5,66.4,86.4L66.4,86.4z"/>
<path d="M60.2,74.8c-3.7,2.5-6.4,6.1-7.7,10.4c-0.4,1.3,0.4,2.7,1.7,3.1c1.3,0.4,2.7-0.4,3.1-1.7l0,0c0.1-0.4,0.3-0.9,0.5-1.3
	s-0.1,0.1-0.1,0.2c0-0.1,0.1-0.2,0.2-0.3c0.1-0.2,0.2-0.4,0.3-0.6c0.4-0.8,0.9-1.6,1.4-2.3l0.2-0.2c-0.4,0.6-0.2,0.2-0.1,0.1
	s0.3-0.4,0.5-0.5c0.3-0.3,0.6-0.7,0.9-1s0.7-0.6,1-0.9l0.2-0.2c-0.5,0.5-0.2,0.2-0.1,0.1l0.6-0.4c1.2-0.6,1.7-2.1,1.1-3.4
	s-2.1-1.7-3.4-1.1C60.4,74.7,60.3,74.7,60.2,74.8L60.2,74.8z"/>
<path d="M37.5,90c7.9-1.2,15.2-4.8,21.1-10.2l-3.5-3.5l-7.9,7.5c-1.3,1.3-2.6,2.5-3.9,3.8c-0.4,0.4-0.8,0.8-1.2,1.1
	c-0.5,0.2-0.4-0.1,0,0.4l-1,3.4c2.1-1,4.6-0.7,6.9-0.7c2.7,0.2,5.3-0.3,7.8-1.4c1.2-0.7,1.6-2.2,0.9-3.4c-1.4-2.2-4.1-3.3-6.6-2.6
	c-1.3,0.4-2.1,1.8-1.7,3.1c0.3,1.1,0.8,2.1,1.3,3.1c0,0.1,0.2,0.7,0.2,0.7c0.1-0.4,0.4-0.7,0.7-0.8c0.5-0.1,1,0.1,1.3,0.6l-2.2,3.8
	c2.7-0.1,5.4-0.6,8-1.4l-3.1-3.1c-0.4,2.7,1.5,4.2,4,4.5s5.1,0.3,7.6,0.4L63.9,92c-1,4.1,1.1,7.4,2.5,11.1c0.5,1.3,1.1,2.9,0.6,4.2
	c-0.3,0.8-1,1.6-1.8,1.3s-1.2-1.5-1.5-2.3c-0.7-1.6-1.1-3.2-1.8-4.7c-1.5-3.3-3.7-6.2-6.3-8.6l-1.8,4.3c2.7,0.2,5.4,0.6,8,1.2
	l-1.5-3.7l-1.7,2.9c-0.7,1.2-0.3,2.7,1,3.4c0.4,0.2,0.8,0.3,1.2,0.3l2.7,0.1l-2.2-3.8c-1.1,1.8-1.3,4-0.5,5.9
	c0.6,1.7,2.3,3.3,2.4,5.1l4.7-1.3c-0.9-1.9-1.2-4-1-6.1c0-1.4-1.1-2.5-2.5-2.5c-1.4,0-2.5,1.1-2.5,2.5c-0.2,3,0.3,5.9,1.7,8.6
	c1.1,2.2,4.8,1.2,4.7-1.3c-0.2-1.9-0.9-3.7-2-5.3c-0.6-0.9-1.3-2.1-0.6-3.1c1.2-1.6-0.4-3.7-2.2-3.8l-2.7-0.1l2.2,3.8l1.6-2.9
	c0.7-1.2,0.3-2.8-0.9-3.5c-0.2-0.1-0.4-0.2-0.5-0.2c-3.1-0.7-6.2-1.1-9.4-1.3c-1.4,0-2.5,1.2-2.5,2.6c0,0.6,0.3,1.2,0.7,1.7
	c2.8,2.6,5,5.9,6.3,9.6c1.2,3.4,2.9,7.4,7,7.6c4.4,0.3,7.2-4.4,6.8-8.4c-0.4-2.3-1.1-4.5-2.2-6.5c-0.8-1.7-1.7-3.6-1.2-5.5
	c0.3-1.4-0.5-2.7-1.8-3.1c-0.2,0-0.4-0.1-0.6-0.1l-4.5-0.2l-2-0.1c-0.2,0-0.9-0.1-1,0s0,0,0,0c0.2,0.2,0.4,0.5,0.5,0.8v1.3v-0.3
	c0.3-1.7-1.1-3.8-3.1-3.1c-2.2,0.8-4.4,1.2-6.7,1.3c-1.4,0-2.5,1.2-2.5,2.6c0,0.4,0.1,0.8,0.3,1.2c1.3,2.6,5.1,2.4,6.6,0.1
	c0.7-1.2,0.9-2.7,0.5-4c-0.3-1.3-1.2-2.3-1.5-3.5l-1.5,3.1c0.4-0.1,0.8,0,1,0.3l0.9-3.4c-2.1,1-4.6,0.8-6.9,0.7
	c-2.7-0.2-5.3,0.3-7.8,1.4c-1.2,0.7-1.6,2.2-0.9,3.4c1.2,1.8,3.5,2.6,5.6,1.9c2-0.6,3.5-2.4,5-3.8l10.4-9.9c2.3-2.2-1.2-5.7-3.5-3.5
	c-5.3,4.8-11.9,7.9-18.9,8.9c-1.3,0.4-2.1,1.7-1.8,3.1C34.8,89.6,36.2,90.3,37.5,90z"/>
<path d="M71.9,45.5c-9-4.2-19.2-5.4-28.9-3.6c-13.9,2.8-25.7,11.7-32.3,24.2c-1,1.8,0.3,3.5,2.2,3.8c1.2,0.3,2.4,0.7,3.6,1.3
	c1.2,0.6,2.6,1,3.9,1.1c2.5,0.4,5.1-0.7,6.5-2.8c1.8-2.7-2.5-5.2-4.3-2.5c-0.5,0.8-2.2,0.4-3.2,0.1c-2.2-0.8-4.1-1.9-6.5-2.2
	l2.1,3.8c3.6-7,9.1-12.8,15.9-16.8c7.3-4.3,15.7-6.3,24.1-5.7c5,0.3,9.8,1.6,14.3,3.7c1.2,0.7,2.7,0.3,3.4-0.9
	C73.5,47.7,73.1,46.2,71.9,45.5z"/>
<path d="M46.7,44.7C40,44.4,33.5,46.7,28.5,51c-1,1-1,2.6,0,3.5c1,0.9,2.5,0.9,3.5,0c0.4-0.4,0.9-0.8,1.4-1.1
	c0.6-0.4,1.2-0.8,1.8-1.1s1.3-0.7,1.9-1c0.3-0.1,0.3-0.2,0.1-0.1l0.5-0.2l0.9-0.3c1.3-0.5,2.7-0.8,4.1-1c0.2,0,0.4,0,0.7-0.1
	l1.1-0.1c0.7,0,1.4,0,2.2,0c1.4,0,2.5-1.1,2.5-2.5c0-1.4-1.1-2.5-2.5-2.5V44.7z"/>
<path d="M18.8,57.3c-0.1,0.2-0.1,0.3-0.2,0.5l0.8-1.8c-0.3,0.8-0.8,1.5-1.3,2.2l1.2-1.5c-0.5,0.6-1,1.1-1.6,1.6l1.5-1.2
	C19,57.2,18.8,57.3,18.8,57.3c-1.7,1.1-3,2.7-3.5,4.6c-1.1,4,1.2,8.1,5.2,9.2c0,0,0,0,0,0c1.9,0.6,4,0.3,5.8-0.8
	c1.8-1.2,3.4-2.8,4.8-4.6c1-1.4,1.7-2.9,2.2-4.5c0.5-2,0.3-4-0.8-5.8c-2.1-3.6-6.7-4.8-10.2-2.7c0,0,0,0,0,0
	C20.6,53.9,19.4,55.5,18.8,57.3z"/>
<path d="M50.5,55.7c4.4,2.8,9.5,4.2,14.7,4.2l-5.3-12.8l-3.3,3.1c-2.9,2.9-2.9,7.7,0,10.6c3,2.8,7.6,2.8,10.6,0l3.3-3.1
	c4.9-4.5,1-12.8-5.3-12.8c-0.3,0-3.1-0.3-1.6,0c-0.7-0.1-1.4-0.3-2.1-0.5c-0.1,0-2.2-0.8-0.9-0.3c-0.9-0.4-1.7-0.9-2.5-1.4
	c-3.6-2-8.1-0.9-10.3,2.7C45.8,49,47,53.5,50.5,55.7L50.5,55.7z"/>
<text transform="matrix(1 0 0 1 85.0298 49.9201)" class="st4 st5 st6">5</text>
</svg>
