<?xml version="1.0" encoding="utf-8"?>
<!-- Generator: Adobe Illustrator 24.2.0, SVG Export Plug-In . SVG Version: 6.00 Build 0)  -->
<svg version="1.1" id="Layer_1" xmlns="http://www.w3.org/2000/svg" xmlns:xlink="http://www.w3.org/1999/xlink" x="0px" y="0px"
	 viewBox="0 0 150 150" style="enable-background:new 0 0 150 150;" xml:space="preserve">
<style type="text/css">
	.st0{fill:#FFFFFF;stroke:#000000;stroke-width:2;stroke-miterlimit:10;}
	.st1{fill:#FFA5E0;stroke:#000000;stroke-width:2;stroke-miterlimit:10;}
	.st2{stroke:#000000;stroke-width:2;stroke-miterlimit:10;}
	.st3{fill:none;stroke:#000000;stroke-width:2;stroke-miterlimit:10;}
	.st4{stroke:#FFFFFF;stroke-width:0.5;stroke-miterlimit:10;}
	.st5{fill:#FFA5E0;}
	.st6{font-family:'ArialRoundedMTBold';}
	.st7{font-size:50px;}
</style>
<rect x="118.8" y="117.3" class="st0" width="8.5" height="23.3"/>
<rect x="70.6" y="117.3" class="st0" width="8.5" height="23.3"/>
<circle class="st0" cx="97.9" cy="87.2" r="46.3"/>
<circle class="st0" cx="49.3" cy="91" r="32.9"/>
<ellipse class="st1" cx="49.6" cy="113.6" rx="20.9" ry="11"/>
<circle class="st2" cx="32" cy="95.6" r="4.6"/>
<rect x="118.9" y="140.6" class="st2" width="8.5" height="7.8"/>
<rect x="70.6" y="140.6" class="st2" width="8.5" height="7.8"/>
<path class="st2" d="M55.6,117.9L55.6,117.9c-0.8,0-1.4-0.6-1.4-1.4v-4.3c0-0.8,0.6-1.4,1.4-1.4h0c0.8,0,1.4,0.6,1.4,1.4v4.3
	C57,117.2,56.4,117.9,55.6,117.9z"/>
<path class="st2" d="M43.6,117.9L43.6,117.9c-0.8,0-1.4-0.6-1.4-1.4v-4.3c0-0.8,0.6-1.4,1.4-1.4h0c0.8,0,1.4,0.6,1.4,1.4v4.3
	C45,117.2,44.4,117.9,43.6,117.9z"/>
<path class="st0" d="M71.2,73c0,0,8.5-1.4,19.1,9.2s-19.1,0-19.1,0L71.2,73z"/>
<path class="st0" d="M27.4,71.7c0,0-8.5-1.4-19.1,9.2s19.1,0,19.1,0V71.7z"/>
<path class="st3" d="M137.9,62.9c0,0,10.6-5,3.5-16.3s-4.2-17-4.2-17"/>
<path class="st0" d="M135.7,29c0.3,0.8,1.2,1.1,2,0.8c0.2-0.1,0.4-0.3,0.6-0.5l2.2-3.1l2.2-3c0.5-0.7,0.3-1.6-0.3-2.1
	c-0.2-0.2-0.5-0.3-0.7-0.3l-3.7-0.5l-3.8-0.4c-0.8-0.1-1.6,0.5-1.7,1.3c0,0.3,0,0.5,0.1,0.8l1.5,3.5L135.7,29z"/>
<path d="M50.3,98.3c-0.1-0.1-0.2-0.4-0.2-0.1s0-0.2,0.1-0.2c0.3-0.4,0.7-0.6,1.2-0.6c1.7-0.2,3.4-0.2,5.1,0c2,0,4,0.2,5.3-1.5
	c0.9-1.1,1.1-2.6,2.2-3.6c1.9-1.9,4.9-2.3,7.2-0.8c0.9,0.5,2.1,1.6,2,2.8c-0.2,0.6-0.6,1.2-1,1.7c-0.5,0.7-0.9,1.5-1.3,2.4
	c-1.6,3.8-1.4,8,0.4,11.7c0.7,1.2,2.2,1.6,3.4,0.9c1.2-0.7,1.6-2.2,0.9-3.4c-0.7-1.6-1-3.3-0.8-5c0.3-2.1,1.4-3.4,2.4-5.2
	c2.4-4-0.2-8.7-4.1-10.6c-3.7-1.9-8.2-1.5-11.5,1.1c-1.4,1.1-3.2,2.9-3.5,4.6c0,0-0.2,0.3-0.2,0.3c-0.2-0.4,1.6-0.1,0.5-0.4
	c-0.6-0.1-1.1-0.1-1.7,0l-3.5-0.1c-2.4,0-5,0.3-6.6,2.2c-1.5,1.7-2.1,4.5-0.7,6.4c0.7,1.2,2.2,1.5,3.4,0.9
	C50.6,101,51,99.5,50.3,98.3L50.3,98.3z"/>
<path d="M72.3,114.2c3.2,0,3.2-5,0-5S69.1,114.2,72.3,114.2z"/>
<path d="M74.7,111.2c-0.3-5.6-6.2-9.1-10.9-11c-2.4-1-5-1.6-7.6-1.9c-1.3-0.1-2.5-0.2-3.8-0.1c-0.7,0-1.3,0.1-2,0.2l-0.8,0.1
	c-0.9,0.1,0.1-0.1,0.2,0.5v1.3c-0.2,1.1-1,0.4-0.3,0.7c0.4,0.1,0.8,0.1,1.2,0c0.9,0,1.8,0,2.8,0c1.9,0,3.8-0.2,5.7-0.6
	c1.8-0.4,3.5-1.1,5-2.2c1.5-1.1,2.7-2.9,4.6-3.3c0.2,0,1.2-0.1,1.2-0.1c-0.7,1.3-1-1.5-0.8-1.2c0,0-0.9,0.2-1.1,0.2
	c-2.1,0.3-4.4,0.4-5.7,2.5c-1,1.7-0.5,3.9,1.2,4.9c0.3,0.2,0.7,0.3,1,0.4c1,0.2,2,0.2,3,0.1c0.6-0.1,1.5-0.3,1.9-0.1l-1.1-2.8
	c-0.2,0.9-1,2.8,0.7,3.1c1.4,0,2.5-1.1,2.5-2.5c0-1.4-1.1-2.5-2.5-2.5c-3.7-0.5-5.4,4.5-2.6,6.6s5.9-0.5,6.6-3.4
	c0.3-1.1-0.2-2.2-1.2-2.8c-1.3-0.7-2.8-1-4.3-0.6c-0.4,0.1-1,0.1-1.4,0.2h-0.2c-0.8,0.2-0.6,0.9,0.5,2.2c-0.2,0.2-0.2,0.2,0.1,0.1
	c0.2-0.1,0.4-0.1,0.6-0.1c1.4-0.1,2.7-0.4,4-0.9c1.3-0.6,2.2-1.7,2.6-3.1c0.3-1.3,0-2.7-0.8-3.7c-1.2-1.4-2.8-1.5-4.5-1.3
	c-1.4,0.1-2.8,0.6-4,1.4c-1.3,0.8-2.2,2-3.4,2.9c-2,1.2-4.2,1.9-6.5,1.8c-1.3,0.1-2.5,0-3.8,0c-1.4-0.2-2.7,0-4,0.5
	c-3.3,1.6-2.2,6.2,1.1,6.9c1.4,0.3,2.8-0.1,4.3-0.2c1.3-0.1,2.7,0,4,0.1c2.8,0.4,5.4,1.2,7.9,2.6c1.8,1,5.3,3,5.5,5.3
	C70,114.3,75,114.3,74.7,111.2L74.7,111.2z"/>
<path d="M70.1,97.1c3.2,0,3.2-5,0-5S66.9,97.1,70.1,97.1z"/>
<path d="M63.6,86.5c-3.2,2.3-7.4,3-11.1,4.5c-4.4,1.8-8.4,4.4-11.8,7.7c-1,1-0.9,2.6,0.1,3.6c0.5,0.4,1.1,0.7,1.7,0.7
	c2,0.1,4.1-0.2,6-0.8c1.3-0.4,2-1.8,1.7-3.1c-0.4-1.3-1.7-2.1-3.1-1.8c-1.5,0.5-3.1,0.7-4.6,0.7l1.8,4.3c3.1-3,6.7-5.4,10.8-6.9
	c3.6-1.5,7.8-2.2,11.1-4.5c1.2-0.7,1.6-2.2,0.9-3.4C66.3,86.2,64.8,85.8,63.6,86.5z"/>
<circle class="st4" cx="64.2" cy="94.2" r="5.3"/>
<path d="M20.1,89.3c3.7-1.6,7.5-3.7,8.7-7.8c0.7-2.1,0.4-4.3,0.3-6.5c-0.1-1.6-0.1-3.4,1.2-4.5c1.5-1.2,3.7-1.3,5.6-1.3
	c2.6,0.1,5.2-0.1,7.7-0.6c4.2-0.9,9.6-3.1,9.9-8.1c0.2-3.2-4.8-3.2-5,0c-0.1,1.2-2.2,2-3.2,2.4c-2.1,0.8-4.3,1.2-6.6,1.3
	c-4.3,0.1-9-0.2-12.3,3.1c-1.5,1.6-2.3,3.6-2.4,5.8c-0.1,2,0.3,3.9,0.1,5.9c-0.3,3.4-3.9,4.9-6.7,6.1c-1.2,0.7-1.6,2.2-0.9,3.4
	C17.4,89.6,18.9,90,20.1,89.3L20.1,89.3z"/>
<path d="M18.7,90.3c6.5-1.6,11.9-6.3,14.1-12.7c0.5-1.4,0.7-2.8,1.3-4.2c0.4-1.2,1.6-2,2.9-2.1c1.8-0.3,3.5-0.3,5.3-0.6
	c1.9-0.3,3.8-0.9,5.5-1.7c3.7-1.6,6.5-4.8,7.6-8.7c0.8-3.1-4-4.5-4.8-1.3c-1,3.8-4.6,5.8-8.2,6.6c-4.3,1-9.2,0-12,4.2
	c-0.9,1.7-1.6,3.5-2,5.4C27.9,77,27.1,78.6,26,80c-2.1,2.8-5.2,4.7-8.6,5.5C14.2,86.2,15.6,91.1,18.7,90.3L18.7,90.3z"/>
<path d="M47.2,58c-5.7,1.6-11.3,3.7-16.7,6.1c-1.2,0.7-1.6,2.2-0.9,3.4c0.7,1.2,2.2,1.6,3.4,0.9c5-2.2,10.2-4.1,15.5-5.6
	c1.3-0.4,2.1-1.7,1.7-3.1C49.9,58.4,48.5,57.6,47.2,58z"/>
<path d="M74.6,52.5c2.5,0.3,6.2-0.7,8.1,0.8c0.9,0.7,0.7,1.9,0.7,3c-0.2,1.7,0.1,3.5,0.8,5.1c0.5,1,1.5,2.3,1.6,3.1
	c0.1,0.9-0.1,1.8-0.7,2.6c-0.4,0.7-1.1,1.1-1.9,1.3c-0.7,0.1-1.5,0.4-2.2,0.7c-0.4,0.3-0.8,0.6-1.2,1l-0.4,0.4
	c0.4-0.2,0.8-0.2,1.2-0.1c-1.2-0.7-2.7-0.3-3.4,0.9c-0.7,1.2-0.3,2.7,0.9,3.4c1,0.7,2.2,0.8,3.3,0.3c0.6-0.2,1.2-0.6,1.7-1.1
	c0.2-0.2,0.3-0.4,0.5-0.5c0.4-0.1,0.8-0.2,1.2-0.3c0.5-0.1,0.9-0.3,1.4-0.6c0.8-0.4,1.5-0.9,2.1-1.6c2.7-2.8,3.2-6.9,1.3-10.2
	c-0.5-0.7-0.9-1.4-1.1-2.2c-0.1-0.9-0.1-1.8,0-2.7c0.2-2.2-0.5-4.4-1.9-6c-3.2-3.3-7.8-2-11.9-2.5c-1.4,0-2.5,1.1-2.5,2.5
	C72.1,51.3,73.2,52.4,74.6,52.5L74.6,52.5z"/>
<path d="M84.8,66c-0.4,0.6-0.8,1.2-1.2,1.7l0.4-0.5c-1,1.3-2.2,2.5-3.6,3.5l0.5-0.4c-0.3,0.3-0.7,0.5-1.1,0.8
	c-0.6,0.3-1,0.9-1.2,1.5c-0.4,1.3,0.4,2.7,1.7,3.1c0.7,0.2,1.3,0.1,1.9-0.2c2.7-1.8,5-4.2,6.7-7c0.8-1.1,0.5-2.7-0.6-3.5
	c-1.1-0.8-2.7-0.5-3.5,0.6C85,65.7,84.9,65.9,84.8,66z"/>
<path d="M116.2,50.9c-2.6-1.7-5.1-3.6-7.7-5.2c-2.4-1.5-5.3-2.7-8.1-1.6c-2.5,1.2-4.2,3.6-4.3,6.4c-0.2,2.8,0.8,5.5,1.4,8.1
	c0.9,4.2,1.6,9.2-0.8,13c-0.6,1-1.5,1.8-2,2.8c-0.8,1.5-0.6,3.3,0.5,4.5c1.9,2,5.2,2.1,7.7,1.6c2.7-0.7,5.2-1.8,7.5-3.2
	c2.3-1.3,4.8-2.4,7.3-3.2c1.3-0.4,2.6-0.6,4-0.8c0.8-0.1,2.3-0.4,2.9,0.1c0.8,0.9,1.5,1.8,2.1,2.8c0.9,1.1,1.9,2.1,3,3
	c3.9,3.1,10.8,4.2,12.9-1.6c0.9-2.5,0.3-5.4-0.6-7.8c-1-2.6-2.3-5.1-4-7.3c-7-9.2-17.7-15-29.3-15.6c-3.2-0.2-3.2,4.8,0,5
	c8.4,0.5,16.2,4,22.2,9.9c3.1,3.1,5.9,6.8,6.9,11.1c0.3,1.1,0.7,3.3-0.6,3.9s-3.1-0.5-4.2-1.3c-1.7-1.4-3.1-3-4.3-4.8
	c-1.7-2.2-3.8-2.6-6.5-2.4c-5,0.5-9.8,2-14.2,4.5c-1.9,1.2-4,2.1-6.1,2.8c-0.8,0.2-1.7,0.3-2.5,0.1c-0.2,0-0.8-0.3-0.8-0.2l0.2,0.6
	c0,0.6,0.1,0.7,0.2,0.4c0.2,0,0.5-0.6,0.6-0.7c2.7-3.4,3.6-7.8,3.3-12c-0.2-2.5-0.6-4.9-1.1-7.3c-0.5-2-1.6-4.6-0.8-6.7
	s3.3-0.6,4.7,0.2c2.6,1.7,5.1,3.5,7.7,5.2S118.8,52.7,116.2,50.9L116.2,50.9z"/>
<path d="M95.5,99.1c0.4,3.2-2.6,5.2-5.2,6.3c-3.3,1.5-7.2,2.3-9.8,5c-1.5,1.4-2,3.4-1.4,5.4c0.8,1.9,2.3,3.3,4.2,4
	c1.4,0.5,2.6,1.5,3.3,2.8c0.8,1.4,1.3,3,2.2,4.3c2.1,3.2,5.7,5.4,9.5,3.6c1.7-0.9,3-2.3,3.9-3.9c0.9-1.6,1.4-3.3,2.5-4.8
	c1.7-2.3,4.4-3.6,6.4-5.6c2.5-2.4,3.6-5.9,2.9-9.3c-0.3-1.8-1.1-3.6-1.2-5.4c-0.1-2.3,1.2-4.4-0.8-6.2c-1.6-1.5-4.3-1.4-6.3-1.3
	c-2.4,0.1-4.8,0.5-7.1,1.2c-3.1,1-1.8,5.8,1.3,4.8c1.5-0.5,3.1-0.8,4.7-1c0.9,0,1.8,0,2.7,0l0.9,0.1c0.2-0.1,0.3-0.1,0.5,0
	c0.3-0.1,0.1-0.3-0.4-0.7c-0.3,0.2-0.4,1.9-0.4,2.2c-0.1,0.8,0,1.6,0.1,2.4c0.2,1.6,0.7,3.1,1.1,4.7c0.5,2.4-0.3,3.9-2,5.4
	s-4,3-5.7,4.9c-1,1.2-1.8,2.5-2.4,3.9c-0.6,1.3-1.2,3-2.4,3.9c-1.9,1.4-3.5-1.5-4.2-2.9c-1.4-2.8-2.6-5.6-5.6-7.1
	c-0.9-0.5-2.5-0.8-3-1.8c0.2,0.3-0.3,0.3,0.2-0.1c0.1-0.1,0.2-0.2,0.3-0.3c0.7-0.5,1.4-1,2.2-1.3c3-1.5,6.5-2.2,9.3-4.3
	s5.2-5.3,4.8-9c0-1.4-1.1-2.5-2.5-2.5C96.5,96.6,95.4,97.7,95.5,99.1L95.5,99.1z"/>
<path d="M142.4,88.7c-4.4-0.5-8.2,2.9-10,6.6c-1,2.2-1.8,4.5-2.5,6.8c-0.6,1.9-1.6,3.6-2.7,5.2c-2.4,3.3-5.4,6.1-7.9,9.3
	s-3.9,7.5-6.6,10.6c-1,1-0.9,2.6,0.1,3.5c1,0.9,2.5,0.9,3.5,0l4.4-3.6c1-1,1-2.6,0-3.5c-1-0.9-2.6-0.9-3.5,0l-4.4,3.6l3.5,3.5
	c2.8-3.2,4.3-7.2,6.7-10.7c2.2-3,5-5.6,7.3-8.5c1.3-1.6,2.4-3.3,3.3-5.1c0.8-2,1.6-4,2.2-6c1-3,2.8-7.2,6.7-6.8
	c1.4,0,2.5-1.1,2.5-2.5C144.8,89.8,143.7,88.7,142.4,88.7L142.4,88.7z"/>
<path d="M139.9,93.1c-1.8,1.9-3.4,3.9-4.8,6c-0.3,0.6-0.4,1.3-0.2,1.9c0.2,0.6,0.6,1.2,1.1,1.5c0.6,0.3,1.3,0.4,1.9,0.2
	c0.6-0.2,1.1-0.6,1.5-1.2c0.5-0.8,1.1-1.6,1.7-2.4l-0.4,0.5c0.9-1.1,1.7-2.1,2.7-3.1c0.5-0.5,0.7-1.1,0.7-1.8c0-0.7-0.3-1.3-0.7-1.8
	c-0.5-0.5-1.1-0.7-1.8-0.7C141,92.4,140.4,92.6,139.9,93.1L139.9,93.1z"/>
<path d="M71.3,49.9c-1.4,1.7-2.9,3.3-4.5,4.9c-0.3,0.3-0.7,0.7-1.1,1L65.5,56c-0.3,0.2-0.1,0.1,0.1,0c-0.2,0.1-0.4,0.3-0.6,0.4
	c-0.4,0.3-0.8,0.5-1.2,0.7c-0.3,0.2,0.5-0.2,0.2-0.1l-0.4,0.1c-0.2,0.1-0.5,0.1-0.8,0.2l2.4,4.2c2-2.5,4.2-4.8,6.5-7
	c0.9-1,0.8-2.6-0.2-3.5c-0.9-0.8-2.4-0.8-3.3,0c-2.3,2.2-4.4,4.6-6.5,7c-1,1-1,2.6,0,3.5c0.6,0.6,1.6,0.9,2.4,0.6
	c2.3-0.6,4.4-1.8,6-3.6c1.7-1.6,3.3-3.3,4.8-5.1c1-1,0.9-2.6-0.1-3.5C73.8,49,72.3,49,71.3,49.9L71.3,49.9z"/>
<path d="M65.1,61.5c1.2,0.7,2.3,1.4,3.3,2.1c0.6,0.4,1.1,0.8,1.7,1.2c0.2,0.2,0.2,0.1,0,0l0.4,0.3l0.8,0.7c1,0.8,2,1.7,2.9,2.6
	c0.2,0.2,0.4,0.4,0.6,0.6c0,0,0.4,0.5,0.2,0.2s0.1,0.1,0.1,0.2c0.1,0.1,0.2,0.3,0.2,0.4l0.1,0.2c0.1,0.2,0.1,0.1-0.1-0.2
	c0,0,0.2,0.8,0.2,0.9c0.4,1.3,1.7,2.1,3.1,1.8c1.3-0.4,2.1-1.8,1.8-3.1c-0.3-1.6-1.1-3-2.3-4.1c-1-1-2-2-3.1-2.8
	c-2.3-2-4.8-3.7-7.4-5.2c-1.2-0.8-2.7-0.4-3.5,0.7c-0.8,1.2-0.4,2.7,0.7,3.5C64.9,61.4,65,61.5,65.1,61.5z"/>
<path d="M102.1,52.4c0.4,0.1,0.7,0.2,1.1,0.4l-0.6-0.2c0.7,0.3,1.3,0.7,1.9,1.1l-0.5-0.4c0.6,0.5,1.1,1,1.6,1.6l-0.4-0.5
	c0.4,0.5,0.7,1,1,1.5c0.3,0.5,0.8,1,1.4,1.1c0.7,0.2,1.3,0.1,1.9-0.2c0.6-0.3,1-0.9,1.2-1.5l0.1-0.7c0-0.4-0.1-0.9-0.3-1.3
	c-0.4-0.7-0.8-1.4-1.3-2.1c-0.4-0.5-0.9-1-1.3-1.4c-1.3-1.1-2.8-1.9-4.3-2.3c-0.7-0.2-1.3-0.1-1.9,0.3c-1.2,0.7-1.6,2.2-0.9,3.4
	c0,0,0,0,0,0C101,51.8,101.5,52.2,102.1,52.4L102.1,52.4z"/>
<path d="M102.6,76.6c0.3-0.6,0.6-1.1,1.1-1.6l-0.4,0.5c0.5-0.7,1.1-1.3,1.8-1.8l-0.5,0.4c0.6-0.5,1.3-0.9,2.1-1.2
	c1.2-0.7,1.6-2.2,0.9-3.4c0,0,0,0,0,0c-0.3-0.6-0.8-1-1.5-1.2l-0.7-0.1c-0.4,0-0.9,0.1-1.3,0.3c-1.2,0.6-2.4,1.3-3.4,2.3
	c-1,0.9-1.8,2.1-2.4,3.3C98,74.7,97.9,75.4,98,76c0.2,0.6,0.6,1.2,1.2,1.5C100.3,78.2,101.9,77.8,102.6,76.6
	C102.6,76.6,102.6,76.6,102.6,76.6L102.6,76.6z"/>
<path d="M102.2,77.2c2.1,0.1,4.2-0.5,6-1.7c0.6-0.3,1-0.9,1.1-1.5c0.2-0.6,0.1-1.3-0.2-1.9c-0.3-0.6-0.9-1-1.5-1.2
	c-0.7-0.2-1.3-0.1-1.9,0.2c-0.4,0.3-0.9,0.5-1.3,0.7l0.6-0.3c-0.6,0.3-1.3,0.5-2,0.6l0.7-0.1c-0.5,0.1-0.9,0.1-1.4,0.1
	c-1.4,0-2.5,1.1-2.5,2.5c0,0.7,0.3,1.3,0.7,1.8C100.9,76.9,101.6,77.2,102.2,77.2L102.2,77.2z"/>
<path d="M138.3,97.6c-3.6,12.5-12.3,22.9-23.9,28.7c-0.4,0.2-0.8,0.4-1.3,0.5c-1.6,0.4-0.3,0.1-0.3,0.1c-0.4,0.2-0.4-0.3,0.2,0.2
	s0.1,0.7,0.2,0.2c0.1-0.3,0.1-0.6,0.2-0.9c0.3-0.6,0.6-1.2,1-1.7c2.9-3.9,7.3-6.5,11.2-9.2c4.8-3.2,9.6-6.6,12.8-11.5
	c1.8-2.7-2.6-5.2-4.3-2.5c-3,4.6-7.8,7.5-12.3,10.5c-2.4,1.5-4.8,3.2-7,5c-2.4,1.8-4.4,4.1-5.8,6.7c-0.9,1.6-1.2,3.5-0.8,5.3
	c0.6,1.7,2.2,2.9,4,2.9c2.8,0,5.7-1.9,8-3.3c5-3.1,9.5-7,13.2-11.6c4.3-5.3,7.5-11.4,9.5-18C144,95.9,139.2,94.6,138.3,97.6
	L138.3,97.6z"/>
<path d="M130.1,108.2c-0.4,0.5-0.8,1.1-1.1,1.6c-0.2,0.2-0.4,0.5-0.5,0.7s0.3-0.3,0,0l-0.3,0.4c-0.8,1-1.7,2-2.5,2.9
	s-1.8,1.8-2.7,2.6c-0.5,0.4-1,0.9-1.5,1.3l-0.7,0.6c-0.2,0.2-0.3,0.2,0,0l-0.5,0.4c-0.5,0.3-1,0.9-1.2,1.5c-0.2,0.7-0.1,1.3,0.3,1.9
	c0.7,1,2.3,1.7,3.4,0.9c4.6-3.4,8.6-7.6,11.8-12.3c0.7-1.2,0.3-2.7-0.9-3.4C132.4,106.6,130.9,107,130.1,108.2L130.1,108.2z"/>
<path d="M104.7,62.8c2.5,0.3,5.3,1.8,7.7,2.6c2.5,0.7,4.9,1.8,7.2,3.2l3.8-14c-0.8,0-2.8-0.8-3.9-0.8c-2-0.1-4,0.1-5.9,0.8
	c-3.6,1.3-7,2.9-10.2,4.8c-5.9,3.4-4.1,11.6,1.8,13.7c3.7,1.3,6.9-0.4,10.6-0.1c4,0.4,7.5-3.7,7.5-7.5c0-4.4-3.4-7.1-7.5-7.5
	c-1.9-0.2-5.1,1.1-6.6,0.6l1.8,13.7c1.9-1.1,4.4-2.9,6.6-3.3c1.8-0.3,3.7,0.7,5.8,0.6c7.6-0.5,9.9-9.7,3.8-14
	c-3.2-2.2-7.1-3.4-10.7-4.7c-3.8-1.5-7.7-2.5-11.7-3.1c-4-0.5-7.5,3.8-7.5,7.5C97.3,59.7,100.7,62.3,104.7,62.8L104.7,62.8z"/>
<path d="M131.2,74.5c9.7,0,9.7-15,0-15S121.5,74.5,131.2,74.5z"/>
<path d="M134.6,79.5c9.6,0,9.7-15,0-15S124.9,79.5,134.6,79.5z"/>
<path d="M103.3,112.5c9.7,0,9.7-15,0-15S93.7,112.5,103.3,112.5z"/>
<path d="M102.5,117.6c9.7,0,9.7-15,0-15S92.8,117.6,102.5,117.6z"/>
<path d="M90.7,122.6c9.7,0,9.7-15,0-15S81,122.6,90.7,122.6z"/>
<path d="M95.2,121.2c9.7,0,9.7-15,0-15S85.5,121.2,95.2,121.2z"/>
<path d="M94.3,126.8c9.7,0,9.7-15,0-15S84.6,126.8,94.3,126.8z"/>
<path d="M99.4,120.4c9.7,0,9.7-15,0-15S89.7,120.4,99.4,120.4z"/>
<path d="M101.9,109.4c9.7,0,9.7-15,0-15S92.2,109.4,101.9,109.4z"/>
<path d="M76.6,64.9c9.7,0,9.7-15,0-15S66.9,64.9,76.6,64.9z"/>
<path d="M79.1,70.8c9.7,0,9.7-15,0-15S69.4,70.8,79.1,70.8z"/>
<path d="M121.8,129.9c0.1-0.1,0.2-0.1,0.4-0.2l-0.6,0.3c0.2-0.1,0.3-0.1,0.5-0.1l-0.7,0.1c0.2,0,0.4,0,0.7,0l-0.7-0.1
	c0.3,0,0.5,0.1,0.8,0.2l-0.6-0.2c0.2,0.1,0.4,0.2,0.7,0.4l-0.5-0.4c0.2,0.2,0.4,0.3,0.5,0.5l-0.4-0.5c0.2,0.2,0.3,0.5,0.4,0.7
	l-0.2-0.6c0.2,0.4,0.3,0.7,0.3,1.1l-0.1-0.7c0.1,0.5,0.1,1,0,1.5l0.1-0.7c0,0.3-0.1,0.7-0.2,1c-0.4,1.3,0.4,2.7,1.7,3.1c0,0,0,0,0,0
	c0.7,0.2,1.3,0.1,1.9-0.2c0.6-0.3,1-0.9,1.2-1.5c0.3-1,0.4-2.1,0.3-3.2c0-0.6-0.2-1.2-0.4-1.8c-0.3-0.7-0.7-1.4-1.2-1.9
	c-1.6-1.8-4.3-2.3-6.5-1.1c-0.6,0.3-1,0.9-1.1,1.5c-0.4,1.3,0.4,2.7,1.7,3.1C120.5,130.3,121.2,130.2,121.8,129.9L121.8,129.9z"/>
<path d="M125.3,128.6c3.2,0,3.2-5,0-5S122.1,128.6,125.3,128.6z"/>
<text transform="matrix(1 0 0 1 27.3597 52.2633)" class="st5 st6 st7">6</text>
</svg>
